<?xml version="1.0" encoding="UTF-8" standalone="no"?>
<!DOCTYPE svg PUBLIC "-//W3C//DTD SVG 1.1//EN"
 "http://www.w3.org/Graphics/SVG/1.1/DTD/svg11.dtd">
<!-- Generated by graphviz version 2.43.0 (0)
 -->
<!-- Title: graph Pages: 1 -->
<svg width="168pt" height="208pt"
 viewBox="0.00 0.00 168.12 208.00" xmlns="http://www.w3.org/2000/svg" xmlns:xlink="http://www.w3.org/1999/xlink">
<g id="graph0" class="graph" transform="scale(1 1) rotate(0) translate(4 204)">
<title>graph</title>
<polygon fill="white" stroke="transparent" points="-4,4 -4,-204 164.12,-204 164.12,4 -4,4"/>
<!-- V41773 -->
<g id="node1" class="node">
<title>V41773</title>
<g id="a_node1"><a xlink:href="http://trips.ihmc.us/lexicon/data/ONT::SA_TELL.xml" xlink:title="&lt;font color=&quot;green&quot;&gt;&lt;br /&gt;&lt;/font&gt; &lt;font color=&quot;black&quot;&gt;SA_TELL&lt;/font&gt; &lt;font color=&quot;green&quot;&gt;&lt;br /&gt;&lt;/font&gt; &lt;font color=&quot;red&quot;&gt;SPEECHACT&lt;/font&gt; &lt;font color=&quot;blue&quot;&gt;* &lt;/font&gt; &lt;font color=&quot;green&quot;&gt;&lt;br /&gt; &lt;/font&gt;">
<text text-anchor="start" x="70.67" y="-186.6" font-family="Work Sans" font-size="8.00"> </text>
<text text-anchor="start" x="72.89" y="-186.6" font-family="Work Sans" font-size="8.00">SA_TELL</text>
<text text-anchor="start" x="107.13" y="-186.6" font-family="Work Sans" font-size="8.00"> </text>
<text text-anchor="start" x="59.56" y="-178.6" font-family="Work Sans" font-size="8.00"> </text>
<text text-anchor="start" x="61.78" y="-178.6" font-family="Work Sans" font-size="8.00" fill="red">SPEECHACT</text>
<text text-anchor="start" x="110.68" y="-178.6" font-family="Work Sans" font-size="8.00"> </text>
<text text-anchor="start" x="112.9" y="-178.6" font-family="Work Sans" font-size="8.00" fill="blue">* </text>
<text text-anchor="start" x="118.24" y="-178.6" font-family="Work Sans" font-size="8.00"> </text>
<text text-anchor="start" x="88.9" y="-170.6" font-family="Work Sans" font-size="8.00" fill="green"> </text>
</a>
</g>
</g>
<!-- V41625 -->
<g id="node2" class="node">
<title>V41625</title>
<g id="a_node2"><a xlink:href="http://trips.ihmc.us/lexicon/data/ONT::PRECIPITATING.xml" xlink:title="&lt;font color=&quot;green&quot;&gt;&lt;br /&gt;&lt;/font&gt; &lt;font color=&quot;black&quot;&gt;PRECIPITATING&lt;/font&gt; &lt;font color=&quot;green&quot;&gt;&lt;br /&gt;&lt;/font&gt; &lt;font color=&quot;red&quot;&gt;F&lt;/font&gt; &lt;font color=&quot;blue&quot;&gt;SNOW&lt;/font&gt; &lt;font color=&quot;green&quot;&gt;&lt;br /&gt;&lt;/font&gt; &lt;font color=&quot;green&quot;&gt;snow%2:43:00::&lt;/font&gt; &lt;font color=&quot;green&quot;&gt;&lt;br /&gt; &lt;/font&gt;">
<text text-anchor="start" x="57.71" y="-110.6" font-family="Work Sans" font-size="8.00"> </text>
<text text-anchor="start" x="59.93" y="-110.6" font-family="Work Sans" font-size="8.00">PRECIPITATING</text>
<text text-anchor="start" x="120.09" y="-110.6" font-family="Work Sans" font-size="8.00"> </text>
<text text-anchor="start" x="71.79" y="-102.6" font-family="Work Sans" font-size="8.00"> </text>
<text text-anchor="start" x="74.01" y="-102.6" font-family="Work Sans" font-size="8.00" fill="red">F</text>
<text text-anchor="start" x="78.9" y="-102.6" font-family="Work Sans" font-size="8.00"> </text>
<text text-anchor="start" x="81.12" y="-102.6" font-family="Work Sans" font-size="8.00" fill="blue">SNOW</text>
<text text-anchor="start" x="106.01" y="-102.6" font-family="Work Sans" font-size="8.00"> </text>
<text text-anchor="start" x="59.32" y="-94.6" font-family="Work Sans" font-size="8.00"> </text>
<text text-anchor="start" x="61.55" y="-94.6" font-family="Work Sans" font-size="8.00" fill="green">snow%2:43:00::</text>
<text text-anchor="start" x="118.47" y="-94.6" font-family="Work Sans" font-size="8.00"> </text>
<text text-anchor="start" x="88.9" y="-86.6" font-family="Work Sans" font-size="8.00" fill="green"> </text>
</a>
</g>
</g>
<!-- V41773&#45;&gt;V41625 -->
<g id="edge4" class="edge">
<title>V41773&#45;&gt;V41625</title>
<path fill="none" stroke="grey" stroke-width="0.5" d="M90.01,-167.96C90.01,-157.04 90.01,-142.02 90.01,-129.39"/>
<polygon fill="grey" stroke="grey" stroke-width="0.5" points="91.76,-129.14 90.01,-124.14 88.26,-129.14 91.76,-129.14"/>
<text text-anchor="middle" x="113.72" y="-143.6" font-family="Work Sans" font-size="8.00"> CONTENT &#160;&#160;</text>
</g>
<!-- V41592 -->
<g id="node3" class="node">
<title>V41592</title>
<g id="a_node3"><a xlink:href="http://trips.ihmc.us/lexicon/data/ONT::EXPLETIVE.xml" xlink:title="&lt;font color=&quot;green&quot;&gt;&lt;br /&gt;&lt;/font&gt; &lt;font color=&quot;black&quot;&gt;EXPLETIVE&lt;/font&gt; &lt;font color=&quot;green&quot;&gt;&lt;br /&gt;&lt;/font&gt; &lt;font color=&quot;red&quot;&gt;PRO&lt;/font&gt; &lt;font color=&quot;blue&quot;&gt;* &lt;/font&gt; &lt;font color=&quot;green&quot;&gt;&lt;br /&gt; &lt;/font&gt;">
<polygon fill="pink" stroke="transparent" points="48.03,-36 -0.01,-36 -0.01,-4 48.03,-4 48.03,-36"/>
<text text-anchor="start" x="0" y="-22.6" font-family="Work Sans" font-size="8.00"> </text>
<text text-anchor="start" x="2.22" y="-22.6" font-family="Work Sans" font-size="8.00">EXPLETIVE</text>
<text text-anchor="start" x="45.8" y="-22.6" font-family="Work Sans" font-size="8.00"> </text>
<text text-anchor="start" x="9.34" y="-14.6" font-family="Work Sans" font-size="8.00"> </text>
<text text-anchor="start" x="11.56" y="-14.6" font-family="Work Sans" font-size="8.00" fill="red">PRO</text>
<text text-anchor="start" x="28.9" y="-14.6" font-family="Work Sans" font-size="8.00"> </text>
<text text-anchor="start" x="31.12" y="-14.6" font-family="Work Sans" font-size="8.00" fill="blue">* </text>
<text text-anchor="start" x="36.46" y="-14.6" font-family="Work Sans" font-size="8.00"> </text>
<text text-anchor="start" x="22.9" y="-6.6" font-family="Work Sans" font-size="8.00" fill="green"> </text>
</a>
</g>
</g>
<!-- V41625&#45;&gt;V41592 -->
<g id="edge1" class="edge">
<title>V41625&#45;&gt;V41592</title>
<path fill="none" stroke="red" stroke-width="0.5" d="M57.28,-84.94C50.36,-79.69 43.69,-73.58 38.53,-66.59 33.06,-59.09 29.48,-49.83 27.11,-41.51"/>
<path fill="none" stroke="blue" stroke-width="0.5" d="M58.49,-83.34C51.71,-78.22 45.04,-72.11 40.14,-65.41 34.92,-58.37 31.35,-49.11 29.03,-40.96"/>
<polygon fill="red" stroke="red" stroke-width="0.5" points="29.73,-40.66 26.77,-36.27 26.35,-41.55 29.73,-40.66"/>
<text text-anchor="middle" x="61.35" y="-59.6" font-family="Work Sans" font-size="8.00"> NOROLE &#160;&#160;</text>
</g>
<!-- V41614 -->
<g id="node4" class="node">
<title>V41614</title>
<g id="a_node4"><a xlink:href="http://trips.ihmc.us/lexicon/data/ONT::TIME-REL-SO-FAR.xml" xlink:title="&lt;font color=&quot;green&quot;&gt;&lt;br /&gt;&lt;/font&gt; &lt;font color=&quot;black&quot;&gt;TIME&#45;REL&#45;SO&#45;FAR&lt;/font&gt; &lt;font color=&quot;green&quot;&gt;&lt;br /&gt;&lt;/font&gt; &lt;font color=&quot;red&quot;&gt;F&lt;/font&gt; &lt;font color=&quot;blue&quot;&gt;STILL&lt;/font&gt; &lt;font color=&quot;green&quot;&gt;&lt;br /&gt;&lt;/font&gt; &lt;font color=&quot;green&quot;&gt;still%4:02:01::&lt;/font&gt; &lt;font color=&quot;green&quot;&gt;&lt;br /&gt; &lt;/font&gt;">
<polygon fill="pink" stroke="transparent" stroke-width="0.5" points="84.78,0 122.01,0 122.01,-40 84.78,-40 84.78,0"/>
<polygon fill="lightblue" stroke="transparent" stroke-width="0.5" points="122.01,0 159.24,0 159.24,-40 122.01,-40 122.01,0"/>
<polygon fill="none" stroke="transparent" points="159.24,-40 84.78,-40 84.78,0 159.24,0 159.24,-40"/>
<text text-anchor="start" x="84.89" y="-26.6" font-family="Work Sans" font-size="8.00"> </text>
<text text-anchor="start" x="87.12" y="-26.6" font-family="Work Sans" font-size="8.00">TIME&#45;REL&#45;SO&#45;FAR</text>
<text text-anchor="start" x="156.9" y="-26.6" font-family="Work Sans" font-size="8.00"> </text>
<text text-anchor="start" x="105.56" y="-18.6" font-family="Work Sans" font-size="8.00"> </text>
<text text-anchor="start" x="107.78" y="-18.6" font-family="Work Sans" font-size="8.00" fill="red">F</text>
<text text-anchor="start" x="112.67" y="-18.6" font-family="Work Sans" font-size="8.00"> </text>
<text text-anchor="start" x="114.89" y="-18.6" font-family="Work Sans" font-size="8.00" fill="blue">STILL</text>
<text text-anchor="start" x="136.24" y="-18.6" font-family="Work Sans" font-size="8.00"> </text>
<text text-anchor="start" x="94.88" y="-10.6" font-family="Work Sans" font-size="8.00"> </text>
<text text-anchor="start" x="97.11" y="-10.6" font-family="Work Sans" font-size="8.00" fill="green">still%4:02:01::</text>
<text text-anchor="start" x="146.91" y="-10.6" font-family="Work Sans" font-size="8.00"> </text>
<text text-anchor="start" x="120.9" y="-2.6" font-family="Work Sans" font-size="8.00" fill="green"> </text>
</a>
</g>
</g>
<!-- V41625&#45;&gt;V41614 -->
<g id="edge3" class="edge">
<title>V41625&#45;&gt;V41614</title>
<path fill="none" stroke="grey" stroke-width="0.5" d="M85.18,-83.6C84.06,-75.44 83.97,-66 87.15,-58 89.14,-52.98 92.18,-48.24 95.64,-43.94"/>
<polygon fill="grey" stroke="grey" stroke-width="0.5" points="97,-45.05 98.93,-40.11 94.34,-42.77 97,-45.05"/>
<text text-anchor="middle" x="101.94" y="-59.6" font-family="Work Sans" font-size="8.00"> TIME &#160;&#160;</text>
</g>
<!-- V41614&#45;&gt;V41625 -->
<g id="edge2" class="edge">
<title>V41614&#45;&gt;V41625</title>
<path fill="none" stroke="grey" stroke-width="0.5" d="M123.2,-40.37C123.08,-48.52 122.09,-57.96 119.01,-66 117.21,-70.69 114.61,-75.26 111.68,-79.5"/>
<polygon fill="grey" stroke="grey" stroke-width="0.5" points="110.21,-78.55 108.67,-83.62 113.04,-80.61 110.21,-78.55"/>
<text text-anchor="middle" x="140.57" y="-59.6" font-family="Work Sans" font-size="8.00"> FIGURE &#160;&#160;</text>
</g>
</g>
</svg>
