<?xml version="1.0" encoding="UTF-8" standalone="no"?>
<!DOCTYPE svg PUBLIC "-//W3C//DTD SVG 1.1//EN"
 "http://www.w3.org/Graphics/SVG/1.1/DTD/svg11.dtd">
<!-- Generated by graphviz version 2.43.0 (0)
 -->
<!-- Title: graph Pages: 1 -->
<svg width="210pt" height="284pt"
 viewBox="0.00 0.00 209.78 284.00" xmlns="http://www.w3.org/2000/svg" xmlns:xlink="http://www.w3.org/1999/xlink">
<g id="graph0" class="graph" transform="scale(1 1) rotate(0) translate(4 280)">
<title>graph</title>
<polygon fill="white" stroke="transparent" points="-4,4 -4,-280 205.78,-280 205.78,4 -4,4"/>
<!-- V72494 -->
<g id="node1" class="node">
<title>V72494</title>
<g id="a_node1"><a xlink:href="http://trips.ihmc.us/lexicon/data/ONT::SA_WH-QUESTION.xml" xlink:title="&lt;font color=&quot;green&quot;&gt;&lt;br /&gt;&lt;/font&gt; &lt;font color=&quot;black&quot;&gt;SA_WH&#45;QUESTION&lt;/font&gt; &lt;font color=&quot;green&quot;&gt;&lt;br /&gt;&lt;/font&gt; &lt;font color=&quot;red&quot;&gt;SPEECHACT&lt;/font&gt; &lt;font color=&quot;blue&quot;&gt;* &lt;/font&gt; &lt;font color=&quot;green&quot;&gt;&lt;br /&gt; &lt;/font&gt;">
<text text-anchor="start" x="80.21" y="-262.6" font-family="Work Sans" font-size="8.00"> </text>
<text text-anchor="start" x="82.44" y="-262.6" font-family="Work Sans" font-size="8.00">SA_WH&#45;QUESTION</text>
<text text-anchor="start" x="155.33" y="-262.6" font-family="Work Sans" font-size="8.00"> </text>
<text text-anchor="start" x="88.43" y="-254.6" font-family="Work Sans" font-size="8.00"> </text>
<text text-anchor="start" x="90.66" y="-254.6" font-family="Work Sans" font-size="8.00" fill="red">SPEECHACT</text>
<text text-anchor="start" x="139.55" y="-254.6" font-family="Work Sans" font-size="8.00"> </text>
<text text-anchor="start" x="141.78" y="-254.6" font-family="Work Sans" font-size="8.00" fill="blue">* </text>
<text text-anchor="start" x="147.11" y="-254.6" font-family="Work Sans" font-size="8.00"> </text>
<text text-anchor="start" x="117.77" y="-246.6" font-family="Work Sans" font-size="8.00" fill="green"> </text>
</a>
</g>
</g>
<!-- V72094 -->
<g id="node2" class="node">
<title>V72094</title>
<g id="a_node2"><a xlink:href="http://trips.ihmc.us/lexicon/data/ONT::OCCURRING.xml" xlink:title="&lt;font color=&quot;green&quot;&gt;&lt;br /&gt;&lt;/font&gt; &lt;font color=&quot;black&quot;&gt;OCCURRING&lt;/font&gt; &lt;font color=&quot;green&quot;&gt;&lt;br /&gt;&lt;/font&gt; &lt;font color=&quot;red&quot;&gt;F&lt;/font&gt; &lt;font color=&quot;blue&quot;&gt;GO&lt;/font&gt; &lt;font color=&quot;green&quot;&gt;&lt;br /&gt;&lt;/font&gt; &lt;font color=&quot;green&quot;&gt;go%2:30:01::&lt;/font&gt; &lt;font color=&quot;green&quot;&gt;&lt;br /&gt; &lt;/font&gt;">
<polygon fill="pink" stroke="transparent" points="96.66,-200 43.11,-200 43.11,-160 96.66,-160 96.66,-200"/>
<text text-anchor="start" x="43" y="-186.6" font-family="Work Sans" font-size="8.00"> </text>
<text text-anchor="start" x="45.22" y="-186.6" font-family="Work Sans" font-size="8.00">OCCURRING</text>
<text text-anchor="start" x="94.55" y="-186.6" font-family="Work Sans" font-size="8.00"> </text>
<text text-anchor="start" x="57.88" y="-178.6" font-family="Work Sans" font-size="8.00"> </text>
<text text-anchor="start" x="60.11" y="-178.6" font-family="Work Sans" font-size="8.00" fill="red">F</text>
<text text-anchor="start" x="64.99" y="-178.6" font-family="Work Sans" font-size="8.00"> </text>
<text text-anchor="start" x="67.22" y="-178.6" font-family="Work Sans" font-size="8.00" fill="blue">GO</text>
<text text-anchor="start" x="79.66" y="-178.6" font-family="Work Sans" font-size="8.00"> </text>
<text text-anchor="start" x="44.09" y="-170.6" font-family="Work Sans" font-size="8.00"> </text>
<text text-anchor="start" x="46.31" y="-170.6" font-family="Work Sans" font-size="8.00" fill="green">go%2:30:01::</text>
<text text-anchor="start" x="93.46" y="-170.6" font-family="Work Sans" font-size="8.00"> </text>
<text text-anchor="start" x="68.77" y="-162.6" font-family="Work Sans" font-size="8.00" fill="green"> </text>
</a>
</g>
</g>
<!-- V72494&#45;&gt;V72094 -->
<g id="edge4" class="edge">
<title>V72494&#45;&gt;V72094</title>
<path fill="none" stroke="grey" stroke-width="0.5" d="M109.44,-243.96C102.39,-232.74 92.63,-217.21 84.57,-204.38"/>
<polygon fill="grey" stroke="grey" stroke-width="0.5" points="86.05,-203.45 81.91,-200.14 83.09,-205.31 86.05,-203.45"/>
<text text-anchor="middle" x="120.59" y="-219.6" font-family="Work Sans" font-size="8.00"> CONTENT &#160;&#160;</text>
</g>
<!-- V72138 -->
<g id="node4" class="node">
<title>V72138</title>
<g id="a_node4"><a xlink:href="http://trips.ihmc.us/lexicon/data/ONT::METHOD.xml" xlink:title="&lt;font color=&quot;green&quot;&gt;&lt;br /&gt;&lt;/font&gt; &lt;font color=&quot;black&quot;&gt;METHOD&lt;/font&gt; &lt;font color=&quot;green&quot;&gt;&lt;br /&gt;&lt;/font&gt; &lt;font color=&quot;red&quot;&gt;WH&#45;TERM&lt;/font&gt; &lt;font color=&quot;blue&quot;&gt;* &lt;/font&gt; &lt;font color=&quot;green&quot;&gt;&lt;br /&gt; &lt;/font&gt;">
<polygon fill="lightblue" stroke="transparent" points="129.05,-32 78.72,-32 78.72,0 129.05,0 129.05,-32"/>
<text text-anchor="start" x="84.33" y="-18.6" font-family="Work Sans" font-size="8.00"> </text>
<text text-anchor="start" x="86.55" y="-18.6" font-family="Work Sans" font-size="8.00">METHOD</text>
<text text-anchor="start" x="121.22" y="-18.6" font-family="Work Sans" font-size="8.00"> </text>
<text text-anchor="start" x="78.55" y="-10.6" font-family="Work Sans" font-size="8.00"> </text>
<text text-anchor="start" x="80.78" y="-10.6" font-family="Work Sans" font-size="8.00" fill="red">WH&#45;TERM</text>
<text text-anchor="start" x="119.43" y="-10.6" font-family="Work Sans" font-size="8.00"> </text>
<text text-anchor="start" x="121.66" y="-10.6" font-family="Work Sans" font-size="8.00" fill="blue">* </text>
<text text-anchor="start" x="126.99" y="-10.6" font-family="Work Sans" font-size="8.00"> </text>
<text text-anchor="start" x="102.77" y="-2.6" font-family="Work Sans" font-size="8.00" fill="green"> </text>
</a>
</g>
</g>
<!-- V72494&#45;&gt;V72138 -->
<g id="edge6" class="edge">
<title>V72494&#45;&gt;V72138</title>
<path fill="none" stroke="grey" stroke-width="0.5" d="M136.07,-243.72C140.74,-238.58 145.23,-232.5 147.88,-226 173.11,-164.23 167.15,-141.39 153.88,-76 151.39,-63.7 150.32,-60.11 142.88,-50 139.11,-44.87 134.38,-40.01 129.52,-35.69"/>
<polygon fill="grey" stroke="grey" stroke-width="0.5" points="130.37,-34.11 125.44,-32.19 128.1,-36.77 130.37,-34.11"/>
<text text-anchor="middle" x="183.33" y="-135.6" font-family="Work Sans" font-size="8.00"> FOCUS &#160;&#160;</text>
</g>
<!-- V72055 -->
<g id="node3" class="node">
<title>V72055</title>
<g id="a_node3"><a xlink:href="http://trips.ihmc.us/lexicon/data/ONT::BY-MEANS-OF.xml" xlink:title="&lt;font color=&quot;green&quot;&gt;&lt;br /&gt;&lt;/font&gt; &lt;font color=&quot;black&quot;&gt;BY&#45;MEANS&#45;OF&lt;/font&gt; &lt;font color=&quot;green&quot;&gt;&lt;br /&gt;&lt;/font&gt; &lt;font color=&quot;red&quot;&gt;F&lt;/font&gt; &lt;font color=&quot;blue&quot;&gt;HOW&lt;/font&gt; &lt;font color=&quot;green&quot;&gt;&lt;br /&gt; &lt;/font&gt;">
<polygon fill="lightblue" stroke="transparent" points="66.65,-112 7.11,-112 7.11,-80 66.65,-80 66.65,-112"/>
<text text-anchor="start" x="7.25" y="-98.6" font-family="Work Sans" font-size="8.00"> </text>
<text text-anchor="start" x="9.47" y="-98.6" font-family="Work Sans" font-size="8.00">BY&#45;MEANS&#45;OF</text>
<text text-anchor="start" x="64.3" y="-98.6" font-family="Work Sans" font-size="8.00"> </text>
<text text-anchor="start" x="21.33" y="-90.6" font-family="Work Sans" font-size="8.00"> </text>
<text text-anchor="start" x="23.55" y="-90.6" font-family="Work Sans" font-size="8.00" fill="red">F</text>
<text text-anchor="start" x="28.44" y="-90.6" font-family="Work Sans" font-size="8.00"> </text>
<text text-anchor="start" x="30.66" y="-90.6" font-family="Work Sans" font-size="8.00" fill="blue">HOW</text>
<text text-anchor="start" x="50.21" y="-90.6" font-family="Work Sans" font-size="8.00"> </text>
<text text-anchor="start" x="35.77" y="-82.6" font-family="Work Sans" font-size="8.00" fill="green"> </text>
</a>
</g>
</g>
<!-- V72094&#45;&gt;V72055 -->
<g id="edge7" class="edge">
<title>V72094&#45;&gt;V72055</title>
<path fill="none" stroke="red" stroke-width="0.5" d="M42.64,-172.61C27.73,-167 10.65,-157.72 1.47,-142.51 -3.9,-132.49 1.19,-123.18 9.13,-115.16"/>
<path fill="none" stroke="blue" stroke-width="0.5" d="M43.35,-170.74C28.68,-165.24 11.6,-155.96 3.19,-141.49 -2.14,-133.45 2.95,-124.14 10.55,-116.57"/>
<polygon fill="red" stroke="red" stroke-width="0.5" points="11.35,-116.85 13.83,-112.17 8.97,-114.28 11.35,-116.85"/>
<text text-anchor="middle" x="24.66" y="-135.6" font-family="Work Sans" font-size="8.00"> METHOD &#160;&#160;</text>
</g>
<!-- V72079 -->
<g id="node5" class="node">
<title>V72079</title>
<g id="a_node5"><a xlink:href="http://trips.ihmc.us/lexicon/data/ONT::MUSIC.xml" xlink:title="&lt;font color=&quot;green&quot;&gt;&lt;br /&gt;&lt;/font&gt; &lt;font color=&quot;black&quot;&gt;MUSIC&lt;/font&gt; &lt;font color=&quot;green&quot;&gt;&lt;br /&gt;&lt;/font&gt; &lt;font color=&quot;red&quot;&gt;THE&lt;/font&gt; &lt;font color=&quot;blue&quot;&gt;SONG&lt;/font&gt; &lt;font color=&quot;green&quot;&gt;&lt;br /&gt;&lt;/font&gt; &lt;font color=&quot;green&quot;&gt;song%1:10:00::&lt;/font&gt; &lt;font color=&quot;green&quot;&gt;&lt;br /&gt; &lt;/font&gt;">
<text text-anchor="start" x="99.77" y="-102.6" font-family="Work Sans" font-size="8.00"> </text>
<text text-anchor="start" x="102" y="-102.6" font-family="Work Sans" font-size="8.00">MUSIC</text>
<text text-anchor="start" x="127.77" y="-102.6" font-family="Work Sans" font-size="8.00"> </text>
<text text-anchor="start" x="91.77" y="-94.6" font-family="Work Sans" font-size="8.00"> </text>
<text text-anchor="start" x="93.99" y="-94.6" font-family="Work Sans" font-size="8.00" fill="red">THE</text>
<text text-anchor="start" x="109.99" y="-94.6" font-family="Work Sans" font-size="8.00"> </text>
<text text-anchor="start" x="112.22" y="-94.6" font-family="Work Sans" font-size="8.00" fill="blue">SONG</text>
<text text-anchor="start" x="135.78" y="-94.6" font-family="Work Sans" font-size="8.00"> </text>
<text text-anchor="start" x="84.86" y="-86.6" font-family="Work Sans" font-size="8.00"> </text>
<text text-anchor="start" x="87.09" y="-86.6" font-family="Work Sans" font-size="8.00" fill="green">song%1:10:00::</text>
<text text-anchor="start" x="142.68" y="-86.6" font-family="Work Sans" font-size="8.00"> </text>
<text text-anchor="start" x="113.77" y="-78.6" font-family="Work Sans" font-size="8.00" fill="green"> </text>
</a>
</g>
</g>
<!-- V72094&#45;&gt;V72079 -->
<g id="edge1" class="edge">
<title>V72094&#45;&gt;V72079</title>
<path fill="none" stroke="red" stroke-width="0.5" d="M82.44,-159.63C85.94,-154.02 89.66,-147.82 92.88,-142 96.65,-135.2 100.46,-127.66 103.84,-120.73"/>
<polygon fill="red" stroke="red" stroke-width="0.5" points="105.5,-121.31 106.1,-116.05 102.35,-119.79 105.5,-121.31"/>
<text text-anchor="middle" x="118.85" y="-135.6" font-family="Work Sans" font-size="8.00"> NEUTRAL &#160;&#160;</text>
</g>
<!-- V72055&#45;&gt;V72094 -->
<g id="edge2" class="edge">
<title>V72055&#45;&gt;V72094</title>
<path fill="none" stroke="grey" stroke-width="0.5" d="M42.32,-112.08C45.54,-120.85 49.76,-132.1 53.77,-142 55.51,-146.29 57.42,-150.83 59.31,-155.21"/>
<polygon fill="grey" stroke="grey" stroke-width="0.5" points="57.74,-155.98 61.33,-159.88 60.95,-154.59 57.74,-155.98"/>
<text text-anchor="middle" x="72.44" y="-135.6" font-family="Work Sans" font-size="8.00"> FIGURE &#160;&#160;</text>
</g>
<!-- V72055&#45;&gt;V72138 -->
<g id="edge3" class="edge">
<title>V72055&#45;&gt;V72138</title>
<path fill="none" stroke="grey" stroke-width="0.5" d="M33.29,-79.7C31.98,-70.42 31.95,-58.73 37.44,-50 45.5,-37.18 60.17,-29.17 73.68,-24.27"/>
<polygon fill="grey" stroke="grey" stroke-width="0.5" points="74.42,-25.86 78.59,-22.59 73.29,-22.55 74.42,-25.86"/>
<text text-anchor="middle" x="59.11" y="-51.6" font-family="Work Sans" font-size="8.00"> GROUND &#160;&#160;</text>
</g>
<!-- V72138&#45;&gt;V72055 -->
<g id="edge5" class="edge">
<title>V72138&#45;&gt;V72055</title>
<path fill="none" stroke="grey" stroke-width="0.5" d="M97.44,-32.29C93.6,-40.4 88.24,-50.26 81.88,-58 76.36,-64.73 69.45,-71.12 62.73,-76.64"/>
<polygon fill="grey" stroke="grey" stroke-width="0.5" points="61.39,-75.47 58.58,-79.96 63.58,-78.2 61.39,-75.47"/>
<text text-anchor="middle" x="112.74" y="-51.6" font-family="Work Sans" font-size="8.00"> SUCHTHAT &#160;&#160;</text>
</g>
</g>
</svg>
