<?xml version="1.0" encoding="UTF-8" standalone="no"?>
<!DOCTYPE svg PUBLIC "-//W3C//DTD SVG 1.1//EN"
 "http://www.w3.org/Graphics/SVG/1.1/DTD/svg11.dtd">
<!-- Generated by graphviz version 2.43.0 (0)
 -->
<!-- Title: graph Pages: 1 -->
<svg width="413pt" height="368pt"
 viewBox="0.00 0.00 413.36 368.00" xmlns="http://www.w3.org/2000/svg" xmlns:xlink="http://www.w3.org/1999/xlink">
<g id="graph0" class="graph" transform="scale(1 1) rotate(0) translate(4 364)">
<title>graph</title>
<polygon fill="white" stroke="transparent" points="-4,4 -4,-364 409.36,-364 409.36,4 -4,4"/>
<!-- V73217 -->
<g id="node1" class="node">
<title>V73217</title>
<g id="a_node1"><a xlink:href="http://trips.ihmc.us/lexicon/data/ONT::SA_TELL.xml" xlink:title="&lt;font color=&quot;green&quot;&gt;&lt;br /&gt;&lt;/font&gt; &lt;font color=&quot;black&quot;&gt;SA_TELL&lt;/font&gt; &lt;font color=&quot;green&quot;&gt;&lt;br /&gt;&lt;/font&gt; &lt;font color=&quot;red&quot;&gt;SPEECHACT&lt;/font&gt; &lt;font color=&quot;blue&quot;&gt;* &lt;/font&gt; &lt;font color=&quot;green&quot;&gt;&lt;br /&gt; &lt;/font&gt;">
<text text-anchor="start" x="137.12" y="-346.6" font-family="Work Sans" font-size="8.00"> </text>
<text text-anchor="start" x="139.35" y="-346.6" font-family="Work Sans" font-size="8.00">SA_TELL</text>
<text text-anchor="start" x="173.59" y="-346.6" font-family="Work Sans" font-size="8.00"> </text>
<text text-anchor="start" x="126.02" y="-338.6" font-family="Work Sans" font-size="8.00"> </text>
<text text-anchor="start" x="128.24" y="-338.6" font-family="Work Sans" font-size="8.00" fill="red">SPEECHACT</text>
<text text-anchor="start" x="177.14" y="-338.6" font-family="Work Sans" font-size="8.00"> </text>
<text text-anchor="start" x="179.36" y="-338.6" font-family="Work Sans" font-size="8.00" fill="blue">* </text>
<text text-anchor="start" x="184.7" y="-338.6" font-family="Work Sans" font-size="8.00"> </text>
<text text-anchor="start" x="155.36" y="-330.6" font-family="Work Sans" font-size="8.00" fill="green"> </text>
</a>
</g>
</g>
<!-- V73206 -->
<g id="node2" class="node">
<title>V73206</title>
<g id="a_node2"><a xlink:href="http://trips.ihmc.us/lexicon/data/ONT::EVENT-OF-ACTION.xml" xlink:title="&lt;font color=&quot;green&quot;&gt;&lt;br /&gt;&lt;/font&gt; &lt;font color=&quot;black&quot;&gt;EVENT&#45;OF&#45;ACTION&lt;/font&gt; &lt;font color=&quot;green&quot;&gt;&lt;br /&gt;&lt;/font&gt; &lt;font color=&quot;red&quot;&gt;F&lt;/font&gt; &lt;font color=&quot;blue&quot;&gt;* &lt;/font&gt; &lt;font color=&quot;green&quot;&gt;&lt;br /&gt; &lt;/font&gt;">
<polygon fill="pink" stroke="transparent" stroke-width="0.5" points="117.63,-252 156.47,-252 156.47,-284 117.63,-284 117.63,-252"/>
<polygon fill="lightblue" stroke="transparent" stroke-width="0.5" points="156.47,-252 195.31,-252 195.31,-284 156.47,-284 156.47,-252"/>
<polygon fill="none" stroke="transparent" points="195.31,-284 117.63,-284 117.63,-252 195.31,-252 195.31,-284"/>
<text text-anchor="start" x="117.8" y="-270.6" font-family="Work Sans" font-size="8.00"> </text>
<text text-anchor="start" x="120.02" y="-270.6" font-family="Work Sans" font-size="8.00">EVENT&#45;OF&#45;ACTION</text>
<text text-anchor="start" x="192.91" y="-270.6" font-family="Work Sans" font-size="8.00"> </text>
<text text-anchor="start" x="148.02" y="-262.6" font-family="Work Sans" font-size="8.00"> </text>
<text text-anchor="start" x="150.24" y="-262.6" font-family="Work Sans" font-size="8.00" fill="red">F</text>
<text text-anchor="start" x="155.13" y="-262.6" font-family="Work Sans" font-size="8.00"> </text>
<text text-anchor="start" x="157.35" y="-262.6" font-family="Work Sans" font-size="8.00" fill="blue">* </text>
<text text-anchor="start" x="162.69" y="-262.6" font-family="Work Sans" font-size="8.00"> </text>
<text text-anchor="start" x="155.36" y="-254.6" font-family="Work Sans" font-size="8.00" fill="green"> </text>
</a>
</g>
</g>
<!-- V73217&#45;&gt;V73206 -->
<g id="edge2" class="edge">
<title>V73217&#45;&gt;V73206</title>
<path fill="none" stroke="grey" stroke-width="0.5" d="M156.47,-327.67C156.47,-316.58 156.47,-301.49 156.47,-289.38"/>
<polygon fill="grey" stroke="grey" stroke-width="0.5" points="158.22,-289.06 156.47,-284.06 154.72,-289.06 158.22,-289.06"/>
<text text-anchor="middle" x="180.17" y="-303.6" font-family="Work Sans" font-size="8.00"> CONTENT &#160;&#160;</text>
</g>
<!-- V72471 -->
<g id="node3" class="node">
<title>V72471</title>
<g id="a_node3"><a xlink:href="http://trips.ihmc.us/lexicon/data/ONT::EAT.xml" xlink:title="&lt;font color=&quot;green&quot;&gt;&lt;br /&gt;&lt;/font&gt; &lt;font color=&quot;black&quot;&gt;EAT&lt;/font&gt; &lt;font color=&quot;green&quot;&gt;&lt;br /&gt;&lt;/font&gt; &lt;font color=&quot;red&quot;&gt;F&lt;/font&gt; &lt;font color=&quot;blue&quot;&gt;EAT&lt;/font&gt; &lt;font color=&quot;green&quot;&gt;&lt;br /&gt;&lt;/font&gt; &lt;font color=&quot;green&quot;&gt;eat%2:34:00::&lt;/font&gt; &lt;font color=&quot;green&quot;&gt;&lt;br /&gt; &lt;/font&gt;">
<polygon fill="pink" stroke="transparent" stroke-width="0.5" points="79.65,-168 106.47,-168 106.47,-208 79.65,-208 79.65,-168"/>
<polygon fill="lightblue" stroke="transparent" stroke-width="0.5" points="106.47,-168 133.28,-168 133.28,-208 106.47,-208 106.47,-168"/>
<polygon fill="none" stroke="transparent" points="133.28,-208 79.65,-208 79.65,-168 133.28,-168 133.28,-208"/>
<text text-anchor="start" x="96.76" y="-194.6" font-family="Work Sans" font-size="8.00"> </text>
<text text-anchor="start" x="98.98" y="-194.6" font-family="Work Sans" font-size="8.00">EAT</text>
<text text-anchor="start" x="113.95" y="-194.6" font-family="Work Sans" font-size="8.00"> </text>
<text text-anchor="start" x="93.21" y="-186.6" font-family="Work Sans" font-size="8.00"> </text>
<text text-anchor="start" x="95.43" y="-186.6" font-family="Work Sans" font-size="8.00" fill="red">F</text>
<text text-anchor="start" x="100.31" y="-186.6" font-family="Work Sans" font-size="8.00"> </text>
<text text-anchor="start" x="102.54" y="-186.6" font-family="Work Sans" font-size="8.00" fill="blue">EAT</text>
<text text-anchor="start" x="117.51" y="-186.6" font-family="Work Sans" font-size="8.00"> </text>
<text text-anchor="start" x="79.56" y="-178.6" font-family="Work Sans" font-size="8.00"> </text>
<text text-anchor="start" x="81.78" y="-178.6" font-family="Work Sans" font-size="8.00" fill="green">eat%2:34:00::</text>
<text text-anchor="start" x="131.15" y="-178.6" font-family="Work Sans" font-size="8.00"> </text>
<text text-anchor="start" x="105.36" y="-170.6" font-family="Work Sans" font-size="8.00" fill="green"> </text>
</a>
</g>
</g>
<!-- V73206&#45;&gt;V72471 -->
<g id="edge3" class="edge">
<title>V73206&#45;&gt;V72471</title>
<path fill="none" stroke="red" stroke-width="0.5" d="M145.89,-252.43C142.27,-246.82 138.14,-240.39 134.39,-234.54 129.91,-227.56 125.05,-219.96 120.62,-213.03"/>
<path fill="none" stroke="blue" stroke-width="0.5" d="M147.57,-251.35C143.96,-245.74 139.82,-239.31 136.07,-233.46 131.59,-226.48 126.73,-218.89 122.31,-211.96"/>
<polygon fill="red" stroke="red" stroke-width="0.5" points="122.94,-211.55 118.77,-208.28 119.99,-213.43 122.94,-211.55"/>
<text text-anchor="middle" x="164.59" y="-227.6" font-family="Work Sans" font-size="8.00"> SEQUENCE1 &#160;&#160;</text>
</g>
<!-- V72399 -->
<g id="node4" class="node">
<title>V72399</title>
<g id="a_node4"><a xlink:href="http://trips.ihmc.us/lexicon/data/ONT::MEET.xml" xlink:title="&lt;font color=&quot;green&quot;&gt;&lt;br /&gt;&lt;/font&gt; &lt;font color=&quot;black&quot;&gt;MEET&lt;/font&gt; &lt;font color=&quot;green&quot;&gt;&lt;br /&gt;&lt;/font&gt; &lt;font color=&quot;red&quot;&gt;F&lt;/font&gt; &lt;font color=&quot;blue&quot;&gt;MEET&lt;/font&gt; &lt;font color=&quot;green&quot;&gt;&lt;br /&gt;&lt;/font&gt; &lt;font color=&quot;green&quot;&gt;meet%2:38:01::&lt;/font&gt; &lt;font color=&quot;green&quot;&gt;&lt;br /&gt; &lt;/font&gt;">
<polygon fill="pink" stroke="transparent" points="254.95,-208 193.98,-208 193.98,-168 254.95,-168 254.95,-208"/>
<text text-anchor="start" x="211.13" y="-194.6" font-family="Work Sans" font-size="8.00"> </text>
<text text-anchor="start" x="213.36" y="-194.6" font-family="Work Sans" font-size="8.00">MEET</text>
<text text-anchor="start" x="235.58" y="-194.6" font-family="Work Sans" font-size="8.00"> </text>
<text text-anchor="start" x="207.58" y="-186.6" font-family="Work Sans" font-size="8.00"> </text>
<text text-anchor="start" x="209.8" y="-186.6" font-family="Work Sans" font-size="8.00" fill="red">F</text>
<text text-anchor="start" x="214.69" y="-186.6" font-family="Work Sans" font-size="8.00"> </text>
<text text-anchor="start" x="216.91" y="-186.6" font-family="Work Sans" font-size="8.00" fill="blue">MEET</text>
<text text-anchor="start" x="239.13" y="-186.6" font-family="Work Sans" font-size="8.00"> </text>
<text text-anchor="start" x="194.23" y="-178.6" font-family="Work Sans" font-size="8.00"> </text>
<text text-anchor="start" x="196.45" y="-178.6" font-family="Work Sans" font-size="8.00" fill="green">meet%2:38:01::</text>
<text text-anchor="start" x="252.48" y="-178.6" font-family="Work Sans" font-size="8.00"> </text>
<text text-anchor="start" x="223.36" y="-170.6" font-family="Work Sans" font-size="8.00" fill="green"> </text>
</a>
</g>
</g>
<!-- V73206&#45;&gt;V72399 -->
<g id="edge12" class="edge">
<title>V73206&#45;&gt;V72399</title>
<path fill="none" stroke="red" stroke-width="0.5" d="M174.7,-250.95C180.75,-245.66 187.31,-239.47 192.72,-233.34 198.48,-226.81 204.15,-219.09 209,-211.95"/>
<path fill="none" stroke="blue" stroke-width="0.5" d="M176.01,-252.46C182.12,-247.11 188.69,-240.92 194.22,-234.66 200.09,-227.99 205.77,-220.27 210.65,-213.07"/>
<polygon fill="red" stroke="red" stroke-width="0.5" points="211.43,-213.26 212.75,-208.13 208.52,-211.32 211.43,-213.26"/>
<text text-anchor="middle" x="225.36" y="-227.6" font-family="Work Sans" font-size="8.00"> SEQUENCE &#160;&#160;</text>
</g>
<!-- V72394 -->
<g id="node5" class="node">
<title>V72394</title>
<g id="a_node5"><a xlink:href="http://trips.ihmc.us/lexicon/data/ONT::REFERENTIAL-SEM.xml" xlink:title="&lt;font color=&quot;green&quot;&gt;&lt;br /&gt;&lt;/font&gt; &lt;font color=&quot;black&quot;&gt;REFERENTIAL&#45;SEM&lt;/font&gt; &lt;font color=&quot;green&quot;&gt;&lt;br /&gt;&lt;/font&gt; &lt;font color=&quot;red&quot;&gt;PRO&#45;SET&lt;/font&gt; &lt;font color=&quot;blue&quot;&gt;THEY&lt;/font&gt; &lt;font color=&quot;green&quot;&gt;&lt;br /&gt;&lt;/font&gt; &lt;font color=&quot;green&quot;&gt;entity%1:03:00&lt;/font&gt; &lt;font color=&quot;green&quot;&gt;&lt;br /&gt; &lt;/font&gt;">
<text text-anchor="start" x="109.68" y="-110.6" font-family="Work Sans" font-size="8.00"> </text>
<text text-anchor="start" x="111.91" y="-110.6" font-family="Work Sans" font-size="8.00">REFERENTIAL&#45;SEM</text>
<text text-anchor="start" x="187.03" y="-110.6" font-family="Work Sans" font-size="8.00"> </text>
<text text-anchor="start" x="117.69" y="-102.6" font-family="Work Sans" font-size="8.00"> </text>
<text text-anchor="start" x="119.91" y="-102.6" font-family="Work Sans" font-size="8.00" fill="red">PRO&#45;SET</text>
<text text-anchor="start" x="155.47" y="-102.6" font-family="Work Sans" font-size="8.00"> </text>
<text text-anchor="start" x="157.69" y="-102.6" font-family="Work Sans" font-size="8.00" fill="blue">THEY</text>
<text text-anchor="start" x="179.03" y="-102.6" font-family="Work Sans" font-size="8.00"> </text>
<text text-anchor="start" x="120.78" y="-94.6" font-family="Work Sans" font-size="8.00"> </text>
<text text-anchor="start" x="123" y="-94.6" font-family="Work Sans" font-size="8.00" fill="green">entity%1:03:00</text>
<text text-anchor="start" x="175.93" y="-94.6" font-family="Work Sans" font-size="8.00"> </text>
<text text-anchor="start" x="148.36" y="-86.6" font-family="Work Sans" font-size="8.00" fill="green"> </text>
</a>
</g>
</g>
<!-- V72471&#45;&gt;V72394 -->
<g id="edge6" class="edge">
<title>V72471&#45;&gt;V72394</title>
<path fill="none" stroke="red" stroke-width="0.5" d="M102.63,-167.88C102.22,-159.47 102.9,-149.86 106.69,-141.58 109.17,-136.29 112.64,-131.59 116.64,-127.29"/>
<path fill="none" stroke="blue" stroke-width="0.5" d="M104.63,-167.78C104.22,-159.61 104.9,-150 108.5,-142.42 110.79,-137.48 114.25,-132.77 118.1,-128.65"/>
<polygon fill="red" stroke="red" stroke-width="0.5" points="118.8,-129.02 121.09,-124.24 116.32,-126.54 118.8,-129.02"/>
<text text-anchor="middle" x="126.4" y="-143.6" font-family="Work Sans" font-size="8.00"> AGENT &#160;&#160;</text>
</g>
<!-- V72479 -->
<g id="node10" class="node">
<title>V72479</title>
<g id="a_node10"><a xlink:href="http://trips.ihmc.us/lexicon/data/ONT::FOOD.xml" xlink:title="&lt;font color=&quot;green&quot;&gt;&lt;br /&gt;&lt;/font&gt; &lt;font color=&quot;black&quot;&gt;FOOD&lt;/font&gt; &lt;font color=&quot;green&quot;&gt;&lt;br /&gt;&lt;/font&gt; &lt;font color=&quot;red&quot;&gt;BARE&lt;/font&gt; &lt;font color=&quot;blue&quot;&gt;DINNER&lt;/font&gt; &lt;font color=&quot;green&quot;&gt;&lt;br /&gt;&lt;/font&gt; &lt;font color=&quot;green&quot;&gt;dinner%1:13:00::&lt;/font&gt; &lt;font color=&quot;green&quot;&gt;&lt;br /&gt; &lt;/font&gt;">
<polygon fill="lightblue" stroke="transparent" points="64.9,-124 0.03,-124 0.03,-84 64.9,-84 64.9,-124"/>
<text text-anchor="start" x="18.69" y="-110.6" font-family="Work Sans" font-size="8.00"> </text>
<text text-anchor="start" x="20.91" y="-110.6" font-family="Work Sans" font-size="8.00">FOOD</text>
<text text-anchor="start" x="44.02" y="-110.6" font-family="Work Sans" font-size="8.00"> </text>
<text text-anchor="start" x="2.91" y="-102.6" font-family="Work Sans" font-size="8.00"> </text>
<text text-anchor="start" x="5.13" y="-102.6" font-family="Work Sans" font-size="8.00" fill="red">BARE</text>
<text text-anchor="start" x="26.91" y="-102.6" font-family="Work Sans" font-size="8.00"> </text>
<text text-anchor="start" x="29.14" y="-102.6" font-family="Work Sans" font-size="8.00" fill="blue">DINNER</text>
<text text-anchor="start" x="59.8" y="-102.6" font-family="Work Sans" font-size="8.00"> </text>
<text text-anchor="start" x="0" y="-94.6" font-family="Work Sans" font-size="8.00"> </text>
<text text-anchor="start" x="2.22" y="-94.6" font-family="Work Sans" font-size="8.00" fill="green">dinner%1:13:00::</text>
<text text-anchor="start" x="62.71" y="-94.6" font-family="Work Sans" font-size="8.00"> </text>
<text text-anchor="start" x="31.36" y="-86.6" font-family="Work Sans" font-size="8.00" fill="green"> </text>
</a>
</g>
</g>
<!-- V72471&#45;&gt;V72479 -->
<g id="edge5" class="edge">
<title>V72471&#45;&gt;V72479</title>
<path fill="none" stroke="red" stroke-width="0.5" d="M79.03,-174.44C68.87,-168.31 57.99,-160.33 50.02,-150.63 44.95,-144.4 41.18,-136.83 38.35,-129.56"/>
<path fill="none" stroke="blue" stroke-width="0.5" d="M80.06,-172.73C70.05,-166.7 59.17,-158.72 51.57,-149.37 46.74,-143.51 42.97,-135.94 40.22,-128.84"/>
<polygon fill="red" stroke="red" stroke-width="0.5" points="40.86,-128.41 37.51,-124.31 37.57,-129.6 40.86,-128.41"/>
<text text-anchor="middle" x="76.8" y="-143.6" font-family="Work Sans" font-size="8.00"> AFFECTED &#160;&#160;</text>
</g>
<!-- V72399&#45;&gt;V72394 -->
<g id="edge7" class="edge">
<title>V72399&#45;&gt;V72394</title>
<path fill="none" stroke="red" stroke-width="0.5" d="M198.63,-167.85C192.07,-162.43 185.29,-156.29 179.6,-150 173.74,-143.53 168.18,-135.85 163.46,-128.67"/>
<polygon fill="red" stroke="red" stroke-width="0.5" points="164.81,-127.54 160.63,-124.29 161.87,-129.44 164.81,-127.54"/>
<text text-anchor="middle" x="198.4" y="-143.6" font-family="Work Sans" font-size="8.00"> AGENT &#160;&#160;</text>
</g>
<!-- V72419 -->
<g id="node6" class="node">
<title>V72419</title>
<g id="a_node6"><a xlink:href="http://trips.ihmc.us/lexicon/data/ONT::SCHOLAR.xml" xlink:title="&lt;font color=&quot;green&quot;&gt;&lt;br /&gt;&lt;/font&gt; &lt;font color=&quot;black&quot;&gt;SCHOLAR&lt;/font&gt; &lt;font color=&quot;green&quot;&gt;&lt;br /&gt;&lt;/font&gt; &lt;font color=&quot;red&quot;&gt;INDEF&#45;SET&lt;/font&gt; &lt;font color=&quot;blue&quot;&gt;FRESHMEN&lt;/font&gt; &lt;font color=&quot;green&quot;&gt;&lt;br /&gt;&lt;/font&gt; &lt;font color=&quot;green&quot;&gt;student%1:18:01&lt;/font&gt; &lt;font color=&quot;green&quot;&gt;&lt;br /&gt; &lt;/font&gt;">
<text text-anchor="start" x="336.91" y="-110.6" font-family="Work Sans" font-size="8.00"> </text>
<text text-anchor="start" x="339.13" y="-110.6" font-family="Work Sans" font-size="8.00">SCHOLAR</text>
<text text-anchor="start" x="377.8" y="-110.6" font-family="Work Sans" font-size="8.00"> </text>
<text text-anchor="start" x="311.58" y="-102.6" font-family="Work Sans" font-size="8.00"> </text>
<text text-anchor="start" x="313.8" y="-102.6" font-family="Work Sans" font-size="8.00" fill="red">INDEF&#45;SET</text>
<text text-anchor="start" x="356.02" y="-102.6" font-family="Work Sans" font-size="8.00"> </text>
<text text-anchor="start" x="358.24" y="-102.6" font-family="Work Sans" font-size="8.00" fill="blue">FRESHMEN</text>
<text text-anchor="start" x="403.13" y="-102.6" font-family="Work Sans" font-size="8.00"> </text>
<text text-anchor="start" x="326.22" y="-94.6" font-family="Work Sans" font-size="8.00"> </text>
<text text-anchor="start" x="328.44" y="-94.6" font-family="Work Sans" font-size="8.00" fill="green">student%1:18:01</text>
<text text-anchor="start" x="388.49" y="-94.6" font-family="Work Sans" font-size="8.00"> </text>
<text text-anchor="start" x="357.36" y="-86.6" font-family="Work Sans" font-size="8.00" fill="green"> </text>
</a>
</g>
</g>
<!-- V72399&#45;&gt;V72419 -->
<g id="edge8" class="edge">
<title>V72399&#45;&gt;V72419</title>
<path fill="none" stroke="red" stroke-width="0.5" d="M255.04,-178.97C274.35,-172.96 299.2,-163.45 318.47,-150 326.85,-144.14 334.68,-136.19 341.14,-128.59"/>
<polygon fill="red" stroke="red" stroke-width="0.5" points="342.74,-129.39 344.58,-124.43 340.05,-127.16 342.74,-129.39"/>
<text text-anchor="middle" x="346.7" y="-143.6" font-family="Work Sans" font-size="8.00"> AGENT1 &#160;&#160;</text>
</g>
<!-- V72432 -->
<g id="node8" class="node">
<title>V72432</title>
<g id="a_node8"><a xlink:href="http://trips.ihmc.us/lexicon/data/ONT::ON.xml" xlink:title="&lt;font color=&quot;green&quot;&gt;&lt;br /&gt;&lt;/font&gt; &lt;font color=&quot;black&quot;&gt;ON&lt;/font&gt; &lt;font color=&quot;green&quot;&gt;&lt;br /&gt;&lt;/font&gt; &lt;font color=&quot;red&quot;&gt;F&lt;/font&gt; &lt;font color=&quot;blue&quot;&gt;ON&lt;/font&gt; &lt;font color=&quot;green&quot;&gt;&lt;br /&gt; &lt;/font&gt;">
<text text-anchor="start" x="227.24" y="-106.6" font-family="Work Sans" font-size="8.00"> </text>
<text text-anchor="start" x="229.47" y="-106.6" font-family="Work Sans" font-size="8.00">ON</text>
<text text-anchor="start" x="241.47" y="-106.6" font-family="Work Sans" font-size="8.00"> </text>
<text text-anchor="start" x="223.69" y="-98.6" font-family="Work Sans" font-size="8.00"> </text>
<text text-anchor="start" x="225.91" y="-98.6" font-family="Work Sans" font-size="8.00" fill="red">F</text>
<text text-anchor="start" x="230.8" y="-98.6" font-family="Work Sans" font-size="8.00"> </text>
<text text-anchor="start" x="233.02" y="-98.6" font-family="Work Sans" font-size="8.00" fill="blue">ON</text>
<text text-anchor="start" x="245.02" y="-98.6" font-family="Work Sans" font-size="8.00"> </text>
<text text-anchor="start" x="234.36" y="-90.6" font-family="Work Sans" font-size="8.00" fill="green"> </text>
</a>
</g>
</g>
<!-- V72399&#45;&gt;V72432 -->
<g id="edge11" class="edge">
<title>V72399&#45;&gt;V72432</title>
<path fill="none" stroke="grey" stroke-width="0.5" d="M220.95,-167.61C220.06,-159.63 219.73,-150.32 221.27,-142 222.33,-136.3 224.22,-130.35 226.3,-124.93"/>
<polygon fill="grey" stroke="grey" stroke-width="0.5" points="227.99,-125.41 228.23,-120.12 224.74,-124.1 227.99,-125.41"/>
<text text-anchor="middle" x="245.06" y="-143.6" font-family="Work Sans" font-size="8.00"> LOCATION &#160;&#160;</text>
</g>
<!-- V72415 -->
<g id="node7" class="node">
<title>V72415</title>
<g id="a_node7"><a xlink:href="http://trips.ihmc.us/lexicon/data/ONT::OTHER.xml" xlink:title="&lt;font color=&quot;green&quot;&gt;&lt;br /&gt;&lt;/font&gt; &lt;font color=&quot;black&quot;&gt;OTHER&lt;/font&gt; &lt;font color=&quot;green&quot;&gt;&lt;br /&gt;&lt;/font&gt; &lt;font color=&quot;red&quot;&gt;F&lt;/font&gt; &lt;font color=&quot;blue&quot;&gt;OTHER&lt;/font&gt; &lt;font color=&quot;green&quot;&gt;&lt;br /&gt;&lt;/font&gt; &lt;font color=&quot;green&quot;&gt;other%3:00:00::&lt;/font&gt; &lt;font color=&quot;green&quot;&gt;&lt;br /&gt; &lt;/font&gt;">
<text text-anchor="start" x="326.24" y="-26.6" font-family="Work Sans" font-size="8.00"> </text>
<text text-anchor="start" x="328.47" y="-26.6" font-family="Work Sans" font-size="8.00">OTHER</text>
<text text-anchor="start" x="356.47" y="-26.6" font-family="Work Sans" font-size="8.00"> </text>
<text text-anchor="start" x="322.69" y="-18.6" font-family="Work Sans" font-size="8.00"> </text>
<text text-anchor="start" x="324.91" y="-18.6" font-family="Work Sans" font-size="8.00" fill="red">F</text>
<text text-anchor="start" x="329.8" y="-18.6" font-family="Work Sans" font-size="8.00"> </text>
<text text-anchor="start" x="332.02" y="-18.6" font-family="Work Sans" font-size="8.00" fill="blue">OTHER</text>
<text text-anchor="start" x="360.02" y="-18.6" font-family="Work Sans" font-size="8.00"> </text>
<text text-anchor="start" x="312" y="-10.6" font-family="Work Sans" font-size="8.00"> </text>
<text text-anchor="start" x="314.22" y="-10.6" font-family="Work Sans" font-size="8.00" fill="green">other%3:00:00::</text>
<text text-anchor="start" x="370.71" y="-10.6" font-family="Work Sans" font-size="8.00"> </text>
<text text-anchor="start" x="341.36" y="-2.6" font-family="Work Sans" font-size="8.00" fill="green"> </text>
</a>
</g>
</g>
<!-- V72419&#45;&gt;V72415 -->
<g id="edge1" class="edge">
<title>V72419&#45;&gt;V72415</title>
<path fill="none" stroke="grey" stroke-width="0.5" d="M357.08,-83.61C356.31,-75.63 355.15,-66.32 353.47,-58 352.61,-53.75 351.48,-49.29 350.27,-44.99"/>
<polygon fill="grey" stroke="grey" stroke-width="0.5" points="351.91,-44.35 348.83,-40.04 348.55,-45.33 351.91,-44.35"/>
<text text-anchor="middle" x="368.24" y="-59.6" font-family="Work Sans" font-size="8.00"> MOD &#160;&#160;</text>
</g>
<!-- V72415&#45;&gt;V72419 -->
<g id="edge4" class="edge">
<title>V72415&#45;&gt;V72419</title>
<path fill="none" stroke="grey" stroke-width="0.5" d="M317.28,-40.28C310.42,-47.94 305.94,-57.05 310.35,-66 312.97,-71.32 316.76,-76.08 321.08,-80.29"/>
<polygon fill="grey" stroke="grey" stroke-width="0.5" points="319.95,-81.62 324.83,-83.68 322.3,-79.03 319.95,-81.62"/>
<text text-anchor="middle" x="329.02" y="-59.6" font-family="Work Sans" font-size="8.00"> FIGURE &#160;&#160;</text>
</g>
<!-- V72432&#45;&gt;V72399 -->
<g id="edge10" class="edge">
<title>V72432&#45;&gt;V72399</title>
<path fill="none" stroke="grey" stroke-width="0.5" d="M247.4,-110.95C261.64,-118.92 282.56,-133.94 274.47,-150 270.84,-157.19 265.09,-163.33 258.76,-168.42"/>
<polygon fill="grey" stroke="grey" stroke-width="0.5" points="257.68,-167.04 254.75,-171.45 259.8,-169.83 257.68,-167.04"/>
<text text-anchor="middle" x="295.02" y="-143.6" font-family="Work Sans" font-size="8.00"> FIGURE &#160;&#160;</text>
</g>
<!-- V72454 -->
<g id="node9" class="node">
<title>V72454</title>
<g id="a_node9"><a xlink:href="http://trips.ihmc.us/lexicon/data/ONT::FACILITY.xml" xlink:title="&lt;font color=&quot;green&quot;&gt;&lt;br /&gt;&lt;/font&gt; &lt;font color=&quot;black&quot;&gt;FACILITY&lt;/font&gt; &lt;font color=&quot;green&quot;&gt;&lt;br /&gt;&lt;/font&gt; &lt;font color=&quot;red&quot;&gt;BARE&lt;/font&gt; &lt;font color=&quot;blue&quot;&gt;CAMPUS&lt;/font&gt; &lt;font color=&quot;green&quot;&gt;&lt;br /&gt;&lt;/font&gt; &lt;font color=&quot;green&quot;&gt;facility%1:04:01&lt;/font&gt; &lt;font color=&quot;green&quot;&gt;&lt;br /&gt; &lt;/font&gt;">
<polygon fill="pink" stroke="transparent" points="266.65,-40 204.29,-40 204.29,0 266.65,0 266.65,-40"/>
<text text-anchor="start" x="215.9" y="-26.6" font-family="Work Sans" font-size="8.00"> </text>
<text text-anchor="start" x="218.13" y="-26.6" font-family="Work Sans" font-size="8.00">FACILITY</text>
<text text-anchor="start" x="252.81" y="-26.6" font-family="Work Sans" font-size="8.00"> </text>
<text text-anchor="start" x="204.13" y="-18.6" font-family="Work Sans" font-size="8.00"> </text>
<text text-anchor="start" x="206.35" y="-18.6" font-family="Work Sans" font-size="8.00" fill="red">BARE</text>
<text text-anchor="start" x="228.13" y="-18.6" font-family="Work Sans" font-size="8.00"> </text>
<text text-anchor="start" x="230.36" y="-18.6" font-family="Work Sans" font-size="8.00" fill="blue">CAMPUS</text>
<text text-anchor="start" x="264.58" y="-18.6" font-family="Work Sans" font-size="8.00"> </text>
<text text-anchor="start" x="205.23" y="-10.6" font-family="Work Sans" font-size="8.00"> </text>
<text text-anchor="start" x="207.45" y="-10.6" font-family="Work Sans" font-size="8.00" fill="green">facility%1:04:01</text>
<text text-anchor="start" x="263.48" y="-10.6" font-family="Work Sans" font-size="8.00"> </text>
<text text-anchor="start" x="234.36" y="-2.6" font-family="Work Sans" font-size="8.00" fill="green"> </text>
</a>
</g>
</g>
<!-- V72432&#45;&gt;V72454 -->
<g id="edge9" class="edge">
<title>V72432&#45;&gt;V72454</title>
<path fill="none" stroke="grey" stroke-width="0.5" d="M235.47,-87.96C235.47,-76.12 235.47,-59.38 235.47,-45.6"/>
<polygon fill="grey" stroke="grey" stroke-width="0.5" points="237.22,-45.29 235.47,-40.29 233.72,-45.29 237.22,-45.29"/>
<text text-anchor="middle" x="257.69" y="-59.6" font-family="Work Sans" font-size="8.00"> GROUND &#160;&#160;</text>
</g>
</g>
</svg>
