<?xml version="1.0" encoding="UTF-8" standalone="no"?>
<!DOCTYPE svg PUBLIC "-//W3C//DTD SVG 1.1//EN"
 "http://www.w3.org/Graphics/SVG/1.1/DTD/svg11.dtd">
<!-- Generated by graphviz version 2.43.0 (0)
 -->
<!-- Title: graph Pages: 1 -->
<svg width="278pt" height="414pt"
 viewBox="0.00 0.00 278.00 414.00" xmlns="http://www.w3.org/2000/svg" xmlns:xlink="http://www.w3.org/1999/xlink">
<g id="graph0" class="graph" transform="scale(1 1) rotate(0) translate(4 410)">
<title>graph</title>
<polygon fill="white" stroke="transparent" points="-4,4 -4,-410 274,-410 274,4 -4,4"/>
<!-- V63523 -->
<g id="node1" class="node">
<title>V63523</title>
<polygon fill="black" stroke="transparent" points="83.5,-396 83.5,-406 184.5,-406 184.5,-396 83.5,-396"/>
<text text-anchor="start" x="120.21" y="-398.6" font-family="Work Sans" font-size="8.00" fill="white">V63523</text>
<polygon fill="black" stroke="transparent" points="83.5,-386 83.5,-396 133.5,-396 133.5,-386 83.5,-386"/>
<text text-anchor="start" x="84.05" y="-388.6" font-family="Work Sans" font-size="8.00" fill="white">SPEECHACT</text>
<polygon fill="black" stroke="transparent" points="133.5,-386 133.5,-396 184.5,-396 184.5,-386 133.5,-386"/>
<text text-anchor="start" x="134.1" y="-388.6" font-family="Work Sans" font-size="8.00" fill="white">ont::SA_TELL</text>
<polygon fill="black" stroke="transparent" points="83.5,-376 83.5,-386 133.5,-386 133.5,-376 83.5,-376"/>
<text text-anchor="start" x="103.39" y="-378.6" font-family="Work Sans" font-size="8.00" fill="white">lex</text>
<polygon fill="black" stroke="transparent" points="133.5,-376 133.5,-386 184.5,-386 184.5,-376 133.5,-376"/>
<text text-anchor="start" x="150.78" y="-378.6" font-family="Work Sans" font-size="8.00" fill="white">ARE</text>
<polygon fill="black" stroke="transparent" points="83.5,-366 83.5,-376 133.5,-376 133.5,-366 83.5,-366"/>
<text text-anchor="start" x="99.83" y="-368.6" font-family="Work Sans" font-size="8.00" fill="white">span</text>
<polygon fill="black" stroke="transparent" points="133.5,-366 133.5,-376 184.5,-376 184.5,-366 133.5,-366"/>
<text text-anchor="start" x="147.44" y="-368.6" font-family="Work Sans" font-size="8.00" fill="white">(1, 34)</text>
</g>
<!-- V63301 -->
<g id="node2" class="node">
<title>V63301</title>
<polygon fill="black" stroke="transparent" points="81.5,-312 81.5,-322 185.5,-322 185.5,-312 81.5,-312"/>
<text text-anchor="start" x="119.71" y="-314.6" font-family="Work Sans" font-size="8.00" fill="white">V63301</text>
<polygon fill="black" stroke="transparent" points="81.5,-302 81.5,-312 100.5,-312 100.5,-302 81.5,-302"/>
<text text-anchor="start" x="88.56" y="-304.6" font-family="Work Sans" font-size="8.00" fill="white">F</text>
<polygon fill="black" stroke="transparent" points="100.5,-302 100.5,-312 185.5,-312 185.5,-302 100.5,-302"/>
<text text-anchor="start" x="101.35" y="-304.6" font-family="Work Sans" font-size="8.00" fill="white">ont::HAVE&#45;PROPERTY</text>
<polygon fill="black" stroke="transparent" points="81.5,-292 81.5,-302 100.5,-302 100.5,-292 81.5,-292"/>
<text text-anchor="start" x="85.89" y="-294.6" font-family="Work Sans" font-size="8.00" fill="white">lex</text>
<polygon fill="black" stroke="transparent" points="100.5,-292 100.5,-302 185.5,-302 185.5,-292 100.5,-292"/>
<text text-anchor="start" x="134.78" y="-294.6" font-family="Work Sans" font-size="8.00" fill="white">ARE</text>
<polygon fill="black" stroke="transparent" points="81.5,-282 81.5,-292 100.5,-292 100.5,-282 81.5,-282"/>
<text text-anchor="start" x="85.89" y="-284.6" font-family="Work Sans" font-size="8.00" fill="white">wn</text>
<polygon fill="black" stroke="transparent" points="100.5,-282 100.5,-292 185.5,-292 185.5,-282 100.5,-282"/>
<text text-anchor="start" x="119.43" y="-284.6" font-family="Work Sans" font-size="8.00" fill="white">be%2:42:03::</text>
<polygon fill="black" stroke="transparent" points="81.5,-272 81.5,-282 100.5,-282 100.5,-272 81.5,-272"/>
<text text-anchor="start" x="82.33" y="-274.6" font-family="Work Sans" font-size="8.00" fill="white">span</text>
<polygon fill="black" stroke="transparent" points="100.5,-272 100.5,-282 185.5,-282 185.5,-272 100.5,-272"/>
<text text-anchor="start" x="131.44" y="-274.6" font-family="Work Sans" font-size="8.00" fill="white">(1, 33)</text>
</g>
<!-- V63523&#45;&gt;V63301 -->
<g id="edge5" class="edge">
<title>V63523&#45;&gt;V63301</title>
<path fill="none" stroke="black" d="M133.5,-365.69C133.5,-355.88 133.5,-343.66 133.5,-332.31"/>
<polygon fill="black" stroke="black" points="137,-332.23 133.5,-322.23 130,-332.23 137,-332.23"/>
<text text-anchor="middle" x="152.83" y="-341.6" font-family="Work Sans" font-size="8.00">CONTENT</text>
</g>
<!-- V63243 -->
<g id="node3" class="node">
<title>V63243</title>
<polygon fill="black" stroke="transparent" points="62.5,-124 62.5,-134 204.5,-134 204.5,-124 62.5,-124"/>
<text text-anchor="start" x="119.71" y="-126.6" font-family="Work Sans" font-size="8.00" fill="white">V63243</text>
<polygon fill="black" stroke="transparent" points="62.5,-114 62.5,-124 98.5,-124 98.5,-114 62.5,-114"/>
<text text-anchor="start" x="63.39" y="-116.6" font-family="Work Sans" font-size="8.00" fill="white">THE&#45;SET</text>
<polygon fill="black" stroke="transparent" points="98.5,-114 98.5,-124 204.5,-124 204.5,-114 98.5,-114"/>
<text text-anchor="start" x="99.49" y="-116.6" font-family="Work Sans" font-size="8.00" fill="white">ont::GEOGRAPHIC&#45;REGION</text>
<polygon fill="black" stroke="transparent" points="62.5,-104 62.5,-114 98.5,-114 98.5,-104 62.5,-104"/>
<text text-anchor="start" x="75.39" y="-106.6" font-family="Work Sans" font-size="8.00" fill="white">lex</text>
<polygon fill="black" stroke="transparent" points="98.5,-104 98.5,-114 204.5,-114 204.5,-104 98.5,-104"/>
<text text-anchor="start" x="143.05" y="-106.6" font-family="Work Sans" font-size="8.00" fill="white">AND</text>
<polygon fill="black" stroke="transparent" points="62.5,-94 62.5,-104 98.5,-104 98.5,-94 62.5,-94"/>
<text text-anchor="start" x="71.83" y="-96.6" font-family="Work Sans" font-size="8.00" fill="white">span</text>
<polygon fill="black" stroke="transparent" points="98.5,-94 98.5,-104 204.5,-104 204.5,-94 98.5,-94"/>
<text text-anchor="start" x="139.94" y="-96.6" font-family="Work Sans" font-size="8.00" fill="white">(1, 25)</text>
</g>
<!-- V63301&#45;&gt;V63243 -->
<g id="edge3" class="edge">
<title>V63301&#45;&gt;V63243</title>
<path fill="none" stroke="black" d="M130.25,-271.82C128.67,-258.85 126.94,-242.58 126.16,-228 124.97,-205.81 124.87,-200.18 126.16,-178 126.8,-166.95 128.07,-154.87 129.38,-144.27"/>
<polygon fill="black" stroke="black" points="132.86,-144.62 130.67,-134.25 125.92,-143.72 132.86,-144.62"/>
<text text-anchor="middle" x="145.17" y="-200.6" font-family="Work Sans" font-size="8.00">NEUTRAL</text>
</g>
<!-- V63316 -->
<g id="node6" class="node">
<title>V63316</title>
<polygon fill="black" stroke="transparent" points="173.5,-218 173.5,-228 270.5,-228 270.5,-218 173.5,-218"/>
<text text-anchor="start" x="208.21" y="-220.6" font-family="Work Sans" font-size="8.00" fill="white">V63316</text>
<polygon fill="black" stroke="transparent" points="173.5,-208 173.5,-218 192.5,-218 192.5,-208 173.5,-208"/>
<text text-anchor="start" x="180.56" y="-210.6" font-family="Work Sans" font-size="8.00" fill="white">F</text>
<polygon fill="black" stroke="transparent" points="192.5,-208 192.5,-218 270.5,-218 270.5,-208 192.5,-208"/>
<text text-anchor="start" x="212.6" y="-210.6" font-family="Work Sans" font-size="8.00" fill="white">ont::COLD</text>
<polygon fill="black" stroke="transparent" points="173.5,-198 173.5,-208 192.5,-208 192.5,-198 173.5,-198"/>
<text text-anchor="start" x="177.89" y="-200.6" font-family="Work Sans" font-size="8.00" fill="white">lex</text>
<polygon fill="black" stroke="transparent" points="192.5,-198 192.5,-208 270.5,-208 270.5,-198 192.5,-198"/>
<text text-anchor="start" x="220.39" y="-200.6" font-family="Work Sans" font-size="8.00" fill="white">COLD</text>
<polygon fill="black" stroke="transparent" points="173.5,-188 173.5,-198 192.5,-198 192.5,-188 173.5,-188"/>
<text text-anchor="start" x="177.89" y="-190.6" font-family="Work Sans" font-size="8.00" fill="white">wn</text>
<polygon fill="black" stroke="transparent" points="192.5,-188 192.5,-198 270.5,-198 270.5,-188 192.5,-188"/>
<text text-anchor="start" x="193.25" y="-190.6" font-family="Work Sans" font-size="8.00" fill="white">cold%5:00:00:cool:03</text>
<polygon fill="black" stroke="transparent" points="173.5,-178 173.5,-188 192.5,-188 192.5,-178 173.5,-178"/>
<text text-anchor="start" x="174.33" y="-180.6" font-family="Work Sans" font-size="8.00" fill="white">span</text>
<polygon fill="black" stroke="transparent" points="192.5,-178 192.5,-188 270.5,-188 270.5,-178 192.5,-178"/>
<text text-anchor="start" x="217.71" y="-180.6" font-family="Work Sans" font-size="8.00" fill="white">(29, 33)</text>
</g>
<!-- V63301&#45;&gt;V63316 -->
<g id="edge4" class="edge">
<title>V63301&#45;&gt;V63316</title>
<path fill="none" stroke="black" d="M156.62,-271.83C167.23,-260.74 179.95,-247.44 191.3,-235.57"/>
<polygon fill="black" stroke="black" points="194.15,-237.66 198.53,-228.01 189.09,-232.82 194.15,-237.66"/>
<text text-anchor="middle" x="197.17" y="-247.6" font-family="Work Sans" font-size="8.00">FORMAL</text>
</g>
<!-- V63231 -->
<g id="node4" class="node">
<title>V63231</title>
<polygon fill="black" stroke="transparent" points="0.5,-40 0.5,-50 125.5,-50 125.5,-40 0.5,-40"/>
<text text-anchor="start" x="49.21" y="-42.6" font-family="Work Sans" font-size="8.00" fill="white">V63231</text>
<polygon fill="black" stroke="transparent" points="0.5,-30 0.5,-40 19.5,-40 19.5,-30 0.5,-30"/>
<text text-anchor="start" x="2" y="-32.6" font-family="Work Sans" font-size="8.00" fill="white">THE</text>
<polygon fill="black" stroke="transparent" points="19.5,-30 19.5,-40 125.5,-40 125.5,-30 19.5,-30"/>
<text text-anchor="start" x="20.49" y="-32.6" font-family="Work Sans" font-size="8.00" fill="white">ont::GEOGRAPHIC&#45;REGION</text>
<polygon fill="black" stroke="transparent" points="0.5,-20 0.5,-30 19.5,-30 19.5,-20 0.5,-20"/>
<text text-anchor="start" x="4.89" y="-22.6" font-family="Work Sans" font-size="8.00" fill="white">lex</text>
<polygon fill="black" stroke="transparent" points="19.5,-20 19.5,-30 125.5,-30 125.5,-20 19.5,-20"/>
<text text-anchor="start" x="50.57" y="-22.6" font-family="Work Sans" font-size="8.00" fill="white">NEW&#45;YORK</text>
<polygon fill="black" stroke="transparent" points="0.5,-10 0.5,-20 19.5,-20 19.5,-10 0.5,-10"/>
<text text-anchor="start" x="4.89" y="-12.6" font-family="Work Sans" font-size="8.00" fill="white">wn</text>
<polygon fill="black" stroke="transparent" points="19.5,-10 19.5,-20 125.5,-20 125.5,-10 19.5,-10"/>
<text text-anchor="start" x="37.51" y="-12.6" font-family="Work Sans" font-size="8.00" fill="white">New_York%1:15:01</text>
<polygon fill="black" stroke="transparent" points="0.5,0 0.5,-10 19.5,-10 19.5,0 0.5,0"/>
<text text-anchor="start" x="1.33" y="-2.6" font-family="Work Sans" font-size="8.00" fill="white">span</text>
<polygon fill="black" stroke="transparent" points="19.5,0 19.5,-10 125.5,-10 125.5,0 19.5,0"/>
<text text-anchor="start" x="60.94" y="-2.6" font-family="Work Sans" font-size="8.00" fill="white">(1, 10)</text>
</g>
<!-- V63243&#45;&gt;V63231 -->
<g id="edge2" class="edge">
<title>V63243&#45;&gt;V63231</title>
<path fill="none" stroke="black" d="M117.74,-93.69C109.25,-83.28 98.53,-70.16 88.81,-58.24"/>
<polygon fill="black" stroke="black" points="91.31,-55.77 82.28,-50.23 85.89,-60.19 91.31,-55.77"/>
<text text-anchor="middle" x="124.95" y="-69.6" font-family="Work Sans" font-size="8.00">SEQUENCE</text>
</g>
<!-- V63293 -->
<g id="node5" class="node">
<title>V63293</title>
<polygon fill="black" stroke="transparent" points="143.5,-40 143.5,-50 268.5,-50 268.5,-40 143.5,-40"/>
<text text-anchor="start" x="192.21" y="-42.6" font-family="Work Sans" font-size="8.00" fill="white">V63293</text>
<polygon fill="black" stroke="transparent" points="143.5,-30 143.5,-40 162.5,-40 162.5,-30 143.5,-30"/>
<text text-anchor="start" x="145" y="-32.6" font-family="Work Sans" font-size="8.00" fill="white">THE</text>
<polygon fill="black" stroke="transparent" points="162.5,-30 162.5,-40 268.5,-40 268.5,-30 162.5,-30"/>
<text text-anchor="start" x="163.49" y="-32.6" font-family="Work Sans" font-size="8.00" fill="white">ont::GEOGRAPHIC&#45;REGION</text>
<polygon fill="black" stroke="transparent" points="143.5,-20 143.5,-30 162.5,-30 162.5,-20 143.5,-20"/>
<text text-anchor="start" x="147.89" y="-22.6" font-family="Work Sans" font-size="8.00" fill="white">lex</text>
<polygon fill="black" stroke="transparent" points="162.5,-20 162.5,-30 268.5,-30 268.5,-20 162.5,-20"/>
<text text-anchor="start" x="189.35" y="-22.6" font-family="Work Sans" font-size="8.00" fill="white">NEW&#45;JERSEY</text>
<polygon fill="black" stroke="transparent" points="143.5,-10 143.5,-20 162.5,-20 162.5,-10 143.5,-10"/>
<text text-anchor="start" x="147.89" y="-12.6" font-family="Work Sans" font-size="8.00" fill="white">wn</text>
<polygon fill="black" stroke="transparent" points="162.5,-10 162.5,-20 268.5,-20 268.5,-10 162.5,-10"/>
<text text-anchor="start" x="176.59" y="-12.6" font-family="Work Sans" font-size="8.00" fill="white">New_Jersey%1:15:00</text>
<polygon fill="black" stroke="transparent" points="143.5,0 143.5,-10 162.5,-10 162.5,0 143.5,0"/>
<text text-anchor="start" x="144.33" y="-2.6" font-family="Work Sans" font-size="8.00" fill="white">span</text>
<polygon fill="black" stroke="transparent" points="162.5,0 162.5,-10 268.5,-10 268.5,0 162.5,0"/>
<text text-anchor="start" x="201.71" y="-2.6" font-family="Work Sans" font-size="8.00" fill="white">(14, 25)</text>
</g>
<!-- V63243&#45;&gt;V63293 -->
<g id="edge1" class="edge">
<title>V63243&#45;&gt;V63293</title>
<path fill="none" stroke="black" d="M149.48,-93.69C158.1,-83.28 168.96,-70.16 178.82,-58.24"/>
<polygon fill="black" stroke="black" points="181.76,-60.17 185.44,-50.23 176.37,-55.71 181.76,-60.17"/>
<text text-anchor="middle" x="194.17" y="-69.6" font-family="Work Sans" font-size="8.00">SEQUENCE1</text>
</g>
<!-- V63316&#45;&gt;V63243 -->
<g id="edge6" class="edge">
<title>V63316&#45;&gt;V63243</title>
<path fill="none" stroke="black" d="M196.99,-177.77C185.56,-166.46 171.93,-152.99 160.23,-141.43"/>
<polygon fill="black" stroke="black" points="162.44,-138.69 152.87,-134.15 157.52,-143.67 162.44,-138.69"/>
<text text-anchor="middle" x="192.61" y="-153.6" font-family="Work Sans" font-size="8.00">FIGURE</text>
</g>
</g>
</svg>
