<?xml version="1.0" encoding="UTF-8" standalone="no"?>
<!DOCTYPE svg PUBLIC "-//W3C//DTD SVG 1.1//EN"
 "http://www.w3.org/Graphics/SVG/1.1/DTD/svg11.dtd">
<!-- Generated by graphviz version 2.43.0 (0)
 -->
<!-- Title: graph Pages: 1 -->
<svg width="286pt" height="368pt"
 viewBox="0.00 0.00 286.47 368.00" xmlns="http://www.w3.org/2000/svg" xmlns:xlink="http://www.w3.org/1999/xlink">
<g id="graph0" class="graph" transform="scale(1 1) rotate(0) translate(4 364)">
<title>graph</title>
<polygon fill="white" stroke="transparent" points="-4,4 -4,-364 282.47,-364 282.47,4 -4,4"/>
<!-- V229870 -->
<g id="node1" class="node">
<title>V229870</title>
<g id="a_node1"><a xlink:href="http://trips.ihmc.us/lexicon/data/ONT::SA_TELL.xml" xlink:title="&lt;font color=&quot;green&quot;&gt;&lt;br /&gt;&lt;/font&gt; &lt;font color=&quot;black&quot;&gt;SA_TELL&lt;/font&gt; &lt;font color=&quot;green&quot;&gt;&lt;br /&gt;&lt;/font&gt; &lt;font color=&quot;red&quot;&gt;SPEECHACT&lt;/font&gt; &lt;font color=&quot;blue&quot;&gt;* &lt;/font&gt; &lt;font color=&quot;green&quot;&gt;&lt;br /&gt; &lt;/font&gt;">
<text text-anchor="start" x="164.01" y="-346.6" font-family="Work Sans" font-size="8.00"> </text>
<text text-anchor="start" x="166.23" y="-346.6" font-family="Work Sans" font-size="8.00">SA_TELL</text>
<text text-anchor="start" x="200.48" y="-346.6" font-family="Work Sans" font-size="8.00"> </text>
<text text-anchor="start" x="152.9" y="-338.6" font-family="Work Sans" font-size="8.00"> </text>
<text text-anchor="start" x="155.13" y="-338.6" font-family="Work Sans" font-size="8.00" fill="red">SPEECHACT</text>
<text text-anchor="start" x="204.03" y="-338.6" font-family="Work Sans" font-size="8.00"> </text>
<text text-anchor="start" x="206.25" y="-338.6" font-family="Work Sans" font-size="8.00" fill="blue">* </text>
<text text-anchor="start" x="211.58" y="-338.6" font-family="Work Sans" font-size="8.00"> </text>
<text text-anchor="start" x="182.24" y="-330.6" font-family="Work Sans" font-size="8.00" fill="green"> </text>
</a>
</g>
</g>
<!-- V229150 -->
<g id="node2" class="node">
<title>V229150</title>
<g id="a_node2"><a xlink:href="http://trips.ihmc.us/lexicon/data/ONT::SELF-LOCOMOTE.xml" xlink:title="&lt;font color=&quot;green&quot;&gt;&lt;br /&gt;&lt;/font&gt; &lt;font color=&quot;black&quot;&gt;SELF&#45;LOCOMOTE&lt;/font&gt; &lt;font color=&quot;green&quot;&gt;&lt;br /&gt;&lt;/font&gt; &lt;font color=&quot;red&quot;&gt;F&lt;/font&gt; &lt;font color=&quot;blue&quot;&gt;WALK&lt;/font&gt; &lt;font color=&quot;green&quot;&gt;&lt;br /&gt;&lt;/font&gt; &lt;font color=&quot;green&quot;&gt;walk%2:38:00::&lt;/font&gt; &lt;font color=&quot;green&quot;&gt;&lt;br /&gt; &lt;/font&gt;">
<polygon fill="pink" stroke="transparent" stroke-width="0.5" points="146.96,-244 183.36,-244 183.36,-284 146.96,-284 146.96,-244"/>
<polygon fill="lightblue" stroke="transparent" stroke-width="0.5" points="183.36,-244 219.75,-244 219.75,-284 183.36,-284 183.36,-244"/>
<polygon fill="none" stroke="transparent" points="219.75,-284 146.96,-284 146.96,-244 219.75,-244 219.75,-284"/>
<text text-anchor="start" x="146.91" y="-270.6" font-family="Work Sans" font-size="8.00"> </text>
<text text-anchor="start" x="149.13" y="-270.6" font-family="Work Sans" font-size="8.00">SELF&#45;LOCOMOTE</text>
<text text-anchor="start" x="217.58" y="-270.6" font-family="Work Sans" font-size="8.00"> </text>
<text text-anchor="start" x="166.39" y="-262.6" font-family="Work Sans" font-size="8.00"> </text>
<text text-anchor="start" x="168.61" y="-262.6" font-family="Work Sans" font-size="8.00" fill="red">F</text>
<text text-anchor="start" x="173.5" y="-262.6" font-family="Work Sans" font-size="8.00"> </text>
<text text-anchor="start" x="175.72" y="-262.6" font-family="Work Sans" font-size="8.00" fill="blue">WALK</text>
<text text-anchor="start" x="198.1" y="-262.6" font-family="Work Sans" font-size="8.00"> </text>
<text text-anchor="start" x="154.01" y="-254.6" font-family="Work Sans" font-size="8.00"> </text>
<text text-anchor="start" x="156.23" y="-254.6" font-family="Work Sans" font-size="8.00" fill="green">walk%2:38:00::</text>
<text text-anchor="start" x="210.48" y="-254.6" font-family="Work Sans" font-size="8.00"> </text>
<text text-anchor="start" x="182.24" y="-246.6" font-family="Work Sans" font-size="8.00" fill="green"> </text>
</a>
</g>
</g>
<!-- V229870&#45;&gt;V229150 -->
<g id="edge6" class="edge">
<title>V229870&#45;&gt;V229150</title>
<path fill="none" stroke="grey" stroke-width="0.5" d="M183.36,-327.96C183.36,-317.04 183.36,-302.02 183.36,-289.39"/>
<polygon fill="grey" stroke="grey" stroke-width="0.5" points="185.11,-289.14 183.36,-284.14 181.61,-289.14 185.11,-289.14"/>
<text text-anchor="middle" x="207.06" y="-303.6" font-family="Work Sans" font-size="8.00"> CONTENT &#160;&#160;</text>
</g>
<!-- V229136 -->
<g id="node3" class="node">
<title>V229136</title>
<g id="a_node3"><a xlink:href="http://trips.ihmc.us/lexicon/data/ONT::PERSON.xml" xlink:title="&lt;font color=&quot;green&quot;&gt;&lt;br /&gt;&lt;/font&gt; &lt;font color=&quot;black&quot;&gt;PERSON&lt;/font&gt; &lt;font color=&quot;green&quot;&gt;&lt;br /&gt;&lt;/font&gt; &lt;font color=&quot;red&quot;&gt;PRO&lt;/font&gt; &lt;font color=&quot;blue&quot;&gt;I&lt;/font&gt; &lt;font color=&quot;green&quot;&gt;&lt;br /&gt;&lt;/font&gt; &lt;font color=&quot;green&quot;&gt;person%1:03:00&lt;/font&gt; &lt;font color=&quot;green&quot;&gt;&lt;br /&gt; &lt;/font&gt;">
<text text-anchor="start" x="12.24" y="-110.6" font-family="Work Sans" font-size="8.00"> </text>
<text text-anchor="start" x="14.46" y="-110.6" font-family="Work Sans" font-size="8.00">PERSON</text>
<text text-anchor="start" x="48.25" y="-110.6" font-family="Work Sans" font-size="8.00"> </text>
<text text-anchor="start" x="18.24" y="-102.6" font-family="Work Sans" font-size="8.00"> </text>
<text text-anchor="start" x="20.46" y="-102.6" font-family="Work Sans" font-size="8.00" fill="red">PRO</text>
<text text-anchor="start" x="37.8" y="-102.6" font-family="Work Sans" font-size="8.00"> </text>
<text text-anchor="start" x="40.02" y="-102.6" font-family="Work Sans" font-size="8.00" fill="blue">I</text>
<text text-anchor="start" x="42.25" y="-102.6" font-family="Work Sans" font-size="8.00"> </text>
<text text-anchor="start" x="0" y="-94.6" font-family="Work Sans" font-size="8.00"> </text>
<text text-anchor="start" x="2.22" y="-94.6" font-family="Work Sans" font-size="8.00" fill="green">person%1:03:00</text>
<text text-anchor="start" x="60.49" y="-94.6" font-family="Work Sans" font-size="8.00"> </text>
<text text-anchor="start" x="30.24" y="-86.6" font-family="Work Sans" font-size="8.00" fill="green"> </text>
</a>
</g>
</g>
<!-- V229150&#45;&gt;V229136 -->
<g id="edge2" class="edge">
<title>V229150&#45;&gt;V229136</title>
<path fill="none" stroke="grey" stroke-width="0.5" d="M146.67,-259.01C110.8,-252.94 57.97,-237.77 32.48,-200 18.54,-179.33 20.67,-149.94 24.75,-129.34"/>
<polygon fill="grey" stroke="grey" stroke-width="0.5" points="26.5,-129.56 25.83,-124.3 23.07,-128.83 26.5,-129.56"/>
<text text-anchor="middle" x="51.29" y="-181.6" font-family="Work Sans" font-size="8.00"> AGENT &#160;&#160;</text>
</g>
<!-- V229160 -->
<g id="node4" class="node">
<title>V229160</title>
<g id="a_node4"><a xlink:href="http://trips.ihmc.us/lexicon/data/ONT::GOAL-AS-CONTAINMENT.xml" xlink:title="&lt;font color=&quot;green&quot;&gt;&lt;br /&gt;&lt;/font&gt; &lt;font color=&quot;black&quot;&gt;GOAL&#45;AS&#45;CONTAINMENT&lt;/font&gt; &lt;font color=&quot;green&quot;&gt;&lt;br /&gt;&lt;/font&gt; &lt;font color=&quot;red&quot;&gt;F&lt;/font&gt; &lt;font color=&quot;blue&quot;&gt;INTO&lt;/font&gt; &lt;font color=&quot;green&quot;&gt;&lt;br /&gt; &lt;/font&gt;">
<text text-anchor="start" x="76.98" y="-186.6" font-family="Work Sans" font-size="8.00"> </text>
<text text-anchor="start" x="79.2" y="-186.6" font-family="Work Sans" font-size="8.00">GOAL&#45;AS&#45;CONTAINMENT</text>
<text text-anchor="start" x="175.51" y="-186.6" font-family="Work Sans" font-size="8.00"> </text>
<text text-anchor="start" x="112.09" y="-178.6" font-family="Work Sans" font-size="8.00"> </text>
<text text-anchor="start" x="114.32" y="-178.6" font-family="Work Sans" font-size="8.00" fill="red">F</text>
<text text-anchor="start" x="119.2" y="-178.6" font-family="Work Sans" font-size="8.00"> </text>
<text text-anchor="start" x="121.43" y="-178.6" font-family="Work Sans" font-size="8.00" fill="blue">INTO</text>
<text text-anchor="start" x="140.39" y="-178.6" font-family="Work Sans" font-size="8.00"> </text>
<text text-anchor="start" x="126.24" y="-170.6" font-family="Work Sans" font-size="8.00" fill="green"> </text>
</a>
</g>
</g>
<!-- V229150&#45;&gt;V229160 -->
<g id="edge4" class="edge">
<title>V229150&#45;&gt;V229160</title>
<path fill="none" stroke="grey" stroke-width="0.5" d="M154.75,-243.78C148.72,-238.61 142.9,-232.6 138.63,-226 134.67,-219.87 132.09,-212.37 130.41,-205.46"/>
<polygon fill="grey" stroke="grey" stroke-width="0.5" points="132.07,-204.84 129.29,-200.33 128.65,-205.59 132.07,-204.84"/>
<text text-anchor="middle" x="159.22" y="-219.6" font-family="Work Sans" font-size="8.00"> RESULT &#160;&#160;</text>
</g>
<!-- V229358 -->
<g id="node7" class="node">
<title>V229358</title>
<g id="a_node7"><a xlink:href="http://trips.ihmc.us/lexicon/data/ONT::EVENT-TIME-REL.xml" xlink:title="&lt;font color=&quot;green&quot;&gt;&lt;br /&gt;&lt;/font&gt; &lt;font color=&quot;black&quot;&gt;EVENT&#45;TIME&#45;REL&lt;/font&gt; &lt;font color=&quot;green&quot;&gt;&lt;br /&gt;&lt;/font&gt; &lt;font color=&quot;red&quot;&gt;F&lt;/font&gt; &lt;font color=&quot;blue&quot;&gt;* &lt;/font&gt; &lt;font color=&quot;green&quot;&gt;&lt;br /&gt; &lt;/font&gt;">
<polygon fill="pink" stroke="transparent" stroke-width="0.5" points="199.18,-168 234.36,-168 234.36,-200 199.18,-200 199.18,-168"/>
<polygon fill="lightblue" stroke="transparent" stroke-width="0.5" points="234.36,-168 269.54,-168 269.54,-200 234.36,-200 234.36,-168"/>
<polygon fill="none" stroke="transparent" points="269.54,-200 199.18,-200 199.18,-168 269.54,-168 269.54,-200"/>
<text text-anchor="start" x="199.02" y="-186.6" font-family="Work Sans" font-size="8.00"> </text>
<text text-anchor="start" x="201.24" y="-186.6" font-family="Work Sans" font-size="8.00">EVENT&#45;TIME&#45;REL</text>
<text text-anchor="start" x="267.47" y="-186.6" font-family="Work Sans" font-size="8.00"> </text>
<text text-anchor="start" x="225.91" y="-178.6" font-family="Work Sans" font-size="8.00"> </text>
<text text-anchor="start" x="228.13" y="-178.6" font-family="Work Sans" font-size="8.00" fill="red">F</text>
<text text-anchor="start" x="233.02" y="-178.6" font-family="Work Sans" font-size="8.00"> </text>
<text text-anchor="start" x="235.24" y="-178.6" font-family="Work Sans" font-size="8.00" fill="blue">* </text>
<text text-anchor="start" x="240.58" y="-178.6" font-family="Work Sans" font-size="8.00"> </text>
<text text-anchor="start" x="233.24" y="-170.6" font-family="Work Sans" font-size="8.00" fill="green"> </text>
</a>
</g>
</g>
<!-- V229150&#45;&gt;V229358 -->
<g id="edge1" class="edge">
<title>V229150&#45;&gt;V229358</title>
<path fill="none" stroke="red" d="M180.01,-243.57C179.51,-235.23 180.26,-225.66 184.5,-218 187.7,-212.21 192.4,-207.26 197.66,-203.09"/>
<polygon fill="red" stroke="red" points="198.79,-204.43 201.76,-200.04 196.7,-201.61 198.79,-204.43"/>
<text text-anchor="middle" x="199.29" y="-219.6" font-family="Work Sans" font-size="8.00"> TIME &#160;&#160;</text>
</g>
<!-- V229150&#45;&gt;V229358 -->
<g id="edge8" class="edge">
<title>V229150&#45;&gt;V229358</title>
<path fill="none" stroke="blue" d="M199.36,-243.88C203.77,-238.26 208.43,-232.01 212.36,-226 216.73,-219.3 221.02,-211.64 224.63,-204.77"/>
<polygon fill="blue" stroke="blue" points="226.27,-205.4 227.01,-200.16 223.16,-203.8 226.27,-205.4"/>
<text text-anchor="middle" x="217.47" y="-219.6" font-family="Work Sans" font-size="8.00">.</text>
</g>
<!-- V229160&#45;&gt;V229136 -->
<g id="edge11" class="edge">
<title>V229160&#45;&gt;V229136</title>
<path fill="none" stroke="grey" stroke-width="0.5" d="M107.01,-167.77C99.76,-162.25 91.58,-155.92 84.24,-150 75.37,-142.84 65.84,-134.83 57.35,-127.58"/>
<polygon fill="grey" stroke="grey" stroke-width="0.5" points="58.21,-126.01 53.27,-124.09 55.93,-128.67 58.21,-126.01"/>
<text text-anchor="middle" x="103.91" y="-143.6" font-family="Work Sans" font-size="8.00"> FIGURE &#160;&#160;</text>
</g>
<!-- V229225 -->
<g id="node5" class="node">
<title>V229225</title>
<g id="a_node5"><a xlink:href="http://trips.ihmc.us/lexicon/data/ONT::RESTAURANT.xml" xlink:title="&lt;font color=&quot;green&quot;&gt;&lt;br /&gt;&lt;/font&gt; &lt;font color=&quot;black&quot;&gt;RESTAURANT&lt;/font&gt; &lt;font color=&quot;green&quot;&gt;&lt;br /&gt;&lt;/font&gt; &lt;font color=&quot;red&quot;&gt;A&lt;/font&gt; &lt;font color=&quot;blue&quot;&gt;RESTAURANT&lt;/font&gt; &lt;font color=&quot;green&quot;&gt;&lt;br /&gt;&lt;/font&gt; &lt;font color=&quot;green&quot;&gt;restaurant%1:06:00::&lt;/font&gt; &lt;font color=&quot;green&quot;&gt;&lt;br /&gt; &lt;/font&gt;">
<text text-anchor="start" x="98.31" y="-110.6" font-family="Work Sans" font-size="8.00"> </text>
<text text-anchor="start" x="100.54" y="-110.6" font-family="Work Sans" font-size="8.00">RESTAURANT</text>
<text text-anchor="start" x="154.17" y="-110.6" font-family="Work Sans" font-size="8.00"> </text>
<text text-anchor="start" x="94.54" y="-102.6" font-family="Work Sans" font-size="8.00"> </text>
<text text-anchor="start" x="96.76" y="-102.6" font-family="Work Sans" font-size="8.00" fill="red">A</text>
<text text-anchor="start" x="102.09" y="-102.6" font-family="Work Sans" font-size="8.00"> </text>
<text text-anchor="start" x="104.32" y="-102.6" font-family="Work Sans" font-size="8.00" fill="blue">RESTAURANT</text>
<text text-anchor="start" x="157.95" y="-102.6" font-family="Work Sans" font-size="8.00"> </text>
<text text-anchor="start" x="88" y="-94.6" font-family="Work Sans" font-size="8.00"> </text>
<text text-anchor="start" x="90.22" y="-94.6" font-family="Work Sans" font-size="8.00" fill="green">restaurant%1:06:00::</text>
<text text-anchor="start" x="164.49" y="-94.6" font-family="Work Sans" font-size="8.00"> </text>
<text text-anchor="start" x="126.24" y="-86.6" font-family="Work Sans" font-size="8.00" fill="green"> </text>
</a>
</g>
</g>
<!-- V229160&#45;&gt;V229225 -->
<g id="edge9" class="edge">
<title>V229160&#45;&gt;V229225</title>
<path fill="none" stroke="grey" stroke-width="0.5" d="M127.36,-167.96C127.36,-157.04 127.36,-142.02 127.36,-129.39"/>
<polygon fill="grey" stroke="grey" stroke-width="0.5" points="129.11,-129.14 127.36,-124.14 125.61,-129.14 129.11,-129.14"/>
<text text-anchor="middle" x="149.58" y="-143.6" font-family="Work Sans" font-size="8.00"> GROUND &#160;&#160;</text>
</g>
<!-- V229222 -->
<g id="node6" class="node">
<title>V229222</title>
<g id="a_node6"><a xlink:href="http://trips.ihmc.us/lexicon/data/ONT::FAST-FOOD.xml" xlink:title="&lt;font color=&quot;green&quot;&gt;&lt;br /&gt;&lt;/font&gt; &lt;font color=&quot;black&quot;&gt;FAST&#45;FOOD&lt;/font&gt; &lt;font color=&quot;green&quot;&gt;&lt;br /&gt;&lt;/font&gt; &lt;font color=&quot;red&quot;&gt;KIND&lt;/font&gt; &lt;font color=&quot;blue&quot;&gt;FAST&#45;FOOD&lt;/font&gt; &lt;font color=&quot;green&quot;&gt;&lt;br /&gt;&lt;/font&gt; &lt;font color=&quot;green&quot;&gt;fast_food%1:13:00&lt;/font&gt; &lt;font color=&quot;green&quot;&gt;&lt;br /&gt; &lt;/font&gt;">
<polygon fill="pink" stroke="transparent" points="163.02,-40 91.69,-40 91.69,0 163.02,0 163.02,-40"/>
<text text-anchor="start" x="102.46" y="-26.6" font-family="Work Sans" font-size="8.00"> </text>
<text text-anchor="start" x="104.68" y="-26.6" font-family="Work Sans" font-size="8.00">FAST&#45;FOOD</text>
<text text-anchor="start" x="150.03" y="-26.6" font-family="Work Sans" font-size="8.00"> </text>
<text text-anchor="start" x="91.79" y="-18.6" font-family="Work Sans" font-size="8.00"> </text>
<text text-anchor="start" x="94.02" y="-18.6" font-family="Work Sans" font-size="8.00" fill="red">KIND</text>
<text text-anchor="start" x="113.13" y="-18.6" font-family="Work Sans" font-size="8.00"> </text>
<text text-anchor="start" x="115.35" y="-18.6" font-family="Work Sans" font-size="8.00" fill="blue">FAST&#45;FOOD</text>
<text text-anchor="start" x="160.7" y="-18.6" font-family="Work Sans" font-size="8.00"> </text>
<text text-anchor="start" x="91.77" y="-10.6" font-family="Work Sans" font-size="8.00"> </text>
<text text-anchor="start" x="94" y="-10.6" font-family="Work Sans" font-size="8.00" fill="green">fast_food%1:13:00</text>
<text text-anchor="start" x="160.71" y="-10.6" font-family="Work Sans" font-size="8.00"> </text>
<text text-anchor="start" x="126.24" y="-2.6" font-family="Work Sans" font-size="8.00" fill="green"> </text>
</a>
</g>
</g>
<!-- V229225&#45;&gt;V229222 -->
<g id="edge7" class="edge">
<title>V229225&#45;&gt;V229222</title>
<path fill="none" stroke="grey" stroke-width="0.5" d="M127.36,-83.98C127.36,-72.47 127.36,-57.68 127.36,-45.33"/>
<polygon fill="grey" stroke="grey" stroke-width="0.5" points="129.11,-45.2 127.36,-40.2 125.61,-45.2 129.11,-45.2"/>
<text text-anchor="middle" x="157.14" y="-59.6" font-family="Work Sans" font-size="8.00"> ASSOC&#45;WITH &#160;&#160;</text>
</g>
<!-- V229358&#45;&gt;V229150 -->
<g id="edge3" class="edge">
<title>V229358&#45;&gt;V229150</title>
<path fill="none" stroke="blue" stroke-width="0.5" d="M239.22,-200.22C240.91,-208.31 241.48,-218.17 237.36,-226 234.15,-232.09 229.43,-237.37 224.11,-241.88"/>
<polygon fill="blue" stroke="blue" stroke-width="0.5" points="222.77,-240.71 219.93,-245.18 224.94,-243.45 222.77,-240.71"/>
<text text-anchor="middle" x="258.91" y="-219.6" font-family="Work Sans" font-size="8.00"> FIGURE &#160;&#160;</text>
</g>
<!-- V229242 -->
<g id="node8" class="node">
<title>V229242</title>
<g id="a_node8"><a xlink:href="http://trips.ihmc.us/lexicon/data/ONT::DAY.xml" xlink:title="&lt;font color=&quot;green&quot;&gt;&lt;br /&gt;&lt;/font&gt; &lt;font color=&quot;black&quot;&gt;DAY&lt;/font&gt; &lt;font color=&quot;green&quot;&gt;&lt;br /&gt;&lt;/font&gt; &lt;font color=&quot;red&quot;&gt;THE&lt;/font&gt; &lt;font color=&quot;blue&quot;&gt;DAY&lt;/font&gt; &lt;font color=&quot;green&quot;&gt;&lt;br /&gt;&lt;/font&gt; &lt;font color=&quot;green&quot;&gt;day%1:28:03::&lt;/font&gt; &lt;font color=&quot;green&quot;&gt;&lt;br /&gt; &lt;/font&gt;">
<polygon fill="pink" stroke="transparent" stroke-width="0.5" points="187.76,-84 215.36,-84 215.36,-124 187.76,-124 187.76,-84"/>
<polygon fill="lightblue" stroke="transparent" stroke-width="0.5" points="215.36,-84 242.95,-84 242.95,-124 215.36,-124 215.36,-84"/>
<polygon fill="none" stroke="transparent" points="242.95,-124 187.76,-124 187.76,-84 242.95,-84 242.95,-124"/>
<text text-anchor="start" x="205.2" y="-110.6" font-family="Work Sans" font-size="8.00"> </text>
<text text-anchor="start" x="207.43" y="-110.6" font-family="Work Sans" font-size="8.00">DAY</text>
<text text-anchor="start" x="223.29" y="-110.6" font-family="Work Sans" font-size="8.00"> </text>
<text text-anchor="start" x="196.09" y="-102.6" font-family="Work Sans" font-size="8.00"> </text>
<text text-anchor="start" x="198.31" y="-102.6" font-family="Work Sans" font-size="8.00" fill="red">THE</text>
<text text-anchor="start" x="214.31" y="-102.6" font-family="Work Sans" font-size="8.00"> </text>
<text text-anchor="start" x="216.54" y="-102.6" font-family="Work Sans" font-size="8.00" fill="blue">DAY</text>
<text text-anchor="start" x="232.4" y="-102.6" font-family="Work Sans" font-size="8.00"> </text>
<text text-anchor="start" x="187.56" y="-94.6" font-family="Work Sans" font-size="8.00"> </text>
<text text-anchor="start" x="189.78" y="-94.6" font-family="Work Sans" font-size="8.00" fill="green">day%1:28:03::</text>
<text text-anchor="start" x="240.93" y="-94.6" font-family="Work Sans" font-size="8.00"> </text>
<text text-anchor="start" x="214.24" y="-86.6" font-family="Work Sans" font-size="8.00" fill="green"> </text>
</a>
</g>
</g>
<!-- V229358&#45;&gt;V229242 -->
<g id="edge5" class="edge">
<title>V229358&#45;&gt;V229242</title>
<path fill="none" stroke="blue" d="M226.71,-167.9C224.23,-162.39 221.71,-156.03 220.13,-150 218.39,-143.34 217.28,-135.96 216.57,-129.14"/>
<polygon fill="blue" stroke="blue" points="218.3,-128.88 216.11,-124.06 214.82,-129.2 218.3,-128.88"/>
<text text-anchor="middle" x="220.47" y="-143.6" font-family="Work Sans" font-size="8.00">.</text>
</g>
<!-- V229358&#45;&gt;V229242 -->
<g id="edge10" class="edge">
<title>V229358&#45;&gt;V229242</title>
<path fill="none" stroke="red" d="M230.69,-167.96C228.01,-156.94 224.31,-141.75 221.21,-129.05"/>
<polygon fill="red" stroke="red" points="222.9,-128.59 220.02,-124.14 219.5,-129.42 222.9,-128.59"/>
<text text-anchor="middle" x="247.58" y="-143.6" font-family="Work Sans" font-size="8.00"> GROUND &#160;&#160;</text>
</g>
</g>
</svg>
