<?xml version="1.0" encoding="UTF-8" standalone="no"?>
<!DOCTYPE svg PUBLIC "-//W3C//DTD SVG 1.1//EN"
 "http://www.w3.org/Graphics/SVG/1.1/DTD/svg11.dtd">
<!-- Generated by graphviz version 2.43.0 (0)
 -->
<!-- Title: graph Pages: 1 -->
<svg width="187pt" height="376pt"
 viewBox="0.00 0.00 187.26 376.00" xmlns="http://www.w3.org/2000/svg" xmlns:xlink="http://www.w3.org/1999/xlink">
<g id="graph0" class="graph" transform="scale(1 1) rotate(0) translate(4 372)">
<title>graph</title>
<polygon fill="white" stroke="transparent" points="-4,4 -4,-372 183.26,-372 183.26,4 -4,4"/>
<!-- V37495 -->
<g id="node1" class="node">
<title>V37495</title>
<g id="a_node1"><a xlink:href="http://trips.ihmc.us/lexicon/data/ONT::SA_TELL.xml" xlink:title="&lt;font color=&quot;green&quot;&gt;&lt;br /&gt;&lt;/font&gt; &lt;font color=&quot;black&quot;&gt;SA_TELL&lt;/font&gt; &lt;font color=&quot;green&quot;&gt;&lt;br /&gt;&lt;/font&gt; &lt;font color=&quot;red&quot;&gt;SPEECHACT&lt;/font&gt; &lt;font color=&quot;blue&quot;&gt;* &lt;/font&gt; &lt;font color=&quot;green&quot;&gt;&lt;br /&gt; &lt;/font&gt;">
<text text-anchor="start" x="35.1" y="-354.6" font-family="Work Sans" font-size="8.00"> </text>
<text text-anchor="start" x="37.32" y="-354.6" font-family="Work Sans" font-size="8.00">SA_TELL</text>
<text text-anchor="start" x="71.56" y="-354.6" font-family="Work Sans" font-size="8.00"> </text>
<text text-anchor="start" x="23.99" y="-346.6" font-family="Work Sans" font-size="8.00"> </text>
<text text-anchor="start" x="26.21" y="-346.6" font-family="Work Sans" font-size="8.00" fill="red">SPEECHACT</text>
<text text-anchor="start" x="75.11" y="-346.6" font-family="Work Sans" font-size="8.00"> </text>
<text text-anchor="start" x="77.33" y="-346.6" font-family="Work Sans" font-size="8.00" fill="blue">* </text>
<text text-anchor="start" x="82.67" y="-346.6" font-family="Work Sans" font-size="8.00"> </text>
<text text-anchor="start" x="53.33" y="-338.6" font-family="Work Sans" font-size="8.00" fill="green"> </text>
</a>
</g>
</g>
<!-- V37337 -->
<g id="node2" class="node">
<title>V37337</title>
<g id="a_node2"><a xlink:href="http://trips.ihmc.us/lexicon/data/ONT::HAVE-PROPERTY.xml" xlink:title="&lt;font color=&quot;green&quot;&gt;&lt;br /&gt;&lt;/font&gt; &lt;font color=&quot;black&quot;&gt;HAVE&#45;PROPERTY&lt;/font&gt; &lt;font color=&quot;green&quot;&gt;&lt;br /&gt;&lt;/font&gt; &lt;font color=&quot;red&quot;&gt;F&lt;/font&gt; &lt;font color=&quot;blue&quot;&gt;BE&lt;/font&gt; &lt;font color=&quot;green&quot;&gt;&lt;br /&gt;&lt;/font&gt; &lt;font color=&quot;green&quot;&gt;be%2:42:03::&lt;/font&gt; &lt;font color=&quot;green&quot;&gt;&lt;br /&gt; &lt;/font&gt;">
<polygon fill="pink" stroke="transparent" stroke-width="0.5" points="18.27,-252 54.44,-252 54.44,-292 18.27,-292 18.27,-252"/>
<polygon fill="lightblue" stroke="transparent" stroke-width="0.5" points="54.44,-252 90.61,-252 90.61,-292 54.44,-292 54.44,-252"/>
<polygon fill="none" stroke="transparent" points="90.61,-292 18.27,-292 18.27,-252 90.61,-252 90.61,-292"/>
<text text-anchor="start" x="18.36" y="-278.6" font-family="Work Sans" font-size="8.00"> </text>
<text text-anchor="start" x="20.58" y="-278.6" font-family="Work Sans" font-size="8.00">HAVE&#45;PROPERTY</text>
<text text-anchor="start" x="88.31" y="-278.6" font-family="Work Sans" font-size="8.00"> </text>
<text text-anchor="start" x="43.33" y="-270.6" font-family="Work Sans" font-size="8.00"> </text>
<text text-anchor="start" x="45.55" y="-270.6" font-family="Work Sans" font-size="8.00" fill="red">F</text>
<text text-anchor="start" x="50.44" y="-270.6" font-family="Work Sans" font-size="8.00"> </text>
<text text-anchor="start" x="52.66" y="-270.6" font-family="Work Sans" font-size="8.00" fill="blue">BE</text>
<text text-anchor="start" x="63.33" y="-270.6" font-family="Work Sans" font-size="8.00"> </text>
<text text-anchor="start" x="28.65" y="-262.6" font-family="Work Sans" font-size="8.00"> </text>
<text text-anchor="start" x="30.87" y="-262.6" font-family="Work Sans" font-size="8.00" fill="green">be%2:42:03::</text>
<text text-anchor="start" x="78.02" y="-262.6" font-family="Work Sans" font-size="8.00"> </text>
<text text-anchor="start" x="53.33" y="-254.6" font-family="Work Sans" font-size="8.00" fill="green"> </text>
</a>
</g>
</g>
<!-- V37495&#45;&gt;V37337 -->
<g id="edge6" class="edge">
<title>V37495&#45;&gt;V37337</title>
<path fill="none" stroke="grey" stroke-width="0.5" d="M54.44,-335.96C54.44,-325.04 54.44,-310.02 54.44,-297.39"/>
<polygon fill="grey" stroke="grey" stroke-width="0.5" points="56.19,-297.14 54.44,-292.14 52.69,-297.14 56.19,-297.14"/>
<text text-anchor="middle" x="78.15" y="-311.6" font-family="Work Sans" font-size="8.00"> CONTENT &#160;&#160;</text>
</g>
<!-- V37330 -->
<g id="node3" class="node">
<title>V37330</title>
<g id="a_node3"><a xlink:href="http://trips.ihmc.us/lexicon/data/ONT::ATTIRE.xml" xlink:title="&lt;font color=&quot;green&quot;&gt;&lt;br /&gt;&lt;/font&gt; &lt;font color=&quot;black&quot;&gt;ATTIRE&lt;/font&gt; &lt;font color=&quot;green&quot;&gt;&lt;br /&gt;&lt;/font&gt; &lt;font color=&quot;red&quot;&gt;THE&#45;SET&lt;/font&gt; &lt;font color=&quot;blue&quot;&gt;SHOE&lt;/font&gt; &lt;font color=&quot;green&quot;&gt;&lt;br /&gt;&lt;/font&gt; &lt;font color=&quot;green&quot;&gt;clothing%1:06:00&lt;/font&gt; &lt;font color=&quot;green&quot;&gt;&lt;br /&gt; &lt;/font&gt;">
<text text-anchor="start" x="41.29" y="-110.6" font-family="Work Sans" font-size="8.00"> </text>
<text text-anchor="start" x="43.51" y="-110.6" font-family="Work Sans" font-size="8.00">ATTIRE</text>
<text text-anchor="start" x="71.37" y="-110.6" font-family="Work Sans" font-size="8.00"> </text>
<text text-anchor="start" x="25.66" y="-102.6" font-family="Work Sans" font-size="8.00"> </text>
<text text-anchor="start" x="27.88" y="-102.6" font-family="Work Sans" font-size="8.00" fill="red">THE&#45;SET</text>
<text text-anchor="start" x="62.11" y="-102.6" font-family="Work Sans" font-size="8.00"> </text>
<text text-anchor="start" x="64.33" y="-102.6" font-family="Work Sans" font-size="8.00" fill="blue">SHOE</text>
<text text-anchor="start" x="87" y="-102.6" font-family="Work Sans" font-size="8.00"> </text>
<text text-anchor="start" x="24.53" y="-94.6" font-family="Work Sans" font-size="8.00"> </text>
<text text-anchor="start" x="26.75" y="-94.6" font-family="Work Sans" font-size="8.00" fill="green">clothing%1:06:00</text>
<text text-anchor="start" x="88.13" y="-94.6" font-family="Work Sans" font-size="8.00"> </text>
<text text-anchor="start" x="56.33" y="-86.6" font-family="Work Sans" font-size="8.00" fill="green"> </text>
</a>
</g>
</g>
<!-- V37337&#45;&gt;V37330 -->
<g id="edge4" class="edge">
<title>V37337&#45;&gt;V37330</title>
<path fill="none" stroke="grey" stroke-width="0.5" d="M33.62,-251.88C22.67,-240.37 10.33,-224.74 4.5,-208 -1.34,-191.21 -1.58,-184.7 4.5,-168 10.04,-152.8 21.03,-138.73 31.57,-127.75"/>
<polygon fill="grey" stroke="grey" stroke-width="0.5" points="32.86,-128.94 35.12,-124.15 30.36,-126.49 32.86,-128.94"/>
<text text-anchor="middle" x="28.41" y="-185.6" font-family="Work Sans" font-size="8.00"> NEUTRAL &#160;&#160;</text>
</g>
<!-- V37350 -->
<g id="node5" class="node">
<title>V37350</title>
<g id="a_node5"><a xlink:href="http://trips.ihmc.us/lexicon/data/ONT::NOT-AVAILABLE-VAL.xml" xlink:title="&lt;font color=&quot;green&quot;&gt;&lt;br /&gt;&lt;/font&gt; &lt;font color=&quot;black&quot;&gt;NOT&#45;AVAILABLE&#45;VAL&lt;/font&gt; &lt;font color=&quot;green&quot;&gt;&lt;br /&gt;&lt;/font&gt; &lt;font color=&quot;red&quot;&gt;F&lt;/font&gt; &lt;font color=&quot;blue&quot;&gt;MISSING&lt;/font&gt; &lt;font color=&quot;green&quot;&gt;&lt;br /&gt;&lt;/font&gt; &lt;font color=&quot;green&quot;&gt;missing%5:00:00:nonexistent:00&lt;/font&gt; &lt;font color=&quot;green&quot;&gt;&lt;br /&gt; &lt;/font&gt;">
<polygon fill="pink" stroke="transparent" stroke-width="0.5" points="59.81,-168 119.44,-168 119.44,-208 59.81,-208 59.81,-168"/>
<polygon fill="lightblue" stroke="transparent" stroke-width="0.5" points="119.44,-168 179.07,-168 179.07,-208 119.44,-208 119.44,-168"/>
<polygon fill="none" stroke="transparent" points="179.07,-208 59.81,-208 59.81,-168 179.07,-168 179.07,-208"/>
<text text-anchor="start" x="78.09" y="-194.6" font-family="Work Sans" font-size="8.00"> </text>
<text text-anchor="start" x="80.31" y="-194.6" font-family="Work Sans" font-size="8.00">NOT&#45;AVAILABLE&#45;VAL</text>
<text text-anchor="start" x="158.58" y="-194.6" font-family="Work Sans" font-size="8.00"> </text>
<text text-anchor="start" x="96.77" y="-186.6" font-family="Work Sans" font-size="8.00"> </text>
<text text-anchor="start" x="99" y="-186.6" font-family="Work Sans" font-size="8.00" fill="red">F</text>
<text text-anchor="start" x="103.88" y="-186.6" font-family="Work Sans" font-size="8.00"> </text>
<text text-anchor="start" x="106.11" y="-186.6" font-family="Work Sans" font-size="8.00" fill="blue">MISSING</text>
<text text-anchor="start" x="139.89" y="-186.6" font-family="Work Sans" font-size="8.00"> </text>
<text text-anchor="start" x="59.63" y="-178.6" font-family="Work Sans" font-size="8.00"> </text>
<text text-anchor="start" x="61.85" y="-178.6" font-family="Work Sans" font-size="8.00" fill="green">missing%5:00:00:nonexistent:00</text>
<text text-anchor="start" x="177.03" y="-178.6" font-family="Work Sans" font-size="8.00"> </text>
<text text-anchor="start" x="118.33" y="-170.6" font-family="Work Sans" font-size="8.00" fill="green"> </text>
</a>
</g>
</g>
<!-- V37337&#45;&gt;V37350 -->
<g id="edge2" class="edge">
<title>V37337&#45;&gt;V37350</title>
<path fill="none" stroke="red" d="M50.87,-251.9C50.26,-243.43 50.97,-233.66 55.51,-226 58.89,-220.29 63.53,-215.37 68.77,-211.16"/>
<polygon fill="red" stroke="red" points="69.93,-212.48 72.88,-208.08 67.83,-209.68 69.93,-212.48"/>
<text text-anchor="middle" x="76.41" y="-227.6" font-family="Work Sans" font-size="8.00"> FORMAL &#160;&#160;</text>
</g>
<!-- V37337&#45;&gt;V37350 -->
<g id="edge5" class="edge">
<title>V37337&#45;&gt;V37350</title>
<path fill="none" stroke="blue" d="M80.19,-251.82C86.32,-246.49 92.51,-240.39 97.44,-234 102.28,-227.74 106.46,-220.24 109.83,-213.18"/>
<polygon fill="blue" stroke="blue" points="111.54,-213.65 112.04,-208.38 108.36,-212.19 111.54,-213.65"/>
<text text-anchor="middle" x="103.55" y="-227.6" font-family="Work Sans" font-size="8.00">.</text>
</g>
<!-- V37325 -->
<g id="node4" class="node">
<title>V37325</title>
<g id="a_node4"><a xlink:href="http://trips.ihmc.us/lexicon/data/ONT::FEMALE-PERSON.xml" xlink:title="&lt;font color=&quot;green&quot;&gt;&lt;br /&gt;&lt;/font&gt; &lt;font color=&quot;black&quot;&gt;FEMALE&#45;PERSON&lt;/font&gt; &lt;font color=&quot;green&quot;&gt;&lt;br /&gt;&lt;/font&gt; &lt;font color=&quot;red&quot;&gt;PRO&lt;/font&gt; &lt;font color=&quot;blue&quot;&gt;HER&lt;/font&gt; &lt;font color=&quot;green&quot;&gt;&lt;br /&gt;&lt;/font&gt; &lt;font color=&quot;green&quot;&gt;woman%1:18:00&lt;/font&gt; &lt;font color=&quot;green&quot;&gt;&lt;br /&gt; &lt;/font&gt;">
<text text-anchor="start" x="20.99" y="-26.6" font-family="Work Sans" font-size="8.00"> </text>
<text text-anchor="start" x="23.21" y="-26.6" font-family="Work Sans" font-size="8.00">FEMALE&#45;PERSON</text>
<text text-anchor="start" x="91.67" y="-26.6" font-family="Work Sans" font-size="8.00"> </text>
<text text-anchor="start" x="37" y="-18.6" font-family="Work Sans" font-size="8.00"> </text>
<text text-anchor="start" x="39.22" y="-18.6" font-family="Work Sans" font-size="8.00" fill="red">PRO</text>
<text text-anchor="start" x="56.55" y="-18.6" font-family="Work Sans" font-size="8.00"> </text>
<text text-anchor="start" x="58.78" y="-18.6" font-family="Work Sans" font-size="8.00" fill="blue">HER</text>
<text text-anchor="start" x="75.67" y="-18.6" font-family="Work Sans" font-size="8.00"> </text>
<text text-anchor="start" x="25.42" y="-10.6" font-family="Work Sans" font-size="8.00"> </text>
<text text-anchor="start" x="27.65" y="-10.6" font-family="Work Sans" font-size="8.00" fill="green">woman%1:18:00</text>
<text text-anchor="start" x="87.24" y="-10.6" font-family="Work Sans" font-size="8.00"> </text>
<text text-anchor="start" x="56.33" y="-2.6" font-family="Work Sans" font-size="8.00" fill="green"> </text>
</a>
</g>
</g>
<!-- V37330&#45;&gt;V37325 -->
<g id="edge3" class="edge">
<title>V37330&#45;&gt;V37325</title>
<path fill="none" stroke="grey" stroke-width="0.5" d="M57.44,-83.98C57.44,-72.47 57.44,-57.68 57.44,-45.33"/>
<polygon fill="grey" stroke="grey" stroke-width="0.5" points="59.19,-45.2 57.44,-40.2 55.69,-45.2 59.19,-45.2"/>
<text text-anchor="middle" x="88.12" y="-59.6" font-family="Work Sans" font-size="8.00"> ASSOC&#45;POSS &#160;&#160;</text>
</g>
<!-- V37350&#45;&gt;V37330 -->
<g id="edge1" class="edge">
<title>V37350&#45;&gt;V37330</title>
<path fill="none" stroke="red" d="M75.18,-167.83C68.46,-162.99 62.42,-157.09 58.33,-150 54.78,-143.85 53.64,-136.4 53.65,-129.34"/>
<polygon fill="red" stroke="red" points="55.41,-129.12 53.85,-124.05 51.91,-128.98 55.41,-129.12"/>
<text text-anchor="middle" x="77" y="-143.6" font-family="Work Sans" font-size="8.00"> FIGURE &#160;&#160;</text>
</g>
<!-- V37350&#45;&gt;V37330 -->
<g id="edge7" class="edge">
<title>V37350&#45;&gt;V37330</title>
<path fill="none" stroke="blue" d="M111.91,-167.72C108.19,-159.41 103.26,-149.81 97.44,-142 93.74,-137.02 89.3,-132.16 84.76,-127.69"/>
<polygon fill="blue" stroke="blue" points="85.75,-126.22 80.93,-124.03 83.33,-128.75 85.75,-126.22"/>
<text text-anchor="middle" x="103.55" y="-143.6" font-family="Work Sans" font-size="8.00">.</text>
</g>
</g>
</svg>
