<?xml version="1.0" encoding="UTF-8" standalone="no"?>
<!DOCTYPE svg PUBLIC "-//W3C//DTD SVG 1.1//EN"
 "http://www.w3.org/Graphics/SVG/1.1/DTD/svg11.dtd">
<!-- Generated by graphviz version 2.43.0 (0)
 -->
<!-- Title: graph Pages: 1 -->
<svg width="474pt" height="612pt"
 viewBox="0.00 0.00 474.36 612.00" xmlns="http://www.w3.org/2000/svg" xmlns:xlink="http://www.w3.org/1999/xlink">
<g id="graph0" class="graph" transform="scale(1 1) rotate(0) translate(4 608)">
<title>graph</title>
<polygon fill="white" stroke="transparent" points="-4,4 -4,-608 470.36,-608 470.36,4 -4,4"/>
<!-- V75823 -->
<g id="node1" class="node">
<title>V75823</title>
<g id="a_node1"><a xlink:href="http://trips.ihmc.us/lexicon/data/ONT::SA_TELL.xml" xlink:title="&lt;font color=&quot;green&quot;&gt;&lt;br /&gt;&lt;/font&gt; &lt;font color=&quot;black&quot;&gt;SA_TELL&lt;/font&gt; &lt;font color=&quot;green&quot;&gt;&lt;br /&gt;&lt;/font&gt; &lt;font color=&quot;red&quot;&gt;SPEECHACT&lt;/font&gt; &lt;font color=&quot;blue&quot;&gt;* &lt;/font&gt; &lt;font color=&quot;green&quot;&gt;&lt;br /&gt; &lt;/font&gt;">
<text text-anchor="start" x="62.66" y="-590.6" font-family="Work Sans" font-size="8.00"> </text>
<text text-anchor="start" x="64.88" y="-590.6" font-family="Work Sans" font-size="8.00">SA_TELL</text>
<text text-anchor="start" x="99.12" y="-590.6" font-family="Work Sans" font-size="8.00"> </text>
<text text-anchor="start" x="51.55" y="-582.6" font-family="Work Sans" font-size="8.00"> </text>
<text text-anchor="start" x="53.77" y="-582.6" font-family="Work Sans" font-size="8.00" fill="red">SPEECHACT</text>
<text text-anchor="start" x="102.67" y="-582.6" font-family="Work Sans" font-size="8.00"> </text>
<text text-anchor="start" x="104.89" y="-582.6" font-family="Work Sans" font-size="8.00" fill="blue">* </text>
<text text-anchor="start" x="110.23" y="-582.6" font-family="Work Sans" font-size="8.00"> </text>
<text text-anchor="start" x="80.89" y="-574.6" font-family="Work Sans" font-size="8.00" fill="green"> </text>
</a>
</g>
</g>
<!-- V75401 -->
<g id="node2" class="node">
<title>V75401</title>
<g id="a_node2"><a xlink:href="http://trips.ihmc.us/lexicon/data/ONT::HAVE-PROPERTY.xml" xlink:title="&lt;font color=&quot;green&quot;&gt;&lt;br /&gt;&lt;/font&gt; &lt;font color=&quot;black&quot;&gt;HAVE&#45;PROPERTY&lt;/font&gt; &lt;font color=&quot;green&quot;&gt;&lt;br /&gt;&lt;/font&gt; &lt;font color=&quot;red&quot;&gt;F&lt;/font&gt; &lt;font color=&quot;blue&quot;&gt;BE&lt;/font&gt; &lt;font color=&quot;green&quot;&gt;&lt;br /&gt;&lt;/font&gt; &lt;font color=&quot;green&quot;&gt;be%2:42:03::&lt;/font&gt; &lt;font color=&quot;green&quot;&gt;&lt;br /&gt; &lt;/font&gt;">
<polygon fill="pink" stroke="transparent" stroke-width="0.5" points="45.83,-488 82,-488 82,-528 45.83,-528 45.83,-488"/>
<polygon fill="lightblue" stroke="transparent" stroke-width="0.5" points="82,-488 118.17,-488 118.17,-528 82,-528 82,-488"/>
<polygon fill="none" stroke="transparent" points="118.17,-528 45.83,-528 45.83,-488 118.17,-488 118.17,-528"/>
<text text-anchor="start" x="45.91" y="-514.6" font-family="Work Sans" font-size="8.00"> </text>
<text text-anchor="start" x="48.14" y="-514.6" font-family="Work Sans" font-size="8.00">HAVE&#45;PROPERTY</text>
<text text-anchor="start" x="115.86" y="-514.6" font-family="Work Sans" font-size="8.00"> </text>
<text text-anchor="start" x="70.89" y="-506.6" font-family="Work Sans" font-size="8.00"> </text>
<text text-anchor="start" x="73.11" y="-506.6" font-family="Work Sans" font-size="8.00" fill="red">F</text>
<text text-anchor="start" x="78" y="-506.6" font-family="Work Sans" font-size="8.00"> </text>
<text text-anchor="start" x="80.22" y="-506.6" font-family="Work Sans" font-size="8.00" fill="blue">BE</text>
<text text-anchor="start" x="90.89" y="-506.6" font-family="Work Sans" font-size="8.00"> </text>
<text text-anchor="start" x="56.2" y="-498.6" font-family="Work Sans" font-size="8.00"> </text>
<text text-anchor="start" x="58.43" y="-498.6" font-family="Work Sans" font-size="8.00" fill="green">be%2:42:03::</text>
<text text-anchor="start" x="105.57" y="-498.6" font-family="Work Sans" font-size="8.00"> </text>
<text text-anchor="start" x="80.89" y="-490.6" font-family="Work Sans" font-size="8.00" fill="green"> </text>
</a>
</g>
</g>
<!-- V75823&#45;&gt;V75401 -->
<g id="edge17" class="edge">
<title>V75823&#45;&gt;V75401</title>
<path fill="none" stroke="grey" stroke-width="0.5" d="M82,-571.96C82,-561.04 82,-546.02 82,-533.39"/>
<polygon fill="grey" stroke="grey" stroke-width="0.5" points="83.75,-533.14 82,-528.14 80.25,-533.14 83.75,-533.14"/>
<text text-anchor="middle" x="105.71" y="-547.6" font-family="Work Sans" font-size="8.00"> CONTENT &#160;&#160;</text>
</g>
<!-- V75390 -->
<g id="node3" class="node">
<title>V75390</title>
<g id="a_node3"><a xlink:href="http://trips.ihmc.us/lexicon/data/ONT::FEMALE-PERSON.xml" xlink:title="&lt;font color=&quot;green&quot;&gt;&lt;br /&gt;&lt;/font&gt; &lt;font color=&quot;black&quot;&gt;FEMALE&#45;PERSON&lt;/font&gt; &lt;font color=&quot;green&quot;&gt;&lt;br /&gt;&lt;/font&gt; &lt;font color=&quot;red&quot;&gt;THE&lt;/font&gt; &lt;font color=&quot;blue&quot;&gt;SARAH&lt;/font&gt; &lt;font color=&quot;green&quot;&gt;&lt;br /&gt;&lt;/font&gt; &lt;font color=&quot;green&quot;&gt;woman%1:18:00&lt;/font&gt; &lt;font color=&quot;green&quot;&gt;&lt;br /&gt; &lt;/font&gt;">
<text text-anchor="start" x="191.55" y="-26.6" font-family="Work Sans" font-size="8.00"> </text>
<text text-anchor="start" x="193.77" y="-26.6" font-family="Work Sans" font-size="8.00">FEMALE&#45;PERSON</text>
<text text-anchor="start" x="262.23" y="-26.6" font-family="Work Sans" font-size="8.00"> </text>
<text text-anchor="start" x="202.88" y="-18.6" font-family="Work Sans" font-size="8.00"> </text>
<text text-anchor="start" x="205.11" y="-18.6" font-family="Work Sans" font-size="8.00" fill="red">THE</text>
<text text-anchor="start" x="221.11" y="-18.6" font-family="Work Sans" font-size="8.00"> </text>
<text text-anchor="start" x="223.33" y="-18.6" font-family="Work Sans" font-size="8.00" fill="blue">SARAH</text>
<text text-anchor="start" x="250.89" y="-18.6" font-family="Work Sans" font-size="8.00"> </text>
<text text-anchor="start" x="195.98" y="-10.6" font-family="Work Sans" font-size="8.00"> </text>
<text text-anchor="start" x="198.2" y="-10.6" font-family="Work Sans" font-size="8.00" fill="green">woman%1:18:00</text>
<text text-anchor="start" x="257.8" y="-10.6" font-family="Work Sans" font-size="8.00"> </text>
<text text-anchor="start" x="226.89" y="-2.6" font-family="Work Sans" font-size="8.00" fill="green"> </text>
</a>
</g>
</g>
<!-- V75401&#45;&gt;V75390 -->
<g id="edge1" class="edge">
<title>V75401&#45;&gt;V75390</title>
<path fill="none" stroke="red" d="M45.79,-489.84C23.83,-476.66 0,-456.11 0,-429 0,-429 0,-429 0,-103 0,-63.85 120.55,-38.28 186.34,-27.24"/>
<polygon fill="red" stroke="red" points="186.72,-28.95 191.37,-26.41 186.15,-25.5 186.72,-28.95"/>
<text text-anchor="middle" x="22.97" y="-265.6" font-family="Work Sans" font-size="8.00"> NEUTRAL &#160;&#160;</text>
</g>
<!-- V75401&#45;&gt;V75390 -->
<g id="edge2" class="edge">
<title>V75401&#45;&gt;V75390</title>
<path fill="none" stroke="blue" d="M82,-487.77C82,-471.98 82,-449.04 82,-429 82,-429 82,-429 82,-103 82,-54.81 143.21,-34.65 186.37,-26.42"/>
<polygon fill="blue" stroke="blue" points="186.93,-28.1 191.53,-25.48 186.3,-24.65 186.93,-28.1"/>
<text text-anchor="middle" x="83.11" y="-265.6" font-family="Work Sans" font-size="8.00">.</text>
</g>
<!-- V75424 -->
<g id="node4" class="node">
<title>V75424</title>
<g id="a_node4"><a xlink:href="http://trips.ihmc.us/lexicon/data/ONT::EXCITED.xml" xlink:title="&lt;font color=&quot;green&quot;&gt;&lt;br /&gt;&lt;/font&gt; &lt;font color=&quot;black&quot;&gt;EXCITED&lt;/font&gt; &lt;font color=&quot;green&quot;&gt;&lt;br /&gt;&lt;/font&gt; &lt;font color=&quot;red&quot;&gt;F&lt;/font&gt; &lt;font color=&quot;blue&quot;&gt;EXCITED&lt;/font&gt; &lt;font color=&quot;green&quot;&gt;&lt;br /&gt; &lt;/font&gt;">
<polygon fill="pink" stroke="transparent" stroke-width="0.5" points="224.77,-412 248,-412 248,-444 224.77,-444 224.77,-412"/>
<polygon fill="lightblue" stroke="transparent" stroke-width="0.5" points="248,-412 271.23,-412 271.23,-444 248,-444 248,-412"/>
<polygon fill="none" stroke="transparent" points="271.23,-444 224.77,-444 224.77,-412 271.23,-412 271.23,-444"/>
<text text-anchor="start" x="228.44" y="-430.6" font-family="Work Sans" font-size="8.00"> </text>
<text text-anchor="start" x="230.66" y="-430.6" font-family="Work Sans" font-size="8.00">EXCITED</text>
<text text-anchor="start" x="265.34" y="-430.6" font-family="Work Sans" font-size="8.00"> </text>
<text text-anchor="start" x="224.89" y="-422.6" font-family="Work Sans" font-size="8.00"> </text>
<text text-anchor="start" x="227.11" y="-422.6" font-family="Work Sans" font-size="8.00" fill="red">F</text>
<text text-anchor="start" x="232" y="-422.6" font-family="Work Sans" font-size="8.00"> </text>
<text text-anchor="start" x="234.22" y="-422.6" font-family="Work Sans" font-size="8.00" fill="blue">EXCITED</text>
<text text-anchor="start" x="268.89" y="-422.6" font-family="Work Sans" font-size="8.00"> </text>
<text text-anchor="start" x="246.89" y="-414.6" font-family="Work Sans" font-size="8.00" fill="green"> </text>
</a>
</g>
</g>
<!-- V75401&#45;&gt;V75424 -->
<g id="edge15" class="edge">
<title>V75401&#45;&gt;V75424</title>
<path fill="none" stroke="blue" stroke-width="0.5" d="M118.43,-489.88C148.92,-475.55 191.82,-455.4 219.76,-442.27"/>
<polygon fill="blue" stroke="blue" stroke-width="0.5" points="220.67,-443.77 224.45,-440.06 219.18,-440.61 220.67,-443.77"/>
<text text-anchor="middle" x="195.97" y="-463.6" font-family="Work Sans" font-size="8.00"> FORMAL &#160;&#160;</text>
</g>
<!-- V75424&#45;&gt;V75390 -->
<g id="edge7" class="edge">
<title>V75424&#45;&gt;V75390</title>
<path fill="none" stroke="red" d="M224.82,-423.61C187.93,-416.75 120,-397.53 120,-349 120,-349 120,-349 120,-103 120,-68.14 156.13,-46.17 186.6,-33.85"/>
<polygon fill="red" stroke="red" points="187.42,-35.4 191.44,-31.95 186.14,-32.15 187.42,-35.4"/>
<text text-anchor="middle" x="139.56" y="-227.6" font-family="Work Sans" font-size="8.00"> FIGURE &#160;&#160;</text>
</g>
<!-- V75424&#45;&gt;V75390 -->
<g id="edge8" class="edge">
<title>V75424&#45;&gt;V75390</title>
<path fill="none" stroke="blue" d="M224.55,-412.46C205.57,-398.7 182,-376.14 182,-349 182,-349 182,-349 182,-103 182,-81.22 194.5,-59.86 206.47,-44.41"/>
<polygon fill="blue" stroke="blue" points="208.07,-45.21 209.82,-40.21 205.33,-43.02 208.07,-45.21"/>
<text text-anchor="middle" x="183.11" y="-227.6" font-family="Work Sans" font-size="8.00">.</text>
</g>
<!-- V75415 -->
<g id="node5" class="node">
<title>V75415</title>
<g id="a_node5"><a xlink:href="http://trips.ihmc.us/lexicon/data/ONT::DEGREE-MODIFIER-HIGH.xml" xlink:title="&lt;font color=&quot;green&quot;&gt;&lt;br /&gt;&lt;/font&gt; &lt;font color=&quot;black&quot;&gt;DEGREE&#45;MODIFIER&#45;HIGH&lt;/font&gt; &lt;font color=&quot;green&quot;&gt;&lt;br /&gt;&lt;/font&gt; &lt;font color=&quot;red&quot;&gt;F&lt;/font&gt; &lt;font color=&quot;blue&quot;&gt;REALLY&lt;/font&gt; &lt;font color=&quot;green&quot;&gt;&lt;br /&gt;&lt;/font&gt; &lt;font color=&quot;green&quot;&gt;really%4:02:00::&lt;/font&gt; &lt;font color=&quot;green&quot;&gt;&lt;br /&gt; &lt;/font&gt;">
<polygon fill="pink" stroke="transparent" stroke-width="0.5" points="214.83,-328 266,-328 266,-368 214.83,-368 214.83,-328"/>
<polygon fill="lightblue" stroke="transparent" stroke-width="0.5" points="266,-328 317.17,-328 317.17,-368 266,-368 266,-328"/>
<polygon fill="none" stroke="transparent" points="317.17,-368 214.83,-368 214.83,-328 317.17,-328 317.17,-368"/>
<text text-anchor="start" x="214.67" y="-354.6" font-family="Work Sans" font-size="8.00"> </text>
<text text-anchor="start" x="216.89" y="-354.6" font-family="Work Sans" font-size="8.00">DEGREE&#45;MODIFIER&#45;HIGH</text>
<text text-anchor="start" x="315.11" y="-354.6" font-family="Work Sans" font-size="8.00"> </text>
<text text-anchor="start" x="245.18" y="-346.6" font-family="Work Sans" font-size="8.00"> </text>
<text text-anchor="start" x="247.4" y="-346.6" font-family="Work Sans" font-size="8.00" fill="red">F</text>
<text text-anchor="start" x="252.29" y="-346.6" font-family="Work Sans" font-size="8.00"> </text>
<text text-anchor="start" x="254.51" y="-346.6" font-family="Work Sans" font-size="8.00" fill="blue">REALLY</text>
<text text-anchor="start" x="284.6" y="-346.6" font-family="Work Sans" font-size="8.00"> </text>
<text text-anchor="start" x="235.09" y="-338.6" font-family="Work Sans" font-size="8.00"> </text>
<text text-anchor="start" x="237.32" y="-338.6" font-family="Work Sans" font-size="8.00" fill="green">really%4:02:00::</text>
<text text-anchor="start" x="294.68" y="-338.6" font-family="Work Sans" font-size="8.00"> </text>
<text text-anchor="start" x="264.89" y="-330.6" font-family="Work Sans" font-size="8.00" fill="green"> </text>
</a>
</g>
</g>
<!-- V75424&#45;&gt;V75415 -->
<g id="edge3" class="edge">
<title>V75424&#45;&gt;V75415</title>
<path fill="none" stroke="red" d="M225.74,-411.99C217.71,-404.62 211.64,-395.32 216.32,-386 219.04,-380.59 222.96,-375.78 227.42,-371.55"/>
<polygon fill="red" stroke="red" points="228.7,-372.76 231.29,-368.14 226.38,-370.14 228.7,-372.76"/>
<text text-anchor="middle" x="238.34" y="-387.6" font-family="Work Sans" font-size="8.00"> DEGREE &#160;&#160;</text>
</g>
<!-- V75424&#45;&gt;V75415 -->
<g id="edge4" class="edge">
<title>V75424&#45;&gt;V75415</title>
<path fill="none" stroke="blue" d="M253.69,-411.71C255.59,-406.19 257.58,-399.87 259,-394 260.6,-387.39 261.92,-380.14 262.96,-373.42"/>
<polygon fill="blue" stroke="blue" points="264.7,-373.61 263.71,-368.41 261.24,-373.1 264.7,-373.61"/>
<text text-anchor="middle" x="262.11" y="-387.6" font-family="Work Sans" font-size="8.00">.</text>
</g>
<!-- V75461 -->
<g id="node6" class="node">
<title>V75461</title>
<g id="a_node6"><a xlink:href="http://trips.ihmc.us/lexicon/data/ONT::HAVE-PROPERTY.xml" xlink:title="&lt;font color=&quot;green&quot;&gt;&lt;br /&gt;&lt;/font&gt; &lt;font color=&quot;black&quot;&gt;HAVE&#45;PROPERTY&lt;/font&gt; &lt;font color=&quot;green&quot;&gt;&lt;br /&gt;&lt;/font&gt; &lt;font color=&quot;red&quot;&gt;F&lt;/font&gt; &lt;font color=&quot;blue&quot;&gt;BE&lt;/font&gt; &lt;font color=&quot;green&quot;&gt;&lt;br /&gt;&lt;/font&gt; &lt;font color=&quot;green&quot;&gt;be%2:42:03::&lt;/font&gt; &lt;font color=&quot;green&quot;&gt;&lt;br /&gt; &lt;/font&gt;">
<text text-anchor="start" x="334.91" y="-354.6" font-family="Work Sans" font-size="8.00"> </text>
<text text-anchor="start" x="337.14" y="-354.6" font-family="Work Sans" font-size="8.00">HAVE&#45;PROPERTY</text>
<text text-anchor="start" x="404.86" y="-354.6" font-family="Work Sans" font-size="8.00"> </text>
<text text-anchor="start" x="359.89" y="-346.6" font-family="Work Sans" font-size="8.00"> </text>
<text text-anchor="start" x="362.11" y="-346.6" font-family="Work Sans" font-size="8.00" fill="red">F</text>
<text text-anchor="start" x="367" y="-346.6" font-family="Work Sans" font-size="8.00"> </text>
<text text-anchor="start" x="369.22" y="-346.6" font-family="Work Sans" font-size="8.00" fill="blue">BE</text>
<text text-anchor="start" x="379.89" y="-346.6" font-family="Work Sans" font-size="8.00"> </text>
<text text-anchor="start" x="345.2" y="-338.6" font-family="Work Sans" font-size="8.00"> </text>
<text text-anchor="start" x="347.43" y="-338.6" font-family="Work Sans" font-size="8.00" fill="green">be%2:42:03::</text>
<text text-anchor="start" x="394.57" y="-338.6" font-family="Work Sans" font-size="8.00"> </text>
<text text-anchor="start" x="369.89" y="-330.6" font-family="Work Sans" font-size="8.00" fill="green"> </text>
</a>
</g>
</g>
<!-- V75424&#45;&gt;V75461 -->
<g id="edge9" class="edge">
<title>V75424&#45;&gt;V75461</title>
<path fill="none" stroke="red" d="M271.35,-416.19C283.72,-410.16 299,-402.22 312,-394 322.77,-387.19 334.02,-378.93 343.77,-371.35"/>
<polygon fill="red" stroke="red" points="345,-372.62 347.86,-368.15 342.84,-369.86 345,-372.62"/>
<text text-anchor="middle" x="344.97" y="-387.6" font-family="Work Sans" font-size="8.00"> FORMAL &#160;&#160;</text>
</g>
<!-- V75424&#45;&gt;V75461 -->
<g id="edge16" class="edge">
<title>V75424&#45;&gt;V75461</title>
<path fill="none" stroke="blue" d="M271.19,-424.04C303.07,-419.43 357.89,-409.46 370,-394 374.54,-388.2 375.87,-380.57 375.75,-373.25"/>
<polygon fill="blue" stroke="blue" points="377.49,-373.14 375.44,-368.25 374,-373.35 377.49,-373.14"/>
<text text-anchor="middle" x="375.11" y="-387.6" font-family="Work Sans" font-size="8.00">.</text>
</g>
<!-- V75415&#45;&gt;V75424 -->
<g id="edge18" class="edge">
<title>V75415&#45;&gt;V75424</title>
<path fill="none" stroke="grey" stroke-width="0.5" d="M268.77,-368.11C269.35,-376.22 269.22,-385.7 267,-394 265.77,-398.6 263.73,-403.22 261.43,-407.48"/>
<polygon fill="grey" stroke="grey" stroke-width="0.5" points="259.84,-406.75 258.87,-411.96 262.87,-408.49 259.84,-406.75"/>
<text text-anchor="middle" x="288.56" y="-387.6" font-family="Work Sans" font-size="8.00"> FIGURE &#160;&#160;</text>
</g>
<!-- V75461&#45;&gt;V75390 -->
<g id="edge5" class="edge">
<title>V75461&#45;&gt;V75390</title>
<path fill="none" stroke="red" d="M334.55,-331.08C292.18,-312.01 228,-281.12 228,-269 228,-269 228,-269 228,-103 228,-83.69 228,-61.81 228,-45.52"/>
<polygon fill="red" stroke="red" points="229.75,-45.22 228,-40.22 226.25,-45.22 229.75,-45.22"/>
<text text-anchor="middle" x="250.97" y="-185.6" font-family="Work Sans" font-size="8.00"> NEUTRAL &#160;&#160;</text>
</g>
<!-- V75461&#45;&gt;V75390 -->
<g id="edge6" class="edge">
<title>V75461&#45;&gt;V75390</title>
<path fill="none" stroke="blue" d="M356.59,-327.82C347.89,-315.68 336.97,-299.41 329,-284 326.08,-278.36 261.48,-108.93 237.16,-45.05"/>
<polygon fill="blue" stroke="blue" points="238.75,-44.33 235.34,-40.28 235.48,-45.57 238.75,-44.33"/>
<text text-anchor="middle" x="301.11" y="-185.6" font-family="Work Sans" font-size="8.00">.</text>
</g>
<!-- V75476 -->
<g id="node7" class="node">
<title>V75476</title>
<g id="a_node7"><a xlink:href="http://trips.ihmc.us/lexicon/data/ONT::ACCOMPANIMENT.xml" xlink:title="&lt;font color=&quot;green&quot;&gt;&lt;br /&gt;&lt;/font&gt; &lt;font color=&quot;black&quot;&gt;ACCOMPANIMENT&lt;/font&gt; &lt;font color=&quot;green&quot;&gt;&lt;br /&gt;&lt;/font&gt; &lt;font color=&quot;red&quot;&gt;F&lt;/font&gt; &lt;font color=&quot;blue&quot;&gt;WITH&lt;/font&gt; &lt;font color=&quot;green&quot;&gt;&lt;br /&gt; &lt;/font&gt;">
<polygon fill="pink" stroke="transparent" points="412.47,-284 337.53,-284 337.53,-252 412.47,-252 412.47,-284"/>
<text text-anchor="start" x="337.52" y="-270.6" font-family="Work Sans" font-size="8.00"> </text>
<text text-anchor="start" x="339.74" y="-270.6" font-family="Work Sans" font-size="8.00">ACCOMPANIMENT</text>
<text text-anchor="start" x="410.26" y="-270.6" font-family="Work Sans" font-size="8.00"> </text>
<text text-anchor="start" x="359" y="-262.6" font-family="Work Sans" font-size="8.00"> </text>
<text text-anchor="start" x="361.23" y="-262.6" font-family="Work Sans" font-size="8.00" fill="red">F</text>
<text text-anchor="start" x="366.11" y="-262.6" font-family="Work Sans" font-size="8.00"> </text>
<text text-anchor="start" x="368.34" y="-262.6" font-family="Work Sans" font-size="8.00" fill="blue">WITH</text>
<text text-anchor="start" x="388.77" y="-262.6" font-family="Work Sans" font-size="8.00"> </text>
<text text-anchor="start" x="373.89" y="-254.6" font-family="Work Sans" font-size="8.00" fill="green"> </text>
</a>
</g>
</g>
<!-- V75461&#45;&gt;V75476 -->
<g id="edge10" class="edge">
<title>V75461&#45;&gt;V75476</title>
<path fill="none" stroke="red" stroke-width="0.5" d="M371.99,-327.72C372.59,-316.06 373.35,-301.21 373.96,-289.36"/>
<polygon fill="red" stroke="red" stroke-width="0.5" points="375.71,-289.24 374.22,-284.15 372.22,-289.06 375.71,-289.24"/>
<text text-anchor="middle" x="394.97" y="-303.6" font-family="Work Sans" font-size="8.00"> FORMAL &#160;&#160;</text>
</g>
<!-- V75476&#45;&gt;V75390 -->
<g id="edge12" class="edge">
<title>V75476&#45;&gt;V75390</title>
<path fill="none" stroke="grey" stroke-width="0.5" d="M371.2,-251.93C359.38,-205.21 323.64,-65.51 317,-58 304.75,-44.14 286.48,-35.35 269.67,-29.83"/>
<polygon fill="grey" stroke="grey" stroke-width="0.5" points="269.81,-28.04 264.51,-28.23 268.77,-31.38 269.81,-28.04"/>
<text text-anchor="middle" x="364.56" y="-143.6" font-family="Work Sans" font-size="8.00"> FIGURE &#160;&#160;</text>
</g>
<!-- V75492 -->
<g id="node8" class="node">
<title>V75492</title>
<g id="a_node8"><a xlink:href="http://trips.ihmc.us/lexicon/data/ONT::FAMILY-RELATION.xml" xlink:title="&lt;font color=&quot;green&quot;&gt;&lt;br /&gt;&lt;/font&gt; &lt;font color=&quot;black&quot;&gt;FAMILY&#45;RELATION&lt;/font&gt; &lt;font color=&quot;green&quot;&gt;&lt;br /&gt;&lt;/font&gt; &lt;font color=&quot;red&quot;&gt;THE&#45;SET&lt;/font&gt; &lt;font color=&quot;blue&quot;&gt;PARENT&lt;/font&gt; &lt;font color=&quot;green&quot;&gt;&lt;br /&gt;&lt;/font&gt; &lt;font color=&quot;green&quot;&gt;parent%1:18:00::&lt;/font&gt; &lt;font color=&quot;green&quot;&gt;&lt;br /&gt; &lt;/font&gt;">
<text text-anchor="start" x="369.17" y="-194.6" font-family="Work Sans" font-size="8.00"> </text>
<text text-anchor="start" x="371.39" y="-194.6" font-family="Work Sans" font-size="8.00">FAMILY&#45;RELATION</text>
<text text-anchor="start" x="440.61" y="-194.6" font-family="Work Sans" font-size="8.00"> </text>
<text text-anchor="start" x="369.62" y="-186.6" font-family="Work Sans" font-size="8.00"> </text>
<text text-anchor="start" x="371.85" y="-186.6" font-family="Work Sans" font-size="8.00" fill="red">THE&#45;SET</text>
<text text-anchor="start" x="406.07" y="-186.6" font-family="Work Sans" font-size="8.00"> </text>
<text text-anchor="start" x="408.29" y="-186.6" font-family="Work Sans" font-size="8.00" fill="blue">PARENT</text>
<text text-anchor="start" x="440.15" y="-186.6" font-family="Work Sans" font-size="8.00"> </text>
<text text-anchor="start" x="373.31" y="-178.6" font-family="Work Sans" font-size="8.00"> </text>
<text text-anchor="start" x="375.53" y="-178.6" font-family="Work Sans" font-size="8.00" fill="green">parent%1:18:00::</text>
<text text-anchor="start" x="436.47" y="-178.6" font-family="Work Sans" font-size="8.00"> </text>
<text text-anchor="start" x="404.89" y="-170.6" font-family="Work Sans" font-size="8.00" fill="green"> </text>
</a>
</g>
</g>
<!-- V75476&#45;&gt;V75492 -->
<g id="edge14" class="edge">
<title>V75476&#45;&gt;V75492</title>
<path fill="none" stroke="grey" stroke-width="0.5" d="M380.98,-251.96C385.36,-240.94 391.39,-225.75 396.44,-213.05"/>
<polygon fill="grey" stroke="grey" stroke-width="0.5" points="398.17,-213.44 398.39,-208.14 394.92,-212.14 398.17,-213.44"/>
<text text-anchor="middle" x="413.22" y="-227.6" font-family="Work Sans" font-size="8.00"> GROUND &#160;&#160;</text>
</g>
<!-- V75487 -->
<g id="node9" class="node">
<title>V75487</title>
<g id="a_node9"><a xlink:href="http://trips.ihmc.us/lexicon/data/ONT::FEMALE-PERSON.xml" xlink:title="&lt;font color=&quot;green&quot;&gt;&lt;br /&gt;&lt;/font&gt; &lt;font color=&quot;black&quot;&gt;FEMALE&#45;PERSON&lt;/font&gt; &lt;font color=&quot;green&quot;&gt;&lt;br /&gt;&lt;/font&gt; &lt;font color=&quot;red&quot;&gt;PRO&lt;/font&gt; &lt;font color=&quot;blue&quot;&gt;HER&lt;/font&gt; &lt;font color=&quot;green&quot;&gt;&lt;br /&gt;&lt;/font&gt; &lt;font color=&quot;green&quot;&gt;woman%1:18:00&lt;/font&gt; &lt;font color=&quot;green&quot;&gt;&lt;br /&gt; &lt;/font&gt;">
<text text-anchor="start" x="368.55" y="-110.6" font-family="Work Sans" font-size="8.00"> </text>
<text text-anchor="start" x="370.77" y="-110.6" font-family="Work Sans" font-size="8.00">FEMALE&#45;PERSON</text>
<text text-anchor="start" x="439.23" y="-110.6" font-family="Work Sans" font-size="8.00"> </text>
<text text-anchor="start" x="384.55" y="-102.6" font-family="Work Sans" font-size="8.00"> </text>
<text text-anchor="start" x="386.78" y="-102.6" font-family="Work Sans" font-size="8.00" fill="red">PRO</text>
<text text-anchor="start" x="404.11" y="-102.6" font-family="Work Sans" font-size="8.00"> </text>
<text text-anchor="start" x="406.33" y="-102.6" font-family="Work Sans" font-size="8.00" fill="blue">HER</text>
<text text-anchor="start" x="423.22" y="-102.6" font-family="Work Sans" font-size="8.00"> </text>
<text text-anchor="start" x="372.98" y="-94.6" font-family="Work Sans" font-size="8.00"> </text>
<text text-anchor="start" x="375.2" y="-94.6" font-family="Work Sans" font-size="8.00" fill="green">woman%1:18:00</text>
<text text-anchor="start" x="434.8" y="-94.6" font-family="Work Sans" font-size="8.00"> </text>
<text text-anchor="start" x="403.89" y="-86.6" font-family="Work Sans" font-size="8.00" fill="green"> </text>
</a>
</g>
</g>
<!-- V75492&#45;&gt;V75487 -->
<g id="edge19" class="edge">
<title>V75492&#45;&gt;V75487</title>
<path fill="none" stroke="grey" stroke-width="0.5" d="M405.77,-167.98C405.63,-156.47 405.45,-141.68 405.3,-129.33"/>
<polygon fill="grey" stroke="grey" stroke-width="0.5" points="407.05,-129.18 405.23,-124.2 403.55,-129.22 407.05,-129.18"/>
<text text-anchor="middle" x="435.68" y="-143.6" font-family="Work Sans" font-size="8.00"> ASSOC&#45;POSS &#160;&#160;</text>
</g>
<!-- V75487&#45;&gt;V75390 -->
<g id="edge11" class="edge">
<title>V75487&#45;&gt;V75390</title>
<path fill="none" stroke="blue" d="M387.57,-83.71C378.6,-74.79 367.04,-64.71 355,-58 328.38,-43.18 295.25,-33.78 269.5,-28.17"/>
<polygon fill="blue" stroke="blue" points="269.71,-26.42 264.45,-27.1 268.98,-29.85 269.71,-26.42"/>
<text text-anchor="middle" x="367.11" y="-59.6" font-family="Work Sans" font-size="8.00">.</text>
</g>
<!-- V75487&#45;&gt;V75390 -->
<g id="edge13" class="edge">
<title>V75487&#45;&gt;V75390</title>
<path fill="none" stroke="red" d="M395.11,-83.91C389.48,-74.81 381.63,-64.51 372,-58 341.48,-37.36 300.23,-28.23 269.7,-24.2"/>
<polygon fill="red" stroke="red" points="269.69,-22.43 264.51,-23.55 269.25,-25.9 269.69,-22.43"/>
<text text-anchor="middle" x="400.45" y="-59.6" font-family="Work Sans" font-size="8.00"> COREF &#160;&#160;</text>
</g>
</g>
</svg>
