<?xml version="1.0" encoding="UTF-8" standalone="no"?>
<!DOCTYPE svg PUBLIC "-//W3C//DTD SVG 1.1//EN"
 "http://www.w3.org/Graphics/SVG/1.1/DTD/svg11.dtd">
<!-- Generated by graphviz version 2.43.0 (0)
 -->
<!-- Title: graph Pages: 1 -->
<svg width="461pt" height="368pt"
 viewBox="0.00 0.00 461.47 368.00" xmlns="http://www.w3.org/2000/svg" xmlns:xlink="http://www.w3.org/1999/xlink">
<g id="graph0" class="graph" transform="scale(1 1) rotate(0) translate(4 364)">
<title>graph</title>
<polygon fill="white" stroke="transparent" points="-4,4 -4,-364 457.47,-364 457.47,4 -4,4"/>
<!-- V88572 -->
<g id="node1" class="node">
<title>V88572</title>
<g id="a_node1"><a xlink:href="http://trips.ihmc.us/lexicon/data/ONT::SA_TELL.xml" xlink:title="&lt;font color=&quot;green&quot;&gt;&lt;br /&gt;&lt;/font&gt; &lt;font color=&quot;black&quot;&gt;SA_TELL&lt;/font&gt; &lt;font color=&quot;green&quot;&gt;&lt;br /&gt;&lt;/font&gt; &lt;font color=&quot;red&quot;&gt;SPEECHACT&lt;/font&gt; &lt;font color=&quot;blue&quot;&gt;* &lt;/font&gt; &lt;font color=&quot;green&quot;&gt;&lt;br /&gt; &lt;/font&gt;">
<text text-anchor="start" x="311.01" y="-346.6" font-family="Work Sans" font-size="8.00"> </text>
<text text-anchor="start" x="313.23" y="-346.6" font-family="Work Sans" font-size="8.00">SA_TELL</text>
<text text-anchor="start" x="347.48" y="-346.6" font-family="Work Sans" font-size="8.00"> </text>
<text text-anchor="start" x="299.9" y="-338.6" font-family="Work Sans" font-size="8.00"> </text>
<text text-anchor="start" x="302.13" y="-338.6" font-family="Work Sans" font-size="8.00" fill="red">SPEECHACT</text>
<text text-anchor="start" x="351.03" y="-338.6" font-family="Work Sans" font-size="8.00"> </text>
<text text-anchor="start" x="353.25" y="-338.6" font-family="Work Sans" font-size="8.00" fill="blue">* </text>
<text text-anchor="start" x="358.58" y="-338.6" font-family="Work Sans" font-size="8.00"> </text>
<text text-anchor="start" x="329.24" y="-330.6" font-family="Work Sans" font-size="8.00" fill="green"> </text>
</a>
</g>
</g>
<!-- V88419 -->
<g id="node2" class="node">
<title>V88419</title>
<g id="a_node2"><a xlink:href="http://trips.ihmc.us/lexicon/data/ONT::EVENT-OF-ACTION.xml" xlink:title="&lt;font color=&quot;green&quot;&gt;&lt;br /&gt;&lt;/font&gt; &lt;font color=&quot;black&quot;&gt;EVENT&#45;OF&#45;ACTION&lt;/font&gt; &lt;font color=&quot;green&quot;&gt;&lt;br /&gt;&lt;/font&gt; &lt;font color=&quot;red&quot;&gt;F&lt;/font&gt; &lt;font color=&quot;blue&quot;&gt;* &lt;/font&gt; &lt;font color=&quot;green&quot;&gt;&lt;br /&gt; &lt;/font&gt;">
<polygon fill="pink" stroke="transparent" stroke-width="0.5" points="291.51,-252 330.36,-252 330.36,-284 291.51,-284 291.51,-252"/>
<polygon fill="lightblue" stroke="transparent" stroke-width="0.5" points="330.36,-252 369.2,-252 369.2,-284 330.36,-284 330.36,-252"/>
<polygon fill="none" stroke="transparent" points="369.2,-284 291.51,-284 291.51,-252 369.2,-252 369.2,-284"/>
<text text-anchor="start" x="291.69" y="-270.6" font-family="Work Sans" font-size="8.00"> </text>
<text text-anchor="start" x="293.91" y="-270.6" font-family="Work Sans" font-size="8.00">EVENT&#45;OF&#45;ACTION</text>
<text text-anchor="start" x="366.8" y="-270.6" font-family="Work Sans" font-size="8.00"> </text>
<text text-anchor="start" x="321.91" y="-262.6" font-family="Work Sans" font-size="8.00"> </text>
<text text-anchor="start" x="324.13" y="-262.6" font-family="Work Sans" font-size="8.00" fill="red">F</text>
<text text-anchor="start" x="329.02" y="-262.6" font-family="Work Sans" font-size="8.00"> </text>
<text text-anchor="start" x="331.24" y="-262.6" font-family="Work Sans" font-size="8.00" fill="blue">* </text>
<text text-anchor="start" x="336.58" y="-262.6" font-family="Work Sans" font-size="8.00"> </text>
<text text-anchor="start" x="329.24" y="-254.6" font-family="Work Sans" font-size="8.00" fill="green"> </text>
</a>
</g>
</g>
<!-- V88572&#45;&gt;V88419 -->
<g id="edge8" class="edge">
<title>V88572&#45;&gt;V88419</title>
<path fill="none" stroke="grey" stroke-width="0.5" d="M330.36,-327.67C330.36,-316.58 330.36,-301.49 330.36,-289.38"/>
<polygon fill="grey" stroke="grey" stroke-width="0.5" points="332.11,-289.06 330.36,-284.06 328.61,-289.06 332.11,-289.06"/>
<text text-anchor="middle" x="354.06" y="-303.6" font-family="Work Sans" font-size="8.00"> CONTENT &#160;&#160;</text>
</g>
<!-- V87847 -->
<g id="node3" class="node">
<title>V87847</title>
<g id="a_node3"><a xlink:href="http://trips.ihmc.us/lexicon/data/ONT::SING.xml" xlink:title="&lt;font color=&quot;green&quot;&gt;&lt;br /&gt;&lt;/font&gt; &lt;font color=&quot;black&quot;&gt;SING&lt;/font&gt; &lt;font color=&quot;green&quot;&gt;&lt;br /&gt;&lt;/font&gt; &lt;font color=&quot;red&quot;&gt;F&lt;/font&gt; &lt;font color=&quot;blue&quot;&gt;SING&lt;/font&gt; &lt;font color=&quot;green&quot;&gt;&lt;br /&gt;&lt;/font&gt; &lt;font color=&quot;green&quot;&gt;sing%2:36:01::&lt;/font&gt; &lt;font color=&quot;green&quot;&gt;&lt;br /&gt; &lt;/font&gt;">
<text text-anchor="start" x="172.35" y="-194.6" font-family="Work Sans" font-size="8.00"> </text>
<text text-anchor="start" x="174.58" y="-194.6" font-family="Work Sans" font-size="8.00">SING</text>
<text text-anchor="start" x="194.13" y="-194.6" font-family="Work Sans" font-size="8.00"> </text>
<text text-anchor="start" x="168.8" y="-186.6" font-family="Work Sans" font-size="8.00"> </text>
<text text-anchor="start" x="171.02" y="-186.6" font-family="Work Sans" font-size="8.00" fill="red">F</text>
<text text-anchor="start" x="175.91" y="-186.6" font-family="Work Sans" font-size="8.00"> </text>
<text text-anchor="start" x="178.13" y="-186.6" font-family="Work Sans" font-size="8.00" fill="blue">SING</text>
<text text-anchor="start" x="197.69" y="-186.6" font-family="Work Sans" font-size="8.00"> </text>
<text text-anchor="start" x="155.67" y="-178.6" font-family="Work Sans" font-size="8.00"> </text>
<text text-anchor="start" x="157.89" y="-178.6" font-family="Work Sans" font-size="8.00" fill="green">sing%2:36:01::</text>
<text text-anchor="start" x="210.82" y="-178.6" font-family="Work Sans" font-size="8.00"> </text>
<text text-anchor="start" x="183.24" y="-170.6" font-family="Work Sans" font-size="8.00" fill="green"> </text>
</a>
</g>
</g>
<!-- V88419&#45;&gt;V87847 -->
<g id="edge1" class="edge">
<title>V88419&#45;&gt;V87847</title>
<path fill="none" stroke="grey" stroke-width="0.5" d="M291.44,-258.65C272.09,-253.41 248.89,-245.45 230.12,-234 220.47,-228.12 211.28,-219.83 203.71,-211.98"/>
<polygon fill="grey" stroke="grey" stroke-width="0.5" points="204.83,-210.61 200.13,-208.16 202.28,-213.01 204.83,-210.61"/>
<text text-anchor="middle" x="259.47" y="-227.6" font-family="Work Sans" font-size="8.00"> SEQUENCE1 &#160;&#160;</text>
</g>
<!-- V87793 -->
<g id="node4" class="node">
<title>V87793</title>
<g id="a_node4"><a xlink:href="http://trips.ihmc.us/lexicon/data/ONT::SELF-LOCOMOTE.xml" xlink:title="&lt;font color=&quot;green&quot;&gt;&lt;br /&gt;&lt;/font&gt; &lt;font color=&quot;black&quot;&gt;SELF&#45;LOCOMOTE&lt;/font&gt; &lt;font color=&quot;green&quot;&gt;&lt;br /&gt;&lt;/font&gt; &lt;font color=&quot;red&quot;&gt;F&lt;/font&gt; &lt;font color=&quot;blue&quot;&gt;GO&lt;/font&gt; &lt;font color=&quot;green&quot;&gt;&lt;br /&gt;&lt;/font&gt; &lt;font color=&quot;green&quot;&gt;go%2:38:00::&lt;/font&gt; &lt;font color=&quot;green&quot;&gt;&lt;br /&gt; &lt;/font&gt;">
<polygon fill="pink" stroke="transparent" points="347.75,-208 274.96,-208 274.96,-168 347.75,-168 347.75,-208"/>
<text text-anchor="start" x="274.91" y="-194.6" font-family="Work Sans" font-size="8.00"> </text>
<text text-anchor="start" x="277.13" y="-194.6" font-family="Work Sans" font-size="8.00">SELF&#45;LOCOMOTE</text>
<text text-anchor="start" x="345.58" y="-194.6" font-family="Work Sans" font-size="8.00"> </text>
<text text-anchor="start" x="299.36" y="-186.6" font-family="Work Sans" font-size="8.00"> </text>
<text text-anchor="start" x="301.58" y="-186.6" font-family="Work Sans" font-size="8.00" fill="red">F</text>
<text text-anchor="start" x="306.46" y="-186.6" font-family="Work Sans" font-size="8.00"> </text>
<text text-anchor="start" x="308.69" y="-186.6" font-family="Work Sans" font-size="8.00" fill="blue">GO</text>
<text text-anchor="start" x="321.13" y="-186.6" font-family="Work Sans" font-size="8.00"> </text>
<text text-anchor="start" x="285.56" y="-178.6" font-family="Work Sans" font-size="8.00"> </text>
<text text-anchor="start" x="287.78" y="-178.6" font-family="Work Sans" font-size="8.00" fill="green">go%2:38:00::</text>
<text text-anchor="start" x="334.93" y="-178.6" font-family="Work Sans" font-size="8.00"> </text>
<text text-anchor="start" x="310.24" y="-170.6" font-family="Work Sans" font-size="8.00" fill="green"> </text>
</a>
</g>
</g>
<!-- V88419&#45;&gt;V87793 -->
<g id="edge9" class="edge">
<title>V88419&#45;&gt;V87793</title>
<path fill="none" stroke="grey" stroke-width="0.5" d="M307.6,-251.93C301.95,-246.95 296.64,-240.89 293.57,-234 290.56,-227.27 291.71,-219.86 294.51,-213.04"/>
<polygon fill="grey" stroke="grey" stroke-width="0.5" points="296.14,-213.69 296.69,-208.42 292.97,-212.2 296.14,-213.69"/>
<text text-anchor="middle" x="321.25" y="-227.6" font-family="Work Sans" font-size="8.00"> SEQUENCE &#160;&#160;</text>
</g>
<!-- V87742 -->
<g id="node5" class="node">
<title>V87742</title>
<g id="a_node5"><a xlink:href="http://trips.ihmc.us/lexicon/data/ONT::NOW.xml" xlink:title="&lt;font color=&quot;green&quot;&gt;&lt;br /&gt;&lt;/font&gt; &lt;font color=&quot;black&quot;&gt;NOW&lt;/font&gt; &lt;font color=&quot;green&quot;&gt;&lt;br /&gt;&lt;/font&gt; &lt;font color=&quot;red&quot;&gt;F&lt;/font&gt; &lt;font color=&quot;blue&quot;&gt;NOW&lt;/font&gt; &lt;font color=&quot;green&quot;&gt;&lt;br /&gt;&lt;/font&gt; &lt;font color=&quot;green&quot;&gt;now%4:02:05::&lt;/font&gt; &lt;font color=&quot;green&quot;&gt;&lt;br /&gt; &lt;/font&gt;">
<text text-anchor="start" x="399.36" y="-194.6" font-family="Work Sans" font-size="8.00"> </text>
<text text-anchor="start" x="401.58" y="-194.6" font-family="Work Sans" font-size="8.00">NOW</text>
<text text-anchor="start" x="421.13" y="-194.6" font-family="Work Sans" font-size="8.00"> </text>
<text text-anchor="start" x="395.8" y="-186.6" font-family="Work Sans" font-size="8.00"> </text>
<text text-anchor="start" x="398.03" y="-186.6" font-family="Work Sans" font-size="8.00" fill="red">F</text>
<text text-anchor="start" x="402.91" y="-186.6" font-family="Work Sans" font-size="8.00"> </text>
<text text-anchor="start" x="405.13" y="-186.6" font-family="Work Sans" font-size="8.00" fill="blue">NOW</text>
<text text-anchor="start" x="424.69" y="-186.6" font-family="Work Sans" font-size="8.00"> </text>
<text text-anchor="start" x="382.67" y="-178.6" font-family="Work Sans" font-size="8.00"> </text>
<text text-anchor="start" x="384.89" y="-178.6" font-family="Work Sans" font-size="8.00" fill="green">now%4:02:05::</text>
<text text-anchor="start" x="437.82" y="-178.6" font-family="Work Sans" font-size="8.00"> </text>
<text text-anchor="start" x="410.24" y="-170.6" font-family="Work Sans" font-size="8.00" fill="green"> </text>
</a>
</g>
</g>
<!-- V88419&#45;&gt;V87742 -->
<g id="edge4" class="edge">
<title>V88419&#45;&gt;V87742</title>
<path fill="none" stroke="grey" stroke-width="0.5" d="M344.64,-251.98C352.21,-244.13 361.74,-234.42 370.5,-226 375.33,-221.35 380.59,-216.47 385.66,-211.83"/>
<polygon fill="grey" stroke="grey" stroke-width="0.5" points="386.98,-213 389.5,-208.35 384.63,-210.41 386.98,-213"/>
<text text-anchor="middle" x="385.29" y="-227.6" font-family="Work Sans" font-size="8.00"> TIME &#160;&#160;</text>
</g>
<!-- V87764 -->
<g id="node6" class="node">
<title>V87764</title>
<g id="a_node6"><a xlink:href="http://trips.ihmc.us/lexicon/data/ONT::PERSON.xml" xlink:title="&lt;font color=&quot;green&quot;&gt;&lt;br /&gt;&lt;/font&gt; &lt;font color=&quot;black&quot;&gt;PERSON&lt;/font&gt; &lt;font color=&quot;green&quot;&gt;&lt;br /&gt;&lt;/font&gt; &lt;font color=&quot;red&quot;&gt;PRO&lt;/font&gt; &lt;font color=&quot;blue&quot;&gt;I&lt;/font&gt; &lt;font color=&quot;green&quot;&gt;&lt;br /&gt;&lt;/font&gt; &lt;font color=&quot;green&quot;&gt;person%1:03:00&lt;/font&gt; &lt;font color=&quot;green&quot;&gt;&lt;br /&gt; &lt;/font&gt;">
<text text-anchor="start" x="224.24" y="-110.6" font-family="Work Sans" font-size="8.00"> </text>
<text text-anchor="start" x="226.46" y="-110.6" font-family="Work Sans" font-size="8.00">PERSON</text>
<text text-anchor="start" x="260.25" y="-110.6" font-family="Work Sans" font-size="8.00"> </text>
<text text-anchor="start" x="230.24" y="-102.6" font-family="Work Sans" font-size="8.00"> </text>
<text text-anchor="start" x="232.46" y="-102.6" font-family="Work Sans" font-size="8.00" fill="red">PRO</text>
<text text-anchor="start" x="249.8" y="-102.6" font-family="Work Sans" font-size="8.00"> </text>
<text text-anchor="start" x="252.02" y="-102.6" font-family="Work Sans" font-size="8.00" fill="blue">I</text>
<text text-anchor="start" x="254.25" y="-102.6" font-family="Work Sans" font-size="8.00"> </text>
<text text-anchor="start" x="212" y="-94.6" font-family="Work Sans" font-size="8.00"> </text>
<text text-anchor="start" x="214.22" y="-94.6" font-family="Work Sans" font-size="8.00" fill="green">person%1:03:00</text>
<text text-anchor="start" x="272.49" y="-94.6" font-family="Work Sans" font-size="8.00"> </text>
<text text-anchor="start" x="242.24" y="-86.6" font-family="Work Sans" font-size="8.00" fill="green"> </text>
</a>
</g>
</g>
<!-- V87847&#45;&gt;V87764 -->
<g id="edge13" class="edge">
<title>V87847&#45;&gt;V87764</title>
<path fill="none" stroke="grey" stroke-width="0.5" d="M180.97,-167.99C180.41,-159.53 181.11,-149.76 185.48,-142 190.57,-132.98 198.86,-125.83 207.59,-120.31"/>
<polygon fill="grey" stroke="grey" stroke-width="0.5" points="208.51,-121.8 211.91,-117.73 206.72,-118.79 208.51,-121.8"/>
<text text-anchor="middle" x="204.29" y="-143.6" font-family="Work Sans" font-size="8.00"> AGENT &#160;&#160;</text>
</g>
<!-- V87866 -->
<g id="node9" class="node">
<title>V87866</title>
<g id="a_node9"><a xlink:href="http://trips.ihmc.us/lexicon/data/ONT::MUSIC.xml" xlink:title="&lt;font color=&quot;green&quot;&gt;&lt;br /&gt;&lt;/font&gt; &lt;font color=&quot;black&quot;&gt;MUSIC&lt;/font&gt; &lt;font color=&quot;green&quot;&gt;&lt;br /&gt;&lt;/font&gt; &lt;font color=&quot;red&quot;&gt;THE&#45;SET&lt;/font&gt; &lt;font color=&quot;blue&quot;&gt;SONG&lt;/font&gt; &lt;font color=&quot;green&quot;&gt;&lt;br /&gt;&lt;/font&gt; &lt;font color=&quot;green&quot;&gt;song%1:10:00::&lt;/font&gt; &lt;font color=&quot;green&quot;&gt;&lt;br /&gt; &lt;/font&gt;">
<text text-anchor="start" x="100.24" y="-110.6" font-family="Work Sans" font-size="8.00"> </text>
<text text-anchor="start" x="102.47" y="-110.6" font-family="Work Sans" font-size="8.00">MUSIC</text>
<text text-anchor="start" x="128.24" y="-110.6" font-family="Work Sans" font-size="8.00"> </text>
<text text-anchor="start" x="83.13" y="-102.6" font-family="Work Sans" font-size="8.00"> </text>
<text text-anchor="start" x="85.35" y="-102.6" font-family="Work Sans" font-size="8.00" fill="red">THE&#45;SET</text>
<text text-anchor="start" x="119.58" y="-102.6" font-family="Work Sans" font-size="8.00"> </text>
<text text-anchor="start" x="121.8" y="-102.6" font-family="Work Sans" font-size="8.00" fill="blue">SONG</text>
<text text-anchor="start" x="145.36" y="-102.6" font-family="Work Sans" font-size="8.00"> </text>
<text text-anchor="start" x="85.33" y="-94.6" font-family="Work Sans" font-size="8.00"> </text>
<text text-anchor="start" x="87.56" y="-94.6" font-family="Work Sans" font-size="8.00" fill="green">song%1:10:00::</text>
<text text-anchor="start" x="143.15" y="-94.6" font-family="Work Sans" font-size="8.00"> </text>
<text text-anchor="start" x="114.24" y="-86.6" font-family="Work Sans" font-size="8.00" fill="green"> </text>
</a>
</g>
</g>
<!-- V87847&#45;&gt;V87866 -->
<g id="edge11" class="edge">
<title>V87847&#45;&gt;V87866</title>
<path fill="none" stroke="grey" stroke-width="0.5" d="M155.51,-170.29C147.56,-164.63 139.47,-157.76 133.42,-150 128.62,-143.85 124.93,-136.26 122.18,-129.08"/>
<polygon fill="grey" stroke="grey" stroke-width="0.5" points="123.76,-128.3 120.42,-124.19 120.47,-129.49 123.76,-128.3"/>
<text text-anchor="middle" x="157.32" y="-143.6" font-family="Work Sans" font-size="8.00"> NEUTRAL &#160;&#160;</text>
</g>
<!-- V87793&#45;&gt;V87764 -->
<g id="edge2" class="edge">
<title>V87793&#45;&gt;V87764</title>
<path fill="none" stroke="red" d="M274.79,-175.16C263.07,-169.47 251.37,-161.34 244.48,-150 240.8,-143.93 239.59,-136.5 239.56,-129.44"/>
<polygon fill="red" stroke="red" points="241.32,-129.2 239.75,-124.15 237.82,-129.08 241.32,-129.2"/>
<text text-anchor="middle" x="263.29" y="-143.6" font-family="Work Sans" font-size="8.00"> AGENT &#160;&#160;</text>
</g>
<!-- V87793&#45;&gt;V87764 -->
<g id="edge12" class="edge">
<title>V87793&#45;&gt;V87764</title>
<path fill="none" stroke="blue" d="M299.12,-167.61C293.7,-159.46 287.03,-150.02 280.36,-142 276.45,-137.31 272.05,-132.53 267.67,-128.04"/>
<polygon fill="blue" stroke="blue" points="268.78,-126.67 264.02,-124.34 266.29,-129.12 268.78,-126.67"/>
<text text-anchor="middle" x="287.47" y="-143.6" font-family="Work Sans" font-size="8.00">.</text>
</g>
<!-- V88048 -->
<g id="node7" class="node">
<title>V88048</title>
<g id="a_node7"><a xlink:href="http://trips.ihmc.us/lexicon/data/ONT::ITERATION-PERIOD.xml" xlink:title="&lt;font color=&quot;green&quot;&gt;&lt;br /&gt;&lt;/font&gt; &lt;font color=&quot;black&quot;&gt;ITERATION&#45;PERIOD&lt;/font&gt; &lt;font color=&quot;green&quot;&gt;&lt;br /&gt;&lt;/font&gt; &lt;font color=&quot;red&quot;&gt;F&lt;/font&gt; &lt;font color=&quot;blue&quot;&gt;* &lt;/font&gt; &lt;font color=&quot;green&quot;&gt;&lt;br /&gt; &lt;/font&gt;">
<polygon fill="pink" stroke="transparent" stroke-width="0.5" points="312.5,-88 352.36,-88 352.36,-120 312.5,-120 312.5,-88"/>
<polygon fill="lightblue" stroke="transparent" stroke-width="0.5" points="352.36,-88 392.21,-88 392.21,-120 352.36,-120 352.36,-88"/>
<polygon fill="none" stroke="transparent" points="392.21,-120 312.5,-120 312.5,-88 392.21,-88 392.21,-120"/>
<text text-anchor="start" x="312.43" y="-106.6" font-family="Work Sans" font-size="8.00"> </text>
<text text-anchor="start" x="314.65" y="-106.6" font-family="Work Sans" font-size="8.00">ITERATION&#45;PERIOD</text>
<text text-anchor="start" x="390.06" y="-106.6" font-family="Work Sans" font-size="8.00"> </text>
<text text-anchor="start" x="343.91" y="-98.6" font-family="Work Sans" font-size="8.00"> </text>
<text text-anchor="start" x="346.13" y="-98.6" font-family="Work Sans" font-size="8.00" fill="red">F</text>
<text text-anchor="start" x="351.02" y="-98.6" font-family="Work Sans" font-size="8.00"> </text>
<text text-anchor="start" x="353.24" y="-98.6" font-family="Work Sans" font-size="8.00" fill="blue">* </text>
<text text-anchor="start" x="358.58" y="-98.6" font-family="Work Sans" font-size="8.00"> </text>
<text text-anchor="start" x="351.24" y="-90.6" font-family="Work Sans" font-size="8.00" fill="green"> </text>
</a>
</g>
</g>
<!-- V87793&#45;&gt;V88048 -->
<g id="edge3" class="edge">
<title>V87793&#45;&gt;V88048</title>
<path fill="none" stroke="blue" d="M320.86,-167.98C327.35,-155 335.93,-137.85 342.49,-124.73"/>
<polygon fill="blue" stroke="blue" points="344.14,-125.34 344.81,-120.09 341.01,-123.78 344.14,-125.34"/>
<text text-anchor="middle" x="334.47" y="-143.6" font-family="Work Sans" font-size="8.00">.</text>
</g>
<!-- V87793&#45;&gt;V88048 -->
<g id="edge15" class="edge">
<title>V87793&#45;&gt;V88048</title>
<path fill="none" stroke="red" d="M321.29,-167.83C324.23,-162.11 327.44,-155.81 330.36,-150 334.49,-141.76 338.97,-132.63 342.8,-124.76"/>
<polygon fill="red" stroke="red" points="344.48,-125.3 345.1,-120.04 341.34,-123.77 344.48,-125.3"/>
<text text-anchor="middle" x="363.84" y="-143.6" font-family="Work Sans" font-size="8.00"> FREQUENCY &#160;&#160;</text>
</g>
<!-- V87742&#45;&gt;V88419 -->
<g id="edge16" class="edge">
<title>V87742&#45;&gt;V88419</title>
<path fill="none" stroke="grey" stroke-width="0.5" d="M409.4,-208.18C407.67,-216.87 404.43,-226.79 398.36,-234 391.74,-241.85 382.83,-247.98 373.63,-252.71"/>
<polygon fill="grey" stroke="grey" stroke-width="0.5" points="372.82,-251.16 369.1,-254.93 374.36,-254.3 372.82,-251.16"/>
<text text-anchor="middle" x="421.91" y="-227.6" font-family="Work Sans" font-size="8.00"> FIGURE &#160;&#160;</text>
</g>
<!-- V88048&#45;&gt;V87793 -->
<g id="edge14" class="edge">
<title>V88048&#45;&gt;V87793</title>
<path fill="none" stroke="grey" stroke-width="0.5" d="M392.34,-118.57C408.47,-126.33 421.38,-137.08 412.36,-150 408.63,-155.33 379.04,-165.82 352.85,-174.27"/>
<polygon fill="grey" stroke="grey" stroke-width="0.5" points="352.23,-172.63 348,-175.82 353.3,-175.97 352.23,-172.63"/>
<text text-anchor="middle" x="433.91" y="-143.6" font-family="Work Sans" font-size="8.00"> FIGURE &#160;&#160;</text>
</g>
<!-- V87815 -->
<g id="node8" class="node">
<title>V87815</title>
<g id="a_node8"><a xlink:href="http://trips.ihmc.us/lexicon/data/ONT::WEEK.xml" xlink:title="&lt;font color=&quot;green&quot;&gt;&lt;br /&gt;&lt;/font&gt; &lt;font color=&quot;black&quot;&gt;WEEK&lt;/font&gt; &lt;font color=&quot;green&quot;&gt;&lt;br /&gt;&lt;/font&gt; &lt;font color=&quot;red&quot;&gt;QUANTIFIER&lt;/font&gt; &lt;font color=&quot;blue&quot;&gt;WEEK&lt;/font&gt; &lt;font color=&quot;green&quot;&gt;&lt;br /&gt;&lt;/font&gt; &lt;font color=&quot;green&quot;&gt;week%1:28:01::&lt;/font&gt; &lt;font color=&quot;green&quot;&gt;&lt;br /&gt; &lt;/font&gt;">
<polygon fill="pink" stroke="transparent" stroke-width="0.5" points="313.18,0 352.36,0 352.36,-40 313.18,-40 313.18,0"/>
<polygon fill="lightblue" stroke="transparent" stroke-width="0.5" points="352.36,0 391.53,0 391.53,-40 352.36,-40 352.36,0"/>
<polygon fill="none" stroke="transparent" points="391.53,-40 313.18,-40 313.18,0 391.53,0 391.53,-40"/>
<text text-anchor="start" x="338.35" y="-26.6" font-family="Work Sans" font-size="8.00"> </text>
<text text-anchor="start" x="340.58" y="-26.6" font-family="Work Sans" font-size="8.00">WEEK</text>
<text text-anchor="start" x="364.13" y="-26.6" font-family="Work Sans" font-size="8.00"> </text>
<text text-anchor="start" x="313.02" y="-18.6" font-family="Work Sans" font-size="8.00"> </text>
<text text-anchor="start" x="315.24" y="-18.6" font-family="Work Sans" font-size="8.00" fill="red">QUANTIFIER</text>
<text text-anchor="start" x="363.69" y="-18.6" font-family="Work Sans" font-size="8.00"> </text>
<text text-anchor="start" x="365.91" y="-18.6" font-family="Work Sans" font-size="8.00" fill="blue">WEEK</text>
<text text-anchor="start" x="389.47" y="-18.6" font-family="Work Sans" font-size="8.00"> </text>
<text text-anchor="start" x="321.67" y="-10.6" font-family="Work Sans" font-size="8.00"> </text>
<text text-anchor="start" x="323.89" y="-10.6" font-family="Work Sans" font-size="8.00" fill="green">week%1:28:01::</text>
<text text-anchor="start" x="380.82" y="-10.6" font-family="Work Sans" font-size="8.00"> </text>
<text text-anchor="start" x="351.24" y="-2.6" font-family="Work Sans" font-size="8.00" fill="green"> </text>
</a>
</g>
</g>
<!-- V88048&#45;&gt;V87815 -->
<g id="edge5" class="edge">
<title>V88048&#45;&gt;V87815</title>
<path fill="none" stroke="blue" stroke-width="0.5" d="M352.36,-87.96C352.36,-76.12 352.36,-59.38 352.36,-45.6"/>
<polygon fill="blue" stroke="blue" stroke-width="0.5" points="354.11,-45.29 352.36,-40.29 350.61,-45.29 354.11,-45.29"/>
<text text-anchor="middle" x="374.58" y="-59.6" font-family="Work Sans" font-size="8.00"> GROUND &#160;&#160;</text>
</g>
<!-- V87856 -->
<g id="node10" class="node">
<title>V87856</title>
<g id="a_node10"><a xlink:href="http://trips.ihmc.us/lexicon/data/ONT::PERSON.xml" xlink:title="&lt;font color=&quot;green&quot;&gt;&lt;br /&gt;&lt;/font&gt; &lt;font color=&quot;black&quot;&gt;PERSON&lt;/font&gt; &lt;font color=&quot;green&quot;&gt;&lt;br /&gt;&lt;/font&gt; &lt;font color=&quot;red&quot;&gt;PRO&lt;/font&gt; &lt;font color=&quot;blue&quot;&gt;MY&lt;/font&gt; &lt;font color=&quot;green&quot;&gt;&lt;br /&gt;&lt;/font&gt; &lt;font color=&quot;green&quot;&gt;person%1:03:00&lt;/font&gt; &lt;font color=&quot;green&quot;&gt;&lt;br /&gt; &lt;/font&gt;">
<text text-anchor="start" x="12.24" y="-26.6" font-family="Work Sans" font-size="8.00"> </text>
<text text-anchor="start" x="14.46" y="-26.6" font-family="Work Sans" font-size="8.00">PERSON</text>
<text text-anchor="start" x="48.25" y="-26.6" font-family="Work Sans" font-size="8.00"> </text>
<text text-anchor="start" x="13.35" y="-18.6" font-family="Work Sans" font-size="8.00"> </text>
<text text-anchor="start" x="15.58" y="-18.6" font-family="Work Sans" font-size="8.00" fill="red">PRO</text>
<text text-anchor="start" x="32.91" y="-18.6" font-family="Work Sans" font-size="8.00"> </text>
<text text-anchor="start" x="35.13" y="-18.6" font-family="Work Sans" font-size="8.00" fill="blue">MY</text>
<text text-anchor="start" x="47.13" y="-18.6" font-family="Work Sans" font-size="8.00"> </text>
<text text-anchor="start" x="0" y="-10.6" font-family="Work Sans" font-size="8.00"> </text>
<text text-anchor="start" x="2.22" y="-10.6" font-family="Work Sans" font-size="8.00" fill="green">person%1:03:00</text>
<text text-anchor="start" x="60.49" y="-10.6" font-family="Work Sans" font-size="8.00"> </text>
<text text-anchor="start" x="30.24" y="-2.6" font-family="Work Sans" font-size="8.00" fill="green"> </text>
</a>
</g>
</g>
<!-- V87866&#45;&gt;V87856 -->
<g id="edge7" class="edge">
<title>V87866&#45;&gt;V87856</title>
<path fill="none" stroke="grey" stroke-width="0.5" d="M82.82,-91.85C69.81,-85.95 55.64,-77.5 46,-66 41.03,-60.07 37.73,-52.4 35.55,-45.09"/>
<polygon fill="grey" stroke="grey" stroke-width="0.5" points="37.2,-44.48 34.21,-40.1 33.82,-45.38 37.2,-44.48"/>
<text text-anchor="middle" x="77.03" y="-59.6" font-family="Work Sans" font-size="8.00"> ASSOC&#45;POSS &#160;&#160;</text>
</g>
<!-- V87859 -->
<g id="node11" class="node">
<title>V87859</title>
<g id="a_node11"><a xlink:href="http://trips.ihmc.us/lexicon/data/ONT::OWN.xml" xlink:title="&lt;font color=&quot;green&quot;&gt;&lt;br /&gt;&lt;/font&gt; &lt;font color=&quot;black&quot;&gt;OWN&lt;/font&gt; &lt;font color=&quot;green&quot;&gt;&lt;br /&gt;&lt;/font&gt; &lt;font color=&quot;red&quot;&gt;F&lt;/font&gt; &lt;font color=&quot;blue&quot;&gt;OWN&lt;/font&gt; &lt;font color=&quot;green&quot;&gt;&lt;br /&gt; &lt;/font&gt;">
<text text-anchor="start" x="128.36" y="-22.6" font-family="Work Sans" font-size="8.00"> </text>
<text text-anchor="start" x="130.58" y="-22.6" font-family="Work Sans" font-size="8.00">OWN</text>
<text text-anchor="start" x="150.13" y="-22.6" font-family="Work Sans" font-size="8.00"> </text>
<text text-anchor="start" x="124.8" y="-14.6" font-family="Work Sans" font-size="8.00"> </text>
<text text-anchor="start" x="127.03" y="-14.6" font-family="Work Sans" font-size="8.00" fill="red">F</text>
<text text-anchor="start" x="131.91" y="-14.6" font-family="Work Sans" font-size="8.00"> </text>
<text text-anchor="start" x="134.13" y="-14.6" font-family="Work Sans" font-size="8.00" fill="blue">OWN</text>
<text text-anchor="start" x="153.69" y="-14.6" font-family="Work Sans" font-size="8.00"> </text>
<text text-anchor="start" x="139.24" y="-6.6" font-family="Work Sans" font-size="8.00" fill="green"> </text>
</a>
</g>
</g>
<!-- V87866&#45;&gt;V87859 -->
<g id="edge10" class="edge">
<title>V87866&#45;&gt;V87859</title>
<path fill="none" stroke="grey" stroke-width="0.5" d="M111.17,-83.76C110.18,-75.63 110.09,-66.17 112.8,-58 114.85,-51.82 118.37,-45.84 122.23,-40.55"/>
<polygon fill="grey" stroke="grey" stroke-width="0.5" points="123.85,-41.31 125.52,-36.28 121.08,-39.17 123.85,-41.31"/>
<text text-anchor="middle" x="127.13" y="-59.6" font-family="Work Sans" font-size="8.00"> MOD &#160;&#160;</text>
</g>
<!-- V87859&#45;&gt;V87866 -->
<g id="edge6" class="edge">
<title>V87859&#45;&gt;V87866</title>
<path fill="none" stroke="grey" stroke-width="0.5" d="M144.81,-36.38C146.63,-45.26 147.63,-56.51 144.36,-66 142.72,-70.74 140.19,-75.34 137.3,-79.6"/>
<polygon fill="grey" stroke="grey" stroke-width="0.5" points="135.83,-78.65 134.31,-83.72 138.66,-80.7 135.83,-78.65"/>
<text text-anchor="middle" x="165.91" y="-59.6" font-family="Work Sans" font-size="8.00"> FIGURE &#160;&#160;</text>
</g>
</g>
</svg>
