<?xml version="1.0" encoding="UTF-8" standalone="no"?>
<!DOCTYPE svg PUBLIC "-//W3C//DTD SVG 1.1//EN"
 "http://www.w3.org/Graphics/SVG/1.1/DTD/svg11.dtd">
<!-- Generated by graphviz version 2.43.0 (0)
 -->
<!-- Title: graph Pages: 1 -->
<svg width="238pt" height="268pt"
 viewBox="0.00 0.00 237.53 268.00" xmlns="http://www.w3.org/2000/svg" xmlns:xlink="http://www.w3.org/1999/xlink">
<g id="graph0" class="graph" transform="scale(1 1) rotate(0) translate(4 264)">
<title>graph</title>
<polygon fill="white" stroke="transparent" points="-4,4 -4,-264 233.53,-264 233.53,4 -4,4"/>
<!-- V53225 -->
<g id="node1" class="node">
<title>V53225</title>
<g id="a_node1"><a xlink:href="http://trips.ihmc.us/lexicon/data/ONT::SA_WH-QUESTION.xml" xlink:title="&lt;font color=&quot;green&quot;&gt;&lt;br /&gt;&lt;/font&gt; &lt;font color=&quot;black&quot;&gt;SA_WH&#45;QUESTION&lt;/font&gt; &lt;font color=&quot;green&quot;&gt;&lt;br /&gt;&lt;/font&gt; &lt;font color=&quot;red&quot;&gt;SPEECHACT&lt;/font&gt; &lt;font color=&quot;blue&quot;&gt;* &lt;/font&gt; &lt;font color=&quot;green&quot;&gt;&lt;br /&gt; &lt;/font&gt;">
<text text-anchor="start" x="108.96" y="-246.6" font-family="Work Sans" font-size="8.00"> </text>
<text text-anchor="start" x="111.19" y="-246.6" font-family="Work Sans" font-size="8.00">SA_WH&#45;QUESTION</text>
<text text-anchor="start" x="184.08" y="-246.6" font-family="Work Sans" font-size="8.00"> </text>
<text text-anchor="start" x="117.18" y="-238.6" font-family="Work Sans" font-size="8.00"> </text>
<text text-anchor="start" x="119.41" y="-238.6" font-family="Work Sans" font-size="8.00" fill="red">SPEECHACT</text>
<text text-anchor="start" x="168.3" y="-238.6" font-family="Work Sans" font-size="8.00"> </text>
<text text-anchor="start" x="170.53" y="-238.6" font-family="Work Sans" font-size="8.00" fill="blue">* </text>
<text text-anchor="start" x="175.86" y="-238.6" font-family="Work Sans" font-size="8.00"> </text>
<text text-anchor="start" x="146.52" y="-230.6" font-family="Work Sans" font-size="8.00" fill="green"> </text>
</a>
</g>
</g>
<!-- V52821 -->
<g id="node2" class="node">
<title>V52821</title>
<g id="a_node2"><a xlink:href="http://trips.ihmc.us/lexicon/data/ONT::OCCURRING.xml" xlink:title="&lt;font color=&quot;green&quot;&gt;&lt;br /&gt;&lt;/font&gt; &lt;font color=&quot;black&quot;&gt;OCCURRING&lt;/font&gt; &lt;font color=&quot;green&quot;&gt;&lt;br /&gt;&lt;/font&gt; &lt;font color=&quot;red&quot;&gt;F&lt;/font&gt; &lt;font color=&quot;blue&quot;&gt;GO&lt;/font&gt; &lt;font color=&quot;green&quot;&gt;&lt;br /&gt; &lt;/font&gt;">
<polygon fill="pink" stroke="transparent" stroke-width="0.5" points="73.86,-152 100.63,-152 100.63,-184 73.86,-184 73.86,-152"/>
<polygon fill="lightblue" stroke="transparent" stroke-width="0.5" points="100.63,-152 127.41,-152 127.41,-184 100.63,-184 100.63,-152"/>
<polygon fill="none" stroke="transparent" points="127.41,-184 73.86,-184 73.86,-152 127.41,-152 127.41,-184"/>
<text text-anchor="start" x="73.75" y="-170.6" font-family="Work Sans" font-size="8.00"> </text>
<text text-anchor="start" x="75.97" y="-170.6" font-family="Work Sans" font-size="8.00">OCCURRING</text>
<text text-anchor="start" x="125.3" y="-170.6" font-family="Work Sans" font-size="8.00"> </text>
<text text-anchor="start" x="88.63" y="-162.6" font-family="Work Sans" font-size="8.00"> </text>
<text text-anchor="start" x="90.86" y="-162.6" font-family="Work Sans" font-size="8.00" fill="red">F</text>
<text text-anchor="start" x="95.74" y="-162.6" font-family="Work Sans" font-size="8.00"> </text>
<text text-anchor="start" x="97.97" y="-162.6" font-family="Work Sans" font-size="8.00" fill="blue">GO</text>
<text text-anchor="start" x="110.41" y="-162.6" font-family="Work Sans" font-size="8.00"> </text>
<text text-anchor="start" x="99.52" y="-154.6" font-family="Work Sans" font-size="8.00" fill="green"> </text>
</a>
</g>
</g>
<!-- V53225&#45;&gt;V52821 -->
<g id="edge8" class="edge">
<title>V53225&#45;&gt;V52821</title>
<path fill="none" stroke="grey" stroke-width="0.5" d="M137.9,-227.67C130.66,-216.28 120.75,-200.67 112.96,-188.41"/>
<polygon fill="grey" stroke="grey" stroke-width="0.5" points="114.36,-187.34 110.2,-184.06 111.4,-189.22 114.36,-187.34"/>
<text text-anchor="middle" x="148.34" y="-203.6" font-family="Work Sans" font-size="8.00"> CONTENT &#160;&#160;</text>
</g>
<!-- V52863 -->
<g id="node4" class="node">
<title>V52863</title>
<g id="a_node4"><a xlink:href="http://trips.ihmc.us/lexicon/data/ONT::METHOD.xml" xlink:title="&lt;font color=&quot;green&quot;&gt;&lt;br /&gt;&lt;/font&gt; &lt;font color=&quot;black&quot;&gt;METHOD&lt;/font&gt; &lt;font color=&quot;green&quot;&gt;&lt;br /&gt;&lt;/font&gt; &lt;font color=&quot;red&quot;&gt;WH&#45;TERM&lt;/font&gt; &lt;font color=&quot;blue&quot;&gt;* &lt;/font&gt; &lt;font color=&quot;green&quot;&gt;&lt;br /&gt; &lt;/font&gt;">
<polygon fill="pink" stroke="transparent" points="121.8,-32 71.47,-32 71.47,0 121.8,0 121.8,-32"/>
<text text-anchor="start" x="77.08" y="-18.6" font-family="Work Sans" font-size="8.00"> </text>
<text text-anchor="start" x="79.3" y="-18.6" font-family="Work Sans" font-size="8.00">METHOD</text>
<text text-anchor="start" x="113.97" y="-18.6" font-family="Work Sans" font-size="8.00"> </text>
<text text-anchor="start" x="71.3" y="-10.6" font-family="Work Sans" font-size="8.00"> </text>
<text text-anchor="start" x="73.53" y="-10.6" font-family="Work Sans" font-size="8.00" fill="red">WH&#45;TERM</text>
<text text-anchor="start" x="112.18" y="-10.6" font-family="Work Sans" font-size="8.00"> </text>
<text text-anchor="start" x="114.41" y="-10.6" font-family="Work Sans" font-size="8.00" fill="blue">* </text>
<text text-anchor="start" x="119.74" y="-10.6" font-family="Work Sans" font-size="8.00"> </text>
<text text-anchor="start" x="95.52" y="-2.6" font-family="Work Sans" font-size="8.00" fill="green"> </text>
</a>
</g>
</g>
<!-- V53225&#45;&gt;V52863 -->
<g id="edge2" class="edge">
<title>V53225&#45;&gt;V52863</title>
<path fill="none" stroke="grey" stroke-width="0.5" d="M164.45,-227.71C168.97,-222.58 173.25,-216.49 175.63,-210 196.16,-154.09 202.32,-129.24 175.63,-76 165.38,-55.54 144.3,-40.36 126.49,-30.53"/>
<polygon fill="grey" stroke="grey" stroke-width="0.5" points="127.27,-28.96 122.04,-28.14 125.62,-32.05 127.27,-28.96"/>
<text text-anchor="middle" x="211.08" y="-127.6" font-family="Work Sans" font-size="8.00"> FOCUS &#160;&#160;</text>
</g>
<!-- V52771 -->
<g id="node3" class="node">
<title>V52771</title>
<g id="a_node3"><a xlink:href="http://trips.ihmc.us/lexicon/data/ONT::BY-MEANS-OF.xml" xlink:title="&lt;font color=&quot;green&quot;&gt;&lt;br /&gt;&lt;/font&gt; &lt;font color=&quot;black&quot;&gt;BY&#45;MEANS&#45;OF&lt;/font&gt; &lt;font color=&quot;green&quot;&gt;&lt;br /&gt;&lt;/font&gt; &lt;font color=&quot;red&quot;&gt;F&lt;/font&gt; &lt;font color=&quot;blue&quot;&gt;HOW&lt;/font&gt; &lt;font color=&quot;green&quot;&gt;&lt;br /&gt; &lt;/font&gt;">
<polygon fill="pink" stroke="transparent" points="59.4,-108 -0.14,-108 -0.14,-76 59.4,-76 59.4,-108"/>
<text text-anchor="start" x="0" y="-94.6" font-family="Work Sans" font-size="8.00"> </text>
<text text-anchor="start" x="2.22" y="-94.6" font-family="Work Sans" font-size="8.00">BY&#45;MEANS&#45;OF</text>
<text text-anchor="start" x="57.05" y="-94.6" font-family="Work Sans" font-size="8.00"> </text>
<text text-anchor="start" x="14.08" y="-86.6" font-family="Work Sans" font-size="8.00"> </text>
<text text-anchor="start" x="16.3" y="-86.6" font-family="Work Sans" font-size="8.00" fill="red">F</text>
<text text-anchor="start" x="21.19" y="-86.6" font-family="Work Sans" font-size="8.00"> </text>
<text text-anchor="start" x="23.41" y="-86.6" font-family="Work Sans" font-size="8.00" fill="blue">HOW</text>
<text text-anchor="start" x="42.96" y="-86.6" font-family="Work Sans" font-size="8.00"> </text>
<text text-anchor="start" x="28.52" y="-78.6" font-family="Work Sans" font-size="8.00" fill="green"> </text>
</a>
</g>
</g>
<!-- V52821&#45;&gt;V52771 -->
<g id="edge5" class="edge">
<title>V52821&#45;&gt;V52771</title>
<path fill="none" stroke="red" stroke-width="0.5" d="M73.61,-165.32C52.19,-162.4 23.55,-154.6 9.08,-134 4.38,-127.31 6.76,-119.39 11.29,-112.3"/>
<polygon fill="red" stroke="red" stroke-width="0.5" points="12.87,-113.1 14.35,-108.02 10.02,-111.07 12.87,-113.1"/>
<text text-anchor="middle" x="31.41" y="-127.6" font-family="Work Sans" font-size="8.00"> METHOD &#160;&#160;</text>
</g>
<!-- V52795 -->
<g id="node5" class="node">
<title>V52795</title>
<g id="a_node5"><a xlink:href="http://trips.ihmc.us/lexicon/data/ONT::PERFORMANCE-PLAY.xml" xlink:title="&lt;font color=&quot;green&quot;&gt;&lt;br /&gt;&lt;/font&gt; &lt;font color=&quot;black&quot;&gt;PERFORMANCE&#45;PLAY&lt;/font&gt; &lt;font color=&quot;green&quot;&gt;&lt;br /&gt;&lt;/font&gt; &lt;font color=&quot;red&quot;&gt;THE&lt;/font&gt; &lt;font color=&quot;blue&quot;&gt;PLAY&lt;/font&gt; &lt;font color=&quot;green&quot;&gt;&lt;br /&gt; &lt;/font&gt;">
<text text-anchor="start" x="77.03" y="-94.6" font-family="Work Sans" font-size="8.00"> </text>
<text text-anchor="start" x="79.26" y="-94.6" font-family="Work Sans" font-size="8.00">PERFORMANCE&#45;PLAY</text>
<text text-anchor="start" x="164.01" y="-94.6" font-family="Work Sans" font-size="8.00"> </text>
<text text-anchor="start" x="100.37" y="-86.6" font-family="Work Sans" font-size="8.00"> </text>
<text text-anchor="start" x="102.59" y="-86.6" font-family="Work Sans" font-size="8.00" fill="red">THE</text>
<text text-anchor="start" x="118.59" y="-86.6" font-family="Work Sans" font-size="8.00"> </text>
<text text-anchor="start" x="120.81" y="-86.6" font-family="Work Sans" font-size="8.00" fill="blue">PLAY</text>
<text text-anchor="start" x="140.68" y="-86.6" font-family="Work Sans" font-size="8.00"> </text>
<text text-anchor="start" x="120.52" y="-78.6" font-family="Work Sans" font-size="8.00" fill="green"> </text>
</a>
</g>
</g>
<!-- V52821&#45;&gt;V52795 -->
<g id="edge4" class="edge">
<title>V52821&#45;&gt;V52795</title>
<path fill="none" stroke="blue" d="M102.82,-151.65C104.11,-143.88 105.97,-134.35 108.41,-126 109.66,-121.74 111.24,-117.27 112.88,-113.05"/>
<polygon fill="blue" stroke="blue" points="114.58,-113.52 114.82,-108.23 111.33,-112.22 114.58,-113.52"/>
<text text-anchor="middle" x="109.75" y="-127.6" font-family="Work Sans" font-size="8.00">.</text>
</g>
<!-- V52821&#45;&gt;V52795 -->
<g id="edge6" class="edge">
<title>V52821&#45;&gt;V52795</title>
<path fill="none" stroke="red" d="M104.99,-151.67C108.16,-140.48 112.49,-125.21 115.94,-113.06"/>
<polygon fill="red" stroke="red" points="117.68,-113.35 117.36,-108.06 114.31,-112.39 117.68,-113.35"/>
<text text-anchor="middle" x="135.6" y="-127.6" font-family="Work Sans" font-size="8.00"> NEUTRAL &#160;&#160;</text>
</g>
<!-- V52771&#45;&gt;V52821 -->
<g id="edge1" class="edge">
<title>V52771&#45;&gt;V52821</title>
<path fill="none" stroke="grey" stroke-width="0.5" d="M41.34,-108.28C47.64,-116.2 55.7,-125.89 63.52,-134 68.2,-138.85 73.47,-143.81 78.55,-148.36"/>
<polygon fill="grey" stroke="grey" stroke-width="0.5" points="77.47,-149.75 82.38,-151.76 79.8,-147.13 77.47,-149.75"/>
<text text-anchor="middle" x="83.19" y="-127.6" font-family="Work Sans" font-size="8.00"> FIGURE &#160;&#160;</text>
</g>
<!-- V52771&#45;&gt;V52863 -->
<g id="edge3" class="edge">
<title>V52771&#45;&gt;V52863</title>
<path fill="none" stroke="grey" stroke-width="0.5" d="M26.22,-75.89C25.2,-67.64 25.41,-57.59 30.19,-50 38.25,-37.18 52.92,-29.18 66.43,-24.27"/>
<polygon fill="grey" stroke="grey" stroke-width="0.5" points="67.17,-25.87 71.34,-22.6 66.05,-22.55 67.17,-25.87"/>
<text text-anchor="middle" x="52.86" y="-51.6" font-family="Work Sans" font-size="8.00"> GROUND &#160;&#160;</text>
</g>
<!-- V52863&#45;&gt;V52771 -->
<g id="edge7" class="edge">
<title>V52863&#45;&gt;V52771</title>
<path fill="none" stroke="grey" stroke-width="0.5" d="M90.54,-32.04C86.74,-40.26 81.31,-50.32 74.63,-58 70.08,-63.25 64.54,-68.14 58.93,-72.47"/>
<polygon fill="grey" stroke="grey" stroke-width="0.5" points="57.61,-71.28 54.65,-75.67 59.7,-74.08 57.61,-71.28"/>
<text text-anchor="middle" x="106.49" y="-51.6" font-family="Work Sans" font-size="8.00"> SUCHTHAT &#160;&#160;</text>
</g>
</g>
</svg>
