<?xml version="1.0" encoding="UTF-8" standalone="no"?>
<!DOCTYPE svg PUBLIC "-//W3C//DTD SVG 1.1//EN"
 "http://www.w3.org/Graphics/SVG/1.1/DTD/svg11.dtd">
<!-- Generated by graphviz version 2.43.0 (0)
 -->
<!-- Title: graph Pages: 1 -->
<svg width="424pt" height="284pt"
 viewBox="0.00 0.00 423.87 284.00" xmlns="http://www.w3.org/2000/svg" xmlns:xlink="http://www.w3.org/1999/xlink">
<g id="graph0" class="graph" transform="scale(1 1) rotate(0) translate(4 280)">
<title>graph</title>
<polygon fill="white" stroke="transparent" points="-4,4 -4,-280 419.87,-280 419.87,4 -4,4"/>
<!-- V83779 -->
<g id="node1" class="node">
<title>V83779</title>
<g id="a_node1"><a xlink:href="http://trips.ihmc.us/lexicon/data/ONT::SA_TELL.xml" xlink:title="&lt;font color=&quot;green&quot;&gt;&lt;br /&gt;&lt;/font&gt; &lt;font color=&quot;black&quot;&gt;SA_TELL&lt;/font&gt; &lt;font color=&quot;green&quot;&gt;&lt;br /&gt;&lt;/font&gt; &lt;font color=&quot;red&quot;&gt;SPEECHACT&lt;/font&gt; &lt;font color=&quot;blue&quot;&gt;* &lt;/font&gt; &lt;font color=&quot;green&quot;&gt;&lt;br /&gt; &lt;/font&gt;">
<text text-anchor="start" x="187.77" y="-262.6" font-family="Work Sans" font-size="8.00"> </text>
<text text-anchor="start" x="190" y="-262.6" font-family="Work Sans" font-size="8.00">SA_TELL</text>
<text text-anchor="start" x="224.24" y="-262.6" font-family="Work Sans" font-size="8.00"> </text>
<text text-anchor="start" x="176.67" y="-254.6" font-family="Work Sans" font-size="8.00"> </text>
<text text-anchor="start" x="178.89" y="-254.6" font-family="Work Sans" font-size="8.00" fill="red">SPEECHACT</text>
<text text-anchor="start" x="227.79" y="-254.6" font-family="Work Sans" font-size="8.00"> </text>
<text text-anchor="start" x="230.01" y="-254.6" font-family="Work Sans" font-size="8.00" fill="blue">* </text>
<text text-anchor="start" x="235.35" y="-254.6" font-family="Work Sans" font-size="8.00"> </text>
<text text-anchor="start" x="206.01" y="-246.6" font-family="Work Sans" font-size="8.00" fill="green"> </text>
</a>
</g>
</g>
<!-- V83341 -->
<g id="node2" class="node">
<title>V83341</title>
<g id="a_node2"><a xlink:href="http://trips.ihmc.us/lexicon/data/ONT::CONSUME.xml" xlink:title="&lt;font color=&quot;green&quot;&gt;&lt;br /&gt;&lt;/font&gt; &lt;font color=&quot;black&quot;&gt;CONSUME&lt;/font&gt; &lt;font color=&quot;green&quot;&gt;&lt;br /&gt;&lt;/font&gt; &lt;font color=&quot;red&quot;&gt;F&lt;/font&gt; &lt;font color=&quot;blue&quot;&gt;TAKE&lt;/font&gt; &lt;font color=&quot;green&quot;&gt;&lt;br /&gt; &lt;/font&gt;">
<text text-anchor="start" x="184.45" y="-186.6" font-family="Work Sans" font-size="8.00"> </text>
<text text-anchor="start" x="186.67" y="-186.6" font-family="Work Sans" font-size="8.00">CONSUME</text>
<text text-anchor="start" x="227.56" y="-186.6" font-family="Work Sans" font-size="8.00"> </text>
<text text-anchor="start" x="191.19" y="-178.6" font-family="Work Sans" font-size="8.00"> </text>
<text text-anchor="start" x="193.41" y="-178.6" font-family="Work Sans" font-size="8.00" fill="red">F</text>
<text text-anchor="start" x="198.3" y="-178.6" font-family="Work Sans" font-size="8.00"> </text>
<text text-anchor="start" x="200.52" y="-178.6" font-family="Work Sans" font-size="8.00" fill="blue">TAKE</text>
<text text-anchor="start" x="220.82" y="-178.6" font-family="Work Sans" font-size="8.00"> </text>
<text text-anchor="start" x="206.01" y="-170.6" font-family="Work Sans" font-size="8.00" fill="green"> </text>
</a>
</g>
</g>
<!-- V83779&#45;&gt;V83341 -->
<g id="edge8" class="edge">
<title>V83779&#45;&gt;V83341</title>
<path fill="none" stroke="grey" stroke-width="0.5" d="M207.12,-243.67C207.12,-232.58 207.12,-217.49 207.12,-205.38"/>
<polygon fill="grey" stroke="grey" stroke-width="0.5" points="208.87,-205.06 207.12,-200.06 205.37,-205.06 208.87,-205.06"/>
<text text-anchor="middle" x="230.82" y="-219.6" font-family="Work Sans" font-size="8.00"> CONTENT &#160;&#160;</text>
</g>
<!-- V83312 -->
<g id="node3" class="node">
<title>V83312</title>
<g id="a_node3"><a xlink:href="http://trips.ihmc.us/lexicon/data/ONT::SEQUENCE-POSITION.xml" xlink:title="&lt;font color=&quot;green&quot;&gt;&lt;br /&gt;&lt;/font&gt; &lt;font color=&quot;black&quot;&gt;SEQUENCE&#45;POSITION&lt;/font&gt; &lt;font color=&quot;green&quot;&gt;&lt;br /&gt;&lt;/font&gt; &lt;font color=&quot;red&quot;&gt;F&lt;/font&gt; &lt;font color=&quot;blue&quot;&gt;THEN&lt;/font&gt; &lt;font color=&quot;green&quot;&gt;&lt;br /&gt;&lt;/font&gt; &lt;font color=&quot;green&quot;&gt;then%4:02:00::&lt;/font&gt; &lt;font color=&quot;green&quot;&gt;&lt;br /&gt; &lt;/font&gt;">
<text text-anchor="start" x="0" y="-110.6" font-family="Work Sans" font-size="8.00"> </text>
<text text-anchor="start" x="2.22" y="-110.6" font-family="Work Sans" font-size="8.00">SEQUENCE&#45;POSITION</text>
<text text-anchor="start" x="88.01" y="-110.6" font-family="Work Sans" font-size="8.00"> </text>
<text text-anchor="start" x="28.45" y="-102.6" font-family="Work Sans" font-size="8.00"> </text>
<text text-anchor="start" x="30.67" y="-102.6" font-family="Work Sans" font-size="8.00" fill="red">F</text>
<text text-anchor="start" x="35.56" y="-102.6" font-family="Work Sans" font-size="8.00"> </text>
<text text-anchor="start" x="37.78" y="-102.6" font-family="Work Sans" font-size="8.00" fill="blue">THEN</text>
<text text-anchor="start" x="59.56" y="-102.6" font-family="Work Sans" font-size="8.00"> </text>
<text text-anchor="start" x="15.98" y="-94.6" font-family="Work Sans" font-size="8.00"> </text>
<text text-anchor="start" x="18.21" y="-94.6" font-family="Work Sans" font-size="8.00" fill="green">then%4:02:00::</text>
<text text-anchor="start" x="72.03" y="-94.6" font-family="Work Sans" font-size="8.00"> </text>
<text text-anchor="start" x="44.01" y="-86.6" font-family="Work Sans" font-size="8.00" fill="green"> </text>
</a>
</g>
</g>
<!-- V83341&#45;&gt;V83312 -->
<g id="edge10" class="edge">
<title>V83341&#45;&gt;V83312</title>
<path fill="none" stroke="grey" stroke-width="0.5" d="M184.35,-183.6C153.94,-183.2 99.91,-178.16 65.56,-150 58.97,-144.59 54.41,-136.6 51.31,-128.85"/>
<polygon fill="grey" stroke="grey" stroke-width="0.5" points="52.92,-128.17 49.55,-124.08 49.63,-129.38 52.92,-128.17"/>
<text text-anchor="middle" x="79.89" y="-143.6" font-family="Work Sans" font-size="8.00"> MOD &#160;&#160;</text>
</g>
<!-- V83318 -->
<g id="node4" class="node">
<title>V83318</title>
<g id="a_node4"><a xlink:href="http://trips.ihmc.us/lexicon/data/ONT::PERSON.xml" xlink:title="&lt;font color=&quot;green&quot;&gt;&lt;br /&gt;&lt;/font&gt; &lt;font color=&quot;black&quot;&gt;PERSON&lt;/font&gt; &lt;font color=&quot;green&quot;&gt;&lt;br /&gt;&lt;/font&gt; &lt;font color=&quot;red&quot;&gt;PRO&#45;SET&lt;/font&gt; &lt;font color=&quot;blue&quot;&gt;WE&lt;/font&gt; &lt;font color=&quot;green&quot;&gt;&lt;br /&gt;&lt;/font&gt; &lt;font color=&quot;green&quot;&gt;person%1:03:00&lt;/font&gt; &lt;font color=&quot;green&quot;&gt;&lt;br /&gt; &lt;/font&gt;">
<text text-anchor="start" x="121" y="-110.6" font-family="Work Sans" font-size="8.00"> </text>
<text text-anchor="start" x="123.22" y="-110.6" font-family="Work Sans" font-size="8.00">PERSON</text>
<text text-anchor="start" x="157.01" y="-110.6" font-family="Work Sans" font-size="8.00"> </text>
<text text-anchor="start" x="112.56" y="-102.6" font-family="Work Sans" font-size="8.00"> </text>
<text text-anchor="start" x="114.78" y="-102.6" font-family="Work Sans" font-size="8.00" fill="red">PRO&#45;SET</text>
<text text-anchor="start" x="150.34" y="-102.6" font-family="Work Sans" font-size="8.00"> </text>
<text text-anchor="start" x="152.56" y="-102.6" font-family="Work Sans" font-size="8.00" fill="blue">WE</text>
<text text-anchor="start" x="165.45" y="-102.6" font-family="Work Sans" font-size="8.00"> </text>
<text text-anchor="start" x="108.76" y="-94.6" font-family="Work Sans" font-size="8.00"> </text>
<text text-anchor="start" x="110.98" y="-94.6" font-family="Work Sans" font-size="8.00" fill="green">person%1:03:00</text>
<text text-anchor="start" x="169.25" y="-94.6" font-family="Work Sans" font-size="8.00"> </text>
<text text-anchor="start" x="139.01" y="-86.6" font-family="Work Sans" font-size="8.00" fill="green"> </text>
</a>
</g>
</g>
<!-- V83341&#45;&gt;V83318 -->
<g id="edge5" class="edge">
<title>V83341&#45;&gt;V83318</title>
<path fill="none" stroke="red" stroke-width="0.5" d="M184.43,-172.04C174.97,-166.53 164.51,-159.08 157.25,-150 152.41,-143.95 148.83,-136.39 146.23,-129.2"/>
<polygon fill="red" stroke="red" stroke-width="0.5" points="147.84,-128.49 144.58,-124.31 144.52,-129.61 147.84,-128.49"/>
<text text-anchor="middle" x="176.05" y="-143.6" font-family="Work Sans" font-size="8.00"> AGENT &#160;&#160;</text>
</g>
<!-- V83384 -->
<g id="node5" class="node">
<title>V83384</title>
<g id="a_node5"><a xlink:href="http://trips.ihmc.us/lexicon/data/ONT::TREE.xml" xlink:title="&lt;font color=&quot;green&quot;&gt;&lt;br /&gt;&lt;/font&gt; &lt;font color=&quot;black&quot;&gt;TREE&lt;/font&gt; &lt;font color=&quot;green&quot;&gt;&lt;br /&gt;&lt;/font&gt; &lt;font color=&quot;red&quot;&gt;THE&lt;/font&gt; &lt;font color=&quot;blue&quot;&gt;TREE&lt;/font&gt; &lt;font color=&quot;green&quot;&gt;&lt;br /&gt;&lt;/font&gt; &lt;font color=&quot;green&quot;&gt;tree%1:20:00::&lt;/font&gt; &lt;font color=&quot;green&quot;&gt;&lt;br /&gt; &lt;/font&gt;">
<text text-anchor="start" x="256.23" y="-26.6" font-family="Work Sans" font-size="8.00"> </text>
<text text-anchor="start" x="258.45" y="-26.6" font-family="Work Sans" font-size="8.00">TREE</text>
<text text-anchor="start" x="279.79" y="-26.6" font-family="Work Sans" font-size="8.00"> </text>
<text text-anchor="start" x="247.12" y="-18.6" font-family="Work Sans" font-size="8.00"> </text>
<text text-anchor="start" x="249.34" y="-18.6" font-family="Work Sans" font-size="8.00" fill="red">THE</text>
<text text-anchor="start" x="265.34" y="-18.6" font-family="Work Sans" font-size="8.00"> </text>
<text text-anchor="start" x="267.56" y="-18.6" font-family="Work Sans" font-size="8.00" fill="blue">TREE</text>
<text text-anchor="start" x="288.9" y="-18.6" font-family="Work Sans" font-size="8.00"> </text>
<text text-anchor="start" x="240.88" y="-10.6" font-family="Work Sans" font-size="8.00"> </text>
<text text-anchor="start" x="243.1" y="-10.6" font-family="Work Sans" font-size="8.00" fill="green">tree%1:20:00::</text>
<text text-anchor="start" x="295.13" y="-10.6" font-family="Work Sans" font-size="8.00"> </text>
<text text-anchor="start" x="268.01" y="-2.6" font-family="Work Sans" font-size="8.00" fill="green"> </text>
</a>
</g>
</g>
<!-- V83341&#45;&gt;V83384 -->
<g id="edge6" class="edge">
<title>V83341&#45;&gt;V83384</title>
<path fill="none" stroke="blue" d="M206.42,-167.75C206,-142.71 208.36,-92.23 231.12,-58 234.38,-53.09 238.39,-48.32 242.57,-43.92"/>
<polygon fill="blue" stroke="blue" points="243.85,-45.12 246.11,-40.33 241.36,-42.67 243.85,-45.12"/>
<text text-anchor="middle" x="219.23" y="-101.6" font-family="Work Sans" font-size="8.00">.</text>
</g>
<!-- V83341&#45;&gt;V83384 -->
<g id="edge11" class="edge">
<title>V83341&#45;&gt;V83384</title>
<path fill="none" stroke="red" d="M213.67,-167.94C216.07,-162.33 218.77,-155.9 221.12,-150 235.53,-113.78 251.06,-71.34 260.44,-45.32"/>
<polygon fill="red" stroke="red" points="262.18,-45.63 262.23,-40.34 258.89,-44.45 262.18,-45.63"/>
<text text-anchor="middle" x="271.46" y="-101.6" font-family="Work Sans" font-size="8.00"> AFFECTED &#160;&#160;</text>
</g>
<!-- V83387 -->
<g id="node6" class="node">
<title>V83387</title>
<g id="a_node6"><a xlink:href="http://trips.ihmc.us/lexicon/data/ONT::TO-LOC.xml" xlink:title="&lt;font color=&quot;green&quot;&gt;&lt;br /&gt;&lt;/font&gt; &lt;font color=&quot;black&quot;&gt;TO&#45;LOC&lt;/font&gt; &lt;font color=&quot;green&quot;&gt;&lt;br /&gt;&lt;/font&gt; &lt;font color=&quot;red&quot;&gt;F&lt;/font&gt; &lt;font color=&quot;blue&quot;&gt;HOME&lt;/font&gt; &lt;font color=&quot;green&quot;&gt;&lt;br /&gt;&lt;/font&gt; &lt;font color=&quot;green&quot;&gt;home%4:02:01::&lt;/font&gt; &lt;font color=&quot;green&quot;&gt;&lt;br /&gt; &lt;/font&gt;">
<polygon fill="pink" stroke="transparent" stroke-width="0.5" points="313.91,-84 345.12,-84 345.12,-124 313.91,-124 313.91,-84"/>
<polygon fill="lightblue" stroke="transparent" stroke-width="0.5" points="345.12,-84 376.32,-84 376.32,-124 345.12,-124 345.12,-84"/>
<polygon fill="none" stroke="transparent" points="376.32,-124 313.91,-124 313.91,-84 376.32,-84 376.32,-124"/>
<text text-anchor="start" x="327.85" y="-110.6" font-family="Work Sans" font-size="8.00"> </text>
<text text-anchor="start" x="330.08" y="-110.6" font-family="Work Sans" font-size="8.00">TO&#45;LOC</text>
<text text-anchor="start" x="360.16" y="-110.6" font-family="Work Sans" font-size="8.00"> </text>
<text text-anchor="start" x="327.34" y="-102.6" font-family="Work Sans" font-size="8.00"> </text>
<text text-anchor="start" x="329.56" y="-102.6" font-family="Work Sans" font-size="8.00" fill="red">F</text>
<text text-anchor="start" x="334.45" y="-102.6" font-family="Work Sans" font-size="8.00"> </text>
<text text-anchor="start" x="336.67" y="-102.6" font-family="Work Sans" font-size="8.00" fill="blue">HOME</text>
<text text-anchor="start" x="360.67" y="-102.6" font-family="Work Sans" font-size="8.00"> </text>
<text text-anchor="start" x="313.76" y="-94.6" font-family="Work Sans" font-size="8.00"> </text>
<text text-anchor="start" x="315.99" y="-94.6" font-family="Work Sans" font-size="8.00" fill="green">home%4:02:01::</text>
<text text-anchor="start" x="374.25" y="-94.6" font-family="Work Sans" font-size="8.00"> </text>
<text text-anchor="start" x="344.01" y="-86.6" font-family="Work Sans" font-size="8.00" fill="green"> </text>
</a>
</g>
</g>
<!-- V83341&#45;&gt;V83387 -->
<g id="edge1" class="edge">
<title>V83341&#45;&gt;V83387</title>
<path fill="none" stroke="blue" d="M229.91,-170.12C251.45,-157.94 284.13,-139.47 309.19,-125.31"/>
<polygon fill="blue" stroke="blue" points="310.28,-126.7 313.77,-122.72 308.56,-123.65 310.28,-126.7"/>
<text text-anchor="middle" x="277.23" y="-143.6" font-family="Work Sans" font-size="8.00">.</text>
</g>
<!-- V83341&#45;&gt;V83387 -->
<g id="edge2" class="edge">
<title>V83341&#45;&gt;V83387</title>
<path fill="none" stroke="red" d="M230.02,-174.35C245.19,-168.28 265.3,-159.57 282.12,-150 293.87,-143.31 306.12,-134.92 316.66,-127.21"/>
<polygon fill="red" stroke="red" points="317.78,-128.56 320.76,-124.18 315.7,-125.75 317.78,-128.56"/>
<text text-anchor="middle" x="314.98" y="-143.6" font-family="Work Sans" font-size="8.00"> RESULT &#160;&#160;</text>
</g>
<!-- V83312&#45;&gt;V83341 -->
<g id="edge3" class="edge">
<title>V83312&#45;&gt;V83341</title>
<path fill="none" stroke="grey" stroke-width="0.5" d="M69.07,-124.01C80.9,-132.76 95.68,-142.78 110,-150 132.43,-161.31 159.62,-170.17 179.52,-175.85"/>
<polygon fill="grey" stroke="grey" stroke-width="0.5" points="179.13,-177.56 184.42,-177.23 180.08,-174.19 179.13,-177.56"/>
<text text-anchor="middle" x="129.67" y="-143.6" font-family="Work Sans" font-size="8.00"> FIGURE &#160;&#160;</text>
</g>
<!-- V83387&#45;&gt;V83384 -->
<g id="edge9" class="edge">
<title>V83387&#45;&gt;V83384</title>
<path fill="none" stroke="red" d="M313.67,-88.5C299.02,-81.15 283.79,-72.44 279,-66 274.67,-60.16 272.17,-52.8 270.75,-45.74"/>
<polygon fill="red" stroke="red" points="272.41,-45.06 269.85,-40.42 268.95,-45.64 272.41,-45.06"/>
<text text-anchor="middle" x="298.67" y="-59.6" font-family="Work Sans" font-size="8.00"> FIGURE &#160;&#160;</text>
</g>
<!-- V83387&#45;&gt;V83384 -->
<g id="edge12" class="edge">
<title>V83387&#45;&gt;V83384</title>
<path fill="none" stroke="blue" d="M335.82,-83.95C331.17,-75.49 325.06,-65.72 318.12,-58 313.2,-52.53 307.36,-47.31 301.47,-42.62"/>
<polygon fill="blue" stroke="blue" points="302.41,-41.13 297.39,-39.45 300.27,-43.9 302.41,-41.13"/>
<text text-anchor="middle" x="325.23" y="-59.6" font-family="Work Sans" font-size="8.00">.</text>
</g>
<!-- V83470 -->
<g id="node7" class="node">
<title>V83470</title>
<g id="a_node7"><a xlink:href="http://trips.ihmc.us/lexicon/data/ONT::RELATIVE-LOCATION.xml" xlink:title="&lt;font color=&quot;green&quot;&gt;&lt;br /&gt;&lt;/font&gt; &lt;font color=&quot;black&quot;&gt;RELATIVE&#45;LOCATION&lt;/font&gt; &lt;font color=&quot;green&quot;&gt;&lt;br /&gt;&lt;/font&gt; &lt;font color=&quot;red&quot;&gt;IMPRO&lt;/font&gt; &lt;font color=&quot;blue&quot;&gt;* &lt;/font&gt; &lt;font color=&quot;green&quot;&gt;&lt;br /&gt; &lt;/font&gt;">
<text text-anchor="start" x="330.37" y="-22.6" font-family="Work Sans" font-size="8.00"> </text>
<text text-anchor="start" x="332.59" y="-22.6" font-family="Work Sans" font-size="8.00">RELATIVE&#45;LOCATION</text>
<text text-anchor="start" x="413.65" y="-22.6" font-family="Work Sans" font-size="8.00"> </text>
<text text-anchor="start" x="354" y="-14.6" font-family="Work Sans" font-size="8.00"> </text>
<text text-anchor="start" x="356.23" y="-14.6" font-family="Work Sans" font-size="8.00" fill="red">IMPRO</text>
<text text-anchor="start" x="382.45" y="-14.6" font-family="Work Sans" font-size="8.00"> </text>
<text text-anchor="start" x="384.67" y="-14.6" font-family="Work Sans" font-size="8.00" fill="blue">* </text>
<text text-anchor="start" x="390.01" y="-14.6" font-family="Work Sans" font-size="8.00"> </text>
<text text-anchor="start" x="372.01" y="-6.6" font-family="Work Sans" font-size="8.00" fill="green"> </text>
</a>
</g>
</g>
<!-- V83387&#45;&gt;V83470 -->
<g id="edge4" class="edge">
<title>V83387&#45;&gt;V83470</title>
<path fill="none" stroke="red" d="M351.61,-83.98C356,-71.12 361.8,-54.15 366.26,-41.07"/>
<polygon fill="red" stroke="red" points="368.01,-41.39 367.97,-36.09 364.69,-40.25 368.01,-41.39"/>
<text text-anchor="middle" x="381.34" y="-59.6" font-family="Work Sans" font-size="8.00"> GROUND &#160;&#160;</text>
</g>
<!-- V83387&#45;&gt;V83470 -->
<g id="edge7" class="edge">
<title>V83387&#45;&gt;V83470</title>
<path fill="none" stroke="blue" d="M376.62,-92C388.35,-86.2 400.43,-77.77 407.12,-66 412.27,-56.93 407.24,-47.61 399.61,-39.82"/>
<polygon fill="blue" stroke="blue" points="400.53,-38.29 395.7,-36.13 398.14,-40.83 400.53,-38.29"/>
<text text-anchor="middle" x="410.23" y="-59.6" font-family="Work Sans" font-size="8.00">.</text>
</g>
</g>
</svg>
