<?xml version="1.0" encoding="UTF-8" standalone="no"?>
<!DOCTYPE svg PUBLIC "-//W3C//DTD SVG 1.1//EN"
 "http://www.w3.org/Graphics/SVG/1.1/DTD/svg11.dtd">
<!-- Generated by graphviz version 2.43.0 (0)
 -->
<!-- Title: graph Pages: 1 -->
<svg width="396pt" height="368pt"
 viewBox="0.00 0.00 395.95 368.00" xmlns="http://www.w3.org/2000/svg" xmlns:xlink="http://www.w3.org/1999/xlink">
<g id="graph0" class="graph" transform="scale(1 1) rotate(0) translate(4 364)">
<title>graph</title>
<polygon fill="white" stroke="transparent" points="-4,4 -4,-364 391.95,-364 391.95,4 -4,4"/>
<!-- V59103 -->
<g id="node1" class="node">
<title>V59103</title>
<g id="a_node1"><a xlink:href="http://trips.ihmc.us/lexicon/data/ONT::SA_TELL.xml" xlink:title="&lt;font color=&quot;green&quot;&gt;&lt;br /&gt;&lt;/font&gt; &lt;font color=&quot;black&quot;&gt;SA_TELL&lt;/font&gt; &lt;font color=&quot;green&quot;&gt;&lt;br /&gt;&lt;/font&gt; &lt;font color=&quot;red&quot;&gt;SPEECHACT&lt;/font&gt; &lt;font color=&quot;blue&quot;&gt;* &lt;/font&gt; &lt;font color=&quot;green&quot;&gt;&lt;br /&gt; &lt;/font&gt;">
<text text-anchor="start" x="211.93" y="-346.6" font-family="Work Sans" font-size="8.00"> </text>
<text text-anchor="start" x="214.15" y="-346.6" font-family="Work Sans" font-size="8.00">SA_TELL</text>
<text text-anchor="start" x="248.4" y="-346.6" font-family="Work Sans" font-size="8.00"> </text>
<text text-anchor="start" x="200.82" y="-338.6" font-family="Work Sans" font-size="8.00"> </text>
<text text-anchor="start" x="203.05" y="-338.6" font-family="Work Sans" font-size="8.00" fill="red">SPEECHACT</text>
<text text-anchor="start" x="251.95" y="-338.6" font-family="Work Sans" font-size="8.00"> </text>
<text text-anchor="start" x="254.17" y="-338.6" font-family="Work Sans" font-size="8.00" fill="blue">* </text>
<text text-anchor="start" x="259.5" y="-338.6" font-family="Work Sans" font-size="8.00"> </text>
<text text-anchor="start" x="230.16" y="-330.6" font-family="Work Sans" font-size="8.00" fill="green"> </text>
</a>
</g>
</g>
<!-- V58558 -->
<g id="node2" class="node">
<title>V58558</title>
<g id="a_node2"><a xlink:href="http://trips.ihmc.us/lexicon/data/ONT::EVENT-OF-CAUSATION.xml" xlink:title="&lt;font color=&quot;green&quot;&gt;&lt;br /&gt;&lt;/font&gt; &lt;font color=&quot;black&quot;&gt;EVENT&#45;OF&#45;CAUSATION&lt;/font&gt; &lt;font color=&quot;green&quot;&gt;&lt;br /&gt;&lt;/font&gt; &lt;font color=&quot;red&quot;&gt;F&lt;/font&gt; &lt;font color=&quot;blue&quot;&gt;* &lt;/font&gt; &lt;font color=&quot;green&quot;&gt;&lt;br /&gt; &lt;/font&gt;">
<polygon fill="pink" stroke="transparent" stroke-width="0.5" points="184.58,-252 231.28,-252 231.28,-284 184.58,-284 184.58,-252"/>
<polygon fill="lightblue" stroke="transparent" stroke-width="0.5" points="231.28,-252 277.97,-252 277.97,-284 231.28,-284 231.28,-252"/>
<polygon fill="none" stroke="transparent" points="277.97,-284 184.58,-284 184.58,-252 277.97,-252 277.97,-284"/>
<text text-anchor="start" x="184.68" y="-270.6" font-family="Work Sans" font-size="8.00"> </text>
<text text-anchor="start" x="186.9" y="-270.6" font-family="Work Sans" font-size="8.00">EVENT&#45;OF&#45;CAUSATION</text>
<text text-anchor="start" x="275.65" y="-270.6" font-family="Work Sans" font-size="8.00"> </text>
<text text-anchor="start" x="222.83" y="-262.6" font-family="Work Sans" font-size="8.00"> </text>
<text text-anchor="start" x="225.05" y="-262.6" font-family="Work Sans" font-size="8.00" fill="red">F</text>
<text text-anchor="start" x="229.94" y="-262.6" font-family="Work Sans" font-size="8.00"> </text>
<text text-anchor="start" x="232.16" y="-262.6" font-family="Work Sans" font-size="8.00" fill="blue">* </text>
<text text-anchor="start" x="237.5" y="-262.6" font-family="Work Sans" font-size="8.00"> </text>
<text text-anchor="start" x="230.16" y="-254.6" font-family="Work Sans" font-size="8.00" fill="green"> </text>
</a>
</g>
</g>
<!-- V59103&#45;&gt;V58558 -->
<g id="edge5" class="edge">
<title>V59103&#45;&gt;V58558</title>
<path fill="none" stroke="grey" stroke-width="0.5" d="M231.28,-327.67C231.28,-316.58 231.28,-301.49 231.28,-289.38"/>
<polygon fill="grey" stroke="grey" stroke-width="0.5" points="233.03,-289.06 231.28,-284.06 229.53,-289.06 233.03,-289.06"/>
<text text-anchor="middle" x="254.98" y="-303.6" font-family="Work Sans" font-size="8.00"> CONTENT &#160;&#160;</text>
</g>
<!-- V58453 -->
<g id="node3" class="node">
<title>V58453</title>
<g id="a_node3"><a xlink:href="http://trips.ihmc.us/lexicon/data/ONT::HITTING.xml" xlink:title="&lt;font color=&quot;green&quot;&gt;&lt;br /&gt;&lt;/font&gt; &lt;font color=&quot;black&quot;&gt;HITTING&lt;/font&gt; &lt;font color=&quot;green&quot;&gt;&lt;br /&gt;&lt;/font&gt; &lt;font color=&quot;red&quot;&gt;F&lt;/font&gt; &lt;font color=&quot;blue&quot;&gt;HIT&lt;/font&gt; &lt;font color=&quot;green&quot;&gt;&lt;br /&gt;&lt;/font&gt; &lt;font color=&quot;green&quot;&gt;hit%2:35:03::&lt;/font&gt; &lt;font color=&quot;green&quot;&gt;&lt;br /&gt; &lt;/font&gt;">
<text text-anchor="start" x="148.05" y="-194.6" font-family="Work Sans" font-size="8.00"> </text>
<text text-anchor="start" x="150.28" y="-194.6" font-family="Work Sans" font-size="8.00">HITTING</text>
<text text-anchor="start" x="182.27" y="-194.6" font-family="Work Sans" font-size="8.00"> </text>
<text text-anchor="start" x="154.05" y="-186.6" font-family="Work Sans" font-size="8.00"> </text>
<text text-anchor="start" x="156.28" y="-186.6" font-family="Work Sans" font-size="8.00" fill="red">F</text>
<text text-anchor="start" x="161.16" y="-186.6" font-family="Work Sans" font-size="8.00"> </text>
<text text-anchor="start" x="163.39" y="-186.6" font-family="Work Sans" font-size="8.00" fill="blue">HIT</text>
<text text-anchor="start" x="176.27" y="-186.6" font-family="Work Sans" font-size="8.00"> </text>
<text text-anchor="start" x="140.7" y="-178.6" font-family="Work Sans" font-size="8.00"> </text>
<text text-anchor="start" x="142.93" y="-178.6" font-family="Work Sans" font-size="8.00" fill="green">hit%2:35:03::</text>
<text text-anchor="start" x="189.62" y="-178.6" font-family="Work Sans" font-size="8.00"> </text>
<text text-anchor="start" x="165.16" y="-170.6" font-family="Work Sans" font-size="8.00" fill="green"> </text>
</a>
</g>
</g>
<!-- V58558&#45;&gt;V58453 -->
<g id="edge3" class="edge">
<title>V58558&#45;&gt;V58453</title>
<path fill="none" stroke="blue" d="M194.18,-251.96C186.49,-247.26 179.17,-241.33 174.05,-234 169.93,-228.09 167.75,-220.71 166.66,-213.65"/>
<polygon fill="blue" stroke="blue" points="168.36,-213.09 166.02,-208.34 164.88,-213.51 168.36,-213.09"/>
<text text-anchor="middle" x="175.39" y="-227.6" font-family="Work Sans" font-size="8.00">.</text>
</g>
<!-- V58558&#45;&gt;V58453 -->
<g id="edge8" class="edge">
<title>V58558&#45;&gt;V58453</title>
<path fill="none" stroke="red" d="M210.47,-251.8C204.11,-246.58 197.4,-240.42 192.04,-234 186.79,-227.71 182.01,-220.21 178.04,-213.15"/>
<polygon fill="red" stroke="red" points="179.36,-211.9 175.42,-208.35 176.28,-213.58 179.36,-211.9"/>
<text text-anchor="middle" x="221.39" y="-227.6" font-family="Work Sans" font-size="8.00"> SEQUENCE1 &#160;&#160;</text>
</g>
<!-- V58431 -->
<g id="node4" class="node">
<title>V58431</title>
<g id="a_node4"><a xlink:href="http://trips.ihmc.us/lexicon/data/ONT::FALL.xml" xlink:title="&lt;font color=&quot;green&quot;&gt;&lt;br /&gt;&lt;/font&gt; &lt;font color=&quot;black&quot;&gt;FALL&lt;/font&gt; &lt;font color=&quot;green&quot;&gt;&lt;br /&gt;&lt;/font&gt; &lt;font color=&quot;red&quot;&gt;F&lt;/font&gt; &lt;font color=&quot;blue&quot;&gt;FALL&lt;/font&gt; &lt;font color=&quot;green&quot;&gt;&lt;br /&gt;&lt;/font&gt; &lt;font color=&quot;green&quot;&gt;fall%2:38:03::&lt;/font&gt; &lt;font color=&quot;green&quot;&gt;&lt;br /&gt; &lt;/font&gt;">
<text text-anchor="start" x="337.71" y="-194.6" font-family="Work Sans" font-size="8.00"> </text>
<text text-anchor="start" x="339.93" y="-194.6" font-family="Work Sans" font-size="8.00">FALL</text>
<text text-anchor="start" x="358.62" y="-194.6" font-family="Work Sans" font-size="8.00"> </text>
<text text-anchor="start" x="334.16" y="-186.6" font-family="Work Sans" font-size="8.00"> </text>
<text text-anchor="start" x="336.38" y="-186.6" font-family="Work Sans" font-size="8.00" fill="red">F</text>
<text text-anchor="start" x="341.27" y="-186.6" font-family="Work Sans" font-size="8.00"> </text>
<text text-anchor="start" x="343.49" y="-186.6" font-family="Work Sans" font-size="8.00" fill="blue">FALL</text>
<text text-anchor="start" x="362.17" y="-186.6" font-family="Work Sans" font-size="8.00"> </text>
<text text-anchor="start" x="322.81" y="-178.6" font-family="Work Sans" font-size="8.00"> </text>
<text text-anchor="start" x="325.04" y="-178.6" font-family="Work Sans" font-size="8.00" fill="green">fall%2:38:03::</text>
<text text-anchor="start" x="373.51" y="-178.6" font-family="Work Sans" font-size="8.00"> </text>
<text text-anchor="start" x="348.16" y="-170.6" font-family="Work Sans" font-size="8.00" fill="green"> </text>
</a>
</g>
</g>
<!-- V58558&#45;&gt;V58431 -->
<g id="edge4" class="edge">
<title>V58558&#45;&gt;V58431</title>
<path fill="none" stroke="red" d="M244.73,-251.74C252.56,-243.45 262.95,-233.4 273.49,-226 287.16,-216.39 303.7,-208 317.83,-201.65"/>
<polygon fill="red" stroke="red" points="318.66,-203.2 322.53,-199.57 317.25,-199.99 318.66,-203.2"/>
<text text-anchor="middle" x="300.17" y="-227.6" font-family="Work Sans" font-size="8.00"> SEQUENCE &#160;&#160;</text>
</g>
<!-- V58558&#45;&gt;V58431 -->
<g id="edge10" class="edge">
<title>V58558&#45;&gt;V58431</title>
<path fill="none" stroke="blue" d="M278.09,-258.75C295.12,-253.86 313.54,-246.14 327.28,-234 333.64,-228.37 338.36,-220.49 341.75,-212.88"/>
<polygon fill="blue" stroke="blue" points="343.39,-213.5 343.69,-208.21 340.16,-212.15 343.39,-213.5"/>
<text text-anchor="middle" x="334.39" y="-227.6" font-family="Work Sans" font-size="8.00">.</text>
</g>
<!-- V58420 -->
<g id="node5" class="node">
<title>V58420</title>
<g id="a_node5"><a xlink:href="http://trips.ihmc.us/lexicon/data/ONT::MALE-PERSON.xml" xlink:title="&lt;font color=&quot;green&quot;&gt;&lt;br /&gt;&lt;/font&gt; &lt;font color=&quot;black&quot;&gt;MALE&#45;PERSON&lt;/font&gt; &lt;font color=&quot;green&quot;&gt;&lt;br /&gt;&lt;/font&gt; &lt;font color=&quot;red&quot;&gt;PRO&lt;/font&gt; &lt;font color=&quot;blue&quot;&gt;HE&lt;/font&gt; &lt;font color=&quot;green&quot;&gt;&lt;br /&gt;&lt;/font&gt; &lt;font color=&quot;green&quot;&gt;man%1:18:00&lt;/font&gt; &lt;font color=&quot;green&quot;&gt;&lt;br /&gt; &lt;/font&gt;">
<text text-anchor="start" x="292.94" y="-110.6" font-family="Work Sans" font-size="8.00"> </text>
<text text-anchor="start" x="295.16" y="-110.6" font-family="Work Sans" font-size="8.00">MALE&#45;PERSON</text>
<text text-anchor="start" x="353.39" y="-110.6" font-family="Work Sans" font-size="8.00"> </text>
<text text-anchor="start" x="306.72" y="-102.6" font-family="Work Sans" font-size="8.00"> </text>
<text text-anchor="start" x="308.94" y="-102.6" font-family="Work Sans" font-size="8.00" fill="red">PRO</text>
<text text-anchor="start" x="326.28" y="-102.6" font-family="Work Sans" font-size="8.00"> </text>
<text text-anchor="start" x="328.5" y="-102.6" font-family="Work Sans" font-size="8.00" fill="blue">HE</text>
<text text-anchor="start" x="339.61" y="-102.6" font-family="Work Sans" font-size="8.00"> </text>
<text text-anchor="start" x="297.37" y="-94.6" font-family="Work Sans" font-size="8.00"> </text>
<text text-anchor="start" x="299.59" y="-94.6" font-family="Work Sans" font-size="8.00" fill="green">man%1:18:00</text>
<text text-anchor="start" x="348.96" y="-94.6" font-family="Work Sans" font-size="8.00"> </text>
<text text-anchor="start" x="323.16" y="-86.6" font-family="Work Sans" font-size="8.00" fill="green"> </text>
</a>
</g>
</g>
<!-- V58453&#45;&gt;V58420 -->
<g id="edge12" class="edge">
<title>V58453&#45;&gt;V58420</title>
<path fill="none" stroke="grey" stroke-width="0.5" d="M192.09,-177.92C210.42,-171.1 235.38,-161.08 256.28,-150 268.98,-143.27 282.3,-134.8 293.75,-127.03"/>
<polygon fill="grey" stroke="grey" stroke-width="0.5" points="294.74,-128.47 297.88,-124.2 292.77,-125.58 294.74,-128.47"/>
<text text-anchor="middle" x="287.21" y="-143.6" font-family="Work Sans" font-size="8.00"> AGENT &#160;&#160;</text>
</g>
<!-- V58475 -->
<g id="node6" class="node">
<title>V58475</title>
<g id="a_node6"><a xlink:href="http://trips.ihmc.us/lexicon/data/ONT::EXTERNAL-BODY-PART.xml" xlink:title="&lt;font color=&quot;green&quot;&gt;&lt;br /&gt;&lt;/font&gt; &lt;font color=&quot;black&quot;&gt;EXTERNAL&#45;BODY&#45;PART&lt;/font&gt; &lt;font color=&quot;green&quot;&gt;&lt;br /&gt;&lt;/font&gt; &lt;font color=&quot;red&quot;&gt;THE&lt;/font&gt; &lt;font color=&quot;blue&quot;&gt;HEAD&lt;/font&gt; &lt;font color=&quot;green&quot;&gt;&lt;br /&gt;&lt;/font&gt; &lt;font color=&quot;green&quot;&gt;head%1:17:01::&lt;/font&gt; &lt;font color=&quot;green&quot;&gt;&lt;br /&gt; &lt;/font&gt;">
<polygon fill="pink" stroke="transparent" stroke-width="0.5" points="0.22,-84 47.28,-84 47.28,-124 0.22,-124 0.22,-84"/>
<polygon fill="lightblue" stroke="transparent" stroke-width="0.5" points="47.28,-84 94.33,-84 94.33,-124 47.28,-124 47.28,-84"/>
<polygon fill="none" stroke="transparent" points="94.33,-124 0.22,-124 0.22,-84 94.33,-84 94.33,-124"/>
<text text-anchor="start" x="0" y="-110.6" font-family="Work Sans" font-size="8.00"> </text>
<text text-anchor="start" x="2.22" y="-110.6" font-family="Work Sans" font-size="8.00">EXTERNAL&#45;BODY&#45;PART</text>
<text text-anchor="start" x="92.33" y="-110.6" font-family="Work Sans" font-size="8.00"> </text>
<text text-anchor="start" x="24.83" y="-102.6" font-family="Work Sans" font-size="8.00"> </text>
<text text-anchor="start" x="27.05" y="-102.6" font-family="Work Sans" font-size="8.00" fill="red">THE</text>
<text text-anchor="start" x="43.05" y="-102.6" font-family="Work Sans" font-size="8.00"> </text>
<text text-anchor="start" x="45.27" y="-102.6" font-family="Work Sans" font-size="8.00" fill="blue">HEAD</text>
<text text-anchor="start" x="67.5" y="-102.6" font-family="Work Sans" font-size="8.00"> </text>
<text text-anchor="start" x="17.03" y="-94.6" font-family="Work Sans" font-size="8.00"> </text>
<text text-anchor="start" x="19.25" y="-94.6" font-family="Work Sans" font-size="8.00" fill="green">head%1:17:01::</text>
<text text-anchor="start" x="75.3" y="-94.6" font-family="Work Sans" font-size="8.00"> </text>
<text text-anchor="start" x="46.16" y="-86.6" font-family="Work Sans" font-size="8.00" fill="green"> </text>
</a>
</g>
</g>
<!-- V58453&#45;&gt;V58475 -->
<g id="edge11" class="edge">
<title>V58453&#45;&gt;V58475</title>
<path fill="none" stroke="grey" stroke-width="0.5" d="M140.42,-177.61C124.61,-171.19 104.46,-161.72 88.6,-150 80.25,-143.83 72.24,-135.8 65.54,-128.24"/>
<polygon fill="grey" stroke="grey" stroke-width="0.5" points="66.55,-126.73 61.96,-124.1 63.9,-129.02 66.55,-126.73"/>
<text text-anchor="middle" x="114.61" y="-143.6" font-family="Work Sans" font-size="8.00"> AFFECTED &#160;&#160;</text>
</g>
<!-- V58489 -->
<g id="node8" class="node">
<title>V58489</title>
<g id="a_node8"><a xlink:href="http://trips.ihmc.us/lexicon/data/ONT::ON.xml" xlink:title="&lt;font color=&quot;green&quot;&gt;&lt;br /&gt;&lt;/font&gt; &lt;font color=&quot;black&quot;&gt;ON&lt;/font&gt; &lt;font color=&quot;green&quot;&gt;&lt;br /&gt;&lt;/font&gt; &lt;font color=&quot;red&quot;&gt;F&lt;/font&gt; &lt;font color=&quot;blue&quot;&gt;ON&lt;/font&gt; &lt;font color=&quot;green&quot;&gt;&lt;br /&gt; &lt;/font&gt;">
<polygon fill="pink" stroke="transparent" stroke-width="0.5" points="151.72,-88 163.28,-88 163.28,-120 151.72,-120 151.72,-88"/>
<polygon fill="lightblue" stroke="transparent" stroke-width="0.5" points="163.28,-88 174.83,-88 174.83,-120 163.28,-120 163.28,-88"/>
<polygon fill="none" stroke="transparent" points="174.83,-120 151.72,-120 151.72,-88 174.83,-88 174.83,-120"/>
<text text-anchor="start" x="155.05" y="-106.6" font-family="Work Sans" font-size="8.00"> </text>
<text text-anchor="start" x="157.28" y="-106.6" font-family="Work Sans" font-size="8.00">ON</text>
<text text-anchor="start" x="169.28" y="-106.6" font-family="Work Sans" font-size="8.00"> </text>
<text text-anchor="start" x="151.5" y="-98.6" font-family="Work Sans" font-size="8.00"> </text>
<text text-anchor="start" x="153.72" y="-98.6" font-family="Work Sans" font-size="8.00" fill="red">F</text>
<text text-anchor="start" x="158.61" y="-98.6" font-family="Work Sans" font-size="8.00"> </text>
<text text-anchor="start" x="160.83" y="-98.6" font-family="Work Sans" font-size="8.00" fill="blue">ON</text>
<text text-anchor="start" x="172.83" y="-98.6" font-family="Work Sans" font-size="8.00"> </text>
<text text-anchor="start" x="162.16" y="-90.6" font-family="Work Sans" font-size="8.00" fill="green"> </text>
</a>
</g>
</g>
<!-- V58453&#45;&gt;V58489 -->
<g id="edge1" class="edge">
<title>V58453&#45;&gt;V58489</title>
<path fill="none" stroke="blue" d="M152.17,-167.94C148.85,-162.42 145.77,-156.21 144.05,-150 141.65,-141.32 144.53,-132.12 148.73,-124.31"/>
<polygon fill="blue" stroke="blue" points="150.45,-124.84 151.49,-119.64 147.44,-123.06 150.45,-124.84"/>
<text text-anchor="middle" x="145.39" y="-143.6" font-family="Work Sans" font-size="8.00">.</text>
</g>
<!-- V58453&#45;&gt;V58489 -->
<g id="edge2" class="edge">
<title>V58453&#45;&gt;V58489</title>
<path fill="none" stroke="red" d="M163.69,-167.83C163.02,-162.11 162.41,-155.81 162.08,-150 161.62,-141.89 161.73,-132.94 162.03,-125.17"/>
<polygon fill="red" stroke="red" points="163.78,-125.08 162.25,-120.01 160.29,-124.93 163.78,-125.08"/>
<text text-anchor="middle" x="186.87" y="-143.6" font-family="Work Sans" font-size="8.00"> LOCATION &#160;&#160;</text>
</g>
<!-- V58431&#45;&gt;V58420 -->
<g id="edge6" class="edge">
<title>V58431&#45;&gt;V58420</title>
<path fill="none" stroke="grey" stroke-width="0.5" d="M343.48,-167.98C339.94,-156.37 335.38,-141.42 331.59,-129"/>
<polygon fill="grey" stroke="grey" stroke-width="0.5" points="333.26,-128.47 330.13,-124.2 329.91,-129.49 333.26,-128.47"/>
<text text-anchor="middle" x="362.61" y="-143.6" font-family="Work Sans" font-size="8.00"> AFFECTED &#160;&#160;</text>
</g>
<!-- V58467 -->
<g id="node7" class="node">
<title>V58467</title>
<g id="a_node7"><a xlink:href="http://trips.ihmc.us/lexicon/data/ONT::MALE-PERSON.xml" xlink:title="&lt;font color=&quot;green&quot;&gt;&lt;br /&gt;&lt;/font&gt; &lt;font color=&quot;black&quot;&gt;MALE&#45;PERSON&lt;/font&gt; &lt;font color=&quot;green&quot;&gt;&lt;br /&gt;&lt;/font&gt; &lt;font color=&quot;red&quot;&gt;PRO&lt;/font&gt; &lt;font color=&quot;blue&quot;&gt;HIS&lt;/font&gt; &lt;font color=&quot;green&quot;&gt;&lt;br /&gt;&lt;/font&gt; &lt;font color=&quot;green&quot;&gt;man%1:18:00&lt;/font&gt; &lt;font color=&quot;green&quot;&gt;&lt;br /&gt; &lt;/font&gt;">
<text text-anchor="start" x="9.94" y="-26.6" font-family="Work Sans" font-size="8.00"> </text>
<text text-anchor="start" x="12.16" y="-26.6" font-family="Work Sans" font-size="8.00">MALE&#45;PERSON</text>
<text text-anchor="start" x="70.39" y="-26.6" font-family="Work Sans" font-size="8.00"> </text>
<text text-anchor="start" x="22.61" y="-18.6" font-family="Work Sans" font-size="8.00"> </text>
<text text-anchor="start" x="24.83" y="-18.6" font-family="Work Sans" font-size="8.00" fill="red">PRO</text>
<text text-anchor="start" x="42.16" y="-18.6" font-family="Work Sans" font-size="8.00"> </text>
<text text-anchor="start" x="44.39" y="-18.6" font-family="Work Sans" font-size="8.00" fill="blue">HIS</text>
<text text-anchor="start" x="57.72" y="-18.6" font-family="Work Sans" font-size="8.00"> </text>
<text text-anchor="start" x="14.37" y="-10.6" font-family="Work Sans" font-size="8.00"> </text>
<text text-anchor="start" x="16.59" y="-10.6" font-family="Work Sans" font-size="8.00" fill="green">man%1:18:00</text>
<text text-anchor="start" x="65.96" y="-10.6" font-family="Work Sans" font-size="8.00"> </text>
<text text-anchor="start" x="40.16" y="-2.6" font-family="Work Sans" font-size="8.00" fill="green"> </text>
</a>
</g>
</g>
<!-- V58475&#45;&gt;V58467 -->
<g id="edge13" class="edge">
<title>V58475&#45;&gt;V58467</title>
<path fill="none" stroke="grey" stroke-width="0.5" d="M45.88,-83.98C45.04,-72.47 43.96,-57.68 43.06,-45.33"/>
<polygon fill="grey" stroke="grey" stroke-width="0.5" points="44.79,-45.06 42.68,-40.2 41.3,-45.31 44.79,-45.06"/>
<text text-anchor="middle" x="75.95" y="-59.6" font-family="Work Sans" font-size="8.00"> ASSOC&#45;POSS &#160;&#160;</text>
</g>
<!-- V58489&#45;&gt;V58453 -->
<g id="edge9" class="edge">
<title>V58489&#45;&gt;V58453</title>
<path fill="none" stroke="grey" stroke-width="0.5" d="M174.9,-110.12C186.53,-115.95 203.75,-126.7 211.28,-142 217.05,-153.74 207.85,-164.25 196.29,-172.16"/>
<polygon fill="grey" stroke="grey" stroke-width="0.5" points="195.21,-170.77 191.95,-174.95 197.1,-173.72 195.21,-170.77"/>
<text text-anchor="middle" x="232.83" y="-143.6" font-family="Work Sans" font-size="8.00"> FIGURE &#160;&#160;</text>
</g>
<!-- V58519 -->
<g id="node9" class="node">
<title>V58519</title>
<g id="a_node9"><a xlink:href="http://trips.ihmc.us/lexicon/data/ONT::STRUCTURE-INTERNAL-COMPONENT.xml" xlink:title="&lt;font color=&quot;green&quot;&gt;&lt;br /&gt;&lt;/font&gt; &lt;font color=&quot;black&quot;&gt;STRUCTURE&#45;INTERNAL&#45;COMPONENT&lt;/font&gt; &lt;font color=&quot;green&quot;&gt;&lt;br /&gt;&lt;/font&gt; &lt;font color=&quot;red&quot;&gt;THE&lt;/font&gt; &lt;font color=&quot;blue&quot;&gt;FLOOR&lt;/font&gt; &lt;font color=&quot;green&quot;&gt;&lt;br /&gt;&lt;/font&gt; &lt;font color=&quot;green&quot;&gt;floor%1:06:00::&lt;/font&gt; &lt;font color=&quot;green&quot;&gt;&lt;br /&gt; &lt;/font&gt;">
<text text-anchor="start" x="90.94" y="-26.6" font-family="Work Sans" font-size="8.00"> </text>
<text text-anchor="start" x="93.16" y="-26.6" font-family="Work Sans" font-size="8.00">STRUCTURE&#45;INTERNAL&#45;COMPONENT</text>
<text text-anchor="start" x="239.39" y="-26.6" font-family="Work Sans" font-size="8.00"> </text>
<text text-anchor="start" x="141.16" y="-18.6" font-family="Work Sans" font-size="8.00"> </text>
<text text-anchor="start" x="143.38" y="-18.6" font-family="Work Sans" font-size="8.00" fill="red">THE</text>
<text text-anchor="start" x="159.38" y="-18.6" font-family="Work Sans" font-size="8.00"> </text>
<text text-anchor="start" x="161.61" y="-18.6" font-family="Work Sans" font-size="8.00" fill="blue">FLOOR</text>
<text text-anchor="start" x="189.17" y="-18.6" font-family="Work Sans" font-size="8.00"> </text>
<text text-anchor="start" x="137.15" y="-10.6" font-family="Work Sans" font-size="8.00"> </text>
<text text-anchor="start" x="139.37" y="-10.6" font-family="Work Sans" font-size="8.00" fill="green">floor%1:06:00::</text>
<text text-anchor="start" x="193.18" y="-10.6" font-family="Work Sans" font-size="8.00"> </text>
<text text-anchor="start" x="165.16" y="-2.6" font-family="Work Sans" font-size="8.00" fill="green"> </text>
</a>
</g>
</g>
<!-- V58489&#45;&gt;V58519 -->
<g id="edge7" class="edge">
<title>V58489&#45;&gt;V58519</title>
<path fill="none" stroke="grey" stroke-width="0.5" d="M163.83,-87.96C164.26,-76.12 164.87,-59.38 165.38,-45.6"/>
<polygon fill="grey" stroke="grey" stroke-width="0.5" points="167.14,-45.35 165.57,-40.29 163.64,-45.22 167.14,-45.35"/>
<text text-anchor="middle" x="187.5" y="-59.6" font-family="Work Sans" font-size="8.00"> GROUND &#160;&#160;</text>
</g>
</g>
</svg>
