<?xml version="1.0" encoding="UTF-8" standalone="no"?>
<!DOCTYPE svg PUBLIC "-//W3C//DTD SVG 1.1//EN"
 "http://www.w3.org/Graphics/SVG/1.1/DTD/svg11.dtd">
<!-- Generated by graphviz version 2.43.0 (0)
 -->
<!-- Title: graph Pages: 1 -->
<svg width="371pt" height="292pt"
 viewBox="0.00 0.00 371.40 292.00" xmlns="http://www.w3.org/2000/svg" xmlns:xlink="http://www.w3.org/1999/xlink">
<g id="graph0" class="graph" transform="scale(1 1) rotate(0) translate(4 288)">
<title>graph</title>
<polygon fill="white" stroke="transparent" points="-4,4 -4,-288 367.4,-288 367.4,4 -4,4"/>
<!-- V331892 -->
<g id="node1" class="node">
<title>V331892</title>
<g id="a_node1"><a xlink:href="http://trips.ihmc.us/lexicon/data/ONT::SA_TELL.xml" xlink:title="&lt;font color=&quot;green&quot;&gt;&lt;br /&gt;&lt;/font&gt; &lt;font color=&quot;black&quot;&gt;SA_TELL&lt;/font&gt; &lt;font color=&quot;green&quot;&gt;&lt;br /&gt;&lt;/font&gt; &lt;font color=&quot;red&quot;&gt;SPEECHACT&lt;/font&gt; &lt;font color=&quot;blue&quot;&gt;* &lt;/font&gt; &lt;font color=&quot;green&quot;&gt;&lt;br /&gt; &lt;/font&gt;">
<text text-anchor="start" x="173.17" y="-270.6" font-family="Work Sans" font-size="8.00"> </text>
<text text-anchor="start" x="175.39" y="-270.6" font-family="Work Sans" font-size="8.00">SA_TELL</text>
<text text-anchor="start" x="209.63" y="-270.6" font-family="Work Sans" font-size="8.00"> </text>
<text text-anchor="start" x="162.06" y="-262.6" font-family="Work Sans" font-size="8.00"> </text>
<text text-anchor="start" x="164.28" y="-262.6" font-family="Work Sans" font-size="8.00" fill="red">SPEECHACT</text>
<text text-anchor="start" x="213.18" y="-262.6" font-family="Work Sans" font-size="8.00"> </text>
<text text-anchor="start" x="215.4" y="-262.6" font-family="Work Sans" font-size="8.00" fill="blue">* </text>
<text text-anchor="start" x="220.74" y="-262.6" font-family="Work Sans" font-size="8.00"> </text>
<text text-anchor="start" x="191.4" y="-254.6" font-family="Work Sans" font-size="8.00" fill="green"> </text>
</a>
</g>
</g>
<!-- V331459 -->
<g id="node2" class="node">
<title>V331459</title>
<g id="a_node2"><a xlink:href="http://trips.ihmc.us/lexicon/data/ONT::CONJUNCT.xml" xlink:title="&lt;font color=&quot;green&quot;&gt;&lt;br /&gt;&lt;/font&gt; &lt;font color=&quot;black&quot;&gt;CONJUNCT&lt;/font&gt; &lt;font color=&quot;green&quot;&gt;&lt;br /&gt;&lt;/font&gt; &lt;font color=&quot;red&quot;&gt;F&lt;/font&gt; &lt;font color=&quot;blue&quot;&gt;BUT&lt;/font&gt; &lt;font color=&quot;green&quot;&gt;&lt;br /&gt;&lt;/font&gt; &lt;font color=&quot;green&quot;&gt;but%4:02:01::&lt;/font&gt; &lt;font color=&quot;green&quot;&gt;&lt;br /&gt; &lt;/font&gt;">
<text text-anchor="start" x="122.29" y="-194.6" font-family="Work Sans" font-size="8.00"> </text>
<text text-anchor="start" x="124.51" y="-194.6" font-family="Work Sans" font-size="8.00">CONJUNCT</text>
<text text-anchor="start" x="168.51" y="-194.6" font-family="Work Sans" font-size="8.00"> </text>
<text text-anchor="start" x="132.73" y="-186.6" font-family="Work Sans" font-size="8.00"> </text>
<text text-anchor="start" x="134.96" y="-186.6" font-family="Work Sans" font-size="8.00" fill="red">F</text>
<text text-anchor="start" x="139.84" y="-186.6" font-family="Work Sans" font-size="8.00"> </text>
<text text-anchor="start" x="142.06" y="-186.6" font-family="Work Sans" font-size="8.00" fill="blue">BUT</text>
<text text-anchor="start" x="158.06" y="-186.6" font-family="Work Sans" font-size="8.00"> </text>
<text text-anchor="start" x="119.6" y="-178.6" font-family="Work Sans" font-size="8.00"> </text>
<text text-anchor="start" x="121.82" y="-178.6" font-family="Work Sans" font-size="8.00" fill="green">but%4:02:01::</text>
<text text-anchor="start" x="171.2" y="-178.6" font-family="Work Sans" font-size="8.00"> </text>
<text text-anchor="start" x="145.4" y="-170.6" font-family="Work Sans" font-size="8.00" fill="green"> </text>
</a>
</g>
</g>
<!-- V331892&#45;&gt;V331459 -->
<g id="edge9" class="edge">
<title>V331892&#45;&gt;V331459</title>
<path fill="none" stroke="grey" stroke-width="0.5" d="M184.66,-251.65C180.59,-243.87 175.44,-234.34 170.51,-226 167.88,-221.55 164.97,-216.88 162.11,-212.4"/>
<polygon fill="grey" stroke="grey" stroke-width="0.5" points="163.45,-211.27 159.27,-208.01 160.51,-213.16 163.45,-211.27"/>
<text text-anchor="middle" x="189.29" y="-227.6" font-family="Work Sans" font-size="8.00"> MOD &#160;&#160;</text>
</g>
<!-- V331717 -->
<g id="node3" class="node">
<title>V331717</title>
<g id="a_node3"><a xlink:href="http://trips.ihmc.us/lexicon/data/ONT::SITUATION-ROOT.xml" xlink:title="&lt;font color=&quot;green&quot;&gt;&lt;br /&gt;&lt;/font&gt; &lt;font color=&quot;black&quot;&gt;SITUATION&#45;ROOT&lt;/font&gt; &lt;font color=&quot;green&quot;&gt;&lt;br /&gt;&lt;/font&gt; &lt;font color=&quot;red&quot;&gt;F&lt;/font&gt; &lt;font color=&quot;blue&quot;&gt;* &lt;/font&gt; &lt;font color=&quot;green&quot;&gt;&lt;br /&gt; &lt;/font&gt;">
<polygon fill="pink" stroke="transparent" points="279.81,-204 207.21,-204 207.21,-172 279.81,-172 279.81,-204"/>
<text text-anchor="start" x="207.36" y="-190.6" font-family="Work Sans" font-size="8.00"> </text>
<text text-anchor="start" x="209.58" y="-190.6" font-family="Work Sans" font-size="8.00">SITUATION&#45;ROOT</text>
<text text-anchor="start" x="277.44" y="-190.6" font-family="Work Sans" font-size="8.00"> </text>
<text text-anchor="start" x="235.06" y="-182.6" font-family="Work Sans" font-size="8.00"> </text>
<text text-anchor="start" x="237.29" y="-182.6" font-family="Work Sans" font-size="8.00" fill="red">F</text>
<text text-anchor="start" x="242.17" y="-182.6" font-family="Work Sans" font-size="8.00"> </text>
<text text-anchor="start" x="244.4" y="-182.6" font-family="Work Sans" font-size="8.00" fill="blue">* </text>
<text text-anchor="start" x="249.73" y="-182.6" font-family="Work Sans" font-size="8.00"> </text>
<text text-anchor="start" x="242.4" y="-174.6" font-family="Work Sans" font-size="8.00" fill="green"> </text>
</a>
</g>
</g>
<!-- V331892&#45;&gt;V331717 -->
<g id="edge6" class="edge">
<title>V331892&#45;&gt;V331717</title>
<path fill="none" stroke="grey" stroke-width="0.5" d="M202.34,-251.96C210.4,-239.63 221.88,-222.08 230.66,-208.65"/>
<polygon fill="grey" stroke="grey" stroke-width="0.5" points="232.26,-209.4 233.53,-204.26 229.33,-207.49 232.26,-209.4"/>
<text text-anchor="middle" x="242.22" y="-227.6" font-family="Work Sans" font-size="8.00"> CONTENT &#160;&#160;</text>
</g>
<!-- V331459&#45;&gt;V331892 -->
<g id="edge4" class="edge">
<title>V331459&#45;&gt;V331892</title>
<path fill="none" stroke="grey" stroke-width="0.5" d="M133.06,-208.17C128.97,-216.47 126.67,-226.07 131.4,-234 137.24,-243.79 147.09,-250.85 157.21,-255.86"/>
<polygon fill="grey" stroke="grey" stroke-width="0.5" points="156.59,-257.5 161.86,-258.02 158.06,-254.33 156.59,-257.5"/>
<text text-anchor="middle" x="151.07" y="-227.6" font-family="Work Sans" font-size="8.00"> FIGURE &#160;&#160;</text>
</g>
<!-- V331532 -->
<g id="node4" class="node">
<title>V331532</title>
<g id="a_node4"><a xlink:href="http://trips.ihmc.us/lexicon/data/ONT::DISCUSS.xml" xlink:title="&lt;font color=&quot;green&quot;&gt;&lt;br /&gt;&lt;/font&gt; &lt;font color=&quot;black&quot;&gt;DISCUSS&lt;/font&gt; &lt;font color=&quot;green&quot;&gt;&lt;br /&gt;&lt;/font&gt; &lt;font color=&quot;red&quot;&gt;F&lt;/font&gt; &lt;font color=&quot;blue&quot;&gt;TALKED&#45;ABOUT&lt;/font&gt; &lt;font color=&quot;green&quot;&gt;&lt;br /&gt;&lt;/font&gt; &lt;font color=&quot;green&quot;&gt;talk_about%2:32:00&lt;/font&gt; &lt;font color=&quot;green&quot;&gt;&lt;br /&gt; &lt;/font&gt;">
<polygon fill="pink" stroke="transparent" stroke-width="0.5" points="168.84,-84 206.51,-84 206.51,-124 168.84,-124 168.84,-84"/>
<polygon fill="lightblue" stroke="transparent" stroke-width="0.5" points="206.51,-84 244.18,-84 244.18,-124 206.51,-124 206.51,-84"/>
<polygon fill="none" stroke="transparent" points="244.18,-124 168.84,-124 168.84,-84 244.18,-84 244.18,-124"/>
<text text-anchor="start" x="186.51" y="-110.6" font-family="Work Sans" font-size="8.00"> </text>
<text text-anchor="start" x="188.73" y="-110.6" font-family="Work Sans" font-size="8.00">DISCUSS</text>
<text text-anchor="start" x="224.29" y="-110.6" font-family="Work Sans" font-size="8.00"> </text>
<text text-anchor="start" x="170.36" y="-102.6" font-family="Work Sans" font-size="8.00"> </text>
<text text-anchor="start" x="172.58" y="-102.6" font-family="Work Sans" font-size="8.00" fill="red">F</text>
<text text-anchor="start" x="177.46" y="-102.6" font-family="Work Sans" font-size="8.00"> </text>
<text text-anchor="start" x="179.69" y="-102.6" font-family="Work Sans" font-size="8.00" fill="blue">TALKED&#45;ABOUT</text>
<text text-anchor="start" x="240.44" y="-102.6" font-family="Work Sans" font-size="8.00"> </text>
<text text-anchor="start" x="168.93" y="-94.6" font-family="Work Sans" font-size="8.00"> </text>
<text text-anchor="start" x="171.15" y="-94.6" font-family="Work Sans" font-size="8.00" fill="green">talk_about%2:32:00</text>
<text text-anchor="start" x="241.87" y="-94.6" font-family="Work Sans" font-size="8.00"> </text>
<text text-anchor="start" x="205.4" y="-86.6" font-family="Work Sans" font-size="8.00" fill="green"> </text>
</a>
</g>
</g>
<!-- V331717&#45;&gt;V331532 -->
<g id="edge7" class="edge">
<title>V331717&#45;&gt;V331532</title>
<path fill="none" stroke="grey" stroke-width="0.5" d="M224.42,-171.99C218.11,-165.9 211.8,-158.33 208.27,-150 205.55,-143.57 204.52,-136.16 204.32,-129.22"/>
<polygon fill="grey" stroke="grey" stroke-width="0.5" points="206.07,-129.04 204.32,-124.04 202.57,-129.04 206.07,-129.04"/>
<text text-anchor="middle" x="237.63" y="-143.6" font-family="Work Sans" font-size="8.00"> SEQUENCE1 &#160;&#160;</text>
</g>
<!-- V331469 -->
<g id="node5" class="node">
<title>V331469</title>
<g id="a_node5"><a xlink:href="http://trips.ihmc.us/lexicon/data/ONT::APPRECIATE.xml" xlink:title="&lt;font color=&quot;green&quot;&gt;&lt;br /&gt;&lt;/font&gt; &lt;font color=&quot;black&quot;&gt;APPRECIATE&lt;/font&gt; &lt;font color=&quot;green&quot;&gt;&lt;br /&gt;&lt;/font&gt; &lt;font color=&quot;red&quot;&gt;F&lt;/font&gt; &lt;font color=&quot;blue&quot;&gt;LOVE&lt;/font&gt; &lt;font color=&quot;green&quot;&gt;&lt;br /&gt;&lt;/font&gt; &lt;font color=&quot;green&quot;&gt;love%2:37:00::&lt;/font&gt; &lt;font color=&quot;green&quot;&gt;&lt;br /&gt; &lt;/font&gt;">
<text text-anchor="start" x="64.24" y="-110.6" font-family="Work Sans" font-size="8.00"> </text>
<text text-anchor="start" x="66.46" y="-110.6" font-family="Work Sans" font-size="8.00">APPRECIATE</text>
<text text-anchor="start" x="116.55" y="-110.6" font-family="Work Sans" font-size="8.00"> </text>
<text text-anchor="start" x="75.06" y="-102.6" font-family="Work Sans" font-size="8.00"> </text>
<text text-anchor="start" x="77.28" y="-102.6" font-family="Work Sans" font-size="8.00" fill="red">F</text>
<text text-anchor="start" x="82.17" y="-102.6" font-family="Work Sans" font-size="8.00"> </text>
<text text-anchor="start" x="84.39" y="-102.6" font-family="Work Sans" font-size="8.00" fill="blue">LOVE</text>
<text text-anchor="start" x="105.74" y="-102.6" font-family="Work Sans" font-size="8.00"> </text>
<text text-anchor="start" x="62.82" y="-94.6" font-family="Work Sans" font-size="8.00"> </text>
<text text-anchor="start" x="65.05" y="-94.6" font-family="Work Sans" font-size="8.00" fill="green">love%2:37:00::</text>
<text text-anchor="start" x="117.97" y="-94.6" font-family="Work Sans" font-size="8.00"> </text>
<text text-anchor="start" x="90.4" y="-86.6" font-family="Work Sans" font-size="8.00" fill="green"> </text>
</a>
</g>
</g>
<!-- V331717&#45;&gt;V331469 -->
<g id="edge10" class="edge">
<title>V331717&#45;&gt;V331469</title>
<path fill="none" stroke="grey" stroke-width="0.5" d="M207.26,-175.68C189.1,-169.31 167.12,-160.52 148.72,-150 137.59,-143.63 126.29,-135.24 116.7,-127.43"/>
<polygon fill="grey" stroke="grey" stroke-width="0.5" points="117.68,-125.97 112.71,-124.13 115.45,-128.66 117.68,-125.97"/>
<text text-anchor="middle" x="176.4" y="-143.6" font-family="Work Sans" font-size="8.00"> SEQUENCE &#160;&#160;</text>
</g>
<!-- V331464 -->
<g id="node6" class="node">
<title>V331464</title>
<g id="a_node6"><a xlink:href="http://trips.ihmc.us/lexicon/data/ONT::MALE-PERSON.xml" xlink:title="&lt;font color=&quot;green&quot;&gt;&lt;br /&gt;&lt;/font&gt; &lt;font color=&quot;black&quot;&gt;MALE&#45;PERSON&lt;/font&gt; &lt;font color=&quot;green&quot;&gt;&lt;br /&gt;&lt;/font&gt; &lt;font color=&quot;red&quot;&gt;PRO&lt;/font&gt; &lt;font color=&quot;blue&quot;&gt;HE&lt;/font&gt; &lt;font color=&quot;green&quot;&gt;&lt;br /&gt;&lt;/font&gt; &lt;font color=&quot;green&quot;&gt;man%1:18:00&lt;/font&gt; &lt;font color=&quot;green&quot;&gt;&lt;br /&gt; &lt;/font&gt;">
<text text-anchor="start" x="46.17" y="-26.6" font-family="Work Sans" font-size="8.00"> </text>
<text text-anchor="start" x="48.39" y="-26.6" font-family="Work Sans" font-size="8.00">MALE&#45;PERSON</text>
<text text-anchor="start" x="106.63" y="-26.6" font-family="Work Sans" font-size="8.00"> </text>
<text text-anchor="start" x="59.95" y="-18.6" font-family="Work Sans" font-size="8.00"> </text>
<text text-anchor="start" x="62.17" y="-18.6" font-family="Work Sans" font-size="8.00" fill="red">PRO</text>
<text text-anchor="start" x="79.51" y="-18.6" font-family="Work Sans" font-size="8.00"> </text>
<text text-anchor="start" x="81.73" y="-18.6" font-family="Work Sans" font-size="8.00" fill="blue">HE</text>
<text text-anchor="start" x="92.85" y="-18.6" font-family="Work Sans" font-size="8.00"> </text>
<text text-anchor="start" x="50.6" y="-10.6" font-family="Work Sans" font-size="8.00"> </text>
<text text-anchor="start" x="52.83" y="-10.6" font-family="Work Sans" font-size="8.00" fill="green">man%1:18:00</text>
<text text-anchor="start" x="102.19" y="-10.6" font-family="Work Sans" font-size="8.00"> </text>
<text text-anchor="start" x="76.4" y="-2.6" font-family="Work Sans" font-size="8.00" fill="green"> </text>
</a>
</g>
</g>
<!-- V331532&#45;&gt;V331464 -->
<g id="edge3" class="edge">
<title>V331532&#45;&gt;V331464</title>
<path fill="none" stroke="grey" stroke-width="0.5" d="M178.22,-83.92C166.07,-75.82 151.66,-66.34 138.51,-58 130.48,-52.91 121.78,-47.54 113.53,-42.53"/>
<polygon fill="grey" stroke="grey" stroke-width="0.5" points="114.18,-40.88 109,-39.78 112.37,-43.87 114.18,-40.88"/>
<text text-anchor="middle" x="168.45" y="-59.6" font-family="Work Sans" font-size="8.00"> AGENT &#160;&#160;</text>
</g>
<!-- V331571 -->
<g id="node8" class="node">
<title>V331571</title>
<g id="a_node8"><a xlink:href="http://trips.ihmc.us/lexicon/data/ONT::REFERENTIAL-SEM.xml" xlink:title="&lt;font color=&quot;green&quot;&gt;&lt;br /&gt;&lt;/font&gt; &lt;font color=&quot;black&quot;&gt;REFERENTIAL&#45;SEM&lt;/font&gt; &lt;font color=&quot;green&quot;&gt;&lt;br /&gt;&lt;/font&gt; &lt;font color=&quot;red&quot;&gt;PRO&lt;/font&gt; &lt;font color=&quot;blue&quot;&gt;IT&lt;/font&gt; &lt;font color=&quot;green&quot;&gt;&lt;br /&gt;&lt;/font&gt; &lt;font color=&quot;green&quot;&gt;entity%1:03:00&lt;/font&gt; &lt;font color=&quot;green&quot;&gt;&lt;br /&gt; &lt;/font&gt;">
<polygon fill="lightblue" stroke="transparent" points="326.08,-40 246.94,-40 246.94,0 326.08,0 326.08,-40"/>
<text text-anchor="start" x="246.73" y="-26.6" font-family="Work Sans" font-size="8.00"> </text>
<text text-anchor="start" x="248.95" y="-26.6" font-family="Work Sans" font-size="8.00">REFERENTIAL&#45;SEM</text>
<text text-anchor="start" x="324.07" y="-26.6" font-family="Work Sans" font-size="8.00"> </text>
<text text-anchor="start" x="270.95" y="-18.6" font-family="Work Sans" font-size="8.00"> </text>
<text text-anchor="start" x="273.18" y="-18.6" font-family="Work Sans" font-size="8.00" fill="red">PRO</text>
<text text-anchor="start" x="290.51" y="-18.6" font-family="Work Sans" font-size="8.00"> </text>
<text text-anchor="start" x="292.73" y="-18.6" font-family="Work Sans" font-size="8.00" fill="blue">IT</text>
<text text-anchor="start" x="299.84" y="-18.6" font-family="Work Sans" font-size="8.00"> </text>
<text text-anchor="start" x="257.82" y="-10.6" font-family="Work Sans" font-size="8.00"> </text>
<text text-anchor="start" x="260.05" y="-10.6" font-family="Work Sans" font-size="8.00" fill="green">entity%1:03:00</text>
<text text-anchor="start" x="312.97" y="-10.6" font-family="Work Sans" font-size="8.00"> </text>
<text text-anchor="start" x="285.4" y="-2.6" font-family="Work Sans" font-size="8.00" fill="green"> </text>
</a>
</g>
</g>
<!-- V331532&#45;&gt;V331571 -->
<g id="edge11" class="edge">
<title>V331532&#45;&gt;V331571</title>
<path fill="none" stroke="red" stroke-width="0.5" d="M224.35,-83.28C235.98,-71.36 251.04,-55.92 263.34,-43.32"/>
<path fill="none" stroke="blue" stroke-width="0.5" d="M225.78,-84.68C237.41,-72.76 252.47,-57.32 264.77,-44.71"/>
<polygon fill="red" stroke="red" stroke-width="0.5" points="265.54,-45 267.78,-40.2 263.03,-42.56 265.54,-45"/>
<text text-anchor="middle" x="272.48" y="-59.6" font-family="Work Sans" font-size="8.00"> NEUTRAL &#160;&#160;</text>
</g>
<!-- V331469&#45;&gt;V331464 -->
<g id="edge1" class="edge">
<title>V331469&#45;&gt;V331464</title>
<path fill="none" stroke="grey" stroke-width="0.5" d="M62.8,-99.3C42.42,-95.01 16.43,-85.78 3.27,-66 -8.86,-47.76 16.7,-35.73 41.07,-28.74"/>
<polygon fill="grey" stroke="grey" stroke-width="0.5" points="41.56,-30.42 45.92,-27.4 40.64,-27.04 41.56,-30.42"/>
<text text-anchor="middle" x="36.63" y="-59.6" font-family="Work Sans" font-size="8.00"> EXPERIENCER &#160;&#160;</text>
</g>
<!-- V331475 -->
<g id="node7" class="node">
<title>V331475</title>
<g id="a_node7"><a xlink:href="http://trips.ihmc.us/lexicon/data/ONT::REFERENTIAL-SEM.xml" xlink:title="&lt;font color=&quot;green&quot;&gt;&lt;br /&gt;&lt;/font&gt; &lt;font color=&quot;black&quot;&gt;REFERENTIAL&#45;SEM&lt;/font&gt; &lt;font color=&quot;green&quot;&gt;&lt;br /&gt;&lt;/font&gt; &lt;font color=&quot;red&quot;&gt;PRO&lt;/font&gt; &lt;font color=&quot;blue&quot;&gt;IT&lt;/font&gt; &lt;font color=&quot;green&quot;&gt;&lt;br /&gt;&lt;/font&gt; &lt;font color=&quot;green&quot;&gt;entity%1:03:00&lt;/font&gt; &lt;font color=&quot;green&quot;&gt;&lt;br /&gt; &lt;/font&gt;">
<polygon fill="lightblue" stroke="transparent" points="221.08,-40 141.94,-40 141.94,0 221.08,0 221.08,-40"/>
<text text-anchor="start" x="141.73" y="-26.6" font-family="Work Sans" font-size="8.00"> </text>
<text text-anchor="start" x="143.95" y="-26.6" font-family="Work Sans" font-size="8.00">REFERENTIAL&#45;SEM</text>
<text text-anchor="start" x="219.07" y="-26.6" font-family="Work Sans" font-size="8.00"> </text>
<text text-anchor="start" x="165.95" y="-18.6" font-family="Work Sans" font-size="8.00"> </text>
<text text-anchor="start" x="168.18" y="-18.6" font-family="Work Sans" font-size="8.00" fill="red">PRO</text>
<text text-anchor="start" x="185.51" y="-18.6" font-family="Work Sans" font-size="8.00"> </text>
<text text-anchor="start" x="187.73" y="-18.6" font-family="Work Sans" font-size="8.00" fill="blue">IT</text>
<text text-anchor="start" x="194.84" y="-18.6" font-family="Work Sans" font-size="8.00"> </text>
<text text-anchor="start" x="152.82" y="-10.6" font-family="Work Sans" font-size="8.00"> </text>
<text text-anchor="start" x="155.05" y="-10.6" font-family="Work Sans" font-size="8.00" fill="green">entity%1:03:00</text>
<text text-anchor="start" x="207.97" y="-10.6" font-family="Work Sans" font-size="8.00"> </text>
<text text-anchor="start" x="180.4" y="-2.6" font-family="Work Sans" font-size="8.00" fill="green"> </text>
</a>
</g>
</g>
<!-- V331469&#45;&gt;V331475 -->
<g id="edge8" class="edge">
<title>V331469&#45;&gt;V331475</title>
<path fill="none" stroke="grey" stroke-width="0.5" d="M87.48,-83.61C86.78,-75.08 87.54,-65.35 92.57,-58 98.14,-49.86 117.48,-41.36 136.7,-34.56"/>
<polygon fill="grey" stroke="grey" stroke-width="0.5" points="137.42,-36.17 141.57,-32.88 136.28,-32.86 137.42,-36.17"/>
<text text-anchor="middle" x="116.48" y="-59.6" font-family="Work Sans" font-size="8.00"> NEUTRAL &#160;&#160;</text>
</g>
<!-- V331475&#45;&gt;V331717 -->
<g id="edge5" class="edge">
<title>V331475&#45;&gt;V331717</title>
<path fill="none" stroke="red" stroke-width="0.5" d="M221.78,-35.15C242.5,-43.38 264.06,-52.74 267.35,-57.45 289.78,-92.72 278.59,-111.2 267.47,-150.27 265.68,-156.47 262.67,-162.47 259.34,-167.9"/>
<path fill="none" stroke="blue" stroke-width="0.5" d="M221.04,-37.01C241.71,-45.21 263.27,-54.58 265.67,-58.55 288.07,-91.68 276.88,-110.16 265.55,-149.73 263.9,-155.57 260.88,-161.57 257.63,-166.86"/>
<polygon fill="red" stroke="red" stroke-width="0.5" points="256.93,-166.57 255.68,-171.72 259.86,-168.47 256.93,-166.57"/>
<text text-anchor="middle" x="297.96" y="-101.6" font-family="Work Sans" font-size="8.00"> COREF &#160;&#160;</text>
</g>
<!-- V331571&#45;&gt;V331717 -->
<g id="edge2" class="edge">
<title>V331571&#45;&gt;V331717</title>
<path fill="none" stroke="red" stroke-width="0.5" d="M302.34,-39.74C316.75,-60.78 334.52,-95.04 322.43,-124.39 313.94,-144.09 296.14,-159.19 279.51,-169.84"/>
<path fill="none" stroke="blue" stroke-width="0.5" d="M300.69,-40.87C314.97,-61.7 332.74,-95.96 320.59,-123.61 312.64,-142.56 294.84,-157.67 278.43,-168.16"/>
<polygon fill="red" stroke="red" stroke-width="0.5" points="277.68,-167.74 274.35,-171.86 279.52,-170.71 277.68,-167.74"/>
<text text-anchor="middle" x="344.96" y="-101.6" font-family="Work Sans" font-size="8.00"> COREF &#160;&#160;</text>
</g>
</g>
</svg>
