<?xml version="1.0" encoding="UTF-8" standalone="no"?>
<!DOCTYPE svg PUBLIC "-//W3C//DTD SVG 1.1//EN"
 "http://www.w3.org/Graphics/SVG/1.1/DTD/svg11.dtd">
<!-- Generated by graphviz version 2.43.0 (0)
 -->
<!-- Title: graph Pages: 1 -->
<svg width="203pt" height="536pt"
 viewBox="0.00 0.00 202.94 536.00" xmlns="http://www.w3.org/2000/svg" xmlns:xlink="http://www.w3.org/1999/xlink">
<g id="graph0" class="graph" transform="scale(1 1) rotate(0) translate(4 532)">
<title>graph</title>
<polygon fill="white" stroke="transparent" points="-4,4 -4,-532 198.94,-532 198.94,4 -4,4"/>
<!-- V70352 -->
<g id="node1" class="node">
<title>V70352</title>
<g id="a_node1"><a xlink:href="http://trips.ihmc.us/lexicon/data/ONT::SA_TELL.xml" xlink:title="&lt;font color=&quot;green&quot;&gt;&lt;br /&gt;&lt;/font&gt; &lt;font color=&quot;black&quot;&gt;SA_TELL&lt;/font&gt; &lt;font color=&quot;green&quot;&gt;&lt;br /&gt;&lt;/font&gt; &lt;font color=&quot;red&quot;&gt;SPEECHACT&lt;/font&gt; &lt;font color=&quot;blue&quot;&gt;* &lt;/font&gt; &lt;font color=&quot;green&quot;&gt;&lt;br /&gt; &lt;/font&gt;">
<text text-anchor="start" x="60.24" y="-514.6" font-family="Work Sans" font-size="8.00"> </text>
<text text-anchor="start" x="62.47" y="-514.6" font-family="Work Sans" font-size="8.00">SA_TELL</text>
<text text-anchor="start" x="96.71" y="-514.6" font-family="Work Sans" font-size="8.00"> </text>
<text text-anchor="start" x="49.14" y="-506.6" font-family="Work Sans" font-size="8.00"> </text>
<text text-anchor="start" x="51.36" y="-506.6" font-family="Work Sans" font-size="8.00" fill="red">SPEECHACT</text>
<text text-anchor="start" x="100.26" y="-506.6" font-family="Work Sans" font-size="8.00"> </text>
<text text-anchor="start" x="102.48" y="-506.6" font-family="Work Sans" font-size="8.00" fill="blue">* </text>
<text text-anchor="start" x="107.82" y="-506.6" font-family="Work Sans" font-size="8.00"> </text>
<text text-anchor="start" x="78.48" y="-498.6" font-family="Work Sans" font-size="8.00" fill="green"> </text>
</a>
</g>
</g>
<!-- V70181 -->
<g id="node2" class="node">
<title>V70181</title>
<g id="a_node2"><a xlink:href="http://trips.ihmc.us/lexicon/data/ONT::EXECUTE.xml" xlink:title="&lt;font color=&quot;green&quot;&gt;&lt;br /&gt;&lt;/font&gt; &lt;font color=&quot;black&quot;&gt;EXECUTE&lt;/font&gt; &lt;font color=&quot;green&quot;&gt;&lt;br /&gt;&lt;/font&gt; &lt;font color=&quot;red&quot;&gt;F&lt;/font&gt; &lt;font color=&quot;blue&quot;&gt;GO&lt;/font&gt; &lt;font color=&quot;green&quot;&gt;&lt;br /&gt;&lt;/font&gt; &lt;font color=&quot;green&quot;&gt;fulfil%2:36:00&lt;/font&gt; &lt;font color=&quot;green&quot;&gt;&lt;br /&gt; &lt;/font&gt;">
<polygon fill="pink" stroke="transparent" stroke-width="0.5" points="53.11,-412 79.59,-412 79.59,-452 53.11,-452 53.11,-412"/>
<polygon fill="lightblue" stroke="transparent" stroke-width="0.5" points="79.59,-412 106.07,-412 106.07,-452 79.59,-452 79.59,-412"/>
<polygon fill="none" stroke="transparent" points="106.07,-452 53.11,-452 53.11,-412 106.07,-412 106.07,-452"/>
<text text-anchor="start" x="58.47" y="-438.6" font-family="Work Sans" font-size="8.00"> </text>
<text text-anchor="start" x="60.69" y="-438.6" font-family="Work Sans" font-size="8.00">EXECUTE</text>
<text text-anchor="start" x="98.48" y="-438.6" font-family="Work Sans" font-size="8.00"> </text>
<text text-anchor="start" x="67.59" y="-430.6" font-family="Work Sans" font-size="8.00"> </text>
<text text-anchor="start" x="69.81" y="-430.6" font-family="Work Sans" font-size="8.00" fill="red">F</text>
<text text-anchor="start" x="74.7" y="-430.6" font-family="Work Sans" font-size="8.00"> </text>
<text text-anchor="start" x="76.92" y="-430.6" font-family="Work Sans" font-size="8.00" fill="blue">GO</text>
<text text-anchor="start" x="89.36" y="-430.6" font-family="Work Sans" font-size="8.00"> </text>
<text text-anchor="start" x="53.35" y="-422.6" font-family="Work Sans" font-size="8.00"> </text>
<text text-anchor="start" x="55.57" y="-422.6" font-family="Work Sans" font-size="8.00" fill="green">fulfil%2:36:00</text>
<text text-anchor="start" x="103.6" y="-422.6" font-family="Work Sans" font-size="8.00"> </text>
<text text-anchor="start" x="78.48" y="-414.6" font-family="Work Sans" font-size="8.00" fill="green"> </text>
</a>
</g>
</g>
<!-- V70352&#45;&gt;V70181 -->
<g id="edge1" class="edge">
<title>V70352&#45;&gt;V70181</title>
<path fill="none" stroke="grey" stroke-width="0.5" d="M79.59,-495.96C79.59,-485.04 79.59,-470.02 79.59,-457.39"/>
<polygon fill="grey" stroke="grey" stroke-width="0.5" points="81.34,-457.14 79.59,-452.14 77.84,-457.14 81.34,-457.14"/>
<text text-anchor="middle" x="103.29" y="-471.6" font-family="Work Sans" font-size="8.00"> CONTENT &#160;&#160;</text>
</g>
<!-- V70149 -->
<g id="node3" class="node">
<title>V70149</title>
<g id="a_node3"><a xlink:href="http://trips.ihmc.us/lexicon/data/ONT::PERSON.xml" xlink:title="&lt;font color=&quot;green&quot;&gt;&lt;br /&gt;&lt;/font&gt; &lt;font color=&quot;black&quot;&gt;PERSON&lt;/font&gt; &lt;font color=&quot;green&quot;&gt;&lt;br /&gt;&lt;/font&gt; &lt;font color=&quot;red&quot;&gt;THE&#45;SET&lt;/font&gt; &lt;font color=&quot;blue&quot;&gt;* &lt;/font&gt; &lt;font color=&quot;green&quot;&gt;&lt;br /&gt; &lt;/font&gt;">
<polygon fill="pink" stroke="transparent" stroke-width="0.5" points="56.36,-252 79.59,-252 79.59,-284 56.36,-284 56.36,-252"/>
<polygon fill="lightblue" stroke="transparent" stroke-width="0.5" points="79.59,-252 102.81,-252 102.81,-284 79.59,-284 79.59,-252"/>
<polygon fill="none" stroke="transparent" points="102.81,-284 56.36,-284 56.36,-252 102.81,-252 102.81,-284"/>
<text text-anchor="start" x="60.47" y="-270.6" font-family="Work Sans" font-size="8.00"> </text>
<text text-anchor="start" x="62.69" y="-270.6" font-family="Work Sans" font-size="8.00">PERSON</text>
<text text-anchor="start" x="96.48" y="-270.6" font-family="Work Sans" font-size="8.00"> </text>
<text text-anchor="start" x="56.47" y="-262.6" font-family="Work Sans" font-size="8.00"> </text>
<text text-anchor="start" x="58.7" y="-262.6" font-family="Work Sans" font-size="8.00" fill="red">THE&#45;SET</text>
<text text-anchor="start" x="92.92" y="-262.6" font-family="Work Sans" font-size="8.00"> </text>
<text text-anchor="start" x="95.14" y="-262.6" font-family="Work Sans" font-size="8.00" fill="blue">* </text>
<text text-anchor="start" x="100.48" y="-262.6" font-family="Work Sans" font-size="8.00"> </text>
<text text-anchor="start" x="78.48" y="-254.6" font-family="Work Sans" font-size="8.00" fill="green"> </text>
</a>
</g>
</g>
<!-- V70181&#45;&gt;V70149 -->
<g id="edge5" class="edge">
<title>V70181&#45;&gt;V70149</title>
<path fill="none" stroke="red" d="M53.18,-416.65C36.17,-405.78 15.46,-389.12 5.72,-368 -1.73,-351.86 -1.99,-344.02 5.72,-328 15.21,-308.26 34.88,-293.07 51.54,-283.05"/>
<polygon fill="red" stroke="red" points="52.71,-284.39 56.15,-280.36 50.95,-281.37 52.71,-284.39"/>
<text text-anchor="middle" x="24.52" y="-345.6" font-family="Work Sans" font-size="8.00"> AGENT &#160;&#160;</text>
</g>
<!-- V70181&#45;&gt;V70149 -->
<g id="edge11" class="edge">
<title>V70181&#45;&gt;V70149</title>
<path fill="none" stroke="blue" d="M77.98,-411.99C77.01,-399.5 75.86,-382.79 75.36,-368 74.77,-350.23 74.73,-345.77 75.36,-328 75.83,-315.01 76.87,-300.43 77.8,-289.02"/>
<polygon fill="blue" stroke="blue" points="79.54,-289.15 78.21,-284.02 76.05,-288.86 79.54,-289.15"/>
<text text-anchor="middle" x="75.7" y="-345.6" font-family="Work Sans" font-size="8.00">.</text>
</g>
<!-- V70200 -->
<g id="node7" class="node">
<title>V70200</title>
<g id="a_node7"><a xlink:href="http://trips.ihmc.us/lexicon/data/ONT::DANCE.xml" xlink:title="&lt;font color=&quot;green&quot;&gt;&lt;br /&gt;&lt;/font&gt; &lt;font color=&quot;black&quot;&gt;DANCE&lt;/font&gt; &lt;font color=&quot;green&quot;&gt;&lt;br /&gt;&lt;/font&gt; &lt;font color=&quot;red&quot;&gt;F&lt;/font&gt; &lt;font color=&quot;blue&quot;&gt;DANCE&lt;/font&gt; &lt;font color=&quot;green&quot;&gt;&lt;br /&gt;&lt;/font&gt; &lt;font color=&quot;green&quot;&gt;dance%1:04:00::&lt;/font&gt; &lt;font color=&quot;green&quot;&gt;&lt;br /&gt; &lt;/font&gt;">
<text text-anchor="start" x="102.36" y="-354.6" font-family="Work Sans" font-size="8.00"> </text>
<text text-anchor="start" x="104.59" y="-354.6" font-family="Work Sans" font-size="8.00">DANCE</text>
<text text-anchor="start" x="132.59" y="-354.6" font-family="Work Sans" font-size="8.00"> </text>
<text text-anchor="start" x="98.81" y="-346.6" font-family="Work Sans" font-size="8.00"> </text>
<text text-anchor="start" x="101.03" y="-346.6" font-family="Work Sans" font-size="8.00" fill="red">F</text>
<text text-anchor="start" x="105.92" y="-346.6" font-family="Work Sans" font-size="8.00"> </text>
<text text-anchor="start" x="108.14" y="-346.6" font-family="Work Sans" font-size="8.00" fill="blue">DANCE</text>
<text text-anchor="start" x="136.14" y="-346.6" font-family="Work Sans" font-size="8.00"> </text>
<text text-anchor="start" x="86.34" y="-338.6" font-family="Work Sans" font-size="8.00"> </text>
<text text-anchor="start" x="88.56" y="-338.6" font-family="Work Sans" font-size="8.00" fill="green">dance%1:04:00::</text>
<text text-anchor="start" x="148.61" y="-338.6" font-family="Work Sans" font-size="8.00"> </text>
<text text-anchor="start" x="117.48" y="-330.6" font-family="Work Sans" font-size="8.00" fill="green"> </text>
</a>
</g>
</g>
<!-- V70181&#45;&gt;V70200 -->
<g id="edge2" class="edge">
<title>V70181&#45;&gt;V70200</title>
<path fill="none" stroke="red" d="M86.6,-411.93C89.74,-403.83 93.64,-394.35 97.65,-386 99.72,-381.7 102.08,-377.22 104.45,-372.91"/>
<polygon fill="red" stroke="red" points="106.1,-373.55 107.01,-368.33 103.04,-371.84 106.1,-373.55"/>
<text text-anchor="middle" x="118.55" y="-387.6" font-family="Work Sans" font-size="8.00"> FORMAL &#160;&#160;</text>
</g>
<!-- V70181&#45;&gt;V70200 -->
<g id="edge10" class="edge">
<title>V70181&#45;&gt;V70200</title>
<path fill="none" stroke="blue" d="M106.02,-421.77C118.57,-415.9 132.37,-406.93 139.59,-394 143.34,-387.27 141.92,-379.76 138.47,-372.82"/>
<polygon fill="blue" stroke="blue" points="139.79,-371.61 135.8,-368.13 136.75,-373.35 139.79,-371.61"/>
<text text-anchor="middle" x="142.7" y="-387.6" font-family="Work Sans" font-size="8.00">.</text>
</g>
<!-- V70140 -->
<g id="node4" class="node">
<title>V70140</title>
<g id="a_node4"><a xlink:href="http://trips.ihmc.us/lexicon/data/ONT::FEMALE-PERSON.xml" xlink:title="&lt;font color=&quot;green&quot;&gt;&lt;br /&gt;&lt;/font&gt; &lt;font color=&quot;black&quot;&gt;FEMALE&#45;PERSON&lt;/font&gt; &lt;font color=&quot;green&quot;&gt;&lt;br /&gt;&lt;/font&gt; &lt;font color=&quot;red&quot;&gt;THE&lt;/font&gt; &lt;font color=&quot;blue&quot;&gt;JANE&lt;/font&gt; &lt;font color=&quot;green&quot;&gt;&lt;br /&gt;&lt;/font&gt; &lt;font color=&quot;green&quot;&gt;woman%1:18:00&lt;/font&gt; &lt;font color=&quot;green&quot;&gt;&lt;br /&gt; &lt;/font&gt;">
<text text-anchor="start" x="72.14" y="-26.6" font-family="Work Sans" font-size="8.00"> </text>
<text text-anchor="start" x="74.36" y="-26.6" font-family="Work Sans" font-size="8.00">FEMALE&#45;PERSON</text>
<text text-anchor="start" x="142.82" y="-26.6" font-family="Work Sans" font-size="8.00"> </text>
<text text-anchor="start" x="87.03" y="-18.6" font-family="Work Sans" font-size="8.00"> </text>
<text text-anchor="start" x="89.25" y="-18.6" font-family="Work Sans" font-size="8.00" fill="red">THE</text>
<text text-anchor="start" x="105.25" y="-18.6" font-family="Work Sans" font-size="8.00"> </text>
<text text-anchor="start" x="107.47" y="-18.6" font-family="Work Sans" font-size="8.00" fill="blue">JANE</text>
<text text-anchor="start" x="127.92" y="-18.6" font-family="Work Sans" font-size="8.00"> </text>
<text text-anchor="start" x="76.57" y="-10.6" font-family="Work Sans" font-size="8.00"> </text>
<text text-anchor="start" x="78.79" y="-10.6" font-family="Work Sans" font-size="8.00" fill="green">woman%1:18:00</text>
<text text-anchor="start" x="138.38" y="-10.6" font-family="Work Sans" font-size="8.00"> </text>
<text text-anchor="start" x="107.48" y="-2.6" font-family="Work Sans" font-size="8.00" fill="green"> </text>
</a>
</g>
</g>
<!-- V70149&#45;&gt;V70140 -->
<g id="edge8" class="edge">
<title>V70149&#45;&gt;V70140</title>
<path fill="none" stroke="grey" stroke-width="0.5" d="M77.79,-251.94C75.28,-228.4 71.49,-181.5 75.8,-142 78.66,-115.76 81.74,-109.49 88.59,-84 92.07,-71 96.56,-56.7 100.4,-45.01"/>
<polygon fill="grey" stroke="grey" stroke-width="0.5" points="102.1,-45.46 102.01,-40.17 98.77,-44.36 102.1,-45.46"/>
<text text-anchor="middle" x="102.48" y="-143.6" font-family="Work Sans" font-size="8.00"> SEQUENCE &#160;&#160;</text>
</g>
<!-- V70164 -->
<g id="node5" class="node">
<title>V70164</title>
<g id="a_node5"><a xlink:href="http://trips.ihmc.us/lexicon/data/ONT::FAMILY-RELATION.xml" xlink:title="&lt;font color=&quot;green&quot;&gt;&lt;br /&gt;&lt;/font&gt; &lt;font color=&quot;black&quot;&gt;FAMILY&#45;RELATION&lt;/font&gt; &lt;font color=&quot;green&quot;&gt;&lt;br /&gt;&lt;/font&gt; &lt;font color=&quot;red&quot;&gt;THE&lt;/font&gt; &lt;font color=&quot;blue&quot;&gt;HUSBAND&lt;/font&gt; &lt;font color=&quot;green&quot;&gt;&lt;br /&gt;&lt;/font&gt; &lt;font color=&quot;green&quot;&gt;husband%1:18:00::&lt;/font&gt; &lt;font color=&quot;green&quot;&gt;&lt;br /&gt; &lt;/font&gt;">
<text text-anchor="start" x="97.76" y="-194.6" font-family="Work Sans" font-size="8.00"> </text>
<text text-anchor="start" x="99.98" y="-194.6" font-family="Work Sans" font-size="8.00">FAMILY&#45;RELATION</text>
<text text-anchor="start" x="169.19" y="-194.6" font-family="Work Sans" font-size="8.00"> </text>
<text text-anchor="start" x="103.69" y="-186.6" font-family="Work Sans" font-size="8.00"> </text>
<text text-anchor="start" x="105.92" y="-186.6" font-family="Work Sans" font-size="8.00" fill="red">THE</text>
<text text-anchor="start" x="121.92" y="-186.6" font-family="Work Sans" font-size="8.00"> </text>
<text text-anchor="start" x="124.14" y="-186.6" font-family="Work Sans" font-size="8.00" fill="blue">HUSBAND</text>
<text text-anchor="start" x="163.26" y="-186.6" font-family="Work Sans" font-size="8.00"> </text>
<text text-anchor="start" x="97.89" y="-178.6" font-family="Work Sans" font-size="8.00"> </text>
<text text-anchor="start" x="100.11" y="-178.6" font-family="Work Sans" font-size="8.00" fill="green">husband%1:18:00::</text>
<text text-anchor="start" x="169.06" y="-178.6" font-family="Work Sans" font-size="8.00"> </text>
<text text-anchor="start" x="133.48" y="-170.6" font-family="Work Sans" font-size="8.00" fill="green"> </text>
</a>
</g>
</g>
<!-- V70149&#45;&gt;V70164 -->
<g id="edge4" class="edge">
<title>V70149&#45;&gt;V70164</title>
<path fill="none" stroke="grey" stroke-width="0.5" d="M90.19,-251.96C98.1,-240.74 109.05,-225.21 118.1,-212.38"/>
<polygon fill="grey" stroke="grey" stroke-width="0.5" points="119.64,-213.24 121.09,-208.14 116.78,-211.22 119.64,-213.24"/>
<text text-anchor="middle" x="135.71" y="-227.6" font-family="Work Sans" font-size="8.00"> SEQUENCE1 &#160;&#160;</text>
</g>
<!-- V70159 -->
<g id="node6" class="node">
<title>V70159</title>
<g id="a_node6"><a xlink:href="http://trips.ihmc.us/lexicon/data/ONT::FEMALE-PERSON.xml" xlink:title="&lt;font color=&quot;green&quot;&gt;&lt;br /&gt;&lt;/font&gt; &lt;font color=&quot;black&quot;&gt;FEMALE&#45;PERSON&lt;/font&gt; &lt;font color=&quot;green&quot;&gt;&lt;br /&gt;&lt;/font&gt; &lt;font color=&quot;red&quot;&gt;PRO&lt;/font&gt; &lt;font color=&quot;blue&quot;&gt;HER&lt;/font&gt; &lt;font color=&quot;green&quot;&gt;&lt;br /&gt;&lt;/font&gt; &lt;font color=&quot;green&quot;&gt;woman%1:18:00&lt;/font&gt; &lt;font color=&quot;green&quot;&gt;&lt;br /&gt; &lt;/font&gt;">
<polygon fill="pink" stroke="transparent" stroke-width="0.5" points="97.18,-84 133.59,-84 133.59,-124 97.18,-124 97.18,-84"/>
<polygon fill="lightblue" stroke="transparent" stroke-width="0.5" points="133.59,-84 169.99,-84 169.99,-124 133.59,-124 133.59,-84"/>
<polygon fill="none" stroke="transparent" points="169.99,-124 97.18,-124 97.18,-84 169.99,-84 169.99,-124"/>
<text text-anchor="start" x="97.14" y="-110.6" font-family="Work Sans" font-size="8.00"> </text>
<text text-anchor="start" x="99.36" y="-110.6" font-family="Work Sans" font-size="8.00">FEMALE&#45;PERSON</text>
<text text-anchor="start" x="167.82" y="-110.6" font-family="Work Sans" font-size="8.00"> </text>
<text text-anchor="start" x="113.14" y="-102.6" font-family="Work Sans" font-size="8.00"> </text>
<text text-anchor="start" x="115.36" y="-102.6" font-family="Work Sans" font-size="8.00" fill="red">PRO</text>
<text text-anchor="start" x="132.7" y="-102.6" font-family="Work Sans" font-size="8.00"> </text>
<text text-anchor="start" x="134.92" y="-102.6" font-family="Work Sans" font-size="8.00" fill="blue">HER</text>
<text text-anchor="start" x="151.81" y="-102.6" font-family="Work Sans" font-size="8.00"> </text>
<text text-anchor="start" x="101.57" y="-94.6" font-family="Work Sans" font-size="8.00"> </text>
<text text-anchor="start" x="103.79" y="-94.6" font-family="Work Sans" font-size="8.00" fill="green">woman%1:18:00</text>
<text text-anchor="start" x="163.38" y="-94.6" font-family="Work Sans" font-size="8.00"> </text>
<text text-anchor="start" x="132.48" y="-86.6" font-family="Work Sans" font-size="8.00" fill="green"> </text>
</a>
</g>
</g>
<!-- V70164&#45;&gt;V70159 -->
<g id="edge7" class="edge">
<title>V70164&#45;&gt;V70159</title>
<path fill="none" stroke="grey" stroke-width="0.5" d="M134.36,-167.98C134.21,-156.47 134.03,-141.68 133.88,-129.33"/>
<polygon fill="grey" stroke="grey" stroke-width="0.5" points="135.63,-129.18 133.82,-124.2 132.13,-129.22 135.63,-129.18"/>
<text text-anchor="middle" x="164.26" y="-143.6" font-family="Work Sans" font-size="8.00"> ASSOC&#45;POSS &#160;&#160;</text>
</g>
<!-- V70159&#45;&gt;V70140 -->
<g id="edge9" class="edge">
<title>V70159&#45;&gt;V70140</title>
<path fill="none" stroke="blue" d="M123.48,-83.8C120.84,-78.18 118.23,-71.95 116.36,-66 114.29,-59.37 112.72,-52 111.56,-45.18"/>
<polygon fill="blue" stroke="blue" points="113.26,-44.76 110.75,-40.09 109.81,-45.31 113.26,-44.76"/>
<text text-anchor="middle" x="116.7" y="-59.6" font-family="Work Sans" font-size="8.00">.</text>
</g>
<!-- V70159&#45;&gt;V70140 -->
<g id="edge12" class="edge">
<title>V70159&#45;&gt;V70140</title>
<path fill="none" stroke="red" d="M127.79,-83.98C124.25,-72.37 119.69,-57.42 115.9,-45"/>
<polygon fill="red" stroke="red" points="117.57,-44.47 114.44,-40.2 114.22,-45.49 117.57,-44.47"/>
<text text-anchor="middle" x="140.03" y="-59.6" font-family="Work Sans" font-size="8.00"> COREF &#160;&#160;</text>
</g>
<!-- V70200&#45;&gt;V70149 -->
<g id="edge3" class="edge">
<title>V70200&#45;&gt;V70149</title>
<path fill="none" stroke="blue" d="M108.95,-327.72C103.01,-315.85 95.43,-300.68 89.45,-288.73"/>
<polygon fill="blue" stroke="blue" points="90.97,-287.84 87.16,-284.15 87.83,-289.41 90.97,-287.84"/>
<text text-anchor="middle" x="99.7" y="-303.6" font-family="Work Sans" font-size="8.00">.</text>
</g>
<!-- V70200&#45;&gt;V70149 -->
<g id="edge6" class="edge">
<title>V70200&#45;&gt;V70149</title>
<path fill="none" stroke="red" d="M111.24,-327.89C107.93,-319.78 103.83,-310.31 99.59,-302 97.35,-297.62 94.75,-293.04 92.18,-288.73"/>
<polygon fill="red" stroke="red" points="93.51,-287.55 89.42,-284.18 90.52,-289.36 93.51,-287.55"/>
<text text-anchor="middle" x="120.52" y="-303.6" font-family="Work Sans" font-size="8.00"> AGENT &#160;&#160;</text>
</g>
</g>
</svg>
