<?xml version="1.0" encoding="UTF-8" standalone="no"?>
<!DOCTYPE svg PUBLIC "-//W3C//DTD SVG 1.1//EN"
 "http://www.w3.org/Graphics/SVG/1.1/DTD/svg11.dtd">
<!-- Generated by graphviz version 2.43.0 (0)
 -->
<!-- Title: graph Pages: 1 -->
<svg width="321pt" height="460pt"
 viewBox="0.00 0.00 321.23 460.00" xmlns="http://www.w3.org/2000/svg" xmlns:xlink="http://www.w3.org/1999/xlink">
<g id="graph0" class="graph" transform="scale(1 1) rotate(0) translate(4 456)">
<title>graph</title>
<polygon fill="white" stroke="transparent" points="-4,4 -4,-456 317.23,-456 317.23,4 -4,4"/>
<!-- V314334 -->
<g id="node1" class="node">
<title>V314334</title>
<g id="a_node1"><a xlink:href="http://trips.ihmc.us/lexicon/data/ONT::SA_TELL.xml" xlink:title="&lt;font color=&quot;green&quot;&gt;&lt;br /&gt;&lt;/font&gt; &lt;font color=&quot;black&quot;&gt;SA_TELL&lt;/font&gt; &lt;font color=&quot;green&quot;&gt;&lt;br /&gt;&lt;/font&gt; &lt;font color=&quot;red&quot;&gt;SPEECHACT&lt;/font&gt; &lt;font color=&quot;blue&quot;&gt;* &lt;/font&gt; &lt;font color=&quot;green&quot;&gt;&lt;br /&gt; &lt;/font&gt;">
<text text-anchor="start" x="39.44" y="-438.6" font-family="Work Sans" font-size="8.00"> </text>
<text text-anchor="start" x="41.66" y="-438.6" font-family="Work Sans" font-size="8.00">SA_TELL</text>
<text text-anchor="start" x="75.9" y="-438.6" font-family="Work Sans" font-size="8.00"> </text>
<text text-anchor="start" x="28.33" y="-430.6" font-family="Work Sans" font-size="8.00"> </text>
<text text-anchor="start" x="30.55" y="-430.6" font-family="Work Sans" font-size="8.00" fill="red">SPEECHACT</text>
<text text-anchor="start" x="79.45" y="-430.6" font-family="Work Sans" font-size="8.00"> </text>
<text text-anchor="start" x="81.68" y="-430.6" font-family="Work Sans" font-size="8.00" fill="blue">* </text>
<text text-anchor="start" x="87.01" y="-430.6" font-family="Work Sans" font-size="8.00"> </text>
<text text-anchor="start" x="57.67" y="-422.6" font-family="Work Sans" font-size="8.00" fill="green"> </text>
</a>
</g>
</g>
<!-- V312711 -->
<g id="node2" class="node">
<title>V312711</title>
<g id="a_node2"><a xlink:href="http://trips.ihmc.us/lexicon/data/ONT::WANT.xml" xlink:title="&lt;font color=&quot;green&quot;&gt;&lt;br /&gt;&lt;/font&gt; &lt;font color=&quot;black&quot;&gt;WANT&lt;/font&gt; &lt;font color=&quot;green&quot;&gt;&lt;br /&gt;&lt;/font&gt; &lt;font color=&quot;red&quot;&gt;F&lt;/font&gt; &lt;font color=&quot;blue&quot;&gt;WANT&lt;/font&gt; &lt;font color=&quot;green&quot;&gt;&lt;br /&gt;&lt;/font&gt; &lt;font color=&quot;green&quot;&gt;want%2:37:00::&lt;/font&gt; &lt;font color=&quot;green&quot;&gt;&lt;br /&gt; &lt;/font&gt;">
<text text-anchor="start" x="44.93" y="-362.6" font-family="Work Sans" font-size="8.00"> </text>
<text text-anchor="start" x="47.15" y="-362.6" font-family="Work Sans" font-size="8.00">WANT</text>
<text text-anchor="start" x="70.41" y="-362.6" font-family="Work Sans" font-size="8.00"> </text>
<text text-anchor="start" x="41.38" y="-354.6" font-family="Work Sans" font-size="8.00"> </text>
<text text-anchor="start" x="43.6" y="-354.6" font-family="Work Sans" font-size="8.00" fill="red">F</text>
<text text-anchor="start" x="48.49" y="-354.6" font-family="Work Sans" font-size="8.00"> </text>
<text text-anchor="start" x="50.71" y="-354.6" font-family="Work Sans" font-size="8.00" fill="blue">WANT</text>
<text text-anchor="start" x="73.97" y="-354.6" font-family="Work Sans" font-size="8.00"> </text>
<text text-anchor="start" x="28.99" y="-346.6" font-family="Work Sans" font-size="8.00"> </text>
<text text-anchor="start" x="31.21" y="-346.6" font-family="Work Sans" font-size="8.00" fill="green">want%2:37:00::</text>
<text text-anchor="start" x="86.36" y="-346.6" font-family="Work Sans" font-size="8.00"> </text>
<text text-anchor="start" x="57.67" y="-338.6" font-family="Work Sans" font-size="8.00" fill="green"> </text>
</a>
</g>
</g>
<!-- V314334&#45;&gt;V312711 -->
<g id="edge7" class="edge">
<title>V314334&#45;&gt;V312711</title>
<path fill="none" stroke="grey" stroke-width="0.5" d="M58.78,-419.96C58.78,-409.04 58.78,-394.02 58.78,-381.39"/>
<polygon fill="grey" stroke="grey" stroke-width="0.5" points="60.53,-381.14 58.78,-376.14 57.03,-381.14 60.53,-381.14"/>
<text text-anchor="middle" x="82.49" y="-395.6" font-family="Work Sans" font-size="8.00"> CONTENT &#160;&#160;</text>
</g>
<!-- V312705 -->
<g id="node3" class="node">
<title>V312705</title>
<g id="a_node3"><a xlink:href="http://trips.ihmc.us/lexicon/data/ONT::REFERENTIAL-SEM.xml" xlink:title="&lt;font color=&quot;green&quot;&gt;&lt;br /&gt;&lt;/font&gt; &lt;font color=&quot;black&quot;&gt;REFERENTIAL&#45;SEM&lt;/font&gt; &lt;font color=&quot;green&quot;&gt;&lt;br /&gt;&lt;/font&gt; &lt;font color=&quot;red&quot;&gt;PRO&#45;SET&lt;/font&gt; &lt;font color=&quot;blue&quot;&gt;THEY&lt;/font&gt; &lt;font color=&quot;green&quot;&gt;&lt;br /&gt;&lt;/font&gt; &lt;font color=&quot;green&quot;&gt;entity%1:03:00&lt;/font&gt; &lt;font color=&quot;green&quot;&gt;&lt;br /&gt; &lt;/font&gt;">
<text text-anchor="start" x="0" y="-194.6" font-family="Work Sans" font-size="8.00"> </text>
<text text-anchor="start" x="2.22" y="-194.6" font-family="Work Sans" font-size="8.00">REFERENTIAL&#45;SEM</text>
<text text-anchor="start" x="77.34" y="-194.6" font-family="Work Sans" font-size="8.00"> </text>
<text text-anchor="start" x="8" y="-186.6" font-family="Work Sans" font-size="8.00"> </text>
<text text-anchor="start" x="10.22" y="-186.6" font-family="Work Sans" font-size="8.00" fill="red">PRO&#45;SET</text>
<text text-anchor="start" x="45.78" y="-186.6" font-family="Work Sans" font-size="8.00"> </text>
<text text-anchor="start" x="48.01" y="-186.6" font-family="Work Sans" font-size="8.00" fill="blue">THEY</text>
<text text-anchor="start" x="69.34" y="-186.6" font-family="Work Sans" font-size="8.00"> </text>
<text text-anchor="start" x="11.1" y="-178.6" font-family="Work Sans" font-size="8.00"> </text>
<text text-anchor="start" x="13.32" y="-178.6" font-family="Work Sans" font-size="8.00" fill="green">entity%1:03:00</text>
<text text-anchor="start" x="66.25" y="-178.6" font-family="Work Sans" font-size="8.00"> </text>
<text text-anchor="start" x="38.67" y="-170.6" font-family="Work Sans" font-size="8.00" fill="green"> </text>
</a>
</g>
</g>
<!-- V312711&#45;&gt;V312705 -->
<g id="edge4" class="edge">
<title>V312711&#45;&gt;V312705</title>
<path fill="none" stroke="grey" stroke-width="0.5" d="M56.6,-335.96C53.13,-305.64 46.36,-246.45 42.55,-213.18"/>
<polygon fill="grey" stroke="grey" stroke-width="0.5" points="44.27,-212.84 41.97,-208.08 40.8,-213.24 44.27,-212.84"/>
<text text-anchor="middle" x="84.9" y="-269.6" font-family="Work Sans" font-size="8.00"> EXPERIENCER &#160;&#160;</text>
</g>
<!-- V312743 -->
<g id="node4" class="node">
<title>V312743</title>
<g id="a_node4"><a xlink:href="http://trips.ihmc.us/lexicon/data/ONT::TELL.xml" xlink:title="&lt;font color=&quot;green&quot;&gt;&lt;br /&gt;&lt;/font&gt; &lt;font color=&quot;black&quot;&gt;TELL&lt;/font&gt; &lt;font color=&quot;green&quot;&gt;&lt;br /&gt;&lt;/font&gt; &lt;font color=&quot;red&quot;&gt;F&lt;/font&gt; &lt;font color=&quot;blue&quot;&gt;ANNOUNCE&lt;/font&gt; &lt;font color=&quot;green&quot;&gt;&lt;br /&gt;&lt;/font&gt; &lt;font color=&quot;green&quot;&gt;announce%2:32:00::&lt;/font&gt; &lt;font color=&quot;green&quot;&gt;&lt;br /&gt; &lt;/font&gt;">
<text text-anchor="start" x="171" y="-278.6" font-family="Work Sans" font-size="8.00"> </text>
<text text-anchor="start" x="173.22" y="-278.6" font-family="Work Sans" font-size="8.00">TELL</text>
<text text-anchor="start" x="192.34" y="-278.6" font-family="Work Sans" font-size="8.00"> </text>
<text text-anchor="start" x="154.12" y="-270.6" font-family="Work Sans" font-size="8.00"> </text>
<text text-anchor="start" x="156.34" y="-270.6" font-family="Work Sans" font-size="8.00" fill="red">F</text>
<text text-anchor="start" x="161.22" y="-270.6" font-family="Work Sans" font-size="8.00"> </text>
<text text-anchor="start" x="163.45" y="-270.6" font-family="Work Sans" font-size="8.00" fill="blue">ANNOUNCE</text>
<text text-anchor="start" x="209.23" y="-270.6" font-family="Work Sans" font-size="8.00"> </text>
<text text-anchor="start" x="143.86" y="-262.6" font-family="Work Sans" font-size="8.00"> </text>
<text text-anchor="start" x="146.09" y="-262.6" font-family="Work Sans" font-size="8.00" fill="green">announce%2:32:00::</text>
<text text-anchor="start" x="219.48" y="-262.6" font-family="Work Sans" font-size="8.00"> </text>
<text text-anchor="start" x="181.67" y="-254.6" font-family="Work Sans" font-size="8.00" fill="green"> </text>
</a>
</g>
</g>
<!-- V312711&#45;&gt;V312743 -->
<g id="edge11" class="edge">
<title>V312711&#45;&gt;V312743</title>
<path fill="none" stroke="grey" stroke-width="0.5" d="M87.54,-335.98C106.03,-323.75 130.13,-307.82 149.45,-295.04"/>
<polygon fill="grey" stroke="grey" stroke-width="0.5" points="150.54,-296.42 153.75,-292.2 148.61,-293.5 150.54,-296.42"/>
<text text-anchor="middle" x="145.75" y="-311.6" font-family="Work Sans" font-size="8.00"> FORMAL &#160;&#160;</text>
</g>
<!-- V312743&#45;&gt;V312705 -->
<g id="edge9" class="edge">
<title>V312743&#45;&gt;V312705</title>
<path fill="none" stroke="grey" stroke-width="0.5" d="M143.62,-256.97C128.28,-250.8 110.82,-242.92 95.91,-234 85.13,-227.55 74.15,-219.21 64.8,-211.48"/>
<polygon fill="grey" stroke="grey" stroke-width="0.5" points="65.85,-210.08 60.89,-208.2 63.6,-212.76 65.85,-210.08"/>
<text text-anchor="middle" x="114.72" y="-227.6" font-family="Work Sans" font-size="8.00"> AGENT &#160;&#160;</text>
</g>
<!-- V312749 -->
<g id="node5" class="node">
<title>V312749</title>
<g id="a_node5"><a xlink:href="http://trips.ihmc.us/lexicon/data/ONT::REFERENTIAL-SEM.xml" xlink:title="&lt;font color=&quot;green&quot;&gt;&lt;br /&gt;&lt;/font&gt; &lt;font color=&quot;black&quot;&gt;REFERENTIAL&#45;SEM&lt;/font&gt; &lt;font color=&quot;green&quot;&gt;&lt;br /&gt;&lt;/font&gt; &lt;font color=&quot;red&quot;&gt;PRO&lt;/font&gt; &lt;font color=&quot;blue&quot;&gt;IT&lt;/font&gt; &lt;font color=&quot;green&quot;&gt;&lt;br /&gt;&lt;/font&gt; &lt;font color=&quot;green&quot;&gt;entity%1:03:00&lt;/font&gt; &lt;font color=&quot;green&quot;&gt;&lt;br /&gt; &lt;/font&gt;">
<text text-anchor="start" x="98" y="-194.6" font-family="Work Sans" font-size="8.00"> </text>
<text text-anchor="start" x="100.22" y="-194.6" font-family="Work Sans" font-size="8.00">REFERENTIAL&#45;SEM</text>
<text text-anchor="start" x="175.34" y="-194.6" font-family="Work Sans" font-size="8.00"> </text>
<text text-anchor="start" x="122.23" y="-186.6" font-family="Work Sans" font-size="8.00"> </text>
<text text-anchor="start" x="124.45" y="-186.6" font-family="Work Sans" font-size="8.00" fill="red">PRO</text>
<text text-anchor="start" x="141.79" y="-186.6" font-family="Work Sans" font-size="8.00"> </text>
<text text-anchor="start" x="144.01" y="-186.6" font-family="Work Sans" font-size="8.00" fill="blue">IT</text>
<text text-anchor="start" x="151.12" y="-186.6" font-family="Work Sans" font-size="8.00"> </text>
<text text-anchor="start" x="109.1" y="-178.6" font-family="Work Sans" font-size="8.00"> </text>
<text text-anchor="start" x="111.32" y="-178.6" font-family="Work Sans" font-size="8.00" fill="green">entity%1:03:00</text>
<text text-anchor="start" x="164.25" y="-178.6" font-family="Work Sans" font-size="8.00"> </text>
<text text-anchor="start" x="136.67" y="-170.6" font-family="Work Sans" font-size="8.00" fill="green"> </text>
</a>
</g>
</g>
<!-- V312743&#45;&gt;V312749 -->
<g id="edge3" class="edge">
<title>V312743&#45;&gt;V312749</title>
<path fill="none" stroke="grey" stroke-width="0.5" d="M151.79,-251.74C146.15,-246.7 141.05,-240.76 137.85,-234 134.87,-227.7 133.96,-220.32 134.04,-213.38"/>
<polygon fill="grey" stroke="grey" stroke-width="0.5" points="135.79,-213.26 134.27,-208.19 132.3,-213.1 135.79,-213.26"/>
<text text-anchor="middle" x="159.75" y="-227.6" font-family="Work Sans" font-size="8.00"> FORMAL &#160;&#160;</text>
</g>
<!-- V312874 -->
<g id="node6" class="node">
<title>V312874</title>
<g id="a_node6"><a xlink:href="http://trips.ihmc.us/lexicon/data/ONT::MANNER.xml" xlink:title="&lt;font color=&quot;green&quot;&gt;&lt;br /&gt;&lt;/font&gt; &lt;font color=&quot;black&quot;&gt;MANNER&lt;/font&gt; &lt;font color=&quot;green&quot;&gt;&lt;br /&gt;&lt;/font&gt; &lt;font color=&quot;red&quot;&gt;F&lt;/font&gt; &lt;font color=&quot;blue&quot;&gt;* &lt;/font&gt; &lt;font color=&quot;green&quot;&gt;&lt;br /&gt; &lt;/font&gt;">
<polygon fill="pink" stroke="transparent" stroke-width="0.5" points="249.17,-172 268.78,-172 268.78,-204 249.17,-204 249.17,-172"/>
<polygon fill="lightblue" stroke="transparent" stroke-width="0.5" points="268.78,-172 288.4,-172 288.4,-204 268.78,-204 268.78,-172"/>
<polygon fill="none" stroke="transparent" points="288.4,-204 249.17,-204 249.17,-172 288.4,-172 288.4,-204"/>
<text text-anchor="start" x="249.23" y="-190.6" font-family="Work Sans" font-size="8.00"> </text>
<text text-anchor="start" x="251.45" y="-190.6" font-family="Work Sans" font-size="8.00">MANNER</text>
<text text-anchor="start" x="286.12" y="-190.6" font-family="Work Sans" font-size="8.00"> </text>
<text text-anchor="start" x="260.34" y="-182.6" font-family="Work Sans" font-size="8.00"> </text>
<text text-anchor="start" x="262.56" y="-182.6" font-family="Work Sans" font-size="8.00" fill="red">F</text>
<text text-anchor="start" x="267.45" y="-182.6" font-family="Work Sans" font-size="8.00"> </text>
<text text-anchor="start" x="269.67" y="-182.6" font-family="Work Sans" font-size="8.00" fill="blue">* </text>
<text text-anchor="start" x="275.01" y="-182.6" font-family="Work Sans" font-size="8.00"> </text>
<text text-anchor="start" x="267.67" y="-174.6" font-family="Work Sans" font-size="8.00" fill="green"> </text>
</a>
</g>
</g>
<!-- V312743&#45;&gt;V312874 -->
<g id="edge1" class="edge">
<title>V312743&#45;&gt;V312874</title>
<path fill="none" stroke="red" d="M188.4,-251.93C191.67,-243.27 196.5,-233.34 203.22,-226 214.47,-213.73 230.75,-204.51 244.28,-198.34"/>
<polygon fill="red" stroke="red" points="245.25,-199.83 249.12,-196.21 243.84,-196.62 245.25,-199.83"/>
<text text-anchor="middle" x="225.56" y="-227.6" font-family="Work Sans" font-size="8.00"> MANNER &#160;&#160;</text>
</g>
<!-- V312743&#45;&gt;V312874 -->
<g id="edge5" class="edge">
<title>V312743&#45;&gt;V312874</title>
<path fill="none" stroke="blue" d="M221.67,-253.43C230.68,-248.1 239.69,-241.6 246.78,-234 253.37,-226.94 258.38,-217.55 261.94,-209.17"/>
<polygon fill="blue" stroke="blue" points="263.73,-209.41 263.97,-204.11 260.48,-208.1 263.73,-209.41"/>
<text text-anchor="middle" x="253.89" y="-227.6" font-family="Work Sans" font-size="8.00">.</text>
</g>
<!-- V312874&#45;&gt;V312743 -->
<g id="edge6" class="edge">
<title>V312874&#45;&gt;V312743</title>
<path fill="none" stroke="grey" stroke-width="0.5" d="M268.66,-204.18C267.86,-213.65 265.43,-225.58 258.78,-234 250.52,-244.47 238.53,-252.18 226.52,-257.75"/>
<polygon fill="grey" stroke="grey" stroke-width="0.5" points="225.61,-256.24 221.74,-259.86 227.02,-259.44 225.61,-256.24"/>
<text text-anchor="middle" x="282.34" y="-227.6" font-family="Work Sans" font-size="8.00"> FIGURE &#160;&#160;</text>
</g>
<!-- V312830 -->
<g id="node7" class="node">
<title>V312830</title>
<g id="a_node7"><a xlink:href="http://trips.ihmc.us/lexicon/data/ONT::METHOD.xml" xlink:title="&lt;font color=&quot;green&quot;&gt;&lt;br /&gt;&lt;/font&gt; &lt;font color=&quot;black&quot;&gt;METHOD&lt;/font&gt; &lt;font color=&quot;green&quot;&gt;&lt;br /&gt;&lt;/font&gt; &lt;font color=&quot;red&quot;&gt;A&lt;/font&gt; &lt;font color=&quot;blue&quot;&gt;WAY&lt;/font&gt; &lt;font color=&quot;green&quot;&gt;&lt;br /&gt;&lt;/font&gt; &lt;font color=&quot;green&quot;&gt;way%1:04:01::&lt;/font&gt; &lt;font color=&quot;green&quot;&gt;&lt;br /&gt; &lt;/font&gt;">
<polygon fill="pink" stroke="transparent" stroke-width="0.5" points="240.36,-84 268.78,-84 268.78,-124 240.36,-124 240.36,-84"/>
<polygon fill="lightblue" stroke="transparent" stroke-width="0.5" points="268.78,-84 297.21,-84 297.21,-124 268.78,-124 268.78,-84"/>
<polygon fill="none" stroke="transparent" points="297.21,-124 240.36,-124 240.36,-84 297.21,-84 297.21,-124"/>
<text text-anchor="start" x="249.23" y="-110.6" font-family="Work Sans" font-size="8.00"> </text>
<text text-anchor="start" x="251.45" y="-110.6" font-family="Work Sans" font-size="8.00">METHOD</text>
<text text-anchor="start" x="286.12" y="-110.6" font-family="Work Sans" font-size="8.00"> </text>
<text text-anchor="start" x="254.11" y="-102.6" font-family="Work Sans" font-size="8.00"> </text>
<text text-anchor="start" x="256.33" y="-102.6" font-family="Work Sans" font-size="8.00" fill="red">A</text>
<text text-anchor="start" x="261.67" y="-102.6" font-family="Work Sans" font-size="8.00"> </text>
<text text-anchor="start" x="263.89" y="-102.6" font-family="Work Sans" font-size="8.00" fill="blue">WAY</text>
<text text-anchor="start" x="281.23" y="-102.6" font-family="Work Sans" font-size="8.00"> </text>
<text text-anchor="start" x="240.32" y="-94.6" font-family="Work Sans" font-size="8.00"> </text>
<text text-anchor="start" x="242.54" y="-94.6" font-family="Work Sans" font-size="8.00" fill="green">way%1:04:01::</text>
<text text-anchor="start" x="295.02" y="-94.6" font-family="Work Sans" font-size="8.00"> </text>
<text text-anchor="start" x="267.67" y="-86.6" font-family="Work Sans" font-size="8.00" fill="green"> </text>
</a>
</g>
</g>
<!-- V312874&#45;&gt;V312830 -->
<g id="edge2" class="edge">
<title>V312874&#45;&gt;V312830</title>
<path fill="none" stroke="grey" stroke-width="0.5" d="M268.78,-171.96C268.78,-160.12 268.78,-143.38 268.78,-129.6"/>
<polygon fill="grey" stroke="grey" stroke-width="0.5" points="270.53,-129.29 268.78,-124.29 267.03,-129.29 270.53,-129.29"/>
<text text-anchor="middle" x="291.01" y="-143.6" font-family="Work Sans" font-size="8.00"> GROUND &#160;&#160;</text>
</g>
<!-- V312818 -->
<g id="node8" class="node">
<title>V312818</title>
<g id="a_node8"><a xlink:href="http://trips.ihmc.us/lexicon/data/ONT::INTERESTING-VAL.xml" xlink:title="&lt;font color=&quot;green&quot;&gt;&lt;br /&gt;&lt;/font&gt; &lt;font color=&quot;black&quot;&gt;INTERESTING&#45;VAL&lt;/font&gt; &lt;font color=&quot;green&quot;&gt;&lt;br /&gt;&lt;/font&gt; &lt;font color=&quot;red&quot;&gt;F&lt;/font&gt; &lt;font color=&quot;blue&quot;&gt;INTERESTING&lt;/font&gt; &lt;font color=&quot;green&quot;&gt;&lt;br /&gt;&lt;/font&gt; &lt;font color=&quot;green&quot;&gt;interesting%3:00:00::&lt;/font&gt; &lt;font color=&quot;green&quot;&gt;&lt;br /&gt; &lt;/font&gt;">
<polygon fill="pink" stroke="transparent" stroke-width="0.5" points="229.18,0 268.78,0 268.78,-40 229.18,-40 229.18,0"/>
<polygon fill="lightblue" stroke="transparent" stroke-width="0.5" points="268.78,0 308.39,0 308.39,-40 268.78,-40 268.78,0"/>
<polygon fill="none" stroke="transparent" points="308.39,-40 229.18,-40 229.18,0 308.39,0 308.39,-40"/>
<text text-anchor="start" x="231.07" y="-26.6" font-family="Work Sans" font-size="8.00"> </text>
<text text-anchor="start" x="233.29" y="-26.6" font-family="Work Sans" font-size="8.00">INTERESTING&#45;VAL</text>
<text text-anchor="start" x="304.27" y="-26.6" font-family="Work Sans" font-size="8.00"> </text>
<text text-anchor="start" x="236.12" y="-18.6" font-family="Work Sans" font-size="8.00"> </text>
<text text-anchor="start" x="238.34" y="-18.6" font-family="Work Sans" font-size="8.00" fill="red">F</text>
<text text-anchor="start" x="243.22" y="-18.6" font-family="Work Sans" font-size="8.00"> </text>
<text text-anchor="start" x="245.45" y="-18.6" font-family="Work Sans" font-size="8.00" fill="blue">INTERESTING</text>
<text text-anchor="start" x="299.23" y="-18.6" font-family="Work Sans" font-size="8.00"> </text>
<text text-anchor="start" x="228.98" y="-10.6" font-family="Work Sans" font-size="8.00"> </text>
<text text-anchor="start" x="231.2" y="-10.6" font-family="Work Sans" font-size="8.00" fill="green">interesting%3:00:00::</text>
<text text-anchor="start" x="306.36" y="-10.6" font-family="Work Sans" font-size="8.00"> </text>
<text text-anchor="start" x="267.67" y="-2.6" font-family="Work Sans" font-size="8.00" fill="green"> </text>
</a>
</g>
</g>
<!-- V312830&#45;&gt;V312818 -->
<g id="edge8" class="edge">
<title>V312830&#45;&gt;V312818</title>
<path fill="none" stroke="red" d="M240.32,-88.5C231.97,-82.72 223.85,-75.21 219.23,-66 215.01,-57.59 218.42,-49.99 225.06,-43.54"/>
<polygon fill="red" stroke="red" points="226.42,-44.67 229.05,-40.07 224.13,-42.03 226.42,-44.67"/>
<text text-anchor="middle" x="233.56" y="-59.6" font-family="Work Sans" font-size="8.00"> MOD &#160;&#160;</text>
</g>
<!-- V312830&#45;&gt;V312818 -->
<g id="edge10" class="edge">
<title>V312830&#45;&gt;V312818</title>
<path fill="none" stroke="blue" d="M268.78,-83.98C268.78,-72.47 268.78,-57.68 268.78,-45.33"/>
<polygon fill="blue" stroke="blue" points="270.53,-45.2 268.78,-40.2 267.03,-45.2 270.53,-45.2"/>
<text text-anchor="middle" x="269.89" y="-59.6" font-family="Work Sans" font-size="8.00">.</text>
</g>
<!-- V312818&#45;&gt;V312830 -->
<g id="edge12" class="edge">
<title>V312818&#45;&gt;V312830</title>
<path fill="none" stroke="grey" stroke-width="0.5" d="M270.64,-40.19C271.11,-45.91 271.55,-52.2 271.78,-58 272.06,-64.73 271.81,-72.02 271.35,-78.74"/>
<polygon fill="grey" stroke="grey" stroke-width="0.5" points="269.61,-78.62 270.97,-83.74 273.1,-78.89 269.61,-78.62"/>
<text text-anchor="middle" x="291.34" y="-59.6" font-family="Work Sans" font-size="8.00"> FIGURE &#160;&#160;</text>
</g>
</g>
</svg>
