<?xml version="1.0" encoding="UTF-8" standalone="no"?>
<!DOCTYPE svg PUBLIC "-//W3C//DTD SVG 1.1//EN"
 "http://www.w3.org/Graphics/SVG/1.1/DTD/svg11.dtd">
<!-- Generated by graphviz version 2.43.0 (0)
 -->
<!-- Title: graph Pages: 1 -->
<svg width="238pt" height="284pt"
 viewBox="0.00 0.00 238.03 284.00" xmlns="http://www.w3.org/2000/svg" xmlns:xlink="http://www.w3.org/1999/xlink">
<g id="graph0" class="graph" transform="scale(1 1) rotate(0) translate(4 280)">
<title>graph</title>
<polygon fill="white" stroke="transparent" points="-4,4 -4,-280 234.03,-280 234.03,4 -4,4"/>
<!-- V74109 -->
<g id="node1" class="node">
<title>V74109</title>
<g id="a_node1"><a xlink:href="http://trips.ihmc.us/lexicon/data/ONT::SA_WH-QUESTION.xml" xlink:title="&lt;font color=&quot;green&quot;&gt;&lt;br /&gt;&lt;/font&gt; &lt;font color=&quot;black&quot;&gt;SA_WH&#45;QUESTION&lt;/font&gt; &lt;font color=&quot;green&quot;&gt;&lt;br /&gt;&lt;/font&gt; &lt;font color=&quot;red&quot;&gt;SPEECHACT&lt;/font&gt; &lt;font color=&quot;blue&quot;&gt;* &lt;/font&gt; &lt;font color=&quot;green&quot;&gt;&lt;br /&gt; &lt;/font&gt;">
<text text-anchor="start" x="95.47" y="-262.6" font-family="Work Sans" font-size="8.00"> </text>
<text text-anchor="start" x="97.69" y="-262.6" font-family="Work Sans" font-size="8.00">SA_WH&#45;QUESTION</text>
<text text-anchor="start" x="170.59" y="-262.6" font-family="Work Sans" font-size="8.00"> </text>
<text text-anchor="start" x="103.69" y="-254.6" font-family="Work Sans" font-size="8.00"> </text>
<text text-anchor="start" x="105.91" y="-254.6" font-family="Work Sans" font-size="8.00" fill="red">SPEECHACT</text>
<text text-anchor="start" x="154.81" y="-254.6" font-family="Work Sans" font-size="8.00"> </text>
<text text-anchor="start" x="157.03" y="-254.6" font-family="Work Sans" font-size="8.00" fill="blue">* </text>
<text text-anchor="start" x="162.37" y="-254.6" font-family="Work Sans" font-size="8.00"> </text>
<text text-anchor="start" x="133.03" y="-246.6" font-family="Work Sans" font-size="8.00" fill="green"> </text>
</a>
</g>
</g>
<!-- V73708 -->
<g id="node2" class="node">
<title>V73708</title>
<g id="a_node2"><a xlink:href="http://trips.ihmc.us/lexicon/data/ONT::OCCURRING.xml" xlink:title="&lt;font color=&quot;green&quot;&gt;&lt;br /&gt;&lt;/font&gt; &lt;font color=&quot;black&quot;&gt;OCCURRING&lt;/font&gt; &lt;font color=&quot;green&quot;&gt;&lt;br /&gt;&lt;/font&gt; &lt;font color=&quot;red&quot;&gt;F&lt;/font&gt; &lt;font color=&quot;blue&quot;&gt;GO&lt;/font&gt; &lt;font color=&quot;green&quot;&gt;&lt;br /&gt;&lt;/font&gt; &lt;font color=&quot;green&quot;&gt;go%2:30:01::&lt;/font&gt; &lt;font color=&quot;green&quot;&gt;&lt;br /&gt; &lt;/font&gt;">
<polygon fill="pink" stroke="transparent" points="111.92,-200 58.36,-200 58.36,-160 111.92,-160 111.92,-200"/>
<text text-anchor="start" x="58.25" y="-186.6" font-family="Work Sans" font-size="8.00"> </text>
<text text-anchor="start" x="60.47" y="-186.6" font-family="Work Sans" font-size="8.00">OCCURRING</text>
<text text-anchor="start" x="109.81" y="-186.6" font-family="Work Sans" font-size="8.00"> </text>
<text text-anchor="start" x="73.14" y="-178.6" font-family="Work Sans" font-size="8.00"> </text>
<text text-anchor="start" x="75.36" y="-178.6" font-family="Work Sans" font-size="8.00" fill="red">F</text>
<text text-anchor="start" x="80.25" y="-178.6" font-family="Work Sans" font-size="8.00"> </text>
<text text-anchor="start" x="82.47" y="-178.6" font-family="Work Sans" font-size="8.00" fill="blue">GO</text>
<text text-anchor="start" x="94.92" y="-178.6" font-family="Work Sans" font-size="8.00"> </text>
<text text-anchor="start" x="59.34" y="-170.6" font-family="Work Sans" font-size="8.00"> </text>
<text text-anchor="start" x="61.57" y="-170.6" font-family="Work Sans" font-size="8.00" fill="green">go%2:30:01::</text>
<text text-anchor="start" x="108.72" y="-170.6" font-family="Work Sans" font-size="8.00"> </text>
<text text-anchor="start" x="84.03" y="-162.6" font-family="Work Sans" font-size="8.00" fill="green"> </text>
</a>
</g>
</g>
<!-- V74109&#45;&gt;V73708 -->
<g id="edge6" class="edge">
<title>V74109&#45;&gt;V73708</title>
<path fill="none" stroke="grey" stroke-width="0.5" d="M124.69,-243.96C117.65,-232.74 107.89,-217.21 99.83,-204.38"/>
<polygon fill="grey" stroke="grey" stroke-width="0.5" points="101.31,-203.45 97.17,-200.14 98.34,-205.31 101.31,-203.45"/>
<text text-anchor="middle" x="135.85" y="-219.6" font-family="Work Sans" font-size="8.00"> CONTENT &#160;&#160;</text>
</g>
<!-- V73753 -->
<g id="node4" class="node">
<title>V73753</title>
<g id="a_node4"><a xlink:href="http://trips.ihmc.us/lexicon/data/ONT::METHOD.xml" xlink:title="&lt;font color=&quot;green&quot;&gt;&lt;br /&gt;&lt;/font&gt; &lt;font color=&quot;black&quot;&gt;METHOD&lt;/font&gt; &lt;font color=&quot;green&quot;&gt;&lt;br /&gt;&lt;/font&gt; &lt;font color=&quot;red&quot;&gt;WH&#45;TERM&lt;/font&gt; &lt;font color=&quot;blue&quot;&gt;* &lt;/font&gt; &lt;font color=&quot;green&quot;&gt;&lt;br /&gt; &lt;/font&gt;">
<polygon fill="lightblue" stroke="transparent" points="134.3,-32 83.98,-32 83.98,0 134.3,0 134.3,-32"/>
<text text-anchor="start" x="89.59" y="-18.6" font-family="Work Sans" font-size="8.00"> </text>
<text text-anchor="start" x="91.81" y="-18.6" font-family="Work Sans" font-size="8.00">METHOD</text>
<text text-anchor="start" x="126.47" y="-18.6" font-family="Work Sans" font-size="8.00"> </text>
<text text-anchor="start" x="83.81" y="-10.6" font-family="Work Sans" font-size="8.00"> </text>
<text text-anchor="start" x="86.03" y="-10.6" font-family="Work Sans" font-size="8.00" fill="red">WH&#45;TERM</text>
<text text-anchor="start" x="124.69" y="-10.6" font-family="Work Sans" font-size="8.00"> </text>
<text text-anchor="start" x="126.91" y="-10.6" font-family="Work Sans" font-size="8.00" fill="blue">* </text>
<text text-anchor="start" x="132.25" y="-10.6" font-family="Work Sans" font-size="8.00"> </text>
<text text-anchor="start" x="108.03" y="-2.6" font-family="Work Sans" font-size="8.00" fill="green"> </text>
</a>
</g>
</g>
<!-- V74109&#45;&gt;V73753 -->
<g id="edge4" class="edge">
<title>V74109&#45;&gt;V73753</title>
<path fill="none" stroke="grey" stroke-width="0.5" d="M150.67,-243.9C155.43,-238.69 160.13,-232.51 163.14,-226 191.25,-165.13 207.41,-136.79 179.14,-76 170.75,-57.95 153.82,-43.44 138.71,-33.33"/>
<polygon fill="grey" stroke="grey" stroke-width="0.5" points="139.65,-31.85 134.5,-30.59 137.74,-34.79 139.65,-31.85"/>
<text text-anchor="middle" x="211.59" y="-135.6" font-family="Work Sans" font-size="8.00"> FOCUS &#160;&#160;</text>
</g>
<!-- V73665 -->
<g id="node3" class="node">
<title>V73665</title>
<g id="a_node3"><a xlink:href="http://trips.ihmc.us/lexicon/data/ONT::BY-MEANS-OF.xml" xlink:title="&lt;font color=&quot;green&quot;&gt;&lt;br /&gt;&lt;/font&gt; &lt;font color=&quot;black&quot;&gt;BY&#45;MEANS&#45;OF&lt;/font&gt; &lt;font color=&quot;green&quot;&gt;&lt;br /&gt;&lt;/font&gt; &lt;font color=&quot;red&quot;&gt;F&lt;/font&gt; &lt;font color=&quot;blue&quot;&gt;HOW&lt;/font&gt; &lt;font color=&quot;green&quot;&gt;&lt;br /&gt; &lt;/font&gt;">
<polygon fill="lightblue" stroke="transparent" points="71.91,-112 12.37,-112 12.37,-80 71.91,-80 71.91,-112"/>
<text text-anchor="start" x="12.51" y="-98.6" font-family="Work Sans" font-size="8.00"> </text>
<text text-anchor="start" x="14.73" y="-98.6" font-family="Work Sans" font-size="8.00">BY&#45;MEANS&#45;OF</text>
<text text-anchor="start" x="69.55" y="-98.6" font-family="Work Sans" font-size="8.00"> </text>
<text text-anchor="start" x="26.59" y="-90.6" font-family="Work Sans" font-size="8.00"> </text>
<text text-anchor="start" x="28.81" y="-90.6" font-family="Work Sans" font-size="8.00" fill="red">F</text>
<text text-anchor="start" x="33.7" y="-90.6" font-family="Work Sans" font-size="8.00"> </text>
<text text-anchor="start" x="35.92" y="-90.6" font-family="Work Sans" font-size="8.00" fill="blue">HOW</text>
<text text-anchor="start" x="55.47" y="-90.6" font-family="Work Sans" font-size="8.00"> </text>
<text text-anchor="start" x="41.03" y="-82.6" font-family="Work Sans" font-size="8.00" fill="green"> </text>
</a>
</g>
</g>
<!-- V73708&#45;&gt;V73665 -->
<g id="edge5" class="edge">
<title>V73708&#45;&gt;V73665</title>
<path fill="none" stroke="red" stroke-width="0.5" d="M57.99,-175.73C38.77,-171.12 14.44,-161.78 1.75,-142.54 -4.34,-132.07 1.68,-122.62 10.89,-114.6"/>
<path fill="none" stroke="blue" stroke-width="0.5" d="M58.46,-173.78C39.48,-169.25 15.15,-159.92 3.43,-141.46 -2.66,-133.14 3.37,-123.69 12.2,-116.11"/>
<polygon fill="red" stroke="red" stroke-width="0.5" points="12.77,-116.62 15.57,-112.12 10.58,-113.89 12.77,-116.62"/>
<text text-anchor="middle" x="24.92" y="-135.6" font-family="Work Sans" font-size="8.00"> METHOD &#160;&#160;</text>
</g>
<!-- V73693 -->
<g id="node5" class="node">
<title>V73693</title>
<g id="a_node5"><a xlink:href="http://trips.ihmc.us/lexicon/data/ONT::COMPOSITION.xml" xlink:title="&lt;font color=&quot;green&quot;&gt;&lt;br /&gt;&lt;/font&gt; &lt;font color=&quot;black&quot;&gt;COMPOSITION&lt;/font&gt; &lt;font color=&quot;green&quot;&gt;&lt;br /&gt;&lt;/font&gt; &lt;font color=&quot;red&quot;&gt;THE&lt;/font&gt; &lt;font color=&quot;blue&quot;&gt;STORY&lt;/font&gt; &lt;font color=&quot;green&quot;&gt;&lt;br /&gt;&lt;/font&gt; &lt;font color=&quot;green&quot;&gt;composition%1:07:01&lt;/font&gt; &lt;font color=&quot;green&quot;&gt;&lt;br /&gt; &lt;/font&gt;">
<text text-anchor="start" x="99.47" y="-102.6" font-family="Work Sans" font-size="8.00"> </text>
<text text-anchor="start" x="101.7" y="-102.6" font-family="Work Sans" font-size="8.00">COMPOSITION</text>
<text text-anchor="start" x="158.59" y="-102.6" font-family="Work Sans" font-size="8.00"> </text>
<text text-anchor="start" x="105.17" y="-94.6" font-family="Work Sans" font-size="8.00"> </text>
<text text-anchor="start" x="107.39" y="-94.6" font-family="Work Sans" font-size="8.00" fill="red">THE</text>
<text text-anchor="start" x="123.39" y="-94.6" font-family="Work Sans" font-size="8.00"> </text>
<text text-anchor="start" x="125.61" y="-94.6" font-family="Work Sans" font-size="8.00" fill="blue">STORY</text>
<text text-anchor="start" x="152.89" y="-94.6" font-family="Work Sans" font-size="8.00"> </text>
<text text-anchor="start" x="89.67" y="-86.6" font-family="Work Sans" font-size="8.00"> </text>
<text text-anchor="start" x="91.89" y="-86.6" font-family="Work Sans" font-size="8.00" fill="green">composition%1:07:01</text>
<text text-anchor="start" x="168.39" y="-86.6" font-family="Work Sans" font-size="8.00"> </text>
<text text-anchor="start" x="129.03" y="-78.6" font-family="Work Sans" font-size="8.00" fill="green"> </text>
</a>
</g>
</g>
<!-- V73708&#45;&gt;V73693 -->
<g id="edge3" class="edge">
<title>V73708&#45;&gt;V73693</title>
<path fill="none" stroke="red" stroke-width="0.5" d="M96.79,-159.93C100.21,-154.21 103.89,-147.89 107.14,-142 110.86,-135.26 114.73,-127.85 118.22,-121.03"/>
<polygon fill="red" stroke="red" stroke-width="0.5" points="119.86,-121.66 120.56,-116.41 116.74,-120.08 119.86,-121.66"/>
<text text-anchor="middle" x="133.11" y="-135.6" font-family="Work Sans" font-size="8.00"> NEUTRAL &#160;&#160;</text>
</g>
<!-- V73665&#45;&gt;V73708 -->
<g id="edge7" class="edge">
<title>V73665&#45;&gt;V73708</title>
<path fill="none" stroke="grey" stroke-width="0.5" d="M50.05,-112.09C56.41,-124.21 65.45,-141.45 72.76,-155.39"/>
<polygon fill="grey" stroke="grey" stroke-width="0.5" points="71.3,-156.37 75.17,-159.98 74.4,-154.74 71.3,-156.37"/>
<text text-anchor="middle" x="83.7" y="-135.6" font-family="Work Sans" font-size="8.00"> FIGURE &#160;&#160;</text>
</g>
<!-- V73665&#45;&gt;V73753 -->
<g id="edge1" class="edge">
<title>V73665&#45;&gt;V73753</title>
<path fill="none" stroke="grey" stroke-width="0.5" d="M38.54,-79.7C37.23,-70.42 37.21,-58.73 42.7,-50 50.75,-37.18 65.42,-29.17 78.93,-24.27"/>
<polygon fill="grey" stroke="grey" stroke-width="0.5" points="79.67,-25.86 83.84,-22.59 78.55,-22.55 79.67,-25.86"/>
<text text-anchor="middle" x="64.36" y="-51.6" font-family="Work Sans" font-size="8.00"> GROUND &#160;&#160;</text>
</g>
<!-- V73753&#45;&gt;V73665 -->
<g id="edge2" class="edge">
<title>V73753&#45;&gt;V73665</title>
<path fill="none" stroke="grey" stroke-width="0.5" d="M102.7,-32.29C98.86,-40.4 93.5,-50.26 87.14,-58 81.61,-64.73 74.71,-71.12 67.99,-76.64"/>
<polygon fill="grey" stroke="grey" stroke-width="0.5" points="66.65,-75.47 63.83,-79.96 68.83,-78.2 66.65,-75.47"/>
<text text-anchor="middle" x="118" y="-51.6" font-family="Work Sans" font-size="8.00"> SUCHTHAT &#160;&#160;</text>
</g>
</g>
</svg>
