<?xml version="1.0" encoding="UTF-8" standalone="no"?>
<!DOCTYPE svg PUBLIC "-//W3C//DTD SVG 1.1//EN"
 "http://www.w3.org/Graphics/SVG/1.1/DTD/svg11.dtd">
<!-- Generated by graphviz version 2.43.0 (0)
 -->
<!-- Title: graph Pages: 1 -->
<svg width="353pt" height="452pt"
 viewBox="0.00 0.00 352.75 452.00" xmlns="http://www.w3.org/2000/svg" xmlns:xlink="http://www.w3.org/1999/xlink">
<g id="graph0" class="graph" transform="scale(1 1) rotate(0) translate(4 448)">
<title>graph</title>
<polygon fill="white" stroke="transparent" points="-4,4 -4,-448 348.75,-448 348.75,4 -4,4"/>
<!-- V88416 -->
<g id="node1" class="node">
<title>V88416</title>
<g id="a_node1"><a xlink:href="http://trips.ihmc.us/lexicon/data/ONT::SA_TELL.xml" xlink:title="&lt;font color=&quot;green&quot;&gt;&lt;br /&gt;&lt;/font&gt; &lt;font color=&quot;black&quot;&gt;SA_TELL&lt;/font&gt; &lt;font color=&quot;green&quot;&gt;&lt;br /&gt;&lt;/font&gt; &lt;font color=&quot;red&quot;&gt;SPEECHACT&lt;/font&gt; &lt;font color=&quot;blue&quot;&gt;* &lt;/font&gt; &lt;font color=&quot;green&quot;&gt;&lt;br /&gt; &lt;/font&gt;">
<text text-anchor="start" x="78.66" y="-430.6" font-family="Work Sans" font-size="8.00"> </text>
<text text-anchor="start" x="80.88" y="-430.6" font-family="Work Sans" font-size="8.00">SA_TELL</text>
<text text-anchor="start" x="115.12" y="-430.6" font-family="Work Sans" font-size="8.00"> </text>
<text text-anchor="start" x="67.55" y="-422.6" font-family="Work Sans" font-size="8.00"> </text>
<text text-anchor="start" x="69.77" y="-422.6" font-family="Work Sans" font-size="8.00" fill="red">SPEECHACT</text>
<text text-anchor="start" x="118.67" y="-422.6" font-family="Work Sans" font-size="8.00"> </text>
<text text-anchor="start" x="120.89" y="-422.6" font-family="Work Sans" font-size="8.00" fill="blue">* </text>
<text text-anchor="start" x="126.23" y="-422.6" font-family="Work Sans" font-size="8.00"> </text>
<text text-anchor="start" x="96.89" y="-414.6" font-family="Work Sans" font-size="8.00" fill="green"> </text>
</a>
</g>
</g>
<!-- V87863 -->
<g id="node2" class="node">
<title>V87863</title>
<g id="a_node2"><a xlink:href="http://trips.ihmc.us/lexicon/data/ONT::HAVE-PROPERTY.xml" xlink:title="&lt;font color=&quot;green&quot;&gt;&lt;br /&gt;&lt;/font&gt; &lt;font color=&quot;black&quot;&gt;HAVE&#45;PROPERTY&lt;/font&gt; &lt;font color=&quot;green&quot;&gt;&lt;br /&gt;&lt;/font&gt; &lt;font color=&quot;red&quot;&gt;F&lt;/font&gt; &lt;font color=&quot;blue&quot;&gt;BE&lt;/font&gt; &lt;font color=&quot;green&quot;&gt;&lt;br /&gt;&lt;/font&gt; &lt;font color=&quot;green&quot;&gt;be%2:42:03::&lt;/font&gt; &lt;font color=&quot;green&quot;&gt;&lt;br /&gt; &lt;/font&gt;">
<polygon fill="pink" stroke="transparent" stroke-width="0.5" points="61.83,-328 98,-328 98,-368 61.83,-368 61.83,-328"/>
<polygon fill="lightblue" stroke="transparent" stroke-width="0.5" points="98,-328 134.17,-328 134.17,-368 98,-368 98,-328"/>
<polygon fill="none" stroke="transparent" points="134.17,-368 61.83,-368 61.83,-328 134.17,-328 134.17,-368"/>
<text text-anchor="start" x="61.91" y="-354.6" font-family="Work Sans" font-size="8.00"> </text>
<text text-anchor="start" x="64.14" y="-354.6" font-family="Work Sans" font-size="8.00">HAVE&#45;PROPERTY</text>
<text text-anchor="start" x="131.86" y="-354.6" font-family="Work Sans" font-size="8.00"> </text>
<text text-anchor="start" x="86.89" y="-346.6" font-family="Work Sans" font-size="8.00"> </text>
<text text-anchor="start" x="89.11" y="-346.6" font-family="Work Sans" font-size="8.00" fill="red">F</text>
<text text-anchor="start" x="94" y="-346.6" font-family="Work Sans" font-size="8.00"> </text>
<text text-anchor="start" x="96.22" y="-346.6" font-family="Work Sans" font-size="8.00" fill="blue">BE</text>
<text text-anchor="start" x="106.89" y="-346.6" font-family="Work Sans" font-size="8.00"> </text>
<text text-anchor="start" x="72.2" y="-338.6" font-family="Work Sans" font-size="8.00"> </text>
<text text-anchor="start" x="74.43" y="-338.6" font-family="Work Sans" font-size="8.00" fill="green">be%2:42:03::</text>
<text text-anchor="start" x="121.57" y="-338.6" font-family="Work Sans" font-size="8.00"> </text>
<text text-anchor="start" x="96.89" y="-330.6" font-family="Work Sans" font-size="8.00" fill="green"> </text>
</a>
</g>
</g>
<!-- V88416&#45;&gt;V87863 -->
<g id="edge3" class="edge">
<title>V88416&#45;&gt;V87863</title>
<path fill="none" stroke="grey" stroke-width="0.5" d="M98,-411.96C98,-401.04 98,-386.02 98,-373.39"/>
<polygon fill="grey" stroke="grey" stroke-width="0.5" points="99.75,-373.14 98,-368.14 96.25,-373.14 99.75,-373.14"/>
<text text-anchor="middle" x="121.71" y="-387.6" font-family="Work Sans" font-size="8.00"> CONTENT &#160;&#160;</text>
</g>
<!-- V87852 -->
<g id="node3" class="node">
<title>V87852</title>
<g id="a_node3"><a xlink:href="http://trips.ihmc.us/lexicon/data/ONT::MALE-PERSON.xml" xlink:title="&lt;font color=&quot;green&quot;&gt;&lt;br /&gt;&lt;/font&gt; &lt;font color=&quot;black&quot;&gt;MALE&#45;PERSON&lt;/font&gt; &lt;font color=&quot;green&quot;&gt;&lt;br /&gt;&lt;/font&gt; &lt;font color=&quot;red&quot;&gt;THE&lt;/font&gt; &lt;font color=&quot;blue&quot;&gt;CHESTER&lt;/font&gt; &lt;font color=&quot;green&quot;&gt;&lt;br /&gt;&lt;/font&gt; &lt;font color=&quot;green&quot;&gt;man%1:18:00&lt;/font&gt; &lt;font color=&quot;green&quot;&gt;&lt;br /&gt; &lt;/font&gt;">
<text text-anchor="start" x="113.66" y="-26.6" font-family="Work Sans" font-size="8.00"> </text>
<text text-anchor="start" x="115.88" y="-26.6" font-family="Work Sans" font-size="8.00">MALE&#45;PERSON</text>
<text text-anchor="start" x="174.12" y="-26.6" font-family="Work Sans" font-size="8.00"> </text>
<text text-anchor="start" x="114.55" y="-18.6" font-family="Work Sans" font-size="8.00"> </text>
<text text-anchor="start" x="116.78" y="-18.6" font-family="Work Sans" font-size="8.00" fill="red">THE</text>
<text text-anchor="start" x="132.78" y="-18.6" font-family="Work Sans" font-size="8.00"> </text>
<text text-anchor="start" x="135" y="-18.6" font-family="Work Sans" font-size="8.00" fill="blue">CHESTER</text>
<text text-anchor="start" x="173.22" y="-18.6" font-family="Work Sans" font-size="8.00"> </text>
<text text-anchor="start" x="118.09" y="-10.6" font-family="Work Sans" font-size="8.00"> </text>
<text text-anchor="start" x="120.32" y="-10.6" font-family="Work Sans" font-size="8.00" fill="green">man%1:18:00</text>
<text text-anchor="start" x="169.68" y="-10.6" font-family="Work Sans" font-size="8.00"> </text>
<text text-anchor="start" x="143.89" y="-2.6" font-family="Work Sans" font-size="8.00" fill="green"> </text>
</a>
</g>
</g>
<!-- V87863&#45;&gt;V87852 -->
<g id="edge4" class="edge">
<title>V87863&#45;&gt;V87852</title>
<path fill="none" stroke="red" d="M61.79,-334.85C33.87,-322.93 0,-301.73 0,-269 0,-269 0,-269 0,-103 0,-53.26 65.46,-33.34 108.42,-25.62"/>
<polygon fill="red" stroke="red" points="108.91,-27.32 113.54,-24.74 108.31,-23.87 108.91,-27.32"/>
<text text-anchor="middle" x="22.97" y="-185.6" font-family="Work Sans" font-size="8.00"> NEUTRAL &#160;&#160;</text>
</g>
<!-- V87863&#45;&gt;V87852 -->
<g id="edge5" class="edge">
<title>V87863&#45;&gt;V87852</title>
<path fill="none" stroke="blue" d="M91.86,-327.99C87.35,-312.33 82,-289.46 82,-269 82,-269 82,-269 82,-103 82,-79.5 98.47,-58.59 114.57,-43.77"/>
<polygon fill="blue" stroke="blue" points="116.08,-44.77 118.65,-40.13 113.75,-42.16 116.08,-44.77"/>
<text text-anchor="middle" x="83.11" y="-185.6" font-family="Work Sans" font-size="8.00">.</text>
</g>
<!-- V87897 -->
<g id="node4" class="node">
<title>V87897</title>
<g id="a_node4"><a xlink:href="http://trips.ihmc.us/lexicon/data/ONT::EXCITED.xml" xlink:title="&lt;font color=&quot;green&quot;&gt;&lt;br /&gt;&lt;/font&gt; &lt;font color=&quot;black&quot;&gt;EXCITED&lt;/font&gt; &lt;font color=&quot;green&quot;&gt;&lt;br /&gt;&lt;/font&gt; &lt;font color=&quot;red&quot;&gt;F&lt;/font&gt; &lt;font color=&quot;blue&quot;&gt;EXCITED&lt;/font&gt; &lt;font color=&quot;green&quot;&gt;&lt;br /&gt; &lt;/font&gt;">
<polygon fill="pink" stroke="transparent" stroke-width="0.5" points="124.77,-252 148,-252 148,-284 124.77,-284 124.77,-252"/>
<polygon fill="lightblue" stroke="transparent" stroke-width="0.5" points="148,-252 171.23,-252 171.23,-284 148,-284 148,-252"/>
<polygon fill="none" stroke="transparent" points="171.23,-284 124.77,-284 124.77,-252 171.23,-252 171.23,-284"/>
<text text-anchor="start" x="128.44" y="-270.6" font-family="Work Sans" font-size="8.00"> </text>
<text text-anchor="start" x="130.66" y="-270.6" font-family="Work Sans" font-size="8.00">EXCITED</text>
<text text-anchor="start" x="165.34" y="-270.6" font-family="Work Sans" font-size="8.00"> </text>
<text text-anchor="start" x="124.89" y="-262.6" font-family="Work Sans" font-size="8.00"> </text>
<text text-anchor="start" x="127.11" y="-262.6" font-family="Work Sans" font-size="8.00" fill="red">F</text>
<text text-anchor="start" x="132" y="-262.6" font-family="Work Sans" font-size="8.00"> </text>
<text text-anchor="start" x="134.22" y="-262.6" font-family="Work Sans" font-size="8.00" fill="blue">EXCITED</text>
<text text-anchor="start" x="168.89" y="-262.6" font-family="Work Sans" font-size="8.00"> </text>
<text text-anchor="start" x="146.89" y="-254.6" font-family="Work Sans" font-size="8.00" fill="green"> </text>
</a>
</g>
</g>
<!-- V87863&#45;&gt;V87897 -->
<g id="edge1" class="edge">
<title>V87863&#45;&gt;V87897</title>
<path fill="none" stroke="blue" d="M110.31,-327.72C115.4,-319.76 121.37,-310.43 126.78,-302 129.59,-297.61 132.62,-292.9 135.48,-288.45"/>
<polygon fill="blue" stroke="blue" points="137.04,-289.26 138.27,-284.11 134.1,-287.37 137.04,-289.26"/>
<text text-anchor="middle" x="127.11" y="-303.6" font-family="Work Sans" font-size="8.00">.</text>
</g>
<!-- V87863&#45;&gt;V87897 -->
<g id="edge2" class="edge">
<title>V87863&#45;&gt;V87897</title>
<path fill="none" stroke="red" d="M112.07,-327.62C116.03,-322 120.27,-315.81 124,-310 128.35,-303.23 132.86,-295.67 136.79,-288.91"/>
<polygon fill="red" stroke="red" points="138.43,-289.58 139.41,-284.37 135.39,-287.83 138.43,-289.58"/>
<text text-anchor="middle" x="148.97" y="-303.6" font-family="Work Sans" font-size="8.00"> FORMAL &#160;&#160;</text>
</g>
<!-- V87897&#45;&gt;V87852 -->
<g id="edge14" class="edge">
<title>V87897&#45;&gt;V87852</title>
<path fill="none" stroke="red" stroke-width="0.5" d="M143.32,-251.65C139.97,-239.84 135.76,-223.06 134,-208 127.19,-149.81 135.41,-80.92 140.88,-45.2"/>
<polygon fill="red" stroke="red" stroke-width="0.5" points="142.62,-45.39 141.67,-40.18 139.17,-44.85 142.62,-45.39"/>
<text text-anchor="middle" x="150.56" y="-143.6" font-family="Work Sans" font-size="8.00"> FIGURE &#160;&#160;</text>
</g>
<!-- V87881 -->
<g id="node5" class="node">
<title>V87881</title>
<g id="a_node5"><a xlink:href="http://trips.ihmc.us/lexicon/data/ONT::DEGREE-MODIFIER-HIGH.xml" xlink:title="&lt;font color=&quot;green&quot;&gt;&lt;br /&gt;&lt;/font&gt; &lt;font color=&quot;black&quot;&gt;DEGREE&#45;MODIFIER&#45;HIGH&lt;/font&gt; &lt;font color=&quot;green&quot;&gt;&lt;br /&gt;&lt;/font&gt; &lt;font color=&quot;red&quot;&gt;F&lt;/font&gt; &lt;font color=&quot;blue&quot;&gt;SO&lt;/font&gt; &lt;font color=&quot;green&quot;&gt;&lt;br /&gt;&lt;/font&gt; &lt;font color=&quot;green&quot;&gt;so%4:02:02::&lt;/font&gt; &lt;font color=&quot;green&quot;&gt;&lt;br /&gt; &lt;/font&gt;">
<polygon fill="pink" stroke="transparent" stroke-width="0.5" points="142.83,-168 194,-168 194,-208 142.83,-208 142.83,-168"/>
<polygon fill="lightblue" stroke="transparent" stroke-width="0.5" points="194,-168 245.17,-168 245.17,-208 194,-208 194,-168"/>
<polygon fill="none" stroke="transparent" points="245.17,-208 142.83,-208 142.83,-168 245.17,-168 245.17,-208"/>
<text text-anchor="start" x="142.67" y="-194.6" font-family="Work Sans" font-size="8.00"> </text>
<text text-anchor="start" x="144.89" y="-194.6" font-family="Work Sans" font-size="8.00">DEGREE&#45;MODIFIER&#45;HIGH</text>
<text text-anchor="start" x="243.11" y="-194.6" font-family="Work Sans" font-size="8.00"> </text>
<text text-anchor="start" x="182.44" y="-186.6" font-family="Work Sans" font-size="8.00"> </text>
<text text-anchor="start" x="184.67" y="-186.6" font-family="Work Sans" font-size="8.00" fill="red">F</text>
<text text-anchor="start" x="189.55" y="-186.6" font-family="Work Sans" font-size="8.00"> </text>
<text text-anchor="start" x="191.78" y="-186.6" font-family="Work Sans" font-size="8.00" fill="blue">SO</text>
<text text-anchor="start" x="203.33" y="-186.6" font-family="Work Sans" font-size="8.00"> </text>
<text text-anchor="start" x="168.43" y="-178.6" font-family="Work Sans" font-size="8.00"> </text>
<text text-anchor="start" x="170.65" y="-178.6" font-family="Work Sans" font-size="8.00" fill="green">so%4:02:02::</text>
<text text-anchor="start" x="217.35" y="-178.6" font-family="Work Sans" font-size="8.00"> </text>
<text text-anchor="start" x="192.89" y="-170.6" font-family="Work Sans" font-size="8.00" fill="green"> </text>
</a>
</g>
</g>
<!-- V87897&#45;&gt;V87881 -->
<g id="edge9" class="edge">
<title>V87897&#45;&gt;V87881</title>
<path fill="none" stroke="grey" stroke-width="0.5" d="M145.59,-251.86C145.01,-243.8 145.44,-233.93 149.32,-226 151.84,-220.88 155.42,-216.21 159.49,-212.05"/>
<polygon fill="grey" stroke="grey" stroke-width="0.5" points="160.93,-213.09 163.34,-208.37 158.51,-210.56 160.93,-213.09"/>
<text text-anchor="middle" x="170.34" y="-227.6" font-family="Work Sans" font-size="8.00"> DEGREE &#160;&#160;</text>
</g>
<!-- V87946 -->
<g id="node6" class="node">
<title>V87946</title>
<g id="a_node6"><a xlink:href="http://trips.ihmc.us/lexicon/data/ONT::MOVE.xml" xlink:title="&lt;font color=&quot;green&quot;&gt;&lt;br /&gt;&lt;/font&gt; &lt;font color=&quot;black&quot;&gt;MOVE&lt;/font&gt; &lt;font color=&quot;green&quot;&gt;&lt;br /&gt;&lt;/font&gt; &lt;font color=&quot;red&quot;&gt;F&lt;/font&gt; &lt;font color=&quot;blue&quot;&gt;GO&lt;/font&gt; &lt;font color=&quot;green&quot;&gt;&lt;br /&gt;&lt;/font&gt; &lt;font color=&quot;green&quot;&gt;go%2:38:00::&lt;/font&gt; &lt;font color=&quot;green&quot;&gt;&lt;br /&gt; &lt;/font&gt;">
<polygon fill="pink" stroke="transparent" points="314.6,-208 263.4,-208 263.4,-168 314.6,-168 314.6,-208"/>
<text text-anchor="start" x="275" y="-194.6" font-family="Work Sans" font-size="8.00"> </text>
<text text-anchor="start" x="277.22" y="-194.6" font-family="Work Sans" font-size="8.00">MOVE</text>
<text text-anchor="start" x="300.78" y="-194.6" font-family="Work Sans" font-size="8.00"> </text>
<text text-anchor="start" x="277" y="-186.6" font-family="Work Sans" font-size="8.00"> </text>
<text text-anchor="start" x="279.22" y="-186.6" font-family="Work Sans" font-size="8.00" fill="red">F</text>
<text text-anchor="start" x="284.11" y="-186.6" font-family="Work Sans" font-size="8.00"> </text>
<text text-anchor="start" x="286.33" y="-186.6" font-family="Work Sans" font-size="8.00" fill="blue">GO</text>
<text text-anchor="start" x="298.78" y="-186.6" font-family="Work Sans" font-size="8.00"> </text>
<text text-anchor="start" x="263.2" y="-178.6" font-family="Work Sans" font-size="8.00"> </text>
<text text-anchor="start" x="265.43" y="-178.6" font-family="Work Sans" font-size="8.00" fill="green">go%2:38:00::</text>
<text text-anchor="start" x="312.57" y="-178.6" font-family="Work Sans" font-size="8.00"> </text>
<text text-anchor="start" x="287.89" y="-170.6" font-family="Work Sans" font-size="8.00" fill="green"> </text>
</a>
</g>
</g>
<!-- V87897&#45;&gt;V87946 -->
<g id="edge8" class="edge">
<title>V87897&#45;&gt;V87946</title>
<path fill="none" stroke="red" d="M171.24,-261.07C190.06,-255.66 216.84,-246.6 238,-234 248.11,-227.98 258.08,-219.82 266.49,-212.11"/>
<polygon fill="red" stroke="red" points="268.03,-213.06 270.48,-208.37 265.64,-210.51 268.03,-213.06"/>
<text text-anchor="middle" x="268.97" y="-227.6" font-family="Work Sans" font-size="8.00"> FORMAL &#160;&#160;</text>
</g>
<!-- V87897&#45;&gt;V87946 -->
<g id="edge12" class="edge">
<title>V87897&#45;&gt;V87946</title>
<path fill="none" stroke="blue" d="M171.39,-265.18C208.68,-261.74 278.91,-252.88 294,-234 298.63,-228.21 299.17,-220.59 298.01,-213.26"/>
<polygon fill="blue" stroke="blue" points="299.7,-212.8 296.96,-208.26 296.27,-213.52 299.7,-212.8"/>
<text text-anchor="middle" x="298.11" y="-227.6" font-family="Work Sans" font-size="8.00">.</text>
</g>
<!-- V87881&#45;&gt;V87897 -->
<g id="edge10" class="edge">
<title>V87881&#45;&gt;V87897</title>
<path fill="none" stroke="blue" stroke-width="0.5" d="M196.7,-208.35C196.98,-216.67 196.09,-226.25 192,-234 188.16,-241.27 181.92,-247.39 175.34,-252.3"/>
<polygon fill="blue" stroke="blue" stroke-width="0.5" points="174.29,-250.89 171.21,-255.2 176.31,-253.76 174.29,-250.89"/>
<text text-anchor="middle" x="214.56" y="-227.6" font-family="Work Sans" font-size="8.00"> FIGURE &#160;&#160;</text>
</g>
<!-- V87946&#45;&gt;V87852 -->
<g id="edge6" class="edge">
<title>V87946&#45;&gt;V87852</title>
<path fill="none" stroke="blue" d="M263.3,-172.27C260.21,-170.73 257.07,-169.27 254,-168 227.88,-157.2 213.84,-169.09 193,-150 162.97,-122.5 151.65,-74.46 147.44,-45.4"/>
<polygon fill="blue" stroke="blue" points="149.14,-44.92 146.73,-40.21 145.67,-45.4 149.14,-44.92"/>
<text text-anchor="middle" x="172.11" y="-101.6" font-family="Work Sans" font-size="8.00">.</text>
</g>
<!-- V87946&#45;&gt;V87852 -->
<g id="edge15" class="edge">
<title>V87946&#45;&gt;V87852</title>
<path fill="none" stroke="red" d="M263.97,-168C249.21,-156.18 230.65,-140.18 216.13,-124 193.64,-98.93 172.31,-66.47 158.98,-44.75"/>
<polygon fill="red" stroke="red" points="160.36,-43.64 156.26,-40.28 157.37,-45.46 160.36,-43.64"/>
<text text-anchor="middle" x="233.94" y="-101.6" font-family="Work Sans" font-size="8.00"> AGENT &#160;&#160;</text>
</g>
<!-- V87963 -->
<g id="node7" class="node">
<title>V87963</title>
<g id="a_node7"><a xlink:href="http://trips.ihmc.us/lexicon/data/ONT::TO-LOC.xml" xlink:title="&lt;font color=&quot;green&quot;&gt;&lt;br /&gt;&lt;/font&gt; &lt;font color=&quot;black&quot;&gt;TO&#45;LOC&lt;/font&gt; &lt;font color=&quot;green&quot;&gt;&lt;br /&gt;&lt;/font&gt; &lt;font color=&quot;red&quot;&gt;F&lt;/font&gt; &lt;font color=&quot;blue&quot;&gt;HOME&lt;/font&gt; &lt;font color=&quot;green&quot;&gt;&lt;br /&gt;&lt;/font&gt; &lt;font color=&quot;green&quot;&gt;home%4:02:01::&lt;/font&gt; &lt;font color=&quot;green&quot;&gt;&lt;br /&gt; &lt;/font&gt;">
<text text-anchor="start" x="274.74" y="-110.6" font-family="Work Sans" font-size="8.00"> </text>
<text text-anchor="start" x="276.96" y="-110.6" font-family="Work Sans" font-size="8.00">TO&#45;LOC</text>
<text text-anchor="start" x="307.04" y="-110.6" font-family="Work Sans" font-size="8.00"> </text>
<text text-anchor="start" x="274.22" y="-102.6" font-family="Work Sans" font-size="8.00"> </text>
<text text-anchor="start" x="276.45" y="-102.6" font-family="Work Sans" font-size="8.00" fill="red">F</text>
<text text-anchor="start" x="281.33" y="-102.6" font-family="Work Sans" font-size="8.00"> </text>
<text text-anchor="start" x="283.55" y="-102.6" font-family="Work Sans" font-size="8.00" fill="blue">HOME</text>
<text text-anchor="start" x="307.55" y="-102.6" font-family="Work Sans" font-size="8.00"> </text>
<text text-anchor="start" x="260.65" y="-94.6" font-family="Work Sans" font-size="8.00"> </text>
<text text-anchor="start" x="262.87" y="-94.6" font-family="Work Sans" font-size="8.00" fill="green">home%4:02:01::</text>
<text text-anchor="start" x="321.13" y="-94.6" font-family="Work Sans" font-size="8.00"> </text>
<text text-anchor="start" x="290.89" y="-86.6" font-family="Work Sans" font-size="8.00" fill="green"> </text>
</a>
</g>
</g>
<!-- V87946&#45;&gt;V87963 -->
<g id="edge11" class="edge">
<title>V87946&#45;&gt;V87963</title>
<path fill="none" stroke="grey" stroke-width="0.5" d="M289.7,-167.98C290.12,-156.47 290.66,-141.68 291.11,-129.33"/>
<polygon fill="grey" stroke="grey" stroke-width="0.5" points="292.86,-129.26 291.3,-124.2 289.37,-129.13 292.86,-129.26"/>
<text text-anchor="middle" x="309.86" y="-143.6" font-family="Work Sans" font-size="8.00"> RESULT &#160;&#160;</text>
</g>
<!-- V87963&#45;&gt;V87852 -->
<g id="edge13" class="edge">
<title>V87963&#45;&gt;V87852</title>
<path fill="none" stroke="grey" stroke-width="0.5" d="M261.71,-83.85C248.43,-75.65 232.58,-66.11 218,-58 206.16,-51.41 193.02,-44.6 181.18,-38.64"/>
<polygon fill="grey" stroke="grey" stroke-width="0.5" points="181.79,-37 176.54,-36.32 180.23,-40.12 181.79,-37"/>
<text text-anchor="middle" x="249.56" y="-59.6" font-family="Work Sans" font-size="8.00"> FIGURE &#160;&#160;</text>
</g>
<!-- V88067 -->
<g id="node8" class="node">
<title>V88067</title>
<g id="a_node8"><a xlink:href="http://trips.ihmc.us/lexicon/data/ONT::RELATIVE-LOCATION.xml" xlink:title="&lt;font color=&quot;green&quot;&gt;&lt;br /&gt;&lt;/font&gt; &lt;font color=&quot;black&quot;&gt;RELATIVE&#45;LOCATION&lt;/font&gt; &lt;font color=&quot;green&quot;&gt;&lt;br /&gt;&lt;/font&gt; &lt;font color=&quot;red&quot;&gt;IMPRO&lt;/font&gt; &lt;font color=&quot;blue&quot;&gt;* &lt;/font&gt; &lt;font color=&quot;green&quot;&gt;&lt;br /&gt; &lt;/font&gt;">
<text text-anchor="start" x="259.25" y="-22.6" font-family="Work Sans" font-size="8.00"> </text>
<text text-anchor="start" x="261.47" y="-22.6" font-family="Work Sans" font-size="8.00">RELATIVE&#45;LOCATION</text>
<text text-anchor="start" x="342.53" y="-22.6" font-family="Work Sans" font-size="8.00"> </text>
<text text-anchor="start" x="282.89" y="-14.6" font-family="Work Sans" font-size="8.00"> </text>
<text text-anchor="start" x="285.11" y="-14.6" font-family="Work Sans" font-size="8.00" fill="red">IMPRO</text>
<text text-anchor="start" x="311.33" y="-14.6" font-family="Work Sans" font-size="8.00"> </text>
<text text-anchor="start" x="313.55" y="-14.6" font-family="Work Sans" font-size="8.00" fill="blue">* </text>
<text text-anchor="start" x="318.89" y="-14.6" font-family="Work Sans" font-size="8.00"> </text>
<text text-anchor="start" x="300.89" y="-6.6" font-family="Work Sans" font-size="8.00" fill="green"> </text>
</a>
</g>
</g>
<!-- V87963&#45;&gt;V88067 -->
<g id="edge7" class="edge">
<title>V87963&#45;&gt;V88067</title>
<path fill="none" stroke="grey" stroke-width="0.5" d="M294.32,-83.98C295.89,-71.12 297.96,-54.15 299.55,-41.07"/>
<polygon fill="grey" stroke="grey" stroke-width="0.5" points="301.29,-41.26 300.16,-36.09 297.82,-40.84 301.29,-41.26"/>
<text text-anchor="middle" x="319.22" y="-59.6" font-family="Work Sans" font-size="8.00"> GROUND &#160;&#160;</text>
</g>
</g>
</svg>
