<?xml version="1.0" encoding="UTF-8" standalone="no"?>
<!DOCTYPE svg PUBLIC "-//W3C//DTD SVG 1.1//EN"
 "http://www.w3.org/Graphics/SVG/1.1/DTD/svg11.dtd">
<!-- Generated by graphviz version 2.43.0 (0)
 -->
<!-- Title: graph Pages: 1 -->
<svg width="208pt" height="620pt"
 viewBox="0.00 0.00 208.49 620.00" xmlns="http://www.w3.org/2000/svg" xmlns:xlink="http://www.w3.org/1999/xlink">
<g id="graph0" class="graph" transform="scale(1 1) rotate(0) translate(4 616)">
<title>graph</title>
<polygon fill="white" stroke="transparent" points="-4,4 -4,-616 204.49,-616 204.49,4 -4,4"/>
<!-- V67776 -->
<g id="node1" class="node">
<title>V67776</title>
<g id="a_node1"><a xlink:href="http://trips.ihmc.us/lexicon/data/ONT::SA_TELL.xml" xlink:title="&lt;font color=&quot;green&quot;&gt;&lt;br /&gt;&lt;/font&gt; &lt;font color=&quot;black&quot;&gt;SA_TELL&lt;/font&gt; &lt;font color=&quot;green&quot;&gt;&lt;br /&gt;&lt;/font&gt; &lt;font color=&quot;red&quot;&gt;SPEECHACT&lt;/font&gt; &lt;font color=&quot;blue&quot;&gt;* &lt;/font&gt; &lt;font color=&quot;green&quot;&gt;&lt;br /&gt; &lt;/font&gt;">
<text text-anchor="start" x="13.79" y="-598.6" font-family="Work Sans" font-size="8.00"> </text>
<text text-anchor="start" x="16.01" y="-598.6" font-family="Work Sans" font-size="8.00">SA_TELL</text>
<text text-anchor="start" x="50.26" y="-598.6" font-family="Work Sans" font-size="8.00"> </text>
<text text-anchor="start" x="2.68" y="-590.6" font-family="Work Sans" font-size="8.00"> </text>
<text text-anchor="start" x="4.91" y="-590.6" font-family="Work Sans" font-size="8.00" fill="red">SPEECHACT</text>
<text text-anchor="start" x="53.8" y="-590.6" font-family="Work Sans" font-size="8.00"> </text>
<text text-anchor="start" x="56.03" y="-590.6" font-family="Work Sans" font-size="8.00" fill="blue">* </text>
<text text-anchor="start" x="61.36" y="-590.6" font-family="Work Sans" font-size="8.00"> </text>
<text text-anchor="start" x="32.02" y="-582.6" font-family="Work Sans" font-size="8.00" fill="green"> </text>
</a>
</g>
</g>
<!-- V67396 -->
<g id="node2" class="node">
<title>V67396</title>
<g id="a_node2"><a xlink:href="http://trips.ihmc.us/lexicon/data/ONT::DECIDE.xml" xlink:title="&lt;font color=&quot;green&quot;&gt;&lt;br /&gt;&lt;/font&gt; &lt;font color=&quot;black&quot;&gt;DECIDE&lt;/font&gt; &lt;font color=&quot;green&quot;&gt;&lt;br /&gt;&lt;/font&gt; &lt;font color=&quot;red&quot;&gt;F&lt;/font&gt; &lt;font color=&quot;blue&quot;&gt;DECIDE&lt;/font&gt; &lt;font color=&quot;green&quot;&gt;&lt;br /&gt;&lt;/font&gt; &lt;font color=&quot;green&quot;&gt;decide%2:31:00::&lt;/font&gt; &lt;font color=&quot;green&quot;&gt;&lt;br /&gt; &lt;/font&gt;">
<text text-anchor="start" x="15.8" y="-522.6" font-family="Work Sans" font-size="8.00"> </text>
<text text-anchor="start" x="18.02" y="-522.6" font-family="Work Sans" font-size="8.00">DECIDE</text>
<text text-anchor="start" x="48.25" y="-522.6" font-family="Work Sans" font-size="8.00"> </text>
<text text-anchor="start" x="12.24" y="-514.6" font-family="Work Sans" font-size="8.00"> </text>
<text text-anchor="start" x="14.47" y="-514.6" font-family="Work Sans" font-size="8.00" fill="red">F</text>
<text text-anchor="start" x="19.35" y="-514.6" font-family="Work Sans" font-size="8.00"> </text>
<text text-anchor="start" x="21.58" y="-514.6" font-family="Work Sans" font-size="8.00" fill="blue">DECIDE</text>
<text text-anchor="start" x="51.8" y="-514.6" font-family="Work Sans" font-size="8.00"> </text>
<text text-anchor="start" x="0" y="-506.6" font-family="Work Sans" font-size="8.00"> </text>
<text text-anchor="start" x="2.22" y="-506.6" font-family="Work Sans" font-size="8.00" fill="green">decide%2:31:00::</text>
<text text-anchor="start" x="64.05" y="-506.6" font-family="Work Sans" font-size="8.00"> </text>
<text text-anchor="start" x="32.02" y="-498.6" font-family="Work Sans" font-size="8.00" fill="green"> </text>
</a>
</g>
</g>
<!-- V67776&#45;&gt;V67396 -->
<g id="edge11" class="edge">
<title>V67776&#45;&gt;V67396</title>
<path fill="none" stroke="grey" stroke-width="0.5" d="M33.13,-579.96C33.13,-569.04 33.13,-554.02 33.13,-541.39"/>
<polygon fill="grey" stroke="grey" stroke-width="0.5" points="34.88,-541.14 33.13,-536.14 31.38,-541.14 34.88,-541.14"/>
<text text-anchor="middle" x="56.84" y="-555.6" font-family="Work Sans" font-size="8.00"> CONTENT &#160;&#160;</text>
</g>
<!-- V67375 -->
<g id="node3" class="node">
<title>V67375</title>
<g id="a_node3"><a xlink:href="http://trips.ihmc.us/lexicon/data/ONT::PERSON.xml" xlink:title="&lt;font color=&quot;green&quot;&gt;&lt;br /&gt;&lt;/font&gt; &lt;font color=&quot;black&quot;&gt;PERSON&lt;/font&gt; &lt;font color=&quot;green&quot;&gt;&lt;br /&gt;&lt;/font&gt; &lt;font color=&quot;red&quot;&gt;THE&#45;SET&lt;/font&gt; &lt;font color=&quot;blue&quot;&gt;* &lt;/font&gt; &lt;font color=&quot;green&quot;&gt;&lt;br /&gt; &lt;/font&gt;">
<polygon fill="pink" stroke="transparent" stroke-width="0.5" points="60.91,-252 84.13,-252 84.13,-284 60.91,-284 60.91,-252"/>
<polygon fill="lightblue" stroke="transparent" stroke-width="0.5" points="84.13,-252 107.36,-252 107.36,-284 84.13,-284 84.13,-252"/>
<polygon fill="none" stroke="transparent" points="107.36,-284 60.91,-284 60.91,-252 107.36,-252 107.36,-284"/>
<text text-anchor="start" x="65.02" y="-270.6" font-family="Work Sans" font-size="8.00"> </text>
<text text-anchor="start" x="67.24" y="-270.6" font-family="Work Sans" font-size="8.00">PERSON</text>
<text text-anchor="start" x="101.03" y="-270.6" font-family="Work Sans" font-size="8.00"> </text>
<text text-anchor="start" x="61.02" y="-262.6" font-family="Work Sans" font-size="8.00"> </text>
<text text-anchor="start" x="63.24" y="-262.6" font-family="Work Sans" font-size="8.00" fill="red">THE&#45;SET</text>
<text text-anchor="start" x="97.47" y="-262.6" font-family="Work Sans" font-size="8.00"> </text>
<text text-anchor="start" x="99.69" y="-262.6" font-family="Work Sans" font-size="8.00" fill="blue">* </text>
<text text-anchor="start" x="105.03" y="-262.6" font-family="Work Sans" font-size="8.00"> </text>
<text text-anchor="start" x="83.02" y="-254.6" font-family="Work Sans" font-size="8.00" fill="green"> </text>
</a>
</g>
</g>
<!-- V67396&#45;&gt;V67375 -->
<g id="edge6" class="edge">
<title>V67396&#45;&gt;V67375</title>
<path fill="none" stroke="grey" stroke-width="0.5" d="M32.87,-495.98C32.88,-470.61 34.18,-424.45 42.26,-386 49.68,-350.72 65.26,-311.64 75.18,-288.76"/>
<polygon fill="grey" stroke="grey" stroke-width="0.5" points="76.8,-289.41 77.21,-284.13 73.6,-288.01 76.8,-289.41"/>
<text text-anchor="middle" x="61.07" y="-387.6" font-family="Work Sans" font-size="8.00"> AGENT &#160;&#160;</text>
</g>
<!-- V67446 -->
<g id="node7" class="node">
<title>V67446</title>
<g id="a_node7"><a xlink:href="http://trips.ihmc.us/lexicon/data/ONT::EXECUTE.xml" xlink:title="&lt;font color=&quot;green&quot;&gt;&lt;br /&gt;&lt;/font&gt; &lt;font color=&quot;black&quot;&gt;EXECUTE&lt;/font&gt; &lt;font color=&quot;green&quot;&gt;&lt;br /&gt;&lt;/font&gt; &lt;font color=&quot;red&quot;&gt;F&lt;/font&gt; &lt;font color=&quot;blue&quot;&gt;GO&lt;/font&gt; &lt;font color=&quot;green&quot;&gt;&lt;br /&gt;&lt;/font&gt; &lt;font color=&quot;green&quot;&gt;fulfil%2:36:00&lt;/font&gt; &lt;font color=&quot;green&quot;&gt;&lt;br /&gt; &lt;/font&gt;">
<polygon fill="pink" stroke="transparent" stroke-width="0.5" points="59.66,-412 86.13,-412 86.13,-452 59.66,-452 59.66,-412"/>
<polygon fill="lightblue" stroke="transparent" stroke-width="0.5" points="86.13,-412 112.61,-412 112.61,-452 86.13,-452 86.13,-412"/>
<polygon fill="none" stroke="transparent" points="112.61,-452 59.66,-452 59.66,-412 112.61,-412 112.61,-452"/>
<text text-anchor="start" x="65.02" y="-438.6" font-family="Work Sans" font-size="8.00"> </text>
<text text-anchor="start" x="67.24" y="-438.6" font-family="Work Sans" font-size="8.00">EXECUTE</text>
<text text-anchor="start" x="105.03" y="-438.6" font-family="Work Sans" font-size="8.00"> </text>
<text text-anchor="start" x="74.13" y="-430.6" font-family="Work Sans" font-size="8.00"> </text>
<text text-anchor="start" x="76.36" y="-430.6" font-family="Work Sans" font-size="8.00" fill="red">F</text>
<text text-anchor="start" x="81.24" y="-430.6" font-family="Work Sans" font-size="8.00"> </text>
<text text-anchor="start" x="83.47" y="-430.6" font-family="Work Sans" font-size="8.00" fill="blue">GO</text>
<text text-anchor="start" x="95.91" y="-430.6" font-family="Work Sans" font-size="8.00"> </text>
<text text-anchor="start" x="59.9" y="-422.6" font-family="Work Sans" font-size="8.00"> </text>
<text text-anchor="start" x="62.12" y="-422.6" font-family="Work Sans" font-size="8.00" fill="green">fulfil%2:36:00</text>
<text text-anchor="start" x="110.15" y="-422.6" font-family="Work Sans" font-size="8.00"> </text>
<text text-anchor="start" x="85.02" y="-414.6" font-family="Work Sans" font-size="8.00" fill="green"> </text>
</a>
</g>
</g>
<!-- V67396&#45;&gt;V67446 -->
<g id="edge9" class="edge">
<title>V67396&#45;&gt;V67446</title>
<path fill="none" stroke="grey" stroke-width="0.5" d="M45.43,-495.98C53,-484.27 62.77,-469.15 70.84,-456.67"/>
<polygon fill="grey" stroke="grey" stroke-width="0.5" points="72.48,-457.35 73.73,-452.2 69.54,-455.45 72.48,-457.35"/>
<text text-anchor="middle" x="83.1" y="-471.6" font-family="Work Sans" font-size="8.00"> FORMAL &#160;&#160;</text>
</g>
<!-- V67366 -->
<g id="node4" class="node">
<title>V67366</title>
<g id="a_node4"><a xlink:href="http://trips.ihmc.us/lexicon/data/ONT::FEMALE-PERSON.xml" xlink:title="&lt;font color=&quot;green&quot;&gt;&lt;br /&gt;&lt;/font&gt; &lt;font color=&quot;black&quot;&gt;FEMALE&#45;PERSON&lt;/font&gt; &lt;font color=&quot;green&quot;&gt;&lt;br /&gt;&lt;/font&gt; &lt;font color=&quot;red&quot;&gt;THE&lt;/font&gt; &lt;font color=&quot;blue&quot;&gt;JANE&lt;/font&gt; &lt;font color=&quot;green&quot;&gt;&lt;br /&gt;&lt;/font&gt; &lt;font color=&quot;green&quot;&gt;woman%1:18:00&lt;/font&gt; &lt;font color=&quot;green&quot;&gt;&lt;br /&gt; &lt;/font&gt;">
<text text-anchor="start" x="76.68" y="-26.6" font-family="Work Sans" font-size="8.00"> </text>
<text text-anchor="start" x="78.91" y="-26.6" font-family="Work Sans" font-size="8.00">FEMALE&#45;PERSON</text>
<text text-anchor="start" x="147.36" y="-26.6" font-family="Work Sans" font-size="8.00"> </text>
<text text-anchor="start" x="91.58" y="-18.6" font-family="Work Sans" font-size="8.00"> </text>
<text text-anchor="start" x="93.8" y="-18.6" font-family="Work Sans" font-size="8.00" fill="red">THE</text>
<text text-anchor="start" x="109.8" y="-18.6" font-family="Work Sans" font-size="8.00"> </text>
<text text-anchor="start" x="112.02" y="-18.6" font-family="Work Sans" font-size="8.00" fill="blue">JANE</text>
<text text-anchor="start" x="132.47" y="-18.6" font-family="Work Sans" font-size="8.00"> </text>
<text text-anchor="start" x="81.12" y="-10.6" font-family="Work Sans" font-size="8.00"> </text>
<text text-anchor="start" x="83.34" y="-10.6" font-family="Work Sans" font-size="8.00" fill="green">woman%1:18:00</text>
<text text-anchor="start" x="142.93" y="-10.6" font-family="Work Sans" font-size="8.00"> </text>
<text text-anchor="start" x="112.02" y="-2.6" font-family="Work Sans" font-size="8.00" fill="green"> </text>
</a>
</g>
</g>
<!-- V67375&#45;&gt;V67366 -->
<g id="edge1" class="edge">
<title>V67375&#45;&gt;V67366</title>
<path fill="none" stroke="grey" stroke-width="0.5" d="M82.61,-251.95C80.5,-228.42 77.37,-181.52 81.35,-142 83.98,-115.83 86.53,-109.46 93.13,-84 96.52,-70.98 100.99,-56.67 104.86,-44.98"/>
<polygon fill="grey" stroke="grey" stroke-width="0.5" points="106.55,-45.44 106.47,-40.15 103.23,-44.34 106.55,-45.44"/>
<text text-anchor="middle" x="109.03" y="-143.6" font-family="Work Sans" font-size="8.00"> SEQUENCE &#160;&#160;</text>
</g>
<!-- V67390 -->
<g id="node5" class="node">
<title>V67390</title>
<g id="a_node5"><a xlink:href="http://trips.ihmc.us/lexicon/data/ONT::FAMILY-RELATION.xml" xlink:title="&lt;font color=&quot;green&quot;&gt;&lt;br /&gt;&lt;/font&gt; &lt;font color=&quot;black&quot;&gt;FAMILY&#45;RELATION&lt;/font&gt; &lt;font color=&quot;green&quot;&gt;&lt;br /&gt;&lt;/font&gt; &lt;font color=&quot;red&quot;&gt;THE&lt;/font&gt; &lt;font color=&quot;blue&quot;&gt;HUSBAND&lt;/font&gt; &lt;font color=&quot;green&quot;&gt;&lt;br /&gt;&lt;/font&gt; &lt;font color=&quot;green&quot;&gt;husband%1:18:00::&lt;/font&gt; &lt;font color=&quot;green&quot;&gt;&lt;br /&gt; &lt;/font&gt;">
<text text-anchor="start" x="102.3" y="-194.6" font-family="Work Sans" font-size="8.00"> </text>
<text text-anchor="start" x="104.53" y="-194.6" font-family="Work Sans" font-size="8.00">FAMILY&#45;RELATION</text>
<text text-anchor="start" x="173.74" y="-194.6" font-family="Work Sans" font-size="8.00"> </text>
<text text-anchor="start" x="108.24" y="-186.6" font-family="Work Sans" font-size="8.00"> </text>
<text text-anchor="start" x="110.46" y="-186.6" font-family="Work Sans" font-size="8.00" fill="red">THE</text>
<text text-anchor="start" x="126.46" y="-186.6" font-family="Work Sans" font-size="8.00"> </text>
<text text-anchor="start" x="128.69" y="-186.6" font-family="Work Sans" font-size="8.00" fill="blue">HUSBAND</text>
<text text-anchor="start" x="167.8" y="-186.6" font-family="Work Sans" font-size="8.00"> </text>
<text text-anchor="start" x="102.44" y="-178.6" font-family="Work Sans" font-size="8.00"> </text>
<text text-anchor="start" x="104.66" y="-178.6" font-family="Work Sans" font-size="8.00" fill="green">husband%1:18:00::</text>
<text text-anchor="start" x="173.61" y="-178.6" font-family="Work Sans" font-size="8.00"> </text>
<text text-anchor="start" x="138.02" y="-170.6" font-family="Work Sans" font-size="8.00" fill="green"> </text>
</a>
</g>
</g>
<!-- V67375&#45;&gt;V67390 -->
<g id="edge3" class="edge">
<title>V67375&#45;&gt;V67390</title>
<path fill="none" stroke="grey" stroke-width="0.5" d="M94.74,-251.96C102.65,-240.74 113.6,-225.21 122.65,-212.38"/>
<polygon fill="grey" stroke="grey" stroke-width="0.5" points="124.19,-213.24 125.64,-208.14 121.32,-211.22 124.19,-213.24"/>
<text text-anchor="middle" x="141.25" y="-227.6" font-family="Work Sans" font-size="8.00"> SEQUENCE1 &#160;&#160;</text>
</g>
<!-- V67385 -->
<g id="node6" class="node">
<title>V67385</title>
<g id="a_node6"><a xlink:href="http://trips.ihmc.us/lexicon/data/ONT::FEMALE-PERSON.xml" xlink:title="&lt;font color=&quot;green&quot;&gt;&lt;br /&gt;&lt;/font&gt; &lt;font color=&quot;black&quot;&gt;FEMALE&#45;PERSON&lt;/font&gt; &lt;font color=&quot;green&quot;&gt;&lt;br /&gt;&lt;/font&gt; &lt;font color=&quot;red&quot;&gt;PRO&lt;/font&gt; &lt;font color=&quot;blue&quot;&gt;HER&lt;/font&gt; &lt;font color=&quot;green&quot;&gt;&lt;br /&gt;&lt;/font&gt; &lt;font color=&quot;green&quot;&gt;woman%1:18:00&lt;/font&gt; &lt;font color=&quot;green&quot;&gt;&lt;br /&gt; &lt;/font&gt;">
<polygon fill="pink" stroke="transparent" stroke-width="0.5" points="101.73,-84 138.13,-84 138.13,-124 101.73,-124 101.73,-84"/>
<polygon fill="lightblue" stroke="transparent" stroke-width="0.5" points="138.13,-84 174.54,-84 174.54,-124 138.13,-124 138.13,-84"/>
<polygon fill="none" stroke="transparent" points="174.54,-124 101.73,-124 101.73,-84 174.54,-84 174.54,-124"/>
<text text-anchor="start" x="101.68" y="-110.6" font-family="Work Sans" font-size="8.00"> </text>
<text text-anchor="start" x="103.91" y="-110.6" font-family="Work Sans" font-size="8.00">FEMALE&#45;PERSON</text>
<text text-anchor="start" x="172.36" y="-110.6" font-family="Work Sans" font-size="8.00"> </text>
<text text-anchor="start" x="117.69" y="-102.6" font-family="Work Sans" font-size="8.00"> </text>
<text text-anchor="start" x="119.91" y="-102.6" font-family="Work Sans" font-size="8.00" fill="red">PRO</text>
<text text-anchor="start" x="137.25" y="-102.6" font-family="Work Sans" font-size="8.00"> </text>
<text text-anchor="start" x="139.47" y="-102.6" font-family="Work Sans" font-size="8.00" fill="blue">HER</text>
<text text-anchor="start" x="156.36" y="-102.6" font-family="Work Sans" font-size="8.00"> </text>
<text text-anchor="start" x="106.12" y="-94.6" font-family="Work Sans" font-size="8.00"> </text>
<text text-anchor="start" x="108.34" y="-94.6" font-family="Work Sans" font-size="8.00" fill="green">woman%1:18:00</text>
<text text-anchor="start" x="167.93" y="-94.6" font-family="Work Sans" font-size="8.00"> </text>
<text text-anchor="start" x="137.02" y="-86.6" font-family="Work Sans" font-size="8.00" fill="green"> </text>
</a>
</g>
</g>
<!-- V67390&#45;&gt;V67385 -->
<g id="edge2" class="edge">
<title>V67390&#45;&gt;V67385</title>
<path fill="none" stroke="grey" stroke-width="0.5" d="M138.9,-167.98C138.76,-156.47 138.58,-141.68 138.43,-129.33"/>
<polygon fill="grey" stroke="grey" stroke-width="0.5" points="140.18,-129.18 138.37,-124.2 136.68,-129.22 140.18,-129.18"/>
<text text-anchor="middle" x="169.81" y="-143.6" font-family="Work Sans" font-size="8.00"> ASSOC&#45;POSS &#160;&#160;</text>
</g>
<!-- V67385&#45;&gt;V67366 -->
<g id="edge4" class="edge">
<title>V67385&#45;&gt;V67366</title>
<path fill="none" stroke="blue" d="M128.03,-83.8C125.39,-78.18 122.77,-71.95 120.91,-66 118.84,-59.37 117.27,-52 116.11,-45.18"/>
<polygon fill="blue" stroke="blue" points="117.81,-44.76 115.3,-40.09 114.36,-45.31 117.81,-44.76"/>
<text text-anchor="middle" x="122.25" y="-59.6" font-family="Work Sans" font-size="8.00">.</text>
</g>
<!-- V67385&#45;&gt;V67366 -->
<g id="edge5" class="edge">
<title>V67385&#45;&gt;V67366</title>
<path fill="none" stroke="red" d="M132.34,-83.98C128.8,-72.37 124.24,-57.42 120.45,-45"/>
<polygon fill="red" stroke="red" points="122.12,-44.47 118.99,-40.2 118.77,-45.49 122.12,-44.47"/>
<text text-anchor="middle" x="145.58" y="-59.6" font-family="Work Sans" font-size="8.00"> COREF &#160;&#160;</text>
</g>
<!-- V67446&#45;&gt;V67375 -->
<g id="edge12" class="edge">
<title>V67446&#45;&gt;V67375</title>
<path fill="none" stroke="red" stroke-width="0.5" d="M83.87,-411.73C82.52,-399.28 80.95,-382.7 80.26,-368 79.44,-350.24 79.68,-345.77 80.26,-328 80.69,-315.01 81.64,-300.44 82.49,-289.03"/>
<polygon fill="red" stroke="red" stroke-width="0.5" points="84.24,-289.14 82.88,-284.02 80.75,-288.87 84.24,-289.14"/>
<text text-anchor="middle" x="99.07" y="-345.6" font-family="Work Sans" font-size="8.00"> AGENT &#160;&#160;</text>
</g>
<!-- V67467 -->
<g id="node8" class="node">
<title>V67467</title>
<g id="a_node8"><a xlink:href="http://trips.ihmc.us/lexicon/data/ONT::DANCE.xml" xlink:title="&lt;font color=&quot;green&quot;&gt;&lt;br /&gt;&lt;/font&gt; &lt;font color=&quot;black&quot;&gt;DANCE&lt;/font&gt; &lt;font color=&quot;green&quot;&gt;&lt;br /&gt;&lt;/font&gt; &lt;font color=&quot;red&quot;&gt;F&lt;/font&gt; &lt;font color=&quot;blue&quot;&gt;DANCE&lt;/font&gt; &lt;font color=&quot;green&quot;&gt;&lt;br /&gt;&lt;/font&gt; &lt;font color=&quot;green&quot;&gt;dance%1:04:00::&lt;/font&gt; &lt;font color=&quot;green&quot;&gt;&lt;br /&gt; &lt;/font&gt;">
<text text-anchor="start" x="140.91" y="-354.6" font-family="Work Sans" font-size="8.00"> </text>
<text text-anchor="start" x="143.13" y="-354.6" font-family="Work Sans" font-size="8.00">DANCE</text>
<text text-anchor="start" x="171.14" y="-354.6" font-family="Work Sans" font-size="8.00"> </text>
<text text-anchor="start" x="137.36" y="-346.6" font-family="Work Sans" font-size="8.00"> </text>
<text text-anchor="start" x="139.58" y="-346.6" font-family="Work Sans" font-size="8.00" fill="red">F</text>
<text text-anchor="start" x="144.46" y="-346.6" font-family="Work Sans" font-size="8.00"> </text>
<text text-anchor="start" x="146.69" y="-346.6" font-family="Work Sans" font-size="8.00" fill="blue">DANCE</text>
<text text-anchor="start" x="174.69" y="-346.6" font-family="Work Sans" font-size="8.00"> </text>
<text text-anchor="start" x="124.89" y="-338.6" font-family="Work Sans" font-size="8.00"> </text>
<text text-anchor="start" x="127.11" y="-338.6" font-family="Work Sans" font-size="8.00" fill="green">dance%1:04:00::</text>
<text text-anchor="start" x="187.16" y="-338.6" font-family="Work Sans" font-size="8.00"> </text>
<text text-anchor="start" x="156.02" y="-330.6" font-family="Work Sans" font-size="8.00" fill="green"> </text>
</a>
</g>
</g>
<!-- V67446&#45;&gt;V67467 -->
<g id="edge7" class="edge">
<title>V67446&#45;&gt;V67467</title>
<path fill="none" stroke="red" d="M90.13,-411.72C92.58,-403.21 96.4,-393.47 102.2,-386 107.23,-379.53 113.71,-373.8 120.44,-368.89"/>
<polygon fill="red" stroke="red" points="121.56,-370.25 124.66,-365.95 119.56,-367.38 121.56,-370.25"/>
<text text-anchor="middle" x="124.1" y="-387.6" font-family="Work Sans" font-size="8.00"> FORMAL &#160;&#160;</text>
</g>
<!-- V67446&#45;&gt;V67467 -->
<g id="edge8" class="edge">
<title>V67446&#45;&gt;V67467</title>
<path fill="none" stroke="blue" d="M112.64,-419.38C123.8,-413.28 136.05,-404.81 144.13,-394 148.65,-387.97 151.59,-380.41 153.52,-373.22"/>
<polygon fill="blue" stroke="blue" points="155.23,-373.59 154.7,-368.32 151.83,-372.78 155.23,-373.59"/>
<text text-anchor="middle" x="150.25" y="-387.6" font-family="Work Sans" font-size="8.00">.</text>
</g>
<!-- V67467&#45;&gt;V67375 -->
<g id="edge10" class="edge">
<title>V67467&#45;&gt;V67375</title>
<path fill="none" stroke="red" d="M124.79,-329.55C116.69,-324.08 108.53,-317.49 102.26,-310 97.15,-303.89 93.23,-296.11 90.36,-288.97"/>
<polygon fill="red" stroke="red" points="91.95,-288.22 88.54,-284.16 88.67,-289.46 91.95,-288.22"/>
<text text-anchor="middle" x="121.07" y="-303.6" font-family="Work Sans" font-size="8.00"> AGENT &#160;&#160;</text>
</g>
<!-- V67467&#45;&gt;V67375 -->
<g id="edge13" class="edge">
<title>V67467&#45;&gt;V67375</title>
<path fill="none" stroke="blue" d="M151.9,-327.59C148.9,-319.05 144.44,-309.33 138.13,-302 130.99,-293.7 121.22,-286.86 111.95,-281.6"/>
<polygon fill="blue" stroke="blue" points="112.69,-280.01 107.46,-279.15 111.01,-283.08 112.69,-280.01"/>
<text text-anchor="middle" x="145.25" y="-303.6" font-family="Work Sans" font-size="8.00">.</text>
</g>
</g>
</svg>
