<?xml version="1.0" encoding="UTF-8" standalone="no"?>
<!DOCTYPE svg PUBLIC "-//W3C//DTD SVG 1.1//EN"
 "http://www.w3.org/Graphics/SVG/1.1/DTD/svg11.dtd">
<!-- Generated by graphviz version 2.43.0 (0)
 -->
<!-- Title: graph Pages: 1 -->
<svg width="352pt" height="444pt"
 viewBox="0.00 0.00 352.48 444.00" xmlns="http://www.w3.org/2000/svg" xmlns:xlink="http://www.w3.org/1999/xlink">
<g id="graph0" class="graph" transform="scale(1 1) rotate(0) translate(4 440)">
<title>graph</title>
<polygon fill="white" stroke="transparent" points="-4,4 -4,-440 348.48,-440 348.48,4 -4,4"/>
<!-- V78388 -->
<g id="node1" class="node">
<title>V78388</title>
<g id="a_node1"><a xlink:href="http://trips.ihmc.us/lexicon/data/ONT::SA_TELL.xml" xlink:title="&lt;font color=&quot;green&quot;&gt;&lt;br /&gt;&lt;/font&gt; &lt;font color=&quot;black&quot;&gt;SA_TELL&lt;/font&gt; &lt;font color=&quot;green&quot;&gt;&lt;br /&gt;&lt;/font&gt; &lt;font color=&quot;red&quot;&gt;SPEECHACT&lt;/font&gt; &lt;font color=&quot;blue&quot;&gt;* &lt;/font&gt; &lt;font color=&quot;green&quot;&gt;&lt;br /&gt; &lt;/font&gt;">
<text text-anchor="start" x="188.79" y="-422.6" font-family="Work Sans" font-size="8.00"> </text>
<text text-anchor="start" x="191.01" y="-422.6" font-family="Work Sans" font-size="8.00">SA_TELL</text>
<text text-anchor="start" x="225.25" y="-422.6" font-family="Work Sans" font-size="8.00"> </text>
<text text-anchor="start" x="177.68" y="-414.6" font-family="Work Sans" font-size="8.00"> </text>
<text text-anchor="start" x="179.9" y="-414.6" font-family="Work Sans" font-size="8.00" fill="red">SPEECHACT</text>
<text text-anchor="start" x="228.8" y="-414.6" font-family="Work Sans" font-size="8.00"> </text>
<text text-anchor="start" x="231.02" y="-414.6" font-family="Work Sans" font-size="8.00" fill="blue">* </text>
<text text-anchor="start" x="236.36" y="-414.6" font-family="Work Sans" font-size="8.00"> </text>
<text text-anchor="start" x="207.02" y="-406.6" font-family="Work Sans" font-size="8.00" fill="green"> </text>
</a>
</g>
</g>
<!-- V78301 -->
<g id="node2" class="node">
<title>V78301</title>
<g id="a_node2"><a xlink:href="http://trips.ihmc.us/lexicon/data/ONT::EVENT-OF-ACTION.xml" xlink:title="&lt;font color=&quot;green&quot;&gt;&lt;br /&gt;&lt;/font&gt; &lt;font color=&quot;black&quot;&gt;EVENT&#45;OF&#45;ACTION&lt;/font&gt; &lt;font color=&quot;green&quot;&gt;&lt;br /&gt;&lt;/font&gt; &lt;font color=&quot;red&quot;&gt;F&lt;/font&gt; &lt;font color=&quot;blue&quot;&gt;* &lt;/font&gt; &lt;font color=&quot;green&quot;&gt;&lt;br /&gt; &lt;/font&gt;">
<polygon fill="pink" stroke="transparent" stroke-width="0.5" points="169.29,-328 208.13,-328 208.13,-360 169.29,-360 169.29,-328"/>
<polygon fill="lightblue" stroke="transparent" stroke-width="0.5" points="208.13,-328 246.97,-328 246.97,-360 208.13,-360 208.13,-328"/>
<polygon fill="none" stroke="transparent" points="246.97,-360 169.29,-360 169.29,-328 246.97,-328 246.97,-360"/>
<text text-anchor="start" x="169.46" y="-346.6" font-family="Work Sans" font-size="8.00"> </text>
<text text-anchor="start" x="171.68" y="-346.6" font-family="Work Sans" font-size="8.00">EVENT&#45;OF&#45;ACTION</text>
<text text-anchor="start" x="244.58" y="-346.6" font-family="Work Sans" font-size="8.00"> </text>
<text text-anchor="start" x="199.68" y="-338.6" font-family="Work Sans" font-size="8.00"> </text>
<text text-anchor="start" x="201.91" y="-338.6" font-family="Work Sans" font-size="8.00" fill="red">F</text>
<text text-anchor="start" x="206.79" y="-338.6" font-family="Work Sans" font-size="8.00"> </text>
<text text-anchor="start" x="209.02" y="-338.6" font-family="Work Sans" font-size="8.00" fill="blue">* </text>
<text text-anchor="start" x="214.35" y="-338.6" font-family="Work Sans" font-size="8.00"> </text>
<text text-anchor="start" x="207.02" y="-330.6" font-family="Work Sans" font-size="8.00" fill="green"> </text>
</a>
</g>
</g>
<!-- V78388&#45;&gt;V78301 -->
<g id="edge7" class="edge">
<title>V78388&#45;&gt;V78301</title>
<path fill="none" stroke="grey" stroke-width="0.5" d="M208.13,-403.67C208.13,-392.58 208.13,-377.49 208.13,-365.38"/>
<polygon fill="grey" stroke="grey" stroke-width="0.5" points="209.88,-365.06 208.13,-360.06 206.38,-365.06 209.88,-365.06"/>
<text text-anchor="middle" x="231.84" y="-379.6" font-family="Work Sans" font-size="8.00"> CONTENT &#160;&#160;</text>
</g>
<!-- V78032 -->
<g id="node3" class="node">
<title>V78032</title>
<g id="a_node3"><a xlink:href="http://trips.ihmc.us/lexicon/data/ONT::CAUSE-EFFECT.xml" xlink:title="&lt;font color=&quot;green&quot;&gt;&lt;br /&gt;&lt;/font&gt; &lt;font color=&quot;black&quot;&gt;CAUSE&#45;EFFECT&lt;/font&gt; &lt;font color=&quot;green&quot;&gt;&lt;br /&gt;&lt;/font&gt; &lt;font color=&quot;red&quot;&gt;F&lt;/font&gt; &lt;font color=&quot;blue&quot;&gt;GET&lt;/font&gt; &lt;font color=&quot;green&quot;&gt;&lt;br /&gt;&lt;/font&gt; &lt;font color=&quot;green&quot;&gt;get%2:36:00::&lt;/font&gt; &lt;font color=&quot;green&quot;&gt;&lt;br /&gt; &lt;/font&gt;">
<polygon fill="pink" stroke="transparent" stroke-width="0.5" points="85.35,-244 118.13,-244 118.13,-284 85.35,-284 85.35,-244"/>
<polygon fill="lightblue" stroke="transparent" stroke-width="0.5" points="118.13,-244 150.91,-244 150.91,-284 118.13,-284 118.13,-244"/>
<polygon fill="none" stroke="transparent" points="150.91,-284 85.35,-284 85.35,-244 150.91,-244 150.91,-284"/>
<text text-anchor="start" x="85.24" y="-270.6" font-family="Work Sans" font-size="8.00"> </text>
<text text-anchor="start" x="87.46" y="-270.6" font-family="Work Sans" font-size="8.00">CAUSE&#45;EFFECT</text>
<text text-anchor="start" x="148.8" y="-270.6" font-family="Work Sans" font-size="8.00"> </text>
<text text-anchor="start" x="104.13" y="-262.6" font-family="Work Sans" font-size="8.00"> </text>
<text text-anchor="start" x="106.35" y="-262.6" font-family="Work Sans" font-size="8.00" fill="red">F</text>
<text text-anchor="start" x="111.24" y="-262.6" font-family="Work Sans" font-size="8.00"> </text>
<text text-anchor="start" x="113.46" y="-262.6" font-family="Work Sans" font-size="8.00" fill="blue">GET</text>
<text text-anchor="start" x="129.91" y="-262.6" font-family="Work Sans" font-size="8.00"> </text>
<text text-anchor="start" x="91.22" y="-254.6" font-family="Work Sans" font-size="8.00"> </text>
<text text-anchor="start" x="93.44" y="-254.6" font-family="Work Sans" font-size="8.00" fill="green">get%2:36:00::</text>
<text text-anchor="start" x="142.81" y="-254.6" font-family="Work Sans" font-size="8.00"> </text>
<text text-anchor="start" x="117.02" y="-246.6" font-family="Work Sans" font-size="8.00" fill="green"> </text>
</a>
</g>
</g>
<!-- V78301&#45;&gt;V78032 -->
<g id="edge9" class="edge">
<title>V78301&#45;&gt;V78032</title>
<path fill="none" stroke="red" d="M169.06,-339.38C149.7,-335.39 127.94,-327.1 115.89,-310 111.8,-304.19 110.89,-296.84 111.43,-289.77"/>
<polygon fill="red" stroke="red" points="113.21,-289.62 112.09,-284.45 109.73,-289.19 113.21,-289.62"/>
<text text-anchor="middle" x="145.25" y="-303.6" font-family="Work Sans" font-size="8.00"> SEQUENCE1 &#160;&#160;</text>
</g>
<!-- V78301&#45;&gt;V78032 -->
<g id="edge16" class="edge">
<title>V78301&#45;&gt;V78032</title>
<path fill="none" stroke="blue" d="M197.14,-327.65C190.91,-319.52 182.66,-309.66 174.13,-302 168.17,-296.65 161.37,-291.51 154.61,-286.84"/>
<polygon fill="blue" stroke="blue" points="155.54,-285.36 150.42,-284.01 153.58,-288.26 155.54,-285.36"/>
<text text-anchor="middle" x="183.24" y="-303.6" font-family="Work Sans" font-size="8.00">.</text>
</g>
<!-- V77978 -->
<g id="node4" class="node">
<title>V77978</title>
<g id="a_node4"><a xlink:href="http://trips.ihmc.us/lexicon/data/ONT::ARRIVE.xml" xlink:title="&lt;font color=&quot;green&quot;&gt;&lt;br /&gt;&lt;/font&gt; &lt;font color=&quot;black&quot;&gt;ARRIVE&lt;/font&gt; &lt;font color=&quot;green&quot;&gt;&lt;br /&gt;&lt;/font&gt; &lt;font color=&quot;red&quot;&gt;F&lt;/font&gt; &lt;font color=&quot;blue&quot;&gt;ARRIVE&lt;/font&gt; &lt;font color=&quot;green&quot;&gt;&lt;br /&gt;&lt;/font&gt; &lt;font color=&quot;green&quot;&gt;arrive%2:38:00::&lt;/font&gt; &lt;font color=&quot;green&quot;&gt;&lt;br /&gt; &lt;/font&gt;">
<text text-anchor="start" x="216.01" y="-270.6" font-family="Work Sans" font-size="8.00"> </text>
<text text-anchor="start" x="218.24" y="-270.6" font-family="Work Sans" font-size="8.00">ARRIVE</text>
<text text-anchor="start" x="248.02" y="-270.6" font-family="Work Sans" font-size="8.00"> </text>
<text text-anchor="start" x="212.46" y="-262.6" font-family="Work Sans" font-size="8.00"> </text>
<text text-anchor="start" x="214.68" y="-262.6" font-family="Work Sans" font-size="8.00" fill="red">F</text>
<text text-anchor="start" x="219.57" y="-262.6" font-family="Work Sans" font-size="8.00"> </text>
<text text-anchor="start" x="221.79" y="-262.6" font-family="Work Sans" font-size="8.00" fill="blue">ARRIVE</text>
<text text-anchor="start" x="251.58" y="-262.6" font-family="Work Sans" font-size="8.00"> </text>
<text text-anchor="start" x="201.78" y="-254.6" font-family="Work Sans" font-size="8.00"> </text>
<text text-anchor="start" x="204" y="-254.6" font-family="Work Sans" font-size="8.00" fill="green">arrive%2:38:00::</text>
<text text-anchor="start" x="262.26" y="-254.6" font-family="Work Sans" font-size="8.00"> </text>
<text text-anchor="start" x="232.02" y="-246.6" font-family="Work Sans" font-size="8.00" fill="green"> </text>
</a>
</g>
</g>
<!-- V78301&#45;&gt;V77978 -->
<g id="edge5" class="edge">
<title>V78301&#45;&gt;V77978</title>
<path fill="none" stroke="blue" d="M212.95,-327.96C216.48,-316.94 221.35,-301.75 225.42,-289.05"/>
<polygon fill="blue" stroke="blue" points="227.13,-289.44 226.99,-284.14 223.8,-288.37 227.13,-289.44"/>
<text text-anchor="middle" x="221.24" y="-303.6" font-family="Work Sans" font-size="8.00">.</text>
</g>
<!-- V78301&#45;&gt;V77978 -->
<g id="edge12" class="edge">
<title>V78301&#45;&gt;V77978</title>
<path fill="none" stroke="red" d="M216.45,-327.9C219.21,-322.39 222.1,-316.03 224.13,-310 226.36,-303.38 228.11,-296.02 229.46,-289.2"/>
<polygon fill="red" stroke="red" points="231.21,-289.35 230.41,-284.11 227.77,-288.7 231.21,-289.35"/>
<text text-anchor="middle" x="253.02" y="-303.6" font-family="Work Sans" font-size="8.00"> SEQUENCE &#160;&#160;</text>
</g>
<!-- V77973 -->
<g id="node5" class="node">
<title>V77973</title>
<g id="a_node5"><a xlink:href="http://trips.ihmc.us/lexicon/data/ONT::REFERENTIAL-SEM.xml" xlink:title="&lt;font color=&quot;green&quot;&gt;&lt;br /&gt;&lt;/font&gt; &lt;font color=&quot;black&quot;&gt;REFERENTIAL&#45;SEM&lt;/font&gt; &lt;font color=&quot;green&quot;&gt;&lt;br /&gt;&lt;/font&gt; &lt;font color=&quot;red&quot;&gt;PRO&#45;SET&lt;/font&gt; &lt;font color=&quot;blue&quot;&gt;THEY&lt;/font&gt; &lt;font color=&quot;green&quot;&gt;&lt;br /&gt;&lt;/font&gt; &lt;font color=&quot;green&quot;&gt;entity%1:03:00&lt;/font&gt; &lt;font color=&quot;green&quot;&gt;&lt;br /&gt; &lt;/font&gt;">
<text text-anchor="start" x="110.35" y="-110.6" font-family="Work Sans" font-size="8.00"> </text>
<text text-anchor="start" x="112.57" y="-110.6" font-family="Work Sans" font-size="8.00">REFERENTIAL&#45;SEM</text>
<text text-anchor="start" x="187.69" y="-110.6" font-family="Work Sans" font-size="8.00"> </text>
<text text-anchor="start" x="118.35" y="-102.6" font-family="Work Sans" font-size="8.00"> </text>
<text text-anchor="start" x="120.57" y="-102.6" font-family="Work Sans" font-size="8.00" fill="red">PRO&#45;SET</text>
<text text-anchor="start" x="156.13" y="-102.6" font-family="Work Sans" font-size="8.00"> </text>
<text text-anchor="start" x="158.35" y="-102.6" font-family="Work Sans" font-size="8.00" fill="blue">THEY</text>
<text text-anchor="start" x="179.69" y="-102.6" font-family="Work Sans" font-size="8.00"> </text>
<text text-anchor="start" x="121.44" y="-94.6" font-family="Work Sans" font-size="8.00"> </text>
<text text-anchor="start" x="123.67" y="-94.6" font-family="Work Sans" font-size="8.00" fill="green">entity%1:03:00</text>
<text text-anchor="start" x="176.59" y="-94.6" font-family="Work Sans" font-size="8.00"> </text>
<text text-anchor="start" x="149.02" y="-86.6" font-family="Work Sans" font-size="8.00" fill="green"> </text>
</a>
</g>
</g>
<!-- V78032&#45;&gt;V77973 -->
<g id="edge11" class="edge">
<title>V78032&#45;&gt;V77973</title>
<path fill="none" stroke="blue" d="M121.99,-243.94C127.8,-215.23 138.81,-160.91 145.19,-129.36"/>
<polygon fill="blue" stroke="blue" points="146.98,-129.37 146.26,-124.13 143.55,-128.68 146.98,-129.37"/>
<text text-anchor="middle" x="139.24" y="-181.6" font-family="Work Sans" font-size="8.00">.</text>
</g>
<!-- V78032&#45;&gt;V77973 -->
<g id="edge14" class="edge">
<title>V78032&#45;&gt;V77973</title>
<path fill="none" stroke="red" d="M84.98,-250.33C63.53,-240.21 37.27,-223.75 24.26,-200 11.87,-177.39 7.66,-162.62 23.13,-142 28.28,-135.13 70.81,-123.65 105.25,-115.29"/>
<polygon fill="red" stroke="red" points="105.82,-116.96 110.27,-114.09 105,-113.56 105.82,-116.96"/>
<text text-anchor="middle" x="43.06" y="-181.6" font-family="Work Sans" font-size="8.00"> AGENT &#160;&#160;</text>
</g>
<!-- V78065 -->
<g id="node9" class="node">
<title>V78065</title>
<g id="a_node9"><a xlink:href="http://trips.ihmc.us/lexicon/data/ONT::OFF.xml" xlink:title="&lt;font color=&quot;green&quot;&gt;&lt;br /&gt;&lt;/font&gt; &lt;font color=&quot;black&quot;&gt;OFF&lt;/font&gt; &lt;font color=&quot;green&quot;&gt;&lt;br /&gt;&lt;/font&gt; &lt;font color=&quot;red&quot;&gt;F&lt;/font&gt; &lt;font color=&quot;blue&quot;&gt;OFF&lt;/font&gt; &lt;font color=&quot;green&quot;&gt;&lt;br /&gt; &lt;/font&gt;">
<text text-anchor="start" x="72.91" y="-186.6" font-family="Work Sans" font-size="8.00"> </text>
<text text-anchor="start" x="75.13" y="-186.6" font-family="Work Sans" font-size="8.00">OFF</text>
<text text-anchor="start" x="91.13" y="-186.6" font-family="Work Sans" font-size="8.00"> </text>
<text text-anchor="start" x="69.35" y="-178.6" font-family="Work Sans" font-size="8.00"> </text>
<text text-anchor="start" x="71.58" y="-178.6" font-family="Work Sans" font-size="8.00" fill="red">F</text>
<text text-anchor="start" x="76.46" y="-178.6" font-family="Work Sans" font-size="8.00"> </text>
<text text-anchor="start" x="78.69" y="-178.6" font-family="Work Sans" font-size="8.00" fill="blue">OFF</text>
<text text-anchor="start" x="94.68" y="-178.6" font-family="Work Sans" font-size="8.00"> </text>
<text text-anchor="start" x="82.02" y="-170.6" font-family="Work Sans" font-size="8.00" fill="green"> </text>
</a>
</g>
</g>
<!-- V78032&#45;&gt;V78065 -->
<g id="edge13" class="edge">
<title>V78032&#45;&gt;V78065</title>
<path fill="none" stroke="red" d="M85.24,-244.05C79.25,-239 73.82,-232.97 70.41,-226 67.16,-219.37 68.33,-211.72 70.99,-204.85"/>
<polygon fill="red" stroke="red" points="72.61,-205.51 73.03,-200.23 69.41,-204.09 72.61,-205.51"/>
<text text-anchor="middle" x="90.99" y="-219.6" font-family="Work Sans" font-size="8.00"> RESULT &#160;&#160;</text>
</g>
<!-- V78032&#45;&gt;V78065 -->
<g id="edge15" class="edge">
<title>V78032&#45;&gt;V78065</title>
<path fill="none" stroke="blue" d="M116.91,-243.97C115.84,-235.7 113.84,-226.08 110.13,-218 107.57,-212.43 103.84,-207.01 99.97,-202.23"/>
<polygon fill="blue" stroke="blue" points="101.27,-201.05 96.7,-198.37 98.59,-203.32 101.27,-201.05"/>
<text text-anchor="middle" x="114.24" y="-219.6" font-family="Work Sans" font-size="8.00">.</text>
</g>
<!-- V77978&#45;&gt;V77973 -->
<g id="edge3" class="edge">
<title>V77978&#45;&gt;V77973</title>
<path fill="none" stroke="grey" stroke-width="0.5" d="M221.85,-243.86C214.64,-231.45 205.18,-214.89 197.26,-200 184.5,-176.03 170.8,-148.14 161.48,-128.81"/>
<polygon fill="grey" stroke="grey" stroke-width="0.5" points="162.95,-127.83 159.2,-124.09 159.79,-129.35 162.95,-127.83"/>
<text text-anchor="middle" x="215.06" y="-181.6" font-family="Work Sans" font-size="8.00"> AGENT &#160;&#160;</text>
</g>
<!-- V77987 -->
<g id="node6" class="node">
<title>V77987</title>
<g id="a_node6"><a xlink:href="http://trips.ihmc.us/lexicon/data/ONT::AT-LOC.xml" xlink:title="&lt;font color=&quot;green&quot;&gt;&lt;br /&gt;&lt;/font&gt; &lt;font color=&quot;black&quot;&gt;AT&#45;LOC&lt;/font&gt; &lt;font color=&quot;green&quot;&gt;&lt;br /&gt;&lt;/font&gt; &lt;font color=&quot;red&quot;&gt;F&lt;/font&gt; &lt;font color=&quot;blue&quot;&gt;AT&lt;/font&gt; &lt;font color=&quot;green&quot;&gt;&lt;br /&gt; &lt;/font&gt;">
<text text-anchor="start" x="241.75" y="-186.6" font-family="Work Sans" font-size="8.00"> </text>
<text text-anchor="start" x="243.97" y="-186.6" font-family="Work Sans" font-size="8.00">AT&#45;LOC</text>
<text text-anchor="start" x="272.28" y="-186.6" font-family="Work Sans" font-size="8.00"> </text>
<text text-anchor="start" x="247.54" y="-178.6" font-family="Work Sans" font-size="8.00"> </text>
<text text-anchor="start" x="249.76" y="-178.6" font-family="Work Sans" font-size="8.00" fill="red">F</text>
<text text-anchor="start" x="254.64" y="-178.6" font-family="Work Sans" font-size="8.00"> </text>
<text text-anchor="start" x="256.87" y="-178.6" font-family="Work Sans" font-size="8.00" fill="blue">AT</text>
<text text-anchor="start" x="266.5" y="-178.6" font-family="Work Sans" font-size="8.00"> </text>
<text text-anchor="start" x="257.02" y="-170.6" font-family="Work Sans" font-size="8.00" fill="green"> </text>
</a>
</g>
</g>
<!-- V77978&#45;&gt;V77987 -->
<g id="edge4" class="edge">
<title>V77978&#45;&gt;V77987</title>
<path fill="none" stroke="red" d="M239.31,-243.72C243.08,-231.96 247.89,-216.94 251.7,-205.04"/>
<polygon fill="red" stroke="red" points="253.41,-205.45 253.27,-200.15 250.08,-204.38 253.41,-205.45"/>
<text text-anchor="middle" x="265.99" y="-219.6" font-family="Work Sans" font-size="8.00"> RESULT &#160;&#160;</text>
</g>
<!-- V77978&#45;&gt;V77987 -->
<g id="edge6" class="edge">
<title>V77978&#45;&gt;V77987</title>
<path fill="none" stroke="blue" d="M235.11,-243.85C236.28,-235.73 238.11,-226.26 240.91,-218 242.43,-213.5 244.49,-208.87 246.66,-204.55"/>
<polygon fill="blue" stroke="blue" points="248.27,-205.25 249.04,-200.01 245.17,-203.63 248.27,-205.25"/>
<text text-anchor="middle" x="241.24" y="-219.6" font-family="Work Sans" font-size="8.00">.</text>
</g>
<!-- V77987&#45;&gt;V77973 -->
<g id="edge2" class="edge">
<title>V77987&#45;&gt;V77973</title>
<path fill="none" stroke="grey" stroke-width="0.5" d="M241.73,-171.15C225.71,-159.58 200.92,-141.69 181.18,-127.42"/>
<polygon fill="grey" stroke="grey" stroke-width="0.5" points="181.86,-125.76 176.79,-124.25 179.82,-128.6 181.86,-125.76"/>
<text text-anchor="middle" x="229.69" y="-143.6" font-family="Work Sans" font-size="8.00"> FIGURE &#160;&#160;</text>
</g>
<!-- V78001 -->
<g id="node7" class="node">
<title>V78001</title>
<g id="a_node7"><a xlink:href="http://trips.ihmc.us/lexicon/data/ONT::LOC-DEF-BY-GOAL.xml" xlink:title="&lt;font color=&quot;green&quot;&gt;&lt;br /&gt;&lt;/font&gt; &lt;font color=&quot;black&quot;&gt;LOC&#45;DEF&#45;BY&#45;GOAL&lt;/font&gt; &lt;font color=&quot;green&quot;&gt;&lt;br /&gt;&lt;/font&gt; &lt;font color=&quot;red&quot;&gt;THE&lt;/font&gt; &lt;font color=&quot;blue&quot;&gt;DESTINATION&lt;/font&gt; &lt;font color=&quot;green&quot;&gt;&lt;br /&gt; &lt;/font&gt;">
<text text-anchor="start" x="244.6" y="-106.6" font-family="Work Sans" font-size="8.00"> </text>
<text text-anchor="start" x="246.82" y="-106.6" font-family="Work Sans" font-size="8.00">LOC&#45;DEF&#45;BY&#45;GOAL</text>
<text text-anchor="start" x="319.43" y="-106.6" font-family="Work Sans" font-size="8.00"> </text>
<text text-anchor="start" x="245.2" y="-98.6" font-family="Work Sans" font-size="8.00"> </text>
<text text-anchor="start" x="247.42" y="-98.6" font-family="Work Sans" font-size="8.00" fill="red">THE</text>
<text text-anchor="start" x="263.42" y="-98.6" font-family="Work Sans" font-size="8.00"> </text>
<text text-anchor="start" x="265.64" y="-98.6" font-family="Work Sans" font-size="8.00" fill="blue">DESTINATION</text>
<text text-anchor="start" x="318.84" y="-98.6" font-family="Work Sans" font-size="8.00"> </text>
<text text-anchor="start" x="282.02" y="-90.6" font-family="Work Sans" font-size="8.00" fill="green"> </text>
</a>
</g>
</g>
<!-- V77987&#45;&gt;V78001 -->
<g id="edge10" class="edge">
<title>V77987&#45;&gt;V78001</title>
<path fill="none" stroke="grey" stroke-width="0.5" d="M262.95,-167.96C266.83,-155.85 272.33,-138.69 276.61,-125.35"/>
<polygon fill="grey" stroke="grey" stroke-width="0.5" points="278.38,-125.55 278.24,-120.26 275.05,-124.49 278.38,-125.55"/>
<text text-anchor="middle" x="292.35" y="-143.6" font-family="Work Sans" font-size="8.00"> GROUND &#160;&#160;</text>
</g>
<!-- V77998 -->
<g id="node8" class="node">
<title>V77998</title>
<g id="a_node8"><a xlink:href="http://trips.ihmc.us/lexicon/data/ONT::REFERENTIAL-SEM.xml" xlink:title="&lt;font color=&quot;green&quot;&gt;&lt;br /&gt;&lt;/font&gt; &lt;font color=&quot;black&quot;&gt;REFERENTIAL&#45;SEM&lt;/font&gt; &lt;font color=&quot;green&quot;&gt;&lt;br /&gt;&lt;/font&gt; &lt;font color=&quot;red&quot;&gt;PRO&lt;/font&gt; &lt;font color=&quot;blue&quot;&gt;THEIR&lt;/font&gt; &lt;font color=&quot;green&quot;&gt;&lt;br /&gt;&lt;/font&gt; &lt;font color=&quot;green&quot;&gt;entity%1:03:00&lt;/font&gt; &lt;font color=&quot;green&quot;&gt;&lt;br /&gt; &lt;/font&gt;">
<text text-anchor="start" x="243.35" y="-26.6" font-family="Work Sans" font-size="8.00"> </text>
<text text-anchor="start" x="245.57" y="-26.6" font-family="Work Sans" font-size="8.00">REFERENTIAL&#45;SEM</text>
<text text-anchor="start" x="320.69" y="-26.6" font-family="Work Sans" font-size="8.00"> </text>
<text text-anchor="start" x="259.13" y="-18.6" font-family="Work Sans" font-size="8.00"> </text>
<text text-anchor="start" x="261.35" y="-18.6" font-family="Work Sans" font-size="8.00" fill="red">PRO</text>
<text text-anchor="start" x="278.69" y="-18.6" font-family="Work Sans" font-size="8.00"> </text>
<text text-anchor="start" x="280.91" y="-18.6" font-family="Work Sans" font-size="8.00" fill="blue">THEIR</text>
<text text-anchor="start" x="304.91" y="-18.6" font-family="Work Sans" font-size="8.00"> </text>
<text text-anchor="start" x="254.44" y="-10.6" font-family="Work Sans" font-size="8.00"> </text>
<text text-anchor="start" x="256.67" y="-10.6" font-family="Work Sans" font-size="8.00" fill="green">entity%1:03:00</text>
<text text-anchor="start" x="309.59" y="-10.6" font-family="Work Sans" font-size="8.00"> </text>
<text text-anchor="start" x="282.02" y="-2.6" font-family="Work Sans" font-size="8.00" fill="green"> </text>
</a>
</g>
</g>
<!-- V78001&#45;&gt;V77998 -->
<g id="edge8" class="edge">
<title>V78001&#45;&gt;V77998</title>
<path fill="none" stroke="grey" stroke-width="0.5" d="M283.13,-87.96C283.13,-76.12 283.13,-59.38 283.13,-45.6"/>
<polygon fill="grey" stroke="grey" stroke-width="0.5" points="284.88,-45.29 283.13,-40.29 281.38,-45.29 284.88,-45.29"/>
<text text-anchor="middle" x="313.81" y="-59.6" font-family="Work Sans" font-size="8.00"> ASSOC&#45;POSS &#160;&#160;</text>
</g>
<!-- V78065&#45;&gt;V77973 -->
<g id="edge17" class="edge">
<title>V78065&#45;&gt;V77973</title>
<path fill="none" stroke="grey" stroke-width="0.5" d="M85.83,-167.88C87.87,-159.62 91.33,-149.57 97.02,-142 101.1,-136.56 106.23,-131.62 111.68,-127.25"/>
<polygon fill="grey" stroke="grey" stroke-width="0.5" points="112.98,-128.46 115.89,-124.03 110.86,-125.68 112.98,-128.46"/>
<text text-anchor="middle" x="116.69" y="-143.6" font-family="Work Sans" font-size="8.00"> FIGURE &#160;&#160;</text>
</g>
<!-- V78089 -->
<g id="node10" class="node">
<title>V78089</title>
<g id="a_node10"><a xlink:href="http://trips.ihmc.us/lexicon/data/ONT::VEHICLE.xml" xlink:title="&lt;font color=&quot;green&quot;&gt;&lt;br /&gt;&lt;/font&gt; &lt;font color=&quot;black&quot;&gt;VEHICLE&lt;/font&gt; &lt;font color=&quot;green&quot;&gt;&lt;br /&gt;&lt;/font&gt; &lt;font color=&quot;red&quot;&gt;THE&lt;/font&gt; &lt;font color=&quot;blue&quot;&gt;TRAIN&lt;/font&gt; &lt;font color=&quot;green&quot;&gt;&lt;br /&gt;&lt;/font&gt; &lt;font color=&quot;green&quot;&gt;train%1:06:02::&lt;/font&gt; &lt;font color=&quot;green&quot;&gt;&lt;br /&gt; &lt;/font&gt;">
<text text-anchor="start" x="9.79" y="-110.6" font-family="Work Sans" font-size="8.00"> </text>
<text text-anchor="start" x="12.01" y="-110.6" font-family="Work Sans" font-size="8.00">VEHICLE</text>
<text text-anchor="start" x="46.25" y="-110.6" font-family="Work Sans" font-size="8.00"> </text>
<text text-anchor="start" x="5.79" y="-102.6" font-family="Work Sans" font-size="8.00"> </text>
<text text-anchor="start" x="8.02" y="-102.6" font-family="Work Sans" font-size="8.00" fill="red">THE</text>
<text text-anchor="start" x="24.02" y="-102.6" font-family="Work Sans" font-size="8.00"> </text>
<text text-anchor="start" x="26.24" y="-102.6" font-family="Work Sans" font-size="8.00" fill="blue">TRAIN</text>
<text text-anchor="start" x="50.24" y="-102.6" font-family="Work Sans" font-size="8.00"> </text>
<text text-anchor="start" x="0" y="-94.6" font-family="Work Sans" font-size="8.00"> </text>
<text text-anchor="start" x="2.22" y="-94.6" font-family="Work Sans" font-size="8.00" fill="green">train%1:06:02::</text>
<text text-anchor="start" x="56.04" y="-94.6" font-family="Work Sans" font-size="8.00"> </text>
<text text-anchor="start" x="28.02" y="-86.6" font-family="Work Sans" font-size="8.00" fill="green"> </text>
</a>
</g>
</g>
<!-- V78065&#45;&gt;V78089 -->
<g id="edge1" class="edge">
<title>V78065&#45;&gt;V78089</title>
<path fill="none" stroke="grey" stroke-width="0.5" d="M69.36,-178.79C56.54,-174.05 38.17,-165 29.68,-150 26.19,-143.82 25.1,-136.36 25.16,-129.31"/>
<polygon fill="grey" stroke="grey" stroke-width="0.5" points="26.92,-129.1 25.4,-124.02 23.42,-128.94 26.92,-129.1"/>
<text text-anchor="middle" x="52.35" y="-143.6" font-family="Work Sans" font-size="8.00"> GROUND &#160;&#160;</text>
</g>
</g>
</svg>
