<?xml version="1.0" encoding="UTF-8" standalone="no"?>
<!DOCTYPE svg PUBLIC "-//W3C//DTD SVG 1.1//EN"
 "http://www.w3.org/Graphics/SVG/1.1/DTD/svg11.dtd">
<!-- Generated by graphviz version 2.43.0 (0)
 -->
<!-- Title: graph Pages: 1 -->
<svg width="558pt" height="368pt"
 viewBox="0.00 0.00 557.87 368.00" xmlns="http://www.w3.org/2000/svg" xmlns:xlink="http://www.w3.org/1999/xlink">
<g id="graph0" class="graph" transform="scale(1 1) rotate(0) translate(4 364)">
<title>graph</title>
<polygon fill="white" stroke="transparent" points="-4,4 -4,-364 553.87,-364 553.87,4 -4,4"/>
<!-- V224892 -->
<g id="node1" class="node">
<title>V224892</title>
<g id="a_node1"><a xlink:href="http://trips.ihmc.us/lexicon/data/ONT::SA_TELL.xml" xlink:title="&lt;font color=&quot;green&quot;&gt;&lt;br /&gt;&lt;/font&gt; &lt;font color=&quot;black&quot;&gt;SA_TELL&lt;/font&gt; &lt;font color=&quot;green&quot;&gt;&lt;br /&gt;&lt;/font&gt; &lt;font color=&quot;red&quot;&gt;SPEECHACT&lt;/font&gt; &lt;font color=&quot;blue&quot;&gt;* &lt;/font&gt; &lt;font color=&quot;green&quot;&gt;&lt;br /&gt; &lt;/font&gt;">
<text text-anchor="start" x="368.66" y="-346.6" font-family="Work Sans" font-size="8.00"> </text>
<text text-anchor="start" x="370.88" y="-346.6" font-family="Work Sans" font-size="8.00">SA_TELL</text>
<text text-anchor="start" x="405.12" y="-346.6" font-family="Work Sans" font-size="8.00"> </text>
<text text-anchor="start" x="357.55" y="-338.6" font-family="Work Sans" font-size="8.00"> </text>
<text text-anchor="start" x="359.77" y="-338.6" font-family="Work Sans" font-size="8.00" fill="red">SPEECHACT</text>
<text text-anchor="start" x="408.67" y="-338.6" font-family="Work Sans" font-size="8.00"> </text>
<text text-anchor="start" x="410.89" y="-338.6" font-family="Work Sans" font-size="8.00" fill="blue">* </text>
<text text-anchor="start" x="416.23" y="-338.6" font-family="Work Sans" font-size="8.00"> </text>
<text text-anchor="start" x="386.89" y="-330.6" font-family="Work Sans" font-size="8.00" fill="green"> </text>
</a>
</g>
</g>
<!-- V224888 -->
<g id="node2" class="node">
<title>V224888</title>
<g id="a_node2"><a xlink:href="http://trips.ihmc.us/lexicon/data/ONT::EVENT-OF-ACTION.xml" xlink:title="&lt;font color=&quot;green&quot;&gt;&lt;br /&gt;&lt;/font&gt; &lt;font color=&quot;black&quot;&gt;EVENT&#45;OF&#45;ACTION&lt;/font&gt; &lt;font color=&quot;green&quot;&gt;&lt;br /&gt;&lt;/font&gt; &lt;font color=&quot;red&quot;&gt;F&lt;/font&gt; &lt;font color=&quot;blue&quot;&gt;* &lt;/font&gt; &lt;font color=&quot;green&quot;&gt;&lt;br /&gt; &lt;/font&gt;">
<polygon fill="pink" stroke="transparent" points="426.84,-284 349.16,-284 349.16,-252 426.84,-252 426.84,-284"/>
<text text-anchor="start" x="349.33" y="-270.6" font-family="Work Sans" font-size="8.00"> </text>
<text text-anchor="start" x="351.55" y="-270.6" font-family="Work Sans" font-size="8.00">EVENT&#45;OF&#45;ACTION</text>
<text text-anchor="start" x="424.45" y="-270.6" font-family="Work Sans" font-size="8.00"> </text>
<text text-anchor="start" x="379.56" y="-262.6" font-family="Work Sans" font-size="8.00"> </text>
<text text-anchor="start" x="381.78" y="-262.6" font-family="Work Sans" font-size="8.00" fill="red">F</text>
<text text-anchor="start" x="386.67" y="-262.6" font-family="Work Sans" font-size="8.00"> </text>
<text text-anchor="start" x="388.89" y="-262.6" font-family="Work Sans" font-size="8.00" fill="blue">* </text>
<text text-anchor="start" x="394.22" y="-262.6" font-family="Work Sans" font-size="8.00"> </text>
<text text-anchor="start" x="386.89" y="-254.6" font-family="Work Sans" font-size="8.00" fill="green"> </text>
</a>
</g>
</g>
<!-- V224892&#45;&gt;V224888 -->
<g id="edge13" class="edge">
<title>V224892&#45;&gt;V224888</title>
<path fill="none" stroke="grey" stroke-width="0.5" d="M388,-327.67C388,-316.58 388,-301.49 388,-289.38"/>
<polygon fill="grey" stroke="grey" stroke-width="0.5" points="389.75,-289.06 388,-284.06 386.25,-289.06 389.75,-289.06"/>
<text text-anchor="middle" x="411.71" y="-303.6" font-family="Work Sans" font-size="8.00"> CONTENT &#160;&#160;</text>
</g>
<!-- V224372 -->
<g id="node4" class="node">
<title>V224372</title>
<g id="a_node4"><a xlink:href="http://trips.ihmc.us/lexicon/data/ONT::MOVE-RAPIDLY.xml" xlink:title="&lt;font color=&quot;green&quot;&gt;&lt;br /&gt;&lt;/font&gt; &lt;font color=&quot;black&quot;&gt;MOVE&#45;RAPIDLY&lt;/font&gt; &lt;font color=&quot;green&quot;&gt;&lt;br /&gt;&lt;/font&gt; &lt;font color=&quot;red&quot;&gt;F&lt;/font&gt; &lt;font color=&quot;blue&quot;&gt;RUN&lt;/font&gt; &lt;font color=&quot;green&quot;&gt;&lt;br /&gt;&lt;/font&gt; &lt;font color=&quot;green&quot;&gt;run%2:38:00::&lt;/font&gt; &lt;font color=&quot;green&quot;&gt;&lt;br /&gt; &lt;/font&gt;">
<polygon fill="pink" stroke="transparent" stroke-width="0.5" points="130.69,-168 163,-168 163,-208 130.69,-208 130.69,-168"/>
<polygon fill="lightblue" stroke="transparent" stroke-width="0.5" points="163,-168 195.32,-168 195.32,-208 163,-208 163,-168"/>
<polygon fill="none" stroke="transparent" points="195.32,-208 130.69,-208 130.69,-168 195.32,-168 195.32,-208"/>
<text text-anchor="start" x="130.85" y="-194.6" font-family="Work Sans" font-size="8.00"> </text>
<text text-anchor="start" x="133.07" y="-194.6" font-family="Work Sans" font-size="8.00">MOVE&#45;RAPIDLY</text>
<text text-anchor="start" x="192.94" y="-194.6" font-family="Work Sans" font-size="8.00"> </text>
<text text-anchor="start" x="148.56" y="-186.6" font-family="Work Sans" font-size="8.00"> </text>
<text text-anchor="start" x="150.78" y="-186.6" font-family="Work Sans" font-size="8.00" fill="red">F</text>
<text text-anchor="start" x="155.67" y="-186.6" font-family="Work Sans" font-size="8.00"> </text>
<text text-anchor="start" x="157.89" y="-186.6" font-family="Work Sans" font-size="8.00" fill="blue">RUN</text>
<text text-anchor="start" x="175.22" y="-186.6" font-family="Work Sans" font-size="8.00"> </text>
<text text-anchor="start" x="135.87" y="-178.6" font-family="Work Sans" font-size="8.00"> </text>
<text text-anchor="start" x="138.1" y="-178.6" font-family="Work Sans" font-size="8.00" fill="green">run%2:38:00::</text>
<text text-anchor="start" x="187.91" y="-178.6" font-family="Work Sans" font-size="8.00"> </text>
<text text-anchor="start" x="161.89" y="-170.6" font-family="Work Sans" font-size="8.00" fill="green"> </text>
</a>
</g>
</g>
<!-- V224888&#45;&gt;V224372 -->
<g id="edge9" class="edge">
<title>V224888&#45;&gt;V224372</title>
<path fill="none" stroke="grey" stroke-width="0.5" d="M349.25,-260.59C320.75,-255.23 281.37,-246.44 248.21,-234 231.46,-227.72 213.84,-218.83 198.99,-210.61"/>
<polygon fill="grey" stroke="grey" stroke-width="0.5" points="199.69,-209 194.48,-208.09 197.99,-212.06 199.69,-209"/>
<text text-anchor="middle" x="275.9" y="-227.6" font-family="Work Sans" font-size="8.00"> SEQUENCE &#160;&#160;</text>
</g>
<!-- V224419 -->
<g id="node7" class="node">
<title>V224419</title>
<g id="a_node7"><a xlink:href="http://trips.ihmc.us/lexicon/data/ONT::ACQUIRE.xml" xlink:title="&lt;font color=&quot;green&quot;&gt;&lt;br /&gt;&lt;/font&gt; &lt;font color=&quot;black&quot;&gt;ACQUIRE&lt;/font&gt; &lt;font color=&quot;green&quot;&gt;&lt;br /&gt;&lt;/font&gt; &lt;font color=&quot;red&quot;&gt;F&lt;/font&gt; &lt;font color=&quot;blue&quot;&gt;GRAB&lt;/font&gt; &lt;font color=&quot;green&quot;&gt;&lt;br /&gt;&lt;/font&gt; &lt;font color=&quot;green&quot;&gt;grab%2:40:00::&lt;/font&gt; &lt;font color=&quot;green&quot;&gt;&lt;br /&gt; &lt;/font&gt;">
<text text-anchor="start" x="330.55" y="-194.6" font-family="Work Sans" font-size="8.00"> </text>
<text text-anchor="start" x="332.78" y="-194.6" font-family="Work Sans" font-size="8.00">ACQUIRE</text>
<text text-anchor="start" x="369.23" y="-194.6" font-family="Work Sans" font-size="8.00"> </text>
<text text-anchor="start" x="333.89" y="-186.6" font-family="Work Sans" font-size="8.00"> </text>
<text text-anchor="start" x="336.11" y="-186.6" font-family="Work Sans" font-size="8.00" fill="red">F</text>
<text text-anchor="start" x="341" y="-186.6" font-family="Work Sans" font-size="8.00"> </text>
<text text-anchor="start" x="343.22" y="-186.6" font-family="Work Sans" font-size="8.00" fill="blue">GRAB</text>
<text text-anchor="start" x="365.89" y="-186.6" font-family="Work Sans" font-size="8.00"> </text>
<text text-anchor="start" x="321.65" y="-178.6" font-family="Work Sans" font-size="8.00"> </text>
<text text-anchor="start" x="323.87" y="-178.6" font-family="Work Sans" font-size="8.00" fill="green">grab%2:40:00::</text>
<text text-anchor="start" x="378.13" y="-178.6" font-family="Work Sans" font-size="8.00"> </text>
<text text-anchor="start" x="349.89" y="-170.6" font-family="Work Sans" font-size="8.00" fill="green"> </text>
</a>
</g>
</g>
<!-- V224888&#45;&gt;V224419 -->
<g id="edge12" class="edge">
<title>V224888&#45;&gt;V224419</title>
<path fill="none" stroke="red" d="M349.31,-260.73C333.69,-256.08 317.15,-248.02 307.76,-234 301.32,-224.39 307.78,-214.96 317.5,-207.24"/>
<polygon fill="red" stroke="red" points="318.55,-208.64 321.52,-204.26 316.46,-205.83 318.55,-208.64"/>
<text text-anchor="middle" x="337.12" y="-227.6" font-family="Work Sans" font-size="8.00"> SEQUENCE1 &#160;&#160;</text>
</g>
<!-- V224888&#45;&gt;V224419 -->
<g id="edge14" class="edge">
<title>V224888&#45;&gt;V224419</title>
<path fill="none" stroke="blue" d="M380.87,-251.96C375.59,-240.84 368.31,-225.48 362.25,-212.72"/>
<polygon fill="blue" stroke="blue" points="363.81,-211.91 360.08,-208.14 360.64,-213.41 363.81,-211.91"/>
<text text-anchor="middle" x="373.11" y="-227.6" font-family="Work Sans" font-size="8.00">.</text>
</g>
<!-- V224478 -->
<g id="node10" class="node">
<title>V224478</title>
<g id="a_node10"><a xlink:href="http://trips.ihmc.us/lexicon/data/ONT::DEPART.xml" xlink:title="&lt;font color=&quot;green&quot;&gt;&lt;br /&gt;&lt;/font&gt; &lt;font color=&quot;black&quot;&gt;DEPART&lt;/font&gt; &lt;font color=&quot;green&quot;&gt;&lt;br /&gt;&lt;/font&gt; &lt;font color=&quot;red&quot;&gt;F&lt;/font&gt; &lt;font color=&quot;blue&quot;&gt;LEAVE&lt;/font&gt; &lt;font color=&quot;green&quot;&gt;&lt;br /&gt;&lt;/font&gt; &lt;font color=&quot;green&quot;&gt;leave%2:38:01::&lt;/font&gt; &lt;font color=&quot;green&quot;&gt;&lt;br /&gt; &lt;/font&gt;">
<polygon fill="pink" stroke="transparent" points="524.82,-208 463.18,-208 463.18,-168 524.82,-168 524.82,-208"/>
<text text-anchor="start" x="475.92" y="-194.6" font-family="Work Sans" font-size="8.00"> </text>
<text text-anchor="start" x="478.14" y="-194.6" font-family="Work Sans" font-size="8.00">DEPART</text>
<text text-anchor="start" x="509.86" y="-194.6" font-family="Work Sans" font-size="8.00"> </text>
<text text-anchor="start" x="475.62" y="-186.6" font-family="Work Sans" font-size="8.00"> </text>
<text text-anchor="start" x="477.85" y="-186.6" font-family="Work Sans" font-size="8.00" fill="red">F</text>
<text text-anchor="start" x="482.73" y="-186.6" font-family="Work Sans" font-size="8.00"> </text>
<text text-anchor="start" x="484.96" y="-186.6" font-family="Work Sans" font-size="8.00" fill="blue">LEAVE</text>
<text text-anchor="start" x="510.16" y="-186.6" font-family="Work Sans" font-size="8.00"> </text>
<text text-anchor="start" x="463.09" y="-178.6" font-family="Work Sans" font-size="8.00"> </text>
<text text-anchor="start" x="465.31" y="-178.6" font-family="Work Sans" font-size="8.00" fill="green">leave%2:38:01::</text>
<text text-anchor="start" x="522.69" y="-178.6" font-family="Work Sans" font-size="8.00"> </text>
<text text-anchor="start" x="492.89" y="-170.6" font-family="Work Sans" font-size="8.00" fill="green"> </text>
</a>
</g>
</g>
<!-- V224888&#45;&gt;V224478 -->
<g id="edge1" class="edge">
<title>V224888&#45;&gt;V224478</title>
<path fill="none" stroke="blue" d="M426.87,-258.31C442.36,-253.28 459.45,-245.58 472,-234 478.25,-228.24 482.93,-220.32 486.33,-212.73"/>
<polygon fill="blue" stroke="blue" points="487.97,-213.35 488.29,-208.07 484.74,-212 487.97,-213.35"/>
<text text-anchor="middle" x="479.11" y="-227.6" font-family="Work Sans" font-size="8.00">.</text>
</g>
<!-- V224888&#45;&gt;V224478 -->
<g id="edge10" class="edge">
<title>V224888&#45;&gt;V224478</title>
<path fill="none" stroke="red" d="M393.21,-251.76C396.76,-243.27 402.2,-233.02 409.76,-226 423.34,-213.39 441.91,-204.61 458.16,-198.78"/>
<polygon fill="red" stroke="red" points="458.97,-200.35 463.12,-197.07 457.82,-197.05 458.97,-200.35"/>
<text text-anchor="middle" x="439.12" y="-227.6" font-family="Work Sans" font-size="8.00"> SEQUENCE2 &#160;&#160;</text>
</g>
<!-- V224367 -->
<g id="node3" class="node">
<title>V224367</title>
<g id="a_node3"><a xlink:href="http://trips.ihmc.us/lexicon/data/ONT::FEMALE-PERSON.xml" xlink:title="&lt;font color=&quot;green&quot;&gt;&lt;br /&gt;&lt;/font&gt; &lt;font color=&quot;black&quot;&gt;FEMALE&#45;PERSON&lt;/font&gt; &lt;font color=&quot;green&quot;&gt;&lt;br /&gt;&lt;/font&gt; &lt;font color=&quot;red&quot;&gt;PRO&lt;/font&gt; &lt;font color=&quot;blue&quot;&gt;SHE&lt;/font&gt; &lt;font color=&quot;green&quot;&gt;&lt;br /&gt;&lt;/font&gt; &lt;font color=&quot;green&quot;&gt;woman%1:18:00&lt;/font&gt; &lt;font color=&quot;green&quot;&gt;&lt;br /&gt; &lt;/font&gt;">
<text text-anchor="start" x="198.55" y="-26.6" font-family="Work Sans" font-size="8.00"> </text>
<text text-anchor="start" x="200.77" y="-26.6" font-family="Work Sans" font-size="8.00">FEMALE&#45;PERSON</text>
<text text-anchor="start" x="269.23" y="-26.6" font-family="Work Sans" font-size="8.00"> </text>
<text text-anchor="start" x="214.78" y="-18.6" font-family="Work Sans" font-size="8.00"> </text>
<text text-anchor="start" x="217" y="-18.6" font-family="Work Sans" font-size="8.00" fill="red">PRO</text>
<text text-anchor="start" x="234.33" y="-18.6" font-family="Work Sans" font-size="8.00"> </text>
<text text-anchor="start" x="236.56" y="-18.6" font-family="Work Sans" font-size="8.00" fill="blue">SHE</text>
<text text-anchor="start" x="253.01" y="-18.6" font-family="Work Sans" font-size="8.00"> </text>
<text text-anchor="start" x="202.98" y="-10.6" font-family="Work Sans" font-size="8.00"> </text>
<text text-anchor="start" x="205.21" y="-10.6" font-family="Work Sans" font-size="8.00" fill="green">woman%1:18:00</text>
<text text-anchor="start" x="264.8" y="-10.6" font-family="Work Sans" font-size="8.00"> </text>
<text text-anchor="start" x="233.89" y="-2.6" font-family="Work Sans" font-size="8.00" fill="green"> </text>
</a>
</g>
</g>
<!-- V224372&#45;&gt;V224367 -->
<g id="edge11" class="edge">
<title>V224372&#45;&gt;V224367</title>
<path fill="none" stroke="grey" stroke-width="0.5" d="M162.28,-167.81C162.22,-146.37 164.38,-111.11 177.13,-84 184.29,-68.79 196.43,-54.71 207.75,-43.74"/>
<polygon fill="grey" stroke="grey" stroke-width="0.5" points="209.12,-44.85 211.55,-40.14 206.72,-42.31 209.12,-44.85"/>
<text text-anchor="middle" x="195.94" y="-101.6" font-family="Work Sans" font-size="8.00"> AGENT &#160;&#160;</text>
</g>
<!-- V224383 -->
<g id="node5" class="node">
<title>V224383</title>
<g id="a_node5"><a xlink:href="http://trips.ihmc.us/lexicon/data/ONT::TO-LOC.xml" xlink:title="&lt;font color=&quot;green&quot;&gt;&lt;br /&gt;&lt;/font&gt; &lt;font color=&quot;black&quot;&gt;TO&#45;LOC&lt;/font&gt; &lt;font color=&quot;green&quot;&gt;&lt;br /&gt;&lt;/font&gt; &lt;font color=&quot;red&quot;&gt;F&lt;/font&gt; &lt;font color=&quot;blue&quot;&gt;TO&lt;/font&gt; &lt;font color=&quot;green&quot;&gt;&lt;br /&gt; &lt;/font&gt;">
<polygon fill="pink" stroke="transparent" stroke-width="0.5" points="90.97,-88 108,-88 108,-120 90.97,-120 90.97,-88"/>
<polygon fill="lightblue" stroke="transparent" stroke-width="0.5" points="108,-88 125.03,-88 125.03,-120 108,-120 108,-88"/>
<polygon fill="none" stroke="transparent" points="125.03,-120 90.97,-120 90.97,-88 125.03,-88 125.03,-120"/>
<text text-anchor="start" x="90.74" y="-106.6" font-family="Work Sans" font-size="8.00"> </text>
<text text-anchor="start" x="92.96" y="-106.6" font-family="Work Sans" font-size="8.00">TO&#45;LOC</text>
<text text-anchor="start" x="123.04" y="-106.6" font-family="Work Sans" font-size="8.00"> </text>
<text text-anchor="start" x="96.74" y="-98.6" font-family="Work Sans" font-size="8.00"> </text>
<text text-anchor="start" x="98.96" y="-98.6" font-family="Work Sans" font-size="8.00" fill="red">F</text>
<text text-anchor="start" x="103.85" y="-98.6" font-family="Work Sans" font-size="8.00"> </text>
<text text-anchor="start" x="106.07" y="-98.6" font-family="Work Sans" font-size="8.00" fill="blue">TO</text>
<text text-anchor="start" x="117.04" y="-98.6" font-family="Work Sans" font-size="8.00"> </text>
<text text-anchor="start" x="106.89" y="-90.6" font-family="Work Sans" font-size="8.00" fill="green"> </text>
</a>
</g>
</g>
<!-- V224372&#45;&gt;V224383 -->
<g id="edge2" class="edge">
<title>V224372&#45;&gt;V224383</title>
<path fill="none" stroke="grey" stroke-width="0.5" d="M130.67,-171.8C122.23,-166.19 114.15,-158.95 109.28,-150 105.28,-142.64 104.4,-133.54 104.74,-125.46"/>
<polygon fill="grey" stroke="grey" stroke-width="0.5" points="106.51,-125.18 105.14,-120.07 103.02,-124.92 106.51,-125.18"/>
<text text-anchor="middle" x="129.86" y="-143.6" font-family="Work Sans" font-size="8.00"> RESULT &#160;&#160;</text>
</g>
<!-- V224383&#45;&gt;V224367 -->
<g id="edge3" class="edge">
<title>V224383&#45;&gt;V224367</title>
<path fill="none" stroke="grey" stroke-width="0.5" d="M104.49,-87.71C103.23,-78.2 103.44,-66.26 109.89,-58 129.43,-32.95 165.12,-24.24 193.4,-21.49"/>
<polygon fill="grey" stroke="grey" stroke-width="0.5" points="193.75,-23.22 198.58,-21.04 193.45,-19.73 193.75,-23.22"/>
<text text-anchor="middle" x="129.56" y="-59.6" font-family="Work Sans" font-size="8.00"> FIGURE &#160;&#160;</text>
</g>
<!-- V224411 -->
<g id="node6" class="node">
<title>V224411</title>
<g id="a_node6"><a xlink:href="http://trips.ihmc.us/lexicon/data/ONT::NONHUMAN-ANIMAL.xml" xlink:title="&lt;font color=&quot;green&quot;&gt;&lt;br /&gt;&lt;/font&gt; &lt;font color=&quot;black&quot;&gt;NONHUMAN&#45;ANIMAL&lt;/font&gt; &lt;font color=&quot;green&quot;&gt;&lt;br /&gt;&lt;/font&gt; &lt;font color=&quot;red&quot;&gt;THE&#45;SET&lt;/font&gt; &lt;font color=&quot;blue&quot;&gt;DOG&lt;/font&gt; &lt;font color=&quot;green&quot;&gt;&lt;br /&gt;&lt;/font&gt; &lt;font color=&quot;green&quot;&gt;dog%1:05:00::&lt;/font&gt; &lt;font color=&quot;green&quot;&gt;&lt;br /&gt; &lt;/font&gt;">
<text text-anchor="start" x="0" y="-26.6" font-family="Work Sans" font-size="8.00"> </text>
<text text-anchor="start" x="2.22" y="-26.6" font-family="Work Sans" font-size="8.00">NONHUMAN&#45;ANIMAL</text>
<text text-anchor="start" x="81.78" y="-26.6" font-family="Work Sans" font-size="8.00"> </text>
<text text-anchor="start" x="12.45" y="-18.6" font-family="Work Sans" font-size="8.00"> </text>
<text text-anchor="start" x="14.67" y="-18.6" font-family="Work Sans" font-size="8.00" fill="red">THE&#45;SET</text>
<text text-anchor="start" x="48.89" y="-18.6" font-family="Work Sans" font-size="8.00"> </text>
<text text-anchor="start" x="51.11" y="-18.6" font-family="Work Sans" font-size="8.00" fill="blue">DOG</text>
<text text-anchor="start" x="69.34" y="-18.6" font-family="Work Sans" font-size="8.00"> </text>
<text text-anchor="start" x="13.98" y="-10.6" font-family="Work Sans" font-size="8.00"> </text>
<text text-anchor="start" x="16.2" y="-10.6" font-family="Work Sans" font-size="8.00" fill="green">dog%1:05:00::</text>
<text text-anchor="start" x="67.8" y="-10.6" font-family="Work Sans" font-size="8.00"> </text>
<text text-anchor="start" x="40.89" y="-2.6" font-family="Work Sans" font-size="8.00" fill="green"> </text>
</a>
</g>
</g>
<!-- V224383&#45;&gt;V224411 -->
<g id="edge6" class="edge">
<title>V224383&#45;&gt;V224411</title>
<path fill="none" stroke="grey" stroke-width="0.5" d="M90.89,-98.59C75.24,-93.56 52.99,-83.64 42.56,-66 38.94,-59.89 37.82,-52.45 37.88,-45.39"/>
<polygon fill="grey" stroke="grey" stroke-width="0.5" points="39.65,-45.18 38.14,-40.1 36.15,-45.01 39.65,-45.18"/>
<text text-anchor="middle" x="65.22" y="-59.6" font-family="Work Sans" font-size="8.00"> GROUND &#160;&#160;</text>
</g>
<!-- V224419&#45;&gt;V224367 -->
<g id="edge4" class="edge">
<title>V224419&#45;&gt;V224367</title>
<path fill="none" stroke="blue" d="M376.52,-167.81C381.59,-162.64 386.21,-156.62 389,-150 396.38,-132.51 426.15,-142.92 382,-84 356.93,-50.54 310.49,-34.64 276.49,-27.23"/>
<polygon fill="blue" stroke="blue" points="276.82,-25.51 271.57,-26.19 276.1,-28.93 276.82,-25.51"/>
<text text-anchor="middle" x="407.11" y="-101.6" font-family="Work Sans" font-size="8.00">.</text>
</g>
<!-- V224419&#45;&gt;V224367 -->
<g id="edge5" class="edge">
<title>V224419&#45;&gt;V224367</title>
<path fill="none" stroke="red" d="M321.57,-178.14C296.46,-168.92 261.73,-151.86 244.13,-124 229.22,-100.39 229.06,-67.45 231.23,-45.23"/>
<polygon fill="red" stroke="red" points="232.98,-45.27 231.79,-40.11 229.51,-44.89 232.98,-45.27"/>
<text text-anchor="middle" x="262.94" y="-101.6" font-family="Work Sans" font-size="8.00"> AGENT &#160;&#160;</text>
</g>
<!-- V224428 -->
<g id="node8" class="node">
<title>V224428</title>
<g id="a_node8"><a xlink:href="http://trips.ihmc.us/lexicon/data/ONT::ATTIRE.xml" xlink:title="&lt;font color=&quot;green&quot;&gt;&lt;br /&gt;&lt;/font&gt; &lt;font color=&quot;black&quot;&gt;ATTIRE&lt;/font&gt; &lt;font color=&quot;green&quot;&gt;&lt;br /&gt;&lt;/font&gt; &lt;font color=&quot;red&quot;&gt;THE&#45;SET&lt;/font&gt; &lt;font color=&quot;blue&quot;&gt;SHOE&lt;/font&gt; &lt;font color=&quot;green&quot;&gt;&lt;br /&gt;&lt;/font&gt; &lt;font color=&quot;green&quot;&gt;clothing%1:06:00&lt;/font&gt; &lt;font color=&quot;green&quot;&gt;&lt;br /&gt; &lt;/font&gt;">
<text text-anchor="start" x="445.85" y="-110.6" font-family="Work Sans" font-size="8.00"> </text>
<text text-anchor="start" x="448.07" y="-110.6" font-family="Work Sans" font-size="8.00">ATTIRE</text>
<text text-anchor="start" x="475.93" y="-110.6" font-family="Work Sans" font-size="8.00"> </text>
<text text-anchor="start" x="430.22" y="-102.6" font-family="Work Sans" font-size="8.00"> </text>
<text text-anchor="start" x="432.44" y="-102.6" font-family="Work Sans" font-size="8.00" fill="red">THE&#45;SET</text>
<text text-anchor="start" x="466.67" y="-102.6" font-family="Work Sans" font-size="8.00"> </text>
<text text-anchor="start" x="468.89" y="-102.6" font-family="Work Sans" font-size="8.00" fill="blue">SHOE</text>
<text text-anchor="start" x="491.56" y="-102.6" font-family="Work Sans" font-size="8.00"> </text>
<text text-anchor="start" x="429.09" y="-94.6" font-family="Work Sans" font-size="8.00"> </text>
<text text-anchor="start" x="431.31" y="-94.6" font-family="Work Sans" font-size="8.00" fill="green">clothing%1:06:00</text>
<text text-anchor="start" x="492.69" y="-94.6" font-family="Work Sans" font-size="8.00"> </text>
<text text-anchor="start" x="460.89" y="-86.6" font-family="Work Sans" font-size="8.00" fill="green"> </text>
</a>
</g>
</g>
<!-- V224419&#45;&gt;V224428 -->
<g id="edge15" class="edge">
<title>V224419&#45;&gt;V224428</title>
<path fill="none" stroke="grey" stroke-width="0.5" d="M380.55,-174.94C394.2,-168.61 410.18,-160.07 423,-150 430.96,-143.75 438.53,-135.7 444.85,-128.14"/>
<polygon fill="grey" stroke="grey" stroke-width="0.5" points="446.42,-128.99 448.23,-124.01 443.71,-126.77 446.42,-128.99"/>
<text text-anchor="middle" x="456.34" y="-143.6" font-family="Work Sans" font-size="8.00"> AFFECTED &#160;&#160;</text>
</g>
<!-- V224450 -->
<g id="node9" class="node">
<title>V224450</title>
<g id="a_node9"><a xlink:href="http://trips.ihmc.us/lexicon/data/ONT::NONHUMAN-ANIMAL.xml" xlink:title="&lt;font color=&quot;green&quot;&gt;&lt;br /&gt;&lt;/font&gt; &lt;font color=&quot;black&quot;&gt;NONHUMAN&#45;ANIMAL&lt;/font&gt; &lt;font color=&quot;green&quot;&gt;&lt;br /&gt;&lt;/font&gt; &lt;font color=&quot;red&quot;&gt;THE&#45;SET&lt;/font&gt; &lt;font color=&quot;blue&quot;&gt;DOG&lt;/font&gt; &lt;font color=&quot;green&quot;&gt;&lt;br /&gt;&lt;/font&gt; &lt;font color=&quot;green&quot;&gt;dog%1:05:00::&lt;/font&gt; &lt;font color=&quot;green&quot;&gt;&lt;br /&gt; &lt;/font&gt;">
<text text-anchor="start" x="289" y="-110.6" font-family="Work Sans" font-size="8.00"> </text>
<text text-anchor="start" x="291.22" y="-110.6" font-family="Work Sans" font-size="8.00">NONHUMAN&#45;ANIMAL</text>
<text text-anchor="start" x="370.78" y="-110.6" font-family="Work Sans" font-size="8.00"> </text>
<text text-anchor="start" x="301.45" y="-102.6" font-family="Work Sans" font-size="8.00"> </text>
<text text-anchor="start" x="303.67" y="-102.6" font-family="Work Sans" font-size="8.00" fill="red">THE&#45;SET</text>
<text text-anchor="start" x="337.89" y="-102.6" font-family="Work Sans" font-size="8.00"> </text>
<text text-anchor="start" x="340.11" y="-102.6" font-family="Work Sans" font-size="8.00" fill="blue">DOG</text>
<text text-anchor="start" x="358.34" y="-102.6" font-family="Work Sans" font-size="8.00"> </text>
<text text-anchor="start" x="302.98" y="-94.6" font-family="Work Sans" font-size="8.00"> </text>
<text text-anchor="start" x="305.2" y="-94.6" font-family="Work Sans" font-size="8.00" fill="green">dog%1:05:00::</text>
<text text-anchor="start" x="356.8" y="-94.6" font-family="Work Sans" font-size="8.00"> </text>
<text text-anchor="start" x="329.89" y="-86.6" font-family="Work Sans" font-size="8.00" fill="green"> </text>
</a>
</g>
</g>
<!-- V224419&#45;&gt;V224450 -->
<g id="edge8" class="edge">
<title>V224419&#45;&gt;V224450</title>
<path fill="none" stroke="blue" d="M340.47,-167.92C337.83,-162.3 335.31,-156.04 333.78,-150 332.09,-143.35 331.23,-135.98 330.83,-129.16"/>
<polygon fill="blue" stroke="blue" points="332.58,-128.99 330.61,-124.07 329.08,-129.14 332.58,-128.99"/>
<text text-anchor="middle" x="335.11" y="-143.6" font-family="Work Sans" font-size="8.00">.</text>
</g>
<!-- V224419&#45;&gt;V224450 -->
<g id="edge16" class="edge">
<title>V224419&#45;&gt;V224450</title>
<path fill="none" stroke="red" d="M346.36,-167.98C343.56,-156.47 339.95,-141.68 336.94,-129.33"/>
<polygon fill="red" stroke="red" points="338.57,-128.64 335.68,-124.2 335.17,-129.47 338.57,-128.64"/>
<text text-anchor="middle" x="363.56" y="-143.6" font-family="Work Sans" font-size="8.00"> SOURCE &#160;&#160;</text>
</g>
<!-- V224478&#45;&gt;V224367 -->
<g id="edge7" class="edge">
<title>V224478&#45;&gt;V224367</title>
<path fill="none" stroke="red" stroke-width="0.5" d="M503.22,-167.64C512.47,-145.06 522.87,-107.79 504,-84 476.08,-48.79 344.93,-31.37 276.62,-24.56"/>
<polygon fill="red" stroke="red" stroke-width="0.5" points="276.56,-22.8 271.41,-24.05 276.21,-26.28 276.56,-22.8"/>
<text text-anchor="middle" x="531.94" y="-101.6" font-family="Work Sans" font-size="8.00"> AGENT &#160;&#160;</text>
</g>
</g>
</svg>
