<?xml version="1.0" encoding="UTF-8" standalone="no"?>
<!DOCTYPE svg PUBLIC "-//W3C//DTD SVG 1.1//EN"
 "http://www.w3.org/Graphics/SVG/1.1/DTD/svg11.dtd">
<!-- Generated by graphviz version 2.43.0 (0)
 -->
<!-- Title: graph Pages: 1 -->
<svg width="296pt" height="360pt"
 viewBox="0.00 0.00 295.56 360.00" xmlns="http://www.w3.org/2000/svg" xmlns:xlink="http://www.w3.org/1999/xlink">
<g id="graph0" class="graph" transform="scale(1 1) rotate(0) translate(4 356)">
<title>graph</title>
<polygon fill="white" stroke="transparent" points="-4,4 -4,-356 291.56,-356 291.56,4 -4,4"/>
<!-- V272049 -->
<g id="node1" class="node">
<title>V272049</title>
<g id="a_node1"><a xlink:href="http://trips.ihmc.us/lexicon/data/ONT::SA_TELL.xml" xlink:title="&lt;font color=&quot;green&quot;&gt;&lt;br /&gt;&lt;/font&gt; &lt;font color=&quot;black&quot;&gt;SA_TELL&lt;/font&gt; &lt;font color=&quot;green&quot;&gt;&lt;br /&gt;&lt;/font&gt; &lt;font color=&quot;red&quot;&gt;SPEECHACT&lt;/font&gt; &lt;font color=&quot;blue&quot;&gt;* &lt;/font&gt; &lt;font color=&quot;green&quot;&gt;&lt;br /&gt; &lt;/font&gt;">
<text text-anchor="start" x="69.44" y="-338.6" font-family="Work Sans" font-size="8.00"> </text>
<text text-anchor="start" x="71.66" y="-338.6" font-family="Work Sans" font-size="8.00">SA_TELL</text>
<text text-anchor="start" x="105.9" y="-338.6" font-family="Work Sans" font-size="8.00"> </text>
<text text-anchor="start" x="58.33" y="-330.6" font-family="Work Sans" font-size="8.00"> </text>
<text text-anchor="start" x="60.55" y="-330.6" font-family="Work Sans" font-size="8.00" fill="red">SPEECHACT</text>
<text text-anchor="start" x="109.45" y="-330.6" font-family="Work Sans" font-size="8.00"> </text>
<text text-anchor="start" x="111.67" y="-330.6" font-family="Work Sans" font-size="8.00" fill="blue">* </text>
<text text-anchor="start" x="117.01" y="-330.6" font-family="Work Sans" font-size="8.00"> </text>
<text text-anchor="start" x="87.67" y="-322.6" font-family="Work Sans" font-size="8.00" fill="green"> </text>
</a>
</g>
</g>
<!-- V271562 -->
<g id="node2" class="node">
<title>V271562</title>
<g id="a_node2"><a xlink:href="http://trips.ihmc.us/lexicon/data/ONT::COME.xml" xlink:title="&lt;font color=&quot;green&quot;&gt;&lt;br /&gt;&lt;/font&gt; &lt;font color=&quot;black&quot;&gt;COME&lt;/font&gt; &lt;font color=&quot;green&quot;&gt;&lt;br /&gt;&lt;/font&gt; &lt;font color=&quot;red&quot;&gt;F&lt;/font&gt; &lt;font color=&quot;blue&quot;&gt;COME&lt;/font&gt; &lt;font color=&quot;green&quot;&gt;&lt;br /&gt; &lt;/font&gt;">
<text text-anchor="start" x="74.56" y="-262.6" font-family="Work Sans" font-size="8.00"> </text>
<text text-anchor="start" x="76.78" y="-262.6" font-family="Work Sans" font-size="8.00">COME</text>
<text text-anchor="start" x="100.78" y="-262.6" font-family="Work Sans" font-size="8.00"> </text>
<text text-anchor="start" x="71" y="-254.6" font-family="Work Sans" font-size="8.00"> </text>
<text text-anchor="start" x="73.22" y="-254.6" font-family="Work Sans" font-size="8.00" fill="red">F</text>
<text text-anchor="start" x="78.11" y="-254.6" font-family="Work Sans" font-size="8.00"> </text>
<text text-anchor="start" x="80.33" y="-254.6" font-family="Work Sans" font-size="8.00" fill="blue">COME</text>
<text text-anchor="start" x="104.33" y="-254.6" font-family="Work Sans" font-size="8.00"> </text>
<text text-anchor="start" x="87.67" y="-246.6" font-family="Work Sans" font-size="8.00" fill="green"> </text>
</a>
</g>
</g>
<!-- V272049&#45;&gt;V271562 -->
<g id="edge11" class="edge">
<title>V272049&#45;&gt;V271562</title>
<path fill="none" stroke="grey" stroke-width="0.5" d="M88.78,-319.67C88.78,-308.58 88.78,-293.49 88.78,-281.38"/>
<polygon fill="grey" stroke="grey" stroke-width="0.5" points="90.53,-281.06 88.78,-276.06 87.03,-281.06 90.53,-281.06"/>
<text text-anchor="middle" x="112.49" y="-295.6" font-family="Work Sans" font-size="8.00"> CONTENT &#160;&#160;</text>
</g>
<!-- V271484 -->
<g id="node3" class="node">
<title>V271484</title>
<g id="a_node3"><a xlink:href="http://trips.ihmc.us/lexicon/data/ONT::EVENT-TIME-REL.xml" xlink:title="&lt;font color=&quot;green&quot;&gt;&lt;br /&gt;&lt;/font&gt; &lt;font color=&quot;black&quot;&gt;EVENT&#45;TIME&#45;REL&lt;/font&gt; &lt;font color=&quot;green&quot;&gt;&lt;br /&gt;&lt;/font&gt; &lt;font color=&quot;red&quot;&gt;F&lt;/font&gt; &lt;font color=&quot;blue&quot;&gt;ONE&#45;DAY&lt;/font&gt; &lt;font color=&quot;green&quot;&gt;&lt;br /&gt; &lt;/font&gt;">
<polygon fill="pink" stroke="transparent" stroke-width="0.5" points="2.6,-168 37.78,-168 37.78,-200 2.6,-200 2.6,-168"/>
<polygon fill="lightblue" stroke="transparent" stroke-width="0.5" points="37.78,-168 72.96,-168 72.96,-200 37.78,-200 37.78,-168"/>
<polygon fill="none" stroke="transparent" points="72.96,-200 2.6,-200 2.6,-168 72.96,-168 72.96,-200"/>
<text text-anchor="start" x="2.44" y="-186.6" font-family="Work Sans" font-size="8.00"> </text>
<text text-anchor="start" x="4.66" y="-186.6" font-family="Work Sans" font-size="8.00">EVENT&#45;TIME&#45;REL</text>
<text text-anchor="start" x="70.9" y="-186.6" font-family="Work Sans" font-size="8.00"> </text>
<text text-anchor="start" x="14.07" y="-178.6" font-family="Work Sans" font-size="8.00"> </text>
<text text-anchor="start" x="16.29" y="-178.6" font-family="Work Sans" font-size="8.00" fill="red">F</text>
<text text-anchor="start" x="21.18" y="-178.6" font-family="Work Sans" font-size="8.00"> </text>
<text text-anchor="start" x="23.4" y="-178.6" font-family="Work Sans" font-size="8.00" fill="blue">ONE&#45;DAY</text>
<text text-anchor="start" x="59.26" y="-178.6" font-family="Work Sans" font-size="8.00"> </text>
<text text-anchor="start" x="36.67" y="-170.6" font-family="Work Sans" font-size="8.00" fill="green"> </text>
</a>
</g>
</g>
<!-- V271562&#45;&gt;V271484 -->
<g id="edge1" class="edge">
<title>V271562&#45;&gt;V271484</title>
<path fill="none" stroke="blue" d="M70.99,-255.86C54.7,-251.95 31.53,-243.5 20.56,-226 16.49,-219.52 18.16,-211.91 21.72,-205.02"/>
<polygon fill="blue" stroke="blue" points="23.42,-205.58 24.45,-200.38 20.41,-203.8 23.42,-205.58"/>
<text text-anchor="middle" x="21.89" y="-219.6" font-family="Work Sans" font-size="8.00">.</text>
</g>
<!-- V271562&#45;&gt;V271484 -->
<g id="edge8" class="edge">
<title>V271562&#45;&gt;V271484</title>
<path fill="none" stroke="red" d="M71.2,-252.41C59.82,-247.13 45.88,-238.52 38.92,-226 35.5,-219.85 34.55,-212.34 34.68,-205.43"/>
<polygon fill="red" stroke="red" points="36.43,-205.39 34.96,-200.3 32.94,-205.2 36.43,-205.39"/>
<text text-anchor="middle" x="53.71" y="-219.6" font-family="Work Sans" font-size="8.00"> TIME &#160;&#160;</text>
</g>
<!-- V271549 -->
<g id="node5" class="node">
<title>V271549</title>
<g id="a_node5"><a xlink:href="http://trips.ihmc.us/lexicon/data/ONT::CHILD.xml" xlink:title="&lt;font color=&quot;green&quot;&gt;&lt;br /&gt;&lt;/font&gt; &lt;font color=&quot;black&quot;&gt;CHILD&lt;/font&gt; &lt;font color=&quot;green&quot;&gt;&lt;br /&gt;&lt;/font&gt; &lt;font color=&quot;red&quot;&gt;A&lt;/font&gt; &lt;font color=&quot;blue&quot;&gt;KID&lt;/font&gt; &lt;font color=&quot;green&quot;&gt;&lt;br /&gt;&lt;/font&gt; &lt;font color=&quot;green&quot;&gt;kid%1:18:00::&lt;/font&gt; &lt;font color=&quot;green&quot;&gt;&lt;br /&gt; &lt;/font&gt;">
<text text-anchor="start" x="129.55" y="-110.6" font-family="Work Sans" font-size="8.00"> </text>
<text text-anchor="start" x="131.78" y="-110.6" font-family="Work Sans" font-size="8.00">CHILD</text>
<text text-anchor="start" x="155.78" y="-110.6" font-family="Work Sans" font-size="8.00"> </text>
<text text-anchor="start" x="131.11" y="-102.6" font-family="Work Sans" font-size="8.00"> </text>
<text text-anchor="start" x="133.33" y="-102.6" font-family="Work Sans" font-size="8.00" fill="red">A</text>
<text text-anchor="start" x="138.67" y="-102.6" font-family="Work Sans" font-size="8.00"> </text>
<text text-anchor="start" x="140.89" y="-102.6" font-family="Work Sans" font-size="8.00" fill="blue">KID</text>
<text text-anchor="start" x="154.23" y="-102.6" font-family="Work Sans" font-size="8.00"> </text>
<text text-anchor="start" x="117.32" y="-94.6" font-family="Work Sans" font-size="8.00"> </text>
<text text-anchor="start" x="119.54" y="-94.6" font-family="Work Sans" font-size="8.00" fill="green">kid%1:18:00::</text>
<text text-anchor="start" x="168.02" y="-94.6" font-family="Work Sans" font-size="8.00"> </text>
<text text-anchor="start" x="142.67" y="-86.6" font-family="Work Sans" font-size="8.00" fill="green"> </text>
</a>
</g>
</g>
<!-- V271562&#45;&gt;V271549 -->
<g id="edge10" class="edge">
<title>V271562&#45;&gt;V271549</title>
<path fill="none" stroke="grey" stroke-width="0.5" d="M102.97,-243.83C107.31,-238.52 111.73,-232.3 114.78,-226 129.99,-194.6 137.55,-154.66 141.06,-129.45"/>
<polygon fill="grey" stroke="grey" stroke-width="0.5" points="142.82,-129.49 141.75,-124.3 139.35,-129.03 142.82,-129.49"/>
<text text-anchor="middle" x="160.12" y="-181.6" font-family="Work Sans" font-size="8.00"> AFFECTED &#160;&#160;</text>
</g>
<!-- V271573 -->
<g id="node7" class="node">
<title>V271573</title>
<g id="a_node7"><a xlink:href="http://trips.ihmc.us/lexicon/data/ONT::TO-LOC.xml" xlink:title="&lt;font color=&quot;green&quot;&gt;&lt;br /&gt;&lt;/font&gt; &lt;font color=&quot;black&quot;&gt;TO&#45;LOC&lt;/font&gt; &lt;font color=&quot;green&quot;&gt;&lt;br /&gt;&lt;/font&gt; &lt;font color=&quot;red&quot;&gt;F&lt;/font&gt; &lt;font color=&quot;blue&quot;&gt;TO&lt;/font&gt; &lt;font color=&quot;green&quot;&gt;&lt;br /&gt; &lt;/font&gt;">
<polygon fill="pink" stroke="transparent" stroke-width="0.5" points="211.75,-168 228.78,-168 228.78,-200 211.75,-200 211.75,-168"/>
<polygon fill="lightblue" stroke="transparent" stroke-width="0.5" points="228.78,-168 245.81,-168 245.81,-200 228.78,-200 228.78,-168"/>
<polygon fill="none" stroke="transparent" points="245.81,-200 211.75,-200 211.75,-168 245.81,-168 245.81,-200"/>
<text text-anchor="start" x="211.52" y="-186.6" font-family="Work Sans" font-size="8.00"> </text>
<text text-anchor="start" x="213.74" y="-186.6" font-family="Work Sans" font-size="8.00">TO&#45;LOC</text>
<text text-anchor="start" x="243.82" y="-186.6" font-family="Work Sans" font-size="8.00"> </text>
<text text-anchor="start" x="217.52" y="-178.6" font-family="Work Sans" font-size="8.00"> </text>
<text text-anchor="start" x="219.74" y="-178.6" font-family="Work Sans" font-size="8.00" fill="red">F</text>
<text text-anchor="start" x="224.63" y="-178.6" font-family="Work Sans" font-size="8.00"> </text>
<text text-anchor="start" x="226.85" y="-178.6" font-family="Work Sans" font-size="8.00" fill="blue">TO</text>
<text text-anchor="start" x="237.82" y="-178.6" font-family="Work Sans" font-size="8.00"> </text>
<text text-anchor="start" x="227.67" y="-170.6" font-family="Work Sans" font-size="8.00" fill="green"> </text>
</a>
</g>
</g>
<!-- V271562&#45;&gt;V271573 -->
<g id="edge2" class="edge">
<title>V271562&#45;&gt;V271573</title>
<path fill="none" stroke="red" stroke-width="0.5" d="M106.55,-250.77C120.36,-244.28 139.94,-234.87 156.78,-226 173.82,-217.03 192.72,-206.23 206.89,-197.96"/>
<polygon fill="red" stroke="red" stroke-width="0.5" points="208.07,-199.3 211.5,-195.27 206.3,-196.28 208.07,-199.3"/>
<text text-anchor="middle" x="190.64" y="-219.6" font-family="Work Sans" font-size="8.00"> RESULT &#160;&#160;</text>
</g>
<!-- V271484&#45;&gt;V271562 -->
<g id="edge9" class="edge">
<title>V271484&#45;&gt;V271562</title>
<path fill="none" stroke="grey" stroke-width="0.5" d="M52.41,-200.18C57.27,-205.58 62.52,-211.86 66.78,-218 71.34,-224.58 75.67,-232.21 79.26,-239.09"/>
<polygon fill="grey" stroke="grey" stroke-width="0.5" points="77.79,-240.06 81.63,-243.71 80.91,-238.47 77.79,-240.06"/>
<text text-anchor="middle" x="91.34" y="-219.6" font-family="Work Sans" font-size="8.00"> FIGURE &#160;&#160;</text>
</g>
<!-- V271665 -->
<g id="node4" class="node">
<title>V271665</title>
<g id="a_node4"><a xlink:href="http://trips.ihmc.us/lexicon/data/ONT::TIME-LOC.xml" xlink:title="&lt;font color=&quot;green&quot;&gt;&lt;br /&gt;&lt;/font&gt; &lt;font color=&quot;black&quot;&gt;TIME&#45;LOC&lt;/font&gt; &lt;font color=&quot;green&quot;&gt;&lt;br /&gt;&lt;/font&gt; &lt;font color=&quot;red&quot;&gt;IMPRO&lt;/font&gt; &lt;font color=&quot;blue&quot;&gt;SOMETIME&lt;/font&gt; &lt;font color=&quot;green&quot;&gt;&lt;br /&gt; &lt;/font&gt;">
<polygon fill="pink" stroke="transparent" stroke-width="0.5" points="0.22,-88 37.78,-88 37.78,-120 0.22,-120 0.22,-88"/>
<polygon fill="lightblue" stroke="transparent" stroke-width="0.5" points="37.78,-88 75.34,-88 75.34,-120 37.78,-120 37.78,-88"/>
<polygon fill="none" stroke="transparent" points="75.34,-120 0.22,-120 0.22,-88 75.34,-88 75.34,-120"/>
<text text-anchor="start" x="16.45" y="-106.6" font-family="Work Sans" font-size="8.00"> </text>
<text text-anchor="start" x="18.67" y="-106.6" font-family="Work Sans" font-size="8.00">TIME&#45;LOC</text>
<text text-anchor="start" x="56.89" y="-106.6" font-family="Work Sans" font-size="8.00"> </text>
<text text-anchor="start" x="0" y="-98.6" font-family="Work Sans" font-size="8.00"> </text>
<text text-anchor="start" x="2.22" y="-98.6" font-family="Work Sans" font-size="8.00" fill="red">IMPRO</text>
<text text-anchor="start" x="28.45" y="-98.6" font-family="Work Sans" font-size="8.00"> </text>
<text text-anchor="start" x="30.67" y="-98.6" font-family="Work Sans" font-size="8.00" fill="blue">SOMETIME</text>
<text text-anchor="start" x="73.34" y="-98.6" font-family="Work Sans" font-size="8.00"> </text>
<text text-anchor="start" x="36.67" y="-90.6" font-family="Work Sans" font-size="8.00" fill="green"> </text>
</a>
</g>
</g>
<!-- V271484&#45;&gt;V271665 -->
<g id="edge6" class="edge">
<title>V271484&#45;&gt;V271665</title>
<path fill="none" stroke="grey" stroke-width="0.5" d="M37.78,-167.96C37.78,-155.85 37.78,-138.69 37.78,-125.35"/>
<polygon fill="grey" stroke="grey" stroke-width="0.5" points="39.53,-125.26 37.78,-120.26 36.03,-125.26 39.53,-125.26"/>
<text text-anchor="middle" x="60" y="-143.6" font-family="Work Sans" font-size="8.00"> GROUND &#160;&#160;</text>
</g>
<!-- V271545 -->
<g id="node6" class="node">
<title>V271545</title>
<g id="a_node6"><a xlink:href="http://trips.ihmc.us/lexicon/data/ONT::NOVELTY-VAL.xml" xlink:title="&lt;font color=&quot;green&quot;&gt;&lt;br /&gt;&lt;/font&gt; &lt;font color=&quot;black&quot;&gt;NOVELTY&#45;VAL&lt;/font&gt; &lt;font color=&quot;green&quot;&gt;&lt;br /&gt;&lt;/font&gt; &lt;font color=&quot;red&quot;&gt;F&lt;/font&gt; &lt;font color=&quot;blue&quot;&gt;NEW&lt;/font&gt; &lt;font color=&quot;green&quot;&gt;&lt;br /&gt;&lt;/font&gt; &lt;font color=&quot;green&quot;&gt;new%5:00:00:original:00&lt;/font&gt; &lt;font color=&quot;green&quot;&gt;&lt;br /&gt; &lt;/font&gt;">
<text text-anchor="start" x="114.95" y="-26.6" font-family="Work Sans" font-size="8.00"> </text>
<text text-anchor="start" x="117.17" y="-26.6" font-family="Work Sans" font-size="8.00">NOVELTY&#45;VAL</text>
<text text-anchor="start" x="170.39" y="-26.6" font-family="Work Sans" font-size="8.00"> </text>
<text text-anchor="start" x="128.67" y="-18.6" font-family="Work Sans" font-size="8.00"> </text>
<text text-anchor="start" x="130.89" y="-18.6" font-family="Work Sans" font-size="8.00" fill="red">F</text>
<text text-anchor="start" x="135.78" y="-18.6" font-family="Work Sans" font-size="8.00"> </text>
<text text-anchor="start" x="138" y="-18.6" font-family="Work Sans" font-size="8.00" fill="blue">NEW</text>
<text text-anchor="start" x="156.67" y="-18.6" font-family="Work Sans" font-size="8.00"> </text>
<text text-anchor="start" x="97.75" y="-10.6" font-family="Work Sans" font-size="8.00"> </text>
<text text-anchor="start" x="99.97" y="-10.6" font-family="Work Sans" font-size="8.00" fill="green">new%5:00:00:original:00</text>
<text text-anchor="start" x="187.59" y="-10.6" font-family="Work Sans" font-size="8.00"> </text>
<text text-anchor="start" x="142.67" y="-2.6" font-family="Work Sans" font-size="8.00" fill="green"> </text>
</a>
</g>
</g>
<!-- V271549&#45;&gt;V271545 -->
<g id="edge5" class="edge">
<title>V271549&#45;&gt;V271545</title>
<path fill="none" stroke="grey" stroke-width="0.5" d="M123,-83.81C117.21,-76.17 113.23,-67.04 116.22,-58 117.81,-53.21 120.29,-48.54 123.12,-44.21"/>
<polygon fill="grey" stroke="grey" stroke-width="0.5" points="124.62,-45.12 126.04,-40.01 121.75,-43.12 124.62,-45.12"/>
<text text-anchor="middle" x="130.56" y="-59.6" font-family="Work Sans" font-size="8.00"> MOD &#160;&#160;</text>
</g>
<!-- V271545&#45;&gt;V271549 -->
<g id="edge4" class="edge">
<title>V271545&#45;&gt;V271549</title>
<path fill="none" stroke="grey" stroke-width="0.5" d="M146.7,-40.25C147.59,-48.21 148.24,-57.54 147.78,-66 147.56,-70.08 147.2,-74.41 146.79,-78.61"/>
<polygon fill="grey" stroke="grey" stroke-width="0.5" points="145.03,-78.67 146.25,-83.83 148.51,-79.04 145.03,-78.67"/>
<text text-anchor="middle" x="168.34" y="-59.6" font-family="Work Sans" font-size="8.00"> FIGURE &#160;&#160;</text>
</g>
<!-- V271573&#45;&gt;V271549 -->
<g id="edge7" class="edge">
<title>V271573&#45;&gt;V271549</title>
<path fill="none" stroke="grey" stroke-width="0.5" d="M211.68,-169.55C204.45,-163.7 196.01,-156.67 188.67,-150 181.09,-143.11 173.1,-135.3 166,-128.15"/>
<polygon fill="grey" stroke="grey" stroke-width="0.5" points="166.92,-126.58 162.16,-124.25 164.42,-129.04 166.92,-126.58"/>
<text text-anchor="middle" x="208.34" y="-143.6" font-family="Work Sans" font-size="8.00"> FIGURE &#160;&#160;</text>
</g>
<!-- V271595 -->
<g id="node8" class="node">
<title>V271595</title>
<g id="a_node8"><a xlink:href="http://trips.ihmc.us/lexicon/data/ONT::ACADEMIC-INSTITUTION.xml" xlink:title="&lt;font color=&quot;green&quot;&gt;&lt;br /&gt;&lt;/font&gt; &lt;font color=&quot;black&quot;&gt;ACADEMIC&#45;INSTITUTION&lt;/font&gt; &lt;font color=&quot;green&quot;&gt;&lt;br /&gt;&lt;/font&gt; &lt;font color=&quot;red&quot;&gt;BARE&lt;/font&gt; &lt;font color=&quot;blue&quot;&gt;SCHOOL&lt;/font&gt; &lt;font color=&quot;green&quot;&gt;&lt;br /&gt;&lt;/font&gt; &lt;font color=&quot;green&quot;&gt;school%1:14:00::&lt;/font&gt; &lt;font color=&quot;green&quot;&gt;&lt;br /&gt; &lt;/font&gt;">
<text text-anchor="start" x="188" y="-110.6" font-family="Work Sans" font-size="8.00"> </text>
<text text-anchor="start" x="190.22" y="-110.6" font-family="Work Sans" font-size="8.00">ACADEMIC&#45;INSTITUTION</text>
<text text-anchor="start" x="285.33" y="-110.6" font-family="Work Sans" font-size="8.00"> </text>
<text text-anchor="start" x="206.66" y="-102.6" font-family="Work Sans" font-size="8.00"> </text>
<text text-anchor="start" x="208.88" y="-102.6" font-family="Work Sans" font-size="8.00" fill="red">BARE</text>
<text text-anchor="start" x="230.67" y="-102.6" font-family="Work Sans" font-size="8.00"> </text>
<text text-anchor="start" x="232.89" y="-102.6" font-family="Work Sans" font-size="8.00" fill="blue">SCHOOL</text>
<text text-anchor="start" x="266.68" y="-102.6" font-family="Work Sans" font-size="8.00"> </text>
<text text-anchor="start" x="204.87" y="-94.6" font-family="Work Sans" font-size="8.00"> </text>
<text text-anchor="start" x="207.09" y="-94.6" font-family="Work Sans" font-size="8.00" fill="green">school%1:14:00::</text>
<text text-anchor="start" x="268.47" y="-94.6" font-family="Work Sans" font-size="8.00"> </text>
<text text-anchor="start" x="236.67" y="-86.6" font-family="Work Sans" font-size="8.00" fill="green"> </text>
</a>
</g>
</g>
<!-- V271573&#45;&gt;V271595 -->
<g id="edge3" class="edge">
<title>V271573&#45;&gt;V271595</title>
<path fill="none" stroke="grey" stroke-width="0.5" d="M230.51,-167.96C231.77,-157.04 233.51,-142.02 234.97,-129.39"/>
<polygon fill="grey" stroke="grey" stroke-width="0.5" points="236.74,-129.31 235.57,-124.14 233.26,-128.91 236.74,-129.31"/>
<text text-anchor="middle" x="255" y="-143.6" font-family="Work Sans" font-size="8.00"> GROUND &#160;&#160;</text>
</g>
</g>
</svg>
