<?xml version="1.0" encoding="UTF-8" standalone="no"?>
<!DOCTYPE svg PUBLIC "-//W3C//DTD SVG 1.1//EN"
 "http://www.w3.org/Graphics/SVG/1.1/DTD/svg11.dtd">
<!-- Generated by graphviz version 2.43.0 (0)
 -->
<!-- Title: graph Pages: 1 -->
<svg width="360pt" height="536pt"
 viewBox="0.00 0.00 359.90 536.00" xmlns="http://www.w3.org/2000/svg" xmlns:xlink="http://www.w3.org/1999/xlink">
<g id="graph0" class="graph" transform="scale(1 1) rotate(0) translate(4 532)">
<title>graph</title>
<polygon fill="white" stroke="transparent" points="-4,4 -4,-532 355.9,-532 355.9,4 -4,4"/>
<!-- V469536 -->
<g id="node1" class="node">
<title>V469536</title>
<g id="a_node1"><a xlink:href="http://trips.ihmc.us/lexicon/data/ONT::SA_TELL.xml" xlink:title="&lt;font color=&quot;green&quot;&gt;&lt;br /&gt;&lt;/font&gt; &lt;font color=&quot;black&quot;&gt;SA_TELL&lt;/font&gt; &lt;font color=&quot;green&quot;&gt;&lt;br /&gt;&lt;/font&gt; &lt;font color=&quot;red&quot;&gt;SPEECHACT&lt;/font&gt; &lt;font color=&quot;blue&quot;&gt;* &lt;/font&gt; &lt;font color=&quot;green&quot;&gt;&lt;br /&gt; &lt;/font&gt;">
<text text-anchor="start" x="178.44" y="-514.6" font-family="Work Sans" font-size="8.00"> </text>
<text text-anchor="start" x="180.66" y="-514.6" font-family="Work Sans" font-size="8.00">SA_TELL</text>
<text text-anchor="start" x="214.9" y="-514.6" font-family="Work Sans" font-size="8.00"> </text>
<text text-anchor="start" x="167.33" y="-506.6" font-family="Work Sans" font-size="8.00"> </text>
<text text-anchor="start" x="169.55" y="-506.6" font-family="Work Sans" font-size="8.00" fill="red">SPEECHACT</text>
<text text-anchor="start" x="218.45" y="-506.6" font-family="Work Sans" font-size="8.00"> </text>
<text text-anchor="start" x="220.68" y="-506.6" font-family="Work Sans" font-size="8.00" fill="blue">* </text>
<text text-anchor="start" x="226.01" y="-506.6" font-family="Work Sans" font-size="8.00"> </text>
<text text-anchor="start" x="196.67" y="-498.6" font-family="Work Sans" font-size="8.00" fill="green"> </text>
</a>
</g>
</g>
<!-- V469133 -->
<g id="node2" class="node">
<title>V469133</title>
<g id="a_node2"><a xlink:href="http://trips.ihmc.us/lexicon/data/ONT::COMMERCE-SELL.xml" xlink:title="&lt;font color=&quot;green&quot;&gt;&lt;br /&gt;&lt;/font&gt; &lt;font color=&quot;black&quot;&gt;COMMERCE&#45;SELL&lt;/font&gt; &lt;font color=&quot;green&quot;&gt;&lt;br /&gt;&lt;/font&gt; &lt;font color=&quot;red&quot;&gt;F&lt;/font&gt; &lt;font color=&quot;blue&quot;&gt;SELL&lt;/font&gt; &lt;font color=&quot;green&quot;&gt;&lt;br /&gt; &lt;/font&gt;">
<polygon fill="pink" stroke="transparent" stroke-width="0.5" points="160.55,-420 197.78,-420 197.78,-452 160.55,-452 160.55,-420"/>
<polygon fill="lightblue" stroke="transparent" stroke-width="0.5" points="197.78,-420 235.02,-420 235.02,-452 197.78,-452 197.78,-420"/>
<polygon fill="none" stroke="transparent" points="235.02,-452 160.55,-452 160.55,-420 235.02,-420 235.02,-452"/>
<text text-anchor="start" x="160.67" y="-438.6" font-family="Work Sans" font-size="8.00"> </text>
<text text-anchor="start" x="162.89" y="-438.6" font-family="Work Sans" font-size="8.00">COMMERCE&#45;SELL</text>
<text text-anchor="start" x="232.68" y="-438.6" font-family="Work Sans" font-size="8.00"> </text>
<text text-anchor="start" x="182.22" y="-430.6" font-family="Work Sans" font-size="8.00"> </text>
<text text-anchor="start" x="184.44" y="-430.6" font-family="Work Sans" font-size="8.00" fill="red">F</text>
<text text-anchor="start" x="189.33" y="-430.6" font-family="Work Sans" font-size="8.00"> </text>
<text text-anchor="start" x="191.55" y="-430.6" font-family="Work Sans" font-size="8.00" fill="blue">SELL</text>
<text text-anchor="start" x="211.12" y="-430.6" font-family="Work Sans" font-size="8.00"> </text>
<text text-anchor="start" x="196.67" y="-422.6" font-family="Work Sans" font-size="8.00" fill="green"> </text>
</a>
</g>
</g>
<!-- V469536&#45;&gt;V469133 -->
<g id="edge11" class="edge">
<title>V469536&#45;&gt;V469133</title>
<path fill="none" stroke="grey" stroke-width="0.5" d="M197.78,-495.67C197.78,-484.58 197.78,-469.49 197.78,-457.38"/>
<polygon fill="grey" stroke="grey" stroke-width="0.5" points="199.53,-457.06 197.78,-452.06 196.03,-457.06 199.53,-457.06"/>
<text text-anchor="middle" x="221.49" y="-471.6" font-family="Work Sans" font-size="8.00"> CONTENT &#160;&#160;</text>
</g>
<!-- V469025 -->
<g id="node3" class="node">
<title>V469025</title>
<g id="a_node3"><a xlink:href="http://trips.ihmc.us/lexicon/data/ONT::WHEN-WHILE.xml" xlink:title="&lt;font color=&quot;green&quot;&gt;&lt;br /&gt;&lt;/font&gt; &lt;font color=&quot;black&quot;&gt;WHEN&#45;WHILE&lt;/font&gt; &lt;font color=&quot;green&quot;&gt;&lt;br /&gt;&lt;/font&gt; &lt;font color=&quot;red&quot;&gt;F&lt;/font&gt; &lt;font color=&quot;blue&quot;&gt;WHEN&lt;/font&gt; &lt;font color=&quot;green&quot;&gt;&lt;br /&gt; &lt;/font&gt;">
<text text-anchor="start" x="70.34" y="-358.6" font-family="Work Sans" font-size="8.00"> </text>
<text text-anchor="start" x="72.56" y="-358.6" font-family="Work Sans" font-size="8.00">WHEN&#45;WHILE</text>
<text text-anchor="start" x="125" y="-358.6" font-family="Work Sans" font-size="8.00"> </text>
<text text-anchor="start" x="80.79" y="-350.6" font-family="Work Sans" font-size="8.00"> </text>
<text text-anchor="start" x="83.01" y="-350.6" font-family="Work Sans" font-size="8.00" fill="red">F</text>
<text text-anchor="start" x="87.89" y="-350.6" font-family="Work Sans" font-size="8.00"> </text>
<text text-anchor="start" x="90.12" y="-350.6" font-family="Work Sans" font-size="8.00" fill="blue">WHEN</text>
<text text-anchor="start" x="114.56" y="-350.6" font-family="Work Sans" font-size="8.00"> </text>
<text text-anchor="start" x="97.67" y="-342.6" font-family="Work Sans" font-size="8.00" fill="green"> </text>
</a>
</g>
</g>
<!-- V469133&#45;&gt;V469025 -->
<g id="edge8" class="edge">
<title>V469133&#45;&gt;V469025</title>
<path fill="none" stroke="red" stroke-width="0.5" d="M160.33,-435.82C134.75,-433.47 102.72,-425.76 85.12,-402.6 79.52,-394.57 81.25,-385.11 85,-376.52"/>
<path fill="none" stroke="blue" stroke-width="0.5" d="M160.51,-433.83C135.22,-431.53 103.19,-423.81 86.72,-401.4 81.49,-394.93 83.22,-385.47 86.84,-377.32"/>
<polygon fill="red" stroke="red" stroke-width="0.5" points="87.51,-377.66 88.13,-372.4 84.36,-376.12 87.51,-377.66"/>
<text text-anchor="middle" x="100.71" y="-395.6" font-family="Work Sans" font-size="8.00"> TIME &#160;&#160;</text>
</g>
<!-- V469111 -->
<g id="node9" class="node">
<title>V469111</title>
<g id="a_node9"><a xlink:href="http://trips.ihmc.us/lexicon/data/ONT::REFERENTIAL-SEM.xml" xlink:title="&lt;font color=&quot;green&quot;&gt;&lt;br /&gt;&lt;/font&gt; &lt;font color=&quot;black&quot;&gt;REFERENTIAL&#45;SEM&lt;/font&gt; &lt;font color=&quot;green&quot;&gt;&lt;br /&gt;&lt;/font&gt; &lt;font color=&quot;red&quot;&gt;PRO&#45;SET&lt;/font&gt; &lt;font color=&quot;blue&quot;&gt;THEY&lt;/font&gt; &lt;font color=&quot;green&quot;&gt;&lt;br /&gt;&lt;/font&gt; &lt;font color=&quot;green&quot;&gt;entity%1:03:00&lt;/font&gt; &lt;font color=&quot;green&quot;&gt;&lt;br /&gt; &lt;/font&gt;">
<text text-anchor="start" x="158" y="-362.6" font-family="Work Sans" font-size="8.00"> </text>
<text text-anchor="start" x="160.22" y="-362.6" font-family="Work Sans" font-size="8.00">REFERENTIAL&#45;SEM</text>
<text text-anchor="start" x="235.34" y="-362.6" font-family="Work Sans" font-size="8.00"> </text>
<text text-anchor="start" x="166" y="-354.6" font-family="Work Sans" font-size="8.00"> </text>
<text text-anchor="start" x="168.22" y="-354.6" font-family="Work Sans" font-size="8.00" fill="red">PRO&#45;SET</text>
<text text-anchor="start" x="203.78" y="-354.6" font-family="Work Sans" font-size="8.00"> </text>
<text text-anchor="start" x="206.01" y="-354.6" font-family="Work Sans" font-size="8.00" fill="blue">THEY</text>
<text text-anchor="start" x="227.34" y="-354.6" font-family="Work Sans" font-size="8.00"> </text>
<text text-anchor="start" x="169.1" y="-346.6" font-family="Work Sans" font-size="8.00"> </text>
<text text-anchor="start" x="171.32" y="-346.6" font-family="Work Sans" font-size="8.00" fill="green">entity%1:03:00</text>
<text text-anchor="start" x="224.25" y="-346.6" font-family="Work Sans" font-size="8.00"> </text>
<text text-anchor="start" x="196.67" y="-338.6" font-family="Work Sans" font-size="8.00" fill="green"> </text>
</a>
</g>
</g>
<!-- V469133&#45;&gt;V469111 -->
<g id="edge1" class="edge">
<title>V469133&#45;&gt;V469111</title>
<path fill="none" stroke="red" stroke-width="0.5" d="M196.78,-419.96C196.78,-409.04 196.78,-394.02 196.78,-381.39"/>
<path fill="none" stroke="blue" stroke-width="0.5" d="M198.78,-419.96C198.78,-409.04 198.78,-394.02 198.78,-381.39"/>
<polygon fill="red" stroke="red" stroke-width="0.5" points="199.53,-381.14 197.78,-376.14 196.03,-381.14 199.53,-381.14"/>
<text text-anchor="middle" x="223.12" y="-395.6" font-family="Work Sans" font-size="8.00"> AFFECTED &#160;&#160;</text>
</g>
<!-- V469144 -->
<g id="node10" class="node">
<title>V469144</title>
<g id="a_node10"><a xlink:href="http://trips.ihmc.us/lexicon/data/ONT::COMPLETELY.xml" xlink:title="&lt;font color=&quot;green&quot;&gt;&lt;br /&gt;&lt;/font&gt; &lt;font color=&quot;black&quot;&gt;COMPLETELY&lt;/font&gt; &lt;font color=&quot;green&quot;&gt;&lt;br /&gt;&lt;/font&gt; &lt;font color=&quot;red&quot;&gt;F&lt;/font&gt; &lt;font color=&quot;blue&quot;&gt;OUT&lt;/font&gt; &lt;font color=&quot;green&quot;&gt;&lt;br /&gt;&lt;/font&gt; &lt;font color=&quot;green&quot;&gt;out%4:02:02::&lt;/font&gt; &lt;font color=&quot;green&quot;&gt;&lt;br /&gt; &lt;/font&gt;">
<polygon fill="pink" stroke="transparent" stroke-width="0.5" points="283.13,-336 311.78,-336 311.78,-376 283.13,-376 283.13,-336"/>
<polygon fill="lightblue" stroke="transparent" stroke-width="0.5" points="311.78,-336 340.43,-336 340.43,-376 311.78,-376 311.78,-336"/>
<polygon fill="none" stroke="transparent" points="340.43,-376 283.13,-376 283.13,-336 340.43,-336 340.43,-376"/>
<text text-anchor="start" x="282.96" y="-362.6" font-family="Work Sans" font-size="8.00"> </text>
<text text-anchor="start" x="285.18" y="-362.6" font-family="Work Sans" font-size="8.00">COMPLETELY</text>
<text text-anchor="start" x="338.38" y="-362.6" font-family="Work Sans" font-size="8.00"> </text>
<text text-anchor="start" x="297.56" y="-354.6" font-family="Work Sans" font-size="8.00"> </text>
<text text-anchor="start" x="299.79" y="-354.6" font-family="Work Sans" font-size="8.00" fill="red">F</text>
<text text-anchor="start" x="304.67" y="-354.6" font-family="Work Sans" font-size="8.00"> </text>
<text text-anchor="start" x="306.89" y="-354.6" font-family="Work Sans" font-size="8.00" fill="blue">OUT</text>
<text text-anchor="start" x="323.78" y="-354.6" font-family="Work Sans" font-size="8.00"> </text>
<text text-anchor="start" x="284.88" y="-346.6" font-family="Work Sans" font-size="8.00"> </text>
<text text-anchor="start" x="287.1" y="-346.6" font-family="Work Sans" font-size="8.00" fill="green">out%4:02:02::</text>
<text text-anchor="start" x="336.47" y="-346.6" font-family="Work Sans" font-size="8.00"> </text>
<text text-anchor="start" x="310.67" y="-338.6" font-family="Work Sans" font-size="8.00" fill="green"> </text>
</a>
</g>
</g>
<!-- V469133&#45;&gt;V469144 -->
<g id="edge3" class="edge">
<title>V469133&#45;&gt;V469144</title>
<path fill="none" stroke="red" stroke-width="0.5" d="M221.79,-419.02C230.53,-413.52 240.4,-407.17 249.22,-401.17 259.79,-393.99 271.18,-385.85 281.27,-378.49"/>
<path fill="none" stroke="blue" stroke-width="0.5" d="M222.86,-420.71C231.61,-415.2 241.48,-408.85 250.35,-402.83 260.95,-395.62 272.35,-387.48 282.45,-380.1"/>
<polygon fill="red" stroke="red" stroke-width="0.5" points="283.1,-380.56 286.1,-376.19 281.03,-377.73 283.1,-380.56"/>
<text text-anchor="middle" x="282.56" y="-395.6" font-family="Work Sans" font-size="8.00"> MANNER &#160;&#160;</text>
</g>
<!-- V469025&#45;&gt;V469133 -->
<g id="edge12" class="edge">
<title>V469025&#45;&gt;V469133</title>
<path fill="none" stroke="red" stroke-width="0.5" d="M117.95,-371.34C128.78,-380.12 142.76,-391.37 155.29,-401.21 161.43,-406.03 168.11,-411.19 174.34,-415.96"/>
<path fill="none" stroke="blue" stroke-width="0.5" d="M116.69,-372.89C127.53,-381.68 141.5,-392.93 154.05,-402.79 160.2,-407.62 166.89,-412.77 173.12,-417.55"/>
<polygon fill="red" stroke="red" stroke-width="0.5" points="172.92,-418.34 177.96,-419.99 175.05,-415.56 172.92,-418.34"/>
<text text-anchor="middle" x="174.34" y="-395.6" font-family="Work Sans" font-size="8.00"> FIGURE &#160;&#160;</text>
</g>
<!-- V469058 -->
<g id="node4" class="node">
<title>V469058</title>
<g id="a_node4"><a xlink:href="http://trips.ihmc.us/lexicon/data/ONT::MOVE.xml" xlink:title="&lt;font color=&quot;green&quot;&gt;&lt;br /&gt;&lt;/font&gt; &lt;font color=&quot;black&quot;&gt;MOVE&lt;/font&gt; &lt;font color=&quot;green&quot;&gt;&lt;br /&gt;&lt;/font&gt; &lt;font color=&quot;red&quot;&gt;F&lt;/font&gt; &lt;font color=&quot;blue&quot;&gt;GO&lt;/font&gt; &lt;font color=&quot;green&quot;&gt;&lt;br /&gt;&lt;/font&gt; &lt;font color=&quot;green&quot;&gt;go%2:38:00::&lt;/font&gt; &lt;font color=&quot;green&quot;&gt;&lt;br /&gt; &lt;/font&gt;">
<polygon fill="pink" stroke="transparent" stroke-width="0.5" points="73.19,-252 98.78,-252 98.78,-292 73.19,-292 73.19,-252"/>
<polygon fill="lightblue" stroke="transparent" stroke-width="0.5" points="98.78,-252 124.38,-252 124.38,-292 98.78,-292 98.78,-252"/>
<polygon fill="none" stroke="transparent" points="124.38,-292 73.19,-292 73.19,-252 124.38,-252 124.38,-292"/>
<text text-anchor="start" x="84.78" y="-278.6" font-family="Work Sans" font-size="8.00"> </text>
<text text-anchor="start" x="87" y="-278.6" font-family="Work Sans" font-size="8.00">MOVE</text>
<text text-anchor="start" x="110.56" y="-278.6" font-family="Work Sans" font-size="8.00"> </text>
<text text-anchor="start" x="86.78" y="-270.6" font-family="Work Sans" font-size="8.00"> </text>
<text text-anchor="start" x="89.01" y="-270.6" font-family="Work Sans" font-size="8.00" fill="red">F</text>
<text text-anchor="start" x="93.89" y="-270.6" font-family="Work Sans" font-size="8.00"> </text>
<text text-anchor="start" x="96.12" y="-270.6" font-family="Work Sans" font-size="8.00" fill="blue">GO</text>
<text text-anchor="start" x="108.56" y="-270.6" font-family="Work Sans" font-size="8.00"> </text>
<text text-anchor="start" x="72.99" y="-262.6" font-family="Work Sans" font-size="8.00"> </text>
<text text-anchor="start" x="75.21" y="-262.6" font-family="Work Sans" font-size="8.00" fill="green">go%2:38:00::</text>
<text text-anchor="start" x="122.36" y="-262.6" font-family="Work Sans" font-size="8.00"> </text>
<text text-anchor="start" x="97.67" y="-254.6" font-family="Work Sans" font-size="8.00" fill="green"> </text>
</a>
</g>
</g>
<!-- V469025&#45;&gt;V469058 -->
<g id="edge7" class="edge">
<title>V469025&#45;&gt;V469058</title>
<path fill="none" stroke="grey" stroke-width="0.5" d="M98.78,-339.96C98.78,-328.12 98.78,-311.38 98.78,-297.6"/>
<polygon fill="grey" stroke="grey" stroke-width="0.5" points="100.53,-297.29 98.78,-292.29 97.03,-297.29 100.53,-297.29"/>
<text text-anchor="middle" x="121.01" y="-311.6" font-family="Work Sans" font-size="8.00"> GROUND &#160;&#160;</text>
</g>
<!-- V469038 -->
<g id="node5" class="node">
<title>V469038</title>
<g id="a_node5"><a xlink:href="http://trips.ihmc.us/lexicon/data/ONT::REFERENTIAL-SEM.xml" xlink:title="&lt;font color=&quot;green&quot;&gt;&lt;br /&gt;&lt;/font&gt; &lt;font color=&quot;black&quot;&gt;REFERENTIAL&#45;SEM&lt;/font&gt; &lt;font color=&quot;green&quot;&gt;&lt;br /&gt;&lt;/font&gt; &lt;font color=&quot;red&quot;&gt;PRO&#45;SET&lt;/font&gt; &lt;font color=&quot;blue&quot;&gt;THEY&lt;/font&gt; &lt;font color=&quot;green&quot;&gt;&lt;br /&gt;&lt;/font&gt; &lt;font color=&quot;green&quot;&gt;entity%1:03:00&lt;/font&gt; &lt;font color=&quot;green&quot;&gt;&lt;br /&gt; &lt;/font&gt;">
<text text-anchor="start" x="0" y="-194.6" font-family="Work Sans" font-size="8.00"> </text>
<text text-anchor="start" x="2.22" y="-194.6" font-family="Work Sans" font-size="8.00">REFERENTIAL&#45;SEM</text>
<text text-anchor="start" x="77.34" y="-194.6" font-family="Work Sans" font-size="8.00"> </text>
<text text-anchor="start" x="8" y="-186.6" font-family="Work Sans" font-size="8.00"> </text>
<text text-anchor="start" x="10.22" y="-186.6" font-family="Work Sans" font-size="8.00" fill="red">PRO&#45;SET</text>
<text text-anchor="start" x="45.78" y="-186.6" font-family="Work Sans" font-size="8.00"> </text>
<text text-anchor="start" x="48.01" y="-186.6" font-family="Work Sans" font-size="8.00" fill="blue">THEY</text>
<text text-anchor="start" x="69.34" y="-186.6" font-family="Work Sans" font-size="8.00"> </text>
<text text-anchor="start" x="11.1" y="-178.6" font-family="Work Sans" font-size="8.00"> </text>
<text text-anchor="start" x="13.32" y="-178.6" font-family="Work Sans" font-size="8.00" fill="green">entity%1:03:00</text>
<text text-anchor="start" x="66.25" y="-178.6" font-family="Work Sans" font-size="8.00"> </text>
<text text-anchor="start" x="38.67" y="-170.6" font-family="Work Sans" font-size="8.00" fill="green"> </text>
</a>
</g>
</g>
<!-- V469058&#45;&gt;V469038 -->
<g id="edge2" class="edge">
<title>V469058&#45;&gt;V469038</title>
<path fill="none" stroke="grey" stroke-width="0.5" d="M72.81,-253.09C66.26,-247.59 59.73,-241.09 54.91,-234 50.62,-227.69 47.45,-220.05 45.16,-212.88"/>
<polygon fill="grey" stroke="grey" stroke-width="0.5" points="46.81,-212.3 43.71,-208.01 43.46,-213.3 46.81,-212.3"/>
<text text-anchor="middle" x="73.72" y="-227.6" font-family="Work Sans" font-size="8.00"> AGENT &#160;&#160;</text>
</g>
<!-- V469081 -->
<g id="node6" class="node">
<title>V469081</title>
<g id="a_node6"><a xlink:href="http://trips.ihmc.us/lexicon/data/ONT::PURPOSE.xml" xlink:title="&lt;font color=&quot;green&quot;&gt;&lt;br /&gt;&lt;/font&gt; &lt;font color=&quot;black&quot;&gt;PURPOSE&lt;/font&gt; &lt;font color=&quot;green&quot;&gt;&lt;br /&gt;&lt;/font&gt; &lt;font color=&quot;red&quot;&gt;F&lt;/font&gt; &lt;font color=&quot;blue&quot;&gt;TO&lt;/font&gt; &lt;font color=&quot;green&quot;&gt;&lt;br /&gt; &lt;/font&gt;">
<text text-anchor="start" x="120" y="-190.6" font-family="Work Sans" font-size="8.00"> </text>
<text text-anchor="start" x="122.22" y="-190.6" font-family="Work Sans" font-size="8.00">PURPOSE</text>
<text text-anchor="start" x="161.34" y="-190.6" font-family="Work Sans" font-size="8.00"> </text>
<text text-anchor="start" x="130.52" y="-182.6" font-family="Work Sans" font-size="8.00"> </text>
<text text-anchor="start" x="132.74" y="-182.6" font-family="Work Sans" font-size="8.00" fill="red">F</text>
<text text-anchor="start" x="137.63" y="-182.6" font-family="Work Sans" font-size="8.00"> </text>
<text text-anchor="start" x="139.85" y="-182.6" font-family="Work Sans" font-size="8.00" fill="blue">TO</text>
<text text-anchor="start" x="150.82" y="-182.6" font-family="Work Sans" font-size="8.00"> </text>
<text text-anchor="start" x="140.67" y="-174.6" font-family="Work Sans" font-size="8.00" fill="green"> </text>
</a>
</g>
</g>
<!-- V469058&#45;&gt;V469081 -->
<g id="edge10" class="edge">
<title>V469058&#45;&gt;V469081</title>
<path fill="none" stroke="grey" stroke-width="0.5" d="M93.61,-251.81C92.37,-243.51 92.33,-233.91 96.11,-226 100.33,-217.14 107.83,-209.71 115.55,-203.9"/>
<polygon fill="grey" stroke="grey" stroke-width="0.5" points="116.79,-205.16 119.84,-200.83 114.75,-202.31 116.79,-205.16"/>
<text text-anchor="middle" x="118.12" y="-227.6" font-family="Work Sans" font-size="8.00"> REASON &#160;&#160;</text>
</g>
<!-- V469081&#45;&gt;V469058 -->
<g id="edge9" class="edge">
<title>V469081&#45;&gt;V469058</title>
<path fill="none" stroke="grey" stroke-width="0.5" d="M145.39,-204.28C146.75,-213.33 147.07,-224.79 142.78,-234 139.57,-240.91 134.35,-246.99 128.62,-252.12"/>
<polygon fill="grey" stroke="grey" stroke-width="0.5" points="127.28,-250.96 124.58,-255.52 129.54,-253.64 127.28,-250.96"/>
<text text-anchor="middle" x="165.34" y="-227.6" font-family="Work Sans" font-size="8.00"> FIGURE &#160;&#160;</text>
</g>
<!-- V469099 -->
<g id="node7" class="node">
<title>V469099</title>
<g id="a_node7"><a xlink:href="http://trips.ihmc.us/lexicon/data/ONT::PURCHASE.xml" xlink:title="&lt;font color=&quot;green&quot;&gt;&lt;br /&gt;&lt;/font&gt; &lt;font color=&quot;black&quot;&gt;PURCHASE&lt;/font&gt; &lt;font color=&quot;green&quot;&gt;&lt;br /&gt;&lt;/font&gt; &lt;font color=&quot;red&quot;&gt;F&lt;/font&gt; &lt;font color=&quot;blue&quot;&gt;BUY&lt;/font&gt; &lt;font color=&quot;green&quot;&gt;&lt;br /&gt;&lt;/font&gt; &lt;font color=&quot;green&quot;&gt;buy%2:40:00::&lt;/font&gt; &lt;font color=&quot;green&quot;&gt;&lt;br /&gt; &lt;/font&gt;">
<text text-anchor="start" x="117.33" y="-110.6" font-family="Work Sans" font-size="8.00"> </text>
<text text-anchor="start" x="119.56" y="-110.6" font-family="Work Sans" font-size="8.00">PURCHASE</text>
<text text-anchor="start" x="164.01" y="-110.6" font-family="Work Sans" font-size="8.00"> </text>
<text text-anchor="start" x="127.78" y="-102.6" font-family="Work Sans" font-size="8.00"> </text>
<text text-anchor="start" x="130" y="-102.6" font-family="Work Sans" font-size="8.00" fill="red">F</text>
<text text-anchor="start" x="134.89" y="-102.6" font-family="Work Sans" font-size="8.00"> </text>
<text text-anchor="start" x="137.11" y="-102.6" font-family="Work Sans" font-size="8.00" fill="blue">BUY</text>
<text text-anchor="start" x="153.56" y="-102.6" font-family="Work Sans" font-size="8.00"> </text>
<text text-anchor="start" x="113.99" y="-94.6" font-family="Work Sans" font-size="8.00"> </text>
<text text-anchor="start" x="116.21" y="-94.6" font-family="Work Sans" font-size="8.00" fill="green">buy%2:40:00::</text>
<text text-anchor="start" x="167.36" y="-94.6" font-family="Work Sans" font-size="8.00"> </text>
<text text-anchor="start" x="140.67" y="-86.6" font-family="Work Sans" font-size="8.00" fill="green"> </text>
</a>
</g>
</g>
<!-- V469081&#45;&gt;V469099 -->
<g id="edge6" class="edge">
<title>V469081&#45;&gt;V469099</title>
<path fill="none" stroke="grey" stroke-width="0.5" d="M141.78,-171.96C141.78,-160.12 141.78,-143.38 141.78,-129.6"/>
<polygon fill="grey" stroke="grey" stroke-width="0.5" points="143.53,-129.29 141.78,-124.29 140.03,-129.29 143.53,-129.29"/>
<text text-anchor="middle" x="164.01" y="-143.6" font-family="Work Sans" font-size="8.00"> GROUND &#160;&#160;</text>
</g>
<!-- V469108 -->
<g id="node8" class="node">
<title>V469108</title>
<g id="a_node8"><a xlink:href="http://trips.ihmc.us/lexicon/data/ONT::OFFICIAL-DOCUMENT.xml" xlink:title="&lt;font color=&quot;green&quot;&gt;&lt;br /&gt;&lt;/font&gt; &lt;font color=&quot;black&quot;&gt;OFFICIAL&#45;DOCUMENT&lt;/font&gt; &lt;font color=&quot;green&quot;&gt;&lt;br /&gt;&lt;/font&gt; &lt;font color=&quot;red&quot;&gt;THE&#45;SET&lt;/font&gt; &lt;font color=&quot;blue&quot;&gt;TICKET&lt;/font&gt; &lt;font color=&quot;green&quot;&gt;&lt;br /&gt;&lt;/font&gt; &lt;font color=&quot;green&quot;&gt;ticket%1:10:01::&lt;/font&gt; &lt;font color=&quot;green&quot;&gt;&lt;br /&gt; &lt;/font&gt;">
<text text-anchor="start" x="97.12" y="-26.6" font-family="Work Sans" font-size="8.00"> </text>
<text text-anchor="start" x="99.34" y="-26.6" font-family="Work Sans" font-size="8.00">OFFICIAL&#45;DOCUMENT</text>
<text text-anchor="start" x="184.23" y="-26.6" font-family="Work Sans" font-size="8.00"> </text>
<text text-anchor="start" x="107.12" y="-18.6" font-family="Work Sans" font-size="8.00"> </text>
<text text-anchor="start" x="109.34" y="-18.6" font-family="Work Sans" font-size="8.00" fill="red">THE&#45;SET</text>
<text text-anchor="start" x="143.56" y="-18.6" font-family="Work Sans" font-size="8.00"> </text>
<text text-anchor="start" x="145.78" y="-18.6" font-family="Work Sans" font-size="8.00" fill="blue">TICKET</text>
<text text-anchor="start" x="174.23" y="-18.6" font-family="Work Sans" font-size="8.00"> </text>
<text text-anchor="start" x="111.1" y="-10.6" font-family="Work Sans" font-size="8.00"> </text>
<text text-anchor="start" x="113.32" y="-10.6" font-family="Work Sans" font-size="8.00" fill="green">ticket%1:10:01::</text>
<text text-anchor="start" x="170.24" y="-10.6" font-family="Work Sans" font-size="8.00"> </text>
<text text-anchor="start" x="140.67" y="-2.6" font-family="Work Sans" font-size="8.00" fill="green"> </text>
</a>
</g>
</g>
<!-- V469099&#45;&gt;V469108 -->
<g id="edge5" class="edge">
<title>V469099&#45;&gt;V469108</title>
<path fill="none" stroke="grey" stroke-width="0.5" d="M141.78,-83.98C141.78,-72.47 141.78,-57.68 141.78,-45.33"/>
<polygon fill="grey" stroke="grey" stroke-width="0.5" points="143.53,-45.2 141.78,-40.2 140.03,-45.2 143.53,-45.2"/>
<text text-anchor="middle" x="167.12" y="-59.6" font-family="Work Sans" font-size="8.00"> AFFECTED &#160;&#160;</text>
</g>
<!-- V469144&#45;&gt;V469133 -->
<g id="edge4" class="edge">
<title>V469144&#45;&gt;V469133</title>
<path fill="none" stroke="red" stroke-width="0.5" d="M316.16,-376.24C316.59,-385.11 315.45,-395.02 309.56,-402.62 292.71,-423.42 264.27,-431.6 240.12,-434.73"/>
<path fill="none" stroke="blue" stroke-width="0.5" d="M314.16,-376.34C314.61,-384.88 313.46,-394.79 308,-401.38 292.16,-421.49 263.72,-429.68 239.87,-432.75"/>
<polygon fill="red" stroke="red" stroke-width="0.5" points="239.71,-432.01 234.95,-434.33 240.12,-435.49 239.71,-432.01"/>
<text text-anchor="middle" x="332.34" y="-395.6" font-family="Work Sans" font-size="8.00"> FIGURE &#160;&#160;</text>
</g>
</g>
</svg>
