<?xml version="1.0" encoding="UTF-8" standalone="no"?>
<!DOCTYPE svg PUBLIC "-//W3C//DTD SVG 1.1//EN"
 "http://www.w3.org/Graphics/SVG/1.1/DTD/svg11.dtd">
<!-- Generated by graphviz version 2.43.0 (0)
 -->
<!-- Title: graph Pages: 1 -->
<svg width="268pt" height="292pt"
 viewBox="0.00 0.00 268.14 292.00" xmlns="http://www.w3.org/2000/svg" xmlns:xlink="http://www.w3.org/1999/xlink">
<g id="graph0" class="graph" transform="scale(1 1) rotate(0) translate(4 288)">
<title>graph</title>
<polygon fill="white" stroke="transparent" points="-4,4 -4,-288 264.14,-288 264.14,4 -4,4"/>
<!-- V52575 -->
<g id="node1" class="node">
<title>V52575</title>
<g id="a_node1"><a xlink:href="http://trips.ihmc.us/lexicon/data/ONT::SA_WH-QUESTION.xml" xlink:title="&lt;font color=&quot;green&quot;&gt;&lt;br /&gt;&lt;/font&gt; &lt;font color=&quot;black&quot;&gt;SA_WH&#45;QUESTION&lt;/font&gt; &lt;font color=&quot;green&quot;&gt;&lt;br /&gt;&lt;/font&gt; &lt;font color=&quot;red&quot;&gt;SPEECHACT&lt;/font&gt; &lt;font color=&quot;blue&quot;&gt;* &lt;/font&gt; &lt;font color=&quot;green&quot;&gt;&lt;br /&gt; &lt;/font&gt;">
<polygon fill="pink" stroke="transparent" stroke-width="0.5" points="151.41,-252 190.25,-252 190.25,-284 151.41,-284 151.41,-252"/>
<polygon fill="lightblue" stroke="transparent" stroke-width="0.5" points="190.25,-252 229.09,-252 229.09,-284 190.25,-284 190.25,-252"/>
<polygon fill="none" stroke="transparent" points="229.09,-284 151.41,-284 151.41,-252 229.09,-252 229.09,-284"/>
<text text-anchor="start" x="151.58" y="-270.6" font-family="Work Sans" font-size="8.00"> </text>
<text text-anchor="start" x="153.8" y="-270.6" font-family="Work Sans" font-size="8.00">SA_WH&#45;QUESTION</text>
<text text-anchor="start" x="226.69" y="-270.6" font-family="Work Sans" font-size="8.00"> </text>
<text text-anchor="start" x="159.79" y="-262.6" font-family="Work Sans" font-size="8.00"> </text>
<text text-anchor="start" x="162.02" y="-262.6" font-family="Work Sans" font-size="8.00" fill="red">SPEECHACT</text>
<text text-anchor="start" x="210.92" y="-262.6" font-family="Work Sans" font-size="8.00"> </text>
<text text-anchor="start" x="213.14" y="-262.6" font-family="Work Sans" font-size="8.00" fill="blue">* </text>
<text text-anchor="start" x="218.47" y="-262.6" font-family="Work Sans" font-size="8.00"> </text>
<text text-anchor="start" x="189.13" y="-254.6" font-family="Work Sans" font-size="8.00" fill="green"> </text>
</a>
</g>
</g>
<!-- V52366 -->
<g id="node2" class="node">
<title>V52366</title>
<g id="a_node2"><a xlink:href="http://trips.ihmc.us/lexicon/data/ONT::HAVE-PROPERTY.xml" xlink:title="&lt;font color=&quot;green&quot;&gt;&lt;br /&gt;&lt;/font&gt; &lt;font color=&quot;black&quot;&gt;HAVE&#45;PROPERTY&lt;/font&gt; &lt;font color=&quot;green&quot;&gt;&lt;br /&gt;&lt;/font&gt; &lt;font color=&quot;red&quot;&gt;F&lt;/font&gt; &lt;font color=&quot;blue&quot;&gt;BE&lt;/font&gt; &lt;font color=&quot;green&quot;&gt;&lt;br /&gt;&lt;/font&gt; &lt;font color=&quot;green&quot;&gt;be%2:42:03::&lt;/font&gt; &lt;font color=&quot;green&quot;&gt;&lt;br /&gt; &lt;/font&gt;">
<text text-anchor="start" x="117.16" y="-194.6" font-family="Work Sans" font-size="8.00"> </text>
<text text-anchor="start" x="119.38" y="-194.6" font-family="Work Sans" font-size="8.00">HAVE&#45;PROPERTY</text>
<text text-anchor="start" x="187.11" y="-194.6" font-family="Work Sans" font-size="8.00"> </text>
<text text-anchor="start" x="142.13" y="-186.6" font-family="Work Sans" font-size="8.00"> </text>
<text text-anchor="start" x="144.36" y="-186.6" font-family="Work Sans" font-size="8.00" fill="red">F</text>
<text text-anchor="start" x="149.24" y="-186.6" font-family="Work Sans" font-size="8.00"> </text>
<text text-anchor="start" x="151.46" y="-186.6" font-family="Work Sans" font-size="8.00" fill="blue">BE</text>
<text text-anchor="start" x="162.14" y="-186.6" font-family="Work Sans" font-size="8.00"> </text>
<text text-anchor="start" x="127.45" y="-178.6" font-family="Work Sans" font-size="8.00"> </text>
<text text-anchor="start" x="129.67" y="-178.6" font-family="Work Sans" font-size="8.00" fill="green">be%2:42:03::</text>
<text text-anchor="start" x="176.82" y="-178.6" font-family="Work Sans" font-size="8.00"> </text>
<text text-anchor="start" x="152.13" y="-170.6" font-family="Work Sans" font-size="8.00" fill="green"> </text>
</a>
</g>
</g>
<!-- V52575&#45;&gt;V52366 -->
<g id="edge1" class="edge">
<title>V52575&#45;&gt;V52366</title>
<path fill="none" stroke="red" stroke-width="0.5" d="M176.54,-252.58C172.37,-247.14 168.07,-240.84 164.93,-234.44 161.76,-227.93 159.3,-220.64 157.4,-213.76"/>
<path fill="none" stroke="blue" stroke-width="0.5" d="M178.13,-251.37C174.02,-246.02 169.73,-239.71 166.73,-233.56 163.66,-227.29 161.2,-220 159.33,-213.23"/>
<polygon fill="red" stroke="red" stroke-width="0.5" points="159.99,-212.79 157.03,-208.39 156.6,-213.67 159.99,-212.79"/>
<text text-anchor="middle" x="188.95" y="-227.6" font-family="Work Sans" font-size="8.00"> CONTENT &#160;&#160;</text>
</g>
<!-- V52358 -->
<g id="node3" class="node">
<title>V52358</title>
<g id="a_node3"><a xlink:href="http://trips.ihmc.us/lexicon/data/ONT::PERSON.xml" xlink:title="&lt;font color=&quot;green&quot;&gt;&lt;br /&gt;&lt;/font&gt; &lt;font color=&quot;black&quot;&gt;PERSON&lt;/font&gt; &lt;font color=&quot;green&quot;&gt;&lt;br /&gt;&lt;/font&gt; &lt;font color=&quot;red&quot;&gt;WH&#45;TERM&#45;SET&lt;/font&gt; &lt;font color=&quot;blue&quot;&gt;WHO&lt;/font&gt; &lt;font color=&quot;green&quot;&gt;&lt;br /&gt;&lt;/font&gt; &lt;font color=&quot;green&quot;&gt;person%1:03:00&lt;/font&gt; &lt;font color=&quot;green&quot;&gt;&lt;br /&gt; &lt;/font&gt;">
<text text-anchor="start" x="134.13" y="-26.6" font-family="Work Sans" font-size="8.00"> </text>
<text text-anchor="start" x="136.35" y="-26.6" font-family="Work Sans" font-size="8.00">PERSON</text>
<text text-anchor="start" x="170.14" y="-26.6" font-family="Work Sans" font-size="8.00"> </text>
<text text-anchor="start" x="111.7" y="-18.6" font-family="Work Sans" font-size="8.00"> </text>
<text text-anchor="start" x="113.92" y="-18.6" font-family="Work Sans" font-size="8.00" fill="red">WH&#45;TERM&#45;SET</text>
<text text-anchor="start" x="170.8" y="-18.6" font-family="Work Sans" font-size="8.00"> </text>
<text text-anchor="start" x="173.02" y="-18.6" font-family="Work Sans" font-size="8.00" fill="blue">WHO</text>
<text text-anchor="start" x="192.57" y="-18.6" font-family="Work Sans" font-size="8.00"> </text>
<text text-anchor="start" x="121.89" y="-10.6" font-family="Work Sans" font-size="8.00"> </text>
<text text-anchor="start" x="124.11" y="-10.6" font-family="Work Sans" font-size="8.00" fill="green">person%1:03:00</text>
<text text-anchor="start" x="182.38" y="-10.6" font-family="Work Sans" font-size="8.00"> </text>
<text text-anchor="start" x="152.13" y="-2.6" font-family="Work Sans" font-size="8.00" fill="green"> </text>
</a>
</g>
</g>
<!-- V52575&#45;&gt;V52358 -->
<g id="edge2" class="edge">
<title>V52575&#45;&gt;V52358</title>
<path fill="none" stroke="red" stroke-width="0.5" d="M202.81,-251.35C206.64,-246.12 210.38,-239.88 212.29,-233.7 232.3,-170.49 226.47,-146.52 202.31,-84.36 196.68,-69.76 186.13,-55.64 176.26,-44.62"/>
<path fill="none" stroke="blue" stroke-width="0.5" d="M204.42,-252.53C208.36,-247.15 212.1,-240.91 214.2,-234.3 234.24,-170.02 228.42,-146.04 204.18,-83.64 198.28,-68.56 187.74,-54.45 177.76,-43.28"/>
<polygon fill="red" stroke="red" stroke-width="0.5" points="178.06,-42.51 173.39,-40 175.48,-44.87 178.06,-42.51"/>
<text text-anchor="middle" x="241.69" y="-143.6" font-family="Work Sans" font-size="8.00"> FOCUS &#160;&#160;</text>
</g>
<!-- V52366&#45;&gt;V52358 -->
<g id="edge3" class="edge">
<title>V52366&#45;&gt;V52358</title>
<path fill="none" stroke="grey" stroke-width="0.5" d="M153.25,-167.96C153.25,-137.64 153.25,-78.45 153.25,-45.18"/>
<polygon fill="grey" stroke="grey" stroke-width="0.5" points="155,-45.08 153.25,-40.08 151.5,-45.08 155,-45.08"/>
<text text-anchor="middle" x="176.21" y="-101.6" font-family="Work Sans" font-size="8.00"> NEUTRAL &#160;&#160;</text>
</g>
<!-- V52388 -->
<g id="node4" class="node">
<title>V52388</title>
<g id="a_node4"><a xlink:href="http://trips.ihmc.us/lexicon/data/ONT::ASSOC-WITH.xml" xlink:title="&lt;font color=&quot;green&quot;&gt;&lt;br /&gt;&lt;/font&gt; &lt;font color=&quot;black&quot;&gt;ASSOC&#45;WITH&lt;/font&gt; &lt;font color=&quot;green&quot;&gt;&lt;br /&gt;&lt;/font&gt; &lt;font color=&quot;red&quot;&gt;F&lt;/font&gt; &lt;font color=&quot;blue&quot;&gt;ON&lt;/font&gt; &lt;font color=&quot;green&quot;&gt;&lt;br /&gt;&lt;/font&gt; &lt;font color=&quot;green&quot;&gt;on%4:02:00::&lt;/font&gt; &lt;font color=&quot;green&quot;&gt;&lt;br /&gt; &lt;/font&gt;">
<text text-anchor="start" x="61.47" y="-110.6" font-family="Work Sans" font-size="8.00"> </text>
<text text-anchor="start" x="63.69" y="-110.6" font-family="Work Sans" font-size="8.00">ASSOC&#45;WITH</text>
<text text-anchor="start" x="114.8" y="-110.6" font-family="Work Sans" font-size="8.00"> </text>
<text text-anchor="start" x="77.47" y="-102.6" font-family="Work Sans" font-size="8.00"> </text>
<text text-anchor="start" x="79.69" y="-102.6" font-family="Work Sans" font-size="8.00" fill="red">F</text>
<text text-anchor="start" x="84.58" y="-102.6" font-family="Work Sans" font-size="8.00"> </text>
<text text-anchor="start" x="86.8" y="-102.6" font-family="Work Sans" font-size="8.00" fill="blue">ON</text>
<text text-anchor="start" x="98.8" y="-102.6" font-family="Work Sans" font-size="8.00"> </text>
<text text-anchor="start" x="63.45" y="-94.6" font-family="Work Sans" font-size="8.00"> </text>
<text text-anchor="start" x="65.67" y="-94.6" font-family="Work Sans" font-size="8.00" fill="green">on%4:02:00::</text>
<text text-anchor="start" x="112.82" y="-94.6" font-family="Work Sans" font-size="8.00"> </text>
<text text-anchor="start" x="88.13" y="-86.6" font-family="Work Sans" font-size="8.00" fill="green"> </text>
</a>
</g>
</g>
<!-- V52366&#45;&gt;V52388 -->
<g id="edge4" class="edge">
<title>V52366&#45;&gt;V52388</title>
<path fill="none" stroke="grey" stroke-width="0.5" d="M116.97,-169.22C109.45,-163.99 102.3,-157.59 97.31,-150 93.35,-143.98 91.18,-136.56 90.04,-129.5"/>
<polygon fill="grey" stroke="grey" stroke-width="0.5" points="91.73,-128.93 89.35,-124.2 88.26,-129.38 91.73,-128.93"/>
<text text-anchor="middle" x="119.21" y="-143.6" font-family="Work Sans" font-size="8.00"> FORMAL &#160;&#160;</text>
</g>
<!-- V52388&#45;&gt;V52358 -->
<g id="edge6" class="edge">
<title>V52388&#45;&gt;V52358</title>
<path fill="none" stroke="grey" stroke-width="0.5" d="M90.8,-83.8C92.24,-75.31 94.96,-65.56 100.13,-58 103.87,-52.53 108.71,-47.62 113.94,-43.29"/>
<polygon fill="grey" stroke="grey" stroke-width="0.5" points="115.15,-44.57 118,-40.1 112.99,-41.82 115.15,-44.57"/>
<text text-anchor="middle" x="119.8" y="-59.6" font-family="Work Sans" font-size="8.00"> FIGURE &#160;&#160;</text>
</g>
<!-- V52413 -->
<g id="node5" class="node">
<title>V52413</title>
<g id="a_node5"><a xlink:href="http://trips.ihmc.us/lexicon/data/ONT::SHORE.xml" xlink:title="&lt;font color=&quot;green&quot;&gt;&lt;br /&gt;&lt;/font&gt; &lt;font color=&quot;black&quot;&gt;SHORE&lt;/font&gt; &lt;font color=&quot;green&quot;&gt;&lt;br /&gt;&lt;/font&gt; &lt;font color=&quot;red&quot;&gt;THE&lt;/font&gt; &lt;font color=&quot;blue&quot;&gt;BEACH&lt;/font&gt; &lt;font color=&quot;green&quot;&gt;&lt;br /&gt;&lt;/font&gt; &lt;font color=&quot;green&quot;&gt;beach%1:17:00::&lt;/font&gt; &lt;font color=&quot;green&quot;&gt;&lt;br /&gt; &lt;/font&gt;">
<text text-anchor="start" x="15.8" y="-26.6" font-family="Work Sans" font-size="8.00"> </text>
<text text-anchor="start" x="18.02" y="-26.6" font-family="Work Sans" font-size="8.00">SHORE</text>
<text text-anchor="start" x="46.47" y="-26.6" font-family="Work Sans" font-size="8.00"> </text>
<text text-anchor="start" x="7.13" y="-18.6" font-family="Work Sans" font-size="8.00"> </text>
<text text-anchor="start" x="9.35" y="-18.6" font-family="Work Sans" font-size="8.00" fill="red">THE</text>
<text text-anchor="start" x="25.35" y="-18.6" font-family="Work Sans" font-size="8.00"> </text>
<text text-anchor="start" x="27.58" y="-18.6" font-family="Work Sans" font-size="8.00" fill="blue">BEACH</text>
<text text-anchor="start" x="55.14" y="-18.6" font-family="Work Sans" font-size="8.00"> </text>
<text text-anchor="start" x="0" y="-10.6" font-family="Work Sans" font-size="8.00"> </text>
<text text-anchor="start" x="2.22" y="-10.6" font-family="Work Sans" font-size="8.00" fill="green">beach%1:17:00::</text>
<text text-anchor="start" x="62.27" y="-10.6" font-family="Work Sans" font-size="8.00"> </text>
<text text-anchor="start" x="31.13" y="-2.6" font-family="Work Sans" font-size="8.00" fill="green"> </text>
</a>
</g>
</g>
<!-- V52388&#45;&gt;V52413 -->
<g id="edge5" class="edge">
<title>V52388&#45;&gt;V52413</title>
<path fill="none" stroke="grey" stroke-width="0.5" d="M61.45,-91.81C50.49,-85.88 39.05,-77.4 32.8,-66 29.45,-59.89 28.37,-52.56 28.38,-45.62"/>
<polygon fill="grey" stroke="grey" stroke-width="0.5" points="30.14,-45.48 28.58,-40.41 26.64,-45.34 30.14,-45.48"/>
<text text-anchor="middle" x="55.47" y="-59.6" font-family="Work Sans" font-size="8.00"> GROUND &#160;&#160;</text>
</g>
</g>
</svg>
