<?xml version="1.0" encoding="UTF-8" standalone="no"?>
<!DOCTYPE svg PUBLIC "-//W3C//DTD SVG 1.1//EN"
 "http://www.w3.org/Graphics/SVG/1.1/DTD/svg11.dtd">
<!-- Generated by graphviz version 2.43.0 (0)
 -->
<!-- Title: graph Pages: 1 -->
<svg width="193pt" height="208pt"
 viewBox="0.00 0.00 193.29 208.00" xmlns="http://www.w3.org/2000/svg" xmlns:xlink="http://www.w3.org/1999/xlink">
<g id="graph0" class="graph" transform="scale(1 1) rotate(0) translate(4 204)">
<title>graph</title>
<polygon fill="white" stroke="transparent" points="-4,4 -4,-204 189.29,-204 189.29,4 -4,4"/>
<!-- V102793 -->
<g id="node1" class="node">
<title>V102793</title>
<g id="a_node1"><a xlink:href="http://trips.ihmc.us/lexicon/data/ONT::SA_TELL.xml" xlink:title="&lt;font color=&quot;green&quot;&gt;&lt;br /&gt;&lt;/font&gt; &lt;font color=&quot;black&quot;&gt;SA_TELL&lt;/font&gt; &lt;font color=&quot;green&quot;&gt;&lt;br /&gt;&lt;/font&gt; &lt;font color=&quot;red&quot;&gt;SPEECHACT&lt;/font&gt; &lt;font color=&quot;blue&quot;&gt;* &lt;/font&gt; &lt;font color=&quot;green&quot;&gt;&lt;br /&gt; &lt;/font&gt;">
<text text-anchor="start" x="54.01" y="-186.6" font-family="Work Sans" font-size="8.00"> </text>
<text text-anchor="start" x="56.23" y="-186.6" font-family="Work Sans" font-size="8.00">SA_TELL</text>
<text text-anchor="start" x="90.48" y="-186.6" font-family="Work Sans" font-size="8.00"> </text>
<text text-anchor="start" x="42.9" y="-178.6" font-family="Work Sans" font-size="8.00"> </text>
<text text-anchor="start" x="45.13" y="-178.6" font-family="Work Sans" font-size="8.00" fill="red">SPEECHACT</text>
<text text-anchor="start" x="94.03" y="-178.6" font-family="Work Sans" font-size="8.00"> </text>
<text text-anchor="start" x="96.25" y="-178.6" font-family="Work Sans" font-size="8.00" fill="blue">* </text>
<text text-anchor="start" x="101.58" y="-178.6" font-family="Work Sans" font-size="8.00"> </text>
<text text-anchor="start" x="72.24" y="-170.6" font-family="Work Sans" font-size="8.00" fill="green"> </text>
</a>
</g>
</g>
<!-- V102589 -->
<g id="node2" class="node">
<title>V102589</title>
<g id="a_node2"><a xlink:href="http://trips.ihmc.us/lexicon/data/ONT::EAT.xml" xlink:title="&lt;font color=&quot;green&quot;&gt;&lt;br /&gt;&lt;/font&gt; &lt;font color=&quot;black&quot;&gt;EAT&lt;/font&gt; &lt;font color=&quot;green&quot;&gt;&lt;br /&gt;&lt;/font&gt; &lt;font color=&quot;red&quot;&gt;F&lt;/font&gt; &lt;font color=&quot;blue&quot;&gt;HAVE&lt;/font&gt; &lt;font color=&quot;green&quot;&gt;&lt;br /&gt;&lt;/font&gt; &lt;font color=&quot;green&quot;&gt;have%2:34:00::&lt;/font&gt; &lt;font color=&quot;green&quot;&gt;&lt;br /&gt; &lt;/font&gt;">
<polygon fill="pink" stroke="transparent" stroke-width="0.5" points="43.31,-84 73.36,-84 73.36,-124 43.31,-124 43.31,-84"/>
<polygon fill="lightblue" stroke="transparent" stroke-width="0.5" points="73.36,-84 103.4,-84 103.4,-124 73.36,-124 73.36,-84"/>
<polygon fill="none" stroke="transparent" points="103.4,-124 43.31,-124 43.31,-84 103.4,-84 103.4,-124"/>
<text text-anchor="start" x="63.65" y="-110.6" font-family="Work Sans" font-size="8.00"> </text>
<text text-anchor="start" x="65.87" y="-110.6" font-family="Work Sans" font-size="8.00">EAT</text>
<text text-anchor="start" x="80.84" y="-110.6" font-family="Work Sans" font-size="8.00"> </text>
<text text-anchor="start" x="56.98" y="-102.6" font-family="Work Sans" font-size="8.00"> </text>
<text text-anchor="start" x="59.2" y="-102.6" font-family="Work Sans" font-size="8.00" fill="red">F</text>
<text text-anchor="start" x="64.09" y="-102.6" font-family="Work Sans" font-size="8.00"> </text>
<text text-anchor="start" x="66.31" y="-102.6" font-family="Work Sans" font-size="8.00" fill="blue">HAVE</text>
<text text-anchor="start" x="87.51" y="-102.6" font-family="Work Sans" font-size="8.00"> </text>
<text text-anchor="start" x="43.33" y="-94.6" font-family="Work Sans" font-size="8.00"> </text>
<text text-anchor="start" x="45.56" y="-94.6" font-family="Work Sans" font-size="8.00" fill="green">have%2:34:00::</text>
<text text-anchor="start" x="101.15" y="-94.6" font-family="Work Sans" font-size="8.00"> </text>
<text text-anchor="start" x="72.24" y="-86.6" font-family="Work Sans" font-size="8.00" fill="green"> </text>
</a>
</g>
</g>
<!-- V102793&#45;&gt;V102589 -->
<g id="edge4" class="edge">
<title>V102793&#45;&gt;V102589</title>
<path fill="none" stroke="grey" stroke-width="0.5" d="M73.36,-167.96C73.36,-157.04 73.36,-142.02 73.36,-129.39"/>
<polygon fill="grey" stroke="grey" stroke-width="0.5" points="75.11,-129.14 73.36,-124.14 71.61,-129.14 75.11,-129.14"/>
<text text-anchor="middle" x="97.06" y="-143.6" font-family="Work Sans" font-size="8.00"> CONTENT &#160;&#160;</text>
</g>
<!-- V102582 -->
<g id="node3" class="node">
<title>V102582</title>
<g id="a_node3"><a xlink:href="http://trips.ihmc.us/lexicon/data/ONT::PERSON.xml" xlink:title="&lt;font color=&quot;green&quot;&gt;&lt;br /&gt;&lt;/font&gt; &lt;font color=&quot;black&quot;&gt;PERSON&lt;/font&gt; &lt;font color=&quot;green&quot;&gt;&lt;br /&gt;&lt;/font&gt; &lt;font color=&quot;red&quot;&gt;PRO&#45;SET&lt;/font&gt; &lt;font color=&quot;blue&quot;&gt;WE&lt;/font&gt; &lt;font color=&quot;green&quot;&gt;&lt;br /&gt;&lt;/font&gt; &lt;font color=&quot;green&quot;&gt;person%1:03:00&lt;/font&gt; &lt;font color=&quot;green&quot;&gt;&lt;br /&gt; &lt;/font&gt;">
<text text-anchor="start" x="12.24" y="-26.6" font-family="Work Sans" font-size="8.00"> </text>
<text text-anchor="start" x="14.46" y="-26.6" font-family="Work Sans" font-size="8.00">PERSON</text>
<text text-anchor="start" x="48.25" y="-26.6" font-family="Work Sans" font-size="8.00"> </text>
<text text-anchor="start" x="3.8" y="-18.6" font-family="Work Sans" font-size="8.00"> </text>
<text text-anchor="start" x="6.02" y="-18.6" font-family="Work Sans" font-size="8.00" fill="red">PRO&#45;SET</text>
<text text-anchor="start" x="41.58" y="-18.6" font-family="Work Sans" font-size="8.00"> </text>
<text text-anchor="start" x="43.8" y="-18.6" font-family="Work Sans" font-size="8.00" fill="blue">WE</text>
<text text-anchor="start" x="56.69" y="-18.6" font-family="Work Sans" font-size="8.00"> </text>
<text text-anchor="start" x="0" y="-10.6" font-family="Work Sans" font-size="8.00"> </text>
<text text-anchor="start" x="2.22" y="-10.6" font-family="Work Sans" font-size="8.00" fill="green">person%1:03:00</text>
<text text-anchor="start" x="60.49" y="-10.6" font-family="Work Sans" font-size="8.00"> </text>
<text text-anchor="start" x="30.24" y="-2.6" font-family="Work Sans" font-size="8.00" fill="green"> </text>
</a>
</g>
</g>
<!-- V102589&#45;&gt;V102582 -->
<g id="edge2" class="edge">
<title>V102589&#45;&gt;V102582</title>
<path fill="none" stroke="blue" d="M42.9,-85.09C36.54,-79.81 30.69,-73.41 27.13,-66 24.1,-59.69 23.7,-52.31 24.45,-45.37"/>
<polygon fill="blue" stroke="blue" points="26.22,-45.38 25.24,-40.18 22.76,-44.86 26.22,-45.38"/>
<text text-anchor="middle" x="28.47" y="-59.6" font-family="Work Sans" font-size="8.00">.</text>
</g>
<!-- V102589&#45;&gt;V102582 -->
<g id="edge3" class="edge">
<title>V102589&#45;&gt;V102582</title>
<path fill="none" stroke="red" d="M56.99,-83.86C52.83,-78.34 48.65,-72.15 45.48,-66 42.2,-59.62 39.51,-52.33 37.39,-45.5"/>
<polygon fill="red" stroke="red" points="38.98,-44.7 35.88,-40.4 35.62,-45.69 38.98,-44.7"/>
<text text-anchor="middle" x="64.29" y="-59.6" font-family="Work Sans" font-size="8.00"> AGENT &#160;&#160;</text>
</g>
<!-- V102609 -->
<g id="node4" class="node">
<title>V102609</title>
<g id="a_node4"><a xlink:href="http://trips.ihmc.us/lexicon/data/ONT::FOOD.xml" xlink:title="&lt;font color=&quot;green&quot;&gt;&lt;br /&gt;&lt;/font&gt; &lt;font color=&quot;black&quot;&gt;FOOD&lt;/font&gt; &lt;font color=&quot;green&quot;&gt;&lt;br /&gt;&lt;/font&gt; &lt;font color=&quot;red&quot;&gt;INDEF&#45;SET&lt;/font&gt; &lt;font color=&quot;blue&quot;&gt;TACOS&lt;/font&gt; &lt;font color=&quot;green&quot;&gt;&lt;br /&gt;&lt;/font&gt; &lt;font color=&quot;green&quot;&gt;solid_food%1:13:00&lt;/font&gt; &lt;font color=&quot;green&quot;&gt;&lt;br /&gt; &lt;/font&gt;">
<polygon fill="pink" stroke="transparent" stroke-width="0.5" points="109.5,0 147.36,0 147.36,-40 109.5,-40 109.5,0"/>
<polygon fill="lightblue" stroke="transparent" stroke-width="0.5" points="147.36,0 185.21,0 185.21,-40 147.36,-40 147.36,0"/>
<polygon fill="none" stroke="transparent" points="185.21,-40 109.5,-40 109.5,0 185.21,0 185.21,-40"/>
<text text-anchor="start" x="133.58" y="-26.6" font-family="Work Sans" font-size="8.00"> </text>
<text text-anchor="start" x="135.8" y="-26.6" font-family="Work Sans" font-size="8.00">FOOD</text>
<text text-anchor="start" x="158.91" y="-26.6" font-family="Work Sans" font-size="8.00"> </text>
<text text-anchor="start" x="109.43" y="-18.6" font-family="Work Sans" font-size="8.00"> </text>
<text text-anchor="start" x="111.65" y="-18.6" font-family="Work Sans" font-size="8.00" fill="red">INDEF&#45;SET</text>
<text text-anchor="start" x="153.87" y="-18.6" font-family="Work Sans" font-size="8.00"> </text>
<text text-anchor="start" x="156.09" y="-18.6" font-family="Work Sans" font-size="8.00" fill="blue">TACOS</text>
<text text-anchor="start" x="183.06" y="-18.6" font-family="Work Sans" font-size="8.00"> </text>
<text text-anchor="start" x="109.99" y="-10.6" font-family="Work Sans" font-size="8.00"> </text>
<text text-anchor="start" x="112.22" y="-10.6" font-family="Work Sans" font-size="8.00" fill="green">solid_food%1:13:00</text>
<text text-anchor="start" x="182.49" y="-10.6" font-family="Work Sans" font-size="8.00"> </text>
<text text-anchor="start" x="146.24" y="-2.6" font-family="Work Sans" font-size="8.00" fill="green"> </text>
</a>
</g>
</g>
<!-- V102589&#45;&gt;V102609 -->
<g id="edge1" class="edge">
<title>V102589&#45;&gt;V102609</title>
<path fill="none" stroke="red" d="M85.17,-83.83C90.67,-75.53 97.55,-65.93 104.68,-58 109.07,-53.12 114.08,-48.26 119.09,-43.75"/>
<polygon fill="red" stroke="red" points="120.32,-44.99 122.91,-40.37 118,-42.37 120.32,-44.99"/>
<text text-anchor="middle" x="130.69" y="-59.6" font-family="Work Sans" font-size="8.00"> AFFECTED &#160;&#160;</text>
</g>
<!-- V102589&#45;&gt;V102609 -->
<g id="edge5" class="edge">
<title>V102589&#45;&gt;V102609</title>
<path fill="none" stroke="blue" d="M103.74,-97.78C122.07,-92.89 144,-83.58 155.36,-66 159.34,-59.83 159.4,-52.23 157.84,-45.05"/>
<polygon fill="blue" stroke="blue" points="159.52,-44.54 156.54,-40.16 156.14,-45.45 159.52,-44.54"/>
<text text-anchor="middle" x="158.47" y="-59.6" font-family="Work Sans" font-size="8.00">.</text>
</g>
</g>
</svg>
