<?xml version="1.0" encoding="UTF-8" standalone="no"?>
<!DOCTYPE svg PUBLIC "-//W3C//DTD SVG 1.1//EN"
 "http://www.w3.org/Graphics/SVG/1.1/DTD/svg11.dtd">
<!-- Generated by graphviz version 2.43.0 (0)
 -->
<!-- Title: graph Pages: 1 -->
<svg width="301pt" height="284pt"
 viewBox="0.00 0.00 300.90 284.00" xmlns="http://www.w3.org/2000/svg" xmlns:xlink="http://www.w3.org/1999/xlink">
<g id="graph0" class="graph" transform="scale(1 1) rotate(0) translate(4 280)">
<title>graph</title>
<polygon fill="white" stroke="transparent" points="-4,4 -4,-280 296.9,-280 296.9,4 -4,4"/>
<!-- V227880 -->
<g id="node1" class="node">
<title>V227880</title>
<g id="a_node1"><a xlink:href="http://trips.ihmc.us/lexicon/data/ONT::SA_TELL.xml" xlink:title="&lt;font color=&quot;green&quot;&gt;&lt;br /&gt;&lt;/font&gt; &lt;font color=&quot;black&quot;&gt;SA_TELL&lt;/font&gt; &lt;font color=&quot;green&quot;&gt;&lt;br /&gt;&lt;/font&gt; &lt;font color=&quot;red&quot;&gt;SPEECHACT&lt;/font&gt; &lt;font color=&quot;blue&quot;&gt;* &lt;/font&gt; &lt;font color=&quot;green&quot;&gt;&lt;br /&gt; &lt;/font&gt;">
<text text-anchor="start" x="139.11" y="-262.6" font-family="Work Sans" font-size="8.00"> </text>
<text text-anchor="start" x="141.33" y="-262.6" font-family="Work Sans" font-size="8.00">SA_TELL</text>
<text text-anchor="start" x="175.57" y="-262.6" font-family="Work Sans" font-size="8.00"> </text>
<text text-anchor="start" x="128" y="-254.6" font-family="Work Sans" font-size="8.00"> </text>
<text text-anchor="start" x="130.22" y="-254.6" font-family="Work Sans" font-size="8.00" fill="red">SPEECHACT</text>
<text text-anchor="start" x="179.12" y="-254.6" font-family="Work Sans" font-size="8.00"> </text>
<text text-anchor="start" x="181.34" y="-254.6" font-family="Work Sans" font-size="8.00" fill="blue">* </text>
<text text-anchor="start" x="186.68" y="-254.6" font-family="Work Sans" font-size="8.00"> </text>
<text text-anchor="start" x="157.34" y="-246.6" font-family="Work Sans" font-size="8.00" fill="green"> </text>
</a>
</g>
</g>
<!-- V227683 -->
<g id="node2" class="node">
<title>V227683</title>
<g id="a_node2"><a xlink:href="http://trips.ihmc.us/lexicon/data/ONT::HAVE-PROPERTY.xml" xlink:title="&lt;font color=&quot;green&quot;&gt;&lt;br /&gt;&lt;/font&gt; &lt;font color=&quot;black&quot;&gt;HAVE&#45;PROPERTY&lt;/font&gt; &lt;font color=&quot;green&quot;&gt;&lt;br /&gt;&lt;/font&gt; &lt;font color=&quot;red&quot;&gt;F&lt;/font&gt; &lt;font color=&quot;blue&quot;&gt;BE&lt;/font&gt; &lt;font color=&quot;green&quot;&gt;&lt;br /&gt;&lt;/font&gt; &lt;font color=&quot;green&quot;&gt;be%2:42:03::&lt;/font&gt; &lt;font color=&quot;green&quot;&gt;&lt;br /&gt; &lt;/font&gt;">
<text text-anchor="start" x="122.37" y="-186.6" font-family="Work Sans" font-size="8.00"> </text>
<text text-anchor="start" x="124.59" y="-186.6" font-family="Work Sans" font-size="8.00">HAVE&#45;PROPERTY</text>
<text text-anchor="start" x="192.31" y="-186.6" font-family="Work Sans" font-size="8.00"> </text>
<text text-anchor="start" x="147.34" y="-178.6" font-family="Work Sans" font-size="8.00"> </text>
<text text-anchor="start" x="149.56" y="-178.6" font-family="Work Sans" font-size="8.00" fill="red">F</text>
<text text-anchor="start" x="154.45" y="-178.6" font-family="Work Sans" font-size="8.00"> </text>
<text text-anchor="start" x="156.67" y="-178.6" font-family="Work Sans" font-size="8.00" fill="blue">BE</text>
<text text-anchor="start" x="167.34" y="-178.6" font-family="Work Sans" font-size="8.00"> </text>
<text text-anchor="start" x="132.65" y="-170.6" font-family="Work Sans" font-size="8.00"> </text>
<text text-anchor="start" x="134.88" y="-170.6" font-family="Work Sans" font-size="8.00" fill="green">be%2:42:03::</text>
<text text-anchor="start" x="182.03" y="-170.6" font-family="Work Sans" font-size="8.00"> </text>
<text text-anchor="start" x="157.34" y="-162.6" font-family="Work Sans" font-size="8.00" fill="green"> </text>
</a>
</g>
</g>
<!-- V227880&#45;&gt;V227683 -->
<g id="edge4" class="edge">
<title>V227880&#45;&gt;V227683</title>
<path fill="none" stroke="grey" stroke-width="0.5" d="M158.45,-243.96C158.45,-233.04 158.45,-218.02 158.45,-205.39"/>
<polygon fill="grey" stroke="grey" stroke-width="0.5" points="160.2,-205.14 158.45,-200.14 156.7,-205.14 160.2,-205.14"/>
<text text-anchor="middle" x="182.16" y="-219.6" font-family="Work Sans" font-size="8.00"> CONTENT &#160;&#160;</text>
</g>
<!-- V227676 -->
<g id="node3" class="node">
<title>V227676</title>
<g id="a_node3"><a xlink:href="http://trips.ihmc.us/lexicon/data/ONT::FEMALE-PERSON.xml" xlink:title="&lt;font color=&quot;green&quot;&gt;&lt;br /&gt;&lt;/font&gt; &lt;font color=&quot;black&quot;&gt;FEMALE&#45;PERSON&lt;/font&gt; &lt;font color=&quot;green&quot;&gt;&lt;br /&gt;&lt;/font&gt; &lt;font color=&quot;red&quot;&gt;THE&lt;/font&gt; &lt;font color=&quot;blue&quot;&gt;MEGAN&lt;/font&gt; &lt;font color=&quot;green&quot;&gt;&lt;br /&gt;&lt;/font&gt; &lt;font color=&quot;green&quot;&gt;woman%1:18:00&lt;/font&gt; &lt;font color=&quot;green&quot;&gt;&lt;br /&gt; &lt;/font&gt;">
<text text-anchor="start" x="0" y="-26.6" font-family="Work Sans" font-size="8.00"> </text>
<text text-anchor="start" x="2.22" y="-26.6" font-family="Work Sans" font-size="8.00">FEMALE&#45;PERSON</text>
<text text-anchor="start" x="70.68" y="-26.6" font-family="Work Sans" font-size="8.00"> </text>
<text text-anchor="start" x="10.45" y="-18.6" font-family="Work Sans" font-size="8.00"> </text>
<text text-anchor="start" x="12.67" y="-18.6" font-family="Work Sans" font-size="8.00" fill="red">THE</text>
<text text-anchor="start" x="28.67" y="-18.6" font-family="Work Sans" font-size="8.00"> </text>
<text text-anchor="start" x="30.89" y="-18.6" font-family="Work Sans" font-size="8.00" fill="blue">MEGAN</text>
<text text-anchor="start" x="60.23" y="-18.6" font-family="Work Sans" font-size="8.00"> </text>
<text text-anchor="start" x="4.43" y="-10.6" font-family="Work Sans" font-size="8.00"> </text>
<text text-anchor="start" x="6.65" y="-10.6" font-family="Work Sans" font-size="8.00" fill="green">woman%1:18:00</text>
<text text-anchor="start" x="66.25" y="-10.6" font-family="Work Sans" font-size="8.00"> </text>
<text text-anchor="start" x="35.34" y="-2.6" font-family="Work Sans" font-size="8.00" fill="green"> </text>
</a>
</g>
</g>
<!-- V227683&#45;&gt;V227676 -->
<g id="edge5" class="edge">
<title>V227683&#45;&gt;V227676</title>
<path fill="none" stroke="grey" stroke-width="0.5" d="M122.11,-168.14C96.89,-158.62 64.82,-142.13 47.51,-116 33.65,-95.07 32.3,-65.73 33.52,-45.21"/>
<polygon fill="grey" stroke="grey" stroke-width="0.5" points="35.27,-45.31 33.88,-40.19 31.78,-45.06 35.27,-45.31"/>
<text text-anchor="middle" x="71.42" y="-97.6" font-family="Work Sans" font-size="8.00"> NEUTRAL &#160;&#160;</text>
</g>
<!-- V227699 -->
<g id="node4" class="node">
<title>V227699</title>
<g id="a_node4"><a xlink:href="http://trips.ihmc.us/lexicon/data/ONT::HAPPY-VAL.xml" xlink:title="&lt;font color=&quot;green&quot;&gt;&lt;br /&gt;&lt;/font&gt; &lt;font color=&quot;black&quot;&gt;HAPPY&#45;VAL&lt;/font&gt; &lt;font color=&quot;green&quot;&gt;&lt;br /&gt;&lt;/font&gt; &lt;font color=&quot;red&quot;&gt;F&lt;/font&gt; &lt;font color=&quot;blue&quot;&gt;HAPPY&lt;/font&gt; &lt;font color=&quot;green&quot;&gt;&lt;br /&gt; &lt;/font&gt;">
<text text-anchor="start" x="102.44" y="-102.6" font-family="Work Sans" font-size="8.00"> </text>
<text text-anchor="start" x="104.66" y="-102.6" font-family="Work Sans" font-size="8.00">HAPPY&#45;VAL</text>
<text text-anchor="start" x="148.24" y="-102.6" font-family="Work Sans" font-size="8.00"> </text>
<text text-anchor="start" x="107.11" y="-94.6" font-family="Work Sans" font-size="8.00"> </text>
<text text-anchor="start" x="109.34" y="-94.6" font-family="Work Sans" font-size="8.00" fill="red">F</text>
<text text-anchor="start" x="114.22" y="-94.6" font-family="Work Sans" font-size="8.00"> </text>
<text text-anchor="start" x="116.45" y="-94.6" font-family="Work Sans" font-size="8.00" fill="blue">HAPPY</text>
<text text-anchor="start" x="143.57" y="-94.6" font-family="Work Sans" font-size="8.00"> </text>
<text text-anchor="start" x="125.34" y="-86.6" font-family="Work Sans" font-size="8.00" fill="green"> </text>
</a>
</g>
</g>
<!-- V227683&#45;&gt;V227699 -->
<g id="edge2" class="edge">
<title>V227683&#45;&gt;V227699</title>
<path fill="none" stroke="grey" stroke-width="0.5" d="M138.37,-159.86C133.99,-154.53 129.94,-148.42 127.52,-142 125.07,-135.52 124.33,-128.05 124.35,-121.28"/>
<polygon fill="grey" stroke="grey" stroke-width="0.5" points="126.1,-121.31 124.5,-116.26 122.6,-121.21 126.1,-121.31"/>
<text text-anchor="middle" x="149.42" y="-135.6" font-family="Work Sans" font-size="8.00"> FORMAL &#160;&#160;</text>
</g>
<!-- V227787 -->
<g id="node6" class="node">
<title>V227787</title>
<g id="a_node6"><a xlink:href="http://trips.ihmc.us/lexicon/data/ONT::EVENT-TIME-REL.xml" xlink:title="&lt;font color=&quot;green&quot;&gt;&lt;br /&gt;&lt;/font&gt; &lt;font color=&quot;black&quot;&gt;EVENT&#45;TIME&#45;REL&lt;/font&gt; &lt;font color=&quot;green&quot;&gt;&lt;br /&gt;&lt;/font&gt; &lt;font color=&quot;red&quot;&gt;F&lt;/font&gt; &lt;font color=&quot;blue&quot;&gt;* &lt;/font&gt; &lt;font color=&quot;green&quot;&gt;&lt;br /&gt; &lt;/font&gt;">
<polygon fill="pink" stroke="transparent" stroke-width="0.5" points="207.27,-84 242.45,-84 242.45,-116 207.27,-116 207.27,-84"/>
<polygon fill="lightblue" stroke="transparent" stroke-width="0.5" points="242.45,-84 277.63,-84 277.63,-116 242.45,-116 242.45,-84"/>
<polygon fill="none" stroke="transparent" points="277.63,-116 207.27,-116 207.27,-84 277.63,-84 277.63,-116"/>
<text text-anchor="start" x="207.11" y="-102.6" font-family="Work Sans" font-size="8.00"> </text>
<text text-anchor="start" x="209.33" y="-102.6" font-family="Work Sans" font-size="8.00">EVENT&#45;TIME&#45;REL</text>
<text text-anchor="start" x="275.57" y="-102.6" font-family="Work Sans" font-size="8.00"> </text>
<text text-anchor="start" x="234.01" y="-94.6" font-family="Work Sans" font-size="8.00"> </text>
<text text-anchor="start" x="236.23" y="-94.6" font-family="Work Sans" font-size="8.00" fill="red">F</text>
<text text-anchor="start" x="241.12" y="-94.6" font-family="Work Sans" font-size="8.00"> </text>
<text text-anchor="start" x="243.34" y="-94.6" font-family="Work Sans" font-size="8.00" fill="blue">* </text>
<text text-anchor="start" x="248.67" y="-94.6" font-family="Work Sans" font-size="8.00"> </text>
<text text-anchor="start" x="241.34" y="-86.6" font-family="Work Sans" font-size="8.00" fill="green"> </text>
</a>
</g>
</g>
<!-- V227683&#45;&gt;V227787 -->
<g id="edge9" class="edge">
<title>V227683&#45;&gt;V227787</title>
<path fill="none" stroke="red" stroke-width="0.5" d="M167.99,-159.16C173.22,-150.59 180.04,-140.85 187.9,-133.28 193.89,-127.53 200.92,-122.37 207.98,-117.86"/>
<path fill="none" stroke="blue" stroke-width="0.5" d="M169.7,-160.2C174.86,-151.73 181.68,-142 189.28,-134.72 195.08,-129.14 202.11,-123.98 209.05,-119.55"/>
<polygon fill="red" stroke="red" stroke-width="0.5" points="209.53,-120.13 212.86,-116.01 207.69,-117.16 209.53,-120.13"/>
<text text-anchor="middle" x="203.38" y="-135.6" font-family="Work Sans" font-size="8.00"> TIME &#160;&#160;</text>
</g>
<!-- V227699&#45;&gt;V227676 -->
<g id="edge6" class="edge">
<title>V227699&#45;&gt;V227676</title>
<path fill="none" stroke="red" stroke-width="0.5" d="M104.86,-84.48C97.69,-79.05 89.73,-72.8 82.69,-66.76 74.56,-59.79 66.05,-51.83 58.52,-44.55"/>
<path fill="none" stroke="blue" stroke-width="0.5" d="M106.07,-82.88C98.93,-77.47 90.97,-71.23 83.99,-65.24 75.93,-58.32 67.42,-50.37 59.91,-43.12"/>
<polygon fill="red" stroke="red" stroke-width="0.5" points="60.42,-42.56 55.62,-40.33 57.98,-45.07 60.42,-42.56"/>
<text text-anchor="middle" x="103.01" y="-59.6" font-family="Work Sans" font-size="8.00"> FIGURE &#160;&#160;</text>
</g>
<!-- V227696 -->
<g id="node5" class="node">
<title>V227696</title>
<g id="a_node5"><a xlink:href="http://trips.ihmc.us/lexicon/data/ONT::DEGREE-MODIFIER-HIGH.xml" xlink:title="&lt;font color=&quot;green&quot;&gt;&lt;br /&gt;&lt;/font&gt; &lt;font color=&quot;black&quot;&gt;DEGREE&#45;MODIFIER&#45;HIGH&lt;/font&gt; &lt;font color=&quot;green&quot;&gt;&lt;br /&gt;&lt;/font&gt; &lt;font color=&quot;red&quot;&gt;F&lt;/font&gt; &lt;font color=&quot;blue&quot;&gt;VERY&lt;/font&gt; &lt;font color=&quot;green&quot;&gt;&lt;br /&gt;&lt;/font&gt; &lt;font color=&quot;green&quot;&gt;very%4:02:00::&lt;/font&gt; &lt;font color=&quot;green&quot;&gt;&lt;br /&gt; &lt;/font&gt;">
<text text-anchor="start" x="100.12" y="-26.6" font-family="Work Sans" font-size="8.00"> </text>
<text text-anchor="start" x="102.34" y="-26.6" font-family="Work Sans" font-size="8.00">DEGREE&#45;MODIFIER&#45;HIGH</text>
<text text-anchor="start" x="200.56" y="-26.6" font-family="Work Sans" font-size="8.00"> </text>
<text text-anchor="start" x="134.85" y="-18.6" font-family="Work Sans" font-size="8.00"> </text>
<text text-anchor="start" x="137.07" y="-18.6" font-family="Work Sans" font-size="8.00" fill="red">F</text>
<text text-anchor="start" x="141.96" y="-18.6" font-family="Work Sans" font-size="8.00"> </text>
<text text-anchor="start" x="144.18" y="-18.6" font-family="Work Sans" font-size="8.00" fill="blue">VERY</text>
<text text-anchor="start" x="165.83" y="-18.6" font-family="Work Sans" font-size="8.00"> </text>
<text text-anchor="start" x="122.55" y="-10.6" font-family="Work Sans" font-size="8.00"> </text>
<text text-anchor="start" x="124.77" y="-10.6" font-family="Work Sans" font-size="8.00" fill="green">very%4:02:00::</text>
<text text-anchor="start" x="178.13" y="-10.6" font-family="Work Sans" font-size="8.00"> </text>
<text text-anchor="start" x="150.34" y="-2.6" font-family="Work Sans" font-size="8.00" fill="green"> </text>
</a>
</g>
</g>
<!-- V227699&#45;&gt;V227696 -->
<g id="edge3" class="edge">
<title>V227699&#45;&gt;V227696</title>
<path fill="none" stroke="grey" stroke-width="0.5" d="M125.04,-83.88C124.78,-76 125.2,-66.3 127.78,-58 129.17,-53.51 131.27,-49.03 133.65,-44.82"/>
<polygon fill="grey" stroke="grey" stroke-width="0.5" points="135.24,-45.56 136.32,-40.38 132.24,-43.76 135.24,-45.56"/>
<text text-anchor="middle" x="149.79" y="-59.6" font-family="Work Sans" font-size="8.00"> DEGREE &#160;&#160;</text>
</g>
<!-- V227696&#45;&gt;V227699 -->
<g id="edge7" class="edge">
<title>V227696&#45;&gt;V227699</title>
<path fill="none" stroke="grey" stroke-width="0.5" d="M167.01,-40.07C171.7,-48.17 174.62,-57.66 170.45,-66 166.98,-72.94 161.28,-78.8 155.12,-83.56"/>
<polygon fill="grey" stroke="grey" stroke-width="0.5" points="153.82,-82.34 150.8,-86.69 155.87,-85.17 153.82,-82.34"/>
<text text-anchor="middle" x="192.01" y="-59.6" font-family="Work Sans" font-size="8.00"> FIGURE &#160;&#160;</text>
</g>
<!-- V227787&#45;&gt;V227683 -->
<g id="edge1" class="edge">
<title>V227787&#45;&gt;V227683</title>
<path fill="none" stroke="red" stroke-width="0.5" d="M237.55,-116.7C233.8,-125.07 228.36,-135.12 221.17,-142.69 214.85,-149.3 207.25,-155.06 199.46,-160.03"/>
<path fill="none" stroke="blue" stroke-width="0.5" d="M235.72,-115.88C232.04,-124.12 226.6,-134.16 219.73,-141.31 213.64,-147.7 206.04,-153.47 198.39,-158.35"/>
<polygon fill="red" stroke="red" stroke-width="0.5" points="197.97,-157.72 194.63,-161.84 199.81,-160.7 197.97,-157.72"/>
<text text-anchor="middle" x="247.01" y="-135.6" font-family="Work Sans" font-size="8.00"> FIGURE &#160;&#160;</text>
</g>
<!-- V227717 -->
<g id="node7" class="node">
<title>V227717</title>
<g id="a_node7"><a xlink:href="http://trips.ihmc.us/lexicon/data/ONT::NIGHT.xml" xlink:title="&lt;font color=&quot;green&quot;&gt;&lt;br /&gt;&lt;/font&gt; &lt;font color=&quot;black&quot;&gt;NIGHT&lt;/font&gt; &lt;font color=&quot;green&quot;&gt;&lt;br /&gt;&lt;/font&gt; &lt;font color=&quot;red&quot;&gt;THE&lt;/font&gt; &lt;font color=&quot;blue&quot;&gt;NIGHT&lt;/font&gt; &lt;font color=&quot;green&quot;&gt;&lt;br /&gt;&lt;/font&gt; &lt;font color=&quot;green&quot;&gt;night%1:28:00::&lt;/font&gt; &lt;font color=&quot;green&quot;&gt;&lt;br /&gt; &lt;/font&gt;">
<polygon fill="pink" stroke="transparent" points="284.49,-40 224.41,-40 224.41,0 284.49,0 284.49,-40"/>
<text text-anchor="start" x="239.79" y="-26.6" font-family="Work Sans" font-size="8.00"> </text>
<text text-anchor="start" x="242.01" y="-26.6" font-family="Work Sans" font-size="8.00">NIGHT</text>
<text text-anchor="start" x="266.89" y="-26.6" font-family="Work Sans" font-size="8.00"> </text>
<text text-anchor="start" x="230.67" y="-18.6" font-family="Work Sans" font-size="8.00"> </text>
<text text-anchor="start" x="232.9" y="-18.6" font-family="Work Sans" font-size="8.00" fill="red">THE</text>
<text text-anchor="start" x="248.9" y="-18.6" font-family="Work Sans" font-size="8.00"> </text>
<text text-anchor="start" x="251.12" y="-18.6" font-family="Work Sans" font-size="8.00" fill="blue">NIGHT</text>
<text text-anchor="start" x="276.01" y="-18.6" font-family="Work Sans" font-size="8.00"> </text>
<text text-anchor="start" x="224.43" y="-10.6" font-family="Work Sans" font-size="8.00"> </text>
<text text-anchor="start" x="226.65" y="-10.6" font-family="Work Sans" font-size="8.00" fill="green">night%1:28:00::</text>
<text text-anchor="start" x="282.25" y="-10.6" font-family="Work Sans" font-size="8.00"> </text>
<text text-anchor="start" x="253.34" y="-2.6" font-family="Work Sans" font-size="8.00" fill="green"> </text>
</a>
</g>
</g>
<!-- V227787&#45;&gt;V227717 -->
<g id="edge8" class="edge">
<title>V227787&#45;&gt;V227717</title>
<path fill="none" stroke="red" stroke-width="0.5" d="M243.78,-83.81C245.46,-72.89 247.77,-57.87 249.71,-45.24"/>
<path fill="none" stroke="blue" stroke-width="0.5" d="M245.75,-84.11C247.43,-73.19 249.74,-58.17 251.69,-45.54"/>
<polygon fill="red" stroke="red" stroke-width="0.5" points="252.48,-45.35 251.51,-40.14 249.02,-44.82 252.48,-45.35"/>
<text text-anchor="middle" x="270.67" y="-59.6" font-family="Work Sans" font-size="8.00"> GROUND &#160;&#160;</text>
</g>
</g>
</svg>
