<?xml version="1.0" encoding="UTF-8" standalone="no"?>
<!DOCTYPE svg PUBLIC "-//W3C//DTD SVG 1.1//EN"
 "http://www.w3.org/Graphics/SVG/1.1/DTD/svg11.dtd">
<!-- Generated by graphviz version 2.43.0 (0)
 -->
<!-- Title: graph Pages: 1 -->
<svg width="253pt" height="284pt"
 viewBox="0.00 0.00 252.70 284.00" xmlns="http://www.w3.org/2000/svg" xmlns:xlink="http://www.w3.org/1999/xlink">
<g id="graph0" class="graph" transform="scale(1 1) rotate(0) translate(4 280)">
<title>graph</title>
<polygon fill="white" stroke="transparent" points="-4,4 -4,-280 248.7,-280 248.7,4 -4,4"/>
<!-- V88291 -->
<g id="node1" class="node">
<title>V88291</title>
<g id="a_node1"><a xlink:href="http://trips.ihmc.us/lexicon/data/ONT::SA_TELL.xml" xlink:title="&lt;font color=&quot;green&quot;&gt;&lt;br /&gt;&lt;/font&gt; &lt;font color=&quot;black&quot;&gt;SA_TELL&lt;/font&gt; &lt;font color=&quot;green&quot;&gt;&lt;br /&gt;&lt;/font&gt; &lt;font color=&quot;red&quot;&gt;SPEECHACT&lt;/font&gt; &lt;font color=&quot;blue&quot;&gt;* &lt;/font&gt; &lt;font color=&quot;green&quot;&gt;&lt;br /&gt; &lt;/font&gt;">
<polygon fill="pink" stroke="transparent" stroke-width="0.5" points="74.94,-244 105.34,-244 105.34,-276 74.94,-276 74.94,-244"/>
<polygon fill="lightblue" stroke="transparent" stroke-width="0.5" points="105.34,-244 135.74,-244 135.74,-276 105.34,-276 105.34,-244"/>
<polygon fill="none" stroke="transparent" points="135.74,-276 74.94,-276 74.94,-244 135.74,-244 135.74,-276"/>
<text text-anchor="start" x="86" y="-262.6" font-family="Work Sans" font-size="8.00"> </text>
<text text-anchor="start" x="88.22" y="-262.6" font-family="Work Sans" font-size="8.00">SA_TELL</text>
<text text-anchor="start" x="122.46" y="-262.6" font-family="Work Sans" font-size="8.00"> </text>
<text text-anchor="start" x="74.89" y="-254.6" font-family="Work Sans" font-size="8.00"> </text>
<text text-anchor="start" x="77.11" y="-254.6" font-family="Work Sans" font-size="8.00" fill="red">SPEECHACT</text>
<text text-anchor="start" x="126.01" y="-254.6" font-family="Work Sans" font-size="8.00"> </text>
<text text-anchor="start" x="128.23" y="-254.6" font-family="Work Sans" font-size="8.00" fill="blue">* </text>
<text text-anchor="start" x="133.57" y="-254.6" font-family="Work Sans" font-size="8.00"> </text>
<text text-anchor="start" x="104.23" y="-246.6" font-family="Work Sans" font-size="8.00" fill="green"> </text>
</a>
</g>
</g>
<!-- V88087 -->
<g id="node2" class="node">
<title>V88087</title>
<g id="a_node2"><a xlink:href="http://trips.ihmc.us/lexicon/data/ONT::ESTABLISH-COMMUNICATION.xml" xlink:title="&lt;font color=&quot;green&quot;&gt;&lt;br /&gt;&lt;/font&gt; &lt;font color=&quot;black&quot;&gt;ESTABLISH&#45;COMMUNICATION&lt;/font&gt; &lt;font color=&quot;green&quot;&gt;&lt;br /&gt;&lt;/font&gt; &lt;font color=&quot;red&quot;&gt;F&lt;/font&gt; &lt;font color=&quot;blue&quot;&gt;CALL&lt;/font&gt; &lt;font color=&quot;green&quot;&gt;&lt;br /&gt; &lt;/font&gt;">
<polygon fill="pink" stroke="transparent" stroke-width="0.5" points="45.57,-168 105.34,-168 105.34,-200 45.57,-200 45.57,-168"/>
<polygon fill="lightblue" stroke="transparent" stroke-width="0.5" points="105.34,-168 165.11,-168 165.11,-200 105.34,-200 105.34,-168"/>
<polygon fill="none" stroke="transparent" points="165.11,-200 45.57,-200 45.57,-168 165.11,-168 165.11,-200"/>
<text text-anchor="start" x="45.7" y="-186.6" font-family="Work Sans" font-size="8.00"> </text>
<text text-anchor="start" x="47.93" y="-186.6" font-family="Work Sans" font-size="8.00">ESTABLISH&#45;COMMUNICATION</text>
<text text-anchor="start" x="162.75" y="-186.6" font-family="Work Sans" font-size="8.00"> </text>
<text text-anchor="start" x="89.56" y="-178.6" font-family="Work Sans" font-size="8.00"> </text>
<text text-anchor="start" x="91.78" y="-178.6" font-family="Work Sans" font-size="8.00" fill="red">F</text>
<text text-anchor="start" x="96.67" y="-178.6" font-family="Work Sans" font-size="8.00"> </text>
<text text-anchor="start" x="98.89" y="-178.6" font-family="Work Sans" font-size="8.00" fill="blue">CALL</text>
<text text-anchor="start" x="118.9" y="-178.6" font-family="Work Sans" font-size="8.00"> </text>
<text text-anchor="start" x="104.23" y="-170.6" font-family="Work Sans" font-size="8.00" fill="green"> </text>
</a>
</g>
</g>
<!-- V88291&#45;&gt;V88087 -->
<g id="edge1" class="edge">
<title>V88291&#45;&gt;V88087</title>
<path fill="none" stroke="grey" stroke-width="0.5" d="M105.34,-243.67C105.34,-232.58 105.34,-217.49 105.34,-205.38"/>
<polygon fill="grey" stroke="grey" stroke-width="0.5" points="107.09,-205.06 105.34,-200.06 103.59,-205.06 107.09,-205.06"/>
<text text-anchor="middle" x="129.05" y="-219.6" font-family="Work Sans" font-size="8.00"> CONTENT &#160;&#160;</text>
</g>
<!-- V88155 -->
<g id="node3" class="node">
<title>V88155</title>
<g id="a_node3"><a xlink:href="http://trips.ihmc.us/lexicon/data/ONT::EVENT-TIME-REL.xml" xlink:title="&lt;font color=&quot;green&quot;&gt;&lt;br /&gt;&lt;/font&gt; &lt;font color=&quot;black&quot;&gt;EVENT&#45;TIME&#45;REL&lt;/font&gt; &lt;font color=&quot;green&quot;&gt;&lt;br /&gt;&lt;/font&gt; &lt;font color=&quot;red&quot;&gt;F&lt;/font&gt; &lt;font color=&quot;blue&quot;&gt;* &lt;/font&gt; &lt;font color=&quot;green&quot;&gt;&lt;br /&gt; &lt;/font&gt;">
<polygon fill="pink" stroke="transparent" stroke-width="0.5" points="0.16,-88 35.34,-88 35.34,-120 0.16,-120 0.16,-88"/>
<polygon fill="lightblue" stroke="transparent" stroke-width="0.5" points="35.34,-88 70.52,-88 70.52,-120 35.34,-120 35.34,-88"/>
<polygon fill="none" stroke="transparent" points="70.52,-120 0.16,-120 0.16,-88 70.52,-88 70.52,-120"/>
<text text-anchor="start" x="0" y="-106.6" font-family="Work Sans" font-size="8.00"> </text>
<text text-anchor="start" x="2.22" y="-106.6" font-family="Work Sans" font-size="8.00">EVENT&#45;TIME&#45;REL</text>
<text text-anchor="start" x="68.46" y="-106.6" font-family="Work Sans" font-size="8.00"> </text>
<text text-anchor="start" x="26.89" y="-98.6" font-family="Work Sans" font-size="8.00"> </text>
<text text-anchor="start" x="29.12" y="-98.6" font-family="Work Sans" font-size="8.00" fill="red">F</text>
<text text-anchor="start" x="34" y="-98.6" font-family="Work Sans" font-size="8.00"> </text>
<text text-anchor="start" x="36.23" y="-98.6" font-family="Work Sans" font-size="8.00" fill="blue">* </text>
<text text-anchor="start" x="41.56" y="-98.6" font-family="Work Sans" font-size="8.00"> </text>
<text text-anchor="start" x="34.23" y="-90.6" font-family="Work Sans" font-size="8.00" fill="green"> </text>
</a>
</g>
</g>
<!-- V88087&#45;&gt;V88155 -->
<g id="edge2" class="edge">
<title>V88087&#45;&gt;V88155</title>
<path fill="none" stroke="red" stroke-width="0.5" d="M44.96,-169.19C36.54,-164.54 29.1,-158.58 23.65,-150.56 18.59,-142.57 19.85,-133.3 22.97,-124.86"/>
<path fill="none" stroke="blue" stroke-width="0.5" d="M45.93,-167.44C37.79,-162.98 30.35,-157.02 25.31,-149.44 20.57,-142.84 21.84,-133.57 24.84,-125.56"/>
<polygon fill="red" stroke="red" stroke-width="0.5" points="25.67,-125.53 26,-120.25 22.44,-124.17 25.67,-125.53"/>
<text text-anchor="middle" x="39.27" y="-143.6" font-family="Work Sans" font-size="8.00"> TIME &#160;&#160;</text>
</g>
<!-- V88079 -->
<g id="node5" class="node">
<title>V88079</title>
<g id="a_node5"><a xlink:href="http://trips.ihmc.us/lexicon/data/ONT::FRIEND.xml" xlink:title="&lt;font color=&quot;green&quot;&gt;&lt;br /&gt;&lt;/font&gt; &lt;font color=&quot;black&quot;&gt;FRIEND&lt;/font&gt; &lt;font color=&quot;green&quot;&gt;&lt;br /&gt;&lt;/font&gt; &lt;font color=&quot;red&quot;&gt;THE&lt;/font&gt; &lt;font color=&quot;blue&quot;&gt;BOYFRIEND&lt;/font&gt; &lt;font color=&quot;green&quot;&gt;&lt;br /&gt;&lt;/font&gt; &lt;font color=&quot;green&quot;&gt;friend%1:18:00&lt;/font&gt; &lt;font color=&quot;green&quot;&gt;&lt;br /&gt; &lt;/font&gt;">
<text text-anchor="start" x="112.23" y="-110.6" font-family="Work Sans" font-size="8.00"> </text>
<text text-anchor="start" x="114.45" y="-110.6" font-family="Work Sans" font-size="8.00">FRIEND</text>
<text text-anchor="start" x="144.23" y="-110.6" font-family="Work Sans" font-size="8.00"> </text>
<text text-anchor="start" x="94.67" y="-102.6" font-family="Work Sans" font-size="8.00"> </text>
<text text-anchor="start" x="96.89" y="-102.6" font-family="Work Sans" font-size="8.00" fill="red">THE</text>
<text text-anchor="start" x="112.89" y="-102.6" font-family="Work Sans" font-size="8.00"> </text>
<text text-anchor="start" x="115.12" y="-102.6" font-family="Work Sans" font-size="8.00" fill="blue">BOYFRIEND</text>
<text text-anchor="start" x="161.79" y="-102.6" font-family="Work Sans" font-size="8.00"> </text>
<text text-anchor="start" x="100.21" y="-94.6" font-family="Work Sans" font-size="8.00"> </text>
<text text-anchor="start" x="102.43" y="-94.6" font-family="Work Sans" font-size="8.00" fill="green">friend%1:18:00</text>
<text text-anchor="start" x="156.25" y="-94.6" font-family="Work Sans" font-size="8.00"> </text>
<text text-anchor="start" x="128.23" y="-86.6" font-family="Work Sans" font-size="8.00" fill="green"> </text>
</a>
</g>
</g>
<!-- V88087&#45;&gt;V88079 -->
<g id="edge3" class="edge">
<title>V88087&#45;&gt;V88079</title>
<path fill="none" stroke="grey" stroke-width="0.5" d="M109.97,-167.96C113.36,-156.94 118.03,-141.75 121.94,-129.05"/>
<polygon fill="grey" stroke="grey" stroke-width="0.5" points="123.65,-129.44 123.45,-124.14 120.31,-128.41 123.65,-129.44"/>
<text text-anchor="middle" x="135.28" y="-143.6" font-family="Work Sans" font-size="8.00"> AGENT &#160;&#160;</text>
</g>
<!-- V88096 -->
<g id="node7" class="node">
<title>V88096</title>
<g id="a_node7"><a xlink:href="http://trips.ihmc.us/lexicon/data/ONT::PERSON.xml" xlink:title="&lt;font color=&quot;green&quot;&gt;&lt;br /&gt;&lt;/font&gt; &lt;font color=&quot;black&quot;&gt;PERSON&lt;/font&gt; &lt;font color=&quot;green&quot;&gt;&lt;br /&gt;&lt;/font&gt; &lt;font color=&quot;red&quot;&gt;PRO&lt;/font&gt; &lt;font color=&quot;blue&quot;&gt;ME&lt;/font&gt; &lt;font color=&quot;green&quot;&gt;&lt;br /&gt;&lt;/font&gt; &lt;font color=&quot;green&quot;&gt;person%1:03:00&lt;/font&gt; &lt;font color=&quot;green&quot;&gt;&lt;br /&gt; &lt;/font&gt;">
<text text-anchor="start" x="194.22" y="-110.6" font-family="Work Sans" font-size="8.00"> </text>
<text text-anchor="start" x="196.45" y="-110.6" font-family="Work Sans" font-size="8.00">PERSON</text>
<text text-anchor="start" x="230.23" y="-110.6" font-family="Work Sans" font-size="8.00"> </text>
<text text-anchor="start" x="195.34" y="-102.6" font-family="Work Sans" font-size="8.00"> </text>
<text text-anchor="start" x="197.56" y="-102.6" font-family="Work Sans" font-size="8.00" fill="red">PRO</text>
<text text-anchor="start" x="214.9" y="-102.6" font-family="Work Sans" font-size="8.00"> </text>
<text text-anchor="start" x="217.12" y="-102.6" font-family="Work Sans" font-size="8.00" fill="blue">ME</text>
<text text-anchor="start" x="229.12" y="-102.6" font-family="Work Sans" font-size="8.00"> </text>
<text text-anchor="start" x="181.98" y="-94.6" font-family="Work Sans" font-size="8.00"> </text>
<text text-anchor="start" x="184.21" y="-94.6" font-family="Work Sans" font-size="8.00" fill="green">person%1:03:00</text>
<text text-anchor="start" x="242.47" y="-94.6" font-family="Work Sans" font-size="8.00"> </text>
<text text-anchor="start" x="212.23" y="-86.6" font-family="Work Sans" font-size="8.00" fill="green"> </text>
</a>
</g>
</g>
<!-- V88087&#45;&gt;V88096 -->
<g id="edge5" class="edge">
<title>V88087&#45;&gt;V88096</title>
<path fill="none" stroke="red" stroke-width="0.5" d="M129.78,-167.09C138.46,-161.65 148.19,-155.32 156.76,-149.19 166.4,-142.29 176.64,-134.28 185.67,-126.96"/>
<path fill="none" stroke="blue" stroke-width="0.5" d="M130.84,-168.79C139.55,-163.33 149.28,-157 157.92,-150.81 167.63,-143.86 177.87,-135.85 186.93,-128.51"/>
<polygon fill="red" stroke="red" stroke-width="0.5" points="187.86,-128.72 190.63,-124.2 185.65,-126 187.86,-128.72"/>
<text text-anchor="middle" x="186.57" y="-143.6" font-family="Work Sans" font-size="8.00"> AGENT1 &#160;&#160;</text>
</g>
<!-- V88155&#45;&gt;V88087 -->
<g id="edge7" class="edge">
<title>V88155&#45;&gt;V88087</title>
<path fill="none" stroke="red" stroke-width="0.5" d="M48.05,-119.7C55.09,-128.54 64.31,-139.79 72.97,-149.33 77.21,-154 81.95,-158.9 86.48,-163.44"/>
<path fill="none" stroke="blue" stroke-width="0.5" d="M46.48,-120.94C53.54,-129.81 62.76,-141.06 71.49,-150.67 75.77,-155.39 80.51,-160.29 85.06,-164.85"/>
<polygon fill="red" stroke="red" stroke-width="0.5" points="84.73,-165.58 89.51,-167.87 87.2,-163.1 84.73,-165.58"/>
<text text-anchor="middle" x="91.9" y="-143.6" font-family="Work Sans" font-size="8.00"> FIGURE &#160;&#160;</text>
</g>
<!-- V88072 -->
<g id="node4" class="node">
<title>V88072</title>
<g id="a_node4"><a xlink:href="http://trips.ihmc.us/lexicon/data/ONT::NIGHT.xml" xlink:title="&lt;font color=&quot;green&quot;&gt;&lt;br /&gt;&lt;/font&gt; &lt;font color=&quot;black&quot;&gt;NIGHT&lt;/font&gt; &lt;font color=&quot;green&quot;&gt;&lt;br /&gt;&lt;/font&gt; &lt;font color=&quot;red&quot;&gt;THE&lt;/font&gt; &lt;font color=&quot;blue&quot;&gt;NIGHT&lt;/font&gt; &lt;font color=&quot;green&quot;&gt;&lt;br /&gt;&lt;/font&gt; &lt;font color=&quot;green&quot;&gt;night%1:28:00::&lt;/font&gt; &lt;font color=&quot;green&quot;&gt;&lt;br /&gt; &lt;/font&gt;">
<polygon fill="pink" stroke="transparent" stroke-width="0.5" points="5.3,0 35.34,0 35.34,-40 5.3,-40 5.3,0"/>
<polygon fill="lightblue" stroke="transparent" stroke-width="0.5" points="35.34,0 65.38,0 65.38,-40 35.34,-40 35.34,0"/>
<polygon fill="none" stroke="transparent" points="65.38,-40 5.3,-40 5.3,0 65.38,0 65.38,-40"/>
<text text-anchor="start" x="20.67" y="-26.6" font-family="Work Sans" font-size="8.00"> </text>
<text text-anchor="start" x="22.9" y="-26.6" font-family="Work Sans" font-size="8.00">NIGHT</text>
<text text-anchor="start" x="47.78" y="-26.6" font-family="Work Sans" font-size="8.00"> </text>
<text text-anchor="start" x="11.56" y="-18.6" font-family="Work Sans" font-size="8.00"> </text>
<text text-anchor="start" x="13.79" y="-18.6" font-family="Work Sans" font-size="8.00" fill="red">THE</text>
<text text-anchor="start" x="29.79" y="-18.6" font-family="Work Sans" font-size="8.00"> </text>
<text text-anchor="start" x="32.01" y="-18.6" font-family="Work Sans" font-size="8.00" fill="blue">NIGHT</text>
<text text-anchor="start" x="56.89" y="-18.6" font-family="Work Sans" font-size="8.00"> </text>
<text text-anchor="start" x="5.32" y="-10.6" font-family="Work Sans" font-size="8.00"> </text>
<text text-anchor="start" x="7.54" y="-10.6" font-family="Work Sans" font-size="8.00" fill="green">night%1:28:00::</text>
<text text-anchor="start" x="63.14" y="-10.6" font-family="Work Sans" font-size="8.00"> </text>
<text text-anchor="start" x="34.23" y="-2.6" font-family="Work Sans" font-size="8.00" fill="green"> </text>
</a>
</g>
</g>
<!-- V88155&#45;&gt;V88072 -->
<g id="edge6" class="edge">
<title>V88155&#45;&gt;V88072</title>
<path fill="none" stroke="red" stroke-width="0.5" d="M34.34,-87.96C34.34,-76.12 34.34,-59.38 34.34,-45.6"/>
<path fill="none" stroke="blue" stroke-width="0.5" d="M36.34,-87.96C36.34,-76.12 36.34,-59.38 36.34,-45.6"/>
<polygon fill="red" stroke="red" stroke-width="0.5" points="37.09,-45.29 35.34,-40.29 33.59,-45.29 37.09,-45.29"/>
<text text-anchor="middle" x="57.56" y="-59.6" font-family="Work Sans" font-size="8.00"> GROUND &#160;&#160;</text>
</g>
<!-- V88076 -->
<g id="node6" class="node">
<title>V88076</title>
<g id="a_node6"><a xlink:href="http://trips.ihmc.us/lexicon/data/ONT::PERSON.xml" xlink:title="&lt;font color=&quot;green&quot;&gt;&lt;br /&gt;&lt;/font&gt; &lt;font color=&quot;black&quot;&gt;PERSON&lt;/font&gt; &lt;font color=&quot;green&quot;&gt;&lt;br /&gt;&lt;/font&gt; &lt;font color=&quot;red&quot;&gt;PRO&lt;/font&gt; &lt;font color=&quot;blue&quot;&gt;MY&lt;/font&gt; &lt;font color=&quot;green&quot;&gt;&lt;br /&gt;&lt;/font&gt; &lt;font color=&quot;green&quot;&gt;person%1:03:00&lt;/font&gt; &lt;font color=&quot;green&quot;&gt;&lt;br /&gt; &lt;/font&gt;">
<text text-anchor="start" x="110.22" y="-26.6" font-family="Work Sans" font-size="8.00"> </text>
<text text-anchor="start" x="112.45" y="-26.6" font-family="Work Sans" font-size="8.00">PERSON</text>
<text text-anchor="start" x="146.23" y="-26.6" font-family="Work Sans" font-size="8.00"> </text>
<text text-anchor="start" x="111.34" y="-18.6" font-family="Work Sans" font-size="8.00"> </text>
<text text-anchor="start" x="113.56" y="-18.6" font-family="Work Sans" font-size="8.00" fill="red">PRO</text>
<text text-anchor="start" x="130.9" y="-18.6" font-family="Work Sans" font-size="8.00"> </text>
<text text-anchor="start" x="133.12" y="-18.6" font-family="Work Sans" font-size="8.00" fill="blue">MY</text>
<text text-anchor="start" x="145.12" y="-18.6" font-family="Work Sans" font-size="8.00"> </text>
<text text-anchor="start" x="97.98" y="-10.6" font-family="Work Sans" font-size="8.00"> </text>
<text text-anchor="start" x="100.21" y="-10.6" font-family="Work Sans" font-size="8.00" fill="green">person%1:03:00</text>
<text text-anchor="start" x="158.47" y="-10.6" font-family="Work Sans" font-size="8.00"> </text>
<text text-anchor="start" x="128.23" y="-2.6" font-family="Work Sans" font-size="8.00" fill="green"> </text>
</a>
</g>
</g>
<!-- V88079&#45;&gt;V88076 -->
<g id="edge4" class="edge">
<title>V88079&#45;&gt;V88076</title>
<path fill="none" stroke="grey" stroke-width="0.5" d="M129.34,-83.98C129.34,-72.47 129.34,-57.68 129.34,-45.33"/>
<polygon fill="grey" stroke="grey" stroke-width="0.5" points="131.09,-45.2 129.34,-40.2 127.59,-45.2 131.09,-45.2"/>
<text text-anchor="middle" x="160.02" y="-59.6" font-family="Work Sans" font-size="8.00"> ASSOC&#45;POSS &#160;&#160;</text>
</g>
</g>
</svg>
