<?xml version="1.0" encoding="UTF-8" standalone="no"?>
<!DOCTYPE svg PUBLIC "-//W3C//DTD SVG 1.1//EN"
 "http://www.w3.org/Graphics/SVG/1.1/DTD/svg11.dtd">
<!-- Generated by graphviz version 2.43.0 (0)
 -->
<!-- Title: graph Pages: 1 -->
<svg width="301pt" height="284pt"
 viewBox="0.00 0.00 300.85 284.00" xmlns="http://www.w3.org/2000/svg" xmlns:xlink="http://www.w3.org/1999/xlink">
<g id="graph0" class="graph" transform="scale(1 1) rotate(0) translate(4 280)">
<title>graph</title>
<polygon fill="white" stroke="transparent" points="-4,4 -4,-280 296.85,-280 296.85,4 -4,4"/>
<!-- V88291 -->
<g id="node1" class="node">
<title>V88291</title>
<g id="a_node1"><a xlink:href="http://trips.ihmc.us/lexicon/data/ONT::SA_TELL.xml" xlink:title="&lt;font color=&quot;green&quot;&gt;&lt;br /&gt;&lt;/font&gt; &lt;font color=&quot;black&quot;&gt;SA_TELL&lt;/font&gt; &lt;font color=&quot;green&quot;&gt;&lt;br /&gt;&lt;/font&gt; &lt;font color=&quot;red&quot;&gt;SPEECHACT&lt;/font&gt; &lt;font color=&quot;blue&quot;&gt;* &lt;/font&gt; &lt;font color=&quot;green&quot;&gt;&lt;br /&gt; &lt;/font&gt;">
<polygon fill="pink" stroke="transparent" stroke-width="0.5" points="103.1,-244 133.5,-244 133.5,-276 103.1,-276 103.1,-244"/>
<polygon fill="lightblue" stroke="transparent" stroke-width="0.5" points="133.5,-244 163.9,-244 163.9,-276 133.5,-276 133.5,-244"/>
<polygon fill="none" stroke="transparent" points="163.9,-276 103.1,-276 103.1,-244 163.9,-244 163.9,-276"/>
<text text-anchor="start" x="114.15" y="-262.6" font-family="Work Sans" font-size="8.00"> </text>
<text text-anchor="start" x="116.38" y="-262.6" font-family="Work Sans" font-size="8.00">SA_TELL</text>
<text text-anchor="start" x="150.62" y="-262.6" font-family="Work Sans" font-size="8.00"> </text>
<text text-anchor="start" x="103.05" y="-254.6" font-family="Work Sans" font-size="8.00"> </text>
<text text-anchor="start" x="105.27" y="-254.6" font-family="Work Sans" font-size="8.00" fill="red">SPEECHACT</text>
<text text-anchor="start" x="154.17" y="-254.6" font-family="Work Sans" font-size="8.00"> </text>
<text text-anchor="start" x="156.39" y="-254.6" font-family="Work Sans" font-size="8.00" fill="blue">* </text>
<text text-anchor="start" x="161.73" y="-254.6" font-family="Work Sans" font-size="8.00"> </text>
<text text-anchor="start" x="132.39" y="-246.6" font-family="Work Sans" font-size="8.00" fill="green"> </text>
</a>
</g>
</g>
<!-- V88087 -->
<g id="node2" class="node">
<title>V88087</title>
<g id="a_node2"><a xlink:href="http://trips.ihmc.us/lexicon/data/ONT::ESTABLISH-COMMUNICATION.xml" xlink:title="&lt;font color=&quot;green&quot;&gt;&lt;br /&gt;&lt;/font&gt; &lt;font color=&quot;black&quot;&gt;ESTABLISH&#45;COMMUNICATION&lt;/font&gt; &lt;font color=&quot;green&quot;&gt;&lt;br /&gt;&lt;/font&gt; &lt;font color=&quot;red&quot;&gt;F&lt;/font&gt; &lt;font color=&quot;blue&quot;&gt;CALL&lt;/font&gt; &lt;font color=&quot;green&quot;&gt;&lt;br /&gt; &lt;/font&gt;">
<polygon fill="pink" stroke="transparent" stroke-width="0.5" points="73.72,-168 133.5,-168 133.5,-200 73.72,-200 73.72,-168"/>
<polygon fill="lightblue" stroke="transparent" stroke-width="0.5" points="133.5,-168 193.27,-168 193.27,-200 133.5,-200 133.5,-168"/>
<polygon fill="none" stroke="transparent" points="193.27,-200 73.72,-200 73.72,-168 193.27,-168 193.27,-200"/>
<text text-anchor="start" x="73.86" y="-186.6" font-family="Work Sans" font-size="8.00"> </text>
<text text-anchor="start" x="76.08" y="-186.6" font-family="Work Sans" font-size="8.00">ESTABLISH&#45;COMMUNICATION</text>
<text text-anchor="start" x="190.91" y="-186.6" font-family="Work Sans" font-size="8.00"> </text>
<text text-anchor="start" x="117.71" y="-178.6" font-family="Work Sans" font-size="8.00"> </text>
<text text-anchor="start" x="119.94" y="-178.6" font-family="Work Sans" font-size="8.00" fill="red">F</text>
<text text-anchor="start" x="124.82" y="-178.6" font-family="Work Sans" font-size="8.00"> </text>
<text text-anchor="start" x="127.05" y="-178.6" font-family="Work Sans" font-size="8.00" fill="blue">CALL</text>
<text text-anchor="start" x="147.06" y="-178.6" font-family="Work Sans" font-size="8.00"> </text>
<text text-anchor="start" x="132.39" y="-170.6" font-family="Work Sans" font-size="8.00" fill="green"> </text>
</a>
</g>
</g>
<!-- V88291&#45;&gt;V88087 -->
<g id="edge8" class="edge">
<title>V88291&#45;&gt;V88087</title>
<path fill="none" stroke="grey" stroke-width="0.5" d="M133.5,-243.67C133.5,-232.58 133.5,-217.49 133.5,-205.38"/>
<polygon fill="grey" stroke="grey" stroke-width="0.5" points="135.25,-205.06 133.5,-200.06 131.75,-205.06 135.25,-205.06"/>
<text text-anchor="middle" x="157.21" y="-219.6" font-family="Work Sans" font-size="8.00"> CONTENT &#160;&#160;</text>
</g>
<!-- V88155 -->
<g id="node3" class="node">
<title>V88155</title>
<g id="a_node3"><a xlink:href="http://trips.ihmc.us/lexicon/data/ONT::EVENT-TIME-REL.xml" xlink:title="&lt;font color=&quot;green&quot;&gt;&lt;br /&gt;&lt;/font&gt; &lt;font color=&quot;black&quot;&gt;EVENT&#45;TIME&#45;REL&lt;/font&gt; &lt;font color=&quot;green&quot;&gt;&lt;br /&gt;&lt;/font&gt; &lt;font color=&quot;red&quot;&gt;F&lt;/font&gt; &lt;font color=&quot;blue&quot;&gt;* &lt;/font&gt; &lt;font color=&quot;green&quot;&gt;&lt;br /&gt; &lt;/font&gt;">
<polygon fill="pink" stroke="transparent" stroke-width="0.5" points="24.32,-88 59.5,-88 59.5,-120 24.32,-120 24.32,-88"/>
<polygon fill="lightblue" stroke="transparent" stroke-width="0.5" points="59.5,-88 94.68,-88 94.68,-120 59.5,-120 59.5,-88"/>
<polygon fill="none" stroke="transparent" points="94.68,-120 24.32,-120 24.32,-88 94.68,-88 94.68,-120"/>
<text text-anchor="start" x="24.16" y="-106.6" font-family="Work Sans" font-size="8.00"> </text>
<text text-anchor="start" x="26.38" y="-106.6" font-family="Work Sans" font-size="8.00">EVENT&#45;TIME&#45;REL</text>
<text text-anchor="start" x="92.62" y="-106.6" font-family="Work Sans" font-size="8.00"> </text>
<text text-anchor="start" x="51.05" y="-98.6" font-family="Work Sans" font-size="8.00"> </text>
<text text-anchor="start" x="53.28" y="-98.6" font-family="Work Sans" font-size="8.00" fill="red">F</text>
<text text-anchor="start" x="58.16" y="-98.6" font-family="Work Sans" font-size="8.00"> </text>
<text text-anchor="start" x="60.38" y="-98.6" font-family="Work Sans" font-size="8.00" fill="blue">* </text>
<text text-anchor="start" x="65.72" y="-98.6" font-family="Work Sans" font-size="8.00"> </text>
<text text-anchor="start" x="58.39" y="-90.6" font-family="Work Sans" font-size="8.00" fill="green"> </text>
</a>
</g>
</g>
<!-- V88087&#45;&gt;V88155 -->
<g id="edge7" class="edge">
<title>V88087&#45;&gt;V88155</title>
<path fill="none" stroke="blue" d="M73.84,-175.08C43.99,-169.77 12.3,-161.6 3.28,-150 -5.63,-138.55 5.08,-128.24 19.45,-120.39"/>
<polygon fill="blue" stroke="blue" points="20.38,-121.88 24.02,-118.03 18.77,-118.77 20.38,-121.88"/>
<text text-anchor="middle" x="4.61" y="-143.6" font-family="Work Sans" font-size="8.00">.</text>
</g>
<!-- V88087&#45;&gt;V88155 -->
<g id="edge11" class="edge">
<title>V88087&#45;&gt;V88155</title>
<path fill="none" stroke="red" d="M73.85,-175.11C59.38,-170.22 45.53,-162.42 36.64,-150 31.04,-142.18 34.44,-132.8 40.15,-124.64"/>
<polygon fill="red" stroke="red" points="41.87,-125.27 43.52,-120.24 39.09,-123.15 41.87,-125.27"/>
<text text-anchor="middle" x="51.43" y="-143.6" font-family="Work Sans" font-size="8.00"> TIME &#160;&#160;</text>
</g>
<!-- V88079 -->
<g id="node5" class="node">
<title>V88079</title>
<g id="a_node5"><a xlink:href="http://trips.ihmc.us/lexicon/data/ONT::FRIEND.xml" xlink:title="&lt;font color=&quot;green&quot;&gt;&lt;br /&gt;&lt;/font&gt; &lt;font color=&quot;black&quot;&gt;FRIEND&lt;/font&gt; &lt;font color=&quot;green&quot;&gt;&lt;br /&gt;&lt;/font&gt; &lt;font color=&quot;red&quot;&gt;THE&lt;/font&gt; &lt;font color=&quot;blue&quot;&gt;BOYFRIEND&lt;/font&gt; &lt;font color=&quot;green&quot;&gt;&lt;br /&gt;&lt;/font&gt; &lt;font color=&quot;green&quot;&gt;friend%1:18:00&lt;/font&gt; &lt;font color=&quot;green&quot;&gt;&lt;br /&gt; &lt;/font&gt;">
<text text-anchor="start" x="141.39" y="-110.6" font-family="Work Sans" font-size="8.00"> </text>
<text text-anchor="start" x="143.61" y="-110.6" font-family="Work Sans" font-size="8.00">FRIEND</text>
<text text-anchor="start" x="173.39" y="-110.6" font-family="Work Sans" font-size="8.00"> </text>
<text text-anchor="start" x="123.83" y="-102.6" font-family="Work Sans" font-size="8.00"> </text>
<text text-anchor="start" x="126.05" y="-102.6" font-family="Work Sans" font-size="8.00" fill="red">THE</text>
<text text-anchor="start" x="142.05" y="-102.6" font-family="Work Sans" font-size="8.00"> </text>
<text text-anchor="start" x="144.27" y="-102.6" font-family="Work Sans" font-size="8.00" fill="blue">BOYFRIEND</text>
<text text-anchor="start" x="190.95" y="-102.6" font-family="Work Sans" font-size="8.00"> </text>
<text text-anchor="start" x="129.37" y="-94.6" font-family="Work Sans" font-size="8.00"> </text>
<text text-anchor="start" x="131.59" y="-94.6" font-family="Work Sans" font-size="8.00" fill="green">friend%1:18:00</text>
<text text-anchor="start" x="185.41" y="-94.6" font-family="Work Sans" font-size="8.00"> </text>
<text text-anchor="start" x="157.39" y="-86.6" font-family="Work Sans" font-size="8.00" fill="green"> </text>
</a>
</g>
</g>
<!-- V88087&#45;&gt;V88079 -->
<g id="edge1" class="edge">
<title>V88087&#45;&gt;V88079</title>
<path fill="none" stroke="grey" stroke-width="0.5" d="M138.32,-167.96C141.85,-156.94 146.72,-141.75 150.79,-129.05"/>
<polygon fill="grey" stroke="grey" stroke-width="0.5" points="152.5,-129.44 152.36,-124.14 149.17,-128.37 152.5,-129.44"/>
<text text-anchor="middle" x="164.43" y="-143.6" font-family="Work Sans" font-size="8.00"> AGENT &#160;&#160;</text>
</g>
<!-- V88096 -->
<g id="node7" class="node">
<title>V88096</title>
<g id="a_node7"><a xlink:href="http://trips.ihmc.us/lexicon/data/ONT::PERSON.xml" xlink:title="&lt;font color=&quot;green&quot;&gt;&lt;br /&gt;&lt;/font&gt; &lt;font color=&quot;black&quot;&gt;PERSON&lt;/font&gt; &lt;font color=&quot;green&quot;&gt;&lt;br /&gt;&lt;/font&gt; &lt;font color=&quot;red&quot;&gt;PRO&lt;/font&gt; &lt;font color=&quot;blue&quot;&gt;ME&lt;/font&gt; &lt;font color=&quot;green&quot;&gt;&lt;br /&gt;&lt;/font&gt; &lt;font color=&quot;green&quot;&gt;person%1:03:00&lt;/font&gt; &lt;font color=&quot;green&quot;&gt;&lt;br /&gt; &lt;/font&gt;">
<text text-anchor="start" x="242.38" y="-110.6" font-family="Work Sans" font-size="8.00"> </text>
<text text-anchor="start" x="244.61" y="-110.6" font-family="Work Sans" font-size="8.00">PERSON</text>
<text text-anchor="start" x="278.39" y="-110.6" font-family="Work Sans" font-size="8.00"> </text>
<text text-anchor="start" x="243.5" y="-102.6" font-family="Work Sans" font-size="8.00"> </text>
<text text-anchor="start" x="245.72" y="-102.6" font-family="Work Sans" font-size="8.00" fill="red">PRO</text>
<text text-anchor="start" x="263.05" y="-102.6" font-family="Work Sans" font-size="8.00"> </text>
<text text-anchor="start" x="265.28" y="-102.6" font-family="Work Sans" font-size="8.00" fill="blue">ME</text>
<text text-anchor="start" x="277.28" y="-102.6" font-family="Work Sans" font-size="8.00"> </text>
<text text-anchor="start" x="230.14" y="-94.6" font-family="Work Sans" font-size="8.00"> </text>
<text text-anchor="start" x="232.37" y="-94.6" font-family="Work Sans" font-size="8.00" fill="green">person%1:03:00</text>
<text text-anchor="start" x="290.63" y="-94.6" font-family="Work Sans" font-size="8.00"> </text>
<text text-anchor="start" x="260.39" y="-86.6" font-family="Work Sans" font-size="8.00" fill="green"> </text>
</a>
</g>
</g>
<!-- V88087&#45;&gt;V88096 -->
<g id="edge6" class="edge">
<title>V88087&#45;&gt;V88096</title>
<path fill="none" stroke="red" d="M158.18,-167.96C177.3,-156.31 204.08,-139.99 225.58,-126.89"/>
<polygon fill="red" stroke="red" points="226.72,-128.24 230.08,-124.14 224.9,-125.25 226.72,-128.24"/>
<text text-anchor="middle" x="217.73" y="-143.6" font-family="Work Sans" font-size="8.00"> AGENT1 &#160;&#160;</text>
</g>
<!-- V88087&#45;&gt;V88096 -->
<g id="edge10" class="edge">
<title>V88087&#45;&gt;V88096</title>
<path fill="none" stroke="blue" d="M193.33,-174.36C210.44,-169.5 228.07,-161.89 241.5,-150 247.64,-144.57 251.98,-136.89 255.02,-129.42"/>
<polygon fill="blue" stroke="blue" points="256.81,-129.6 256.91,-124.3 253.53,-128.38 256.81,-129.6"/>
<text text-anchor="middle" x="249.61" y="-143.6" font-family="Work Sans" font-size="8.00">.</text>
</g>
<!-- V88155&#45;&gt;V88087 -->
<g id="edge3" class="edge">
<title>V88155&#45;&gt;V88087</title>
<path fill="none" stroke="red" d="M60.84,-120.14C62.35,-129.58 65.56,-141.51 72.38,-150 77.17,-155.95 83.34,-160.98 89.9,-165.18"/>
<polygon fill="red" stroke="red" points="89.31,-166.87 94.5,-167.95 91.12,-163.87 89.31,-166.87"/>
<text text-anchor="middle" x="92.05" y="-143.6" font-family="Work Sans" font-size="8.00"> FIGURE &#160;&#160;</text>
</g>
<!-- V88155&#45;&gt;V88087 -->
<g id="edge4" class="edge">
<title>V88155&#45;&gt;V88087</title>
<path fill="none" stroke="blue" d="M85.46,-120.03C94.44,-126.07 104.1,-133.6 111.5,-142 116.97,-148.2 121.58,-156 125.15,-163.13"/>
<polygon fill="blue" stroke="blue" points="123.71,-164.17 127.45,-167.93 126.86,-162.66 123.71,-164.17"/>
<text text-anchor="middle" x="118.61" y="-143.6" font-family="Work Sans" font-size="8.00">.</text>
</g>
<!-- V88072 -->
<g id="node4" class="node">
<title>V88072</title>
<g id="a_node4"><a xlink:href="http://trips.ihmc.us/lexicon/data/ONT::NIGHT.xml" xlink:title="&lt;font color=&quot;green&quot;&gt;&lt;br /&gt;&lt;/font&gt; &lt;font color=&quot;black&quot;&gt;NIGHT&lt;/font&gt; &lt;font color=&quot;green&quot;&gt;&lt;br /&gt;&lt;/font&gt; &lt;font color=&quot;red&quot;&gt;THE&lt;/font&gt; &lt;font color=&quot;blue&quot;&gt;NIGHT&lt;/font&gt; &lt;font color=&quot;green&quot;&gt;&lt;br /&gt;&lt;/font&gt; &lt;font color=&quot;green&quot;&gt;night%1:28:00::&lt;/font&gt; &lt;font color=&quot;green&quot;&gt;&lt;br /&gt; &lt;/font&gt;">
<polygon fill="pink" stroke="transparent" stroke-width="0.5" points="43.46,0 73.5,0 73.5,-40 43.46,-40 43.46,0"/>
<polygon fill="lightblue" stroke="transparent" stroke-width="0.5" points="73.5,0 103.54,0 103.54,-40 73.5,-40 73.5,0"/>
<polygon fill="none" stroke="transparent" points="103.54,-40 43.46,-40 43.46,0 103.54,0 103.54,-40"/>
<text text-anchor="start" x="58.83" y="-26.6" font-family="Work Sans" font-size="8.00"> </text>
<text text-anchor="start" x="61.05" y="-26.6" font-family="Work Sans" font-size="8.00">NIGHT</text>
<text text-anchor="start" x="85.94" y="-26.6" font-family="Work Sans" font-size="8.00"> </text>
<text text-anchor="start" x="49.72" y="-18.6" font-family="Work Sans" font-size="8.00"> </text>
<text text-anchor="start" x="51.94" y="-18.6" font-family="Work Sans" font-size="8.00" fill="red">THE</text>
<text text-anchor="start" x="67.94" y="-18.6" font-family="Work Sans" font-size="8.00"> </text>
<text text-anchor="start" x="70.17" y="-18.6" font-family="Work Sans" font-size="8.00" fill="blue">NIGHT</text>
<text text-anchor="start" x="95.05" y="-18.6" font-family="Work Sans" font-size="8.00"> </text>
<text text-anchor="start" x="43.48" y="-10.6" font-family="Work Sans" font-size="8.00"> </text>
<text text-anchor="start" x="45.7" y="-10.6" font-family="Work Sans" font-size="8.00" fill="green">night%1:28:00::</text>
<text text-anchor="start" x="101.3" y="-10.6" font-family="Work Sans" font-size="8.00"> </text>
<text text-anchor="start" x="72.39" y="-2.6" font-family="Work Sans" font-size="8.00" fill="green"> </text>
</a>
</g>
</g>
<!-- V88155&#45;&gt;V88072 -->
<g id="edge2" class="edge">
<title>V88155&#45;&gt;V88072</title>
<path fill="none" stroke="blue" d="M61.08,-87.95C62.09,-79.18 63.54,-67.93 65.28,-58 66.01,-53.81 66.9,-49.37 67.81,-45.08"/>
<polygon fill="blue" stroke="blue" points="69.54,-45.4 68.9,-40.14 66.12,-44.65 69.54,-45.4"/>
<text text-anchor="middle" x="66.61" y="-59.6" font-family="Work Sans" font-size="8.00">.</text>
</g>
<!-- V88155&#45;&gt;V88072 -->
<g id="edge5" class="edge">
<title>V88155&#45;&gt;V88072</title>
<path fill="none" stroke="red" d="M62.07,-87.96C64.1,-76.02 67,-59.08 69.36,-45.24"/>
<polygon fill="red" stroke="red" points="71.09,-45.51 70.21,-40.29 67.64,-44.92 71.09,-45.51"/>
<text text-anchor="middle" x="89.72" y="-59.6" font-family="Work Sans" font-size="8.00"> GROUND &#160;&#160;</text>
</g>
<!-- V88076 -->
<g id="node6" class="node">
<title>V88076</title>
<g id="a_node6"><a xlink:href="http://trips.ihmc.us/lexicon/data/ONT::PERSON.xml" xlink:title="&lt;font color=&quot;green&quot;&gt;&lt;br /&gt;&lt;/font&gt; &lt;font color=&quot;black&quot;&gt;PERSON&lt;/font&gt; &lt;font color=&quot;green&quot;&gt;&lt;br /&gt;&lt;/font&gt; &lt;font color=&quot;red&quot;&gt;PRO&lt;/font&gt; &lt;font color=&quot;blue&quot;&gt;MY&lt;/font&gt; &lt;font color=&quot;green&quot;&gt;&lt;br /&gt;&lt;/font&gt; &lt;font color=&quot;green&quot;&gt;person%1:03:00&lt;/font&gt; &lt;font color=&quot;green&quot;&gt;&lt;br /&gt; &lt;/font&gt;">
<text text-anchor="start" x="139.38" y="-26.6" font-family="Work Sans" font-size="8.00"> </text>
<text text-anchor="start" x="141.61" y="-26.6" font-family="Work Sans" font-size="8.00">PERSON</text>
<text text-anchor="start" x="175.39" y="-26.6" font-family="Work Sans" font-size="8.00"> </text>
<text text-anchor="start" x="140.5" y="-18.6" font-family="Work Sans" font-size="8.00"> </text>
<text text-anchor="start" x="142.72" y="-18.6" font-family="Work Sans" font-size="8.00" fill="red">PRO</text>
<text text-anchor="start" x="160.05" y="-18.6" font-family="Work Sans" font-size="8.00"> </text>
<text text-anchor="start" x="162.28" y="-18.6" font-family="Work Sans" font-size="8.00" fill="blue">MY</text>
<text text-anchor="start" x="174.28" y="-18.6" font-family="Work Sans" font-size="8.00"> </text>
<text text-anchor="start" x="127.14" y="-10.6" font-family="Work Sans" font-size="8.00"> </text>
<text text-anchor="start" x="129.37" y="-10.6" font-family="Work Sans" font-size="8.00" fill="green">person%1:03:00</text>
<text text-anchor="start" x="187.63" y="-10.6" font-family="Work Sans" font-size="8.00"> </text>
<text text-anchor="start" x="157.39" y="-2.6" font-family="Work Sans" font-size="8.00" fill="green"> </text>
</a>
</g>
</g>
<!-- V88079&#45;&gt;V88076 -->
<g id="edge9" class="edge">
<title>V88079&#45;&gt;V88076</title>
<path fill="none" stroke="grey" stroke-width="0.5" d="M158.5,-83.98C158.5,-72.47 158.5,-57.68 158.5,-45.33"/>
<polygon fill="grey" stroke="grey" stroke-width="0.5" points="160.25,-45.2 158.5,-40.2 156.75,-45.2 160.25,-45.2"/>
<text text-anchor="middle" x="189.18" y="-59.6" font-family="Work Sans" font-size="8.00"> ASSOC&#45;POSS &#160;&#160;</text>
</g>
</g>
</svg>
