<?xml version="1.0" encoding="UTF-8" standalone="no"?>
<!DOCTYPE svg PUBLIC "-//W3C//DTD SVG 1.1//EN"
 "http://www.w3.org/Graphics/SVG/1.1/DTD/svg11.dtd">
<!-- Generated by graphviz version 2.43.0 (0)
 -->
<!-- Title: graph Pages: 1 -->
<svg width="300pt" height="676pt"
 viewBox="0.00 0.00 300.00 676.00" xmlns="http://www.w3.org/2000/svg" xmlns:xlink="http://www.w3.org/1999/xlink">
<g id="graph0" class="graph" transform="scale(1 1) rotate(0) translate(4 672)">
<title>graph</title>
<polygon fill="white" stroke="transparent" points="-4,4 -4,-672 296,-672 296,4 -4,4"/>
<!-- V75927 -->
<g id="node1" class="node">
<title>V75927</title>
<polygon fill="black" stroke="transparent" points="8,-658 8,-668 109,-668 109,-658 8,-658"/>
<text text-anchor="start" x="44.71" y="-660.6" font-family="Work Sans" font-size="8.00" fill="white">V75927</text>
<polygon fill="black" stroke="transparent" points="8,-648 8,-658 58,-658 58,-648 8,-648"/>
<text text-anchor="start" x="8.55" y="-650.6" font-family="Work Sans" font-size="8.00" fill="white">SPEECHACT</text>
<polygon fill="black" stroke="transparent" points="58,-648 58,-658 109,-658 109,-648 58,-648"/>
<text text-anchor="start" x="58.6" y="-650.6" font-family="Work Sans" font-size="8.00" fill="white">ont::SA_TELL</text>
<polygon fill="black" stroke="transparent" points="8,-638 8,-648 58,-648 58,-638 8,-638"/>
<text text-anchor="start" x="27.89" y="-640.6" font-family="Work Sans" font-size="8.00" fill="white">lex</text>
<polygon fill="black" stroke="transparent" points="58,-638 58,-648 109,-648 109,-638 58,-638"/>
<text text-anchor="start" x="79.72" y="-640.6" font-family="Work Sans" font-size="8.00" fill="white">IS</text>
<polygon fill="black" stroke="transparent" points="8,-628 8,-638 58,-638 58,-628 8,-628"/>
<text text-anchor="start" x="24.33" y="-630.6" font-family="Work Sans" font-size="8.00" fill="white">span</text>
<polygon fill="black" stroke="transparent" points="58,-628 58,-638 109,-638 109,-628 58,-628"/>
<text text-anchor="start" x="71.94" y="-630.6" font-family="Work Sans" font-size="8.00" fill="white">(1, 46)</text>
</g>
<!-- V74896 -->
<g id="node2" class="node">
<title>V74896</title>
<polygon fill="black" stroke="transparent" points="6,-574 6,-584 110,-584 110,-574 6,-574"/>
<text text-anchor="start" x="44.21" y="-576.6" font-family="Work Sans" font-size="8.00" fill="white">V74896</text>
<polygon fill="black" stroke="transparent" points="6,-564 6,-574 25,-574 25,-564 6,-564"/>
<text text-anchor="start" x="13.06" y="-566.6" font-family="Work Sans" font-size="8.00" fill="white">F</text>
<polygon fill="black" stroke="transparent" points="25,-564 25,-574 110,-574 110,-564 25,-564"/>
<text text-anchor="start" x="25.85" y="-566.6" font-family="Work Sans" font-size="8.00" fill="white">ont::HAVE&#45;PROPERTY</text>
<polygon fill="black" stroke="transparent" points="6,-554 6,-564 25,-564 25,-554 6,-554"/>
<text text-anchor="start" x="10.39" y="-556.6" font-family="Work Sans" font-size="8.00" fill="white">lex</text>
<polygon fill="black" stroke="transparent" points="25,-554 25,-564 110,-564 110,-554 25,-554"/>
<text text-anchor="start" x="63.72" y="-556.6" font-family="Work Sans" font-size="8.00" fill="white">IS</text>
<polygon fill="black" stroke="transparent" points="6,-544 6,-554 25,-554 25,-544 6,-544"/>
<text text-anchor="start" x="6.83" y="-546.6" font-family="Work Sans" font-size="8.00" fill="white">span</text>
<polygon fill="black" stroke="transparent" points="25,-544 25,-554 110,-554 110,-544 25,-544"/>
<text text-anchor="start" x="55.94" y="-546.6" font-family="Work Sans" font-size="8.00" fill="white">(1, 45)</text>
</g>
<!-- V75927&#45;&gt;V74896 -->
<g id="edge9" class="edge">
<title>V75927&#45;&gt;V74896</title>
<path fill="none" stroke="black" d="M58,-627.98C58,-618.01 58,-605.59 58,-594.41"/>
<polygon fill="black" stroke="black" points="61.5,-594.2 58,-584.2 54.5,-594.2 61.5,-594.2"/>
<text text-anchor="middle" x="77.33" y="-603.6" font-family="Work Sans" font-size="8.00">CONTENT</text>
</g>
<!-- V74877 -->
<g id="node3" class="node">
<title>V74877</title>
<polygon fill="black" stroke="transparent" points="0,-396 0,-406 84,-406 84,-396 0,-396"/>
<text text-anchor="start" x="28.21" y="-398.6" font-family="Work Sans" font-size="8.00" fill="white">V74877</text>
<polygon fill="black" stroke="transparent" points="0,-386 0,-396 23,-396 23,-386 0,-386"/>
<text text-anchor="start" x="0.61" y="-388.6" font-family="Work Sans" font-size="8.00" fill="white">BARE</text>
<polygon fill="black" stroke="transparent" points="23,-386 23,-396 84,-396 84,-386 23,-386"/>
<text text-anchor="start" x="29.49" y="-388.6" font-family="Work Sans" font-size="8.00" fill="white">ont::COFFEE</text>
<polygon fill="black" stroke="transparent" points="0,-376 0,-386 23,-386 23,-376 0,-376"/>
<text text-anchor="start" x="6.39" y="-378.6" font-family="Work Sans" font-size="8.00" fill="white">lex</text>
<polygon fill="black" stroke="transparent" points="23,-376 23,-386 84,-386 84,-376 23,-376"/>
<text text-anchor="start" x="37.28" y="-378.6" font-family="Work Sans" font-size="8.00" fill="white">COFFEE</text>
<polygon fill="black" stroke="transparent" points="0,-366 0,-376 23,-376 23,-366 0,-366"/>
<text text-anchor="start" x="6.39" y="-368.6" font-family="Work Sans" font-size="8.00" fill="white">wn</text>
<polygon fill="black" stroke="transparent" points="23,-366 23,-376 84,-376 84,-366 23,-366"/>
<text text-anchor="start" x="23.55" y="-368.6" font-family="Work Sans" font-size="8.00" fill="white">coffee%1:13:00::</text>
<polygon fill="black" stroke="transparent" points="0,-356 0,-366 23,-366 23,-356 0,-356"/>
<text text-anchor="start" x="2.83" y="-358.6" font-family="Work Sans" font-size="8.00" fill="white">span</text>
<polygon fill="black" stroke="transparent" points="23,-356 23,-366 84,-366 84,-356 23,-356"/>
<text text-anchor="start" x="44.16" y="-358.6" font-family="Work Sans" font-size="8.00" fill="white">(1, 8)</text>
</g>
<!-- V74896&#45;&gt;V74877 -->
<g id="edge7" class="edge">
<title>V74896&#45;&gt;V74877</title>
<path fill="none" stroke="black" d="M55.57,-544C54.03,-531.51 52.06,-514.8 50.66,-500 48,-471.98 45.71,-440.15 44.15,-416.62"/>
<polygon fill="black" stroke="black" points="47.63,-416.18 43.49,-406.43 40.64,-416.64 47.63,-416.18"/>
<text text-anchor="middle" x="69.67" y="-472.6" font-family="Work Sans" font-size="8.00">NEUTRAL</text>
</g>
<!-- V74912 -->
<g id="node4" class="node">
<title>V74912</title>
<polygon fill="black" stroke="transparent" points="97,-490 97,-500 171,-500 171,-490 97,-490"/>
<text text-anchor="start" x="120.21" y="-492.6" font-family="Work Sans" font-size="8.00" fill="white">V74912</text>
<polygon fill="black" stroke="transparent" points="97,-480 97,-490 116,-490 116,-480 97,-480"/>
<text text-anchor="start" x="104.06" y="-482.6" font-family="Work Sans" font-size="8.00" fill="white">F</text>
<polygon fill="black" stroke="transparent" points="116,-480 116,-490 171,-490 171,-480 116,-480"/>
<text text-anchor="start" x="118.45" y="-482.6" font-family="Work Sans" font-size="8.00" fill="white">ont::MAX&#45;VAL</text>
<polygon fill="black" stroke="transparent" points="97,-470 97,-480 116,-480 116,-470 97,-470"/>
<text text-anchor="start" x="101.39" y="-472.6" font-family="Work Sans" font-size="8.00" fill="white">lex</text>
<polygon fill="black" stroke="transparent" points="116,-470 116,-480 171,-480 171,-470 116,-470"/>
<text text-anchor="start" x="133.05" y="-472.6" font-family="Work Sans" font-size="8.00" fill="white">BEST</text>
<polygon fill="black" stroke="transparent" points="97,-460 97,-470 116,-470 116,-460 97,-460"/>
<text text-anchor="start" x="101.39" y="-462.6" font-family="Work Sans" font-size="8.00" fill="white">wn</text>
<polygon fill="black" stroke="transparent" points="116,-460 116,-470 171,-470 171,-460 116,-460"/>
<text text-anchor="start" x="116.81" y="-462.6" font-family="Work Sans" font-size="8.00" fill="white">best%3:00:00::</text>
<polygon fill="black" stroke="transparent" points="97,-450 97,-460 116,-460 116,-450 97,-450"/>
<text text-anchor="start" x="97.83" y="-452.6" font-family="Work Sans" font-size="8.00" fill="white">span</text>
<polygon fill="black" stroke="transparent" points="116,-450 116,-460 171,-460 171,-450 116,-450"/>
<text text-anchor="start" x="130.01" y="-452.6" font-family="Work Sans" font-size="8.00" fill="white">(11, 45)</text>
</g>
<!-- V74896&#45;&gt;V74912 -->
<g id="edge1" class="edge">
<title>V74896&#45;&gt;V74912</title>
<path fill="none" stroke="black" d="M74.87,-543.69C84.05,-533.18 95.65,-519.9 106.14,-507.9"/>
<polygon fill="black" stroke="black" points="108.89,-510.07 112.83,-500.23 103.61,-505.46 108.89,-510.07"/>
<text text-anchor="middle" x="112.67" y="-519.6" font-family="Work Sans" font-size="8.00">FORMAL</text>
</g>
<!-- V74912&#45;&gt;V74877 -->
<g id="edge5" class="edge">
<title>V74912&#45;&gt;V74877</title>
<path fill="none" stroke="black" d="M109.83,-449.83C98.63,-438.63 85.18,-425.18 73.23,-413.23"/>
<polygon fill="black" stroke="black" points="75.56,-410.61 66.01,-406.01 70.61,-415.56 75.56,-410.61"/>
<text text-anchor="middle" x="106.11" y="-425.6" font-family="Work Sans" font-size="8.00">FIGURE</text>
</g>
<!-- V75211 -->
<g id="node5" class="node">
<title>V75211</title>
<polygon fill="black" stroke="transparent" points="103,-391 103,-401 238,-401 238,-391 103,-391"/>
<text text-anchor="start" x="157" y="-393.6" font-family="Work Sans" font-size="8.00" fill="white">V75211</text>
<polygon fill="black" stroke="transparent" points="103,-381 103,-391 122,-391 122,-381 103,-381"/>
<text text-anchor="start" x="110.06" y="-383.6" font-family="Work Sans" font-size="8.00" fill="white">F</text>
<polygon fill="black" stroke="transparent" points="122,-381 122,-391 238,-391 238,-381 122,-381"/>
<text text-anchor="start" x="122.88" y="-383.6" font-family="Work Sans" font-size="8.00" fill="white">ont::STATE&#45;RESULTING&#45;FROM</text>
<polygon fill="black" stroke="transparent" points="103,-371 103,-381 122,-381 122,-371 103,-371"/>
<text text-anchor="start" x="107.39" y="-373.6" font-family="Work Sans" font-size="8.00" fill="white">lex</text>
<polygon fill="black" stroke="transparent" points="122,-371 122,-381 238,-381 238,-371 122,-371"/>
<text text-anchor="start" x="163.62" y="-373.6" font-family="Work Sans" font-size="8.00" fill="white">SERVED</text>
<polygon fill="black" stroke="transparent" points="103,-361 103,-371 122,-371 122,-361 103,-361"/>
<text text-anchor="start" x="103.83" y="-363.6" font-family="Work Sans" font-size="8.00" fill="white">span</text>
<polygon fill="black" stroke="transparent" points="122,-361 122,-371 238,-371 238,-361 122,-361"/>
<text text-anchor="start" x="166.21" y="-363.6" font-family="Work Sans" font-size="8.00" fill="white">(16, 45)</text>
</g>
<!-- V74912&#45;&gt;V75211 -->
<g id="edge10" class="edge">
<title>V74912&#45;&gt;V75211</title>
<path fill="none" stroke="black" d="M143.46,-449.83C148.16,-437.81 153.87,-423.21 158.79,-410.64"/>
<polygon fill="black" stroke="black" points="162.15,-411.67 162.53,-401.08 155.63,-409.12 162.15,-411.67"/>
<text text-anchor="middle" x="163.33" y="-425.6" font-family="Work Sans" font-size="8.00">MOD</text>
</g>
<!-- V74917 -->
<g id="node6" class="node">
<title>V74917</title>
<polygon fill="black" stroke="transparent" points="131,-302 131,-312 209,-312 209,-302 131,-302"/>
<text text-anchor="start" x="156.21" y="-304.6" font-family="Work Sans" font-size="8.00" fill="white">V74917</text>
<polygon fill="black" stroke="transparent" points="131,-292 131,-302 150,-302 150,-292 131,-292"/>
<text text-anchor="start" x="138.06" y="-294.6" font-family="Work Sans" font-size="8.00" fill="white">F</text>
<polygon fill="black" stroke="transparent" points="150,-292 150,-302 209,-302 209,-292 150,-292"/>
<text text-anchor="start" x="156.23" y="-294.6" font-family="Work Sans" font-size="8.00" fill="white">ont::SUPPLY</text>
<polygon fill="black" stroke="transparent" points="131,-282 131,-292 150,-292 150,-282 131,-282"/>
<text text-anchor="start" x="135.39" y="-284.6" font-family="Work Sans" font-size="8.00" fill="white">lex</text>
<polygon fill="black" stroke="transparent" points="150,-282 150,-292 209,-292 209,-282 150,-282"/>
<text text-anchor="start" x="166.01" y="-284.6" font-family="Work Sans" font-size="8.00" fill="white">SERVE</text>
<polygon fill="black" stroke="transparent" points="131,-272 131,-282 150,-282 150,-272 131,-272"/>
<text text-anchor="start" x="135.39" y="-274.6" font-family="Work Sans" font-size="8.00" fill="white">wn</text>
<polygon fill="black" stroke="transparent" points="150,-272 150,-282 209,-282 209,-272 150,-272"/>
<text text-anchor="start" x="150.59" y="-274.6" font-family="Work Sans" font-size="8.00" fill="white">serve%2:34:01::</text>
<polygon fill="black" stroke="transparent" points="131,-262 131,-272 150,-272 150,-262 131,-262"/>
<text text-anchor="start" x="131.83" y="-264.6" font-family="Work Sans" font-size="8.00" fill="white">span</text>
<polygon fill="black" stroke="transparent" points="150,-262 150,-272 209,-272 209,-262 150,-262"/>
<text text-anchor="start" x="165.71" y="-264.6" font-family="Work Sans" font-size="8.00" fill="white">(16, 45)</text>
</g>
<!-- V75211&#45;&gt;V74917 -->
<g id="edge2" class="edge">
<title>V75211&#45;&gt;V74917</title>
<path fill="none" stroke="black" d="M170,-360.94C170,-349.81 170,-335.43 170,-322.38"/>
<polygon fill="black" stroke="black" points="173.5,-322.3 170,-312.3 166.5,-322.3 173.5,-322.3"/>
<text text-anchor="middle" x="187.78" y="-331.6" font-family="Work Sans" font-size="8.00">GROUND</text>
</g>
<!-- V74923 -->
<g id="node7" class="node">
<title>V74923</title>
<polygon fill="black" stroke="transparent" points="134,-208 134,-218 207,-218 207,-208 134,-208"/>
<text text-anchor="start" x="156.71" y="-210.6" font-family="Work Sans" font-size="8.00" fill="white">V74923</text>
<polygon fill="black" stroke="transparent" points="134,-198 134,-208 153,-208 153,-198 134,-198"/>
<text text-anchor="start" x="141.06" y="-200.6" font-family="Work Sans" font-size="8.00" fill="white">F</text>
<polygon fill="black" stroke="transparent" points="153,-198 153,-208 207,-208 207,-198 153,-198"/>
<text text-anchor="start" x="153.55" y="-200.6" font-family="Work Sans" font-size="8.00" fill="white">ont::WITHOUT</text>
<polygon fill="black" stroke="transparent" points="134,-188 134,-198 153,-198 153,-188 134,-188"/>
<text text-anchor="start" x="138.39" y="-190.6" font-family="Work Sans" font-size="8.00" fill="white">lex</text>
<polygon fill="black" stroke="transparent" points="153,-188 153,-198 207,-198 207,-188 153,-188"/>
<text text-anchor="start" x="161.34" y="-190.6" font-family="Work Sans" font-size="8.00" fill="white">WITHOUT</text>
<polygon fill="black" stroke="transparent" points="134,-178 134,-188 153,-188 153,-178 134,-178"/>
<text text-anchor="start" x="134.83" y="-180.6" font-family="Work Sans" font-size="8.00" fill="white">span</text>
<polygon fill="black" stroke="transparent" points="153,-178 153,-188 207,-188 207,-178 153,-178"/>
<text text-anchor="start" x="166.21" y="-180.6" font-family="Work Sans" font-size="8.00" fill="white">(23, 45)</text>
</g>
<!-- V74917&#45;&gt;V74923 -->
<g id="edge8" class="edge">
<title>V74917&#45;&gt;V74923</title>
<path fill="none" stroke="black" d="M151.47,-261.89C147.37,-253.85 144.88,-244.71 147.34,-236 148.19,-232.98 149.36,-229.96 150.73,-227.03"/>
<polygon fill="black" stroke="black" points="153.92,-228.49 155.62,-218.03 147.77,-225.15 153.92,-228.49"/>
<text text-anchor="middle" x="157.33" y="-237.6" font-family="Work Sans" font-size="8.00">MOD</text>
</g>
<!-- V74923&#45;&gt;V74917 -->
<g id="edge3" class="edge">
<title>V74923&#45;&gt;V74917</title>
<path fill="none" stroke="black" d="M170,-218.15C170,-227.97 170,-240.25 170,-251.64"/>
<polygon fill="black" stroke="black" points="166.5,-251.77 170,-261.77 173.5,-251.77 166.5,-251.77"/>
<text text-anchor="middle" x="185.11" y="-237.6" font-family="Work Sans" font-size="8.00">FIGURE</text>
</g>
<!-- V74948 -->
<g id="node8" class="node">
<title>V74948</title>
<polygon fill="black" stroke="transparent" points="126,-124 126,-134 214,-134 214,-124 126,-124"/>
<text text-anchor="start" x="156.21" y="-126.6" font-family="Work Sans" font-size="8.00" fill="white">V74948</text>
<polygon fill="black" stroke="transparent" points="126,-114 126,-124 149,-124 149,-114 126,-114"/>
<text text-anchor="start" x="126.61" y="-116.6" font-family="Work Sans" font-size="8.00" fill="white">BARE</text>
<polygon fill="black" stroke="transparent" points="149,-114 149,-124 214,-124 214,-114 149,-114"/>
<text text-anchor="start" x="149.56" y="-116.6" font-family="Work Sans" font-size="8.00" fill="white">ont::SUBSTANCE</text>
<polygon fill="black" stroke="transparent" points="126,-104 126,-114 149,-114 149,-104 126,-104"/>
<text text-anchor="start" x="132.39" y="-106.6" font-family="Work Sans" font-size="8.00" fill="white">lex</text>
<polygon fill="black" stroke="transparent" points="149,-104 149,-114 214,-114 214,-104 149,-104"/>
<text text-anchor="start" x="175.5" y="-106.6" font-family="Work Sans" font-size="8.00" fill="white">OR</text>
<polygon fill="black" stroke="transparent" points="126,-94 126,-104 149,-104 149,-94 126,-94"/>
<text text-anchor="start" x="128.83" y="-96.6" font-family="Work Sans" font-size="8.00" fill="white">span</text>
<polygon fill="black" stroke="transparent" points="149,-94 149,-104 214,-104 214,-94 149,-94"/>
<text text-anchor="start" x="167.71" y="-96.6" font-family="Work Sans" font-size="8.00" fill="white">(31, 45)</text>
</g>
<!-- V74923&#45;&gt;V74948 -->
<g id="edge11" class="edge">
<title>V74923&#45;&gt;V74948</title>
<path fill="none" stroke="black" d="M170,-177.98C170,-168.01 170,-155.59 170,-144.41"/>
<polygon fill="black" stroke="black" points="173.5,-144.2 170,-134.2 166.5,-144.2 173.5,-144.2"/>
<text text-anchor="middle" x="187.78" y="-153.6" font-family="Work Sans" font-size="8.00">GROUND</text>
</g>
<!-- V74959 -->
<g id="node9" class="node">
<title>V74959</title>
<polygon fill="black" stroke="transparent" points="54,-40 54,-50 158,-50 158,-40 54,-40"/>
<text text-anchor="start" x="92.21" y="-42.6" font-family="Work Sans" font-size="8.00" fill="white">V74959</text>
<polygon fill="black" stroke="transparent" points="54,-30 54,-40 98,-40 98,-30 54,-30"/>
<text text-anchor="start" x="54.89" y="-32.6" font-family="Work Sans" font-size="8.00" fill="white">INDEF&#45;SET</text>
<polygon fill="black" stroke="transparent" points="98,-30 98,-40 158,-40 158,-30 98,-30"/>
<text text-anchor="start" x="105.99" y="-32.6" font-family="Work Sans" font-size="8.00" fill="white">ont::SUGAR</text>
<polygon fill="black" stroke="transparent" points="54,-20 54,-30 98,-30 98,-20 54,-20"/>
<text text-anchor="start" x="70.89" y="-22.6" font-family="Work Sans" font-size="8.00" fill="white">lex</text>
<polygon fill="black" stroke="transparent" points="98,-20 98,-30 158,-30 158,-20 98,-20"/>
<text text-anchor="start" x="113.78" y="-22.6" font-family="Work Sans" font-size="8.00" fill="white">SUGAR</text>
<polygon fill="black" stroke="transparent" points="54,-10 54,-20 98,-20 98,-10 54,-10"/>
<text text-anchor="start" x="70.89" y="-12.6" font-family="Work Sans" font-size="8.00" fill="white">wn</text>
<polygon fill="black" stroke="transparent" points="98,-10 98,-20 158,-20 158,-10 98,-10"/>
<text text-anchor="start" x="98.87" y="-12.6" font-family="Work Sans" font-size="8.00" fill="white">sugar%1:13:00::</text>
<polygon fill="black" stroke="transparent" points="54,0 54,-10 98,-10 98,0 54,0"/>
<text text-anchor="start" x="67.33" y="-2.6" font-family="Work Sans" font-size="8.00" fill="white">span</text>
<polygon fill="black" stroke="transparent" points="98,0 98,-10 158,-10 158,0 98,0"/>
<text text-anchor="start" x="114.21" y="-2.6" font-family="Work Sans" font-size="8.00" fill="white">(31, 45)</text>
</g>
<!-- V74948&#45;&gt;V74959 -->
<g id="edge4" class="edge">
<title>V74948&#45;&gt;V74959</title>
<path fill="none" stroke="black" d="M155.8,-93.69C148.21,-83.38 138.67,-70.41 129.97,-58.59"/>
<polygon fill="black" stroke="black" points="132.57,-56.22 123.83,-50.23 126.93,-60.36 132.57,-56.22"/>
<text text-anchor="middle" x="166.67" y="-69.6" font-family="Work Sans" font-size="8.00">SEQUENCE1</text>
</g>
<!-- V74944 -->
<g id="node10" class="node">
<title>V74944</title>
<polygon fill="black" stroke="transparent" points="176,-40 176,-50 292,-50 292,-40 176,-40"/>
<text text-anchor="start" x="220.21" y="-42.6" font-family="Work Sans" font-size="8.00" fill="white">V74944</text>
<polygon fill="black" stroke="transparent" points="176,-30 176,-40 220,-40 220,-30 176,-30"/>
<text text-anchor="start" x="176.89" y="-32.6" font-family="Work Sans" font-size="8.00" fill="white">INDEF&#45;SET</text>
<polygon fill="black" stroke="transparent" points="220,-30 220,-40 292,-40 292,-30 220,-30"/>
<text text-anchor="start" x="224.06" y="-32.6" font-family="Work Sans" font-size="8.00" fill="white">ont::SUBSTANCE</text>
<polygon fill="black" stroke="transparent" points="176,-20 176,-30 220,-30 220,-20 176,-20"/>
<text text-anchor="start" x="192.89" y="-22.6" font-family="Work Sans" font-size="8.00" fill="white">lex</text>
<polygon fill="black" stroke="transparent" points="220,-20 220,-30 292,-30 292,-20 220,-20"/>
<text text-anchor="start" x="241.55" y="-22.6" font-family="Work Sans" font-size="8.00" fill="white">CREAM</text>
<polygon fill="black" stroke="transparent" points="176,-10 176,-20 220,-20 220,-10 176,-10"/>
<text text-anchor="start" x="192.89" y="-12.6" font-family="Work Sans" font-size="8.00" fill="white">wn</text>
<polygon fill="black" stroke="transparent" points="220,-10 220,-20 292,-20 292,-10 220,-10"/>
<text text-anchor="start" x="220.86" y="-12.6" font-family="Work Sans" font-size="8.00" fill="white">substance%1:03:00</text>
<polygon fill="black" stroke="transparent" points="176,0 176,-10 220,-10 220,0 176,0"/>
<text text-anchor="start" x="189.33" y="-2.6" font-family="Work Sans" font-size="8.00" fill="white">span</text>
<polygon fill="black" stroke="transparent" points="220,0 220,-10 292,-10 292,0 220,0"/>
<text text-anchor="start" x="242.21" y="-2.6" font-family="Work Sans" font-size="8.00" fill="white">(31, 45)</text>
</g>
<!-- V74948&#45;&gt;V74944 -->
<g id="edge6" class="edge">
<title>V74948&#45;&gt;V74944</title>
<path fill="none" stroke="black" d="M184.2,-93.69C191.79,-83.38 201.33,-70.41 210.03,-58.59"/>
<polygon fill="black" stroke="black" points="213.07,-60.36 216.17,-50.23 207.43,-56.22 213.07,-60.36"/>
<text text-anchor="middle" x="224.45" y="-69.6" font-family="Work Sans" font-size="8.00">SEQUENCE</text>
</g>
</g>
</svg>
