<?xml version="1.0" encoding="UTF-8" standalone="no"?>
<!DOCTYPE svg PUBLIC "-//W3C//DTD SVG 1.1//EN"
 "http://www.w3.org/Graphics/SVG/1.1/DTD/svg11.dtd">
<!-- Generated by graphviz version 2.43.0 (0)
 -->
<!-- Title: graph Pages: 1 -->
<svg width="494pt" height="484pt"
 viewBox="0.00 0.00 494.14 484.00" xmlns="http://www.w3.org/2000/svg" xmlns:xlink="http://www.w3.org/1999/xlink">
<g id="graph0" class="graph" transform="scale(1 1) rotate(0) translate(4 480)">
<title>graph</title>
<polygon fill="white" stroke="transparent" points="-4,4 -4,-480 490.14,-480 490.14,4 -4,4"/>
<!-- V161735 -->
<g id="node1" class="node">
<title>V161735</title>
<g id="a_node1"><a xlink:href="http://trips.ihmc.us/lexicon/data/ONT::SA_TELL.xml" xlink:title="&lt;font color=&quot;green&quot;&gt;&lt;br /&gt;&lt;/font&gt; &lt;font color=&quot;black&quot;&gt;SA_TELL&lt;/font&gt; &lt;font color=&quot;green&quot;&gt;&lt;br /&gt;&lt;/font&gt; &lt;font color=&quot;red&quot;&gt;SPEECHACT&lt;/font&gt; &lt;font color=&quot;blue&quot;&gt;* &lt;/font&gt; &lt;font color=&quot;green&quot;&gt;&lt;br /&gt; &lt;/font&gt;">
<text text-anchor="start" x="320.35" y="-462.6" font-family="Work Sans" font-size="8.00"> </text>
<text text-anchor="start" x="322.58" y="-462.6" font-family="Work Sans" font-size="8.00">SA_TELL</text>
<text text-anchor="start" x="356.82" y="-462.6" font-family="Work Sans" font-size="8.00"> </text>
<text text-anchor="start" x="309.25" y="-454.6" font-family="Work Sans" font-size="8.00"> </text>
<text text-anchor="start" x="311.47" y="-454.6" font-family="Work Sans" font-size="8.00" fill="red">SPEECHACT</text>
<text text-anchor="start" x="360.37" y="-454.6" font-family="Work Sans" font-size="8.00"> </text>
<text text-anchor="start" x="362.59" y="-454.6" font-family="Work Sans" font-size="8.00" fill="blue">* </text>
<text text-anchor="start" x="367.93" y="-454.6" font-family="Work Sans" font-size="8.00"> </text>
<text text-anchor="start" x="338.59" y="-446.6" font-family="Work Sans" font-size="8.00" fill="green"> </text>
</a>
</g>
</g>
<!-- V161690 -->
<g id="node2" class="node">
<title>V161690</title>
<g id="a_node2"><a xlink:href="http://trips.ihmc.us/lexicon/data/ONT::COMMUNICATION.xml" xlink:title="&lt;font color=&quot;green&quot;&gt;&lt;br /&gt;&lt;/font&gt; &lt;font color=&quot;black&quot;&gt;COMMUNICATION&lt;/font&gt; &lt;font color=&quot;green&quot;&gt;&lt;br /&gt;&lt;/font&gt; &lt;font color=&quot;red&quot;&gt;F&lt;/font&gt; &lt;font color=&quot;blue&quot;&gt;* &lt;/font&gt; &lt;font color=&quot;green&quot;&gt;&lt;br /&gt; &lt;/font&gt;">
<text text-anchor="start" x="303.11" y="-386.6" font-family="Work Sans" font-size="8.00"> </text>
<text text-anchor="start" x="305.33" y="-386.6" font-family="Work Sans" font-size="8.00">COMMUNICATION</text>
<text text-anchor="start" x="374.07" y="-386.6" font-family="Work Sans" font-size="8.00"> </text>
<text text-anchor="start" x="331.25" y="-378.6" font-family="Work Sans" font-size="8.00"> </text>
<text text-anchor="start" x="333.48" y="-378.6" font-family="Work Sans" font-size="8.00" fill="red">F</text>
<text text-anchor="start" x="338.36" y="-378.6" font-family="Work Sans" font-size="8.00"> </text>
<text text-anchor="start" x="340.59" y="-378.6" font-family="Work Sans" font-size="8.00" fill="blue">* </text>
<text text-anchor="start" x="345.92" y="-378.6" font-family="Work Sans" font-size="8.00"> </text>
<text text-anchor="start" x="338.59" y="-370.6" font-family="Work Sans" font-size="8.00" fill="green"> </text>
</a>
</g>
</g>
<!-- V161735&#45;&gt;V161690 -->
<g id="edge4" class="edge">
<title>V161735&#45;&gt;V161690</title>
<path fill="none" stroke="grey" stroke-width="0.5" d="M339.7,-443.67C339.7,-432.58 339.7,-417.49 339.7,-405.38"/>
<polygon fill="grey" stroke="grey" stroke-width="0.5" points="341.45,-405.06 339.7,-400.06 337.95,-405.06 341.45,-405.06"/>
<text text-anchor="middle" x="363.41" y="-419.6" font-family="Work Sans" font-size="8.00"> CONTENT &#160;&#160;</text>
</g>
<!-- V161165 -->
<g id="node3" class="node">
<title>V161165</title>
<g id="a_node3"><a xlink:href="http://trips.ihmc.us/lexicon/data/ONT::ASK.xml" xlink:title="&lt;font color=&quot;green&quot;&gt;&lt;br /&gt;&lt;/font&gt; &lt;font color=&quot;black&quot;&gt;ASK&lt;/font&gt; &lt;font color=&quot;green&quot;&gt;&lt;br /&gt;&lt;/font&gt; &lt;font color=&quot;red&quot;&gt;F&lt;/font&gt; &lt;font color=&quot;blue&quot;&gt;ASK&lt;/font&gt; &lt;font color=&quot;green&quot;&gt;&lt;br /&gt;&lt;/font&gt; &lt;font color=&quot;green&quot;&gt;ask%2:32:00::&lt;/font&gt; &lt;font color=&quot;green&quot;&gt;&lt;br /&gt; &lt;/font&gt;">
<polygon fill="pink" stroke="transparent" stroke-width="0.5" points="45.05,-284 72.7,-284 72.7,-324 45.05,-324 45.05,-284"/>
<polygon fill="lightblue" stroke="transparent" stroke-width="0.5" points="72.7,-284 100.34,-284 100.34,-324 72.7,-324 72.7,-284"/>
<polygon fill="none" stroke="transparent" points="100.34,-324 45.05,-324 45.05,-284 100.34,-284 100.34,-324"/>
<text text-anchor="start" x="62.47" y="-310.6" font-family="Work Sans" font-size="8.00"> </text>
<text text-anchor="start" x="64.69" y="-310.6" font-family="Work Sans" font-size="8.00">ASK</text>
<text text-anchor="start" x="80.7" y="-310.6" font-family="Work Sans" font-size="8.00"> </text>
<text text-anchor="start" x="58.92" y="-302.6" font-family="Work Sans" font-size="8.00"> </text>
<text text-anchor="start" x="61.14" y="-302.6" font-family="Work Sans" font-size="8.00" fill="red">F</text>
<text text-anchor="start" x="66.03" y="-302.6" font-family="Work Sans" font-size="8.00"> </text>
<text text-anchor="start" x="68.25" y="-302.6" font-family="Work Sans" font-size="8.00" fill="blue">ASK</text>
<text text-anchor="start" x="84.26" y="-302.6" font-family="Work Sans" font-size="8.00"> </text>
<text text-anchor="start" x="45.13" y="-294.6" font-family="Work Sans" font-size="8.00"> </text>
<text text-anchor="start" x="47.35" y="-294.6" font-family="Work Sans" font-size="8.00" fill="green">ask%2:32:00::</text>
<text text-anchor="start" x="98.05" y="-294.6" font-family="Work Sans" font-size="8.00"> </text>
<text text-anchor="start" x="71.59" y="-286.6" font-family="Work Sans" font-size="8.00" fill="green"> </text>
</a>
</g>
</g>
<!-- V161690&#45;&gt;V161165 -->
<g id="edge22" class="edge">
<title>V161690&#45;&gt;V161165</title>
<path fill="none" stroke="grey" stroke-width="0.5" d="M302.85,-372.24C250.57,-356.96 155.67,-329.24 105.62,-314.62"/>
<polygon fill="grey" stroke="grey" stroke-width="0.5" points="105.92,-312.88 100.63,-313.16 104.94,-316.24 105.92,-312.88"/>
<text text-anchor="middle" x="251.82" y="-343.6" font-family="Work Sans" font-size="8.00"> SEQUENCE1 &#160;&#160;</text>
</g>
<!-- V161101 -->
<g id="node4" class="node">
<title>V161101</title>
<g id="a_node4"><a xlink:href="http://trips.ihmc.us/lexicon/data/ONT::HIGHLIGHT.xml" xlink:title="&lt;font color=&quot;green&quot;&gt;&lt;br /&gt;&lt;/font&gt; &lt;font color=&quot;black&quot;&gt;HIGHLIGHT&lt;/font&gt; &lt;font color=&quot;green&quot;&gt;&lt;br /&gt;&lt;/font&gt; &lt;font color=&quot;red&quot;&gt;F&lt;/font&gt; &lt;font color=&quot;blue&quot;&gt;FLAG&lt;/font&gt; &lt;font color=&quot;green&quot;&gt;&lt;br /&gt;&lt;/font&gt; &lt;font color=&quot;green&quot;&gt;flag%2:32:00::&lt;/font&gt; &lt;font color=&quot;green&quot;&gt;&lt;br /&gt; &lt;/font&gt;">
<text text-anchor="start" x="277.7" y="-310.6" font-family="Work Sans" font-size="8.00"> </text>
<text text-anchor="start" x="279.92" y="-310.6" font-family="Work Sans" font-size="8.00">HIGHLIGHT</text>
<text text-anchor="start" x="323.48" y="-310.6" font-family="Work Sans" font-size="8.00"> </text>
<text text-anchor="start" x="285.47" y="-302.6" font-family="Work Sans" font-size="8.00"> </text>
<text text-anchor="start" x="287.7" y="-302.6" font-family="Work Sans" font-size="8.00" fill="red">F</text>
<text text-anchor="start" x="292.58" y="-302.6" font-family="Work Sans" font-size="8.00"> </text>
<text text-anchor="start" x="294.81" y="-302.6" font-family="Work Sans" font-size="8.00" fill="blue">FLAG</text>
<text text-anchor="start" x="315.7" y="-302.6" font-family="Work Sans" font-size="8.00"> </text>
<text text-anchor="start" x="273.9" y="-294.6" font-family="Work Sans" font-size="8.00"> </text>
<text text-anchor="start" x="276.12" y="-294.6" font-family="Work Sans" font-size="8.00" fill="green">flag%2:32:00::</text>
<text text-anchor="start" x="327.27" y="-294.6" font-family="Work Sans" font-size="8.00"> </text>
<text text-anchor="start" x="300.59" y="-286.6" font-family="Work Sans" font-size="8.00" fill="green"> </text>
</a>
</g>
</g>
<!-- V161690&#45;&gt;V161101 -->
<g id="edge12" class="edge">
<title>V161690&#45;&gt;V161101</title>
<path fill="none" stroke="grey" stroke-width="0.5" d="M317.06,-367.87C311.42,-362.89 306.08,-356.85 302.91,-350 299.98,-343.67 298.95,-336.28 298.84,-329.35"/>
<polygon fill="grey" stroke="grey" stroke-width="0.5" points="300.6,-329.18 298.93,-324.16 297.1,-329.13 300.6,-329.18"/>
<text text-anchor="middle" x="330.59" y="-343.6" font-family="Work Sans" font-size="8.00"> SEQUENCE &#160;&#160;</text>
</g>
<!-- V161019 -->
<g id="node5" class="node">
<title>V161019</title>
<g id="a_node5"><a xlink:href="http://trips.ihmc.us/lexicon/data/ONT::WHEN-WHILE.xml" xlink:title="&lt;font color=&quot;green&quot;&gt;&lt;br /&gt;&lt;/font&gt; &lt;font color=&quot;black&quot;&gt;WHEN&#45;WHILE&lt;/font&gt; &lt;font color=&quot;green&quot;&gt;&lt;br /&gt;&lt;/font&gt; &lt;font color=&quot;red&quot;&gt;F&lt;/font&gt; &lt;font color=&quot;blue&quot;&gt;WHEN&lt;/font&gt; &lt;font color=&quot;green&quot;&gt;&lt;br /&gt; &lt;/font&gt;">
<text text-anchor="start" x="401.26" y="-306.6" font-family="Work Sans" font-size="8.00"> </text>
<text text-anchor="start" x="403.48" y="-306.6" font-family="Work Sans" font-size="8.00">WHEN&#45;WHILE</text>
<text text-anchor="start" x="455.92" y="-306.6" font-family="Work Sans" font-size="8.00"> </text>
<text text-anchor="start" x="411.7" y="-298.6" font-family="Work Sans" font-size="8.00"> </text>
<text text-anchor="start" x="413.92" y="-298.6" font-family="Work Sans" font-size="8.00" fill="red">F</text>
<text text-anchor="start" x="418.81" y="-298.6" font-family="Work Sans" font-size="8.00"> </text>
<text text-anchor="start" x="421.03" y="-298.6" font-family="Work Sans" font-size="8.00" fill="blue">WHEN</text>
<text text-anchor="start" x="445.47" y="-298.6" font-family="Work Sans" font-size="8.00"> </text>
<text text-anchor="start" x="428.59" y="-290.6" font-family="Work Sans" font-size="8.00" fill="green"> </text>
</a>
</g>
</g>
<!-- V161690&#45;&gt;V161019 -->
<g id="edge6" class="edge">
<title>V161690&#45;&gt;V161019</title>
<path fill="none" stroke="grey" stroke-width="0.5" d="M351.59,-367.76C358.28,-359.67 367.03,-349.8 375.84,-342 383.43,-335.27 392.29,-328.73 400.61,-323.06"/>
<polygon fill="grey" stroke="grey" stroke-width="0.5" points="401.99,-324.25 405.16,-320.01 400.04,-321.34 401.99,-324.25"/>
<text text-anchor="middle" x="390.63" y="-343.6" font-family="Work Sans" font-size="8.00"> TIME &#160;&#160;</text>
</g>
<!-- V161096 -->
<g id="node8" class="node">
<title>V161096</title>
<g id="a_node8"><a xlink:href="http://trips.ihmc.us/lexicon/data/ONT::MALE-PERSON.xml" xlink:title="&lt;font color=&quot;green&quot;&gt;&lt;br /&gt;&lt;/font&gt; &lt;font color=&quot;black&quot;&gt;MALE&#45;PERSON&lt;/font&gt; &lt;font color=&quot;green&quot;&gt;&lt;br /&gt;&lt;/font&gt; &lt;font color=&quot;red&quot;&gt;PRO&lt;/font&gt; &lt;font color=&quot;blue&quot;&gt;HE&lt;/font&gt; &lt;font color=&quot;green&quot;&gt;&lt;br /&gt;&lt;/font&gt; &lt;font color=&quot;green&quot;&gt;man%1:18:00&lt;/font&gt; &lt;font color=&quot;green&quot;&gt;&lt;br /&gt; &lt;/font&gt;">
<text text-anchor="start" x="170.36" y="-226.6" font-family="Work Sans" font-size="8.00"> </text>
<text text-anchor="start" x="172.58" y="-226.6" font-family="Work Sans" font-size="8.00">MALE&#45;PERSON</text>
<text text-anchor="start" x="230.82" y="-226.6" font-family="Work Sans" font-size="8.00"> </text>
<text text-anchor="start" x="184.14" y="-218.6" font-family="Work Sans" font-size="8.00"> </text>
<text text-anchor="start" x="186.36" y="-218.6" font-family="Work Sans" font-size="8.00" fill="red">PRO</text>
<text text-anchor="start" x="203.7" y="-218.6" font-family="Work Sans" font-size="8.00"> </text>
<text text-anchor="start" x="205.92" y="-218.6" font-family="Work Sans" font-size="8.00" fill="blue">HE</text>
<text text-anchor="start" x="217.03" y="-218.6" font-family="Work Sans" font-size="8.00"> </text>
<text text-anchor="start" x="174.79" y="-210.6" font-family="Work Sans" font-size="8.00"> </text>
<text text-anchor="start" x="177.02" y="-210.6" font-family="Work Sans" font-size="8.00" fill="green">man%1:18:00</text>
<text text-anchor="start" x="226.38" y="-210.6" font-family="Work Sans" font-size="8.00"> </text>
<text text-anchor="start" x="200.59" y="-202.6" font-family="Work Sans" font-size="8.00" fill="green"> </text>
</a>
</g>
</g>
<!-- V161165&#45;&gt;V161096 -->
<g id="edge17" class="edge">
<title>V161165&#45;&gt;V161096</title>
<path fill="none" stroke="grey" stroke-width="0.5" d="M100.37,-285.41C119.86,-273.02 146.1,-256.34 166.99,-243.06"/>
<polygon fill="grey" stroke="grey" stroke-width="0.5" points="168.09,-244.44 171.37,-240.28 166.21,-241.49 168.09,-244.44"/>
<text text-anchor="middle" x="159.63" y="-259.6" font-family="Work Sans" font-size="8.00"> AGENT &#160;&#160;</text>
</g>
<!-- V161178 -->
<g id="node11" class="node">
<title>V161178</title>
<g id="a_node11"><a xlink:href="http://trips.ihmc.us/lexicon/data/ONT::REFERENTIAL-SEM.xml" xlink:title="&lt;font color=&quot;green&quot;&gt;&lt;br /&gt;&lt;/font&gt; &lt;font color=&quot;black&quot;&gt;REFERENTIAL&#45;SEM&lt;/font&gt; &lt;font color=&quot;green&quot;&gt;&lt;br /&gt;&lt;/font&gt; &lt;font color=&quot;red&quot;&gt;PRO&lt;/font&gt; &lt;font color=&quot;blue&quot;&gt;IT&lt;/font&gt; &lt;font color=&quot;green&quot;&gt;&lt;br /&gt;&lt;/font&gt; &lt;font color=&quot;green&quot;&gt;entity%1:03:00&lt;/font&gt; &lt;font color=&quot;green&quot;&gt;&lt;br /&gt; &lt;/font&gt;">
<text text-anchor="start" x="66.92" y="-110.6" font-family="Work Sans" font-size="8.00"> </text>
<text text-anchor="start" x="69.14" y="-110.6" font-family="Work Sans" font-size="8.00">REFERENTIAL&#45;SEM</text>
<text text-anchor="start" x="144.26" y="-110.6" font-family="Work Sans" font-size="8.00"> </text>
<text text-anchor="start" x="91.14" y="-102.6" font-family="Work Sans" font-size="8.00"> </text>
<text text-anchor="start" x="93.36" y="-102.6" font-family="Work Sans" font-size="8.00" fill="red">PRO</text>
<text text-anchor="start" x="110.7" y="-102.6" font-family="Work Sans" font-size="8.00"> </text>
<text text-anchor="start" x="112.92" y="-102.6" font-family="Work Sans" font-size="8.00" fill="blue">IT</text>
<text text-anchor="start" x="120.03" y="-102.6" font-family="Work Sans" font-size="8.00"> </text>
<text text-anchor="start" x="78.01" y="-94.6" font-family="Work Sans" font-size="8.00"> </text>
<text text-anchor="start" x="80.24" y="-94.6" font-family="Work Sans" font-size="8.00" fill="green">entity%1:03:00</text>
<text text-anchor="start" x="133.16" y="-94.6" font-family="Work Sans" font-size="8.00"> </text>
<text text-anchor="start" x="105.59" y="-86.6" font-family="Work Sans" font-size="8.00" fill="green"> </text>
</a>
</g>
</g>
<!-- V161165&#45;&gt;V161178 -->
<g id="edge5" class="edge">
<title>V161165&#45;&gt;V161178</title>
<path fill="none" stroke="blue" d="M45,-290.44C34.06,-284.36 22.11,-276.14 13.7,-266 -5.26,-243.16 0.89,-229.57 3.48,-200 5.76,-173.92 -2.83,-162.3 13.7,-142 25.73,-127.22 44.53,-118.31 62.08,-112.96"/>
<polygon fill="blue" stroke="blue" points="62.67,-114.61 66.99,-111.54 61.7,-111.25 62.67,-114.61"/>
<text text-anchor="middle" x="4.81" y="-217.6" font-family="Work Sans" font-size="8.00">.</text>
</g>
<!-- V161165&#45;&gt;V161178 -->
<g id="edge11" class="edge">
<title>V161165&#45;&gt;V161178</title>
<path fill="none" stroke="red" d="M57.99,-283.77C49.83,-271.86 40.5,-255.87 36.24,-240 31.63,-222.83 30.66,-216.88 36.24,-200 45.4,-172.27 66.13,-146.02 82.75,-128.18"/>
<polygon fill="red" stroke="red" points="84.28,-129.11 86.44,-124.27 81.74,-126.7 84.28,-129.11"/>
<text text-anchor="middle" x="56.93" y="-217.6" font-family="Work Sans" font-size="8.00"> AGENT1 &#160;&#160;</text>
</g>
<!-- V161217 -->
<g id="node12" class="node">
<title>V161217</title>
<g id="a_node12"><a xlink:href="http://trips.ihmc.us/lexicon/data/ONT::STOP.xml" xlink:title="&lt;font color=&quot;green&quot;&gt;&lt;br /&gt;&lt;/font&gt; &lt;font color=&quot;black&quot;&gt;STOP&lt;/font&gt; &lt;font color=&quot;green&quot;&gt;&lt;br /&gt;&lt;/font&gt; &lt;font color=&quot;red&quot;&gt;F&lt;/font&gt; &lt;font color=&quot;blue&quot;&gt;STOP&lt;/font&gt; &lt;font color=&quot;green&quot;&gt;&lt;br /&gt;&lt;/font&gt; &lt;font color=&quot;green&quot;&gt;stop%2:38:00::&lt;/font&gt; &lt;font color=&quot;green&quot;&gt;&lt;br /&gt; &lt;/font&gt;">
<text text-anchor="start" x="101.66" y="-226.6" font-family="Work Sans" font-size="8.00"> </text>
<text text-anchor="start" x="103.88" y="-226.6" font-family="Work Sans" font-size="8.00">STOP</text>
<text text-anchor="start" x="125.52" y="-226.6" font-family="Work Sans" font-size="8.00"> </text>
<text text-anchor="start" x="98.1" y="-218.6" font-family="Work Sans" font-size="8.00"> </text>
<text text-anchor="start" x="100.32" y="-218.6" font-family="Work Sans" font-size="8.00" fill="red">F</text>
<text text-anchor="start" x="105.21" y="-218.6" font-family="Work Sans" font-size="8.00"> </text>
<text text-anchor="start" x="107.43" y="-218.6" font-family="Work Sans" font-size="8.00" fill="blue">STOP</text>
<text text-anchor="start" x="129.07" y="-218.6" font-family="Work Sans" font-size="8.00"> </text>
<text text-anchor="start" x="85.79" y="-210.6" font-family="Work Sans" font-size="8.00"> </text>
<text text-anchor="start" x="88.01" y="-210.6" font-family="Work Sans" font-size="8.00" fill="green">stop%2:38:00::</text>
<text text-anchor="start" x="141.38" y="-210.6" font-family="Work Sans" font-size="8.00"> </text>
<text text-anchor="start" x="113.59" y="-202.6" font-family="Work Sans" font-size="8.00" fill="green"> </text>
</a>
</g>
</g>
<!-- V161165&#45;&gt;V161217 -->
<g id="edge2" class="edge">
<title>V161165&#45;&gt;V161217</title>
<path fill="none" stroke="blue" d="M66.58,-283.82C65,-275.53 64.67,-265.92 68.48,-258 71.59,-251.53 76.44,-245.83 81.86,-240.97"/>
<polygon fill="blue" stroke="blue" points="82.99,-242.3 85.69,-237.74 80.74,-239.63 82.99,-242.3"/>
<text text-anchor="middle" x="69.81" y="-259.6" font-family="Work Sans" font-size="8.00">.</text>
</g>
<!-- V161165&#45;&gt;V161217 -->
<g id="edge13" class="edge">
<title>V161165&#45;&gt;V161217</title>
<path fill="none" stroke="red" d="M77.19,-283.6C79.47,-275.44 82.65,-266.01 86.77,-258 89.14,-253.38 92.09,-248.74 95.18,-244.39"/>
<polygon fill="red" stroke="red" points="96.75,-245.2 98.29,-240.13 93.92,-243.13 96.75,-245.2"/>
<text text-anchor="middle" x="108.67" y="-259.6" font-family="Work Sans" font-size="8.00"> FORMAL &#160;&#160;</text>
</g>
<!-- V161101&#45;&gt;V161096 -->
<g id="edge15" class="edge">
<title>V161101&#45;&gt;V161096</title>
<path fill="none" stroke="grey" stroke-width="0.5" d="M273.94,-292.88C259.62,-286.69 242.53,-277.69 229.83,-266 223.31,-260.01 217.73,-252.18 213.29,-244.73"/>
<polygon fill="grey" stroke="grey" stroke-width="0.5" points="214.68,-243.63 210.68,-240.16 211.64,-245.37 214.68,-243.63"/>
<text text-anchor="middle" x="248.63" y="-259.6" font-family="Work Sans" font-size="8.00"> AGENT &#160;&#160;</text>
</g>
<!-- V161105 -->
<g id="node9" class="node">
<title>V161105</title>
<g id="a_node9"><a xlink:href="http://trips.ihmc.us/lexicon/data/ONT::REFERENTIAL-SEM.xml" xlink:title="&lt;font color=&quot;green&quot;&gt;&lt;br /&gt;&lt;/font&gt; &lt;font color=&quot;black&quot;&gt;REFERENTIAL&#45;SEM&lt;/font&gt; &lt;font color=&quot;green&quot;&gt;&lt;br /&gt;&lt;/font&gt; &lt;font color=&quot;red&quot;&gt;PRO&lt;/font&gt; &lt;font color=&quot;blue&quot;&gt;IT&lt;/font&gt; &lt;font color=&quot;green&quot;&gt;&lt;br /&gt;&lt;/font&gt; &lt;font color=&quot;green&quot;&gt;entity%1:03:00&lt;/font&gt; &lt;font color=&quot;green&quot;&gt;&lt;br /&gt; &lt;/font&gt;">
<text text-anchor="start" x="309.92" y="-110.6" font-family="Work Sans" font-size="8.00"> </text>
<text text-anchor="start" x="312.14" y="-110.6" font-family="Work Sans" font-size="8.00">REFERENTIAL&#45;SEM</text>
<text text-anchor="start" x="387.26" y="-110.6" font-family="Work Sans" font-size="8.00"> </text>
<text text-anchor="start" x="334.14" y="-102.6" font-family="Work Sans" font-size="8.00"> </text>
<text text-anchor="start" x="336.36" y="-102.6" font-family="Work Sans" font-size="8.00" fill="red">PRO</text>
<text text-anchor="start" x="353.7" y="-102.6" font-family="Work Sans" font-size="8.00"> </text>
<text text-anchor="start" x="355.92" y="-102.6" font-family="Work Sans" font-size="8.00" fill="blue">IT</text>
<text text-anchor="start" x="363.03" y="-102.6" font-family="Work Sans" font-size="8.00"> </text>
<text text-anchor="start" x="321.01" y="-94.6" font-family="Work Sans" font-size="8.00"> </text>
<text text-anchor="start" x="323.24" y="-94.6" font-family="Work Sans" font-size="8.00" fill="green">entity%1:03:00</text>
<text text-anchor="start" x="376.16" y="-94.6" font-family="Work Sans" font-size="8.00"> </text>
<text text-anchor="start" x="348.59" y="-86.6" font-family="Work Sans" font-size="8.00" fill="green"> </text>
</a>
</g>
</g>
<!-- V161101&#45;&gt;V161105 -->
<g id="edge7" class="edge">
<title>V161101&#45;&gt;V161105</title>
<path fill="none" stroke="grey" stroke-width="0.5" d="M329.35,-291.8C340.23,-285.86 351.57,-277.39 357.7,-266 381.1,-222.48 368.42,-162.41 358.29,-129.32"/>
<polygon fill="grey" stroke="grey" stroke-width="0.5" points="359.87,-128.49 356.7,-124.25 356.53,-129.54 359.87,-128.49"/>
<text text-anchor="middle" x="397.04" y="-217.6" font-family="Work Sans" font-size="8.00"> AFFECTED &#160;&#160;</text>
</g>
<!-- V161139 -->
<g id="node10" class="node">
<title>V161139</title>
<g id="a_node10"><a xlink:href="http://trips.ihmc.us/lexicon/data/ONT::COMPLETELY.xml" xlink:title="&lt;font color=&quot;green&quot;&gt;&lt;br /&gt;&lt;/font&gt; &lt;font color=&quot;black&quot;&gt;COMPLETELY&lt;/font&gt; &lt;font color=&quot;green&quot;&gt;&lt;br /&gt;&lt;/font&gt; &lt;font color=&quot;red&quot;&gt;F&lt;/font&gt; &lt;font color=&quot;blue&quot;&gt;DOWN&lt;/font&gt; &lt;font color=&quot;green&quot;&gt;&lt;br /&gt;&lt;/font&gt; &lt;font color=&quot;green&quot;&gt;down%4:02:02::&lt;/font&gt; &lt;font color=&quot;green&quot;&gt;&lt;br /&gt; &lt;/font&gt;">
<text text-anchor="start" x="273.87" y="-226.6" font-family="Work Sans" font-size="8.00"> </text>
<text text-anchor="start" x="276.1" y="-226.6" font-family="Work Sans" font-size="8.00">COMPLETELY</text>
<text text-anchor="start" x="329.3" y="-226.6" font-family="Work Sans" font-size="8.00"> </text>
<text text-anchor="start" x="284.26" y="-218.6" font-family="Work Sans" font-size="8.00"> </text>
<text text-anchor="start" x="286.48" y="-218.6" font-family="Work Sans" font-size="8.00" fill="red">F</text>
<text text-anchor="start" x="291.37" y="-218.6" font-family="Work Sans" font-size="8.00"> </text>
<text text-anchor="start" x="293.59" y="-218.6" font-family="Work Sans" font-size="8.00" fill="blue">DOWN</text>
<text text-anchor="start" x="318.92" y="-218.6" font-family="Work Sans" font-size="8.00"> </text>
<text text-anchor="start" x="271.79" y="-210.6" font-family="Work Sans" font-size="8.00"> </text>
<text text-anchor="start" x="274.01" y="-210.6" font-family="Work Sans" font-size="8.00" fill="green">down%4:02:02::</text>
<text text-anchor="start" x="331.39" y="-210.6" font-family="Work Sans" font-size="8.00"> </text>
<text text-anchor="start" x="301.59" y="-202.6" font-family="Work Sans" font-size="8.00" fill="green"> </text>
</a>
</g>
</g>
<!-- V161101&#45;&gt;V161139 -->
<g id="edge16" class="edge">
<title>V161101&#45;&gt;V161139</title>
<path fill="none" stroke="grey" stroke-width="0.5" d="M277.45,-283.62C271.02,-276.1 266.7,-267.11 270.14,-258 271.95,-253.2 274.7,-248.61 277.85,-244.41"/>
<polygon fill="grey" stroke="grey" stroke-width="0.5" points="279.36,-245.33 281.12,-240.34 276.63,-243.14 279.36,-245.33"/>
<text text-anchor="middle" x="292.48" y="-259.6" font-family="Work Sans" font-size="8.00"> MANNER &#160;&#160;</text>
</g>
<!-- V161019&#45;&gt;V161690 -->
<g id="edge1" class="edge">
<title>V161019&#45;&gt;V161690</title>
<path fill="none" stroke="grey" stroke-width="0.5" d="M425.09,-320.31C421.59,-329.83 415.95,-341.77 407.7,-350 400.19,-357.48 390.65,-363.53 381.11,-368.3"/>
<polygon fill="grey" stroke="grey" stroke-width="0.5" points="380.19,-366.8 376.43,-370.54 381.7,-369.96 380.19,-366.8"/>
<text text-anchor="middle" x="434.26" y="-343.6" font-family="Work Sans" font-size="8.00"> FIGURE &#160;&#160;</text>
</g>
<!-- V161086 -->
<g id="node6" class="node">
<title>V161086</title>
<g id="a_node6"><a xlink:href="http://trips.ihmc.us/lexicon/data/ONT::COME.xml" xlink:title="&lt;font color=&quot;green&quot;&gt;&lt;br /&gt;&lt;/font&gt; &lt;font color=&quot;black&quot;&gt;COME&lt;/font&gt; &lt;font color=&quot;green&quot;&gt;&lt;br /&gt;&lt;/font&gt; &lt;font color=&quot;red&quot;&gt;F&lt;/font&gt; &lt;font color=&quot;blue&quot;&gt;COME&lt;/font&gt; &lt;font color=&quot;green&quot;&gt;&lt;br /&gt;&lt;/font&gt; &lt;font color=&quot;green&quot;&gt;come%2:42:15::&lt;/font&gt; &lt;font color=&quot;green&quot;&gt;&lt;br /&gt; &lt;/font&gt;">
<text text-anchor="start" x="437.48" y="-168.6" font-family="Work Sans" font-size="8.00"> </text>
<text text-anchor="start" x="439.7" y="-168.6" font-family="Work Sans" font-size="8.00">COME</text>
<text text-anchor="start" x="463.7" y="-168.6" font-family="Work Sans" font-size="8.00"> </text>
<text text-anchor="start" x="433.92" y="-160.6" font-family="Work Sans" font-size="8.00"> </text>
<text text-anchor="start" x="436.14" y="-160.6" font-family="Work Sans" font-size="8.00" fill="red">F</text>
<text text-anchor="start" x="441.03" y="-160.6" font-family="Work Sans" font-size="8.00"> </text>
<text text-anchor="start" x="443.25" y="-160.6" font-family="Work Sans" font-size="8.00" fill="blue">COME</text>
<text text-anchor="start" x="467.25" y="-160.6" font-family="Work Sans" font-size="8.00"> </text>
<text text-anchor="start" x="420.57" y="-152.6" font-family="Work Sans" font-size="8.00"> </text>
<text text-anchor="start" x="422.79" y="-152.6" font-family="Work Sans" font-size="8.00" fill="green">come%2:42:15::</text>
<text text-anchor="start" x="480.6" y="-152.6" font-family="Work Sans" font-size="8.00"> </text>
<text text-anchor="start" x="450.59" y="-144.6" font-family="Work Sans" font-size="8.00" fill="green"> </text>
</a>
</g>
</g>
<!-- V161019&#45;&gt;V161086 -->
<g id="edge19" class="edge">
<title>V161019&#45;&gt;V161086</title>
<path fill="none" stroke="grey" stroke-width="0.5" d="M433.95,-287.85C437.36,-275.16 441.99,-256.53 444.7,-240 447.56,-222.54 449.33,-202.65 450.37,-187.45"/>
<polygon fill="grey" stroke="grey" stroke-width="0.5" points="452.14,-187.19 450.73,-182.08 448.65,-186.96 452.14,-187.19"/>
<text text-anchor="middle" x="463.92" y="-259.6" font-family="Work Sans" font-size="8.00"> GROUND &#160;&#160;</text>
</g>
<!-- V161072 -->
<g id="node7" class="node">
<title>V161072</title>
<g id="a_node7"><a xlink:href="http://trips.ihmc.us/lexicon/data/ONT::LAND-VEHICLE.xml" xlink:title="&lt;font color=&quot;green&quot;&gt;&lt;br /&gt;&lt;/font&gt; &lt;font color=&quot;black&quot;&gt;LAND&#45;VEHICLE&lt;/font&gt; &lt;font color=&quot;green&quot;&gt;&lt;br /&gt;&lt;/font&gt; &lt;font color=&quot;red&quot;&gt;A&lt;/font&gt; &lt;font color=&quot;blue&quot;&gt;CAR&lt;/font&gt; &lt;font color=&quot;green&quot;&gt;&lt;br /&gt;&lt;/font&gt; &lt;font color=&quot;green&quot;&gt;car%1:06:00::&lt;/font&gt; &lt;font color=&quot;green&quot;&gt;&lt;br /&gt; &lt;/font&gt;">
<polygon fill="pink" stroke="transparent" points="320.88,-40 258.51,-40 258.51,0 320.88,0 320.88,-40"/>
<text text-anchor="start" x="258.36" y="-26.6" font-family="Work Sans" font-size="8.00"> </text>
<text text-anchor="start" x="260.58" y="-26.6" font-family="Work Sans" font-size="8.00">LAND&#45;VEHICLE</text>
<text text-anchor="start" x="318.82" y="-26.6" font-family="Work Sans" font-size="8.00"> </text>
<text text-anchor="start" x="275.25" y="-18.6" font-family="Work Sans" font-size="8.00"> </text>
<text text-anchor="start" x="277.47" y="-18.6" font-family="Work Sans" font-size="8.00" fill="red">A</text>
<text text-anchor="start" x="282.81" y="-18.6" font-family="Work Sans" font-size="8.00"> </text>
<text text-anchor="start" x="285.03" y="-18.6" font-family="Work Sans" font-size="8.00" fill="blue">CAR</text>
<text text-anchor="start" x="301.92" y="-18.6" font-family="Work Sans" font-size="8.00"> </text>
<text text-anchor="start" x="262.79" y="-10.6" font-family="Work Sans" font-size="8.00"> </text>
<text text-anchor="start" x="265.02" y="-10.6" font-family="Work Sans" font-size="8.00" fill="green">car%1:06:00::</text>
<text text-anchor="start" x="314.38" y="-10.6" font-family="Work Sans" font-size="8.00"> </text>
<text text-anchor="start" x="288.59" y="-2.6" font-family="Work Sans" font-size="8.00" fill="green"> </text>
</a>
</g>
</g>
<!-- V161086&#45;&gt;V161072 -->
<g id="edge3" class="edge">
<title>V161086&#45;&gt;V161072</title>
<path fill="none" stroke="grey" stroke-width="0.5" d="M441.72,-141.82C432.3,-125.06 416.93,-100.85 398.7,-84 377.27,-64.19 348.55,-47.91 325.97,-36.87"/>
<polygon fill="grey" stroke="grey" stroke-width="0.5" points="326.51,-35.18 321.25,-34.59 324.99,-38.34 326.51,-35.18"/>
<text text-anchor="middle" x="456.04" y="-101.6" font-family="Work Sans" font-size="8.00"> AFFECTED &#160;&#160;</text>
</g>
<!-- V161105&#45;&gt;V161072 -->
<g id="edge9" class="edge">
<title>V161105&#45;&gt;V161072</title>
<path fill="none" stroke="blue" d="M342.07,-83.79C338.34,-75.49 333.41,-65.89 327.7,-58 324.15,-53.11 319.93,-48.29 315.61,-43.83"/>
<polygon fill="blue" stroke="blue" points="316.74,-42.49 311.97,-40.18 314.26,-44.96 316.74,-42.49"/>
<text text-anchor="middle" x="333.81" y="-59.6" font-family="Work Sans" font-size="8.00">.</text>
</g>
<!-- V161105&#45;&gt;V161072 -->
<g id="edge10" class="edge">
<title>V161105&#45;&gt;V161072</title>
<path fill="none" stroke="red" d="M309.83,-87.85C300.68,-82.4 292.09,-75.24 286.81,-66 283.28,-59.83 282.62,-52.37 283.23,-45.31"/>
<polygon fill="red" stroke="red" points="285.01,-45.21 283.93,-40.03 281.54,-44.76 285.01,-45.21"/>
<text text-anchor="middle" x="306.14" y="-59.6" font-family="Work Sans" font-size="8.00"> COREF &#160;&#160;</text>
</g>
<!-- V161139&#45;&gt;V161101 -->
<g id="edge18" class="edge">
<title>V161139&#45;&gt;V161101</title>
<path fill="none" stroke="grey" stroke-width="0.5" d="M310.84,-240.13C313.31,-248.07 315.06,-257.42 313.7,-266 313.03,-270.22 311.96,-274.61 310.73,-278.83"/>
<polygon fill="grey" stroke="grey" stroke-width="0.5" points="309.03,-278.4 309.22,-283.69 312.37,-279.44 309.03,-278.4"/>
<text text-anchor="middle" x="334.26" y="-259.6" font-family="Work Sans" font-size="8.00"> FIGURE &#160;&#160;</text>
</g>
<!-- V161178&#45;&gt;V161072 -->
<g id="edge8" class="edge">
<title>V161178&#45;&gt;V161072</title>
<path fill="none" stroke="blue" d="M146.41,-85.21C178.24,-70.94 222.54,-51.09 253.42,-37.25"/>
<polygon fill="blue" stroke="blue" points="254.41,-38.73 258.26,-35.09 252.98,-35.53 254.41,-38.73"/>
<text text-anchor="middle" x="204.81" y="-59.6" font-family="Work Sans" font-size="8.00">.</text>
</g>
<!-- V161178&#45;&gt;V161072 -->
<g id="edge21" class="edge">
<title>V161178&#45;&gt;V161072</title>
<path fill="none" stroke="red" d="M122.46,-83.57C130.65,-74.61 141.34,-64.54 152.81,-58 184.11,-40.14 224.37,-30.6 253.12,-25.72"/>
<polygon fill="red" stroke="red" points="253.69,-27.39 258.34,-24.86 253.13,-23.94 253.69,-27.39"/>
<text text-anchor="middle" x="172.14" y="-59.6" font-family="Work Sans" font-size="8.00"> COREF &#160;&#160;</text>
</g>
<!-- V161217&#45;&gt;V161178 -->
<g id="edge14" class="edge">
<title>V161217&#45;&gt;V161178</title>
<path fill="none" stroke="blue" d="M107.04,-199.7C105.16,-194.09 103.42,-187.88 102.48,-182 99.65,-164.42 100.9,-144.33 102.75,-129.08"/>
<polygon fill="blue" stroke="blue" points="104.49,-129.29 103.4,-124.1 101.02,-128.84 104.49,-129.29"/>
<text text-anchor="middle" x="103.81" y="-159.6" font-family="Work Sans" font-size="8.00">.</text>
</g>
<!-- V161217&#45;&gt;V161178 -->
<g id="edge20" class="edge">
<title>V161217&#45;&gt;V161178</title>
<path fill="none" stroke="red" d="M113.36,-199.92C112,-180.52 109.88,-150.39 108.4,-129.3"/>
<polygon fill="red" stroke="red" points="110.14,-129.01 108.04,-124.14 106.65,-129.25 110.14,-129.01"/>
<text text-anchor="middle" x="138.04" y="-159.6" font-family="Work Sans" font-size="8.00"> AFFECTED &#160;&#160;</text>
</g>
</g>
</svg>
