<?xml version="1.0" encoding="UTF-8" standalone="no"?>
<!DOCTYPE svg PUBLIC "-//W3C//DTD SVG 1.1//EN"
 "http://www.w3.org/Graphics/SVG/1.1/DTD/svg11.dtd">
<!-- Generated by graphviz version 2.43.0 (0)
 -->
<!-- Title: graph Pages: 1 -->
<svg width="260pt" height="284pt"
 viewBox="0.00 0.00 259.56 284.00" xmlns="http://www.w3.org/2000/svg" xmlns:xlink="http://www.w3.org/1999/xlink">
<g id="graph0" class="graph" transform="scale(1 1) rotate(0) translate(4 280)">
<title>graph</title>
<polygon fill="white" stroke="transparent" points="-4,4 -4,-280 255.56,-280 255.56,4 -4,4"/>
<!-- V68937 -->
<g id="node1" class="node">
<title>V68937</title>
<g id="a_node1"><a xlink:href="http://trips.ihmc.us/lexicon/data/ONT::SA_TELL.xml" xlink:title="&lt;font color=&quot;green&quot;&gt;&lt;br /&gt;&lt;/font&gt; &lt;font color=&quot;black&quot;&gt;SA_TELL&lt;/font&gt; &lt;font color=&quot;green&quot;&gt;&lt;br /&gt;&lt;/font&gt; &lt;font color=&quot;red&quot;&gt;SPEECHACT&lt;/font&gt; &lt;font color=&quot;blue&quot;&gt;* &lt;/font&gt; &lt;font color=&quot;green&quot;&gt;&lt;br /&gt; &lt;/font&gt;">
<text text-anchor="start" x="127" y="-262.6" font-family="Work Sans" font-size="8.00"> </text>
<text text-anchor="start" x="129.22" y="-262.6" font-family="Work Sans" font-size="8.00">SA_TELL</text>
<text text-anchor="start" x="163.46" y="-262.6" font-family="Work Sans" font-size="8.00"> </text>
<text text-anchor="start" x="115.89" y="-254.6" font-family="Work Sans" font-size="8.00"> </text>
<text text-anchor="start" x="118.11" y="-254.6" font-family="Work Sans" font-size="8.00" fill="red">SPEECHACT</text>
<text text-anchor="start" x="167.01" y="-254.6" font-family="Work Sans" font-size="8.00"> </text>
<text text-anchor="start" x="169.23" y="-254.6" font-family="Work Sans" font-size="8.00" fill="blue">* </text>
<text text-anchor="start" x="174.57" y="-254.6" font-family="Work Sans" font-size="8.00"> </text>
<text text-anchor="start" x="145.23" y="-246.6" font-family="Work Sans" font-size="8.00" fill="green"> </text>
</a>
</g>
</g>
<!-- V68291 -->
<g id="node2" class="node">
<title>V68291</title>
<g id="a_node2"><a xlink:href="http://trips.ihmc.us/lexicon/data/ONT::HAVE-PROPERTY.xml" xlink:title="&lt;font color=&quot;green&quot;&gt;&lt;br /&gt;&lt;/font&gt; &lt;font color=&quot;black&quot;&gt;HAVE&#45;PROPERTY&lt;/font&gt; &lt;font color=&quot;green&quot;&gt;&lt;br /&gt;&lt;/font&gt; &lt;font color=&quot;red&quot;&gt;F&lt;/font&gt; &lt;font color=&quot;blue&quot;&gt;BE&lt;/font&gt; &lt;font color=&quot;green&quot;&gt;&lt;br /&gt;&lt;/font&gt; &lt;font color=&quot;green&quot;&gt;be%2:42:03::&lt;/font&gt; &lt;font color=&quot;green&quot;&gt;&lt;br /&gt; &lt;/font&gt;">
<polygon fill="pink" stroke="transparent" stroke-width="0.5" points="110.17,-160 146.34,-160 146.34,-200 110.17,-200 110.17,-160"/>
<polygon fill="lightblue" stroke="transparent" stroke-width="0.5" points="146.34,-160 182.51,-160 182.51,-200 146.34,-200 146.34,-160"/>
<polygon fill="none" stroke="transparent" points="182.51,-200 110.17,-200 110.17,-160 182.51,-160 182.51,-200"/>
<text text-anchor="start" x="110.25" y="-186.6" font-family="Work Sans" font-size="8.00"> </text>
<text text-anchor="start" x="112.48" y="-186.6" font-family="Work Sans" font-size="8.00">HAVE&#45;PROPERTY</text>
<text text-anchor="start" x="180.2" y="-186.6" font-family="Work Sans" font-size="8.00"> </text>
<text text-anchor="start" x="135.23" y="-178.6" font-family="Work Sans" font-size="8.00"> </text>
<text text-anchor="start" x="137.45" y="-178.6" font-family="Work Sans" font-size="8.00" fill="red">F</text>
<text text-anchor="start" x="142.34" y="-178.6" font-family="Work Sans" font-size="8.00"> </text>
<text text-anchor="start" x="144.56" y="-178.6" font-family="Work Sans" font-size="8.00" fill="blue">BE</text>
<text text-anchor="start" x="155.23" y="-178.6" font-family="Work Sans" font-size="8.00"> </text>
<text text-anchor="start" x="120.54" y="-170.6" font-family="Work Sans" font-size="8.00"> </text>
<text text-anchor="start" x="122.77" y="-170.6" font-family="Work Sans" font-size="8.00" fill="green">be%2:42:03::</text>
<text text-anchor="start" x="169.91" y="-170.6" font-family="Work Sans" font-size="8.00"> </text>
<text text-anchor="start" x="145.23" y="-162.6" font-family="Work Sans" font-size="8.00" fill="green"> </text>
</a>
</g>
</g>
<!-- V68937&#45;&gt;V68291 -->
<g id="edge3" class="edge">
<title>V68937&#45;&gt;V68291</title>
<path fill="none" stroke="grey" stroke-width="0.5" d="M146.34,-243.96C146.34,-233.04 146.34,-218.02 146.34,-205.39"/>
<polygon fill="grey" stroke="grey" stroke-width="0.5" points="148.09,-205.14 146.34,-200.14 144.59,-205.14 148.09,-205.14"/>
<text text-anchor="middle" x="170.05" y="-219.6" font-family="Work Sans" font-size="8.00"> CONTENT &#160;&#160;</text>
</g>
<!-- V68284 -->
<g id="node3" class="node">
<title>V68284</title>
<g id="a_node3"><a xlink:href="http://trips.ihmc.us/lexicon/data/ONT::MALE-PERSON.xml" xlink:title="&lt;font color=&quot;green&quot;&gt;&lt;br /&gt;&lt;/font&gt; &lt;font color=&quot;black&quot;&gt;MALE&#45;PERSON&lt;/font&gt; &lt;font color=&quot;green&quot;&gt;&lt;br /&gt;&lt;/font&gt; &lt;font color=&quot;red&quot;&gt;PRO&lt;/font&gt; &lt;font color=&quot;blue&quot;&gt;HE&lt;/font&gt; &lt;font color=&quot;green&quot;&gt;&lt;br /&gt;&lt;/font&gt; &lt;font color=&quot;green&quot;&gt;man%1:18:00&lt;/font&gt; &lt;font color=&quot;green&quot;&gt;&lt;br /&gt; &lt;/font&gt;">
<text text-anchor="start" x="0" y="-26.6" font-family="Work Sans" font-size="8.00"> </text>
<text text-anchor="start" x="2.22" y="-26.6" font-family="Work Sans" font-size="8.00">MALE&#45;PERSON</text>
<text text-anchor="start" x="60.46" y="-26.6" font-family="Work Sans" font-size="8.00"> </text>
<text text-anchor="start" x="13.78" y="-18.6" font-family="Work Sans" font-size="8.00"> </text>
<text text-anchor="start" x="16" y="-18.6" font-family="Work Sans" font-size="8.00" fill="red">PRO</text>
<text text-anchor="start" x="33.34" y="-18.6" font-family="Work Sans" font-size="8.00"> </text>
<text text-anchor="start" x="35.56" y="-18.6" font-family="Work Sans" font-size="8.00" fill="blue">HE</text>
<text text-anchor="start" x="46.68" y="-18.6" font-family="Work Sans" font-size="8.00"> </text>
<text text-anchor="start" x="4.43" y="-10.6" font-family="Work Sans" font-size="8.00"> </text>
<text text-anchor="start" x="6.66" y="-10.6" font-family="Work Sans" font-size="8.00" fill="green">man%1:18:00</text>
<text text-anchor="start" x="56.02" y="-10.6" font-family="Work Sans" font-size="8.00"> </text>
<text text-anchor="start" x="30.23" y="-2.6" font-family="Work Sans" font-size="8.00" fill="green"> </text>
</a>
</g>
</g>
<!-- V68291&#45;&gt;V68284 -->
<g id="edge8" class="edge">
<title>V68291&#45;&gt;V68284</title>
<path fill="none" stroke="grey" stroke-width="0.5" d="M110.11,-172.03C81.34,-164.16 44.21,-148.01 33.4,-116 25.6,-92.9 26.12,-64.81 27.95,-45.19"/>
<polygon fill="grey" stroke="grey" stroke-width="0.5" points="29.7,-45.29 28.47,-40.14 26.22,-44.94 29.7,-45.29"/>
<text text-anchor="middle" x="57.31" y="-97.6" font-family="Work Sans" font-size="8.00"> NEUTRAL &#160;&#160;</text>
</g>
<!-- V68610 -->
<g id="node4" class="node">
<title>V68610</title>
<g id="a_node4"><a xlink:href="http://trips.ihmc.us/lexicon/data/ONT::MEMBERSHIP.xml" xlink:title="&lt;font color=&quot;green&quot;&gt;&lt;br /&gt;&lt;/font&gt; &lt;font color=&quot;black&quot;&gt;MEMBERSHIP&lt;/font&gt; &lt;font color=&quot;green&quot;&gt;&lt;br /&gt;&lt;/font&gt; &lt;font color=&quot;red&quot;&gt;F&lt;/font&gt; &lt;font color=&quot;blue&quot;&gt;* &lt;/font&gt; &lt;font color=&quot;green&quot;&gt;&lt;br /&gt; &lt;/font&gt;">
<polygon fill="pink" stroke="transparent" stroke-width="0.5" points="88.11,-84 117.34,-84 117.34,-116 88.11,-116 88.11,-84"/>
<polygon fill="lightblue" stroke="transparent" stroke-width="0.5" points="117.34,-84 146.57,-84 146.57,-116 117.34,-116 117.34,-84"/>
<polygon fill="none" stroke="transparent" points="146.57,-116 88.11,-116 88.11,-84 146.57,-84 146.57,-116"/>
<text text-anchor="start" x="88.22" y="-102.6" font-family="Work Sans" font-size="8.00"> </text>
<text text-anchor="start" x="90.45" y="-102.6" font-family="Work Sans" font-size="8.00">MEMBERSHIP</text>
<text text-anchor="start" x="144.23" y="-102.6" font-family="Work Sans" font-size="8.00"> </text>
<text text-anchor="start" x="108.89" y="-94.6" font-family="Work Sans" font-size="8.00"> </text>
<text text-anchor="start" x="111.12" y="-94.6" font-family="Work Sans" font-size="8.00" fill="red">F</text>
<text text-anchor="start" x="116" y="-94.6" font-family="Work Sans" font-size="8.00"> </text>
<text text-anchor="start" x="118.23" y="-94.6" font-family="Work Sans" font-size="8.00" fill="blue">* </text>
<text text-anchor="start" x="123.56" y="-94.6" font-family="Work Sans" font-size="8.00"> </text>
<text text-anchor="start" x="116.23" y="-86.6" font-family="Work Sans" font-size="8.00" fill="green"> </text>
</a>
</g>
</g>
<!-- V68291&#45;&gt;V68610 -->
<g id="edge7" class="edge">
<title>V68291&#45;&gt;V68610</title>
<path fill="none" stroke="red" d="M109.88,-173.63C90.83,-168.77 69.1,-159.53 57.41,-142 55.43,-139.04 55.6,-137.06 57.41,-134 63.28,-124.07 73.32,-116.92 83.52,-111.88"/>
<polygon fill="red" stroke="red" points="84.41,-113.4 88.21,-109.71 82.94,-110.22 84.41,-113.4"/>
<text text-anchor="middle" x="79.31" y="-135.6" font-family="Work Sans" font-size="8.00"> FORMAL &#160;&#160;</text>
</g>
<!-- V68291&#45;&gt;V68610 -->
<g id="edge12" class="edge">
<title>V68291&#45;&gt;V68610</title>
<path fill="none" stroke="blue" d="M136.64,-159.66C134.02,-154.04 131.3,-147.84 129.12,-142 126.64,-135.37 124.37,-127.97 122.5,-121.3"/>
<polygon fill="blue" stroke="blue" points="124.15,-120.73 121.15,-116.37 120.78,-121.66 124.15,-120.73"/>
<text text-anchor="middle" x="130.45" y="-135.6" font-family="Work Sans" font-size="8.00">.</text>
</g>
<!-- V68350 -->
<g id="node6" class="node">
<title>V68350</title>
<g id="a_node6"><a xlink:href="http://trips.ihmc.us/lexicon/data/ONT::EVENT-TIME-REL.xml" xlink:title="&lt;font color=&quot;green&quot;&gt;&lt;br /&gt;&lt;/font&gt; &lt;font color=&quot;black&quot;&gt;EVENT&#45;TIME&#45;REL&lt;/font&gt; &lt;font color=&quot;green&quot;&gt;&lt;br /&gt;&lt;/font&gt; &lt;font color=&quot;red&quot;&gt;F&lt;/font&gt; &lt;font color=&quot;blue&quot;&gt;* &lt;/font&gt; &lt;font color=&quot;green&quot;&gt;&lt;br /&gt; &lt;/font&gt;">
<polygon fill="pink" stroke="transparent" stroke-width="0.5" points="175.16,-84 210.34,-84 210.34,-116 175.16,-116 175.16,-84"/>
<polygon fill="lightblue" stroke="transparent" stroke-width="0.5" points="210.34,-84 245.52,-84 245.52,-116 210.34,-116 210.34,-84"/>
<polygon fill="none" stroke="transparent" points="245.52,-116 175.16,-116 175.16,-84 245.52,-84 245.52,-116"/>
<text text-anchor="start" x="175" y="-102.6" font-family="Work Sans" font-size="8.00"> </text>
<text text-anchor="start" x="177.22" y="-102.6" font-family="Work Sans" font-size="8.00">EVENT&#45;TIME&#45;REL</text>
<text text-anchor="start" x="243.46" y="-102.6" font-family="Work Sans" font-size="8.00"> </text>
<text text-anchor="start" x="201.89" y="-94.6" font-family="Work Sans" font-size="8.00"> </text>
<text text-anchor="start" x="204.12" y="-94.6" font-family="Work Sans" font-size="8.00" fill="red">F</text>
<text text-anchor="start" x="209" y="-94.6" font-family="Work Sans" font-size="8.00"> </text>
<text text-anchor="start" x="211.23" y="-94.6" font-family="Work Sans" font-size="8.00" fill="blue">* </text>
<text text-anchor="start" x="216.56" y="-94.6" font-family="Work Sans" font-size="8.00"> </text>
<text text-anchor="start" x="209.23" y="-86.6" font-family="Work Sans" font-size="8.00" fill="green"> </text>
</a>
</g>
</g>
<!-- V68291&#45;&gt;V68350 -->
<g id="edge1" class="edge">
<title>V68291&#45;&gt;V68350</title>
<path fill="none" stroke="blue" d="M146.11,-159.68C146.87,-151.17 148.97,-141.43 154.12,-134 158.41,-127.8 164.28,-122.59 170.61,-118.28"/>
<polygon fill="blue" stroke="blue" points="171.78,-119.61 175.05,-115.44 169.89,-116.66 171.78,-119.61"/>
<text text-anchor="middle" x="155.45" y="-135.6" font-family="Work Sans" font-size="8.00">.</text>
</g>
<!-- V68291&#45;&gt;V68350 -->
<g id="edge10" class="edge">
<title>V68291&#45;&gt;V68350</title>
<path fill="none" stroke="red" d="M153.46,-159.95C157.16,-151.48 162.24,-141.72 168.48,-134 172.75,-128.73 178,-123.77 183.33,-119.37"/>
<polygon fill="red" stroke="red" points="184.59,-120.61 187.41,-116.13 182.4,-117.87 184.59,-120.61"/>
<text text-anchor="middle" x="183.27" y="-135.6" font-family="Work Sans" font-size="8.00"> TIME &#160;&#160;</text>
</g>
<!-- V68610&#45;&gt;V68284 -->
<g id="edge2" class="edge">
<title>V68610&#45;&gt;V68284</title>
<path fill="none" stroke="grey" stroke-width="0.5" d="M96.76,-83.75C89.76,-78.34 82,-72.08 75.23,-66 67.69,-59.24 59.85,-51.46 52.91,-44.3"/>
<polygon fill="grey" stroke="grey" stroke-width="0.5" points="53.89,-42.79 49.16,-40.39 51.36,-45.21 53.89,-42.79"/>
<text text-anchor="middle" x="94.9" y="-59.6" font-family="Work Sans" font-size="8.00"> FIGURE &#160;&#160;</text>
</g>
<!-- V68306 -->
<g id="node5" class="node">
<title>V68306</title>
<g id="a_node5"><a xlink:href="http://trips.ihmc.us/lexicon/data/ONT::KIND.xml" xlink:title="&lt;font color=&quot;green&quot;&gt;&lt;br /&gt;&lt;/font&gt; &lt;font color=&quot;black&quot;&gt;KIND&lt;/font&gt; &lt;font color=&quot;green&quot;&gt;&lt;br /&gt;&lt;/font&gt; &lt;font color=&quot;red&quot;&gt;THE&#45;SET&lt;/font&gt; &lt;font color=&quot;blue&quot;&gt;KIND&lt;/font&gt; &lt;font color=&quot;green&quot;&gt;&lt;br /&gt; &lt;/font&gt;">
<text text-anchor="start" x="106.56" y="-22.6" font-family="Work Sans" font-size="8.00"> </text>
<text text-anchor="start" x="108.78" y="-22.6" font-family="Work Sans" font-size="8.00">KIND</text>
<text text-anchor="start" x="127.9" y="-22.6" font-family="Work Sans" font-size="8.00"> </text>
<text text-anchor="start" x="88.34" y="-14.6" font-family="Work Sans" font-size="8.00"> </text>
<text text-anchor="start" x="90.56" y="-14.6" font-family="Work Sans" font-size="8.00" fill="red">THE&#45;SET</text>
<text text-anchor="start" x="124.78" y="-14.6" font-family="Work Sans" font-size="8.00"> </text>
<text text-anchor="start" x="127.01" y="-14.6" font-family="Work Sans" font-size="8.00" fill="blue">KIND</text>
<text text-anchor="start" x="146.12" y="-14.6" font-family="Work Sans" font-size="8.00"> </text>
<text text-anchor="start" x="117.23" y="-6.6" font-family="Work Sans" font-size="8.00" fill="green"> </text>
</a>
</g>
</g>
<!-- V68610&#45;&gt;V68306 -->
<g id="edge11" class="edge">
<title>V68610&#45;&gt;V68306</title>
<path fill="none" stroke="grey" stroke-width="0.5" d="M117.53,-83.96C117.69,-71.85 117.91,-54.69 118.08,-41.35"/>
<polygon fill="grey" stroke="grey" stroke-width="0.5" points="119.83,-41.28 118.14,-36.26 116.33,-41.24 119.83,-41.28"/>
<text text-anchor="middle" x="140.56" y="-59.6" font-family="Work Sans" font-size="8.00"> GROUND &#160;&#160;</text>
</g>
<!-- V68350&#45;&gt;V68291 -->
<g id="edge6" class="edge">
<title>V68350&#45;&gt;V68291</title>
<path fill="none" stroke="red" d="M209.28,-116.1C208.09,-124.35 205.59,-134.41 200.34,-142 196.53,-147.51 191.61,-152.45 186.29,-156.78"/>
<polygon fill="red" stroke="red" points="185.05,-155.53 182.16,-159.98 187.19,-158.3 185.05,-155.53"/>
<text text-anchor="middle" x="223.9" y="-135.6" font-family="Work Sans" font-size="8.00"> FIGURE &#160;&#160;</text>
</g>
<!-- V68350&#45;&gt;V68291 -->
<g id="edge9" class="edge">
<title>V68350&#45;&gt;V68291</title>
<path fill="none" stroke="blue" d="M237.15,-116.19C246.71,-123.61 253.71,-132.88 247.34,-142 233.87,-161.27 209.22,-170.54 187.65,-174.98"/>
<polygon fill="blue" stroke="blue" points="187.11,-173.3 182.52,-175.96 187.76,-176.74 187.11,-173.3"/>
<text text-anchor="middle" x="250.45" y="-135.6" font-family="Work Sans" font-size="8.00">.</text>
</g>
<!-- V68315 -->
<g id="node7" class="node">
<title>V68315</title>
<g id="a_node7"><a xlink:href="http://trips.ihmc.us/lexicon/data/ONT::YEAR.xml" xlink:title="&lt;font color=&quot;green&quot;&gt;&lt;br /&gt;&lt;/font&gt; &lt;font color=&quot;black&quot;&gt;YEAR&lt;/font&gt; &lt;font color=&quot;green&quot;&gt;&lt;br /&gt;&lt;/font&gt; &lt;font color=&quot;red&quot;&gt;THE&lt;/font&gt; &lt;font color=&quot;blue&quot;&gt;YEAR&lt;/font&gt; &lt;font color=&quot;green&quot;&gt;&lt;br /&gt;&lt;/font&gt; &lt;font color=&quot;green&quot;&gt;year%1:28:01::&lt;/font&gt; &lt;font color=&quot;green&quot;&gt;&lt;br /&gt; &lt;/font&gt;">
<polygon fill="pink" stroke="transparent" stroke-width="0.5" points="173.08,0 202.34,0 202.34,-40 173.08,-40 173.08,0"/>
<polygon fill="lightblue" stroke="transparent" stroke-width="0.5" points="202.34,0 231.6,0 231.6,-40 202.34,-40 202.34,0"/>
<polygon fill="none" stroke="transparent" points="231.6,-40 173.08,-40 173.08,0 231.6,0 231.6,-40"/>
<text text-anchor="start" x="189.22" y="-26.6" font-family="Work Sans" font-size="8.00"> </text>
<text text-anchor="start" x="191.45" y="-26.6" font-family="Work Sans" font-size="8.00">YEAR</text>
<text text-anchor="start" x="213.23" y="-26.6" font-family="Work Sans" font-size="8.00"> </text>
<text text-anchor="start" x="180.11" y="-18.6" font-family="Work Sans" font-size="8.00"> </text>
<text text-anchor="start" x="182.34" y="-18.6" font-family="Work Sans" font-size="8.00" fill="red">THE</text>
<text text-anchor="start" x="198.34" y="-18.6" font-family="Work Sans" font-size="8.00"> </text>
<text text-anchor="start" x="200.56" y="-18.6" font-family="Work Sans" font-size="8.00" fill="blue">YEAR</text>
<text text-anchor="start" x="222.34" y="-18.6" font-family="Work Sans" font-size="8.00"> </text>
<text text-anchor="start" x="173.21" y="-10.6" font-family="Work Sans" font-size="8.00"> </text>
<text text-anchor="start" x="175.43" y="-10.6" font-family="Work Sans" font-size="8.00" fill="green">year%1:28:01::</text>
<text text-anchor="start" x="229.25" y="-10.6" font-family="Work Sans" font-size="8.00"> </text>
<text text-anchor="start" x="201.23" y="-2.6" font-family="Work Sans" font-size="8.00" fill="green"> </text>
</a>
</g>
</g>
<!-- V68350&#45;&gt;V68315 -->
<g id="edge4" class="edge">
<title>V68350&#45;&gt;V68315</title>
<path fill="none" stroke="red" d="M201.49,-83.72C198.82,-78.31 196.24,-72.05 194.89,-66 193.41,-59.35 193.77,-52.08 194.9,-45.37"/>
<polygon fill="red" stroke="red" points="196.63,-45.6 195.89,-40.36 193.2,-44.92 196.63,-45.6"/>
<text text-anchor="middle" x="217.56" y="-59.6" font-family="Work Sans" font-size="8.00"> GROUND &#160;&#160;</text>
</g>
<!-- V68350&#45;&gt;V68315 -->
<g id="edge5" class="edge">
<title>V68350&#45;&gt;V68315</title>
<path fill="none" stroke="blue" d="M230.72,-83.63C237.81,-76.32 243.14,-67.18 239.34,-58 237.26,-52.99 234.14,-48.3 230.58,-44.06"/>
<polygon fill="blue" stroke="blue" points="231.84,-42.84 227.2,-40.29 229.23,-45.18 231.84,-42.84"/>
<text text-anchor="middle" x="241.45" y="-59.6" font-family="Work Sans" font-size="8.00">.</text>
</g>
</g>
</svg>
