<?xml version="1.0" encoding="UTF-8" standalone="no"?>
<!DOCTYPE svg PUBLIC "-//W3C//DTD SVG 1.1//EN"
 "http://www.w3.org/Graphics/SVG/1.1/DTD/svg11.dtd">
<!-- Generated by graphviz version 2.43.0 (0)
 -->
<!-- Title: graph Pages: 1 -->
<svg width="288pt" height="276pt"
 viewBox="0.00 0.00 287.73 276.00" xmlns="http://www.w3.org/2000/svg" xmlns:xlink="http://www.w3.org/1999/xlink">
<g id="graph0" class="graph" transform="scale(1 1) rotate(0) translate(4 272)">
<title>graph</title>
<polygon fill="white" stroke="transparent" points="-4,4 -4,-272 283.73,-272 283.73,4 -4,4"/>
<!-- V42325 -->
<g id="node1" class="node">
<title>V42325</title>
<g id="a_node1"><a xlink:href="http://trips.ihmc.us/lexicon/data/ONT::SA_TELL.xml" xlink:title="&lt;font color=&quot;green&quot;&gt;&lt;br /&gt;&lt;/font&gt; &lt;font color=&quot;black&quot;&gt;SA_TELL&lt;/font&gt; &lt;font color=&quot;green&quot;&gt;&lt;br /&gt;&lt;/font&gt; &lt;font color=&quot;red&quot;&gt;SPEECHACT&lt;/font&gt; &lt;font color=&quot;blue&quot;&gt;* &lt;/font&gt; &lt;font color=&quot;green&quot;&gt;&lt;br /&gt; &lt;/font&gt;">
<text text-anchor="start" x="58.04" y="-254.6" font-family="Work Sans" font-size="8.00"> </text>
<text text-anchor="start" x="60.27" y="-254.6" font-family="Work Sans" font-size="8.00">SA_TELL</text>
<text text-anchor="start" x="94.51" y="-254.6" font-family="Work Sans" font-size="8.00"> </text>
<text text-anchor="start" x="46.94" y="-246.6" font-family="Work Sans" font-size="8.00"> </text>
<text text-anchor="start" x="49.16" y="-246.6" font-family="Work Sans" font-size="8.00" fill="red">SPEECHACT</text>
<text text-anchor="start" x="98.06" y="-246.6" font-family="Work Sans" font-size="8.00"> </text>
<text text-anchor="start" x="100.28" y="-246.6" font-family="Work Sans" font-size="8.00" fill="blue">* </text>
<text text-anchor="start" x="105.62" y="-246.6" font-family="Work Sans" font-size="8.00"> </text>
<text text-anchor="start" x="76.28" y="-238.6" font-family="Work Sans" font-size="8.00" fill="green"> </text>
</a>
</g>
</g>
<!-- V40865 -->
<g id="node2" class="node">
<title>V40865</title>
<g id="a_node2"><a xlink:href="http://trips.ihmc.us/lexicon/data/ONT::JUMP.xml" xlink:title="&lt;font color=&quot;green&quot;&gt;&lt;br /&gt;&lt;/font&gt; &lt;font color=&quot;black&quot;&gt;JUMP&lt;/font&gt; &lt;font color=&quot;green&quot;&gt;&lt;br /&gt;&lt;/font&gt; &lt;font color=&quot;red&quot;&gt;F&lt;/font&gt; &lt;font color=&quot;blue&quot;&gt;JUMP&lt;/font&gt; &lt;font color=&quot;green&quot;&gt;&lt;br /&gt; &lt;/font&gt;">
<text text-anchor="start" x="64.28" y="-178.6" font-family="Work Sans" font-size="8.00"> </text>
<text text-anchor="start" x="66.5" y="-178.6" font-family="Work Sans" font-size="8.00">JUMP</text>
<text text-anchor="start" x="88.28" y="-178.6" font-family="Work Sans" font-size="8.00"> </text>
<text text-anchor="start" x="60.72" y="-170.6" font-family="Work Sans" font-size="8.00"> </text>
<text text-anchor="start" x="62.94" y="-170.6" font-family="Work Sans" font-size="8.00" fill="red">F</text>
<text text-anchor="start" x="67.83" y="-170.6" font-family="Work Sans" font-size="8.00"> </text>
<text text-anchor="start" x="70.05" y="-170.6" font-family="Work Sans" font-size="8.00" fill="blue">JUMP</text>
<text text-anchor="start" x="91.83" y="-170.6" font-family="Work Sans" font-size="8.00"> </text>
<text text-anchor="start" x="76.28" y="-162.6" font-family="Work Sans" font-size="8.00" fill="green"> </text>
</a>
</g>
</g>
<!-- V42325&#45;&gt;V40865 -->
<g id="edge9" class="edge">
<title>V42325&#45;&gt;V40865</title>
<path fill="none" stroke="grey" stroke-width="0.5" d="M77.39,-235.67C77.39,-224.58 77.39,-209.49 77.39,-197.38"/>
<polygon fill="grey" stroke="grey" stroke-width="0.5" points="79.14,-197.06 77.39,-192.06 75.64,-197.06 79.14,-197.06"/>
<text text-anchor="middle" x="101.1" y="-211.6" font-family="Work Sans" font-size="8.00"> CONTENT &#160;&#160;</text>
</g>
<!-- V40823 -->
<g id="node3" class="node">
<title>V40823</title>
<g id="a_node3"><a xlink:href="http://trips.ihmc.us/lexicon/data/ONT::EVENT-TIME-REL.xml" xlink:title="&lt;font color=&quot;green&quot;&gt;&lt;br /&gt;&lt;/font&gt; &lt;font color=&quot;black&quot;&gt;EVENT&#45;TIME&#45;REL&lt;/font&gt; &lt;font color=&quot;green&quot;&gt;&lt;br /&gt;&lt;/font&gt; &lt;font color=&quot;red&quot;&gt;F&lt;/font&gt; &lt;font color=&quot;blue&quot;&gt;ONE&#45;DAY&lt;/font&gt; &lt;font color=&quot;green&quot;&gt;&lt;br /&gt; &lt;/font&gt;">
<polygon fill="pink" stroke="transparent" stroke-width="0.5" points="15.21,-84 50.39,-84 50.39,-116 15.21,-116 15.21,-84"/>
<polygon fill="lightblue" stroke="transparent" stroke-width="0.5" points="50.39,-84 85.57,-84 85.57,-116 50.39,-116 50.39,-84"/>
<polygon fill="none" stroke="transparent" points="85.57,-116 15.21,-116 15.21,-84 85.57,-84 85.57,-116"/>
<text text-anchor="start" x="15.05" y="-102.6" font-family="Work Sans" font-size="8.00"> </text>
<text text-anchor="start" x="17.27" y="-102.6" font-family="Work Sans" font-size="8.00">EVENT&#45;TIME&#45;REL</text>
<text text-anchor="start" x="83.51" y="-102.6" font-family="Work Sans" font-size="8.00"> </text>
<text text-anchor="start" x="26.68" y="-94.6" font-family="Work Sans" font-size="8.00"> </text>
<text text-anchor="start" x="28.9" y="-94.6" font-family="Work Sans" font-size="8.00" fill="red">F</text>
<text text-anchor="start" x="33.79" y="-94.6" font-family="Work Sans" font-size="8.00"> </text>
<text text-anchor="start" x="36.01" y="-94.6" font-family="Work Sans" font-size="8.00" fill="blue">ONE&#45;DAY</text>
<text text-anchor="start" x="71.87" y="-94.6" font-family="Work Sans" font-size="8.00"> </text>
<text text-anchor="start" x="49.28" y="-86.6" font-family="Work Sans" font-size="8.00" fill="green"> </text>
</a>
</g>
</g>
<!-- V40865&#45;&gt;V40823 -->
<g id="edge3" class="edge">
<title>V40865&#45;&gt;V40823</title>
<path fill="none" stroke="red" d="M60.59,-172.9C42.73,-169.67 15.33,-161.63 2.53,-142 -3.12,-133.34 1.93,-125.48 10.54,-119.02"/>
<polygon fill="red" stroke="red" points="11.88,-120.22 15.03,-115.96 9.91,-117.33 11.88,-120.22"/>
<text text-anchor="middle" x="17.32" y="-135.6" font-family="Work Sans" font-size="8.00"> TIME &#160;&#160;</text>
</g>
<!-- V40865&#45;&gt;V40823 -->
<g id="edge8" class="edge">
<title>V40865&#45;&gt;V40823</title>
<path fill="none" stroke="blue" d="M68.52,-159.92C65.55,-154.41 62.43,-148.05 60.17,-142 57.68,-135.34 55.67,-127.82 54.13,-121.06"/>
<polygon fill="blue" stroke="blue" points="55.82,-120.58 53.05,-116.07 52.4,-121.32 55.82,-120.58"/>
<text text-anchor="middle" x="61.5" y="-135.6" font-family="Work Sans" font-size="8.00">.</text>
</g>
<!-- V40842 -->
<g id="node5" class="node">
<title>V40842</title>
<g id="a_node5"><a xlink:href="http://trips.ihmc.us/lexicon/data/ONT::MALE-PERSON.xml" xlink:title="&lt;font color=&quot;green&quot;&gt;&lt;br /&gt;&lt;/font&gt; &lt;font color=&quot;black&quot;&gt;MALE&#45;PERSON&lt;/font&gt; &lt;font color=&quot;green&quot;&gt;&lt;br /&gt;&lt;/font&gt; &lt;font color=&quot;red&quot;&gt;PRO&lt;/font&gt; &lt;font color=&quot;blue&quot;&gt;HE&lt;/font&gt; &lt;font color=&quot;green&quot;&gt;&lt;br /&gt;&lt;/font&gt; &lt;font color=&quot;green&quot;&gt;man%1:18:00&lt;/font&gt; &lt;font color=&quot;green&quot;&gt;&lt;br /&gt; &lt;/font&gt;">
<text text-anchor="start" x="104.05" y="-26.6" font-family="Work Sans" font-size="8.00"> </text>
<text text-anchor="start" x="106.27" y="-26.6" font-family="Work Sans" font-size="8.00">MALE&#45;PERSON</text>
<text text-anchor="start" x="164.51" y="-26.6" font-family="Work Sans" font-size="8.00"> </text>
<text text-anchor="start" x="117.83" y="-18.6" font-family="Work Sans" font-size="8.00"> </text>
<text text-anchor="start" x="120.05" y="-18.6" font-family="Work Sans" font-size="8.00" fill="red">PRO</text>
<text text-anchor="start" x="137.39" y="-18.6" font-family="Work Sans" font-size="8.00"> </text>
<text text-anchor="start" x="139.61" y="-18.6" font-family="Work Sans" font-size="8.00" fill="blue">HE</text>
<text text-anchor="start" x="150.72" y="-18.6" font-family="Work Sans" font-size="8.00"> </text>
<text text-anchor="start" x="108.48" y="-10.6" font-family="Work Sans" font-size="8.00"> </text>
<text text-anchor="start" x="110.7" y="-10.6" font-family="Work Sans" font-size="8.00" fill="green">man%1:18:00</text>
<text text-anchor="start" x="160.07" y="-10.6" font-family="Work Sans" font-size="8.00"> </text>
<text text-anchor="start" x="134.28" y="-2.6" font-family="Work Sans" font-size="8.00" fill="green"> </text>
</a>
</g>
</g>
<!-- V40865&#45;&gt;V40842 -->
<g id="edge7" class="edge">
<title>V40865&#45;&gt;V40842</title>
<path fill="none" stroke="grey" stroke-width="0.5" d="M94.12,-160.59C99.4,-155.24 104.78,-148.81 108.39,-142 124.75,-111.1 131.22,-70.69 133.76,-45.29"/>
<polygon fill="grey" stroke="grey" stroke-width="0.5" points="135.52,-45.24 134.25,-40.1 132.04,-44.92 135.52,-45.24"/>
<text text-anchor="middle" x="146.32" y="-97.6" font-family="Work Sans" font-size="8.00"> AGENT &#160;&#160;</text>
</g>
<!-- V40870 -->
<g id="node6" class="node">
<title>V40870</title>
<g id="a_node6"><a xlink:href="http://trips.ihmc.us/lexicon/data/ONT::BETWEEN.xml" xlink:title="&lt;font color=&quot;green&quot;&gt;&lt;br /&gt;&lt;/font&gt; &lt;font color=&quot;black&quot;&gt;BETWEEN&lt;/font&gt; &lt;font color=&quot;green&quot;&gt;&lt;br /&gt;&lt;/font&gt; &lt;font color=&quot;red&quot;&gt;F&lt;/font&gt; &lt;font color=&quot;blue&quot;&gt;BETWEEN&lt;/font&gt; &lt;font color=&quot;green&quot;&gt;&lt;br /&gt; &lt;/font&gt;">
<text text-anchor="start" x="188.39" y="-102.6" font-family="Work Sans" font-size="8.00"> </text>
<text text-anchor="start" x="190.61" y="-102.6" font-family="Work Sans" font-size="8.00">BETWEEN</text>
<text text-anchor="start" x="230.17" y="-102.6" font-family="Work Sans" font-size="8.00"> </text>
<text text-anchor="start" x="184.83" y="-94.6" font-family="Work Sans" font-size="8.00"> </text>
<text text-anchor="start" x="187.05" y="-94.6" font-family="Work Sans" font-size="8.00" fill="red">F</text>
<text text-anchor="start" x="191.94" y="-94.6" font-family="Work Sans" font-size="8.00"> </text>
<text text-anchor="start" x="194.16" y="-94.6" font-family="Work Sans" font-size="8.00" fill="blue">BETWEEN</text>
<text text-anchor="start" x="233.72" y="-94.6" font-family="Work Sans" font-size="8.00"> </text>
<text text-anchor="start" x="209.28" y="-86.6" font-family="Work Sans" font-size="8.00" fill="green"> </text>
</a>
</g>
</g>
<!-- V40865&#45;&gt;V40870 -->
<g id="edge4" class="edge">
<title>V40865&#45;&gt;V40870</title>
<path fill="none" stroke="grey" stroke-width="0.5" d="M94.14,-167.5C108.07,-161.12 128.3,-151.5 145.39,-142 158.15,-134.9 171.89,-126.38 183.43,-118.95"/>
<polygon fill="grey" stroke="grey" stroke-width="0.5" points="184.65,-120.24 187.9,-116.05 182.75,-117.3 184.65,-120.24"/>
<text text-anchor="middle" x="178.25" y="-135.6" font-family="Work Sans" font-size="8.00"> RESULT &#160;&#160;</text>
</g>
<!-- V40823&#45;&gt;V40865 -->
<g id="edge1" class="edge">
<title>V40823&#45;&gt;V40865</title>
<path fill="none" stroke="grey" stroke-width="0.5" d="M55.88,-116.06C59.94,-127.18 65.51,-142.44 69.96,-154.64"/>
<polygon fill="grey" stroke="grey" stroke-width="0.5" points="68.44,-155.57 71.79,-159.67 71.72,-154.37 68.44,-155.57"/>
<text text-anchor="middle" x="84.94" y="-135.6" font-family="Work Sans" font-size="8.00"> FIGURE &#160;&#160;</text>
</g>
<!-- V41006 -->
<g id="node4" class="node">
<title>V41006</title>
<g id="a_node4"><a xlink:href="http://trips.ihmc.us/lexicon/data/ONT::TIME-LOC.xml" xlink:title="&lt;font color=&quot;green&quot;&gt;&lt;br /&gt;&lt;/font&gt; &lt;font color=&quot;black&quot;&gt;TIME&#45;LOC&lt;/font&gt; &lt;font color=&quot;green&quot;&gt;&lt;br /&gt;&lt;/font&gt; &lt;font color=&quot;red&quot;&gt;IMPRO&lt;/font&gt; &lt;font color=&quot;blue&quot;&gt;SOMETIME&lt;/font&gt; &lt;font color=&quot;green&quot;&gt;&lt;br /&gt; &lt;/font&gt;">
<polygon fill="pink" stroke="transparent" stroke-width="0.5" points="10.83,-4 48.39,-4 48.39,-36 10.83,-36 10.83,-4"/>
<polygon fill="lightblue" stroke="transparent" stroke-width="0.5" points="48.39,-4 85.95,-4 85.95,-36 48.39,-36 48.39,-4"/>
<polygon fill="none" stroke="transparent" points="85.95,-36 10.83,-36 10.83,-4 85.95,-4 85.95,-36"/>
<text text-anchor="start" x="27.05" y="-22.6" font-family="Work Sans" font-size="8.00"> </text>
<text text-anchor="start" x="29.28" y="-22.6" font-family="Work Sans" font-size="8.00">TIME&#45;LOC</text>
<text text-anchor="start" x="67.5" y="-22.6" font-family="Work Sans" font-size="8.00"> </text>
<text text-anchor="start" x="10.61" y="-14.6" font-family="Work Sans" font-size="8.00"> </text>
<text text-anchor="start" x="12.83" y="-14.6" font-family="Work Sans" font-size="8.00" fill="red">IMPRO</text>
<text text-anchor="start" x="39.05" y="-14.6" font-family="Work Sans" font-size="8.00"> </text>
<text text-anchor="start" x="41.28" y="-14.6" font-family="Work Sans" font-size="8.00" fill="blue">SOMETIME</text>
<text text-anchor="start" x="83.94" y="-14.6" font-family="Work Sans" font-size="8.00"> </text>
<text text-anchor="start" x="47.28" y="-6.6" font-family="Work Sans" font-size="8.00" fill="green"> </text>
</a>
</g>
</g>
<!-- V40823&#45;&gt;V41006 -->
<g id="edge6" class="edge">
<title>V40823&#45;&gt;V41006</title>
<path fill="none" stroke="grey" stroke-width="0.5" d="M50,-83.96C49.69,-71.85 49.25,-54.69 48.91,-41.35"/>
<polygon fill="grey" stroke="grey" stroke-width="0.5" points="50.66,-41.21 48.78,-36.26 47.16,-41.3 50.66,-41.21"/>
<text text-anchor="middle" x="72.61" y="-59.6" font-family="Work Sans" font-size="8.00"> GROUND &#160;&#160;</text>
</g>
<!-- V40870&#45;&gt;V40842 -->
<g id="edge2" class="edge">
<title>V40870&#45;&gt;V40842</title>
<path fill="none" stroke="grey" stroke-width="0.5" d="M194.21,-83.76C188.47,-78.25 182.01,-71.92 176.27,-66 169.46,-58.97 162.21,-51.12 155.74,-43.97"/>
<polygon fill="grey" stroke="grey" stroke-width="0.5" points="156.88,-42.62 152.23,-40.08 154.28,-44.96 156.88,-42.62"/>
<text text-anchor="middle" x="195.94" y="-59.6" font-family="Work Sans" font-size="8.00"> FIGURE &#160;&#160;</text>
</g>
<!-- V40879 -->
<g id="node7" class="node">
<title>V40879</title>
<g id="a_node7"><a xlink:href="http://trips.ihmc.us/lexicon/data/ONT::GENERAL-STRUCTURE.xml" xlink:title="&lt;font color=&quot;green&quot;&gt;&lt;br /&gt;&lt;/font&gt; &lt;font color=&quot;black&quot;&gt;GENERAL&#45;STRUCTURE&lt;/font&gt; &lt;font color=&quot;green&quot;&gt;&lt;br /&gt;&lt;/font&gt; &lt;font color=&quot;red&quot;&gt;INDEF&#45;SET&lt;/font&gt; &lt;font color=&quot;blue&quot;&gt;BUILDING&lt;/font&gt; &lt;font color=&quot;green&quot;&gt;&lt;br /&gt;&lt;/font&gt; &lt;font color=&quot;green&quot;&gt;structure%1:06:00&lt;/font&gt; &lt;font color=&quot;green&quot;&gt;&lt;br /&gt; &lt;/font&gt;">
<polygon fill="pink" stroke="transparent" stroke-width="0.5" points="185.21,0 232.39,0 232.39,-40 185.21,-40 185.21,0"/>
<polygon fill="lightblue" stroke="transparent" stroke-width="0.5" points="232.39,0 279.56,0 279.56,-40 232.39,-40 232.39,0"/>
<polygon fill="none" stroke="transparent" points="279.56,-40 185.21,-40 185.21,0 279.56,0 279.56,-40"/>
<text text-anchor="start" x="185.05" y="-26.6" font-family="Work Sans" font-size="8.00"> </text>
<text text-anchor="start" x="187.27" y="-26.6" font-family="Work Sans" font-size="8.00">GENERAL&#45;STRUCTURE</text>
<text text-anchor="start" x="277.5" y="-26.6" font-family="Work Sans" font-size="8.00"> </text>
<text text-anchor="start" x="189.05" y="-18.6" font-family="Work Sans" font-size="8.00"> </text>
<text text-anchor="start" x="191.27" y="-18.6" font-family="Work Sans" font-size="8.00" fill="red">INDEF&#45;SET</text>
<text text-anchor="start" x="233.5" y="-18.6" font-family="Work Sans" font-size="8.00"> </text>
<text text-anchor="start" x="235.72" y="-18.6" font-family="Work Sans" font-size="8.00" fill="blue">BUILDING</text>
<text text-anchor="start" x="273.5" y="-18.6" font-family="Work Sans" font-size="8.00"> </text>
<text text-anchor="start" x="197.7" y="-10.6" font-family="Work Sans" font-size="8.00"> </text>
<text text-anchor="start" x="199.93" y="-10.6" font-family="Work Sans" font-size="8.00" fill="green">structure%1:06:00</text>
<text text-anchor="start" x="264.85" y="-10.6" font-family="Work Sans" font-size="8.00"> </text>
<text text-anchor="start" x="231.28" y="-2.6" font-family="Work Sans" font-size="8.00" fill="green"> </text>
</a>
</g>
</g>
<!-- V40870&#45;&gt;V40879 -->
<g id="edge5" class="edge">
<title>V40870&#45;&gt;V40879</title>
<path fill="none" stroke="grey" stroke-width="0.5" d="M214.63,-83.96C217.74,-72.94 222.02,-57.75 225.6,-45.05"/>
<polygon fill="grey" stroke="grey" stroke-width="0.5" points="227.32,-45.43 226.99,-40.14 223.95,-44.48 227.32,-45.43"/>
<text text-anchor="middle" x="243.61" y="-59.6" font-family="Work Sans" font-size="8.00"> GROUND &#160;&#160;</text>
</g>
</g>
</svg>
