<?xml version="1.0" encoding="UTF-8" standalone="no"?>
<!DOCTYPE svg PUBLIC "-//W3C//DTD SVG 1.1//EN"
 "http://www.w3.org/Graphics/SVG/1.1/DTD/svg11.dtd">
<!-- Generated by graphviz version 2.43.0 (0)
 -->
<!-- Title: graph Pages: 1 -->
<svg width="277pt" height="292pt"
 viewBox="0.00 0.00 276.54 292.00" xmlns="http://www.w3.org/2000/svg" xmlns:xlink="http://www.w3.org/1999/xlink">
<g id="graph0" class="graph" transform="scale(1 1) rotate(0) translate(4 288)">
<title>graph</title>
<polygon fill="white" stroke="transparent" points="-4,4 -4,-288 272.54,-288 272.54,4 -4,4"/>
<!-- V86618 -->
<g id="node1" class="node">
<title>V86618</title>
<g id="a_node1"><a xlink:href="http://trips.ihmc.us/lexicon/data/ONT::SA_TELL.xml" xlink:title="&lt;font color=&quot;green&quot;&gt;&lt;br /&gt;&lt;/font&gt; &lt;font color=&quot;black&quot;&gt;SA_TELL&lt;/font&gt; &lt;font color=&quot;green&quot;&gt;&lt;br /&gt;&lt;/font&gt; &lt;font color=&quot;red&quot;&gt;SPEECHACT&lt;/font&gt; &lt;font color=&quot;blue&quot;&gt;* &lt;/font&gt; &lt;font color=&quot;green&quot;&gt;&lt;br /&gt; &lt;/font&gt;">
<polygon fill="pink" stroke="transparent" stroke-width="0.5" points="89.57,-252 119.97,-252 119.97,-284 89.57,-284 89.57,-252"/>
<polygon fill="lightblue" stroke="transparent" stroke-width="0.5" points="119.97,-252 150.38,-252 150.38,-284 119.97,-284 119.97,-252"/>
<polygon fill="none" stroke="transparent" points="150.38,-284 89.57,-284 89.57,-252 150.38,-252 150.38,-284"/>
<text text-anchor="start" x="100.63" y="-270.6" font-family="Work Sans" font-size="8.00"> </text>
<text text-anchor="start" x="102.85" y="-270.6" font-family="Work Sans" font-size="8.00">SA_TELL</text>
<text text-anchor="start" x="137.1" y="-270.6" font-family="Work Sans" font-size="8.00"> </text>
<text text-anchor="start" x="89.52" y="-262.6" font-family="Work Sans" font-size="8.00"> </text>
<text text-anchor="start" x="91.75" y="-262.6" font-family="Work Sans" font-size="8.00" fill="red">SPEECHACT</text>
<text text-anchor="start" x="140.64" y="-262.6" font-family="Work Sans" font-size="8.00"> </text>
<text text-anchor="start" x="142.87" y="-262.6" font-family="Work Sans" font-size="8.00" fill="blue">* </text>
<text text-anchor="start" x="148.2" y="-262.6" font-family="Work Sans" font-size="8.00"> </text>
<text text-anchor="start" x="118.86" y="-254.6" font-family="Work Sans" font-size="8.00" fill="green"> </text>
</a>
</g>
</g>
<!-- V86398 -->
<g id="node2" class="node">
<title>V86398</title>
<g id="a_node2"><a xlink:href="http://trips.ihmc.us/lexicon/data/ONT::APPRECIATE.xml" xlink:title="&lt;font color=&quot;green&quot;&gt;&lt;br /&gt;&lt;/font&gt; &lt;font color=&quot;black&quot;&gt;APPRECIATE&lt;/font&gt; &lt;font color=&quot;green&quot;&gt;&lt;br /&gt;&lt;/font&gt; &lt;font color=&quot;red&quot;&gt;F&lt;/font&gt; &lt;font color=&quot;blue&quot;&gt;LOVE&lt;/font&gt; &lt;font color=&quot;green&quot;&gt;&lt;br /&gt;&lt;/font&gt; &lt;font color=&quot;green&quot;&gt;love%2:37:00::&lt;/font&gt; &lt;font color=&quot;green&quot;&gt;&lt;br /&gt; &lt;/font&gt;">
<text text-anchor="start" x="92.71" y="-194.6" font-family="Work Sans" font-size="8.00"> </text>
<text text-anchor="start" x="94.93" y="-194.6" font-family="Work Sans" font-size="8.00">APPRECIATE</text>
<text text-anchor="start" x="145.02" y="-194.6" font-family="Work Sans" font-size="8.00"> </text>
<text text-anchor="start" x="103.53" y="-186.6" font-family="Work Sans" font-size="8.00"> </text>
<text text-anchor="start" x="105.75" y="-186.6" font-family="Work Sans" font-size="8.00" fill="red">F</text>
<text text-anchor="start" x="110.63" y="-186.6" font-family="Work Sans" font-size="8.00"> </text>
<text text-anchor="start" x="112.86" y="-186.6" font-family="Work Sans" font-size="8.00" fill="blue">LOVE</text>
<text text-anchor="start" x="134.2" y="-186.6" font-family="Work Sans" font-size="8.00"> </text>
<text text-anchor="start" x="91.29" y="-178.6" font-family="Work Sans" font-size="8.00"> </text>
<text text-anchor="start" x="93.51" y="-178.6" font-family="Work Sans" font-size="8.00" fill="green">love%2:37:00::</text>
<text text-anchor="start" x="146.44" y="-178.6" font-family="Work Sans" font-size="8.00"> </text>
<text text-anchor="start" x="118.86" y="-170.6" font-family="Work Sans" font-size="8.00" fill="green"> </text>
</a>
</g>
</g>
<!-- V86618&#45;&gt;V86398 -->
<g id="edge4" class="edge">
<title>V86618&#45;&gt;V86398</title>
<path fill="none" stroke="blue" d="M117.64,-251.92C116.87,-246.31 116.13,-239.88 115.75,-234 115.32,-227.26 115.66,-219.97 116.29,-213.25"/>
<polygon fill="blue" stroke="blue" points="118.04,-213.41 116.83,-208.25 114.56,-213.03 118.04,-213.41"/>
<text text-anchor="middle" x="117.09" y="-227.6" font-family="Work Sans" font-size="8.00">.</text>
</g>
<!-- V86618&#45;&gt;V86398 -->
<g id="edge10" class="edge">
<title>V86618&#45;&gt;V86398</title>
<path fill="none" stroke="red" d="M119.97,-251.96C119.97,-241.04 119.97,-226.02 119.97,-213.39"/>
<polygon fill="red" stroke="red" points="121.72,-213.14 119.97,-208.14 118.22,-213.14 121.72,-213.14"/>
<text text-anchor="middle" x="143.68" y="-227.6" font-family="Work Sans" font-size="8.00"> CONTENT &#160;&#160;</text>
</g>
<!-- V86392 -->
<g id="node3" class="node">
<title>V86392</title>
<g id="a_node3"><a xlink:href="http://trips.ihmc.us/lexicon/data/ONT::MALE-PERSON.xml" xlink:title="&lt;font color=&quot;green&quot;&gt;&lt;br /&gt;&lt;/font&gt; &lt;font color=&quot;black&quot;&gt;MALE&#45;PERSON&lt;/font&gt; &lt;font color=&quot;green&quot;&gt;&lt;br /&gt;&lt;/font&gt; &lt;font color=&quot;red&quot;&gt;THE&lt;/font&gt; &lt;font color=&quot;blue&quot;&gt;ALAN&lt;/font&gt; &lt;font color=&quot;green&quot;&gt;&lt;br /&gt;&lt;/font&gt; &lt;font color=&quot;green&quot;&gt;man%1:18:00&lt;/font&gt; &lt;font color=&quot;green&quot;&gt;&lt;br /&gt; &lt;/font&gt;">
<text text-anchor="start" x="85.63" y="-26.6" font-family="Work Sans" font-size="8.00"> </text>
<text text-anchor="start" x="87.86" y="-26.6" font-family="Work Sans" font-size="8.00">MALE&#45;PERSON</text>
<text text-anchor="start" x="146.09" y="-26.6" font-family="Work Sans" font-size="8.00"> </text>
<text text-anchor="start" x="95.19" y="-18.6" font-family="Work Sans" font-size="8.00"> </text>
<text text-anchor="start" x="97.41" y="-18.6" font-family="Work Sans" font-size="8.00" fill="red">THE</text>
<text text-anchor="start" x="113.41" y="-18.6" font-family="Work Sans" font-size="8.00"> </text>
<text text-anchor="start" x="115.64" y="-18.6" font-family="Work Sans" font-size="8.00" fill="blue">ALAN</text>
<text text-anchor="start" x="136.54" y="-18.6" font-family="Work Sans" font-size="8.00"> </text>
<text text-anchor="start" x="90.07" y="-10.6" font-family="Work Sans" font-size="8.00"> </text>
<text text-anchor="start" x="92.29" y="-10.6" font-family="Work Sans" font-size="8.00" fill="green">man%1:18:00</text>
<text text-anchor="start" x="141.66" y="-10.6" font-family="Work Sans" font-size="8.00"> </text>
<text text-anchor="start" x="115.86" y="-2.6" font-family="Work Sans" font-size="8.00" fill="green"> </text>
</a>
</g>
</g>
<!-- V86398&#45;&gt;V86392 -->
<g id="edge5" class="edge">
<title>V86398&#45;&gt;V86392</title>
<path fill="none" stroke="red" d="M91.07,-179.92C63.91,-171.56 24.81,-154.74 6.74,-124 -2.27,-108.68 -2.19,-99.38 6.74,-84 22.55,-56.74 55.09,-40.28 80.73,-31.06"/>
<polygon fill="red" stroke="red" points="81.61,-32.6 85.76,-29.31 80.46,-29.3 81.61,-32.6"/>
<text text-anchor="middle" x="40.09" y="-101.6" font-family="Work Sans" font-size="8.00"> EXPERIENCER &#160;&#160;</text>
</g>
<!-- V86398&#45;&gt;V86392 -->
<g id="edge8" class="edge">
<title>V86398&#45;&gt;V86392</title>
<path fill="none" stroke="blue" d="M119.63,-167.96C119.08,-137.64 118.01,-78.45 117.41,-45.18"/>
<polygon fill="blue" stroke="blue" points="119.16,-45.04 117.32,-40.08 115.66,-45.11 119.16,-45.04"/>
<text text-anchor="middle" x="120.09" y="-101.6" font-family="Work Sans" font-size="8.00">.</text>
</g>
<!-- V86433 -->
<g id="node4" class="node">
<title>V86433</title>
<g id="a_node4"><a xlink:href="http://trips.ihmc.us/lexicon/data/ONT::PLAY.xml" xlink:title="&lt;font color=&quot;green&quot;&gt;&lt;br /&gt;&lt;/font&gt; &lt;font color=&quot;black&quot;&gt;PLAY&lt;/font&gt; &lt;font color=&quot;green&quot;&gt;&lt;br /&gt;&lt;/font&gt; &lt;font color=&quot;red&quot;&gt;F&lt;/font&gt; &lt;font color=&quot;blue&quot;&gt;PLAY&lt;/font&gt; &lt;font color=&quot;green&quot;&gt;&lt;br /&gt;&lt;/font&gt; &lt;font color=&quot;green&quot;&gt;play%2:33:00::&lt;/font&gt; &lt;font color=&quot;green&quot;&gt;&lt;br /&gt; &lt;/font&gt;">
<polygon fill="pink" stroke="transparent" points="211.85,-124 154.1,-124 154.1,-84 211.85,-84 211.85,-124"/>
<text text-anchor="start" x="170.82" y="-110.6" font-family="Work Sans" font-size="8.00"> </text>
<text text-anchor="start" x="173.04" y="-110.6" font-family="Work Sans" font-size="8.00">PLAY</text>
<text text-anchor="start" x="192.91" y="-110.6" font-family="Work Sans" font-size="8.00"> </text>
<text text-anchor="start" x="167.26" y="-102.6" font-family="Work Sans" font-size="8.00"> </text>
<text text-anchor="start" x="169.49" y="-102.6" font-family="Work Sans" font-size="8.00" fill="red">F</text>
<text text-anchor="start" x="174.37" y="-102.6" font-family="Work Sans" font-size="8.00"> </text>
<text text-anchor="start" x="176.6" y="-102.6" font-family="Work Sans" font-size="8.00" fill="blue">PLAY</text>
<text text-anchor="start" x="196.46" y="-102.6" font-family="Work Sans" font-size="8.00"> </text>
<text text-anchor="start" x="154.29" y="-94.6" font-family="Work Sans" font-size="8.00"> </text>
<text text-anchor="start" x="156.51" y="-94.6" font-family="Work Sans" font-size="8.00" fill="green">play%2:33:00::</text>
<text text-anchor="start" x="209.44" y="-94.6" font-family="Work Sans" font-size="8.00"> </text>
<text text-anchor="start" x="181.86" y="-86.6" font-family="Work Sans" font-size="8.00" fill="green"> </text>
</a>
</g>
</g>
<!-- V86398&#45;&gt;V86433 -->
<g id="edge6" class="edge">
<title>V86398&#45;&gt;V86433</title>
<path fill="none" stroke="blue" d="M134.34,-167.65C140.3,-159.67 147.32,-150.36 153.75,-142 157.19,-137.53 160.9,-132.79 164.48,-128.24"/>
<polygon fill="blue" stroke="blue" points="165.99,-129.14 167.72,-124.13 163.25,-126.98 165.99,-129.14"/>
<text text-anchor="middle" x="155.09" y="-143.6" font-family="Work Sans" font-size="8.00">.</text>
</g>
<!-- V86398&#45;&gt;V86433 -->
<g id="edge7" class="edge">
<title>V86398&#45;&gt;V86433</title>
<path fill="none" stroke="red" d="M140.3,-167.8C145.67,-162.29 151.27,-156.11 155.97,-150 161.13,-143.3 166.09,-135.55 170.33,-128.39"/>
<polygon fill="red" stroke="red" points="171.87,-129.22 172.86,-124.02 168.84,-127.47 171.87,-129.22"/>
<text text-anchor="middle" x="182.94" y="-143.6" font-family="Work Sans" font-size="8.00"> FORMAL &#160;&#160;</text>
</g>
<!-- V86433&#45;&gt;V86392 -->
<g id="edge2" class="edge">
<title>V86433&#45;&gt;V86392</title>
<path fill="none" stroke="red" d="M154.09,-88.49C144.93,-82.62 135.53,-75.07 129.1,-66 124.77,-59.88 121.99,-52.3 120.2,-45.12"/>
<polygon fill="red" stroke="red" points="121.9,-44.73 119.11,-40.23 118.49,-45.49 121.9,-44.73"/>
<text text-anchor="middle" x="147.91" y="-59.6" font-family="Work Sans" font-size="8.00"> AGENT &#160;&#160;</text>
</g>
<!-- V86433&#45;&gt;V86392 -->
<g id="edge3" class="edge">
<title>V86433&#45;&gt;V86392</title>
<path fill="none" stroke="blue" d="M177.84,-83.89C174.96,-75.41 170.76,-65.65 164.97,-58 161.03,-52.78 156.17,-47.92 151.08,-43.54"/>
<polygon fill="blue" stroke="blue" points="152.11,-42.13 147.14,-40.29 149.88,-44.83 152.11,-42.13"/>
<text text-anchor="middle" x="171.09" y="-59.6" font-family="Work Sans" font-size="8.00">.</text>
</g>
<!-- V86443 -->
<g id="node5" class="node">
<title>V86443</title>
<g id="a_node5"><a xlink:href="http://trips.ihmc.us/lexicon/data/ONT::GAME.xml" xlink:title="&lt;font color=&quot;green&quot;&gt;&lt;br /&gt;&lt;/font&gt; &lt;font color=&quot;black&quot;&gt;GAME&lt;/font&gt; &lt;font color=&quot;green&quot;&gt;&lt;br /&gt;&lt;/font&gt; &lt;font color=&quot;red&quot;&gt;BARE&lt;/font&gt; &lt;font color=&quot;blue&quot;&gt;HIDE&#45;AND&#45;SEEK&lt;/font&gt; &lt;font color=&quot;green&quot;&gt;&lt;br /&gt; &lt;/font&gt;">
<text text-anchor="start" x="208.97" y="-22.6" font-family="Work Sans" font-size="8.00"> </text>
<text text-anchor="start" x="211.2" y="-22.6" font-family="Work Sans" font-size="8.00">GAME</text>
<text text-anchor="start" x="234.75" y="-22.6" font-family="Work Sans" font-size="8.00"> </text>
<text text-anchor="start" x="177.41" y="-14.6" font-family="Work Sans" font-size="8.00"> </text>
<text text-anchor="start" x="179.63" y="-14.6" font-family="Work Sans" font-size="8.00" fill="red">BARE</text>
<text text-anchor="start" x="201.42" y="-14.6" font-family="Work Sans" font-size="8.00"> </text>
<text text-anchor="start" x="203.64" y="-14.6" font-family="Work Sans" font-size="8.00" fill="blue">HIDE&#45;AND&#45;SEEK</text>
<text text-anchor="start" x="266.32" y="-14.6" font-family="Work Sans" font-size="8.00"> </text>
<text text-anchor="start" x="221.86" y="-6.6" font-family="Work Sans" font-size="8.00" fill="green"> </text>
</a>
</g>
</g>
<!-- V86433&#45;&gt;V86443 -->
<g id="edge1" class="edge">
<title>V86433&#45;&gt;V86443</title>
<path fill="none" stroke="blue" d="M192.25,-83.98C198.58,-71 206.95,-53.85 213.35,-40.73"/>
<polygon fill="blue" stroke="blue" points="215,-41.35 215.61,-36.09 211.85,-39.81 215,-41.35"/>
<text text-anchor="middle" x="205.09" y="-59.6" font-family="Work Sans" font-size="8.00">.</text>
</g>
<!-- V86433&#45;&gt;V86443 -->
<g id="edge9" class="edge">
<title>V86433&#45;&gt;V86443</title>
<path fill="none" stroke="red" d="M198.9,-83.84C202.93,-78.33 206.96,-72.14 209.97,-66 213.76,-58.29 216.63,-49.28 218.7,-41.36"/>
<polygon fill="red" stroke="red" points="220.51,-41.35 220.01,-36.07 217.11,-40.51 220.51,-41.35"/>
<text text-anchor="middle" x="238.31" y="-59.6" font-family="Work Sans" font-size="8.00"> AFFECTED &#160;&#160;</text>
</g>
</g>
</svg>
