<?xml version="1.0" encoding="UTF-8" standalone="no"?>
<!DOCTYPE svg PUBLIC "-//W3C//DTD SVG 1.1//EN"
 "http://www.w3.org/Graphics/SVG/1.1/DTD/svg11.dtd">
<!-- Generated by graphviz version 2.43.0 (0)
 -->
<!-- Title: graph Pages: 1 -->
<svg width="344pt" height="368pt"
 viewBox="0.00 0.00 344.45 368.00" xmlns="http://www.w3.org/2000/svg" xmlns:xlink="http://www.w3.org/1999/xlink">
<g id="graph0" class="graph" transform="scale(1 1) rotate(0) translate(4 364)">
<title>graph</title>
<polygon fill="white" stroke="transparent" points="-4,4 -4,-364 340.45,-364 340.45,4 -4,4"/>
<!-- V90532 -->
<g id="node1" class="node">
<title>V90532</title>
<g id="a_node1"><a xlink:href="http://trips.ihmc.us/lexicon/data/ONT::SA_TELL.xml" xlink:title="&lt;font color=&quot;green&quot;&gt;&lt;br /&gt;&lt;/font&gt; &lt;font color=&quot;black&quot;&gt;SA_TELL&lt;/font&gt; &lt;font color=&quot;green&quot;&gt;&lt;br /&gt;&lt;/font&gt; &lt;font color=&quot;red&quot;&gt;SPEECHACT&lt;/font&gt; &lt;font color=&quot;blue&quot;&gt;* &lt;/font&gt; &lt;font color=&quot;green&quot;&gt;&lt;br /&gt; &lt;/font&gt;">
<text text-anchor="start" x="95" y="-346.6" font-family="Work Sans" font-size="8.00"> </text>
<text text-anchor="start" x="97.22" y="-346.6" font-family="Work Sans" font-size="8.00">SA_TELL</text>
<text text-anchor="start" x="131.46" y="-346.6" font-family="Work Sans" font-size="8.00"> </text>
<text text-anchor="start" x="83.89" y="-338.6" font-family="Work Sans" font-size="8.00"> </text>
<text text-anchor="start" x="86.11" y="-338.6" font-family="Work Sans" font-size="8.00" fill="red">SPEECHACT</text>
<text text-anchor="start" x="135.01" y="-338.6" font-family="Work Sans" font-size="8.00"> </text>
<text text-anchor="start" x="137.23" y="-338.6" font-family="Work Sans" font-size="8.00" fill="blue">* </text>
<text text-anchor="start" x="142.57" y="-338.6" font-family="Work Sans" font-size="8.00"> </text>
<text text-anchor="start" x="113.23" y="-330.6" font-family="Work Sans" font-size="8.00" fill="green"> </text>
</a>
</g>
</g>
<!-- V89661 -->
<g id="node2" class="node">
<title>V89661</title>
<g id="a_node2"><a xlink:href="http://trips.ihmc.us/lexicon/data/ONT::COMMAND.xml" xlink:title="&lt;font color=&quot;green&quot;&gt;&lt;br /&gt;&lt;/font&gt; &lt;font color=&quot;black&quot;&gt;COMMAND&lt;/font&gt; &lt;font color=&quot;green&quot;&gt;&lt;br /&gt;&lt;/font&gt; &lt;font color=&quot;red&quot;&gt;F&lt;/font&gt; &lt;font color=&quot;blue&quot;&gt;TELL&lt;/font&gt; &lt;font color=&quot;green&quot;&gt;&lt;br /&gt;&lt;/font&gt; &lt;font color=&quot;green&quot;&gt;tell%2:32:02::&lt;/font&gt; &lt;font color=&quot;green&quot;&gt;&lt;br /&gt; &lt;/font&gt;">
<polygon fill="pink" stroke="transparent" stroke-width="0.5" points="87.92,-244 114.34,-244 114.34,-284 87.92,-284 87.92,-244"/>
<polygon fill="lightblue" stroke="transparent" stroke-width="0.5" points="114.34,-244 140.76,-244 140.76,-284 114.34,-284 114.34,-244"/>
<polygon fill="none" stroke="transparent" points="140.76,-284 87.92,-284 87.92,-244 140.76,-244 140.76,-284"/>
<text text-anchor="start" x="91.01" y="-270.6" font-family="Work Sans" font-size="8.00"> </text>
<text text-anchor="start" x="93.23" y="-270.6" font-family="Work Sans" font-size="8.00">COMMAND</text>
<text text-anchor="start" x="135.45" y="-270.6" font-family="Work Sans" font-size="8.00"> </text>
<text text-anchor="start" x="99" y="-262.6" font-family="Work Sans" font-size="8.00"> </text>
<text text-anchor="start" x="101.22" y="-262.6" font-family="Work Sans" font-size="8.00" fill="red">F</text>
<text text-anchor="start" x="106.11" y="-262.6" font-family="Work Sans" font-size="8.00"> </text>
<text text-anchor="start" x="108.33" y="-262.6" font-family="Work Sans" font-size="8.00" fill="blue">TELL</text>
<text text-anchor="start" x="127.46" y="-262.6" font-family="Work Sans" font-size="8.00"> </text>
<text text-anchor="start" x="87.88" y="-254.6" font-family="Work Sans" font-size="8.00"> </text>
<text text-anchor="start" x="90.1" y="-254.6" font-family="Work Sans" font-size="8.00" fill="green">tell%2:32:02::</text>
<text text-anchor="start" x="138.58" y="-254.6" font-family="Work Sans" font-size="8.00"> </text>
<text text-anchor="start" x="113.23" y="-246.6" font-family="Work Sans" font-size="8.00" fill="green"> </text>
</a>
</g>
</g>
<!-- V90532&#45;&gt;V89661 -->
<g id="edge9" class="edge">
<title>V90532&#45;&gt;V89661</title>
<path fill="none" stroke="grey" stroke-width="0.5" d="M114.34,-327.96C114.34,-317.04 114.34,-302.02 114.34,-289.39"/>
<polygon fill="grey" stroke="grey" stroke-width="0.5" points="116.09,-289.14 114.34,-284.14 112.59,-289.14 116.09,-289.14"/>
<text text-anchor="middle" x="138.05" y="-303.6" font-family="Work Sans" font-size="8.00"> CONTENT &#160;&#160;</text>
</g>
<!-- V89653 -->
<g id="node3" class="node">
<title>V89653</title>
<g id="a_node3"><a xlink:href="http://trips.ihmc.us/lexicon/data/ONT::MALE-PERSON.xml" xlink:title="&lt;font color=&quot;green&quot;&gt;&lt;br /&gt;&lt;/font&gt; &lt;font color=&quot;black&quot;&gt;MALE&#45;PERSON&lt;/font&gt; &lt;font color=&quot;green&quot;&gt;&lt;br /&gt;&lt;/font&gt; &lt;font color=&quot;red&quot;&gt;PRO&lt;/font&gt; &lt;font color=&quot;blue&quot;&gt;HE&lt;/font&gt; &lt;font color=&quot;green&quot;&gt;&lt;br /&gt;&lt;/font&gt; &lt;font color=&quot;green&quot;&gt;man%1:18:00&lt;/font&gt; &lt;font color=&quot;green&quot;&gt;&lt;br /&gt; &lt;/font&gt;">
<text text-anchor="start" x="0" y="-186.6" font-family="Work Sans" font-size="8.00"> </text>
<text text-anchor="start" x="2.22" y="-186.6" font-family="Work Sans" font-size="8.00">MALE&#45;PERSON</text>
<text text-anchor="start" x="60.46" y="-186.6" font-family="Work Sans" font-size="8.00"> </text>
<text text-anchor="start" x="13.78" y="-178.6" font-family="Work Sans" font-size="8.00"> </text>
<text text-anchor="start" x="16" y="-178.6" font-family="Work Sans" font-size="8.00" fill="red">PRO</text>
<text text-anchor="start" x="33.34" y="-178.6" font-family="Work Sans" font-size="8.00"> </text>
<text text-anchor="start" x="35.56" y="-178.6" font-family="Work Sans" font-size="8.00" fill="blue">HE</text>
<text text-anchor="start" x="46.68" y="-178.6" font-family="Work Sans" font-size="8.00"> </text>
<text text-anchor="start" x="4.43" y="-170.6" font-family="Work Sans" font-size="8.00"> </text>
<text text-anchor="start" x="6.66" y="-170.6" font-family="Work Sans" font-size="8.00" fill="green">man%1:18:00</text>
<text text-anchor="start" x="56.02" y="-170.6" font-family="Work Sans" font-size="8.00"> </text>
<text text-anchor="start" x="30.23" y="-162.6" font-family="Work Sans" font-size="8.00" fill="green"> </text>
</a>
</g>
</g>
<!-- V89661&#45;&gt;V89653 -->
<g id="edge5" class="edge">
<title>V89661&#45;&gt;V89653</title>
<path fill="none" stroke="grey" stroke-width="0.5" d="M87.68,-253.16C74.37,-247.09 58.92,-238.12 48.47,-226 43.33,-220.03 39.65,-212.36 37.05,-205.05"/>
<polygon fill="grey" stroke="grey" stroke-width="0.5" points="38.64,-204.27 35.43,-200.06 35.31,-205.36 38.64,-204.27"/>
<text text-anchor="middle" x="67.28" y="-219.6" font-family="Work Sans" font-size="8.00"> AGENT &#160;&#160;</text>
</g>
<!-- V89669 -->
<g id="node4" class="node">
<title>V89669</title>
<g id="a_node4"><a xlink:href="http://trips.ihmc.us/lexicon/data/ONT::PERSON.xml" xlink:title="&lt;font color=&quot;green&quot;&gt;&lt;br /&gt;&lt;/font&gt; &lt;font color=&quot;black&quot;&gt;PERSON&lt;/font&gt; &lt;font color=&quot;green&quot;&gt;&lt;br /&gt;&lt;/font&gt; &lt;font color=&quot;red&quot;&gt;PRO&lt;/font&gt; &lt;font color=&quot;blue&quot;&gt;ME&lt;/font&gt; &lt;font color=&quot;green&quot;&gt;&lt;br /&gt;&lt;/font&gt; &lt;font color=&quot;green&quot;&gt;person%1:03:00&lt;/font&gt; &lt;font color=&quot;green&quot;&gt;&lt;br /&gt; &lt;/font&gt;">
<text text-anchor="start" x="112.22" y="-102.6" font-family="Work Sans" font-size="8.00"> </text>
<text text-anchor="start" x="114.45" y="-102.6" font-family="Work Sans" font-size="8.00">PERSON</text>
<text text-anchor="start" x="148.23" y="-102.6" font-family="Work Sans" font-size="8.00"> </text>
<text text-anchor="start" x="113.34" y="-94.6" font-family="Work Sans" font-size="8.00"> </text>
<text text-anchor="start" x="115.56" y="-94.6" font-family="Work Sans" font-size="8.00" fill="red">PRO</text>
<text text-anchor="start" x="132.9" y="-94.6" font-family="Work Sans" font-size="8.00"> </text>
<text text-anchor="start" x="135.12" y="-94.6" font-family="Work Sans" font-size="8.00" fill="blue">ME</text>
<text text-anchor="start" x="147.12" y="-94.6" font-family="Work Sans" font-size="8.00"> </text>
<text text-anchor="start" x="99.98" y="-86.6" font-family="Work Sans" font-size="8.00"> </text>
<text text-anchor="start" x="102.21" y="-86.6" font-family="Work Sans" font-size="8.00" fill="green">person%1:03:00</text>
<text text-anchor="start" x="160.47" y="-86.6" font-family="Work Sans" font-size="8.00"> </text>
<text text-anchor="start" x="130.23" y="-78.6" font-family="Work Sans" font-size="8.00" fill="green"> </text>
</a>
</g>
</g>
<!-- V89661&#45;&gt;V89669 -->
<g id="edge1" class="edge">
<title>V89661&#45;&gt;V89669</title>
<path fill="none" stroke="red" stroke-width="0.5" d="M113.67,-243.93C113.21,-223.19 113.22,-189.11 116.88,-160 118.51,-147.06 121.64,-132.89 124.57,-121.27"/>
<polygon fill="red" stroke="red" stroke-width="0.5" points="126.34,-121.4 125.9,-116.12 122.95,-120.53 126.34,-121.4"/>
<text text-anchor="middle" x="137.57" y="-177.6" font-family="Work Sans" font-size="8.00"> AGENT1 &#160;&#160;</text>
</g>
<!-- V89700 -->
<g id="node5" class="node">
<title>V89700</title>
<g id="a_node5"><a xlink:href="http://trips.ihmc.us/lexicon/data/ONT::ACTIVE-PERCEPTION.xml" xlink:title="&lt;font color=&quot;green&quot;&gt;&lt;br /&gt;&lt;/font&gt; &lt;font color=&quot;black&quot;&gt;ACTIVE&#45;PERCEPTION&lt;/font&gt; &lt;font color=&quot;green&quot;&gt;&lt;br /&gt;&lt;/font&gt; &lt;font color=&quot;red&quot;&gt;F&lt;/font&gt; &lt;font color=&quot;blue&quot;&gt;SEE&lt;/font&gt; &lt;font color=&quot;green&quot;&gt;&lt;br /&gt;&lt;/font&gt; &lt;font color=&quot;green&quot;&gt;see%2:39:00::&lt;/font&gt; &lt;font color=&quot;green&quot;&gt;&lt;br /&gt; &lt;/font&gt;">
<polygon fill="pink" stroke="transparent" stroke-width="0.5" points="166.33,-160 210.34,-160 210.34,-200 166.33,-200 166.33,-160"/>
<polygon fill="lightblue" stroke="transparent" stroke-width="0.5" points="210.34,-160 254.35,-160 254.35,-200 210.34,-200 210.34,-160"/>
<polygon fill="none" stroke="transparent" points="254.35,-200 166.33,-200 166.33,-160 254.35,-160 254.35,-200"/>
<text text-anchor="start" x="166.33" y="-186.6" font-family="Work Sans" font-size="8.00"> </text>
<text text-anchor="start" x="168.56" y="-186.6" font-family="Work Sans" font-size="8.00">ACTIVE&#45;PERCEPTION</text>
<text text-anchor="start" x="252.12" y="-186.6" font-family="Work Sans" font-size="8.00"> </text>
<text text-anchor="start" x="196.56" y="-178.6" font-family="Work Sans" font-size="8.00"> </text>
<text text-anchor="start" x="198.78" y="-178.6" font-family="Work Sans" font-size="8.00" fill="red">F</text>
<text text-anchor="start" x="203.67" y="-178.6" font-family="Work Sans" font-size="8.00"> </text>
<text text-anchor="start" x="205.89" y="-178.6" font-family="Work Sans" font-size="8.00" fill="blue">SEE</text>
<text text-anchor="start" x="221.9" y="-178.6" font-family="Work Sans" font-size="8.00"> </text>
<text text-anchor="start" x="182.54" y="-170.6" font-family="Work Sans" font-size="8.00"> </text>
<text text-anchor="start" x="184.77" y="-170.6" font-family="Work Sans" font-size="8.00" fill="green">see%2:39:00::</text>
<text text-anchor="start" x="235.91" y="-170.6" font-family="Work Sans" font-size="8.00"> </text>
<text text-anchor="start" x="209.23" y="-162.6" font-family="Work Sans" font-size="8.00" fill="green"> </text>
</a>
</g>
</g>
<!-- V89661&#45;&gt;V89700 -->
<g id="edge2" class="edge">
<title>V89661&#45;&gt;V89700</title>
<path fill="none" stroke="blue" d="M135.42,-243.98C144.49,-235.89 155.25,-226.4 165.12,-218 170.76,-213.19 176.88,-208.11 182.72,-203.3"/>
<polygon fill="blue" stroke="blue" points="183.96,-204.55 186.72,-200.03 181.75,-201.84 183.96,-204.55"/>
<text text-anchor="middle" x="165.45" y="-219.6" font-family="Work Sans" font-size="8.00">.</text>
</g>
<!-- V89661&#45;&gt;V89700 -->
<g id="edge6" class="edge">
<title>V89661&#45;&gt;V89700</title>
<path fill="none" stroke="red" d="M140.99,-245.92C149.66,-239.97 159.16,-233.01 167.34,-226 175.09,-219.35 182.98,-211.48 189.85,-204.2"/>
<polygon fill="red" stroke="red" points="191.42,-205.07 193.55,-200.22 188.86,-202.69 191.42,-205.07"/>
<text text-anchor="middle" x="196.31" y="-219.6" font-family="Work Sans" font-size="8.00"> FORMAL &#160;&#160;</text>
</g>
<!-- V89700&#45;&gt;V89669 -->
<g id="edge7" class="edge">
<title>V89700&#45;&gt;V89669</title>
<path fill="none" stroke="red" d="M166.02,-167.91C152.88,-162.35 139.92,-154.12 132.1,-142 128.25,-136.04 127.04,-128.64 127.08,-121.57"/>
<polygon fill="red" stroke="red" points="128.84,-121.34 127.33,-116.27 125.34,-121.18 128.84,-121.34"/>
<text text-anchor="middle" x="165.46" y="-135.6" font-family="Work Sans" font-size="8.00"> EXPERIENCER &#160;&#160;</text>
</g>
<!-- V89700&#45;&gt;V89669 -->
<g id="edge10" class="edge">
<title>V89700&#45;&gt;V89669</title>
<path fill="none" stroke="blue" d="M208.68,-159.98C207.12,-151.32 204.12,-141.39 198.34,-134 190.32,-123.74 178.62,-115.91 167.24,-110.16"/>
<polygon fill="blue" stroke="blue" points="168,-108.58 162.73,-107.98 166.47,-111.73 168,-108.58"/>
<text text-anchor="middle" x="203.45" y="-135.6" font-family="Work Sans" font-size="8.00">.</text>
</g>
<!-- V89717 -->
<g id="node6" class="node">
<title>V89717</title>
<g id="a_node6"><a xlink:href="http://trips.ihmc.us/lexicon/data/ONT::OUTSIDE.xml" xlink:title="&lt;font color=&quot;green&quot;&gt;&lt;br /&gt;&lt;/font&gt; &lt;font color=&quot;black&quot;&gt;OUTSIDE&lt;/font&gt; &lt;font color=&quot;green&quot;&gt;&lt;br /&gt;&lt;/font&gt; &lt;font color=&quot;red&quot;&gt;F&lt;/font&gt; &lt;font color=&quot;blue&quot;&gt;OUTSIDE&lt;/font&gt; &lt;font color=&quot;green&quot;&gt;&lt;br /&gt; &lt;/font&gt;">
<text text-anchor="start" x="261.34" y="-98.6" font-family="Work Sans" font-size="8.00"> </text>
<text text-anchor="start" x="263.56" y="-98.6" font-family="Work Sans" font-size="8.00">OUTSIDE</text>
<text text-anchor="start" x="299.12" y="-98.6" font-family="Work Sans" font-size="8.00"> </text>
<text text-anchor="start" x="257.78" y="-90.6" font-family="Work Sans" font-size="8.00"> </text>
<text text-anchor="start" x="260.01" y="-90.6" font-family="Work Sans" font-size="8.00" fill="red">F</text>
<text text-anchor="start" x="264.89" y="-90.6" font-family="Work Sans" font-size="8.00"> </text>
<text text-anchor="start" x="267.12" y="-90.6" font-family="Work Sans" font-size="8.00" fill="blue">OUTSIDE</text>
<text text-anchor="start" x="302.67" y="-90.6" font-family="Work Sans" font-size="8.00"> </text>
<text text-anchor="start" x="280.23" y="-82.6" font-family="Work Sans" font-size="8.00" fill="green"> </text>
</a>
</g>
</g>
<!-- V89700&#45;&gt;V89717 -->
<g id="edge8" class="edge">
<title>V89700&#45;&gt;V89717</title>
<path fill="none" stroke="grey" stroke-width="0.5" d="M222.54,-159.98C228.16,-151.72 235.12,-142.09 242.14,-134 247.63,-127.68 254.07,-121.26 260.12,-115.58"/>
<polygon fill="grey" stroke="grey" stroke-width="0.5" points="261.35,-116.83 263.83,-112.15 258.97,-114.26 261.35,-116.83"/>
<text text-anchor="middle" x="265.94" y="-135.6" font-family="Work Sans" font-size="8.00"> LOCATION &#160;&#160;</text>
</g>
<!-- V89717&#45;&gt;V89700 -->
<g id="edge3" class="edge">
<title>V89717&#45;&gt;V89700</title>
<path fill="none" stroke="grey" stroke-width="0.5" d="M292.18,-112.09C297.35,-121.29 301.26,-132.97 295.34,-142 287.02,-154.7 273.29,-163.06 259.26,-168.56"/>
<polygon fill="grey" stroke="grey" stroke-width="0.5" points="258.59,-166.95 254.5,-170.32 259.8,-170.23 258.59,-166.95"/>
<text text-anchor="middle" x="316.9" y="-135.6" font-family="Work Sans" font-size="8.00"> FIGURE &#160;&#160;</text>
</g>
<!-- V89963 -->
<g id="node7" class="node">
<title>V89963</title>
<g id="a_node7"><a xlink:href="http://trips.ihmc.us/lexicon/data/ONT::ANY-SEM.xml" xlink:title="&lt;font color=&quot;green&quot;&gt;&lt;br /&gt;&lt;/font&gt; &lt;font color=&quot;black&quot;&gt;ANY&#45;SEM&lt;/font&gt; &lt;font color=&quot;green&quot;&gt;&lt;br /&gt;&lt;/font&gt; &lt;font color=&quot;red&quot;&gt;IMPRO&lt;/font&gt; &lt;font color=&quot;blue&quot;&gt;* &lt;/font&gt; &lt;font color=&quot;green&quot;&gt;&lt;br /&gt; &lt;/font&gt;">
<text text-anchor="start" x="261.26" y="-18.6" font-family="Work Sans" font-size="8.00"> </text>
<text text-anchor="start" x="263.48" y="-18.6" font-family="Work Sans" font-size="8.00">ANY&#45;SEM</text>
<text text-anchor="start" x="299.2" y="-18.6" font-family="Work Sans" font-size="8.00"> </text>
<text text-anchor="start" x="262.23" y="-10.6" font-family="Work Sans" font-size="8.00"> </text>
<text text-anchor="start" x="264.45" y="-10.6" font-family="Work Sans" font-size="8.00" fill="red">IMPRO</text>
<text text-anchor="start" x="290.67" y="-10.6" font-family="Work Sans" font-size="8.00"> </text>
<text text-anchor="start" x="292.89" y="-10.6" font-family="Work Sans" font-size="8.00" fill="blue">* </text>
<text text-anchor="start" x="298.23" y="-10.6" font-family="Work Sans" font-size="8.00"> </text>
<text text-anchor="start" x="280.23" y="-2.6" font-family="Work Sans" font-size="8.00" fill="green"> </text>
</a>
</g>
</g>
<!-- V89717&#45;&gt;V89963 -->
<g id="edge4" class="edge">
<title>V89717&#45;&gt;V89963</title>
<path fill="none" stroke="grey" stroke-width="0.5" d="M281.34,-79.96C281.34,-67.85 281.34,-50.69 281.34,-37.35"/>
<polygon fill="grey" stroke="grey" stroke-width="0.5" points="283.09,-37.26 281.34,-32.26 279.59,-37.26 283.09,-37.26"/>
<text text-anchor="middle" x="303.56" y="-51.6" font-family="Work Sans" font-size="8.00"> GROUND &#160;&#160;</text>
</g>
</g>
</svg>
