<?xml version="1.0" encoding="UTF-8" standalone="no"?>
<!DOCTYPE svg PUBLIC "-//W3C//DTD SVG 1.1//EN"
 "http://www.w3.org/Graphics/SVG/1.1/DTD/svg11.dtd">
<!-- Generated by graphviz version 2.43.0 (0)
 -->
<!-- Title: graph Pages: 1 -->
<svg width="196pt" height="452pt"
 viewBox="0.00 0.00 196.41 452.00" xmlns="http://www.w3.org/2000/svg" xmlns:xlink="http://www.w3.org/1999/xlink">
<g id="graph0" class="graph" transform="scale(1 1) rotate(0) translate(4 448)">
<title>graph</title>
<polygon fill="white" stroke="transparent" points="-4,4 -4,-448 192.41,-448 192.41,4 -4,4"/>
<!-- V97201 -->
<g id="node1" class="node">
<title>V97201</title>
<g id="a_node1"><a xlink:href="http://trips.ihmc.us/lexicon/data/ONT::SA_TELL.xml" xlink:title="&lt;font color=&quot;green&quot;&gt;&lt;br /&gt;&lt;/font&gt; &lt;font color=&quot;black&quot;&gt;SA_TELL&lt;/font&gt; &lt;font color=&quot;green&quot;&gt;&lt;br /&gt;&lt;/font&gt; &lt;font color=&quot;red&quot;&gt;SPEECHACT&lt;/font&gt; &lt;font color=&quot;blue&quot;&gt;* &lt;/font&gt; &lt;font color=&quot;green&quot;&gt;&lt;br /&gt; &lt;/font&gt;">
<text text-anchor="start" x="49.73" y="-430.6" font-family="Work Sans" font-size="8.00"> </text>
<text text-anchor="start" x="51.95" y="-430.6" font-family="Work Sans" font-size="8.00">SA_TELL</text>
<text text-anchor="start" x="86.19" y="-430.6" font-family="Work Sans" font-size="8.00"> </text>
<text text-anchor="start" x="38.62" y="-422.6" font-family="Work Sans" font-size="8.00"> </text>
<text text-anchor="start" x="40.84" y="-422.6" font-family="Work Sans" font-size="8.00" fill="red">SPEECHACT</text>
<text text-anchor="start" x="89.74" y="-422.6" font-family="Work Sans" font-size="8.00"> </text>
<text text-anchor="start" x="91.96" y="-422.6" font-family="Work Sans" font-size="8.00" fill="blue">* </text>
<text text-anchor="start" x="97.3" y="-422.6" font-family="Work Sans" font-size="8.00"> </text>
<text text-anchor="start" x="67.96" y="-414.6" font-family="Work Sans" font-size="8.00" fill="green"> </text>
</a>
</g>
</g>
<!-- V96743 -->
<g id="node2" class="node">
<title>V96743</title>
<g id="a_node2"><a xlink:href="http://trips.ihmc.us/lexicon/data/ONT::DEPART.xml" xlink:title="&lt;font color=&quot;green&quot;&gt;&lt;br /&gt;&lt;/font&gt; &lt;font color=&quot;black&quot;&gt;DEPART&lt;/font&gt; &lt;font color=&quot;green&quot;&gt;&lt;br /&gt;&lt;/font&gt; &lt;font color=&quot;red&quot;&gt;F&lt;/font&gt; &lt;font color=&quot;blue&quot;&gt;LEAVE&lt;/font&gt; &lt;font color=&quot;green&quot;&gt;&lt;br /&gt; &lt;/font&gt;">
<text text-anchor="start" x="50.99" y="-354.6" font-family="Work Sans" font-size="8.00"> </text>
<text text-anchor="start" x="53.21" y="-354.6" font-family="Work Sans" font-size="8.00">DEPART</text>
<text text-anchor="start" x="84.93" y="-354.6" font-family="Work Sans" font-size="8.00"> </text>
<text text-anchor="start" x="50.69" y="-346.6" font-family="Work Sans" font-size="8.00"> </text>
<text text-anchor="start" x="52.91" y="-346.6" font-family="Work Sans" font-size="8.00" fill="red">F</text>
<text text-anchor="start" x="57.8" y="-346.6" font-family="Work Sans" font-size="8.00"> </text>
<text text-anchor="start" x="60.02" y="-346.6" font-family="Work Sans" font-size="8.00" fill="blue">LEAVE</text>
<text text-anchor="start" x="85.23" y="-346.6" font-family="Work Sans" font-size="8.00"> </text>
<text text-anchor="start" x="67.96" y="-338.6" font-family="Work Sans" font-size="8.00" fill="green"> </text>
</a>
</g>
</g>
<!-- V97201&#45;&gt;V96743 -->
<g id="edge5" class="edge">
<title>V97201&#45;&gt;V96743</title>
<path fill="none" stroke="grey" stroke-width="0.5" d="M69.07,-411.67C69.07,-400.58 69.07,-385.49 69.07,-373.38"/>
<polygon fill="grey" stroke="grey" stroke-width="0.5" points="70.82,-373.06 69.07,-368.06 67.32,-373.06 70.82,-373.06"/>
<text text-anchor="middle" x="92.78" y="-387.6" font-family="Work Sans" font-size="8.00"> CONTENT &#160;&#160;</text>
</g>
<!-- V96567 -->
<g id="node3" class="node">
<title>V96567</title>
<g id="a_node3"><a xlink:href="http://trips.ihmc.us/lexicon/data/ONT::IMMEDIATE.xml" xlink:title="&lt;font color=&quot;green&quot;&gt;&lt;br /&gt;&lt;/font&gt; &lt;font color=&quot;black&quot;&gt;IMMEDIATE&lt;/font&gt; &lt;font color=&quot;green&quot;&gt;&lt;br /&gt;&lt;/font&gt; &lt;font color=&quot;red&quot;&gt;F&lt;/font&gt; &lt;font color=&quot;blue&quot;&gt;AS&#45;SOON&#45;AS&lt;/font&gt; &lt;font color=&quot;green&quot;&gt;&lt;br /&gt; &lt;/font&gt;">
<polygon fill="pink" stroke="transparent" stroke-width="0.5" points="13.28,-256 44.07,-256 44.07,-288 13.28,-288 13.28,-256"/>
<polygon fill="lightblue" stroke="transparent" stroke-width="0.5" points="44.07,-256 74.86,-256 74.86,-288 44.07,-288 44.07,-256"/>
<polygon fill="none" stroke="transparent" points="74.86,-288 13.28,-288 13.28,-256 74.86,-256 74.86,-288"/>
<text text-anchor="start" x="19.92" y="-274.6" font-family="Work Sans" font-size="8.00"> </text>
<text text-anchor="start" x="22.14" y="-274.6" font-family="Work Sans" font-size="8.00">IMMEDIATE</text>
<text text-anchor="start" x="66" y="-274.6" font-family="Work Sans" font-size="8.00"> </text>
<text text-anchor="start" x="13.18" y="-266.6" font-family="Work Sans" font-size="8.00"> </text>
<text text-anchor="start" x="15.4" y="-266.6" font-family="Work Sans" font-size="8.00" fill="red">F</text>
<text text-anchor="start" x="20.29" y="-266.6" font-family="Work Sans" font-size="8.00"> </text>
<text text-anchor="start" x="22.51" y="-266.6" font-family="Work Sans" font-size="8.00" fill="blue">AS&#45;SOON&#45;AS</text>
<text text-anchor="start" x="72.74" y="-266.6" font-family="Work Sans" font-size="8.00"> </text>
<text text-anchor="start" x="42.96" y="-258.6" font-family="Work Sans" font-size="8.00" fill="green"> </text>
</a>
</g>
</g>
<!-- V96743&#45;&gt;V96567 -->
<g id="edge4" class="edge">
<title>V96743&#45;&gt;V96567</title>
<path fill="none" stroke="blue" d="M50.56,-341.73C41.64,-336.18 31.82,-328.2 26.85,-318 22.96,-310.03 25.25,-300.95 29.26,-293.03"/>
<polygon fill="blue" stroke="blue" points="31.01,-293.5 31.94,-288.28 27.96,-291.78 31.01,-293.5"/>
<text text-anchor="middle" x="28.18" y="-311.6" font-family="Work Sans" font-size="8.00">.</text>
</g>
<!-- V96743&#45;&gt;V96567 -->
<g id="edge12" class="edge">
<title>V96743&#45;&gt;V96567</title>
<path fill="none" stroke="red" d="M52.34,-335.7C47.84,-330.56 43.58,-324.48 41.21,-318 38.37,-310.23 38.36,-301.22 39.33,-293.3"/>
<polygon fill="red" stroke="red" points="41.11,-293.23 40.13,-288.03 37.65,-292.71 41.11,-293.23"/>
<text text-anchor="middle" x="56" y="-311.6" font-family="Work Sans" font-size="8.00"> TIME &#160;&#160;</text>
</g>
<!-- V96727 -->
<g id="node8" class="node">
<title>V96727</title>
<g id="a_node8"><a xlink:href="http://trips.ihmc.us/lexicon/data/ONT::MALE-PERSON.xml" xlink:title="&lt;font color=&quot;green&quot;&gt;&lt;br /&gt;&lt;/font&gt; &lt;font color=&quot;black&quot;&gt;MALE&#45;PERSON&lt;/font&gt; &lt;font color=&quot;green&quot;&gt;&lt;br /&gt;&lt;/font&gt; &lt;font color=&quot;red&quot;&gt;PRO&lt;/font&gt; &lt;font color=&quot;blue&quot;&gt;HE&lt;/font&gt; &lt;font color=&quot;green&quot;&gt;&lt;br /&gt;&lt;/font&gt; &lt;font color=&quot;green&quot;&gt;man%1:18:00&lt;/font&gt; &lt;font color=&quot;green&quot;&gt;&lt;br /&gt; &lt;/font&gt;">
<text text-anchor="start" x="125.73" y="-278.6" font-family="Work Sans" font-size="8.00"> </text>
<text text-anchor="start" x="127.95" y="-278.6" font-family="Work Sans" font-size="8.00">MALE&#45;PERSON</text>
<text text-anchor="start" x="186.19" y="-278.6" font-family="Work Sans" font-size="8.00"> </text>
<text text-anchor="start" x="139.51" y="-270.6" font-family="Work Sans" font-size="8.00"> </text>
<text text-anchor="start" x="141.73" y="-270.6" font-family="Work Sans" font-size="8.00" fill="red">PRO</text>
<text text-anchor="start" x="159.07" y="-270.6" font-family="Work Sans" font-size="8.00"> </text>
<text text-anchor="start" x="161.29" y="-270.6" font-family="Work Sans" font-size="8.00" fill="blue">HE</text>
<text text-anchor="start" x="172.41" y="-270.6" font-family="Work Sans" font-size="8.00"> </text>
<text text-anchor="start" x="130.16" y="-262.6" font-family="Work Sans" font-size="8.00"> </text>
<text text-anchor="start" x="132.39" y="-262.6" font-family="Work Sans" font-size="8.00" fill="green">man%1:18:00</text>
<text text-anchor="start" x="181.75" y="-262.6" font-family="Work Sans" font-size="8.00"> </text>
<text text-anchor="start" x="155.96" y="-254.6" font-family="Work Sans" font-size="8.00" fill="green"> </text>
</a>
</g>
</g>
<!-- V96743&#45;&gt;V96727 -->
<g id="edge1" class="edge">
<title>V96743&#45;&gt;V96727</title>
<path fill="none" stroke="grey" stroke-width="0.5" d="M87.59,-340.16C97.13,-334.18 108.7,-326.29 118.07,-318 125.38,-311.52 132.61,-303.7 138.82,-296.4"/>
<polygon fill="grey" stroke="grey" stroke-width="0.5" points="140.29,-297.37 142.16,-292.41 137.61,-295.12 140.29,-297.37"/>
<text text-anchor="middle" x="144.01" y="-311.6" font-family="Work Sans" font-size="8.00"> AGENT &#160;&#160;</text>
</g>
<!-- V96567&#45;&gt;V96743 -->
<g id="edge3" class="edge">
<title>V96567&#45;&gt;V96743</title>
<path fill="none" stroke="grey" stroke-width="0.5" d="M59.67,-288.16C64.99,-294.37 70.3,-301.98 73.07,-310 75.34,-316.57 75.31,-324.07 74.4,-330.83"/>
<polygon fill="grey" stroke="grey" stroke-width="0.5" points="72.66,-330.62 73.55,-335.84 76.11,-331.2 72.66,-330.62"/>
<text text-anchor="middle" x="94.63" y="-311.6" font-family="Work Sans" font-size="8.00"> FIGURE &#160;&#160;</text>
</g>
<!-- V96647 -->
<g id="node4" class="node">
<title>V96647</title>
<g id="a_node4"><a xlink:href="http://trips.ihmc.us/lexicon/data/ONT::START.xml" xlink:title="&lt;font color=&quot;green&quot;&gt;&lt;br /&gt;&lt;/font&gt; &lt;font color=&quot;black&quot;&gt;START&lt;/font&gt; &lt;font color=&quot;green&quot;&gt;&lt;br /&gt;&lt;/font&gt; &lt;font color=&quot;red&quot;&gt;F&lt;/font&gt; &lt;font color=&quot;blue&quot;&gt;START&lt;/font&gt; &lt;font color=&quot;green&quot;&gt;&lt;br /&gt;&lt;/font&gt; &lt;font color=&quot;green&quot;&gt;start%1:11:00::&lt;/font&gt; &lt;font color=&quot;green&quot;&gt;&lt;br /&gt; &lt;/font&gt;">
<text text-anchor="start" x="29.1" y="-194.6" font-family="Work Sans" font-size="8.00"> </text>
<text text-anchor="start" x="31.32" y="-194.6" font-family="Work Sans" font-size="8.00">START</text>
<text text-anchor="start" x="56.82" y="-194.6" font-family="Work Sans" font-size="8.00"> </text>
<text text-anchor="start" x="25.55" y="-186.6" font-family="Work Sans" font-size="8.00"> </text>
<text text-anchor="start" x="27.77" y="-186.6" font-family="Work Sans" font-size="8.00" fill="red">F</text>
<text text-anchor="start" x="32.66" y="-186.6" font-family="Work Sans" font-size="8.00"> </text>
<text text-anchor="start" x="34.88" y="-186.6" font-family="Work Sans" font-size="8.00" fill="blue">START</text>
<text text-anchor="start" x="60.37" y="-186.6" font-family="Work Sans" font-size="8.00"> </text>
<text text-anchor="start" x="15.24" y="-178.6" font-family="Work Sans" font-size="8.00"> </text>
<text text-anchor="start" x="17.46" y="-178.6" font-family="Work Sans" font-size="8.00" fill="green">start%1:11:00::</text>
<text text-anchor="start" x="70.68" y="-178.6" font-family="Work Sans" font-size="8.00"> </text>
<text text-anchor="start" x="42.96" y="-170.6" font-family="Work Sans" font-size="8.00" fill="green"> </text>
</a>
</g>
</g>
<!-- V96567&#45;&gt;V96647 -->
<g id="edge11" class="edge">
<title>V96567&#45;&gt;V96647</title>
<path fill="none" stroke="red" d="M26.3,-255.8C20.47,-249.69 14.69,-242.16 11.62,-234 8.76,-226.39 11.32,-218.9 16.03,-212.28"/>
<polygon fill="red" stroke="red" points="17.47,-213.28 19.22,-208.28 14.73,-211.1 17.47,-213.28"/>
<text text-anchor="middle" x="34.29" y="-227.6" font-family="Work Sans" font-size="8.00"> GROUND &#160;&#160;</text>
</g>
<!-- V96567&#45;&gt;V96647 -->
<g id="edge13" class="edge">
<title>V96567&#45;&gt;V96647</title>
<path fill="none" stroke="blue" d="M51.44,-255.76C54.78,-247.12 57.66,-236.06 56.07,-226 55.4,-221.78 54.33,-217.39 53.1,-213.17"/>
<polygon fill="blue" stroke="blue" points="54.75,-212.56 51.59,-208.31 51.4,-213.6 54.75,-212.56"/>
<text text-anchor="middle" x="58.18" y="-227.6" font-family="Work Sans" font-size="8.00">.</text>
</g>
<!-- V96631 -->
<g id="node5" class="node">
<title>V96631</title>
<g id="a_node5"><a xlink:href="http://trips.ihmc.us/lexicon/data/ONT::FEMALE-PERSON.xml" xlink:title="&lt;font color=&quot;green&quot;&gt;&lt;br /&gt;&lt;/font&gt; &lt;font color=&quot;black&quot;&gt;FEMALE&#45;PERSON&lt;/font&gt; &lt;font color=&quot;green&quot;&gt;&lt;br /&gt;&lt;/font&gt; &lt;font color=&quot;red&quot;&gt;PRO&lt;/font&gt; &lt;font color=&quot;blue&quot;&gt;SHE&lt;/font&gt; &lt;font color=&quot;green&quot;&gt;&lt;br /&gt;&lt;/font&gt; &lt;font color=&quot;green&quot;&gt;woman%1:18:00&lt;/font&gt; &lt;font color=&quot;green&quot;&gt;&lt;br /&gt; &lt;/font&gt;">
<text text-anchor="start" x="18.62" y="-26.6" font-family="Work Sans" font-size="8.00"> </text>
<text text-anchor="start" x="20.84" y="-26.6" font-family="Work Sans" font-size="8.00">FEMALE&#45;PERSON</text>
<text text-anchor="start" x="89.3" y="-26.6" font-family="Work Sans" font-size="8.00"> </text>
<text text-anchor="start" x="34.84" y="-18.6" font-family="Work Sans" font-size="8.00"> </text>
<text text-anchor="start" x="37.07" y="-18.6" font-family="Work Sans" font-size="8.00" fill="red">PRO</text>
<text text-anchor="start" x="54.4" y="-18.6" font-family="Work Sans" font-size="8.00"> </text>
<text text-anchor="start" x="56.62" y="-18.6" font-family="Work Sans" font-size="8.00" fill="blue">SHE</text>
<text text-anchor="start" x="73.07" y="-18.6" font-family="Work Sans" font-size="8.00"> </text>
<text text-anchor="start" x="23.05" y="-10.6" font-family="Work Sans" font-size="8.00"> </text>
<text text-anchor="start" x="25.27" y="-10.6" font-family="Work Sans" font-size="8.00" fill="green">woman%1:18:00</text>
<text text-anchor="start" x="84.87" y="-10.6" font-family="Work Sans" font-size="8.00"> </text>
<text text-anchor="start" x="53.96" y="-2.6" font-family="Work Sans" font-size="8.00" fill="green"> </text>
</a>
</g>
</g>
<!-- V96647&#45;&gt;V96631 -->
<g id="edge6" class="edge">
<title>V96647&#45;&gt;V96631</title>
<path fill="none" stroke="grey" stroke-width="0.5" d="M28.01,-167.98C19.09,-156.16 8.88,-140.16 4.2,-124 -0.75,-106.93 -1.72,-100.76 4.2,-84 9.5,-69.01 20.04,-54.96 30.17,-43.96"/>
<polygon fill="grey" stroke="grey" stroke-width="0.5" points="31.7,-44.88 33.87,-40.05 29.16,-42.48 31.7,-44.88"/>
<text text-anchor="middle" x="23.01" y="-101.6" font-family="Work Sans" font-size="8.00"> AGENT &#160;&#160;</text>
</g>
<!-- V96700 -->
<g id="node6" class="node">
<title>V96700</title>
<g id="a_node6"><a xlink:href="http://trips.ihmc.us/lexicon/data/ONT::ESTABLISH-COMMUNICATION.xml" xlink:title="&lt;font color=&quot;green&quot;&gt;&lt;br /&gt;&lt;/font&gt; &lt;font color=&quot;black&quot;&gt;ESTABLISH&#45;COMMUNICATION&lt;/font&gt; &lt;font color=&quot;green&quot;&gt;&lt;br /&gt;&lt;/font&gt; &lt;font color=&quot;red&quot;&gt;F&lt;/font&gt; &lt;font color=&quot;blue&quot;&gt;CALL&lt;/font&gt; &lt;font color=&quot;green&quot;&gt;&lt;br /&gt;&lt;/font&gt; &lt;font color=&quot;green&quot;&gt;call%2:32:01::&lt;/font&gt; &lt;font color=&quot;green&quot;&gt;&lt;br /&gt; &lt;/font&gt;">
<polygon fill="pink" stroke="transparent" points="168.84,-124 49.3,-124 49.3,-84 168.84,-84 168.84,-124"/>
<text text-anchor="start" x="49.43" y="-110.6" font-family="Work Sans" font-size="8.00"> </text>
<text text-anchor="start" x="51.66" y="-110.6" font-family="Work Sans" font-size="8.00">ESTABLISH&#45;COMMUNICATION</text>
<text text-anchor="start" x="166.48" y="-110.6" font-family="Work Sans" font-size="8.00"> </text>
<text text-anchor="start" x="93.29" y="-102.6" font-family="Work Sans" font-size="8.00"> </text>
<text text-anchor="start" x="95.51" y="-102.6" font-family="Work Sans" font-size="8.00" fill="red">F</text>
<text text-anchor="start" x="100.4" y="-102.6" font-family="Work Sans" font-size="8.00"> </text>
<text text-anchor="start" x="102.62" y="-102.6" font-family="Work Sans" font-size="8.00" fill="blue">CALL</text>
<text text-anchor="start" x="122.63" y="-102.6" font-family="Work Sans" font-size="8.00"> </text>
<text text-anchor="start" x="81.72" y="-94.6" font-family="Work Sans" font-size="8.00"> </text>
<text text-anchor="start" x="83.94" y="-94.6" font-family="Work Sans" font-size="8.00" fill="green">call%2:32:01::</text>
<text text-anchor="start" x="134.2" y="-94.6" font-family="Work Sans" font-size="8.00"> </text>
<text text-anchor="start" x="107.96" y="-86.6" font-family="Work Sans" font-size="8.00" fill="green"> </text>
</a>
</g>
</g>
<!-- V96647&#45;&gt;V96700 -->
<g id="edge2" class="edge">
<title>V96647&#45;&gt;V96700</title>
<path fill="none" stroke="red" d="M40.5,-167.9C39.89,-159.43 40.59,-149.66 45.14,-142 48.52,-136.29 53.16,-131.37 58.39,-127.16"/>
<polygon fill="red" stroke="red" points="59.55,-128.48 62.5,-124.08 57.45,-125.68 59.55,-128.48"/>
<text text-anchor="middle" x="67.04" y="-143.6" font-family="Work Sans" font-size="8.00"> FORMAL &#160;&#160;</text>
</g>
<!-- V96647&#45;&gt;V96700 -->
<g id="edge7" class="edge">
<title>V96647&#45;&gt;V96700</title>
<path fill="none" stroke="blue" d="M69.82,-167.82C75.95,-162.49 82.13,-156.39 87.07,-150 91.91,-143.74 96.08,-136.24 99.46,-129.18"/>
<polygon fill="blue" stroke="blue" points="101.17,-129.65 101.67,-124.38 97.99,-128.19 101.17,-129.65"/>
<text text-anchor="middle" x="93.18" y="-143.6" font-family="Work Sans" font-size="8.00">.</text>
</g>
<!-- V96700&#45;&gt;V96631 -->
<g id="edge8" class="edge">
<title>V96700&#45;&gt;V96631</title>
<path fill="none" stroke="blue" d="M79.31,-83.66C73.4,-78.57 67.8,-72.62 63.85,-66 60.2,-59.9 58.03,-52.59 56.75,-45.64"/>
<polygon fill="blue" stroke="blue" points="58.44,-45.1 55.93,-40.43 54.98,-45.64 58.44,-45.1"/>
<text text-anchor="middle" x="65.18" y="-59.6" font-family="Work Sans" font-size="8.00">.</text>
</g>
<!-- V96700&#45;&gt;V96631 -->
<g id="edge9" class="edge">
<title>V96700&#45;&gt;V96631</title>
<path fill="none" stroke="red" d="M96.1,-83.84C92.25,-78.11 88.03,-71.81 84.2,-66 79.62,-59.05 74.68,-51.47 70.2,-44.54"/>
<polygon fill="red" stroke="red" points="71.65,-43.57 67.47,-40.32 68.71,-45.47 71.65,-43.57"/>
<text text-anchor="middle" x="102.01" y="-59.6" font-family="Work Sans" font-size="8.00"> AGENT &#160;&#160;</text>
</g>
<!-- V96721 -->
<g id="node7" class="node">
<title>V96721</title>
<g id="a_node7"><a xlink:href="http://trips.ihmc.us/lexicon/data/ONT::PERSON.xml" xlink:title="&lt;font color=&quot;green&quot;&gt;&lt;br /&gt;&lt;/font&gt; &lt;font color=&quot;black&quot;&gt;PERSON&lt;/font&gt; &lt;font color=&quot;green&quot;&gt;&lt;br /&gt;&lt;/font&gt; &lt;font color=&quot;red&quot;&gt;THE&#45;SET&lt;/font&gt; &lt;font color=&quot;blue&quot;&gt;COPS&lt;/font&gt; &lt;font color=&quot;green&quot;&gt;&lt;br /&gt;&lt;/font&gt; &lt;font color=&quot;green&quot;&gt;person%1:03:00&lt;/font&gt; &lt;font color=&quot;green&quot;&gt;&lt;br /&gt; &lt;/font&gt;">
<text text-anchor="start" x="121.95" y="-26.6" font-family="Work Sans" font-size="8.00"> </text>
<text text-anchor="start" x="124.18" y="-26.6" font-family="Work Sans" font-size="8.00">PERSON</text>
<text text-anchor="start" x="157.96" y="-26.6" font-family="Work Sans" font-size="8.00"> </text>
<text text-anchor="start" x="109.29" y="-18.6" font-family="Work Sans" font-size="8.00"> </text>
<text text-anchor="start" x="111.51" y="-18.6" font-family="Work Sans" font-size="8.00" fill="red">THE&#45;SET</text>
<text text-anchor="start" x="145.73" y="-18.6" font-family="Work Sans" font-size="8.00"> </text>
<text text-anchor="start" x="147.96" y="-18.6" font-family="Work Sans" font-size="8.00" fill="blue">COPS</text>
<text text-anchor="start" x="170.63" y="-18.6" font-family="Work Sans" font-size="8.00"> </text>
<text text-anchor="start" x="109.71" y="-10.6" font-family="Work Sans" font-size="8.00"> </text>
<text text-anchor="start" x="111.94" y="-10.6" font-family="Work Sans" font-size="8.00" fill="green">person%1:03:00</text>
<text text-anchor="start" x="170.2" y="-10.6" font-family="Work Sans" font-size="8.00"> </text>
<text text-anchor="start" x="139.96" y="-2.6" font-family="Work Sans" font-size="8.00" fill="green"> </text>
</a>
</g>
</g>
<!-- V96700&#45;&gt;V96721 -->
<g id="edge10" class="edge">
<title>V96700&#45;&gt;V96721</title>
<path fill="none" stroke="red" stroke-width="0.5" d="M116.49,-83.98C121.02,-72.37 126.86,-57.42 131.7,-45"/>
<polygon fill="red" stroke="red" stroke-width="0.5" points="133.39,-45.49 133.58,-40.2 130.13,-44.22 133.39,-45.49"/>
<text text-anchor="middle" x="145.3" y="-59.6" font-family="Work Sans" font-size="8.00"> AGENT1 &#160;&#160;</text>
</g>
</g>
</svg>
