<?xml version="1.0" encoding="UTF-8" standalone="no"?>
<!DOCTYPE svg PUBLIC "-//W3C//DTD SVG 1.1//EN"
 "http://www.w3.org/Graphics/SVG/1.1/DTD/svg11.dtd">
<!-- Generated by graphviz version 2.43.0 (0)
 -->
<!-- Title: graph Pages: 1 -->
<svg width="501pt" height="284pt"
 viewBox="0.00 0.00 501.13 284.00" xmlns="http://www.w3.org/2000/svg" xmlns:xlink="http://www.w3.org/1999/xlink">
<g id="graph0" class="graph" transform="scale(1 1) rotate(0) translate(4 280)">
<title>graph</title>
<polygon fill="white" stroke="transparent" points="-4,4 -4,-280 497.13,-280 497.13,4 -4,4"/>
<!-- V214706 -->
<g id="node1" class="node">
<title>V214706</title>
<g id="a_node1"><a xlink:href="http://trips.ihmc.us/lexicon/data/ONT::SA_TELL.xml" xlink:title="&lt;font color=&quot;green&quot;&gt;&lt;br /&gt;&lt;/font&gt; &lt;font color=&quot;black&quot;&gt;SA_TELL&lt;/font&gt; &lt;font color=&quot;green&quot;&gt;&lt;br /&gt;&lt;/font&gt; &lt;font color=&quot;red&quot;&gt;SPEECHACT&lt;/font&gt; &lt;font color=&quot;blue&quot;&gt;* &lt;/font&gt; &lt;font color=&quot;green&quot;&gt;&lt;br /&gt; &lt;/font&gt;">
<text text-anchor="start" x="185.44" y="-262.6" font-family="Work Sans" font-size="8.00"> </text>
<text text-anchor="start" x="187.66" y="-262.6" font-family="Work Sans" font-size="8.00">SA_TELL</text>
<text text-anchor="start" x="221.9" y="-262.6" font-family="Work Sans" font-size="8.00"> </text>
<text text-anchor="start" x="174.33" y="-254.6" font-family="Work Sans" font-size="8.00"> </text>
<text text-anchor="start" x="176.55" y="-254.6" font-family="Work Sans" font-size="8.00" fill="red">SPEECHACT</text>
<text text-anchor="start" x="225.45" y="-254.6" font-family="Work Sans" font-size="8.00"> </text>
<text text-anchor="start" x="227.67" y="-254.6" font-family="Work Sans" font-size="8.00" fill="blue">* </text>
<text text-anchor="start" x="233.01" y="-254.6" font-family="Work Sans" font-size="8.00"> </text>
<text text-anchor="start" x="203.67" y="-246.6" font-family="Work Sans" font-size="8.00" fill="green"> </text>
</a>
</g>
</g>
<!-- V213859 -->
<g id="node2" class="node">
<title>V213859</title>
<g id="a_node2"><a xlink:href="http://trips.ihmc.us/lexicon/data/ONT::HITTING.xml" xlink:title="&lt;font color=&quot;green&quot;&gt;&lt;br /&gt;&lt;/font&gt; &lt;font color=&quot;black&quot;&gt;HITTING&lt;/font&gt; &lt;font color=&quot;green&quot;&gt;&lt;br /&gt;&lt;/font&gt; &lt;font color=&quot;red&quot;&gt;F&lt;/font&gt; &lt;font color=&quot;blue&quot;&gt;BEAT&lt;/font&gt; &lt;font color=&quot;green&quot;&gt;&lt;br /&gt; &lt;/font&gt;">
<polygon fill="pink" stroke="transparent" stroke-width="0.5" points="186.34,-168 204.78,-168 204.78,-200 186.34,-200 186.34,-168"/>
<polygon fill="lightblue" stroke="transparent" stroke-width="0.5" points="204.78,-168 223.22,-168 223.22,-200 204.78,-200 204.78,-168"/>
<polygon fill="none" stroke="transparent" points="223.22,-200 186.34,-200 186.34,-168 223.22,-168 223.22,-200"/>
<text text-anchor="start" x="186.56" y="-186.6" font-family="Work Sans" font-size="8.00"> </text>
<text text-anchor="start" x="188.78" y="-186.6" font-family="Work Sans" font-size="8.00">HITTING</text>
<text text-anchor="start" x="220.78" y="-186.6" font-family="Work Sans" font-size="8.00"> </text>
<text text-anchor="start" x="188.85" y="-178.6" font-family="Work Sans" font-size="8.00"> </text>
<text text-anchor="start" x="191.07" y="-178.6" font-family="Work Sans" font-size="8.00" fill="red">F</text>
<text text-anchor="start" x="195.96" y="-178.6" font-family="Work Sans" font-size="8.00"> </text>
<text text-anchor="start" x="198.18" y="-178.6" font-family="Work Sans" font-size="8.00" fill="blue">BEAT</text>
<text text-anchor="start" x="218.49" y="-178.6" font-family="Work Sans" font-size="8.00"> </text>
<text text-anchor="start" x="203.67" y="-170.6" font-family="Work Sans" font-size="8.00" fill="green"> </text>
</a>
</g>
</g>
<!-- V214706&#45;&gt;V213859 -->
<g id="edge6" class="edge">
<title>V214706&#45;&gt;V213859</title>
<path fill="none" stroke="grey" stroke-width="0.5" d="M204.78,-243.67C204.78,-232.58 204.78,-217.49 204.78,-205.38"/>
<polygon fill="grey" stroke="grey" stroke-width="0.5" points="206.53,-205.06 204.78,-200.06 203.03,-205.06 206.53,-205.06"/>
<text text-anchor="middle" x="228.49" y="-219.6" font-family="Work Sans" font-size="8.00"> CONTENT &#160;&#160;</text>
</g>
<!-- V213792 -->
<g id="node3" class="node">
<title>V213792</title>
<g id="a_node3"><a xlink:href="http://trips.ihmc.us/lexicon/data/ONT::EVENT-TIME-REL.xml" xlink:title="&lt;font color=&quot;green&quot;&gt;&lt;br /&gt;&lt;/font&gt; &lt;font color=&quot;black&quot;&gt;EVENT&#45;TIME&#45;REL&lt;/font&gt; &lt;font color=&quot;green&quot;&gt;&lt;br /&gt;&lt;/font&gt; &lt;font color=&quot;red&quot;&gt;F&lt;/font&gt; &lt;font color=&quot;blue&quot;&gt;ONE&#45;DAY&lt;/font&gt; &lt;font color=&quot;green&quot;&gt;&lt;br /&gt; &lt;/font&gt;">
<polygon fill="pink" stroke="transparent" stroke-width="0.5" points="2.6,-88 37.78,-88 37.78,-120 2.6,-120 2.6,-88"/>
<polygon fill="lightblue" stroke="transparent" stroke-width="0.5" points="37.78,-88 72.96,-88 72.96,-120 37.78,-120 37.78,-88"/>
<polygon fill="none" stroke="transparent" points="72.96,-120 2.6,-120 2.6,-88 72.96,-88 72.96,-120"/>
<text text-anchor="start" x="2.44" y="-106.6" font-family="Work Sans" font-size="8.00"> </text>
<text text-anchor="start" x="4.66" y="-106.6" font-family="Work Sans" font-size="8.00">EVENT&#45;TIME&#45;REL</text>
<text text-anchor="start" x="70.9" y="-106.6" font-family="Work Sans" font-size="8.00"> </text>
<text text-anchor="start" x="14.07" y="-98.6" font-family="Work Sans" font-size="8.00"> </text>
<text text-anchor="start" x="16.29" y="-98.6" font-family="Work Sans" font-size="8.00" fill="red">F</text>
<text text-anchor="start" x="21.18" y="-98.6" font-family="Work Sans" font-size="8.00"> </text>
<text text-anchor="start" x="23.4" y="-98.6" font-family="Work Sans" font-size="8.00" fill="blue">ONE&#45;DAY</text>
<text text-anchor="start" x="59.26" y="-98.6" font-family="Work Sans" font-size="8.00"> </text>
<text text-anchor="start" x="36.67" y="-90.6" font-family="Work Sans" font-size="8.00" fill="green"> </text>
</a>
</g>
</g>
<!-- V213859&#45;&gt;V213792 -->
<g id="edge7" class="edge">
<title>V213859&#45;&gt;V213792</title>
<path fill="none" stroke="blue" d="M186.46,-182.57C144.14,-181.16 41.62,-175.17 20.56,-150 14.49,-142.75 17.14,-133.12 21.99,-124.64"/>
<polygon fill="blue" stroke="blue" points="23.69,-125.23 24.87,-120.06 20.73,-123.36 23.69,-125.23"/>
<text text-anchor="middle" x="21.89" y="-143.6" font-family="Work Sans" font-size="8.00">.</text>
</g>
<!-- V213859&#45;&gt;V213792 -->
<g id="edge13" class="edge">
<title>V213859&#45;&gt;V213792</title>
<path fill="none" stroke="red" d="M186.51,-182.82C158.34,-181.69 103.69,-176 66.92,-150 58.07,-143.74 51.24,-133.87 46.43,-124.96"/>
<polygon fill="red" stroke="red" points="47.8,-123.79 43.96,-120.14 44.68,-125.39 47.8,-123.79"/>
<text text-anchor="middle" x="81.71" y="-143.6" font-family="Work Sans" font-size="8.00"> TIME &#160;&#160;</text>
</g>
<!-- V213852 -->
<g id="node5" class="node">
<title>V213852</title>
<g id="a_node5"><a xlink:href="http://trips.ihmc.us/lexicon/data/ONT::CHILD.xml" xlink:title="&lt;font color=&quot;green&quot;&gt;&lt;br /&gt;&lt;/font&gt; &lt;font color=&quot;black&quot;&gt;CHILD&lt;/font&gt; &lt;font color=&quot;green&quot;&gt;&lt;br /&gt;&lt;/font&gt; &lt;font color=&quot;red&quot;&gt;A&lt;/font&gt; &lt;font color=&quot;blue&quot;&gt;KID&lt;/font&gt; &lt;font color=&quot;green&quot;&gt;&lt;br /&gt;&lt;/font&gt; &lt;font color=&quot;green&quot;&gt;kid%1:18:00::&lt;/font&gt; &lt;font color=&quot;green&quot;&gt;&lt;br /&gt; &lt;/font&gt;">
<text text-anchor="start" x="149.55" y="-110.6" font-family="Work Sans" font-size="8.00"> </text>
<text text-anchor="start" x="151.78" y="-110.6" font-family="Work Sans" font-size="8.00">CHILD</text>
<text text-anchor="start" x="175.78" y="-110.6" font-family="Work Sans" font-size="8.00"> </text>
<text text-anchor="start" x="151.11" y="-102.6" font-family="Work Sans" font-size="8.00"> </text>
<text text-anchor="start" x="153.33" y="-102.6" font-family="Work Sans" font-size="8.00" fill="red">A</text>
<text text-anchor="start" x="158.67" y="-102.6" font-family="Work Sans" font-size="8.00"> </text>
<text text-anchor="start" x="160.89" y="-102.6" font-family="Work Sans" font-size="8.00" fill="blue">KID</text>
<text text-anchor="start" x="174.23" y="-102.6" font-family="Work Sans" font-size="8.00"> </text>
<text text-anchor="start" x="137.32" y="-94.6" font-family="Work Sans" font-size="8.00"> </text>
<text text-anchor="start" x="139.54" y="-94.6" font-family="Work Sans" font-size="8.00" fill="green">kid%1:18:00::</text>
<text text-anchor="start" x="188.02" y="-94.6" font-family="Work Sans" font-size="8.00"> </text>
<text text-anchor="start" x="162.67" y="-86.6" font-family="Work Sans" font-size="8.00" fill="green"> </text>
</a>
</g>
</g>
<!-- V213859&#45;&gt;V213852 -->
<g id="edge1" class="edge">
<title>V213859&#45;&gt;V213852</title>
<path fill="none" stroke="blue" d="M186.47,-175.17C176.25,-169.73 164.42,-161.4 158.56,-150 155.34,-143.76 155.01,-136.4 155.93,-129.46"/>
<polygon fill="blue" stroke="blue" points="157.7,-129.49 156.85,-124.26 154.26,-128.88 157.7,-129.49"/>
<text text-anchor="middle" x="159.89" y="-143.6" font-family="Work Sans" font-size="8.00">.</text>
</g>
<!-- V213859&#45;&gt;V213852 -->
<g id="edge8" class="edge">
<title>V213859&#45;&gt;V213852</title>
<path fill="none" stroke="red" d="M189.72,-167.87C185.08,-162.57 180.31,-156.34 176.91,-150 173.47,-143.6 170.84,-136.19 168.86,-129.26"/>
<polygon fill="red" stroke="red" points="170.46,-128.45 167.48,-124.07 167.08,-129.36 170.46,-128.45"/>
<text text-anchor="middle" x="195.71" y="-143.6" font-family="Work Sans" font-size="8.00"> AGENT &#160;&#160;</text>
</g>
<!-- V213900 -->
<g id="node7" class="node">
<title>V213900</title>
<g id="a_node7"><a xlink:href="http://trips.ihmc.us/lexicon/data/ONT::COMPLETELY.xml" xlink:title="&lt;font color=&quot;green&quot;&gt;&lt;br /&gt;&lt;/font&gt; &lt;font color=&quot;black&quot;&gt;COMPLETELY&lt;/font&gt; &lt;font color=&quot;green&quot;&gt;&lt;br /&gt;&lt;/font&gt; &lt;font color=&quot;red&quot;&gt;F&lt;/font&gt; &lt;font color=&quot;blue&quot;&gt;DOWN&lt;/font&gt; &lt;font color=&quot;green&quot;&gt;&lt;br /&gt;&lt;/font&gt; &lt;font color=&quot;green&quot;&gt;down%4:02:02::&lt;/font&gt; &lt;font color=&quot;green&quot;&gt;&lt;br /&gt; &lt;/font&gt;">
<polygon fill="pink" stroke="transparent" stroke-width="0.5" points="270.96,-84 301.78,-84 301.78,-124 270.96,-124 270.96,-84"/>
<polygon fill="lightblue" stroke="transparent" stroke-width="0.5" points="301.78,-84 332.6,-84 332.6,-124 301.78,-124 301.78,-84"/>
<polygon fill="none" stroke="transparent" points="332.6,-124 270.96,-124 270.96,-84 332.6,-84 332.6,-124"/>
<text text-anchor="start" x="272.96" y="-110.6" font-family="Work Sans" font-size="8.00"> </text>
<text text-anchor="start" x="275.18" y="-110.6" font-family="Work Sans" font-size="8.00">COMPLETELY</text>
<text text-anchor="start" x="328.38" y="-110.6" font-family="Work Sans" font-size="8.00"> </text>
<text text-anchor="start" x="283.34" y="-102.6" font-family="Work Sans" font-size="8.00"> </text>
<text text-anchor="start" x="285.56" y="-102.6" font-family="Work Sans" font-size="8.00" fill="red">F</text>
<text text-anchor="start" x="290.45" y="-102.6" font-family="Work Sans" font-size="8.00"> </text>
<text text-anchor="start" x="292.67" y="-102.6" font-family="Work Sans" font-size="8.00" fill="blue">DOWN</text>
<text text-anchor="start" x="318" y="-102.6" font-family="Work Sans" font-size="8.00"> </text>
<text text-anchor="start" x="270.87" y="-94.6" font-family="Work Sans" font-size="8.00"> </text>
<text text-anchor="start" x="273.09" y="-94.6" font-family="Work Sans" font-size="8.00" fill="green">down%4:02:02::</text>
<text text-anchor="start" x="330.47" y="-94.6" font-family="Work Sans" font-size="8.00"> </text>
<text text-anchor="start" x="300.67" y="-86.6" font-family="Work Sans" font-size="8.00" fill="green"> </text>
</a>
</g>
</g>
<!-- V213859&#45;&gt;V213900 -->
<g id="edge5" class="edge">
<title>V213859&#45;&gt;V213900</title>
<path fill="none" stroke="red" d="M214.27,-167.75C219.94,-159.46 227.69,-149.41 236.22,-142 245.12,-134.27 255.88,-127.4 266.1,-121.73"/>
<polygon fill="red" stroke="red" points="267.18,-123.14 270.74,-119.22 265.51,-120.06 267.18,-123.14"/>
<text text-anchor="middle" x="258.56" y="-143.6" font-family="Work Sans" font-size="8.00"> MANNER &#160;&#160;</text>
</g>
<!-- V213859&#45;&gt;V213900 -->
<g id="edge14" class="edge">
<title>V213859&#45;&gt;V213900</title>
<path fill="none" stroke="blue" d="M223.16,-178.78C239.74,-174.15 263.88,-165.27 279.78,-150 285.69,-144.32 290.23,-136.73 293.61,-129.39"/>
<polygon fill="blue" stroke="blue" points="295.39,-129.67 295.76,-124.38 292.18,-128.29 295.39,-129.67"/>
<text text-anchor="middle" x="287.89" y="-143.6" font-family="Work Sans" font-size="8.00">.</text>
</g>
<!-- V213953 -->
<g id="node8" class="node">
<title>V213953</title>
<g id="a_node8"><a xlink:href="http://trips.ihmc.us/lexicon/data/ONT::PHYS-REPRESENTATION.xml" xlink:title="&lt;font color=&quot;green&quot;&gt;&lt;br /&gt;&lt;/font&gt; &lt;font color=&quot;black&quot;&gt;PHYS&#45;REPRESENTATION&lt;/font&gt; &lt;font color=&quot;green&quot;&gt;&lt;br /&gt;&lt;/font&gt; &lt;font color=&quot;red&quot;&gt;THE&lt;/font&gt; &lt;font color=&quot;blue&quot;&gt;SNOWMAN&lt;/font&gt; &lt;font color=&quot;green&quot;&gt;&lt;br /&gt;&lt;/font&gt; &lt;font color=&quot;green&quot;&gt;snowman%1:06:00::&lt;/font&gt; &lt;font color=&quot;green&quot;&gt;&lt;br /&gt; &lt;/font&gt;">
<text text-anchor="start" x="381.25" y="-110.6" font-family="Work Sans" font-size="8.00"> </text>
<text text-anchor="start" x="383.47" y="-110.6" font-family="Work Sans" font-size="8.00">PHYS&#45;REPRESENTATION</text>
<text text-anchor="start" x="480.09" y="-110.6" font-family="Work Sans" font-size="8.00"> </text>
<text text-anchor="start" x="399.11" y="-102.6" font-family="Work Sans" font-size="8.00"> </text>
<text text-anchor="start" x="401.34" y="-102.6" font-family="Work Sans" font-size="8.00" fill="red">THE</text>
<text text-anchor="start" x="417.34" y="-102.6" font-family="Work Sans" font-size="8.00"> </text>
<text text-anchor="start" x="419.56" y="-102.6" font-family="Work Sans" font-size="8.00" fill="blue">SNOWMAN</text>
<text text-anchor="start" x="462.22" y="-102.6" font-family="Work Sans" font-size="8.00"> </text>
<text text-anchor="start" x="393.31" y="-94.6" font-family="Work Sans" font-size="8.00"> </text>
<text text-anchor="start" x="395.54" y="-94.6" font-family="Work Sans" font-size="8.00" fill="green">snowman%1:06:00::</text>
<text text-anchor="start" x="468.02" y="-94.6" font-family="Work Sans" font-size="8.00"> </text>
<text text-anchor="start" x="430.67" y="-86.6" font-family="Work Sans" font-size="8.00" fill="green"> </text>
</a>
</g>
</g>
<!-- V213859&#45;&gt;V213953 -->
<g id="edge3" class="edge">
<title>V213859&#45;&gt;V213953</title>
<path fill="none" stroke="red" d="M223.39,-180.6C251.79,-176.54 307.34,-167.06 351.78,-150 367.68,-143.89 384.26,-135.04 398.17,-126.8"/>
<polygon fill="red" stroke="red" points="399.39,-128.1 402.78,-124.03 397.59,-125.1 399.39,-128.1"/>
<text text-anchor="middle" x="393.12" y="-143.6" font-family="Work Sans" font-size="8.00"> AFFECTED &#160;&#160;</text>
</g>
<!-- V213859&#45;&gt;V213953 -->
<g id="edge9" class="edge">
<title>V213859&#45;&gt;V213953</title>
<path fill="none" stroke="blue" d="M223.21,-182.83C270.48,-182 394.25,-177.21 422.78,-150 428.4,-144.64 431.04,-136.83 432.17,-129.22"/>
<polygon fill="blue" stroke="blue" points="433.93,-129.18 432.72,-124.02 430.45,-128.81 433.93,-129.18"/>
<text text-anchor="middle" x="428.89" y="-143.6" font-family="Work Sans" font-size="8.00">.</text>
</g>
<!-- V213792&#45;&gt;V213859 -->
<g id="edge10" class="edge">
<title>V213792&#45;&gt;V213859</title>
<path fill="none" stroke="grey" stroke-width="0.5" d="M60.74,-120.16C75.48,-129.49 95.25,-141.3 113.67,-150 135.91,-160.51 162.48,-169.78 181.17,-175.8"/>
<polygon fill="grey" stroke="grey" stroke-width="0.5" points="180.92,-177.56 186.22,-177.41 181.99,-174.22 180.92,-177.56"/>
<text text-anchor="middle" x="133.34" y="-143.6" font-family="Work Sans" font-size="8.00"> FIGURE &#160;&#160;</text>
</g>
<!-- V214050 -->
<g id="node4" class="node">
<title>V214050</title>
<g id="a_node4"><a xlink:href="http://trips.ihmc.us/lexicon/data/ONT::TIME-LOC.xml" xlink:title="&lt;font color=&quot;green&quot;&gt;&lt;br /&gt;&lt;/font&gt; &lt;font color=&quot;black&quot;&gt;TIME&#45;LOC&lt;/font&gt; &lt;font color=&quot;green&quot;&gt;&lt;br /&gt;&lt;/font&gt; &lt;font color=&quot;red&quot;&gt;IMPRO&lt;/font&gt; &lt;font color=&quot;blue&quot;&gt;SOMETIME&lt;/font&gt; &lt;font color=&quot;green&quot;&gt;&lt;br /&gt; &lt;/font&gt;">
<polygon fill="pink" stroke="transparent" stroke-width="0.5" points="0.22,-4 37.78,-4 37.78,-36 0.22,-36 0.22,-4"/>
<polygon fill="lightblue" stroke="transparent" stroke-width="0.5" points="37.78,-4 75.34,-4 75.34,-36 37.78,-36 37.78,-4"/>
<polygon fill="none" stroke="transparent" points="75.34,-36 0.22,-36 0.22,-4 75.34,-4 75.34,-36"/>
<text text-anchor="start" x="16.45" y="-22.6" font-family="Work Sans" font-size="8.00"> </text>
<text text-anchor="start" x="18.67" y="-22.6" font-family="Work Sans" font-size="8.00">TIME&#45;LOC</text>
<text text-anchor="start" x="56.89" y="-22.6" font-family="Work Sans" font-size="8.00"> </text>
<text text-anchor="start" x="0" y="-14.6" font-family="Work Sans" font-size="8.00"> </text>
<text text-anchor="start" x="2.22" y="-14.6" font-family="Work Sans" font-size="8.00" fill="red">IMPRO</text>
<text text-anchor="start" x="28.45" y="-14.6" font-family="Work Sans" font-size="8.00"> </text>
<text text-anchor="start" x="30.67" y="-14.6" font-family="Work Sans" font-size="8.00" fill="blue">SOMETIME</text>
<text text-anchor="start" x="73.34" y="-14.6" font-family="Work Sans" font-size="8.00"> </text>
<text text-anchor="start" x="36.67" y="-6.6" font-family="Work Sans" font-size="8.00" fill="green"> </text>
</a>
</g>
</g>
<!-- V213792&#45;&gt;V214050 -->
<g id="edge4" class="edge">
<title>V213792&#45;&gt;V214050</title>
<path fill="none" stroke="grey" stroke-width="0.5" d="M37.78,-87.96C37.78,-74.87 37.78,-55.77 37.78,-41.32"/>
<polygon fill="grey" stroke="grey" stroke-width="0.5" points="39.53,-41.22 37.78,-36.22 36.03,-41.22 39.53,-41.22"/>
<text text-anchor="middle" x="60" y="-59.6" font-family="Work Sans" font-size="8.00"> GROUND &#160;&#160;</text>
</g>
<!-- V213848 -->
<g id="node6" class="node">
<title>V213848</title>
<g id="a_node6"><a xlink:href="http://trips.ihmc.us/lexicon/data/ONT::DISTRICT.xml" xlink:title="&lt;font color=&quot;green&quot;&gt;&lt;br /&gt;&lt;/font&gt; &lt;font color=&quot;black&quot;&gt;DISTRICT&lt;/font&gt; &lt;font color=&quot;green&quot;&gt;&lt;br /&gt;&lt;/font&gt; &lt;font color=&quot;red&quot;&gt;KIND&lt;/font&gt; &lt;font color=&quot;blue&quot;&gt;NEIGHBORHOOD&lt;/font&gt; &lt;font color=&quot;green&quot;&gt;&lt;br /&gt;&lt;/font&gt; &lt;font color=&quot;green&quot;&gt;neighborhood%1:15:00::&lt;/font&gt; &lt;font color=&quot;green&quot;&gt;&lt;br /&gt; &lt;/font&gt;">
<text text-anchor="start" x="143.11" y="-26.6" font-family="Work Sans" font-size="8.00"> </text>
<text text-anchor="start" x="145.34" y="-26.6" font-family="Work Sans" font-size="8.00">DISTRICT</text>
<text text-anchor="start" x="182.22" y="-26.6" font-family="Work Sans" font-size="8.00"> </text>
<text text-anchor="start" x="117.55" y="-18.6" font-family="Work Sans" font-size="8.00"> </text>
<text text-anchor="start" x="119.78" y="-18.6" font-family="Work Sans" font-size="8.00" fill="red">KIND</text>
<text text-anchor="start" x="138.89" y="-18.6" font-family="Work Sans" font-size="8.00"> </text>
<text text-anchor="start" x="141.11" y="-18.6" font-family="Work Sans" font-size="8.00" fill="blue">NEIGHBORHOOD</text>
<text text-anchor="start" x="207.78" y="-18.6" font-family="Work Sans" font-size="8.00"> </text>
<text text-anchor="start" x="117.96" y="-10.6" font-family="Work Sans" font-size="8.00"> </text>
<text text-anchor="start" x="120.19" y="-10.6" font-family="Work Sans" font-size="8.00" fill="green">neighborhood%1:15:00::</text>
<text text-anchor="start" x="207.37" y="-10.6" font-family="Work Sans" font-size="8.00"> </text>
<text text-anchor="start" x="162.67" y="-2.6" font-family="Work Sans" font-size="8.00" fill="green"> </text>
</a>
</g>
</g>
<!-- V213852&#45;&gt;V213848 -->
<g id="edge2" class="edge">
<title>V213852&#45;&gt;V213848</title>
<path fill="none" stroke="red" stroke-width="0.5" d="M163.78,-83.98C163.78,-72.47 163.78,-57.68 163.78,-45.33"/>
<polygon fill="red" stroke="red" stroke-width="0.5" points="165.53,-45.2 163.78,-40.2 162.03,-45.2 165.53,-45.2"/>
<text text-anchor="middle" x="193.56" y="-59.6" font-family="Work Sans" font-size="8.00"> ASSOC&#45;WITH &#160;&#160;</text>
</g>
<!-- V213900&#45;&gt;V213859 -->
<g id="edge12" class="edge">
<title>V213900&#45;&gt;V213859</title>
<path fill="none" stroke="grey" stroke-width="0.5" d="M308.26,-124.05C309.98,-132.71 310.1,-142.64 304.78,-150 287.45,-173.97 252.09,-180.82 228.41,-182.62"/>
<polygon fill="grey" stroke="grey" stroke-width="0.5" points="228.13,-180.88 223.25,-182.95 228.35,-184.38 228.13,-180.88"/>
<text text-anchor="middle" x="328.34" y="-143.6" font-family="Work Sans" font-size="8.00"> FIGURE &#160;&#160;</text>
</g>
<!-- V213948 -->
<g id="node9" class="node">
<title>V213948</title>
<g id="a_node9"><a xlink:href="http://trips.ihmc.us/lexicon/data/ONT::PERSON.xml" xlink:title="&lt;font color=&quot;green&quot;&gt;&lt;br /&gt;&lt;/font&gt; &lt;font color=&quot;black&quot;&gt;PERSON&lt;/font&gt; &lt;font color=&quot;green&quot;&gt;&lt;br /&gt;&lt;/font&gt; &lt;font color=&quot;red&quot;&gt;PRO&lt;/font&gt; &lt;font color=&quot;blue&quot;&gt;MY&lt;/font&gt; &lt;font color=&quot;green&quot;&gt;&lt;br /&gt;&lt;/font&gt; &lt;font color=&quot;green&quot;&gt;person%1:03:00&lt;/font&gt; &lt;font color=&quot;green&quot;&gt;&lt;br /&gt; &lt;/font&gt;">
<text text-anchor="start" x="412.66" y="-26.6" font-family="Work Sans" font-size="8.00"> </text>
<text text-anchor="start" x="414.89" y="-26.6" font-family="Work Sans" font-size="8.00">PERSON</text>
<text text-anchor="start" x="448.67" y="-26.6" font-family="Work Sans" font-size="8.00"> </text>
<text text-anchor="start" x="413.78" y="-18.6" font-family="Work Sans" font-size="8.00"> </text>
<text text-anchor="start" x="416" y="-18.6" font-family="Work Sans" font-size="8.00" fill="red">PRO</text>
<text text-anchor="start" x="433.34" y="-18.6" font-family="Work Sans" font-size="8.00"> </text>
<text text-anchor="start" x="435.56" y="-18.6" font-family="Work Sans" font-size="8.00" fill="blue">MY</text>
<text text-anchor="start" x="447.56" y="-18.6" font-family="Work Sans" font-size="8.00"> </text>
<text text-anchor="start" x="400.42" y="-10.6" font-family="Work Sans" font-size="8.00"> </text>
<text text-anchor="start" x="402.65" y="-10.6" font-family="Work Sans" font-size="8.00" fill="green">person%1:03:00</text>
<text text-anchor="start" x="460.91" y="-10.6" font-family="Work Sans" font-size="8.00"> </text>
<text text-anchor="start" x="430.67" y="-2.6" font-family="Work Sans" font-size="8.00" fill="green"> </text>
</a>
</g>
</g>
<!-- V213953&#45;&gt;V213948 -->
<g id="edge11" class="edge">
<title>V213953&#45;&gt;V213948</title>
<path fill="none" stroke="grey" stroke-width="0.5" d="M431.78,-83.98C431.78,-72.47 431.78,-57.68 431.78,-45.33"/>
<polygon fill="grey" stroke="grey" stroke-width="0.5" points="433.53,-45.2 431.78,-40.2 430.03,-45.2 433.53,-45.2"/>
<text text-anchor="middle" x="462.46" y="-59.6" font-family="Work Sans" font-size="8.00"> ASSOC&#45;POSS &#160;&#160;</text>
</g>
</g>
</svg>
