<?xml version="1.0" encoding="UTF-8" standalone="no"?>
<!DOCTYPE svg PUBLIC "-//W3C//DTD SVG 1.1//EN"
 "http://www.w3.org/Graphics/SVG/1.1/DTD/svg11.dtd">
<!-- Generated by graphviz version 2.43.0 (0)
 -->
<!-- Title: graph Pages: 1 -->
<svg width="263pt" height="276pt"
 viewBox="0.00 0.00 262.52 276.00" xmlns="http://www.w3.org/2000/svg" xmlns:xlink="http://www.w3.org/1999/xlink">
<g id="graph0" class="graph" transform="scale(1 1) rotate(0) translate(4 272)">
<title>graph</title>
<polygon fill="white" stroke="transparent" points="-4,4 -4,-272 258.52,-272 258.52,4 -4,4"/>
<!-- V75720 -->
<g id="node1" class="node">
<title>V75720</title>
<g id="a_node1"><a xlink:href="http://trips.ihmc.us/lexicon/data/ONT::SA_WH-QUESTION.xml" xlink:title="&lt;font color=&quot;green&quot;&gt;&lt;br /&gt;&lt;/font&gt; &lt;font color=&quot;black&quot;&gt;SA_WH&#45;QUESTION&lt;/font&gt; &lt;font color=&quot;green&quot;&gt;&lt;br /&gt;&lt;/font&gt; &lt;font color=&quot;red&quot;&gt;SPEECHACT&lt;/font&gt; &lt;font color=&quot;blue&quot;&gt;* &lt;/font&gt; &lt;font color=&quot;green&quot;&gt;&lt;br /&gt; &lt;/font&gt;">
<text text-anchor="start" x="122.96" y="-254.6" font-family="Work Sans" font-size="8.00"> </text>
<text text-anchor="start" x="125.19" y="-254.6" font-family="Work Sans" font-size="8.00">SA_WH&#45;QUESTION</text>
<text text-anchor="start" x="198.08" y="-254.6" font-family="Work Sans" font-size="8.00"> </text>
<text text-anchor="start" x="131.18" y="-246.6" font-family="Work Sans" font-size="8.00"> </text>
<text text-anchor="start" x="133.41" y="-246.6" font-family="Work Sans" font-size="8.00" fill="red">SPEECHACT</text>
<text text-anchor="start" x="182.3" y="-246.6" font-family="Work Sans" font-size="8.00"> </text>
<text text-anchor="start" x="184.53" y="-246.6" font-family="Work Sans" font-size="8.00" fill="blue">* </text>
<text text-anchor="start" x="189.86" y="-246.6" font-family="Work Sans" font-size="8.00"> </text>
<text text-anchor="start" x="160.52" y="-238.6" font-family="Work Sans" font-size="8.00" fill="green"> </text>
</a>
</g>
</g>
<!-- V75345 -->
<g id="node2" class="node">
<title>V75345</title>
<g id="a_node2"><a xlink:href="http://trips.ihmc.us/lexicon/data/ONT::OCCURRING.xml" xlink:title="&lt;font color=&quot;green&quot;&gt;&lt;br /&gt;&lt;/font&gt; &lt;font color=&quot;black&quot;&gt;OCCURRING&lt;/font&gt; &lt;font color=&quot;green&quot;&gt;&lt;br /&gt;&lt;/font&gt; &lt;font color=&quot;red&quot;&gt;F&lt;/font&gt; &lt;font color=&quot;blue&quot;&gt;GO&lt;/font&gt; &lt;font color=&quot;green&quot;&gt;&lt;br /&gt;&lt;/font&gt; &lt;font color=&quot;green&quot;&gt;go%2:30:01::&lt;/font&gt; &lt;font color=&quot;green&quot;&gt;&lt;br /&gt; &lt;/font&gt;">
<polygon fill="pink" stroke="transparent" stroke-width="0.5" points="66.86,-152 93.63,-152 93.63,-192 66.86,-192 66.86,-152"/>
<polygon fill="lightblue" stroke="transparent" stroke-width="0.5" points="93.63,-152 120.41,-152 120.41,-192 93.63,-192 93.63,-152"/>
<polygon fill="none" stroke="transparent" points="120.41,-192 66.86,-192 66.86,-152 120.41,-152 120.41,-192"/>
<text text-anchor="start" x="66.75" y="-178.6" font-family="Work Sans" font-size="8.00"> </text>
<text text-anchor="start" x="68.97" y="-178.6" font-family="Work Sans" font-size="8.00">OCCURRING</text>
<text text-anchor="start" x="118.3" y="-178.6" font-family="Work Sans" font-size="8.00"> </text>
<text text-anchor="start" x="81.63" y="-170.6" font-family="Work Sans" font-size="8.00"> </text>
<text text-anchor="start" x="83.86" y="-170.6" font-family="Work Sans" font-size="8.00" fill="red">F</text>
<text text-anchor="start" x="88.74" y="-170.6" font-family="Work Sans" font-size="8.00"> </text>
<text text-anchor="start" x="90.97" y="-170.6" font-family="Work Sans" font-size="8.00" fill="blue">GO</text>
<text text-anchor="start" x="103.41" y="-170.6" font-family="Work Sans" font-size="8.00"> </text>
<text text-anchor="start" x="67.84" y="-162.6" font-family="Work Sans" font-size="8.00"> </text>
<text text-anchor="start" x="70.06" y="-162.6" font-family="Work Sans" font-size="8.00" fill="green">go%2:30:01::</text>
<text text-anchor="start" x="117.21" y="-162.6" font-family="Work Sans" font-size="8.00"> </text>
<text text-anchor="start" x="92.52" y="-154.6" font-family="Work Sans" font-size="8.00" fill="green"> </text>
</a>
</g>
</g>
<!-- V75720&#45;&gt;V75345 -->
<g id="edge1" class="edge">
<title>V75720&#45;&gt;V75345</title>
<path fill="none" stroke="grey" stroke-width="0.5" d="M148.52,-235.96C138.66,-224.65 124.97,-208.94 113.73,-196.05"/>
<polygon fill="grey" stroke="grey" stroke-width="0.5" points="114.93,-194.76 110.32,-192.14 112.29,-197.06 114.93,-194.76"/>
<text text-anchor="middle" x="155.34" y="-211.6" font-family="Work Sans" font-size="8.00"> CONTENT &#160;&#160;</text>
</g>
<!-- V75389 -->
<g id="node4" class="node">
<title>V75389</title>
<g id="a_node4"><a xlink:href="http://trips.ihmc.us/lexicon/data/ONT::METHOD.xml" xlink:title="&lt;font color=&quot;green&quot;&gt;&lt;br /&gt;&lt;/font&gt; &lt;font color=&quot;black&quot;&gt;METHOD&lt;/font&gt; &lt;font color=&quot;green&quot;&gt;&lt;br /&gt;&lt;/font&gt; &lt;font color=&quot;red&quot;&gt;WH&#45;TERM&lt;/font&gt; &lt;font color=&quot;blue&quot;&gt;* &lt;/font&gt; &lt;font color=&quot;green&quot;&gt;&lt;br /&gt; &lt;/font&gt;">
<polygon fill="pink" stroke="transparent" stroke-width="0.5" points="105.47,0 130.63,0 130.63,-32 105.47,-32 105.47,0"/>
<polygon fill="lightblue" stroke="transparent" stroke-width="0.5" points="130.63,0 155.8,0 155.8,-32 130.63,-32 130.63,0"/>
<polygon fill="none" stroke="transparent" points="155.8,-32 105.47,-32 105.47,0 155.8,0 155.8,-32"/>
<text text-anchor="start" x="111.08" y="-18.6" font-family="Work Sans" font-size="8.00"> </text>
<text text-anchor="start" x="113.3" y="-18.6" font-family="Work Sans" font-size="8.00">METHOD</text>
<text text-anchor="start" x="147.97" y="-18.6" font-family="Work Sans" font-size="8.00"> </text>
<text text-anchor="start" x="105.3" y="-10.6" font-family="Work Sans" font-size="8.00"> </text>
<text text-anchor="start" x="107.53" y="-10.6" font-family="Work Sans" font-size="8.00" fill="red">WH&#45;TERM</text>
<text text-anchor="start" x="146.18" y="-10.6" font-family="Work Sans" font-size="8.00"> </text>
<text text-anchor="start" x="148.41" y="-10.6" font-family="Work Sans" font-size="8.00" fill="blue">* </text>
<text text-anchor="start" x="153.74" y="-10.6" font-family="Work Sans" font-size="8.00"> </text>
<text text-anchor="start" x="129.52" y="-2.6" font-family="Work Sans" font-size="8.00" fill="green"> </text>
</a>
</g>
</g>
<!-- V75720&#45;&gt;V75389 -->
<g id="edge4" class="edge">
<title>V75720&#45;&gt;V75389</title>
<path fill="none" stroke="grey" stroke-width="0.5" d="M172.87,-235.76C194.47,-204.46 237.3,-131.2 209.63,-76 199.38,-55.54 178.3,-40.36 160.49,-30.53"/>
<polygon fill="grey" stroke="grey" stroke-width="0.5" points="161.27,-28.96 156.04,-28.14 159.62,-32.05 161.27,-28.96"/>
<text text-anchor="middle" x="236.08" y="-127.6" font-family="Work Sans" font-size="8.00"> FOCUS &#160;&#160;</text>
</g>
<!-- V75296 -->
<g id="node3" class="node">
<title>V75296</title>
<g id="a_node3"><a xlink:href="http://trips.ihmc.us/lexicon/data/ONT::BY-MEANS-OF.xml" xlink:title="&lt;font color=&quot;green&quot;&gt;&lt;br /&gt;&lt;/font&gt; &lt;font color=&quot;black&quot;&gt;BY&#45;MEANS&#45;OF&lt;/font&gt; &lt;font color=&quot;green&quot;&gt;&lt;br /&gt;&lt;/font&gt; &lt;font color=&quot;red&quot;&gt;F&lt;/font&gt; &lt;font color=&quot;blue&quot;&gt;HOW&lt;/font&gt; &lt;font color=&quot;green&quot;&gt;&lt;br /&gt; &lt;/font&gt;">
<polygon fill="pink" stroke="transparent" stroke-width="0.5" points="33.86,-76 63.63,-76 63.63,-108 33.86,-108 33.86,-76"/>
<polygon fill="lightblue" stroke="transparent" stroke-width="0.5" points="63.63,-76 93.4,-76 93.4,-108 63.63,-108 63.63,-76"/>
<polygon fill="none" stroke="transparent" points="93.4,-108 33.86,-108 33.86,-76 93.4,-76 93.4,-108"/>
<text text-anchor="start" x="34" y="-94.6" font-family="Work Sans" font-size="8.00"> </text>
<text text-anchor="start" x="36.22" y="-94.6" font-family="Work Sans" font-size="8.00">BY&#45;MEANS&#45;OF</text>
<text text-anchor="start" x="91.05" y="-94.6" font-family="Work Sans" font-size="8.00"> </text>
<text text-anchor="start" x="48.08" y="-86.6" font-family="Work Sans" font-size="8.00"> </text>
<text text-anchor="start" x="50.3" y="-86.6" font-family="Work Sans" font-size="8.00" fill="red">F</text>
<text text-anchor="start" x="55.19" y="-86.6" font-family="Work Sans" font-size="8.00"> </text>
<text text-anchor="start" x="57.41" y="-86.6" font-family="Work Sans" font-size="8.00" fill="blue">HOW</text>
<text text-anchor="start" x="76.96" y="-86.6" font-family="Work Sans" font-size="8.00"> </text>
<text text-anchor="start" x="62.52" y="-78.6" font-family="Work Sans" font-size="8.00" fill="green"> </text>
</a>
</g>
</g>
<!-- V75345&#45;&gt;V75296 -->
<g id="edge6" class="edge">
<title>V75345&#45;&gt;V75296</title>
<path fill="none" stroke="red" d="M66.79,-168.02C45.55,-164.09 17.19,-155.01 3.08,-134 -6.37,-119.93 10.49,-109.39 28.8,-102.52"/>
<polygon fill="red" stroke="red" points="29.85,-104 33.98,-100.68 28.68,-100.71 29.85,-104"/>
<text text-anchor="middle" x="25.41" y="-127.6" font-family="Work Sans" font-size="8.00"> METHOD &#160;&#160;</text>
</g>
<!-- V75345&#45;&gt;V75296 -->
<g id="edge8" class="edge">
<title>V75345&#45;&gt;V75296</title>
<path fill="none" stroke="blue" d="M84.02,-151.62C81.4,-146.01 78.66,-139.82 76.41,-134 73.84,-127.35 71.41,-119.95 69.37,-113.28"/>
<polygon fill="blue" stroke="blue" points="71,-112.64 67.89,-108.35 67.65,-113.65 71,-112.64"/>
<text text-anchor="middle" x="76.75" y="-127.6" font-family="Work Sans" font-size="8.00">.</text>
</g>
<!-- V75320 -->
<g id="node5" class="node">
<title>V75320</title>
<g id="a_node5"><a xlink:href="http://trips.ihmc.us/lexicon/data/ONT::PERFORMANCE-PLAY.xml" xlink:title="&lt;font color=&quot;green&quot;&gt;&lt;br /&gt;&lt;/font&gt; &lt;font color=&quot;black&quot;&gt;PERFORMANCE&#45;PLAY&lt;/font&gt; &lt;font color=&quot;green&quot;&gt;&lt;br /&gt;&lt;/font&gt; &lt;font color=&quot;red&quot;&gt;THE&lt;/font&gt; &lt;font color=&quot;blue&quot;&gt;PLAY&lt;/font&gt; &lt;font color=&quot;green&quot;&gt;&lt;br /&gt; &lt;/font&gt;">
<text text-anchor="start" x="111.03" y="-94.6" font-family="Work Sans" font-size="8.00"> </text>
<text text-anchor="start" x="113.26" y="-94.6" font-family="Work Sans" font-size="8.00">PERFORMANCE&#45;PLAY</text>
<text text-anchor="start" x="198.01" y="-94.6" font-family="Work Sans" font-size="8.00"> </text>
<text text-anchor="start" x="134.37" y="-86.6" font-family="Work Sans" font-size="8.00"> </text>
<text text-anchor="start" x="136.59" y="-86.6" font-family="Work Sans" font-size="8.00" fill="red">THE</text>
<text text-anchor="start" x="152.59" y="-86.6" font-family="Work Sans" font-size="8.00"> </text>
<text text-anchor="start" x="154.81" y="-86.6" font-family="Work Sans" font-size="8.00" fill="blue">PLAY</text>
<text text-anchor="start" x="174.68" y="-86.6" font-family="Work Sans" font-size="8.00"> </text>
<text text-anchor="start" x="154.52" y="-78.6" font-family="Work Sans" font-size="8.00" fill="green"> </text>
</a>
</g>
</g>
<!-- V75345&#45;&gt;V75320 -->
<g id="edge7" class="edge">
<title>V75345&#45;&gt;V75320</title>
<path fill="none" stroke="red" stroke-width="0.5" d="M108.96,-151.72C118.56,-139.64 130.88,-124.14 140.46,-112.09"/>
<polygon fill="red" stroke="red" stroke-width="0.5" points="141.85,-113.16 143.59,-108.15 139.11,-110.98 141.85,-113.16"/>
<text text-anchor="middle" x="150.6" y="-127.6" font-family="Work Sans" font-size="8.00"> NEUTRAL &#160;&#160;</text>
</g>
<!-- V75296&#45;&gt;V75345 -->
<g id="edge3" class="edge">
<title>V75296&#45;&gt;V75345</title>
<path fill="none" stroke="blue" stroke-width="0.5" d="M69.46,-108.15C73.68,-119.13 79.48,-134.2 84.34,-146.83"/>
<polygon fill="blue" stroke="blue" stroke-width="0.5" points="82.79,-147.68 86.22,-151.72 86.06,-146.42 82.79,-147.68"/>
<text text-anchor="middle" x="98.19" y="-127.6" font-family="Work Sans" font-size="8.00"> FIGURE &#160;&#160;</text>
</g>
<!-- V75296&#45;&gt;V75389 -->
<g id="edge5" class="edge">
<title>V75296&#45;&gt;V75389</title>
<path fill="none" stroke="grey" stroke-width="0.5" d="M58.14,-75.9C56.12,-67.65 55.36,-57.6 60.19,-50 69.04,-36.07 85.49,-27.92 100.27,-23.21"/>
<polygon fill="grey" stroke="grey" stroke-width="0.5" points="100.91,-24.84 105.21,-21.74 99.91,-21.49 100.91,-24.84"/>
<text text-anchor="middle" x="82.86" y="-51.6" font-family="Work Sans" font-size="8.00"> GROUND &#160;&#160;</text>
</g>
<!-- V75389&#45;&gt;V75296 -->
<g id="edge2" class="edge">
<title>V75389&#45;&gt;V75296</title>
<path fill="none" stroke="grey" stroke-width="0.5" d="M124.54,-32.04C120.74,-40.26 115.31,-50.32 108.63,-58 104.08,-63.25 98.54,-68.14 92.93,-72.47"/>
<polygon fill="grey" stroke="grey" stroke-width="0.5" points="91.61,-71.28 88.65,-75.67 93.7,-74.08 91.61,-71.28"/>
<text text-anchor="middle" x="139.49" y="-51.6" font-family="Work Sans" font-size="8.00"> SUCHTHAT &#160;&#160;</text>
</g>
</g>
</svg>
