<?xml version="1.0" encoding="UTF-8" standalone="no"?>
<!DOCTYPE svg PUBLIC "-//W3C//DTD SVG 1.1//EN"
 "http://www.w3.org/Graphics/SVG/1.1/DTD/svg11.dtd">
<!-- Generated by graphviz version 2.43.0 (0)
 -->
<!-- Title: graph Pages: 1 -->
<svg width="286pt" height="268pt"
 viewBox="0.00 0.00 286.49 268.00" xmlns="http://www.w3.org/2000/svg" xmlns:xlink="http://www.w3.org/1999/xlink">
<g id="graph0" class="graph" transform="scale(1 1) rotate(0) translate(4 264)">
<title>graph</title>
<polygon fill="white" stroke="transparent" points="-4,4 -4,-264 282.49,-264 282.49,4 -4,4"/>
<!-- V75746 -->
<g id="node1" class="node">
<title>V75746</title>
<g id="a_node1"><a xlink:href="http://trips.ihmc.us/lexicon/data/ONT::SA_WH-QUESTION.xml" xlink:title="&lt;font color=&quot;green&quot;&gt;&lt;br /&gt;&lt;/font&gt; &lt;font color=&quot;black&quot;&gt;SA_WH&#45;QUESTION&lt;/font&gt; &lt;font color=&quot;green&quot;&gt;&lt;br /&gt;&lt;/font&gt; &lt;font color=&quot;red&quot;&gt;SPEECHACT&lt;/font&gt; &lt;font color=&quot;blue&quot;&gt;* &lt;/font&gt; &lt;font color=&quot;green&quot;&gt;&lt;br /&gt; &lt;/font&gt;">
<text text-anchor="start" x="155.93" y="-246.6" font-family="Work Sans" font-size="8.00"> </text>
<text text-anchor="start" x="158.15" y="-246.6" font-family="Work Sans" font-size="8.00">SA_WH&#45;QUESTION</text>
<text text-anchor="start" x="231.05" y="-246.6" font-family="Work Sans" font-size="8.00"> </text>
<text text-anchor="start" x="164.15" y="-238.6" font-family="Work Sans" font-size="8.00"> </text>
<text text-anchor="start" x="166.37" y="-238.6" font-family="Work Sans" font-size="8.00" fill="red">SPEECHACT</text>
<text text-anchor="start" x="215.27" y="-238.6" font-family="Work Sans" font-size="8.00"> </text>
<text text-anchor="start" x="217.49" y="-238.6" font-family="Work Sans" font-size="8.00" fill="blue">* </text>
<text text-anchor="start" x="222.83" y="-238.6" font-family="Work Sans" font-size="8.00"> </text>
<text text-anchor="start" x="193.49" y="-230.6" font-family="Work Sans" font-size="8.00" fill="green"> </text>
</a>
</g>
</g>
<!-- V75348 -->
<g id="node2" class="node">
<title>V75348</title>
<g id="a_node2"><a xlink:href="http://trips.ihmc.us/lexicon/data/ONT::BECOME.xml" xlink:title="&lt;font color=&quot;green&quot;&gt;&lt;br /&gt;&lt;/font&gt; &lt;font color=&quot;black&quot;&gt;BECOME&lt;/font&gt; &lt;font color=&quot;green&quot;&gt;&lt;br /&gt;&lt;/font&gt; &lt;font color=&quot;red&quot;&gt;F&lt;/font&gt; &lt;font color=&quot;blue&quot;&gt;GO&lt;/font&gt; &lt;font color=&quot;green&quot;&gt;&lt;br /&gt; &lt;/font&gt;">
<polygon fill="pink" stroke="transparent" stroke-width="0.5" points="111.98,-152 131.6,-152 131.6,-184 111.98,-184 111.98,-152"/>
<polygon fill="lightblue" stroke="transparent" stroke-width="0.5" points="131.6,-152 151.22,-152 151.22,-184 131.6,-184 131.6,-152"/>
<polygon fill="none" stroke="transparent" points="151.22,-184 111.98,-184 111.98,-152 151.22,-152 151.22,-184"/>
<text text-anchor="start" x="112.04" y="-170.6" font-family="Work Sans" font-size="8.00"> </text>
<text text-anchor="start" x="114.27" y="-170.6" font-family="Work Sans" font-size="8.00">BECOME</text>
<text text-anchor="start" x="148.94" y="-170.6" font-family="Work Sans" font-size="8.00"> </text>
<text text-anchor="start" x="119.6" y="-162.6" font-family="Work Sans" font-size="8.00"> </text>
<text text-anchor="start" x="121.82" y="-162.6" font-family="Work Sans" font-size="8.00" fill="red">F</text>
<text text-anchor="start" x="126.71" y="-162.6" font-family="Work Sans" font-size="8.00"> </text>
<text text-anchor="start" x="128.93" y="-162.6" font-family="Work Sans" font-size="8.00" fill="blue">GO</text>
<text text-anchor="start" x="141.38" y="-162.6" font-family="Work Sans" font-size="8.00"> </text>
<text text-anchor="start" x="130.49" y="-154.6" font-family="Work Sans" font-size="8.00" fill="green"> </text>
</a>
</g>
</g>
<!-- V75746&#45;&gt;V75348 -->
<g id="edge4" class="edge">
<title>V75746&#45;&gt;V75348</title>
<path fill="none" stroke="grey" stroke-width="0.5" d="M181.55,-227.67C171.77,-216.18 158.33,-200.39 147.85,-188.09"/>
<polygon fill="grey" stroke="grey" stroke-width="0.5" points="149,-186.73 144.42,-184.06 146.33,-189 149,-186.73"/>
<text text-anchor="middle" x="188.31" y="-203.6" font-family="Work Sans" font-size="8.00"> CONTENT &#160;&#160;</text>
</g>
<!-- V75392 -->
<g id="node4" class="node">
<title>V75392</title>
<g id="a_node4"><a xlink:href="http://trips.ihmc.us/lexicon/data/ONT::STATUS.xml" xlink:title="&lt;font color=&quot;green&quot;&gt;&lt;br /&gt;&lt;/font&gt; &lt;font color=&quot;black&quot;&gt;STATUS&lt;/font&gt; &lt;font color=&quot;green&quot;&gt;&lt;br /&gt;&lt;/font&gt; &lt;font color=&quot;red&quot;&gt;WH&#45;TERM&lt;/font&gt; &lt;font color=&quot;blue&quot;&gt;* &lt;/font&gt; &lt;font color=&quot;green&quot;&gt;&lt;br /&gt; &lt;/font&gt;">
<polygon fill="pink" stroke="transparent" points="214.76,-32 164.44,-32 164.44,0 214.76,0 214.76,-32"/>
<text text-anchor="start" x="172.19" y="-18.6" font-family="Work Sans" font-size="8.00"> </text>
<text text-anchor="start" x="174.41" y="-18.6" font-family="Work Sans" font-size="8.00">STATUS</text>
<text text-anchor="start" x="204.79" y="-18.6" font-family="Work Sans" font-size="8.00"> </text>
<text text-anchor="start" x="164.27" y="-10.6" font-family="Work Sans" font-size="8.00"> </text>
<text text-anchor="start" x="166.49" y="-10.6" font-family="Work Sans" font-size="8.00" fill="red">WH&#45;TERM</text>
<text text-anchor="start" x="205.15" y="-10.6" font-family="Work Sans" font-size="8.00"> </text>
<text text-anchor="start" x="207.37" y="-10.6" font-family="Work Sans" font-size="8.00" fill="blue">* </text>
<text text-anchor="start" x="212.71" y="-10.6" font-family="Work Sans" font-size="8.00"> </text>
<text text-anchor="start" x="188.49" y="-2.6" font-family="Work Sans" font-size="8.00" fill="green"> </text>
</a>
</g>
</g>
<!-- V75746&#45;&gt;V75392 -->
<g id="edge7" class="edge">
<title>V75746&#45;&gt;V75392</title>
<path fill="none" stroke="grey" stroke-width="0.5" d="M206.51,-227.68C210.04,-222.36 213.51,-216.18 215.6,-210 238.45,-142.41 258.62,-114.72 228.6,-50 226.09,-44.59 222.22,-39.75 217.86,-35.55"/>
<polygon fill="grey" stroke="grey" stroke-width="0.5" points="219,-34.22 214.11,-32.18 216.65,-36.82 219,-34.22"/>
<text text-anchor="middle" x="260.05" y="-127.6" font-family="Work Sans" font-size="8.00"> FOCUS &#160;&#160;</text>
</g>
<!-- V75297 -->
<g id="node3" class="node">
<title>V75297</title>
<g id="a_node3"><a xlink:href="http://trips.ihmc.us/lexicon/data/ONT::AT-SCALE-VALUE.xml" xlink:title="&lt;font color=&quot;green&quot;&gt;&lt;br /&gt;&lt;/font&gt; &lt;font color=&quot;black&quot;&gt;AT&#45;SCALE&#45;VALUE&lt;/font&gt; &lt;font color=&quot;green&quot;&gt;&lt;br /&gt;&lt;/font&gt; &lt;font color=&quot;red&quot;&gt;F&lt;/font&gt; &lt;font color=&quot;blue&quot;&gt;HOW&lt;/font&gt; &lt;font color=&quot;green&quot;&gt;&lt;br /&gt; &lt;/font&gt;">
<polygon fill="pink" stroke="transparent" points="166.95,-108 96.25,-108 96.25,-76 166.95,-76 166.95,-108"/>
<text text-anchor="start" x="96.18" y="-94.6" font-family="Work Sans" font-size="8.00"> </text>
<text text-anchor="start" x="98.4" y="-94.6" font-family="Work Sans" font-size="8.00">AT&#45;SCALE&#45;VALUE</text>
<text text-anchor="start" x="164.8" y="-94.6" font-family="Work Sans" font-size="8.00"> </text>
<text text-anchor="start" x="116.05" y="-86.6" font-family="Work Sans" font-size="8.00"> </text>
<text text-anchor="start" x="118.27" y="-86.6" font-family="Work Sans" font-size="8.00" fill="red">F</text>
<text text-anchor="start" x="123.16" y="-86.6" font-family="Work Sans" font-size="8.00"> </text>
<text text-anchor="start" x="125.38" y="-86.6" font-family="Work Sans" font-size="8.00" fill="blue">HOW</text>
<text text-anchor="start" x="144.93" y="-86.6" font-family="Work Sans" font-size="8.00"> </text>
<text text-anchor="start" x="130.49" y="-78.6" font-family="Work Sans" font-size="8.00" fill="green"> </text>
</a>
</g>
</g>
<!-- V75348&#45;&gt;V75297 -->
<g id="edge3" class="edge">
<title>V75348&#45;&gt;V75297</title>
<path fill="none" stroke="red" stroke-width="0.5" d="M131.6,-151.67C131.6,-140.58 131.6,-125.49 131.6,-113.38"/>
<polygon fill="red" stroke="red" stroke-width="0.5" points="133.35,-113.06 131.6,-108.06 129.85,-113.06 133.35,-113.06"/>
<text text-anchor="middle" x="152.57" y="-127.6" font-family="Work Sans" font-size="8.00"> FORMAL &#160;&#160;</text>
</g>
<!-- V75320 -->
<g id="node5" class="node">
<title>V75320</title>
<g id="a_node5"><a xlink:href="http://trips.ihmc.us/lexicon/data/ONT::PERFORMANCE-PLAY.xml" xlink:title="&lt;font color=&quot;green&quot;&gt;&lt;br /&gt;&lt;/font&gt; &lt;font color=&quot;black&quot;&gt;PERFORMANCE&#45;PLAY&lt;/font&gt; &lt;font color=&quot;green&quot;&gt;&lt;br /&gt;&lt;/font&gt; &lt;font color=&quot;red&quot;&gt;THE&lt;/font&gt; &lt;font color=&quot;blue&quot;&gt;PLAY&lt;/font&gt; &lt;font color=&quot;green&quot;&gt;&lt;br /&gt; &lt;/font&gt;">
<text text-anchor="start" x="0" y="-18.6" font-family="Work Sans" font-size="8.00"> </text>
<text text-anchor="start" x="2.22" y="-18.6" font-family="Work Sans" font-size="8.00">PERFORMANCE&#45;PLAY</text>
<text text-anchor="start" x="86.98" y="-18.6" font-family="Work Sans" font-size="8.00"> </text>
<text text-anchor="start" x="23.33" y="-10.6" font-family="Work Sans" font-size="8.00"> </text>
<text text-anchor="start" x="25.56" y="-10.6" font-family="Work Sans" font-size="8.00" fill="red">THE</text>
<text text-anchor="start" x="41.56" y="-10.6" font-family="Work Sans" font-size="8.00"> </text>
<text text-anchor="start" x="43.78" y="-10.6" font-family="Work Sans" font-size="8.00" fill="blue">PLAY</text>
<text text-anchor="start" x="63.65" y="-10.6" font-family="Work Sans" font-size="8.00"> </text>
<text text-anchor="start" x="43.49" y="-2.6" font-family="Work Sans" font-size="8.00" fill="green"> </text>
</a>
</g>
</g>
<!-- V75348&#45;&gt;V75320 -->
<g id="edge2" class="edge">
<title>V75348&#45;&gt;V75320</title>
<path fill="none" stroke="red" stroke-width="0.5" d="M111.73,-161.1C88.98,-153.16 52.81,-136.62 36.93,-108 24.83,-86.21 30.48,-56.86 36.65,-37.46"/>
<polygon fill="red" stroke="red" stroke-width="0.5" points="38.46,-37.56 38.39,-32.26 35.14,-36.45 38.46,-37.56"/>
<text text-anchor="middle" x="62.94" y="-89.6" font-family="Work Sans" font-size="8.00"> AFFECTED &#160;&#160;</text>
</g>
<!-- V75297&#45;&gt;V75392 -->
<g id="edge1" class="edge">
<title>V75297&#45;&gt;V75392</title>
<path fill="none" stroke="grey" stroke-width="0.5" d="M123.39,-75.65C120.24,-67.52 118.41,-57.66 123.16,-50 131.13,-37.13 145.8,-29.12 159.32,-24.22"/>
<polygon fill="grey" stroke="grey" stroke-width="0.5" points="160.07,-25.82 164.24,-22.56 158.94,-22.5 160.07,-25.82"/>
<text text-anchor="middle" x="144.82" y="-51.6" font-family="Work Sans" font-size="8.00"> GROUND &#160;&#160;</text>
</g>
<!-- V75297&#45;&gt;V75320 -->
<g id="edge6" class="edge">
<title>V75297&#45;&gt;V75320</title>
<path fill="none" stroke="blue" stroke-width="0.5" d="M101.9,-75.93C93.25,-70.84 84.09,-64.73 76.49,-58 69.44,-51.76 62.84,-43.8 57.5,-36.55"/>
<polygon fill="blue" stroke="blue" stroke-width="0.5" points="58.68,-35.19 54.34,-32.15 55.83,-37.24 58.68,-35.19"/>
<text text-anchor="middle" x="96.16" y="-51.6" font-family="Work Sans" font-size="8.00"> FIGURE &#160;&#160;</text>
</g>
<!-- V75392&#45;&gt;V75297 -->
<g id="edge5" class="edge">
<title>V75392&#45;&gt;V75297</title>
<path fill="none" stroke="grey" stroke-width="0.5" d="M182.99,-32.15C179.1,-40.22 173.75,-50.09 167.6,-58 163.7,-63.02 158.99,-67.93 154.29,-72.37"/>
<polygon fill="grey" stroke="grey" stroke-width="0.5" points="152.86,-71.3 150.36,-75.97 155.23,-73.88 152.86,-71.3"/>
<text text-anchor="middle" x="198.46" y="-51.6" font-family="Work Sans" font-size="8.00"> SUCHTHAT &#160;&#160;</text>
</g>
</g>
</svg>
