<?xml version="1.0" encoding="UTF-8" standalone="no"?>
<!DOCTYPE svg PUBLIC "-//W3C//DTD SVG 1.1//EN"
 "http://www.w3.org/Graphics/SVG/1.1/DTD/svg11.dtd">
<!-- Generated by graphviz version 2.43.0 (0)
 -->
<!-- Title: graph Pages: 1 -->
<svg width="438pt" height="368pt"
 viewBox="0.00 0.00 437.58 368.00" xmlns="http://www.w3.org/2000/svg" xmlns:xlink="http://www.w3.org/1999/xlink">
<g id="graph0" class="graph" transform="scale(1 1) rotate(0) translate(4 364)">
<title>graph</title>
<polygon fill="white" stroke="transparent" points="-4,4 -4,-364 433.58,-364 433.58,4 -4,4"/>
<!-- V73217 -->
<g id="node1" class="node">
<title>V73217</title>
<g id="a_node1"><a xlink:href="http://trips.ihmc.us/lexicon/data/ONT::SA_TELL.xml" xlink:title="&lt;font color=&quot;green&quot;&gt;&lt;br /&gt;&lt;/font&gt; &lt;font color=&quot;black&quot;&gt;SA_TELL&lt;/font&gt; &lt;font color=&quot;green&quot;&gt;&lt;br /&gt;&lt;/font&gt; &lt;font color=&quot;red&quot;&gt;SPEECHACT&lt;/font&gt; &lt;font color=&quot;blue&quot;&gt;* &lt;/font&gt; &lt;font color=&quot;green&quot;&gt;&lt;br /&gt; &lt;/font&gt;">
<text text-anchor="start" x="143.12" y="-346.6" font-family="Work Sans" font-size="8.00"> </text>
<text text-anchor="start" x="145.35" y="-346.6" font-family="Work Sans" font-size="8.00">SA_TELL</text>
<text text-anchor="start" x="179.59" y="-346.6" font-family="Work Sans" font-size="8.00"> </text>
<text text-anchor="start" x="132.02" y="-338.6" font-family="Work Sans" font-size="8.00"> </text>
<text text-anchor="start" x="134.24" y="-338.6" font-family="Work Sans" font-size="8.00" fill="red">SPEECHACT</text>
<text text-anchor="start" x="183.14" y="-338.6" font-family="Work Sans" font-size="8.00"> </text>
<text text-anchor="start" x="185.36" y="-338.6" font-family="Work Sans" font-size="8.00" fill="blue">* </text>
<text text-anchor="start" x="190.7" y="-338.6" font-family="Work Sans" font-size="8.00"> </text>
<text text-anchor="start" x="161.36" y="-330.6" font-family="Work Sans" font-size="8.00" fill="green"> </text>
</a>
</g>
</g>
<!-- V73206 -->
<g id="node2" class="node">
<title>V73206</title>
<g id="a_node2"><a xlink:href="http://trips.ihmc.us/lexicon/data/ONT::EVENT-OF-ACTION.xml" xlink:title="&lt;font color=&quot;green&quot;&gt;&lt;br /&gt;&lt;/font&gt; &lt;font color=&quot;black&quot;&gt;EVENT&#45;OF&#45;ACTION&lt;/font&gt; &lt;font color=&quot;green&quot;&gt;&lt;br /&gt;&lt;/font&gt; &lt;font color=&quot;red&quot;&gt;F&lt;/font&gt; &lt;font color=&quot;blue&quot;&gt;* &lt;/font&gt; &lt;font color=&quot;green&quot;&gt;&lt;br /&gt; &lt;/font&gt;">
<polygon fill="pink" stroke="transparent" stroke-width="0.5" points="123.63,-252 162.47,-252 162.47,-284 123.63,-284 123.63,-252"/>
<polygon fill="lightblue" stroke="transparent" stroke-width="0.5" points="162.47,-252 201.31,-252 201.31,-284 162.47,-284 162.47,-252"/>
<polygon fill="none" stroke="transparent" points="201.31,-284 123.63,-284 123.63,-252 201.31,-252 201.31,-284"/>
<text text-anchor="start" x="123.8" y="-270.6" font-family="Work Sans" font-size="8.00"> </text>
<text text-anchor="start" x="126.02" y="-270.6" font-family="Work Sans" font-size="8.00">EVENT&#45;OF&#45;ACTION</text>
<text text-anchor="start" x="198.91" y="-270.6" font-family="Work Sans" font-size="8.00"> </text>
<text text-anchor="start" x="154.02" y="-262.6" font-family="Work Sans" font-size="8.00"> </text>
<text text-anchor="start" x="156.24" y="-262.6" font-family="Work Sans" font-size="8.00" fill="red">F</text>
<text text-anchor="start" x="161.13" y="-262.6" font-family="Work Sans" font-size="8.00"> </text>
<text text-anchor="start" x="163.35" y="-262.6" font-family="Work Sans" font-size="8.00" fill="blue">* </text>
<text text-anchor="start" x="168.69" y="-262.6" font-family="Work Sans" font-size="8.00"> </text>
<text text-anchor="start" x="161.36" y="-254.6" font-family="Work Sans" font-size="8.00" fill="green"> </text>
</a>
</g>
</g>
<!-- V73217&#45;&gt;V73206 -->
<g id="edge9" class="edge">
<title>V73217&#45;&gt;V73206</title>
<path fill="none" stroke="grey" stroke-width="0.5" d="M162.47,-327.67C162.47,-316.58 162.47,-301.49 162.47,-289.38"/>
<polygon fill="grey" stroke="grey" stroke-width="0.5" points="164.22,-289.06 162.47,-284.06 160.72,-289.06 164.22,-289.06"/>
<text text-anchor="middle" x="186.17" y="-303.6" font-family="Work Sans" font-size="8.00"> CONTENT &#160;&#160;</text>
</g>
<!-- V72471 -->
<g id="node3" class="node">
<title>V72471</title>
<g id="a_node3"><a xlink:href="http://trips.ihmc.us/lexicon/data/ONT::EAT.xml" xlink:title="&lt;font color=&quot;green&quot;&gt;&lt;br /&gt;&lt;/font&gt; &lt;font color=&quot;black&quot;&gt;EAT&lt;/font&gt; &lt;font color=&quot;green&quot;&gt;&lt;br /&gt;&lt;/font&gt; &lt;font color=&quot;red&quot;&gt;F&lt;/font&gt; &lt;font color=&quot;blue&quot;&gt;EAT&lt;/font&gt; &lt;font color=&quot;green&quot;&gt;&lt;br /&gt;&lt;/font&gt; &lt;font color=&quot;green&quot;&gt;eat%2:34:00::&lt;/font&gt; &lt;font color=&quot;green&quot;&gt;&lt;br /&gt; &lt;/font&gt;">
<text text-anchor="start" x="96.76" y="-194.6" font-family="Work Sans" font-size="8.00"> </text>
<text text-anchor="start" x="98.98" y="-194.6" font-family="Work Sans" font-size="8.00">EAT</text>
<text text-anchor="start" x="113.95" y="-194.6" font-family="Work Sans" font-size="8.00"> </text>
<text text-anchor="start" x="93.21" y="-186.6" font-family="Work Sans" font-size="8.00"> </text>
<text text-anchor="start" x="95.43" y="-186.6" font-family="Work Sans" font-size="8.00" fill="red">F</text>
<text text-anchor="start" x="100.31" y="-186.6" font-family="Work Sans" font-size="8.00"> </text>
<text text-anchor="start" x="102.54" y="-186.6" font-family="Work Sans" font-size="8.00" fill="blue">EAT</text>
<text text-anchor="start" x="117.51" y="-186.6" font-family="Work Sans" font-size="8.00"> </text>
<text text-anchor="start" x="79.56" y="-178.6" font-family="Work Sans" font-size="8.00"> </text>
<text text-anchor="start" x="81.78" y="-178.6" font-family="Work Sans" font-size="8.00" fill="green">eat%2:34:00::</text>
<text text-anchor="start" x="131.15" y="-178.6" font-family="Work Sans" font-size="8.00"> </text>
<text text-anchor="start" x="105.36" y="-170.6" font-family="Work Sans" font-size="8.00" fill="green"> </text>
</a>
</g>
</g>
<!-- V73206&#45;&gt;V72471 -->
<g id="edge12" class="edge">
<title>V73206&#45;&gt;V72471</title>
<path fill="none" stroke="grey" stroke-width="0.5" d="M151.67,-251.96C143.62,-240.74 132.47,-225.21 123.25,-212.38"/>
<polygon fill="grey" stroke="grey" stroke-width="0.5" points="124.55,-211.18 120.21,-208.14 121.71,-213.23 124.55,-211.18"/>
<text text-anchor="middle" x="166.59" y="-227.6" font-family="Work Sans" font-size="8.00"> SEQUENCE1 &#160;&#160;</text>
</g>
<!-- V72399 -->
<g id="node4" class="node">
<title>V72399</title>
<g id="a_node4"><a xlink:href="http://trips.ihmc.us/lexicon/data/ONT::MEET.xml" xlink:title="&lt;font color=&quot;green&quot;&gt;&lt;br /&gt;&lt;/font&gt; &lt;font color=&quot;black&quot;&gt;MEET&lt;/font&gt; &lt;font color=&quot;green&quot;&gt;&lt;br /&gt;&lt;/font&gt; &lt;font color=&quot;red&quot;&gt;F&lt;/font&gt; &lt;font color=&quot;blue&quot;&gt;MEET&lt;/font&gt; &lt;font color=&quot;green&quot;&gt;&lt;br /&gt;&lt;/font&gt; &lt;font color=&quot;green&quot;&gt;meet%2:38:01::&lt;/font&gt; &lt;font color=&quot;green&quot;&gt;&lt;br /&gt; &lt;/font&gt;">
<polygon fill="pink" stroke="transparent" stroke-width="0.5" points="218.98,-168 249.47,-168 249.47,-208 218.98,-208 218.98,-168"/>
<polygon fill="lightblue" stroke="transparent" stroke-width="0.5" points="249.47,-168 279.95,-168 279.95,-208 249.47,-208 249.47,-168"/>
<polygon fill="none" stroke="transparent" points="279.95,-208 218.98,-208 218.98,-168 279.95,-168 279.95,-208"/>
<text text-anchor="start" x="236.13" y="-194.6" font-family="Work Sans" font-size="8.00"> </text>
<text text-anchor="start" x="238.36" y="-194.6" font-family="Work Sans" font-size="8.00">MEET</text>
<text text-anchor="start" x="260.58" y="-194.6" font-family="Work Sans" font-size="8.00"> </text>
<text text-anchor="start" x="232.58" y="-186.6" font-family="Work Sans" font-size="8.00"> </text>
<text text-anchor="start" x="234.8" y="-186.6" font-family="Work Sans" font-size="8.00" fill="red">F</text>
<text text-anchor="start" x="239.69" y="-186.6" font-family="Work Sans" font-size="8.00"> </text>
<text text-anchor="start" x="241.91" y="-186.6" font-family="Work Sans" font-size="8.00" fill="blue">MEET</text>
<text text-anchor="start" x="264.13" y="-186.6" font-family="Work Sans" font-size="8.00"> </text>
<text text-anchor="start" x="219.23" y="-178.6" font-family="Work Sans" font-size="8.00"> </text>
<text text-anchor="start" x="221.45" y="-178.6" font-family="Work Sans" font-size="8.00" fill="green">meet%2:38:01::</text>
<text text-anchor="start" x="277.48" y="-178.6" font-family="Work Sans" font-size="8.00"> </text>
<text text-anchor="start" x="248.36" y="-170.6" font-family="Work Sans" font-size="8.00" fill="green"> </text>
</a>
</g>
</g>
<!-- V73206&#45;&gt;V72399 -->
<g id="edge6" class="edge">
<title>V73206&#45;&gt;V72399</title>
<path fill="none" stroke="grey" stroke-width="0.5" d="M179.43,-251.9C185.73,-246.29 192.93,-239.86 199.47,-234 207.54,-226.77 216.33,-218.86 224.26,-211.73"/>
<polygon fill="grey" stroke="grey" stroke-width="0.5" points="225.53,-212.94 228.07,-208.29 223.19,-210.34 225.53,-212.94"/>
<text text-anchor="middle" x="234.36" y="-227.6" font-family="Work Sans" font-size="8.00"> SEQUENCE &#160;&#160;</text>
</g>
<!-- V72394 -->
<g id="node5" class="node">
<title>V72394</title>
<g id="a_node5"><a xlink:href="http://trips.ihmc.us/lexicon/data/ONT::REFERENTIAL-SEM.xml" xlink:title="&lt;font color=&quot;green&quot;&gt;&lt;br /&gt;&lt;/font&gt; &lt;font color=&quot;black&quot;&gt;REFERENTIAL&#45;SEM&lt;/font&gt; &lt;font color=&quot;green&quot;&gt;&lt;br /&gt;&lt;/font&gt; &lt;font color=&quot;red&quot;&gt;PRO&#45;SET&lt;/font&gt; &lt;font color=&quot;blue&quot;&gt;THEY&lt;/font&gt; &lt;font color=&quot;green&quot;&gt;&lt;br /&gt;&lt;/font&gt; &lt;font color=&quot;green&quot;&gt;entity%1:03:00&lt;/font&gt; &lt;font color=&quot;green&quot;&gt;&lt;br /&gt; &lt;/font&gt;">
<text text-anchor="start" x="125.68" y="-110.6" font-family="Work Sans" font-size="8.00"> </text>
<text text-anchor="start" x="127.91" y="-110.6" font-family="Work Sans" font-size="8.00">REFERENTIAL&#45;SEM</text>
<text text-anchor="start" x="203.03" y="-110.6" font-family="Work Sans" font-size="8.00"> </text>
<text text-anchor="start" x="133.69" y="-102.6" font-family="Work Sans" font-size="8.00"> </text>
<text text-anchor="start" x="135.91" y="-102.6" font-family="Work Sans" font-size="8.00" fill="red">PRO&#45;SET</text>
<text text-anchor="start" x="171.47" y="-102.6" font-family="Work Sans" font-size="8.00"> </text>
<text text-anchor="start" x="173.69" y="-102.6" font-family="Work Sans" font-size="8.00" fill="blue">THEY</text>
<text text-anchor="start" x="195.03" y="-102.6" font-family="Work Sans" font-size="8.00"> </text>
<text text-anchor="start" x="136.78" y="-94.6" font-family="Work Sans" font-size="8.00"> </text>
<text text-anchor="start" x="139" y="-94.6" font-family="Work Sans" font-size="8.00" fill="green">entity%1:03:00</text>
<text text-anchor="start" x="191.93" y="-94.6" font-family="Work Sans" font-size="8.00"> </text>
<text text-anchor="start" x="164.36" y="-86.6" font-family="Work Sans" font-size="8.00" fill="green"> </text>
</a>
</g>
</g>
<!-- V72471&#45;&gt;V72394 -->
<g id="edge8" class="edge">
<title>V72471&#45;&gt;V72394</title>
<path fill="none" stroke="grey" stroke-width="0.5" d="M103.08,-167.99C102.52,-159.53 103.22,-149.76 107.6,-142 111.12,-135.75 116.18,-130.4 121.86,-125.87"/>
<polygon fill="grey" stroke="grey" stroke-width="0.5" points="122.93,-127.25 125.88,-122.86 120.83,-124.45 122.93,-127.25"/>
<text text-anchor="middle" x="125.4" y="-143.6" font-family="Work Sans" font-size="8.00"> AGENT &#160;&#160;</text>
</g>
<!-- V72479 -->
<g id="node10" class="node">
<title>V72479</title>
<g id="a_node10"><a xlink:href="http://trips.ihmc.us/lexicon/data/ONT::FOOD.xml" xlink:title="&lt;font color=&quot;green&quot;&gt;&lt;br /&gt;&lt;/font&gt; &lt;font color=&quot;black&quot;&gt;FOOD&lt;/font&gt; &lt;font color=&quot;green&quot;&gt;&lt;br /&gt;&lt;/font&gt; &lt;font color=&quot;red&quot;&gt;BARE&lt;/font&gt; &lt;font color=&quot;blue&quot;&gt;DINNER&lt;/font&gt; &lt;font color=&quot;green&quot;&gt;&lt;br /&gt;&lt;/font&gt; &lt;font color=&quot;green&quot;&gt;dinner%1:13:00::&lt;/font&gt; &lt;font color=&quot;green&quot;&gt;&lt;br /&gt; &lt;/font&gt;">
<text text-anchor="start" x="18.69" y="-110.6" font-family="Work Sans" font-size="8.00"> </text>
<text text-anchor="start" x="20.91" y="-110.6" font-family="Work Sans" font-size="8.00">FOOD</text>
<text text-anchor="start" x="44.02" y="-110.6" font-family="Work Sans" font-size="8.00"> </text>
<text text-anchor="start" x="2.91" y="-102.6" font-family="Work Sans" font-size="8.00"> </text>
<text text-anchor="start" x="5.13" y="-102.6" font-family="Work Sans" font-size="8.00" fill="red">BARE</text>
<text text-anchor="start" x="26.91" y="-102.6" font-family="Work Sans" font-size="8.00"> </text>
<text text-anchor="start" x="29.14" y="-102.6" font-family="Work Sans" font-size="8.00" fill="blue">DINNER</text>
<text text-anchor="start" x="59.8" y="-102.6" font-family="Work Sans" font-size="8.00"> </text>
<text text-anchor="start" x="0" y="-94.6" font-family="Work Sans" font-size="8.00"> </text>
<text text-anchor="start" x="2.22" y="-94.6" font-family="Work Sans" font-size="8.00" fill="green">dinner%1:13:00::</text>
<text text-anchor="start" x="62.71" y="-94.6" font-family="Work Sans" font-size="8.00"> </text>
<text text-anchor="start" x="31.36" y="-86.6" font-family="Work Sans" font-size="8.00" fill="green"> </text>
</a>
</g>
</g>
<!-- V72471&#45;&gt;V72479 -->
<g id="edge2" class="edge">
<title>V72471&#45;&gt;V72479</title>
<path fill="none" stroke="grey" stroke-width="0.5" d="M79.54,-173.59C69.46,-167.5 58.58,-159.52 50.79,-150 45.84,-143.95 42.08,-136.39 39.29,-129.2"/>
<polygon fill="grey" stroke="grey" stroke-width="0.5" points="40.86,-128.41 37.51,-124.31 37.57,-129.6 40.86,-128.41"/>
<text text-anchor="middle" x="76.8" y="-143.6" font-family="Work Sans" font-size="8.00"> AFFECTED &#160;&#160;</text>
</g>
<!-- V72399&#45;&gt;V72394 -->
<g id="edge1" class="edge">
<title>V72399&#45;&gt;V72394</title>
<path fill="none" stroke="blue" d="M219.08,-179.52C203.03,-174.01 184.39,-164.81 173.24,-150 168.75,-144.03 166.51,-136.35 165.48,-129.04"/>
<polygon fill="blue" stroke="blue" points="167.22,-128.84 164.94,-124.06 163.74,-129.22 167.22,-128.84"/>
<text text-anchor="middle" x="173.58" y="-143.6" font-family="Work Sans" font-size="8.00">.</text>
</g>
<!-- V72399&#45;&gt;V72394 -->
<g id="edge3" class="edge">
<title>V72399&#45;&gt;V72394</title>
<path fill="none" stroke="red" d="M226.95,-167.8C220.58,-162.18 213.72,-155.95 207.6,-150 200.47,-143.08 192.98,-135.26 186.31,-128.11"/>
<polygon fill="red" stroke="red" points="187.39,-126.69 182.71,-124.21 184.82,-129.07 187.39,-126.69"/>
<text text-anchor="middle" x="225.4" y="-143.6" font-family="Work Sans" font-size="8.00"> AGENT &#160;&#160;</text>
</g>
<!-- V72419 -->
<g id="node6" class="node">
<title>V72419</title>
<g id="a_node6"><a xlink:href="http://trips.ihmc.us/lexicon/data/ONT::SCHOLAR.xml" xlink:title="&lt;font color=&quot;green&quot;&gt;&lt;br /&gt;&lt;/font&gt; &lt;font color=&quot;black&quot;&gt;SCHOLAR&lt;/font&gt; &lt;font color=&quot;green&quot;&gt;&lt;br /&gt;&lt;/font&gt; &lt;font color=&quot;red&quot;&gt;INDEF&#45;SET&lt;/font&gt; &lt;font color=&quot;blue&quot;&gt;FRESHMEN&lt;/font&gt; &lt;font color=&quot;green&quot;&gt;&lt;br /&gt;&lt;/font&gt; &lt;font color=&quot;green&quot;&gt;student%1:18:01&lt;/font&gt; &lt;font color=&quot;green&quot;&gt;&lt;br /&gt; &lt;/font&gt;">
<polygon fill="pink" stroke="transparent" stroke-width="0.5" points="244.69,-84 291.47,-84 291.47,-124 244.69,-124 244.69,-84"/>
<polygon fill="lightblue" stroke="transparent" stroke-width="0.5" points="291.47,-84 338.25,-84 338.25,-124 291.47,-124 291.47,-84"/>
<polygon fill="none" stroke="transparent" points="338.25,-124 244.69,-124 244.69,-84 338.25,-84 338.25,-124"/>
<text text-anchor="start" x="269.91" y="-110.6" font-family="Work Sans" font-size="8.00"> </text>
<text text-anchor="start" x="272.13" y="-110.6" font-family="Work Sans" font-size="8.00">SCHOLAR</text>
<text text-anchor="start" x="310.8" y="-110.6" font-family="Work Sans" font-size="8.00"> </text>
<text text-anchor="start" x="244.58" y="-102.6" font-family="Work Sans" font-size="8.00"> </text>
<text text-anchor="start" x="246.8" y="-102.6" font-family="Work Sans" font-size="8.00" fill="red">INDEF&#45;SET</text>
<text text-anchor="start" x="289.02" y="-102.6" font-family="Work Sans" font-size="8.00"> </text>
<text text-anchor="start" x="291.24" y="-102.6" font-family="Work Sans" font-size="8.00" fill="blue">FRESHMEN</text>
<text text-anchor="start" x="336.13" y="-102.6" font-family="Work Sans" font-size="8.00"> </text>
<text text-anchor="start" x="259.22" y="-94.6" font-family="Work Sans" font-size="8.00"> </text>
<text text-anchor="start" x="261.44" y="-94.6" font-family="Work Sans" font-size="8.00" fill="green">student%1:18:01</text>
<text text-anchor="start" x="321.49" y="-94.6" font-family="Work Sans" font-size="8.00"> </text>
<text text-anchor="start" x="290.36" y="-86.6" font-family="Work Sans" font-size="8.00" fill="green"> </text>
</a>
</g>
</g>
<!-- V72399&#45;&gt;V72419 -->
<g id="edge4" class="edge">
<title>V72399&#45;&gt;V72419</title>
<path fill="none" stroke="red" d="M246.35,-167.86C245.82,-159.57 246.38,-149.96 250.01,-142 252.33,-136.89 255.74,-132.19 259.62,-127.98"/>
<polygon fill="red" stroke="red" points="261.04,-129.04 263.3,-124.26 258.54,-126.58 261.04,-129.04"/>
<text text-anchor="middle" x="269.7" y="-143.6" font-family="Work Sans" font-size="8.00"> AGENT1 &#160;&#160;</text>
</g>
<!-- V72399&#45;&gt;V72419 -->
<g id="edge11" class="edge">
<title>V72399&#45;&gt;V72419</title>
<path fill="none" stroke="blue" d="M277.27,-167.67C282.59,-162.58 287.43,-156.63 290.47,-150 293.37,-143.66 294.37,-136.27 294.44,-129.33"/>
<polygon fill="blue" stroke="blue" points="296.19,-129.11 294.33,-124.14 292.69,-129.18 296.19,-129.11"/>
<text text-anchor="middle" x="293.58" y="-143.6" font-family="Work Sans" font-size="8.00">.</text>
</g>
<!-- V72432 -->
<g id="node8" class="node">
<title>V72432</title>
<g id="a_node8"><a xlink:href="http://trips.ihmc.us/lexicon/data/ONT::ON.xml" xlink:title="&lt;font color=&quot;green&quot;&gt;&lt;br /&gt;&lt;/font&gt; &lt;font color=&quot;black&quot;&gt;ON&lt;/font&gt; &lt;font color=&quot;green&quot;&gt;&lt;br /&gt;&lt;/font&gt; &lt;font color=&quot;red&quot;&gt;F&lt;/font&gt; &lt;font color=&quot;blue&quot;&gt;ON&lt;/font&gt; &lt;font color=&quot;green&quot;&gt;&lt;br /&gt; &lt;/font&gt;">
<text text-anchor="start" x="361.24" y="-106.6" font-family="Work Sans" font-size="8.00"> </text>
<text text-anchor="start" x="363.47" y="-106.6" font-family="Work Sans" font-size="8.00">ON</text>
<text text-anchor="start" x="375.47" y="-106.6" font-family="Work Sans" font-size="8.00"> </text>
<text text-anchor="start" x="357.69" y="-98.6" font-family="Work Sans" font-size="8.00"> </text>
<text text-anchor="start" x="359.91" y="-98.6" font-family="Work Sans" font-size="8.00" fill="red">F</text>
<text text-anchor="start" x="364.8" y="-98.6" font-family="Work Sans" font-size="8.00"> </text>
<text text-anchor="start" x="367.02" y="-98.6" font-family="Work Sans" font-size="8.00" fill="blue">ON</text>
<text text-anchor="start" x="379.02" y="-98.6" font-family="Work Sans" font-size="8.00"> </text>
<text text-anchor="start" x="368.36" y="-90.6" font-family="Work Sans" font-size="8.00" fill="green"> </text>
</a>
</g>
</g>
<!-- V72399&#45;&gt;V72432 -->
<g id="edge13" class="edge">
<title>V72399&#45;&gt;V72432</title>
<path fill="none" stroke="grey" stroke-width="0.5" d="M279.79,-169.04C299.54,-156.97 325.6,-140.35 347.47,-124 349.48,-122.49 351.55,-120.85 353.57,-119.19"/>
<polygon fill="grey" stroke="grey" stroke-width="0.5" points="354.93,-120.33 357.62,-115.77 352.67,-117.66 354.93,-120.33"/>
<text text-anchor="middle" x="345.06" y="-143.6" font-family="Work Sans" font-size="8.00"> LOCATION &#160;&#160;</text>
</g>
<!-- V72415 -->
<g id="node7" class="node">
<title>V72415</title>
<g id="a_node7"><a xlink:href="http://trips.ihmc.us/lexicon/data/ONT::OTHER.xml" xlink:title="&lt;font color=&quot;green&quot;&gt;&lt;br /&gt;&lt;/font&gt; &lt;font color=&quot;black&quot;&gt;OTHER&lt;/font&gt; &lt;font color=&quot;green&quot;&gt;&lt;br /&gt;&lt;/font&gt; &lt;font color=&quot;red&quot;&gt;F&lt;/font&gt; &lt;font color=&quot;blue&quot;&gt;OTHER&lt;/font&gt; &lt;font color=&quot;green&quot;&gt;&lt;br /&gt;&lt;/font&gt; &lt;font color=&quot;green&quot;&gt;other%3:00:00::&lt;/font&gt; &lt;font color=&quot;green&quot;&gt;&lt;br /&gt; &lt;/font&gt;">
<text text-anchor="start" x="249.24" y="-26.6" font-family="Work Sans" font-size="8.00"> </text>
<text text-anchor="start" x="251.47" y="-26.6" font-family="Work Sans" font-size="8.00">OTHER</text>
<text text-anchor="start" x="279.47" y="-26.6" font-family="Work Sans" font-size="8.00"> </text>
<text text-anchor="start" x="245.69" y="-18.6" font-family="Work Sans" font-size="8.00"> </text>
<text text-anchor="start" x="247.91" y="-18.6" font-family="Work Sans" font-size="8.00" fill="red">F</text>
<text text-anchor="start" x="252.8" y="-18.6" font-family="Work Sans" font-size="8.00"> </text>
<text text-anchor="start" x="255.02" y="-18.6" font-family="Work Sans" font-size="8.00" fill="blue">OTHER</text>
<text text-anchor="start" x="283.02" y="-18.6" font-family="Work Sans" font-size="8.00"> </text>
<text text-anchor="start" x="235" y="-10.6" font-family="Work Sans" font-size="8.00"> </text>
<text text-anchor="start" x="237.22" y="-10.6" font-family="Work Sans" font-size="8.00" fill="green">other%3:00:00::</text>
<text text-anchor="start" x="293.71" y="-10.6" font-family="Work Sans" font-size="8.00"> </text>
<text text-anchor="start" x="264.36" y="-2.6" font-family="Work Sans" font-size="8.00" fill="green"> </text>
</a>
</g>
</g>
<!-- V72419&#45;&gt;V72415 -->
<g id="edge7" class="edge">
<title>V72419&#45;&gt;V72415</title>
<path fill="none" stroke="grey" stroke-width="0.5" d="M263.18,-83.78C257.8,-78.68 252.92,-72.7 249.91,-66 246.89,-59.26 247.87,-51.74 250.43,-44.81"/>
<polygon fill="grey" stroke="grey" stroke-width="0.5" points="252.08,-45.41 252.43,-40.12 248.86,-44.04 252.08,-45.41"/>
<text text-anchor="middle" x="263.24" y="-59.6" font-family="Work Sans" font-size="8.00"> MOD &#160;&#160;</text>
</g>
<!-- V72415&#45;&gt;V72419 -->
<g id="edge14" class="edge">
<title>V72415&#45;&gt;V72419</title>
<path fill="none" stroke="grey" stroke-width="0.5" d="M271.74,-40.19C273.6,-45.91 275.63,-52.21 277.47,-58 279.6,-64.71 281.88,-72 283.97,-78.71"/>
<polygon fill="grey" stroke="grey" stroke-width="0.5" points="282.37,-79.46 285.52,-83.71 285.71,-78.42 282.37,-79.46"/>
<text text-anchor="middle" x="299.02" y="-59.6" font-family="Work Sans" font-size="8.00"> FIGURE &#160;&#160;</text>
</g>
<!-- V72432&#45;&gt;V72399 -->
<g id="edge10" class="edge">
<title>V72432&#45;&gt;V72399</title>
<path fill="none" stroke="grey" stroke-width="0.5" d="M381.32,-118.18C388.41,-127.71 394.74,-140.52 387.47,-150 375.05,-166.18 321.66,-176.84 285.05,-182.39"/>
<polygon fill="grey" stroke="grey" stroke-width="0.5" points="284.47,-180.71 279.78,-183.18 284.98,-184.17 284.47,-180.71"/>
<text text-anchor="middle" x="410.02" y="-143.6" font-family="Work Sans" font-size="8.00"> FIGURE &#160;&#160;</text>
</g>
<!-- V72454 -->
<g id="node9" class="node">
<title>V72454</title>
<g id="a_node9"><a xlink:href="http://trips.ihmc.us/lexicon/data/ONT::FACILITY.xml" xlink:title="&lt;font color=&quot;green&quot;&gt;&lt;br /&gt;&lt;/font&gt; &lt;font color=&quot;black&quot;&gt;FACILITY&lt;/font&gt; &lt;font color=&quot;green&quot;&gt;&lt;br /&gt;&lt;/font&gt; &lt;font color=&quot;red&quot;&gt;BARE&lt;/font&gt; &lt;font color=&quot;blue&quot;&gt;CAMPUS&lt;/font&gt; &lt;font color=&quot;green&quot;&gt;&lt;br /&gt;&lt;/font&gt; &lt;font color=&quot;green&quot;&gt;facility%1:04:01&lt;/font&gt; &lt;font color=&quot;green&quot;&gt;&lt;br /&gt; &lt;/font&gt;">
<polygon fill="pink" stroke="transparent" points="400.65,-40 338.29,-40 338.29,0 400.65,0 400.65,-40"/>
<text text-anchor="start" x="349.9" y="-26.6" font-family="Work Sans" font-size="8.00"> </text>
<text text-anchor="start" x="352.13" y="-26.6" font-family="Work Sans" font-size="8.00">FACILITY</text>
<text text-anchor="start" x="386.81" y="-26.6" font-family="Work Sans" font-size="8.00"> </text>
<text text-anchor="start" x="338.13" y="-18.6" font-family="Work Sans" font-size="8.00"> </text>
<text text-anchor="start" x="340.35" y="-18.6" font-family="Work Sans" font-size="8.00" fill="red">BARE</text>
<text text-anchor="start" x="362.13" y="-18.6" font-family="Work Sans" font-size="8.00"> </text>
<text text-anchor="start" x="364.36" y="-18.6" font-family="Work Sans" font-size="8.00" fill="blue">CAMPUS</text>
<text text-anchor="start" x="398.58" y="-18.6" font-family="Work Sans" font-size="8.00"> </text>
<text text-anchor="start" x="339.23" y="-10.6" font-family="Work Sans" font-size="8.00"> </text>
<text text-anchor="start" x="341.45" y="-10.6" font-family="Work Sans" font-size="8.00" fill="green">facility%1:04:01</text>
<text text-anchor="start" x="397.48" y="-10.6" font-family="Work Sans" font-size="8.00"> </text>
<text text-anchor="start" x="368.36" y="-2.6" font-family="Work Sans" font-size="8.00" fill="green"> </text>
</a>
</g>
</g>
<!-- V72432&#45;&gt;V72454 -->
<g id="edge5" class="edge">
<title>V72432&#45;&gt;V72454</title>
<path fill="none" stroke="grey" stroke-width="0.5" d="M369.47,-87.96C369.47,-76.12 369.47,-59.38 369.47,-45.6"/>
<polygon fill="grey" stroke="grey" stroke-width="0.5" points="371.22,-45.29 369.47,-40.29 367.72,-45.29 371.22,-45.29"/>
<text text-anchor="middle" x="391.69" y="-59.6" font-family="Work Sans" font-size="8.00"> GROUND &#160;&#160;</text>
</g>
</g>
</svg>
