<?xml version="1.0" encoding="UTF-8" standalone="no"?>
<!DOCTYPE svg PUBLIC "-//W3C//DTD SVG 1.1//EN"
 "http://www.w3.org/Graphics/SVG/1.1/DTD/svg11.dtd">
<!-- Generated by graphviz version 2.43.0 (0)
 -->
<!-- Title: graph Pages: 1 -->
<svg width="306pt" height="452pt"
 viewBox="0.00 0.00 305.81 452.00" xmlns="http://www.w3.org/2000/svg" xmlns:xlink="http://www.w3.org/1999/xlink">
<g id="graph0" class="graph" transform="scale(1 1) rotate(0) translate(4 448)">
<title>graph</title>
<polygon fill="white" stroke="transparent" points="-4,4 -4,-448 301.81,-448 301.81,4 -4,4"/>
<!-- V324389 -->
<g id="node1" class="node">
<title>V324389</title>
<g id="a_node1"><a xlink:href="http://trips.ihmc.us/lexicon/data/ONT::SA_TELL.xml" xlink:title="&lt;font color=&quot;green&quot;&gt;&lt;br /&gt;&lt;/font&gt; &lt;font color=&quot;black&quot;&gt;SA_TELL&lt;/font&gt; &lt;font color=&quot;green&quot;&gt;&lt;br /&gt;&lt;/font&gt; &lt;font color=&quot;red&quot;&gt;SPEECHACT&lt;/font&gt; &lt;font color=&quot;blue&quot;&gt;* &lt;/font&gt; &lt;font color=&quot;green&quot;&gt;&lt;br /&gt; &lt;/font&gt;">
<text text-anchor="start" x="11.11" y="-430.6" font-family="Work Sans" font-size="8.00"> </text>
<text text-anchor="start" x="13.33" y="-430.6" font-family="Work Sans" font-size="8.00">SA_TELL</text>
<text text-anchor="start" x="47.57" y="-430.6" font-family="Work Sans" font-size="8.00"> </text>
<text text-anchor="start" x="0" y="-422.6" font-family="Work Sans" font-size="8.00"> </text>
<text text-anchor="start" x="2.22" y="-422.6" font-family="Work Sans" font-size="8.00" fill="red">SPEECHACT</text>
<text text-anchor="start" x="51.12" y="-422.6" font-family="Work Sans" font-size="8.00"> </text>
<text text-anchor="start" x="53.34" y="-422.6" font-family="Work Sans" font-size="8.00" fill="blue">* </text>
<text text-anchor="start" x="58.68" y="-422.6" font-family="Work Sans" font-size="8.00"> </text>
<text text-anchor="start" x="29.34" y="-414.6" font-family="Work Sans" font-size="8.00" fill="green"> </text>
</a>
</g>
</g>
<!-- V323855 -->
<g id="node2" class="node">
<title>V323855</title>
<g id="a_node2"><a xlink:href="http://trips.ihmc.us/lexicon/data/ONT::DRIVE.xml" xlink:title="&lt;font color=&quot;green&quot;&gt;&lt;br /&gt;&lt;/font&gt; &lt;font color=&quot;black&quot;&gt;DRIVE&lt;/font&gt; &lt;font color=&quot;green&quot;&gt;&lt;br /&gt;&lt;/font&gt; &lt;font color=&quot;red&quot;&gt;F&lt;/font&gt; &lt;font color=&quot;blue&quot;&gt;DRIVE&lt;/font&gt; &lt;font color=&quot;green&quot;&gt;&lt;br /&gt;&lt;/font&gt; &lt;font color=&quot;green&quot;&gt;drive%2:38:01::&lt;/font&gt; &lt;font color=&quot;green&quot;&gt;&lt;br /&gt; &lt;/font&gt;">
<polygon fill="pink" stroke="transparent" stroke-width="0.5" points="0.42,-328 30.45,-328 30.45,-368 0.42,-368 0.42,-328"/>
<polygon fill="lightblue" stroke="transparent" stroke-width="0.5" points="30.45,-328 60.49,-328 60.49,-368 30.45,-368 30.45,-328"/>
<polygon fill="none" stroke="transparent" points="60.49,-368 0.42,-368 0.42,-328 60.49,-328 60.49,-368"/>
<text text-anchor="start" x="16" y="-354.6" font-family="Work Sans" font-size="8.00"> </text>
<text text-anchor="start" x="18.23" y="-354.6" font-family="Work Sans" font-size="8.00">DRIVE</text>
<text text-anchor="start" x="42.68" y="-354.6" font-family="Work Sans" font-size="8.00"> </text>
<text text-anchor="start" x="12.45" y="-346.6" font-family="Work Sans" font-size="8.00"> </text>
<text text-anchor="start" x="14.67" y="-346.6" font-family="Work Sans" font-size="8.00" fill="red">F</text>
<text text-anchor="start" x="19.56" y="-346.6" font-family="Work Sans" font-size="8.00"> </text>
<text text-anchor="start" x="21.78" y="-346.6" font-family="Work Sans" font-size="8.00" fill="blue">DRIVE</text>
<text text-anchor="start" x="46.23" y="-346.6" font-family="Work Sans" font-size="8.00"> </text>
<text text-anchor="start" x="0.43" y="-338.6" font-family="Work Sans" font-size="8.00"> </text>
<text text-anchor="start" x="2.66" y="-338.6" font-family="Work Sans" font-size="8.00" fill="green">drive%2:38:01::</text>
<text text-anchor="start" x="58.25" y="-338.6" font-family="Work Sans" font-size="8.00"> </text>
<text text-anchor="start" x="29.34" y="-330.6" font-family="Work Sans" font-size="8.00" fill="green"> </text>
</a>
</g>
</g>
<!-- V324389&#45;&gt;V323855 -->
<g id="edge10" class="edge">
<title>V324389&#45;&gt;V323855</title>
<path fill="none" stroke="grey" stroke-width="0.5" d="M30.45,-411.96C30.45,-401.04 30.45,-386.02 30.45,-373.39"/>
<polygon fill="grey" stroke="grey" stroke-width="0.5" points="32.2,-373.14 30.45,-368.14 28.7,-373.14 32.2,-373.14"/>
<text text-anchor="middle" x="54.16" y="-387.6" font-family="Work Sans" font-size="8.00"> CONTENT &#160;&#160;</text>
</g>
<!-- V323833 -->
<g id="node3" class="node">
<title>V323833</title>
<g id="a_node3"><a xlink:href="http://trips.ihmc.us/lexicon/data/ONT::MALE-PERSON.xml" xlink:title="&lt;font color=&quot;green&quot;&gt;&lt;br /&gt;&lt;/font&gt; &lt;font color=&quot;black&quot;&gt;MALE&#45;PERSON&lt;/font&gt; &lt;font color=&quot;green&quot;&gt;&lt;br /&gt;&lt;/font&gt; &lt;font color=&quot;red&quot;&gt;THE&lt;/font&gt; &lt;font color=&quot;blue&quot;&gt;JIM&lt;/font&gt; &lt;font color=&quot;green&quot;&gt;&lt;br /&gt;&lt;/font&gt; &lt;font color=&quot;green&quot;&gt;man%1:18:00&lt;/font&gt; &lt;font color=&quot;green&quot;&gt;&lt;br /&gt; &lt;/font&gt;">
<text text-anchor="start" x="80.11" y="-26.6" font-family="Work Sans" font-size="8.00"> </text>
<text text-anchor="start" x="82.33" y="-26.6" font-family="Work Sans" font-size="8.00">MALE&#45;PERSON</text>
<text text-anchor="start" x="140.57" y="-26.6" font-family="Work Sans" font-size="8.00"> </text>
<text text-anchor="start" x="93.67" y="-18.6" font-family="Work Sans" font-size="8.00"> </text>
<text text-anchor="start" x="95.9" y="-18.6" font-family="Work Sans" font-size="8.00" fill="red">THE</text>
<text text-anchor="start" x="111.9" y="-18.6" font-family="Work Sans" font-size="8.00"> </text>
<text text-anchor="start" x="114.12" y="-18.6" font-family="Work Sans" font-size="8.00" fill="blue">JIM</text>
<text text-anchor="start" x="127.01" y="-18.6" font-family="Work Sans" font-size="8.00"> </text>
<text text-anchor="start" x="84.54" y="-10.6" font-family="Work Sans" font-size="8.00"> </text>
<text text-anchor="start" x="86.77" y="-10.6" font-family="Work Sans" font-size="8.00" fill="green">man%1:18:00</text>
<text text-anchor="start" x="136.13" y="-10.6" font-family="Work Sans" font-size="8.00"> </text>
<text text-anchor="start" x="110.34" y="-2.6" font-family="Work Sans" font-size="8.00" fill="green"> </text>
</a>
</g>
</g>
<!-- V323855&#45;&gt;V323833 -->
<g id="edge5" class="edge">
<title>V323855&#45;&gt;V323833</title>
<path fill="none" stroke="grey" stroke-width="0.5" d="M24.31,-327.99C19.8,-312.33 14.45,-289.46 14.45,-269 14.45,-269 14.45,-269 14.45,-103 14.45,-69.86 47.89,-47.36 75.5,-34.44"/>
<polygon fill="grey" stroke="grey" stroke-width="0.5" points="76.4,-35.96 80.23,-32.3 74.95,-32.77 76.4,-35.96"/>
<text text-anchor="middle" x="32.39" y="-185.6" font-family="Work Sans" font-size="8.00"> AGENT &#160;&#160;</text>
</g>
<!-- V323871 -->
<g id="node4" class="node">
<title>V323871</title>
<g id="a_node4"><a xlink:href="http://trips.ihmc.us/lexicon/data/ONT::TO-LOC.xml" xlink:title="&lt;font color=&quot;green&quot;&gt;&lt;br /&gt;&lt;/font&gt; &lt;font color=&quot;black&quot;&gt;TO&#45;LOC&lt;/font&gt; &lt;font color=&quot;green&quot;&gt;&lt;br /&gt;&lt;/font&gt; &lt;font color=&quot;red&quot;&gt;F&lt;/font&gt; &lt;font color=&quot;blue&quot;&gt;TO&lt;/font&gt; &lt;font color=&quot;green&quot;&gt;&lt;br /&gt; &lt;/font&gt;">
<polygon fill="pink" stroke="transparent" stroke-width="0.5" points="77.42,-252 94.45,-252 94.45,-284 77.42,-284 77.42,-252"/>
<polygon fill="lightblue" stroke="transparent" stroke-width="0.5" points="94.45,-252 111.48,-252 111.48,-284 94.45,-284 94.45,-252"/>
<polygon fill="none" stroke="transparent" points="111.48,-284 77.42,-284 77.42,-252 111.48,-252 111.48,-284"/>
<text text-anchor="start" x="77.19" y="-270.6" font-family="Work Sans" font-size="8.00"> </text>
<text text-anchor="start" x="79.41" y="-270.6" font-family="Work Sans" font-size="8.00">TO&#45;LOC</text>
<text text-anchor="start" x="109.49" y="-270.6" font-family="Work Sans" font-size="8.00"> </text>
<text text-anchor="start" x="83.19" y="-262.6" font-family="Work Sans" font-size="8.00"> </text>
<text text-anchor="start" x="85.41" y="-262.6" font-family="Work Sans" font-size="8.00" fill="red">F</text>
<text text-anchor="start" x="90.3" y="-262.6" font-family="Work Sans" font-size="8.00"> </text>
<text text-anchor="start" x="92.52" y="-262.6" font-family="Work Sans" font-size="8.00" fill="blue">TO</text>
<text text-anchor="start" x="103.49" y="-262.6" font-family="Work Sans" font-size="8.00"> </text>
<text text-anchor="start" x="93.34" y="-254.6" font-family="Work Sans" font-size="8.00" fill="green"> </text>
</a>
</g>
</g>
<!-- V323855&#45;&gt;V323871 -->
<g id="edge3" class="edge">
<title>V323855&#45;&gt;V323871</title>
<path fill="none" stroke="grey" stroke-width="0.5" d="M46.27,-327.72C56.18,-315.64 68.9,-300.14 78.78,-288.09"/>
<polygon fill="grey" stroke="grey" stroke-width="0.5" points="80.2,-289.13 82.02,-284.15 77.49,-286.91 80.2,-289.13"/>
<text text-anchor="middle" x="86.31" y="-303.6" font-family="Work Sans" font-size="8.00"> RESULT &#160;&#160;</text>
</g>
<!-- V323871&#45;&gt;V323833 -->
<g id="edge6" class="edge">
<title>V323871&#45;&gt;V323833</title>
<path fill="none" stroke="grey" stroke-width="0.5" d="M94.15,-251.97C93.8,-228.47 93.57,-181.62 96.34,-142 98.69,-108.28 103.99,-69.56 107.64,-45.19"/>
<polygon fill="grey" stroke="grey" stroke-width="0.5" points="109.37,-45.42 108.39,-40.22 105.91,-44.9 109.37,-45.42"/>
<text text-anchor="middle" x="116.01" y="-143.6" font-family="Work Sans" font-size="8.00"> FIGURE &#160;&#160;</text>
</g>
<!-- V323941 -->
<g id="node5" class="node">
<title>V323941</title>
<g id="a_node5"><a xlink:href="http://trips.ihmc.us/lexicon/data/ONT::PLACE.xml" xlink:title="&lt;font color=&quot;green&quot;&gt;&lt;br /&gt;&lt;/font&gt; &lt;font color=&quot;black&quot;&gt;PLACE&lt;/font&gt; &lt;font color=&quot;green&quot;&gt;&lt;br /&gt;&lt;/font&gt; &lt;font color=&quot;red&quot;&gt;THE&lt;/font&gt; &lt;font color=&quot;blue&quot;&gt;PLACE&lt;/font&gt; &lt;font color=&quot;green&quot;&gt;&lt;br /&gt;&lt;/font&gt; &lt;font color=&quot;green&quot;&gt;place%1:15:00::&lt;/font&gt; &lt;font color=&quot;green&quot;&gt;&lt;br /&gt; &lt;/font&gt;">
<text text-anchor="start" x="202.11" y="-194.6" font-family="Work Sans" font-size="8.00"> </text>
<text text-anchor="start" x="204.33" y="-194.6" font-family="Work Sans" font-size="8.00">PLACE</text>
<text text-anchor="start" x="230.57" y="-194.6" font-family="Work Sans" font-size="8.00"> </text>
<text text-anchor="start" x="193" y="-186.6" font-family="Work Sans" font-size="8.00"> </text>
<text text-anchor="start" x="195.22" y="-186.6" font-family="Work Sans" font-size="8.00" fill="red">THE</text>
<text text-anchor="start" x="211.22" y="-186.6" font-family="Work Sans" font-size="8.00"> </text>
<text text-anchor="start" x="213.45" y="-186.6" font-family="Work Sans" font-size="8.00" fill="blue">PLACE</text>
<text text-anchor="start" x="239.68" y="-186.6" font-family="Work Sans" font-size="8.00"> </text>
<text text-anchor="start" x="186.54" y="-178.6" font-family="Work Sans" font-size="8.00"> </text>
<text text-anchor="start" x="188.76" y="-178.6" font-family="Work Sans" font-size="8.00" fill="green">place%1:15:00::</text>
<text text-anchor="start" x="246.14" y="-178.6" font-family="Work Sans" font-size="8.00"> </text>
<text text-anchor="start" x="216.34" y="-170.6" font-family="Work Sans" font-size="8.00" fill="green"> </text>
</a>
</g>
</g>
<!-- V323871&#45;&gt;V323941 -->
<g id="edge8" class="edge">
<title>V323871&#45;&gt;V323941</title>
<path fill="none" stroke="red" d="M111.54,-251.63C121.03,-243.5 133.26,-233.64 145.01,-226 156.5,-218.52 169.7,-211.39 181.66,-205.42"/>
<polygon fill="red" stroke="red" points="182.63,-206.89 186.34,-203.11 181.09,-203.75 182.63,-206.89"/>
<text text-anchor="middle" x="167.67" y="-227.6" font-family="Work Sans" font-size="8.00"> GROUND &#160;&#160;</text>
</g>
<!-- V323871&#45;&gt;V323941 -->
<g id="edge11" class="edge">
<title>V323871&#45;&gt;V323941</title>
<path fill="none" stroke="blue" d="M111.56,-264.6C131.98,-261 166.26,-252.53 189.45,-234 196.48,-228.39 202.22,-220.5 206.63,-212.9"/>
<polygon fill="blue" stroke="blue" points="208.33,-213.45 209.21,-208.22 205.26,-211.76 208.33,-213.45"/>
<text text-anchor="middle" x="197.56" y="-227.6" font-family="Work Sans" font-size="8.00">.</text>
</g>
<!-- V323905 -->
<g id="node6" class="node">
<title>V323905</title>
<g id="a_node6"><a xlink:href="http://trips.ihmc.us/lexicon/data/ONT::WORK.xml" xlink:title="&lt;font color=&quot;green&quot;&gt;&lt;br /&gt;&lt;/font&gt; &lt;font color=&quot;black&quot;&gt;WORK&lt;/font&gt; &lt;font color=&quot;green&quot;&gt;&lt;br /&gt;&lt;/font&gt; &lt;font color=&quot;red&quot;&gt;KIND&lt;/font&gt; &lt;font color=&quot;blue&quot;&gt;WORK&lt;/font&gt; &lt;font color=&quot;green&quot;&gt;&lt;br /&gt;&lt;/font&gt; &lt;font color=&quot;green&quot;&gt;work%2:41:00::&lt;/font&gt; &lt;font color=&quot;green&quot;&gt;&lt;br /&gt; &lt;/font&gt;">
<polygon fill="pink" stroke="transparent" points="184.04,-124 124.86,-124 124.86,-84 184.04,-84 184.04,-124"/>
<text text-anchor="start" x="139.79" y="-110.6" font-family="Work Sans" font-size="8.00"> </text>
<text text-anchor="start" x="142.01" y="-110.6" font-family="Work Sans" font-size="8.00">WORK</text>
<text text-anchor="start" x="166.89" y="-110.6" font-family="Work Sans" font-size="8.00"> </text>
<text text-anchor="start" x="129.12" y="-102.6" font-family="Work Sans" font-size="8.00"> </text>
<text text-anchor="start" x="131.34" y="-102.6" font-family="Work Sans" font-size="8.00" fill="red">KIND</text>
<text text-anchor="start" x="150.45" y="-102.6" font-family="Work Sans" font-size="8.00"> </text>
<text text-anchor="start" x="152.68" y="-102.6" font-family="Work Sans" font-size="8.00" fill="blue">WORK</text>
<text text-anchor="start" x="177.56" y="-102.6" font-family="Work Sans" font-size="8.00"> </text>
<text text-anchor="start" x="124.66" y="-94.6" font-family="Work Sans" font-size="8.00"> </text>
<text text-anchor="start" x="126.88" y="-94.6" font-family="Work Sans" font-size="8.00" fill="green">work%2:41:00::</text>
<text text-anchor="start" x="182.02" y="-94.6" font-family="Work Sans" font-size="8.00"> </text>
<text text-anchor="start" x="153.34" y="-86.6" font-family="Work Sans" font-size="8.00" fill="green"> </text>
</a>
</g>
</g>
<!-- V323941&#45;&gt;V323905 -->
<g id="edge1" class="edge">
<title>V323941&#45;&gt;V323905</title>
<path fill="none" stroke="red" d="M186.32,-180.15C170.09,-174.82 151.63,-165.62 141.89,-150 137.98,-143.74 138.44,-136.24 140.65,-129.18"/>
<polygon fill="red" stroke="red" points="142.34,-129.68 142.43,-124.38 139.05,-128.46 142.34,-129.68"/>
<text text-anchor="middle" x="172.23" y="-143.6" font-family="Work Sans" font-size="8.00"> ASSOC&#45;WITH &#160;&#160;</text>
</g>
<!-- V323941&#45;&gt;V323905 -->
<g id="edge4" class="edge">
<title>V323941&#45;&gt;V323905</title>
<path fill="none" stroke="blue" d="M213.23,-167.91C210.74,-159.44 206.96,-149.68 201.45,-142 197.69,-136.76 192.98,-131.88 188.01,-127.5"/>
<polygon fill="blue" stroke="blue" points="189.11,-126.14 184.17,-124.25 186.85,-128.81 189.11,-126.14"/>
<text text-anchor="middle" x="206.56" y="-143.6" font-family="Work Sans" font-size="8.00">.</text>
</g>
<!-- V323894 -->
<g id="node7" class="node">
<title>V323894</title>
<g id="a_node7"><a xlink:href="http://trips.ihmc.us/lexicon/data/ONT::MALE-PERSON.xml" xlink:title="&lt;font color=&quot;green&quot;&gt;&lt;br /&gt;&lt;/font&gt; &lt;font color=&quot;black&quot;&gt;MALE&#45;PERSON&lt;/font&gt; &lt;font color=&quot;green&quot;&gt;&lt;br /&gt;&lt;/font&gt; &lt;font color=&quot;red&quot;&gt;PRO&lt;/font&gt; &lt;font color=&quot;blue&quot;&gt;HIS&lt;/font&gt; &lt;font color=&quot;green&quot;&gt;&lt;br /&gt;&lt;/font&gt; &lt;font color=&quot;green&quot;&gt;man%1:18:00&lt;/font&gt; &lt;font color=&quot;green&quot;&gt;&lt;br /&gt; &lt;/font&gt;">
<text text-anchor="start" x="209.11" y="-110.6" font-family="Work Sans" font-size="8.00"> </text>
<text text-anchor="start" x="211.33" y="-110.6" font-family="Work Sans" font-size="8.00">MALE&#45;PERSON</text>
<text text-anchor="start" x="269.57" y="-110.6" font-family="Work Sans" font-size="8.00"> </text>
<text text-anchor="start" x="221.78" y="-102.6" font-family="Work Sans" font-size="8.00"> </text>
<text text-anchor="start" x="224" y="-102.6" font-family="Work Sans" font-size="8.00" fill="red">PRO</text>
<text text-anchor="start" x="241.34" y="-102.6" font-family="Work Sans" font-size="8.00"> </text>
<text text-anchor="start" x="243.56" y="-102.6" font-family="Work Sans" font-size="8.00" fill="blue">HIS</text>
<text text-anchor="start" x="256.9" y="-102.6" font-family="Work Sans" font-size="8.00"> </text>
<text text-anchor="start" x="213.54" y="-94.6" font-family="Work Sans" font-size="8.00"> </text>
<text text-anchor="start" x="215.77" y="-94.6" font-family="Work Sans" font-size="8.00" fill="green">man%1:18:00</text>
<text text-anchor="start" x="265.13" y="-94.6" font-family="Work Sans" font-size="8.00"> </text>
<text text-anchor="start" x="239.34" y="-86.6" font-family="Work Sans" font-size="8.00" fill="green"> </text>
</a>
</g>
</g>
<!-- V323941&#45;&gt;V323894 -->
<g id="edge2" class="edge">
<title>V323941&#45;&gt;V323894</title>
<path fill="none" stroke="blue" d="M222.79,-167.98C226.01,-156.47 230.16,-141.68 233.63,-129.33"/>
<polygon fill="blue" stroke="blue" points="235.4,-129.49 235.07,-124.2 232.03,-128.54 235.4,-129.49"/>
<text text-anchor="middle" x="230.56" y="-143.6" font-family="Work Sans" font-size="8.00">.</text>
</g>
<!-- V323941&#45;&gt;V323894 -->
<g id="edge12" class="edge">
<title>V323941&#45;&gt;V323894</title>
<path fill="none" stroke="red" d="M228.27,-167.91C231.03,-162.3 233.7,-156.04 235.45,-150 237.37,-143.38 238.56,-136.02 239.29,-129.2"/>
<polygon fill="red" stroke="red" points="241.05,-129.25 239.77,-124.11 237.56,-128.92 241.05,-129.25"/>
<text text-anchor="middle" x="267.13" y="-143.6" font-family="Work Sans" font-size="8.00"> ASSOC&#45;POSS &#160;&#160;</text>
</g>
<!-- V323894&#45;&gt;V323833 -->
<g id="edge7" class="edge">
<title>V323894&#45;&gt;V323833</title>
<path fill="none" stroke="red" d="M209.13,-90.19C194.77,-83.76 177.81,-75.34 163.56,-66 153.77,-59.58 143.84,-51.48 135.31,-43.93"/>
<polygon fill="red" stroke="red" points="136.13,-42.32 131.25,-40.28 133.8,-44.92 136.13,-42.32"/>
<text text-anchor="middle" x="181.9" y="-59.6" font-family="Work Sans" font-size="8.00"> COREF &#160;&#160;</text>
</g>
<!-- V323894&#45;&gt;V323833 -->
<g id="edge9" class="edge">
<title>V323894&#45;&gt;V323833</title>
<path fill="none" stroke="blue" d="M226.51,-83.66C219.46,-74.94 210.33,-65.04 200.45,-58 184.64,-46.74 164.89,-38.08 148.01,-31.99"/>
<polygon fill="blue" stroke="blue" points="148.17,-30.19 142.87,-30.18 147,-33.49 148.17,-30.19"/>
<text text-anchor="middle" x="209.56" y="-59.6" font-family="Work Sans" font-size="8.00">.</text>
</g>
</g>
</svg>
