<?xml version="1.0" encoding="UTF-8" standalone="no"?>
<!DOCTYPE svg PUBLIC "-//W3C//DTD SVG 1.1//EN"
 "http://www.w3.org/Graphics/SVG/1.1/DTD/svg11.dtd">
<!-- Generated by graphviz version 2.43.0 (0)
 -->
<!-- Title: graph Pages: 1 -->
<svg width="310pt" height="376pt"
 viewBox="0.00 0.00 309.70 376.00" xmlns="http://www.w3.org/2000/svg" xmlns:xlink="http://www.w3.org/1999/xlink">
<g id="graph0" class="graph" transform="scale(1 1) rotate(0) translate(4 372)">
<title>graph</title>
<polygon fill="white" stroke="transparent" points="-4,4 -4,-372 305.7,-372 305.7,4 -4,4"/>
<!-- V256615 -->
<g id="node1" class="node">
<title>V256615</title>
<g id="a_node1"><a xlink:href="http://trips.ihmc.us/lexicon/data/ONT::SA_TELL.xml" xlink:title="&lt;font color=&quot;green&quot;&gt;&lt;br /&gt;&lt;/font&gt; &lt;font color=&quot;black&quot;&gt;SA_TELL&lt;/font&gt; &lt;font color=&quot;green&quot;&gt;&lt;br /&gt;&lt;/font&gt; &lt;font color=&quot;red&quot;&gt;SPEECHACT&lt;/font&gt; &lt;font color=&quot;blue&quot;&gt;* &lt;/font&gt; &lt;font color=&quot;green&quot;&gt;&lt;br /&gt; &lt;/font&gt;">
<text text-anchor="start" x="142" y="-354.6" font-family="Work Sans" font-size="8.00"> </text>
<text text-anchor="start" x="144.22" y="-354.6" font-family="Work Sans" font-size="8.00">SA_TELL</text>
<text text-anchor="start" x="178.46" y="-354.6" font-family="Work Sans" font-size="8.00"> </text>
<text text-anchor="start" x="130.89" y="-346.6" font-family="Work Sans" font-size="8.00"> </text>
<text text-anchor="start" x="133.11" y="-346.6" font-family="Work Sans" font-size="8.00" fill="red">SPEECHACT</text>
<text text-anchor="start" x="182.01" y="-346.6" font-family="Work Sans" font-size="8.00"> </text>
<text text-anchor="start" x="184.23" y="-346.6" font-family="Work Sans" font-size="8.00" fill="blue">* </text>
<text text-anchor="start" x="189.57" y="-346.6" font-family="Work Sans" font-size="8.00"> </text>
<text text-anchor="start" x="160.23" y="-338.6" font-family="Work Sans" font-size="8.00" fill="green"> </text>
</a>
</g>
</g>
<!-- V255891 -->
<g id="node2" class="node">
<title>V255891</title>
<g id="a_node2"><a xlink:href="http://trips.ihmc.us/lexicon/data/ONT::SELECT.xml" xlink:title="&lt;font color=&quot;green&quot;&gt;&lt;br /&gt;&lt;/font&gt; &lt;font color=&quot;black&quot;&gt;SELECT&lt;/font&gt; &lt;font color=&quot;green&quot;&gt;&lt;br /&gt;&lt;/font&gt; &lt;font color=&quot;red&quot;&gt;F&lt;/font&gt; &lt;font color=&quot;blue&quot;&gt;PICK&lt;/font&gt; &lt;font color=&quot;green&quot;&gt;&lt;br /&gt;&lt;/font&gt; &lt;font color=&quot;green&quot;&gt;pick%2:31:00::&lt;/font&gt; &lt;font color=&quot;green&quot;&gt;&lt;br /&gt; &lt;/font&gt;">
<polygon fill="pink" stroke="transparent" stroke-width="0.5" points="132.92,-252 161.34,-252 161.34,-292 132.92,-292 132.92,-252"/>
<polygon fill="lightblue" stroke="transparent" stroke-width="0.5" points="161.34,-252 189.76,-252 189.76,-292 161.34,-292 161.34,-252"/>
<polygon fill="none" stroke="transparent" points="189.76,-292 132.92,-292 132.92,-252 189.76,-252 189.76,-292"/>
<text text-anchor="start" x="143.56" y="-278.6" font-family="Work Sans" font-size="8.00"> </text>
<text text-anchor="start" x="145.78" y="-278.6" font-family="Work Sans" font-size="8.00">SELECT</text>
<text text-anchor="start" x="176.9" y="-278.6" font-family="Work Sans" font-size="8.00"> </text>
<text text-anchor="start" x="146.23" y="-270.6" font-family="Work Sans" font-size="8.00"> </text>
<text text-anchor="start" x="148.45" y="-270.6" font-family="Work Sans" font-size="8.00" fill="red">F</text>
<text text-anchor="start" x="153.34" y="-270.6" font-family="Work Sans" font-size="8.00"> </text>
<text text-anchor="start" x="155.56" y="-270.6" font-family="Work Sans" font-size="8.00" fill="blue">PICK</text>
<text text-anchor="start" x="174.23" y="-270.6" font-family="Work Sans" font-size="8.00"> </text>
<text text-anchor="start" x="132.88" y="-262.6" font-family="Work Sans" font-size="8.00"> </text>
<text text-anchor="start" x="135.1" y="-262.6" font-family="Work Sans" font-size="8.00" fill="green">pick%2:31:00::</text>
<text text-anchor="start" x="187.58" y="-262.6" font-family="Work Sans" font-size="8.00"> </text>
<text text-anchor="start" x="160.23" y="-254.6" font-family="Work Sans" font-size="8.00" fill="green"> </text>
</a>
</g>
</g>
<!-- V256615&#45;&gt;V255891 -->
<g id="edge7" class="edge">
<title>V256615&#45;&gt;V255891</title>
<path fill="none" stroke="grey" stroke-width="0.5" d="M161.34,-335.96C161.34,-325.04 161.34,-310.02 161.34,-297.39"/>
<polygon fill="grey" stroke="grey" stroke-width="0.5" points="163.09,-297.14 161.34,-292.14 159.59,-297.14 163.09,-297.14"/>
<text text-anchor="middle" x="185.05" y="-311.6" font-family="Work Sans" font-size="8.00"> CONTENT &#160;&#160;</text>
</g>
<!-- V255884 -->
<g id="node3" class="node">
<title>V255884</title>
<g id="a_node3"><a xlink:href="http://trips.ihmc.us/lexicon/data/ONT::MALE-PERSON.xml" xlink:title="&lt;font color=&quot;green&quot;&gt;&lt;br /&gt;&lt;/font&gt; &lt;font color=&quot;black&quot;&gt;MALE&#45;PERSON&lt;/font&gt; &lt;font color=&quot;green&quot;&gt;&lt;br /&gt;&lt;/font&gt; &lt;font color=&quot;red&quot;&gt;PRO&lt;/font&gt; &lt;font color=&quot;blue&quot;&gt;HE&lt;/font&gt; &lt;font color=&quot;green&quot;&gt;&lt;br /&gt;&lt;/font&gt; &lt;font color=&quot;green&quot;&gt;man%1:18:00&lt;/font&gt; &lt;font color=&quot;green&quot;&gt;&lt;br /&gt; &lt;/font&gt;">
<text text-anchor="start" x="0" y="-194.6" font-family="Work Sans" font-size="8.00"> </text>
<text text-anchor="start" x="2.22" y="-194.6" font-family="Work Sans" font-size="8.00">MALE&#45;PERSON</text>
<text text-anchor="start" x="60.46" y="-194.6" font-family="Work Sans" font-size="8.00"> </text>
<text text-anchor="start" x="13.78" y="-186.6" font-family="Work Sans" font-size="8.00"> </text>
<text text-anchor="start" x="16" y="-186.6" font-family="Work Sans" font-size="8.00" fill="red">PRO</text>
<text text-anchor="start" x="33.34" y="-186.6" font-family="Work Sans" font-size="8.00"> </text>
<text text-anchor="start" x="35.56" y="-186.6" font-family="Work Sans" font-size="8.00" fill="blue">HE</text>
<text text-anchor="start" x="46.68" y="-186.6" font-family="Work Sans" font-size="8.00"> </text>
<text text-anchor="start" x="4.43" y="-178.6" font-family="Work Sans" font-size="8.00"> </text>
<text text-anchor="start" x="6.66" y="-178.6" font-family="Work Sans" font-size="8.00" fill="green">man%1:18:00</text>
<text text-anchor="start" x="56.02" y="-178.6" font-family="Work Sans" font-size="8.00"> </text>
<text text-anchor="start" x="30.23" y="-170.6" font-family="Work Sans" font-size="8.00" fill="green"> </text>
</a>
</g>
</g>
<!-- V255891&#45;&gt;V255884 -->
<g id="edge8" class="edge">
<title>V255891&#45;&gt;V255884</title>
<path fill="none" stroke="grey" stroke-width="0.5" d="M132.65,-266.37C110.15,-261.52 79.11,-251.99 57.47,-234 50.68,-228.36 45.27,-220.47 41.17,-212.86"/>
<polygon fill="grey" stroke="grey" stroke-width="0.5" points="42.62,-211.85 38.79,-208.19 39.5,-213.44 42.62,-211.85"/>
<text text-anchor="middle" x="76.28" y="-227.6" font-family="Work Sans" font-size="8.00"> AGENT &#160;&#160;</text>
</g>
<!-- V255931 -->
<g id="node4" class="node">
<title>V255931</title>
<g id="a_node4"><a xlink:href="http://trips.ihmc.us/lexicon/data/ONT::DIRECTION-UP.xml" xlink:title="&lt;font color=&quot;green&quot;&gt;&lt;br /&gt;&lt;/font&gt; &lt;font color=&quot;black&quot;&gt;DIRECTION&#45;UP&lt;/font&gt; &lt;font color=&quot;green&quot;&gt;&lt;br /&gt;&lt;/font&gt; &lt;font color=&quot;red&quot;&gt;F&lt;/font&gt; &lt;font color=&quot;blue&quot;&gt;UP&lt;/font&gt; &lt;font color=&quot;green&quot;&gt;&lt;br /&gt; &lt;/font&gt;">
<polygon fill="pink" stroke="transparent" stroke-width="0.5" points="80.12,-172 111.34,-172 111.34,-204 80.12,-204 80.12,-172"/>
<polygon fill="lightblue" stroke="transparent" stroke-width="0.5" points="111.34,-172 142.56,-172 142.56,-204 111.34,-204 111.34,-172"/>
<polygon fill="none" stroke="transparent" points="142.56,-204 80.12,-204 80.12,-172 142.56,-172 142.56,-204"/>
<text text-anchor="start" x="80.23" y="-190.6" font-family="Work Sans" font-size="8.00"> </text>
<text text-anchor="start" x="82.45" y="-190.6" font-family="Work Sans" font-size="8.00">DIRECTION&#45;UP</text>
<text text-anchor="start" x="140.23" y="-190.6" font-family="Work Sans" font-size="8.00"> </text>
<text text-anchor="start" x="100.01" y="-182.6" font-family="Work Sans" font-size="8.00"> </text>
<text text-anchor="start" x="102.23" y="-182.6" font-family="Work Sans" font-size="8.00" fill="red">F</text>
<text text-anchor="start" x="107.12" y="-182.6" font-family="Work Sans" font-size="8.00"> </text>
<text text-anchor="start" x="109.34" y="-182.6" font-family="Work Sans" font-size="8.00" fill="blue">UP</text>
<text text-anchor="start" x="120.45" y="-182.6" font-family="Work Sans" font-size="8.00"> </text>
<text text-anchor="start" x="110.23" y="-174.6" font-family="Work Sans" font-size="8.00" fill="green"> </text>
</a>
</g>
</g>
<!-- V255891&#45;&gt;V255931 -->
<g id="edge2" class="edge">
<title>V255891&#45;&gt;V255931</title>
<path fill="none" stroke="red" d="M132.88,-261.37C120.33,-255.54 106.82,-246.72 99.62,-234 95.33,-226.44 96.73,-217.28 99.78,-209.2"/>
<polygon fill="red" stroke="red" points="101.5,-209.62 101.86,-204.34 98.28,-208.25 101.5,-209.62"/>
<text text-anchor="middle" x="120.2" y="-227.6" font-family="Work Sans" font-size="8.00"> RESULT &#160;&#160;</text>
</g>
<!-- V255891&#45;&gt;V255931 -->
<g id="edge3" class="edge">
<title>V255891&#45;&gt;V255931</title>
<path fill="none" stroke="blue" d="M152.92,-251.74C149.12,-243.6 144.35,-234.15 139.34,-226 135.64,-219.98 131.19,-213.75 126.94,-208.15"/>
<polygon fill="blue" stroke="blue" points="128.19,-206.9 123.74,-204.01 125.41,-209.04 128.19,-206.9"/>
<text text-anchor="middle" x="145.45" y="-227.6" font-family="Work Sans" font-size="8.00">.</text>
</g>
<!-- V256003 -->
<g id="node5" class="node">
<title>V256003</title>
<g id="a_node5"><a xlink:href="http://trips.ihmc.us/lexicon/data/ONT::NATURAL-OBJECT.xml" xlink:title="&lt;font color=&quot;green&quot;&gt;&lt;br /&gt;&lt;/font&gt; &lt;font color=&quot;black&quot;&gt;NATURAL&#45;OBJECT&lt;/font&gt; &lt;font color=&quot;green&quot;&gt;&lt;br /&gt;&lt;/font&gt; &lt;font color=&quot;red&quot;&gt;THE&#45;SET&lt;/font&gt; &lt;font color=&quot;blue&quot;&gt;STICK&lt;/font&gt; &lt;font color=&quot;green&quot;&gt;&lt;br /&gt;&lt;/font&gt; &lt;font color=&quot;green&quot;&gt;natural_object%1:03:00&lt;/font&gt; &lt;font color=&quot;green&quot;&gt;&lt;br /&gt; &lt;/font&gt;">
<polygon fill="pink" stroke="transparent" stroke-width="0.5" points="134.33,-84 178.34,-84 178.34,-124 134.33,-124 134.33,-84"/>
<polygon fill="lightblue" stroke="transparent" stroke-width="0.5" points="178.34,-84 222.35,-84 222.35,-124 178.34,-124 178.34,-84"/>
<polygon fill="none" stroke="transparent" points="222.35,-124 134.33,-124 134.33,-84 222.35,-84 222.35,-124"/>
<text text-anchor="start" x="140.63" y="-110.6" font-family="Work Sans" font-size="8.00"> </text>
<text text-anchor="start" x="142.85" y="-110.6" font-family="Work Sans" font-size="8.00">NATURAL&#45;OBJECT</text>
<text text-anchor="start" x="213.83" y="-110.6" font-family="Work Sans" font-size="8.00"> </text>
<text text-anchor="start" x="146.12" y="-102.6" font-family="Work Sans" font-size="8.00"> </text>
<text text-anchor="start" x="148.34" y="-102.6" font-family="Work Sans" font-size="8.00" fill="red">THE&#45;SET</text>
<text text-anchor="start" x="182.56" y="-102.6" font-family="Work Sans" font-size="8.00"> </text>
<text text-anchor="start" x="184.78" y="-102.6" font-family="Work Sans" font-size="8.00" fill="blue">STICK</text>
<text text-anchor="start" x="208.34" y="-102.6" font-family="Work Sans" font-size="8.00"> </text>
<text text-anchor="start" x="134.09" y="-94.6" font-family="Work Sans" font-size="8.00"> </text>
<text text-anchor="start" x="136.31" y="-94.6" font-family="Work Sans" font-size="8.00" fill="green">natural_object%1:03:00</text>
<text text-anchor="start" x="220.37" y="-94.6" font-family="Work Sans" font-size="8.00"> </text>
<text text-anchor="start" x="177.23" y="-86.6" font-family="Work Sans" font-size="8.00" fill="green"> </text>
</a>
</g>
</g>
<!-- V255891&#45;&gt;V256003 -->
<g id="edge4" class="edge">
<title>V255891&#45;&gt;V256003</title>
<path fill="none" stroke="blue" d="M163.29,-251.96C166.39,-221.64 172.46,-162.45 175.86,-129.18"/>
<polygon fill="blue" stroke="blue" points="177.62,-129.23 176.39,-124.08 174.14,-128.87 177.62,-129.23"/>
<text text-anchor="middle" x="173.45" y="-185.6" font-family="Work Sans" font-size="8.00">.</text>
</g>
<!-- V255891&#45;&gt;V256003 -->
<g id="edge5" class="edge">
<title>V255891&#45;&gt;V256003</title>
<path fill="none" stroke="red" d="M172.84,-251.99C175.75,-246.38 178.56,-240.1 180.34,-234 191.87,-194.61 193.74,-182.69 188.34,-142 187.77,-137.73 186.85,-133.26 185.8,-128.96"/>
<polygon fill="red" stroke="red" points="187.46,-128.4 184.51,-124.01 184.08,-129.29 187.46,-128.4"/>
<text text-anchor="middle" x="214.31" y="-185.6" font-family="Work Sans" font-size="8.00"> NEUTRAL &#160;&#160;</text>
</g>
<!-- V255931&#45;&gt;V256003 -->
<g id="edge6" class="edge">
<title>V255931&#45;&gt;V256003</title>
<path fill="none" stroke="grey" stroke-width="0.5" d="M113.48,-171.69C115.37,-162.41 118.86,-150.72 125.23,-142 129.19,-136.58 134.19,-131.67 139.54,-127.33"/>
<polygon fill="grey" stroke="grey" stroke-width="0.5" points="140.8,-128.57 143.69,-124.13 138.66,-125.8 140.8,-128.57"/>
<text text-anchor="middle" x="144.9" y="-143.6" font-family="Work Sans" font-size="8.00"> FIGURE &#160;&#160;</text>
</g>
<!-- V255972 -->
<g id="node6" class="node">
<title>V255972</title>
<g id="a_node6"><a xlink:href="http://trips.ihmc.us/lexicon/data/ONT::MUSICAL-INSTRUMENT.xml" xlink:title="&lt;font color=&quot;green&quot;&gt;&lt;br /&gt;&lt;/font&gt; &lt;font color=&quot;black&quot;&gt;MUSICAL&#45;INSTRUMENT&lt;/font&gt; &lt;font color=&quot;green&quot;&gt;&lt;br /&gt;&lt;/font&gt; &lt;font color=&quot;red&quot;&gt;KIND&lt;/font&gt; &lt;font color=&quot;blue&quot;&gt;DRUM&lt;/font&gt; &lt;font color=&quot;green&quot;&gt;&lt;br /&gt;&lt;/font&gt; &lt;font color=&quot;green&quot;&gt;drum%1:06:00::&lt;/font&gt; &lt;font color=&quot;green&quot;&gt;&lt;br /&gt; &lt;/font&gt;">
<polygon fill="pink" stroke="transparent" points="206.95,-40 111.73,-40 111.73,0 206.95,0 206.95,-40"/>
<text text-anchor="start" x="111.78" y="-26.6" font-family="Work Sans" font-size="8.00"> </text>
<text text-anchor="start" x="114.01" y="-26.6" font-family="Work Sans" font-size="8.00">MUSICAL&#45;INSTRUMENT</text>
<text text-anchor="start" x="204.67" y="-26.6" font-family="Work Sans" font-size="8.00"> </text>
<text text-anchor="start" x="134.45" y="-18.6" font-family="Work Sans" font-size="8.00"> </text>
<text text-anchor="start" x="136.67" y="-18.6" font-family="Work Sans" font-size="8.00" fill="red">KIND</text>
<text text-anchor="start" x="155.79" y="-18.6" font-family="Work Sans" font-size="8.00"> </text>
<text text-anchor="start" x="158.01" y="-18.6" font-family="Work Sans" font-size="8.00" fill="blue">DRUM</text>
<text text-anchor="start" x="182.01" y="-18.6" font-family="Work Sans" font-size="8.00"> </text>
<text text-anchor="start" x="128.88" y="-10.6" font-family="Work Sans" font-size="8.00"> </text>
<text text-anchor="start" x="131.1" y="-10.6" font-family="Work Sans" font-size="8.00" fill="green">drum%1:06:00::</text>
<text text-anchor="start" x="187.58" y="-10.6" font-family="Work Sans" font-size="8.00"> </text>
<text text-anchor="start" x="158.23" y="-2.6" font-family="Work Sans" font-size="8.00" fill="green"> </text>
</a>
</g>
</g>
<!-- V256003&#45;&gt;V255972 -->
<g id="edge9" class="edge">
<title>V256003&#45;&gt;V255972</title>
<path fill="none" stroke="blue" d="M167.72,-83.94C165.08,-78.33 162.58,-72.06 161.12,-66 159.5,-59.34 158.79,-51.96 158.54,-45.14"/>
<polygon fill="blue" stroke="blue" points="160.29,-45.02 158.44,-40.06 156.79,-45.09 160.29,-45.02"/>
<text text-anchor="middle" x="162.45" y="-59.6" font-family="Work Sans" font-size="8.00">.</text>
</g>
<!-- V256003&#45;&gt;V255972 -->
<g id="edge10" class="edge">
<title>V256003&#45;&gt;V255972</title>
<path fill="none" stroke="red" d="M173.93,-83.98C171.27,-72.47 167.84,-57.68 164.98,-45.33"/>
<polygon fill="red" stroke="red" points="166.62,-44.68 163.79,-40.2 163.21,-45.47 166.62,-44.68"/>
<text text-anchor="middle" x="200.12" y="-59.6" font-family="Work Sans" font-size="8.00"> ASSOC&#45;WITH &#160;&#160;</text>
</g>
<!-- V255966 -->
<g id="node7" class="node">
<title>V255966</title>
<g id="a_node7"><a xlink:href="http://trips.ihmc.us/lexicon/data/ONT::MALE-PERSON.xml" xlink:title="&lt;font color=&quot;green&quot;&gt;&lt;br /&gt;&lt;/font&gt; &lt;font color=&quot;black&quot;&gt;MALE&#45;PERSON&lt;/font&gt; &lt;font color=&quot;green&quot;&gt;&lt;br /&gt;&lt;/font&gt; &lt;font color=&quot;red&quot;&gt;PRO&lt;/font&gt; &lt;font color=&quot;blue&quot;&gt;HIS&lt;/font&gt; &lt;font color=&quot;green&quot;&gt;&lt;br /&gt;&lt;/font&gt; &lt;font color=&quot;green&quot;&gt;man%1:18:00&lt;/font&gt; &lt;font color=&quot;green&quot;&gt;&lt;br /&gt; &lt;/font&gt;">
<text text-anchor="start" x="230" y="-26.6" font-family="Work Sans" font-size="8.00"> </text>
<text text-anchor="start" x="232.22" y="-26.6" font-family="Work Sans" font-size="8.00">MALE&#45;PERSON</text>
<text text-anchor="start" x="290.46" y="-26.6" font-family="Work Sans" font-size="8.00"> </text>
<text text-anchor="start" x="242.67" y="-18.6" font-family="Work Sans" font-size="8.00"> </text>
<text text-anchor="start" x="244.89" y="-18.6" font-family="Work Sans" font-size="8.00" fill="red">PRO</text>
<text text-anchor="start" x="262.23" y="-18.6" font-family="Work Sans" font-size="8.00"> </text>
<text text-anchor="start" x="264.45" y="-18.6" font-family="Work Sans" font-size="8.00" fill="blue">HIS</text>
<text text-anchor="start" x="277.79" y="-18.6" font-family="Work Sans" font-size="8.00"> </text>
<text text-anchor="start" x="234.43" y="-10.6" font-family="Work Sans" font-size="8.00"> </text>
<text text-anchor="start" x="236.66" y="-10.6" font-family="Work Sans" font-size="8.00" fill="green">man%1:18:00</text>
<text text-anchor="start" x="286.02" y="-10.6" font-family="Work Sans" font-size="8.00"> </text>
<text text-anchor="start" x="260.23" y="-2.6" font-family="Work Sans" font-size="8.00" fill="green"> </text>
</a>
</g>
</g>
<!-- V256003&#45;&gt;V255966 -->
<g id="edge1" class="edge">
<title>V256003&#45;&gt;V255966</title>
<path fill="none" stroke="grey" stroke-width="0.5" d="M212.5,-83.93C220.2,-78.72 227.97,-72.65 234.34,-66 240.29,-59.79 245.52,-52.04 249.76,-44.73"/>
<polygon fill="grey" stroke="grey" stroke-width="0.5" points="251.35,-45.47 252.26,-40.25 248.29,-43.76 251.35,-45.47"/>
<text text-anchor="middle" x="271.02" y="-59.6" font-family="Work Sans" font-size="8.00"> ASSOC&#45;POSS &#160;&#160;</text>
</g>
</g>
</svg>
