<?xml version="1.0" encoding="UTF-8" standalone="no"?>
<!DOCTYPE svg PUBLIC "-//W3C//DTD SVG 1.1//EN"
 "http://www.w3.org/Graphics/SVG/1.1/DTD/svg11.dtd">
<!-- Generated by graphviz version 2.43.0 (0)
 -->
<!-- Title: graph Pages: 1 -->
<svg width="203pt" height="292pt"
 viewBox="0.00 0.00 202.79 292.00" xmlns="http://www.w3.org/2000/svg" xmlns:xlink="http://www.w3.org/1999/xlink">
<g id="graph0" class="graph" transform="scale(1 1) rotate(0) translate(4 288)">
<title>graph</title>
<polygon fill="white" stroke="transparent" points="-4,4 -4,-288 198.79,-288 198.79,4 -4,4"/>
<!-- V167972 -->
<g id="node1" class="node">
<title>V167972</title>
<g id="a_node1"><a xlink:href="http://trips.ihmc.us/lexicon/data/ONT::SA_TELL.xml" xlink:title="&lt;font color=&quot;green&quot;&gt;&lt;br /&gt;&lt;/font&gt; &lt;font color=&quot;black&quot;&gt;SA_TELL&lt;/font&gt; &lt;font color=&quot;green&quot;&gt;&lt;br /&gt;&lt;/font&gt; &lt;font color=&quot;red&quot;&gt;SPEECHACT&lt;/font&gt; &lt;font color=&quot;blue&quot;&gt;* &lt;/font&gt; &lt;font color=&quot;green&quot;&gt;&lt;br /&gt; &lt;/font&gt;">
<text text-anchor="start" x="11.11" y="-270.6" font-family="Work Sans" font-size="8.00"> </text>
<text text-anchor="start" x="13.33" y="-270.6" font-family="Work Sans" font-size="8.00">SA_TELL</text>
<text text-anchor="start" x="47.57" y="-270.6" font-family="Work Sans" font-size="8.00"> </text>
<text text-anchor="start" x="0" y="-262.6" font-family="Work Sans" font-size="8.00"> </text>
<text text-anchor="start" x="2.22" y="-262.6" font-family="Work Sans" font-size="8.00" fill="red">SPEECHACT</text>
<text text-anchor="start" x="51.12" y="-262.6" font-family="Work Sans" font-size="8.00"> </text>
<text text-anchor="start" x="53.34" y="-262.6" font-family="Work Sans" font-size="8.00" fill="blue">* </text>
<text text-anchor="start" x="58.68" y="-262.6" font-family="Work Sans" font-size="8.00"> </text>
<text text-anchor="start" x="29.34" y="-254.6" font-family="Work Sans" font-size="8.00" fill="green"> </text>
</a>
</g>
</g>
<!-- V167398 -->
<g id="node2" class="node">
<title>V167398</title>
<g id="a_node2"><a xlink:href="http://trips.ihmc.us/lexicon/data/ONT::START.xml" xlink:title="&lt;font color=&quot;green&quot;&gt;&lt;br /&gt;&lt;/font&gt; &lt;font color=&quot;black&quot;&gt;START&lt;/font&gt; &lt;font color=&quot;green&quot;&gt;&lt;br /&gt;&lt;/font&gt; &lt;font color=&quot;red&quot;&gt;F&lt;/font&gt; &lt;font color=&quot;blue&quot;&gt;START&lt;/font&gt; &lt;font color=&quot;green&quot;&gt;&lt;br /&gt;&lt;/font&gt; &lt;font color=&quot;green&quot;&gt;start%1:11:00::&lt;/font&gt; &lt;font color=&quot;green&quot;&gt;&lt;br /&gt; &lt;/font&gt;">
<text text-anchor="start" x="15.48" y="-194.6" font-family="Work Sans" font-size="8.00"> </text>
<text text-anchor="start" x="17.71" y="-194.6" font-family="Work Sans" font-size="8.00">START</text>
<text text-anchor="start" x="43.2" y="-194.6" font-family="Work Sans" font-size="8.00"> </text>
<text text-anchor="start" x="11.93" y="-186.6" font-family="Work Sans" font-size="8.00"> </text>
<text text-anchor="start" x="14.15" y="-186.6" font-family="Work Sans" font-size="8.00" fill="red">F</text>
<text text-anchor="start" x="19.04" y="-186.6" font-family="Work Sans" font-size="8.00"> </text>
<text text-anchor="start" x="21.26" y="-186.6" font-family="Work Sans" font-size="8.00" fill="blue">START</text>
<text text-anchor="start" x="46.75" y="-186.6" font-family="Work Sans" font-size="8.00"> </text>
<text text-anchor="start" x="1.62" y="-178.6" font-family="Work Sans" font-size="8.00"> </text>
<text text-anchor="start" x="3.84" y="-178.6" font-family="Work Sans" font-size="8.00" fill="green">start%1:11:00::</text>
<text text-anchor="start" x="57.06" y="-178.6" font-family="Work Sans" font-size="8.00"> </text>
<text text-anchor="start" x="29.34" y="-170.6" font-family="Work Sans" font-size="8.00" fill="green"> </text>
</a>
</g>
</g>
<!-- V167972&#45;&gt;V167398 -->
<g id="edge4" class="edge">
<title>V167972&#45;&gt;V167398</title>
<path fill="none" stroke="grey" stroke-width="0.5" d="M30.45,-251.96C30.45,-241.04 30.45,-226.02 30.45,-213.39"/>
<polygon fill="grey" stroke="grey" stroke-width="0.5" points="32.2,-213.14 30.45,-208.14 28.7,-213.14 32.2,-213.14"/>
<text text-anchor="middle" x="54.16" y="-227.6" font-family="Work Sans" font-size="8.00"> CONTENT &#160;&#160;</text>
</g>
<!-- V167377 -->
<g id="node3" class="node">
<title>V167377</title>
<g id="a_node3"><a xlink:href="http://trips.ihmc.us/lexicon/data/ONT::FEMALE-PERSON.xml" xlink:title="&lt;font color=&quot;green&quot;&gt;&lt;br /&gt;&lt;/font&gt; &lt;font color=&quot;black&quot;&gt;FEMALE&#45;PERSON&lt;/font&gt; &lt;font color=&quot;green&quot;&gt;&lt;br /&gt;&lt;/font&gt; &lt;font color=&quot;red&quot;&gt;THE&lt;/font&gt; &lt;font color=&quot;blue&quot;&gt;KATIE&lt;/font&gt; &lt;font color=&quot;green&quot;&gt;&lt;br /&gt;&lt;/font&gt; &lt;font color=&quot;green&quot;&gt;woman%1:18:00&lt;/font&gt; &lt;font color=&quot;green&quot;&gt;&lt;br /&gt; &lt;/font&gt;">
<polygon fill="pink" stroke="transparent" stroke-width="0.5" points="11.05,0 47.45,0 47.45,-40 11.05,-40 11.05,0"/>
<polygon fill="lightblue" stroke="transparent" stroke-width="0.5" points="47.45,0 83.85,0 83.85,-40 47.45,-40 47.45,0"/>
<polygon fill="none" stroke="transparent" points="83.85,-40 11.05,-40 11.05,0 83.85,0 83.85,-40"/>
<text text-anchor="start" x="11" y="-26.6" font-family="Work Sans" font-size="8.00"> </text>
<text text-anchor="start" x="13.22" y="-26.6" font-family="Work Sans" font-size="8.00">FEMALE&#45;PERSON</text>
<text text-anchor="start" x="81.68" y="-26.6" font-family="Work Sans" font-size="8.00"> </text>
<text text-anchor="start" x="24.85" y="-18.6" font-family="Work Sans" font-size="8.00"> </text>
<text text-anchor="start" x="27.08" y="-18.6" font-family="Work Sans" font-size="8.00" fill="red">THE</text>
<text text-anchor="start" x="43.08" y="-18.6" font-family="Work Sans" font-size="8.00"> </text>
<text text-anchor="start" x="45.3" y="-18.6" font-family="Work Sans" font-size="8.00" fill="blue">KATIE</text>
<text text-anchor="start" x="67.83" y="-18.6" font-family="Work Sans" font-size="8.00"> </text>
<text text-anchor="start" x="15.43" y="-10.6" font-family="Work Sans" font-size="8.00"> </text>
<text text-anchor="start" x="17.65" y="-10.6" font-family="Work Sans" font-size="8.00" fill="green">woman%1:18:00</text>
<text text-anchor="start" x="77.25" y="-10.6" font-family="Work Sans" font-size="8.00"> </text>
<text text-anchor="start" x="46.34" y="-2.6" font-family="Work Sans" font-size="8.00" fill="green"> </text>
</a>
</g>
</g>
<!-- V167398&#45;&gt;V167377 -->
<g id="edge7" class="edge">
<title>V167398&#45;&gt;V167377</title>
<path fill="none" stroke="grey" stroke-width="0.5" d="M29.32,-167.92C28.41,-147.18 27.81,-113.08 31.58,-84 33.28,-70.88 36.75,-56.57 40.02,-44.9"/>
<polygon fill="grey" stroke="grey" stroke-width="0.5" points="41.7,-45.36 41.4,-40.07 38.34,-44.4 41.7,-45.36"/>
<text text-anchor="middle" x="50.39" y="-101.6" font-family="Work Sans" font-size="8.00"> AGENT &#160;&#160;</text>
</g>
<!-- V167417 -->
<g id="node4" class="node">
<title>V167417</title>
<g id="a_node4"><a xlink:href="http://trips.ihmc.us/lexicon/data/ONT::MEET.xml" xlink:title="&lt;font color=&quot;green&quot;&gt;&lt;br /&gt;&lt;/font&gt; &lt;font color=&quot;black&quot;&gt;MEET&lt;/font&gt; &lt;font color=&quot;green&quot;&gt;&lt;br /&gt;&lt;/font&gt; &lt;font color=&quot;red&quot;&gt;F&lt;/font&gt; &lt;font color=&quot;blue&quot;&gt;MEET&lt;/font&gt; &lt;font color=&quot;green&quot;&gt;&lt;br /&gt;&lt;/font&gt; &lt;font color=&quot;green&quot;&gt;meet%2:38:01::&lt;/font&gt; &lt;font color=&quot;green&quot;&gt;&lt;br /&gt; &lt;/font&gt;">
<polygon fill="pink" stroke="transparent" stroke-width="0.5" points="75.97,-84 106.45,-84 106.45,-124 75.97,-124 75.97,-84"/>
<polygon fill="lightblue" stroke="transparent" stroke-width="0.5" points="106.45,-84 136.93,-84 136.93,-124 106.45,-124 106.45,-84"/>
<polygon fill="none" stroke="transparent" points="136.93,-124 75.97,-124 75.97,-84 136.93,-84 136.93,-124"/>
<text text-anchor="start" x="93.12" y="-110.6" font-family="Work Sans" font-size="8.00"> </text>
<text text-anchor="start" x="95.34" y="-110.6" font-family="Work Sans" font-size="8.00">MEET</text>
<text text-anchor="start" x="117.56" y="-110.6" font-family="Work Sans" font-size="8.00"> </text>
<text text-anchor="start" x="89.56" y="-102.6" font-family="Work Sans" font-size="8.00"> </text>
<text text-anchor="start" x="91.79" y="-102.6" font-family="Work Sans" font-size="8.00" fill="red">F</text>
<text text-anchor="start" x="96.67" y="-102.6" font-family="Work Sans" font-size="8.00"> </text>
<text text-anchor="start" x="98.89" y="-102.6" font-family="Work Sans" font-size="8.00" fill="blue">MEET</text>
<text text-anchor="start" x="121.12" y="-102.6" font-family="Work Sans" font-size="8.00"> </text>
<text text-anchor="start" x="76.21" y="-94.6" font-family="Work Sans" font-size="8.00"> </text>
<text text-anchor="start" x="78.43" y="-94.6" font-family="Work Sans" font-size="8.00" fill="green">meet%2:38:01::</text>
<text text-anchor="start" x="134.47" y="-94.6" font-family="Work Sans" font-size="8.00"> </text>
<text text-anchor="start" x="105.34" y="-86.6" font-family="Work Sans" font-size="8.00" fill="green"> </text>
</a>
</g>
</g>
<!-- V167398&#45;&gt;V167417 -->
<g id="edge2" class="edge">
<title>V167398&#45;&gt;V167417</title>
<path fill="none" stroke="grey" stroke-width="0.5" d="M48.08,-167.98C59.13,-156.06 73.43,-140.62 85.12,-128.01"/>
<polygon fill="grey" stroke="grey" stroke-width="0.5" points="86.54,-129.06 88.66,-124.2 83.97,-126.68 86.54,-129.06"/>
<text text-anchor="middle" x="92.42" y="-143.6" font-family="Work Sans" font-size="8.00"> FORMAL &#160;&#160;</text>
</g>
<!-- V167417&#45;&gt;V167377 -->
<g id="edge1" class="edge">
<title>V167417&#45;&gt;V167377</title>
<path fill="none" stroke="red" d="M75.92,-90.78C65.37,-84.93 54.67,-76.8 48.58,-66 45.09,-59.82 43.94,-52.35 43.9,-45.3"/>
<polygon fill="red" stroke="red" points="45.66,-45.07 44.07,-40.01 42.16,-44.96 45.66,-45.07"/>
<text text-anchor="middle" x="67.39" y="-59.6" font-family="Work Sans" font-size="8.00"> AGENT &#160;&#160;</text>
</g>
<!-- V167417&#45;&gt;V167377 -->
<g id="edge5" class="edge">
<title>V167417&#45;&gt;V167377</title>
<path fill="none" stroke="blue" d="M98.77,-83.83C95.03,-75.53 90.11,-65.93 84.45,-58 80.99,-53.15 76.87,-48.35 72.66,-43.9"/>
<polygon fill="blue" stroke="blue" points="73.85,-42.62 69.11,-40.25 71.34,-45.06 73.85,-42.62"/>
<text text-anchor="middle" x="90.56" y="-59.6" font-family="Work Sans" font-size="8.00">.</text>
</g>
<!-- V167435 -->
<g id="node5" class="node">
<title>V167435</title>
<g id="a_node5"><a xlink:href="http://trips.ihmc.us/lexicon/data/ONT::MALE-PERSON.xml" xlink:title="&lt;font color=&quot;green&quot;&gt;&lt;br /&gt;&lt;/font&gt; &lt;font color=&quot;black&quot;&gt;MALE&#45;PERSON&lt;/font&gt; &lt;font color=&quot;green&quot;&gt;&lt;br /&gt;&lt;/font&gt; &lt;font color=&quot;red&quot;&gt;THE&lt;/font&gt; &lt;font color=&quot;blue&quot;&gt;ROBERT&lt;/font&gt; &lt;font color=&quot;green&quot;&gt;&lt;br /&gt;&lt;/font&gt; &lt;font color=&quot;green&quot;&gt;man%1:18:00&lt;/font&gt; &lt;font color=&quot;green&quot;&gt;&lt;br /&gt; &lt;/font&gt;">
<polygon fill="pink" stroke="transparent" stroke-width="0.5" points="132.27,0 163.45,0 163.45,-40 132.27,-40 132.27,0"/>
<polygon fill="lightblue" stroke="transparent" stroke-width="0.5" points="163.45,0 194.63,0 194.63,-40 163.45,-40 163.45,0"/>
<polygon fill="none" stroke="transparent" points="194.63,-40 132.27,-40 132.27,0 194.63,0 194.63,-40"/>
<text text-anchor="start" x="132.11" y="-26.6" font-family="Work Sans" font-size="8.00"> </text>
<text text-anchor="start" x="134.33" y="-26.6" font-family="Work Sans" font-size="8.00">MALE&#45;PERSON</text>
<text text-anchor="start" x="192.57" y="-26.6" font-family="Work Sans" font-size="8.00"> </text>
<text text-anchor="start" x="135.52" y="-18.6" font-family="Work Sans" font-size="8.00"> </text>
<text text-anchor="start" x="137.74" y="-18.6" font-family="Work Sans" font-size="8.00" fill="red">THE</text>
<text text-anchor="start" x="153.74" y="-18.6" font-family="Work Sans" font-size="8.00"> </text>
<text text-anchor="start" x="155.96" y="-18.6" font-family="Work Sans" font-size="8.00" fill="blue">ROBERT</text>
<text text-anchor="start" x="189.16" y="-18.6" font-family="Work Sans" font-size="8.00"> </text>
<text text-anchor="start" x="136.54" y="-10.6" font-family="Work Sans" font-size="8.00"> </text>
<text text-anchor="start" x="138.77" y="-10.6" font-family="Work Sans" font-size="8.00" fill="green">man%1:18:00</text>
<text text-anchor="start" x="188.13" y="-10.6" font-family="Work Sans" font-size="8.00"> </text>
<text text-anchor="start" x="162.34" y="-2.6" font-family="Work Sans" font-size="8.00" fill="green"> </text>
</a>
</g>
</g>
<!-- V167417&#45;&gt;V167435 -->
<g id="edge3" class="edge">
<title>V167417&#45;&gt;V167435</title>
<path fill="none" stroke="red" d="M116.37,-83.69C120.81,-75.54 126.33,-66.1 131.99,-58 135.25,-53.35 138.97,-48.58 142.68,-44.08"/>
<polygon fill="red" stroke="red" points="144.21,-44.99 146.08,-40.03 141.53,-42.74 144.21,-44.99"/>
<text text-anchor="middle" x="151.68" y="-59.6" font-family="Work Sans" font-size="8.00"> AGENT1 &#160;&#160;</text>
</g>
<!-- V167417&#45;&gt;V167435 -->
<g id="edge6" class="edge">
<title>V167417&#45;&gt;V167435</title>
<path fill="none" stroke="blue" d="M136.82,-93.85C150.23,-88.13 164.68,-79.26 172.45,-66 176.05,-59.86 176.04,-52.54 174.51,-45.6"/>
<polygon fill="blue" stroke="blue" points="176.09,-44.74 173.07,-40.39 172.71,-45.67 176.09,-44.74"/>
<text text-anchor="middle" x="175.56" y="-59.6" font-family="Work Sans" font-size="8.00">.</text>
</g>
</g>
</svg>
