<?xml version="1.0" encoding="UTF-8" standalone="no"?>
<!DOCTYPE svg PUBLIC "-//W3C//DTD SVG 1.1//EN"
 "http://www.w3.org/Graphics/SVG/1.1/DTD/svg11.dtd">
<!-- Generated by graphviz version 2.43.0 (0)
 -->
<!-- Title: graph Pages: 1 -->
<svg width="316pt" height="360pt"
 viewBox="0.00 0.00 316.05 360.00" xmlns="http://www.w3.org/2000/svg" xmlns:xlink="http://www.w3.org/1999/xlink">
<g id="graph0" class="graph" transform="scale(1 1) rotate(0) translate(4 356)">
<title>graph</title>
<polygon fill="white" stroke="transparent" points="-4,4 -4,-356 312.05,-356 312.05,4 -4,4"/>
<!-- V55295 -->
<g id="node1" class="node">
<title>V55295</title>
<g id="a_node1"><a xlink:href="http://trips.ihmc.us/lexicon/data/ONT::SA_TELL.xml" xlink:title="&lt;font color=&quot;green&quot;&gt;&lt;br /&gt;&lt;/font&gt; &lt;font color=&quot;black&quot;&gt;SA_TELL&lt;/font&gt; &lt;font color=&quot;green&quot;&gt;&lt;br /&gt;&lt;/font&gt; &lt;font color=&quot;red&quot;&gt;SPEECHACT&lt;/font&gt; &lt;font color=&quot;blue&quot;&gt;* &lt;/font&gt; &lt;font color=&quot;green&quot;&gt;&lt;br /&gt; &lt;/font&gt;">
<text text-anchor="start" x="203" y="-338.6" font-family="Work Sans" font-size="8.00"> </text>
<text text-anchor="start" x="205.22" y="-338.6" font-family="Work Sans" font-size="8.00">SA_TELL</text>
<text text-anchor="start" x="239.46" y="-338.6" font-family="Work Sans" font-size="8.00"> </text>
<text text-anchor="start" x="191.89" y="-330.6" font-family="Work Sans" font-size="8.00"> </text>
<text text-anchor="start" x="194.11" y="-330.6" font-family="Work Sans" font-size="8.00" fill="red">SPEECHACT</text>
<text text-anchor="start" x="243.01" y="-330.6" font-family="Work Sans" font-size="8.00"> </text>
<text text-anchor="start" x="245.23" y="-330.6" font-family="Work Sans" font-size="8.00" fill="blue">* </text>
<text text-anchor="start" x="250.57" y="-330.6" font-family="Work Sans" font-size="8.00"> </text>
<text text-anchor="start" x="221.23" y="-322.6" font-family="Work Sans" font-size="8.00" fill="green"> </text>
</a>
</g>
</g>
<!-- V55012 -->
<g id="node2" class="node">
<title>V55012</title>
<g id="a_node2"><a xlink:href="http://trips.ihmc.us/lexicon/data/ONT::BLAME.xml" xlink:title="&lt;font color=&quot;green&quot;&gt;&lt;br /&gt;&lt;/font&gt; &lt;font color=&quot;black&quot;&gt;BLAME&lt;/font&gt; &lt;font color=&quot;green&quot;&gt;&lt;br /&gt;&lt;/font&gt; &lt;font color=&quot;red&quot;&gt;F&lt;/font&gt; &lt;font color=&quot;blue&quot;&gt;BLAME&lt;/font&gt; &lt;font color=&quot;green&quot;&gt;&lt;br /&gt;&lt;/font&gt; &lt;font color=&quot;green&quot;&gt;blame%2:32:00::&lt;/font&gt; &lt;font color=&quot;green&quot;&gt;&lt;br /&gt; &lt;/font&gt;">
<text text-anchor="start" x="206.56" y="-262.6" font-family="Work Sans" font-size="8.00"> </text>
<text text-anchor="start" x="208.78" y="-262.6" font-family="Work Sans" font-size="8.00">BLAME</text>
<text text-anchor="start" x="235.9" y="-262.6" font-family="Work Sans" font-size="8.00"> </text>
<text text-anchor="start" x="203" y="-254.6" font-family="Work Sans" font-size="8.00"> </text>
<text text-anchor="start" x="205.22" y="-254.6" font-family="Work Sans" font-size="8.00" fill="red">F</text>
<text text-anchor="start" x="210.11" y="-254.6" font-family="Work Sans" font-size="8.00"> </text>
<text text-anchor="start" x="212.33" y="-254.6" font-family="Work Sans" font-size="8.00" fill="blue">BLAME</text>
<text text-anchor="start" x="239.46" y="-254.6" font-family="Work Sans" font-size="8.00"> </text>
<text text-anchor="start" x="190.1" y="-246.6" font-family="Work Sans" font-size="8.00"> </text>
<text text-anchor="start" x="192.32" y="-246.6" font-family="Work Sans" font-size="8.00" fill="green">blame%2:32:00::</text>
<text text-anchor="start" x="252.36" y="-246.6" font-family="Work Sans" font-size="8.00"> </text>
<text text-anchor="start" x="221.23" y="-238.6" font-family="Work Sans" font-size="8.00" fill="green"> </text>
</a>
</g>
</g>
<!-- V55295&#45;&gt;V55012 -->
<g id="edge2" class="edge">
<title>V55295&#45;&gt;V55012</title>
<path fill="none" stroke="grey" stroke-width="0.5" d="M222.34,-319.96C222.34,-309.04 222.34,-294.02 222.34,-281.39"/>
<polygon fill="grey" stroke="grey" stroke-width="0.5" points="224.09,-281.14 222.34,-276.14 220.59,-281.14 224.09,-281.14"/>
<text text-anchor="middle" x="246.05" y="-295.6" font-family="Work Sans" font-size="8.00"> CONTENT &#160;&#160;</text>
</g>
<!-- V55003 -->
<g id="node3" class="node">
<title>V55003</title>
<g id="a_node3"><a xlink:href="http://trips.ihmc.us/lexicon/data/ONT::MALE-PERSON.xml" xlink:title="&lt;font color=&quot;green&quot;&gt;&lt;br /&gt;&lt;/font&gt; &lt;font color=&quot;black&quot;&gt;MALE&#45;PERSON&lt;/font&gt; &lt;font color=&quot;green&quot;&gt;&lt;br /&gt;&lt;/font&gt; &lt;font color=&quot;red&quot;&gt;THE&lt;/font&gt; &lt;font color=&quot;blue&quot;&gt;STEVE&lt;/font&gt; &lt;font color=&quot;green&quot;&gt;&lt;br /&gt;&lt;/font&gt; &lt;font color=&quot;green&quot;&gt;man%1:18:00&lt;/font&gt; &lt;font color=&quot;green&quot;&gt;&lt;br /&gt; &lt;/font&gt;">
<text text-anchor="start" x="0" y="-178.6" font-family="Work Sans" font-size="8.00"> </text>
<text text-anchor="start" x="2.22" y="-178.6" font-family="Work Sans" font-size="8.00">MALE&#45;PERSON</text>
<text text-anchor="start" x="60.46" y="-178.6" font-family="Work Sans" font-size="8.00"> </text>
<text text-anchor="start" x="6.89" y="-170.6" font-family="Work Sans" font-size="8.00"> </text>
<text text-anchor="start" x="9.11" y="-170.6" font-family="Work Sans" font-size="8.00" fill="red">THE</text>
<text text-anchor="start" x="25.11" y="-170.6" font-family="Work Sans" font-size="8.00"> </text>
<text text-anchor="start" x="27.34" y="-170.6" font-family="Work Sans" font-size="8.00" fill="blue">STEVE</text>
<text text-anchor="start" x="53.57" y="-170.6" font-family="Work Sans" font-size="8.00"> </text>
<text text-anchor="start" x="4.43" y="-162.6" font-family="Work Sans" font-size="8.00"> </text>
<text text-anchor="start" x="6.66" y="-162.6" font-family="Work Sans" font-size="8.00" fill="green">man%1:18:00</text>
<text text-anchor="start" x="56.02" y="-162.6" font-family="Work Sans" font-size="8.00"> </text>
<text text-anchor="start" x="30.23" y="-154.6" font-family="Work Sans" font-size="8.00" fill="green"> </text>
</a>
</g>
</g>
<!-- V55012&#45;&gt;V55003 -->
<g id="edge7" class="edge">
<title>V55012&#45;&gt;V55003</title>
<path fill="none" stroke="grey" stroke-width="0.5" d="M189.93,-249.46C162.45,-243.94 122.5,-233.95 90.47,-218 78.44,-212.01 66.41,-203.44 56.37,-195.39"/>
<polygon fill="grey" stroke="grey" stroke-width="0.5" points="57.46,-194.02 52.48,-192.22 55.25,-196.73 57.46,-194.02"/>
<text text-anchor="middle" x="109.28" y="-211.6" font-family="Work Sans" font-size="8.00"> AGENT &#160;&#160;</text>
</g>
<!-- V55017 -->
<g id="node4" class="node">
<title>V55017</title>
<g id="a_node4"><a xlink:href="http://trips.ihmc.us/lexicon/data/ONT::FEMALE-PERSON.xml" xlink:title="&lt;font color=&quot;green&quot;&gt;&lt;br /&gt;&lt;/font&gt; &lt;font color=&quot;black&quot;&gt;FEMALE&#45;PERSON&lt;/font&gt; &lt;font color=&quot;green&quot;&gt;&lt;br /&gt;&lt;/font&gt; &lt;font color=&quot;red&quot;&gt;THE&lt;/font&gt; &lt;font color=&quot;blue&quot;&gt;MARY&lt;/font&gt; &lt;font color=&quot;green&quot;&gt;&lt;br /&gt;&lt;/font&gt; &lt;font color=&quot;green&quot;&gt;woman%1:18:00&lt;/font&gt; &lt;font color=&quot;green&quot;&gt;&lt;br /&gt; &lt;/font&gt;">
<text text-anchor="start" x="80.89" y="-178.6" font-family="Work Sans" font-size="8.00"> </text>
<text text-anchor="start" x="83.11" y="-178.6" font-family="Work Sans" font-size="8.00">FEMALE&#45;PERSON</text>
<text text-anchor="start" x="151.57" y="-178.6" font-family="Work Sans" font-size="8.00"> </text>
<text text-anchor="start" x="94.52" y="-170.6" font-family="Work Sans" font-size="8.00"> </text>
<text text-anchor="start" x="96.74" y="-170.6" font-family="Work Sans" font-size="8.00" fill="red">THE</text>
<text text-anchor="start" x="112.74" y="-170.6" font-family="Work Sans" font-size="8.00"> </text>
<text text-anchor="start" x="114.96" y="-170.6" font-family="Work Sans" font-size="8.00" fill="blue">MARY</text>
<text text-anchor="start" x="137.94" y="-170.6" font-family="Work Sans" font-size="8.00"> </text>
<text text-anchor="start" x="85.32" y="-162.6" font-family="Work Sans" font-size="8.00"> </text>
<text text-anchor="start" x="87.54" y="-162.6" font-family="Work Sans" font-size="8.00" fill="green">woman%1:18:00</text>
<text text-anchor="start" x="147.14" y="-162.6" font-family="Work Sans" font-size="8.00"> </text>
<text text-anchor="start" x="116.23" y="-154.6" font-family="Work Sans" font-size="8.00" fill="green"> </text>
</a>
</g>
</g>
<!-- V55012&#45;&gt;V55017 -->
<g id="edge4" class="edge">
<title>V55012&#45;&gt;V55017</title>
<path fill="none" stroke="grey" stroke-width="0.5" d="M190.02,-247.7C172.02,-242.18 150.35,-232.93 135.66,-218 130.09,-212.33 126.14,-204.74 123.37,-197.4"/>
<polygon fill="grey" stroke="grey" stroke-width="0.5" points="124.92,-196.55 121.63,-192.4 121.61,-197.69 124.92,-196.55"/>
<text text-anchor="middle" x="161.68" y="-211.6" font-family="Work Sans" font-size="8.00"> AFFECTED &#160;&#160;</text>
</g>
<!-- V55118 -->
<g id="node5" class="node">
<title>V55118</title>
<g id="a_node5"><a xlink:href="http://trips.ihmc.us/lexicon/data/ONT::EXTENT-PREDICATE.xml" xlink:title="&lt;font color=&quot;green&quot;&gt;&lt;br /&gt;&lt;/font&gt; &lt;font color=&quot;black&quot;&gt;EXTENT&#45;PREDICATE&lt;/font&gt; &lt;font color=&quot;green&quot;&gt;&lt;br /&gt;&lt;/font&gt; &lt;font color=&quot;red&quot;&gt;F&lt;/font&gt; &lt;font color=&quot;blue&quot;&gt;* &lt;/font&gt; &lt;font color=&quot;green&quot;&gt;&lt;br /&gt; &lt;/font&gt;">
<polygon fill="pink" stroke="transparent" stroke-width="0.5" points="224.41,-156 266.34,-156 266.34,-188 224.41,-188 224.41,-156"/>
<polygon fill="lightblue" stroke="transparent" stroke-width="0.5" points="266.34,-156 308.27,-156 308.27,-188 266.34,-188 266.34,-156"/>
<polygon fill="none" stroke="transparent" points="308.27,-188 224.41,-188 224.41,-156 308.27,-156 308.27,-188"/>
<text text-anchor="start" x="224.63" y="-174.6" font-family="Work Sans" font-size="8.00"> </text>
<text text-anchor="start" x="226.85" y="-174.6" font-family="Work Sans" font-size="8.00">EXTENT&#45;PREDICATE</text>
<text text-anchor="start" x="305.83" y="-174.6" font-family="Work Sans" font-size="8.00"> </text>
<text text-anchor="start" x="257.89" y="-166.6" font-family="Work Sans" font-size="8.00"> </text>
<text text-anchor="start" x="260.12" y="-166.6" font-family="Work Sans" font-size="8.00" fill="red">F</text>
<text text-anchor="start" x="265" y="-166.6" font-family="Work Sans" font-size="8.00"> </text>
<text text-anchor="start" x="267.23" y="-166.6" font-family="Work Sans" font-size="8.00" fill="blue">* </text>
<text text-anchor="start" x="272.56" y="-166.6" font-family="Work Sans" font-size="8.00"> </text>
<text text-anchor="start" x="265.23" y="-158.6" font-family="Work Sans" font-size="8.00" fill="green"> </text>
</a>
</g>
</g>
<!-- V55012&#45;&gt;V55118 -->
<g id="edge3" class="edge">
<title>V55012&#45;&gt;V55118</title>
<path fill="none" stroke="red" d="M198.29,-235.94C191.23,-228.01 186.68,-218.65 192.03,-210 198.47,-199.6 208.81,-192.03 219.75,-186.55"/>
<polygon fill="red" stroke="red" points="220.69,-188.05 224.47,-184.33 219.2,-184.88 220.69,-188.05"/>
<text text-anchor="middle" x="212.49" y="-211.6" font-family="Work Sans" font-size="8.00"> EXTENT &#160;&#160;</text>
</g>
<!-- V55012&#45;&gt;V55118 -->
<g id="edge5" class="edge">
<title>V55012&#45;&gt;V55118</title>
<path fill="none" stroke="blue" d="M232.54,-235.98C239.51,-223 248.71,-205.85 255.75,-192.73"/>
<polygon fill="blue" stroke="blue" points="257.42,-193.32 258.24,-188.09 254.34,-191.67 257.42,-193.32"/>
<text text-anchor="middle" x="247.45" y="-211.6" font-family="Work Sans" font-size="8.00">.</text>
</g>
<!-- V55118&#45;&gt;V55012 -->
<g id="edge1" class="edge">
<title>V55118&#45;&gt;V55012</title>
<path fill="none" stroke="blue" d="M265.4,-188.29C264.35,-197.34 262.1,-208.8 257.34,-218 254.79,-222.93 251.38,-227.67 247.7,-232.01"/>
<polygon fill="blue" stroke="blue" points="246.27,-230.98 244.25,-235.88 248.88,-233.31 246.27,-230.98"/>
<text text-anchor="middle" x="261.45" y="-211.6" font-family="Work Sans" font-size="8.00">.</text>
</g>
<!-- V55118&#45;&gt;V55012 -->
<g id="edge9" class="edge">
<title>V55118&#45;&gt;V55012</title>
<path fill="none" stroke="red" d="M269.46,-188.28C270.56,-197.33 270.63,-208.79 266.34,-218 263.95,-223.13 260.47,-227.8 256.49,-231.96"/>
<polygon fill="red" stroke="red" points="255.07,-230.9 252.71,-235.64 257.51,-233.4 255.07,-230.9"/>
<text text-anchor="middle" x="287.9" y="-211.6" font-family="Work Sans" font-size="8.00"> FIGURE &#160;&#160;</text>
</g>
<!-- V55035 -->
<g id="node6" class="node">
<title>V55035</title>
<g id="a_node6"><a xlink:href="http://trips.ihmc.us/lexicon/data/ONT::QUANTITY.xml" xlink:title="&lt;font color=&quot;green&quot;&gt;&lt;br /&gt;&lt;/font&gt; &lt;font color=&quot;black&quot;&gt;QUANTITY&lt;/font&gt; &lt;font color=&quot;green&quot;&gt;&lt;br /&gt;&lt;/font&gt; &lt;font color=&quot;red&quot;&gt;A&lt;/font&gt; &lt;font color=&quot;blue&quot;&gt;* &lt;/font&gt; &lt;font color=&quot;green&quot;&gt;&lt;br /&gt; &lt;/font&gt;">
<polygon fill="pink" stroke="transparent" stroke-width="0.5" points="243.95,-76 266.34,-76 266.34,-108 243.95,-108 243.95,-76"/>
<polygon fill="lightblue" stroke="transparent" stroke-width="0.5" points="266.34,-76 288.73,-76 288.73,-108 266.34,-108 266.34,-76"/>
<polygon fill="none" stroke="transparent" points="288.73,-108 243.95,-108 243.95,-76 288.73,-76 288.73,-108"/>
<text text-anchor="start" x="243.89" y="-94.6" font-family="Work Sans" font-size="8.00"> </text>
<text text-anchor="start" x="246.12" y="-94.6" font-family="Work Sans" font-size="8.00">QUANTITY</text>
<text text-anchor="start" x="286.56" y="-94.6" font-family="Work Sans" font-size="8.00"> </text>
<text text-anchor="start" x="257.67" y="-86.6" font-family="Work Sans" font-size="8.00"> </text>
<text text-anchor="start" x="259.89" y="-86.6" font-family="Work Sans" font-size="8.00" fill="red">A</text>
<text text-anchor="start" x="265.23" y="-86.6" font-family="Work Sans" font-size="8.00"> </text>
<text text-anchor="start" x="267.45" y="-86.6" font-family="Work Sans" font-size="8.00" fill="blue">* </text>
<text text-anchor="start" x="272.79" y="-86.6" font-family="Work Sans" font-size="8.00"> </text>
<text text-anchor="start" x="265.23" y="-78.6" font-family="Work Sans" font-size="8.00" fill="green"> </text>
</a>
</g>
</g>
<!-- V55118&#45;&gt;V55035 -->
<g id="edge10" class="edge">
<title>V55118&#45;&gt;V55035</title>
<path fill="none" stroke="red" d="M248.57,-155.8C242.74,-149.69 236.96,-142.16 233.89,-134 230.93,-126.12 234.37,-118.57 239.97,-112.14"/>
<polygon fill="red" stroke="red" points="241.47,-113.1 243.69,-108.29 238.96,-110.67 241.47,-113.1"/>
<text text-anchor="middle" x="256.56" y="-127.6" font-family="Work Sans" font-size="8.00"> GROUND &#160;&#160;</text>
</g>
<!-- V55118&#45;&gt;V55035 -->
<g id="edge11" class="edge">
<title>V55118&#45;&gt;V55035</title>
<path fill="none" stroke="blue" d="M273.85,-155.73C277.23,-147.09 280.11,-136.03 278.34,-126 277.58,-121.68 276.3,-117.19 274.85,-112.96"/>
<polygon fill="blue" stroke="blue" points="276.45,-112.24 273.1,-108.14 273.16,-113.44 276.45,-112.24"/>
<text text-anchor="middle" x="279.45" y="-127.6" font-family="Work Sans" font-size="8.00">.</text>
</g>
<!-- V55029 -->
<g id="node7" class="node">
<title>V55029</title>
<g id="a_node7"><a xlink:href="http://trips.ihmc.us/lexicon/data/ONT::NUMBER.xml" xlink:title="&lt;font color=&quot;green&quot;&gt;&lt;br /&gt;&lt;/font&gt; &lt;font color=&quot;black&quot;&gt;NUMBER&lt;/font&gt; &lt;font color=&quot;green&quot;&gt;&lt;br /&gt;&lt;/font&gt; &lt;font color=&quot;red&quot;&gt;A&lt;/font&gt; &lt;font color=&quot;blue&quot;&gt;* &lt;/font&gt; &lt;font color=&quot;green&quot;&gt;&lt;br /&gt; &lt;/font&gt;">
<text text-anchor="start" x="246.78" y="-18.6" font-family="Work Sans" font-size="8.00"> </text>
<text text-anchor="start" x="249.01" y="-18.6" font-family="Work Sans" font-size="8.00">NUMBER</text>
<text text-anchor="start" x="283.67" y="-18.6" font-family="Work Sans" font-size="8.00"> </text>
<text text-anchor="start" x="257.67" y="-10.6" font-family="Work Sans" font-size="8.00"> </text>
<text text-anchor="start" x="259.89" y="-10.6" font-family="Work Sans" font-size="8.00" fill="red">A</text>
<text text-anchor="start" x="265.23" y="-10.6" font-family="Work Sans" font-size="8.00"> </text>
<text text-anchor="start" x="267.45" y="-10.6" font-family="Work Sans" font-size="8.00" fill="blue">* </text>
<text text-anchor="start" x="272.79" y="-10.6" font-family="Work Sans" font-size="8.00"> </text>
<text text-anchor="start" x="265.23" y="-2.6" font-family="Work Sans" font-size="8.00" fill="green"> </text>
</a>
</g>
</g>
<!-- V55035&#45;&gt;V55029 -->
<g id="edge6" class="edge">
<title>V55035&#45;&gt;V55029</title>
<path fill="none" stroke="red" d="M246.84,-75.76C241.81,-70.71 237.06,-64.65 234.36,-58 230.76,-49.11 235.66,-40.53 242.63,-33.54"/>
<polygon fill="red" stroke="red" points="244.17,-34.5 246.67,-29.82 241.81,-31.92 244.17,-34.5"/>
<text text-anchor="middle" x="256.83" y="-51.6" font-family="Work Sans" font-size="8.00"> AMOUNT &#160;&#160;</text>
</g>
<!-- V55035&#45;&gt;V55029 -->
<g id="edge8" class="edge">
<title>V55035&#45;&gt;V55029</title>
<path fill="none" stroke="blue" d="M273.55,-75.97C276.43,-68.28 278.76,-58.73 277.34,-50 276.64,-45.72 275.47,-41.24 274.15,-37.01"/>
<polygon fill="blue" stroke="blue" points="275.78,-36.38 272.54,-32.19 272.46,-37.48 275.78,-36.38"/>
<text text-anchor="middle" x="278.45" y="-51.6" font-family="Work Sans" font-size="8.00">.</text>
</g>
</g>
</svg>
