<?xml version="1.0" encoding="UTF-8" standalone="no"?>
<!DOCTYPE svg PUBLIC "-//W3C//DTD SVG 1.1//EN"
 "http://www.w3.org/Graphics/SVG/1.1/DTD/svg11.dtd">
<!-- Generated by graphviz version 2.43.0 (0)
 -->
<!-- Title: graph Pages: 1 -->
<svg width="591pt" height="414pt"
 viewBox="0.00 0.00 591.00 414.00" xmlns="http://www.w3.org/2000/svg" xmlns:xlink="http://www.w3.org/1999/xlink">
<g id="graph0" class="graph" transform="scale(1 1) rotate(0) translate(4 410)">
<title>graph</title>
<polygon fill="white" stroke="transparent" points="-4,4 -4,-410 587,-410 587,4 -4,4"/>
<!-- V59561 -->
<g id="node1" class="node">
<title>V59561</title>
<polygon fill="black" stroke="transparent" points="172.5,-396 172.5,-406 273.5,-406 273.5,-396 172.5,-396"/>
<text text-anchor="start" x="209.21" y="-398.6" font-family="Work Sans" font-size="8.00" fill="white">V59561</text>
<polygon fill="black" stroke="transparent" points="172.5,-386 172.5,-396 222.5,-396 222.5,-386 172.5,-386"/>
<text text-anchor="start" x="173.05" y="-388.6" font-family="Work Sans" font-size="8.00" fill="white">SPEECHACT</text>
<polygon fill="black" stroke="transparent" points="222.5,-386 222.5,-396 273.5,-396 273.5,-386 222.5,-386"/>
<text text-anchor="start" x="223.1" y="-388.6" font-family="Work Sans" font-size="8.00" fill="white">ont::SA_TELL</text>
<polygon fill="black" stroke="transparent" points="172.5,-376 172.5,-386 222.5,-386 222.5,-376 172.5,-376"/>
<text text-anchor="start" x="192.39" y="-378.6" font-family="Work Sans" font-size="8.00" fill="white">lex</text>
<polygon fill="black" stroke="transparent" points="222.5,-376 222.5,-386 273.5,-386 273.5,-376 222.5,-376"/>
<text text-anchor="start" x="239.33" y="-378.6" font-family="Work Sans" font-size="8.00" fill="white">LIKE</text>
<polygon fill="black" stroke="transparent" points="172.5,-366 172.5,-376 222.5,-376 222.5,-366 172.5,-366"/>
<text text-anchor="start" x="188.83" y="-368.6" font-family="Work Sans" font-size="8.00" fill="white">span</text>
<polygon fill="black" stroke="transparent" points="222.5,-366 222.5,-376 273.5,-376 273.5,-366 222.5,-366"/>
<text text-anchor="start" x="236.44" y="-368.6" font-family="Work Sans" font-size="8.00" fill="white">(1, 37)</text>
</g>
<!-- V57822 -->
<g id="node2" class="node">
<title>V57822</title>
<polygon fill="black" stroke="transparent" points="179.5,-312 179.5,-322 265.5,-322 265.5,-312 179.5,-312"/>
<text text-anchor="start" x="208.71" y="-314.6" font-family="Work Sans" font-size="8.00" fill="white">V57822</text>
<polygon fill="black" stroke="transparent" points="179.5,-302 179.5,-312 198.5,-312 198.5,-302 179.5,-302"/>
<text text-anchor="start" x="186.56" y="-304.6" font-family="Work Sans" font-size="8.00" fill="white">F</text>
<polygon fill="black" stroke="transparent" points="198.5,-302 198.5,-312 265.5,-312 265.5,-302 198.5,-302"/>
<text text-anchor="start" x="199.17" y="-304.6" font-family="Work Sans" font-size="8.00" fill="white">ont::APPRECIATE</text>
<polygon fill="black" stroke="transparent" points="179.5,-292 179.5,-302 198.5,-302 198.5,-292 179.5,-292"/>
<text text-anchor="start" x="183.89" y="-294.6" font-family="Work Sans" font-size="8.00" fill="white">lex</text>
<polygon fill="black" stroke="transparent" points="198.5,-292 198.5,-302 265.5,-302 265.5,-292 198.5,-292"/>
<text text-anchor="start" x="223.33" y="-294.6" font-family="Work Sans" font-size="8.00" fill="white">LIKE</text>
<polygon fill="black" stroke="transparent" points="179.5,-282 179.5,-292 198.5,-292 198.5,-282 179.5,-282"/>
<text text-anchor="start" x="183.89" y="-284.6" font-family="Work Sans" font-size="8.00" fill="white">wn</text>
<polygon fill="black" stroke="transparent" points="198.5,-282 198.5,-292 265.5,-292 265.5,-282 198.5,-282"/>
<text text-anchor="start" x="206.87" y="-284.6" font-family="Work Sans" font-size="8.00" fill="white">like%2:37:05::</text>
<polygon fill="black" stroke="transparent" points="179.5,-272 179.5,-282 198.5,-282 198.5,-272 179.5,-272"/>
<text text-anchor="start" x="180.33" y="-274.6" font-family="Work Sans" font-size="8.00" fill="white">span</text>
<polygon fill="black" stroke="transparent" points="198.5,-272 198.5,-282 265.5,-282 265.5,-272 198.5,-272"/>
<text text-anchor="start" x="220.44" y="-274.6" font-family="Work Sans" font-size="8.00" fill="white">(1, 36)</text>
</g>
<!-- V59561&#45;&gt;V57822 -->
<g id="edge6" class="edge">
<title>V59561&#45;&gt;V57822</title>
<path fill="none" stroke="black" d="M222.5,-365.69C222.5,-355.88 222.5,-343.66 222.5,-332.31"/>
<polygon fill="black" stroke="black" points="226,-332.23 222.5,-322.23 219,-332.23 226,-332.23"/>
<text text-anchor="middle" x="241.83" y="-341.6" font-family="Work Sans" font-size="8.00">CONTENT</text>
</g>
<!-- V58659 -->
<g id="node3" class="node">
<title>V58659</title>
<polygon fill="black" stroke="transparent" points="122.5,-218 122.5,-228 196.5,-228 196.5,-218 122.5,-218"/>
<text text-anchor="start" x="145.71" y="-220.6" font-family="Work Sans" font-size="8.00" fill="white">V58659</text>
<polygon fill="black" stroke="transparent" points="122.5,-208 122.5,-218 141.5,-218 141.5,-208 122.5,-208"/>
<text text-anchor="start" x="124" y="-210.6" font-family="Work Sans" font-size="8.00" fill="white">THE</text>
<polygon fill="black" stroke="transparent" points="141.5,-208 141.5,-218 196.5,-218 196.5,-208 141.5,-208"/>
<text text-anchor="start" x="142.11" y="-210.6" font-family="Work Sans" font-size="8.00" fill="white">ont::TIME&#45;LOC</text>
<polygon fill="black" stroke="transparent" points="122.5,-198 122.5,-208 141.5,-208 141.5,-198 122.5,-198"/>
<text text-anchor="start" x="126.89" y="-200.6" font-family="Work Sans" font-size="8.00" fill="white">lex</text>
<polygon fill="black" stroke="transparent" points="141.5,-198 141.5,-208 196.5,-208 196.5,-198 141.5,-198"/>
<text text-anchor="start" x="167.89" y="-200.6" font-family="Work Sans" font-size="8.00" fill="white">I</text>
<polygon fill="black" stroke="transparent" points="122.5,-188 122.5,-198 141.5,-198 141.5,-188 122.5,-188"/>
<text text-anchor="start" x="123.33" y="-190.6" font-family="Work Sans" font-size="8.00" fill="white">span</text>
<polygon fill="black" stroke="transparent" points="141.5,-188 141.5,-198 196.5,-198 196.5,-188 141.5,-188"/>
<text text-anchor="start" x="159.66" y="-190.6" font-family="Work Sans" font-size="8.00" fill="white">(1, 3)</text>
</g>
<!-- V57822&#45;&gt;V58659 -->
<g id="edge10" class="edge">
<title>V57822&#45;&gt;V58659</title>
<path fill="none" stroke="black" d="M204.95,-271.77C197,-260.79 187.57,-247.76 179.36,-236.42"/>
<polygon fill="black" stroke="black" points="182.07,-234.19 173.37,-228.15 176.4,-238.3 182.07,-234.19"/>
<text text-anchor="middle" x="220.17" y="-247.6" font-family="Work Sans" font-size="8.00">EXPERIENCER</text>
</g>
<!-- V57838 -->
<g id="node5" class="node">
<title>V57838</title>
<polygon fill="black" stroke="transparent" points="296.5,-218 296.5,-228 437.5,-228 437.5,-218 296.5,-218"/>
<text text-anchor="start" x="353.21" y="-220.6" font-family="Work Sans" font-size="8.00" fill="white">V57838</text>
<polygon fill="black" stroke="transparent" points="296.5,-208 296.5,-218 340.5,-218 340.5,-208 296.5,-208"/>
<text text-anchor="start" x="297.39" y="-210.6" font-family="Work Sans" font-size="8.00" fill="white">INDEF&#45;SET</text>
<polygon fill="black" stroke="transparent" points="340.5,-208 340.5,-218 437.5,-218 437.5,-208 340.5,-208"/>
<text text-anchor="start" x="341.44" y="-210.6" font-family="Work Sans" font-size="8.00" fill="white">ont::NONHUMAN&#45;ANIMAL</text>
<polygon fill="black" stroke="transparent" points="296.5,-198 296.5,-208 340.5,-208 340.5,-198 296.5,-198"/>
<text text-anchor="start" x="313.39" y="-200.6" font-family="Work Sans" font-size="8.00" fill="white">lex</text>
<polygon fill="black" stroke="transparent" points="340.5,-198 340.5,-208 437.5,-208 437.5,-198 340.5,-198"/>
<text text-anchor="start" x="380.55" y="-200.6" font-family="Work Sans" font-size="8.00" fill="white">AND</text>
<polygon fill="black" stroke="transparent" points="296.5,-188 296.5,-198 340.5,-198 340.5,-188 296.5,-188"/>
<text text-anchor="start" x="309.83" y="-190.6" font-family="Work Sans" font-size="8.00" fill="white">span</text>
<polygon fill="black" stroke="transparent" points="340.5,-188 340.5,-198 437.5,-198 437.5,-188 340.5,-188"/>
<text text-anchor="start" x="377.44" y="-190.6" font-family="Work Sans" font-size="8.00" fill="white">(8, 36)</text>
</g>
<!-- V57822&#45;&gt;V57838 -->
<g id="edge4" class="edge">
<title>V57822&#45;&gt;V57838</title>
<path fill="none" stroke="black" d="M262.23,-272C282.1,-259.99 306.1,-245.49 326.07,-233.43"/>
<polygon fill="black" stroke="black" points="327.89,-236.42 334.64,-228.25 324.27,-230.42 327.89,-236.42"/>
<text text-anchor="middle" x="322.17" y="-247.6" font-family="Work Sans" font-size="8.00">NEUTRAL</text>
</g>
<!-- V58531 -->
<g id="node4" class="node">
<title>V58531</title>
<polygon fill="black" stroke="transparent" points="0.5,-129 0.5,-139 81.5,-139 81.5,-129 0.5,-129"/>
<text text-anchor="start" x="27.21" y="-131.6" font-family="Work Sans" font-size="8.00" fill="white">V58531</text>
<polygon fill="black" stroke="transparent" points="0.5,-119 0.5,-129 19.5,-129 19.5,-119 0.5,-119"/>
<text text-anchor="start" x="2" y="-121.6" font-family="Work Sans" font-size="8.00" fill="white">THE</text>
<polygon fill="black" stroke="transparent" points="19.5,-119 19.5,-129 81.5,-129 81.5,-119 19.5,-119"/>
<text text-anchor="start" x="20.27" y="-121.6" font-family="Work Sans" font-size="8.00" fill="white">ont::SEQUENCE</text>
<polygon fill="black" stroke="transparent" points="0.5,-109 0.5,-119 19.5,-119 19.5,-109 0.5,-109"/>
<text text-anchor="start" x="4.89" y="-111.6" font-family="Work Sans" font-size="8.00" fill="white">lex</text>
<polygon fill="black" stroke="transparent" points="19.5,-109 19.5,-119 81.5,-119 81.5,-109 19.5,-109"/>
<text text-anchor="start" x="49.39" y="-111.6" font-family="Work Sans" font-size="8.00" fill="white">I</text>
<polygon fill="black" stroke="transparent" points="0.5,-99 0.5,-109 19.5,-109 19.5,-99 0.5,-99"/>
<text text-anchor="start" x="1.33" y="-101.6" font-family="Work Sans" font-size="8.00" fill="white">span</text>
<polygon fill="black" stroke="transparent" points="19.5,-99 19.5,-109 81.5,-109 81.5,-99 19.5,-99"/>
<text text-anchor="start" x="41.16" y="-101.6" font-family="Work Sans" font-size="8.00" fill="white">(1, 3)</text>
</g>
<!-- V58659&#45;&gt;V58531 -->
<g id="edge9" class="edge">
<title>V58659&#45;&gt;V58531</title>
<path fill="none" stroke="black" d="M122.2,-188.71C112.19,-183.2 101.59,-176.79 92.38,-170 82.97,-163.07 73.53,-154.54 65.32,-146.5"/>
<polygon fill="black" stroke="black" points="67.7,-143.93 58.17,-139.31 62.74,-148.87 67.7,-143.93"/>
<text text-anchor="middle" x="120.06" y="-163.6" font-family="Work Sans" font-size="8.00">DAY&#45;OF&#45;WEEK</text>
</g>
<!-- V57847 -->
<g id="node6" class="node">
<title>V57847</title>
<polygon fill="black" stroke="transparent" points="99.5,-134 99.5,-144 240.5,-144 240.5,-134 99.5,-134"/>
<text text-anchor="start" x="156.21" y="-136.6" font-family="Work Sans" font-size="8.00" fill="white">V57847</text>
<polygon fill="black" stroke="transparent" points="99.5,-124 99.5,-134 143.5,-134 143.5,-124 99.5,-124"/>
<text text-anchor="start" x="100.39" y="-126.6" font-family="Work Sans" font-size="8.00" fill="white">INDEF&#45;SET</text>
<polygon fill="black" stroke="transparent" points="143.5,-124 143.5,-134 240.5,-134 240.5,-124 143.5,-124"/>
<text text-anchor="start" x="144.44" y="-126.6" font-family="Work Sans" font-size="8.00" fill="white">ont::NONHUMAN&#45;ANIMAL</text>
<polygon fill="black" stroke="transparent" points="99.5,-114 99.5,-124 143.5,-124 143.5,-114 99.5,-114"/>
<text text-anchor="start" x="116.39" y="-116.6" font-family="Work Sans" font-size="8.00" fill="white">lex</text>
<polygon fill="black" stroke="transparent" points="143.5,-114 143.5,-124 240.5,-124 240.5,-114 143.5,-114"/>
<text text-anchor="start" x="180.22" y="-116.6" font-family="Work Sans" font-size="8.00" fill="white">DOGS</text>
<polygon fill="black" stroke="transparent" points="99.5,-104 99.5,-114 143.5,-114 143.5,-104 99.5,-104"/>
<text text-anchor="start" x="116.39" y="-106.6" font-family="Work Sans" font-size="8.00" fill="white">wn</text>
<polygon fill="black" stroke="transparent" points="143.5,-104 143.5,-114 240.5,-114 240.5,-104 143.5,-104"/>
<text text-anchor="start" x="166.2" y="-106.6" font-family="Work Sans" font-size="8.00" fill="white">dog%1:05:00::</text>
<polygon fill="black" stroke="transparent" points="99.5,-94 99.5,-104 143.5,-104 143.5,-94 99.5,-94"/>
<text text-anchor="start" x="112.83" y="-96.6" font-family="Work Sans" font-size="8.00" fill="white">span</text>
<polygon fill="black" stroke="transparent" points="143.5,-94 143.5,-104 240.5,-104 240.5,-94 143.5,-94"/>
<text text-anchor="start" x="180.44" y="-96.6" font-family="Work Sans" font-size="8.00" fill="white">(8, 36)</text>
</g>
<!-- V57838&#45;&gt;V57847 -->
<g id="edge7" class="edge">
<title>V57838&#45;&gt;V57847</title>
<path fill="none" stroke="black" d="M322.71,-187.83C309.65,-182.11 295.32,-175.81 282.15,-170 266.2,-162.96 248.98,-155.33 232.93,-148.21"/>
<polygon fill="black" stroke="black" points="234.19,-144.94 223.63,-144.08 231.35,-151.34 234.19,-144.94"/>
<text text-anchor="middle" x="307.17" y="-163.6" font-family="Work Sans" font-size="8.00">SEQUENCE1</text>
</g>
<!-- V57833 -->
<g id="node7" class="node">
<title>V57833</title>
<polygon fill="black" stroke="transparent" points="258.5,-134 258.5,-144 399.5,-144 399.5,-134 258.5,-134"/>
<text text-anchor="start" x="315.21" y="-136.6" font-family="Work Sans" font-size="8.00" fill="white">V57833</text>
<polygon fill="black" stroke="transparent" points="258.5,-124 258.5,-134 302.5,-134 302.5,-124 258.5,-124"/>
<text text-anchor="start" x="259.39" y="-126.6" font-family="Work Sans" font-size="8.00" fill="white">INDEF&#45;SET</text>
<polygon fill="black" stroke="transparent" points="302.5,-124 302.5,-134 399.5,-134 399.5,-124 302.5,-124"/>
<text text-anchor="start" x="303.44" y="-126.6" font-family="Work Sans" font-size="8.00" fill="white">ont::NONHUMAN&#45;ANIMAL</text>
<polygon fill="black" stroke="transparent" points="258.5,-114 258.5,-124 302.5,-124 302.5,-114 258.5,-114"/>
<text text-anchor="start" x="275.39" y="-116.6" font-family="Work Sans" font-size="8.00" fill="white">lex</text>
<polygon fill="black" stroke="transparent" points="302.5,-114 302.5,-124 399.5,-124 399.5,-114 302.5,-114"/>
<text text-anchor="start" x="340.63" y="-116.6" font-family="Work Sans" font-size="8.00" fill="white">CATS</text>
<polygon fill="black" stroke="transparent" points="258.5,-104 258.5,-114 302.5,-114 302.5,-104 258.5,-104"/>
<text text-anchor="start" x="275.39" y="-106.6" font-family="Work Sans" font-size="8.00" fill="white">wn</text>
<polygon fill="black" stroke="transparent" points="302.5,-104 302.5,-114 399.5,-114 399.5,-104 302.5,-104"/>
<text text-anchor="start" x="326.54" y="-106.6" font-family="Work Sans" font-size="8.00" fill="white">cat%1:05:00::</text>
<polygon fill="black" stroke="transparent" points="258.5,-94 258.5,-104 302.5,-104 302.5,-94 258.5,-94"/>
<text text-anchor="start" x="271.83" y="-96.6" font-family="Work Sans" font-size="8.00" fill="white">span</text>
<polygon fill="black" stroke="transparent" points="302.5,-94 302.5,-104 399.5,-104 399.5,-94 302.5,-94"/>
<text text-anchor="start" x="339.44" y="-96.6" font-family="Work Sans" font-size="8.00" fill="white">(8, 36)</text>
</g>
<!-- V57838&#45;&gt;V57833 -->
<g id="edge5" class="edge">
<title>V57838&#45;&gt;V57833</title>
<path fill="none" stroke="black" d="M348.69,-187.8C344.48,-182.38 340.4,-176.25 337.6,-170 335.4,-165.09 333.73,-159.69 332.47,-154.3"/>
<polygon fill="black" stroke="black" points="335.83,-153.26 330.5,-144.1 328.96,-154.59 335.83,-153.26"/>
<text text-anchor="middle" x="360.95" y="-163.6" font-family="Work Sans" font-size="8.00">SEQUENCE</text>
</g>
<!-- V57866 -->
<g id="node8" class="node">
<title>V57866</title>
<polygon fill="black" stroke="transparent" points="417.5,-134 417.5,-144 521.5,-144 521.5,-134 417.5,-134"/>
<text text-anchor="start" x="455.71" y="-136.6" font-family="Work Sans" font-size="8.00" fill="white">V57866</text>
<polygon fill="black" stroke="transparent" points="417.5,-124 417.5,-134 436.5,-134 436.5,-124 417.5,-124"/>
<text text-anchor="start" x="424.56" y="-126.6" font-family="Work Sans" font-size="8.00" fill="white">F</text>
<polygon fill="black" stroke="transparent" points="436.5,-124 436.5,-134 521.5,-134 521.5,-124 436.5,-124"/>
<text text-anchor="start" x="437.35" y="-126.6" font-family="Work Sans" font-size="8.00" fill="white">ont::HAVE&#45;PROPERTY</text>
<polygon fill="black" stroke="transparent" points="417.5,-114 417.5,-124 436.5,-124 436.5,-114 417.5,-114"/>
<text text-anchor="start" x="421.89" y="-116.6" font-family="Work Sans" font-size="8.00" fill="white">lex</text>
<polygon fill="black" stroke="transparent" points="436.5,-114 436.5,-124 521.5,-124 521.5,-114 436.5,-114"/>
<text text-anchor="start" x="470.78" y="-116.6" font-family="Work Sans" font-size="8.00" fill="white">ARE</text>
<polygon fill="black" stroke="transparent" points="417.5,-104 417.5,-114 436.5,-114 436.5,-104 417.5,-104"/>
<text text-anchor="start" x="421.89" y="-106.6" font-family="Work Sans" font-size="8.00" fill="white">wn</text>
<polygon fill="black" stroke="transparent" points="436.5,-104 436.5,-114 521.5,-114 521.5,-104 436.5,-104"/>
<text text-anchor="start" x="455.43" y="-106.6" font-family="Work Sans" font-size="8.00" fill="white">be%2:42:03::</text>
<polygon fill="black" stroke="transparent" points="417.5,-94 417.5,-104 436.5,-104 436.5,-94 417.5,-94"/>
<text text-anchor="start" x="418.33" y="-96.6" font-family="Work Sans" font-size="8.00" fill="white">span</text>
<polygon fill="black" stroke="transparent" points="436.5,-94 436.5,-104 521.5,-104 521.5,-94 436.5,-94"/>
<text text-anchor="start" x="465.21" y="-96.6" font-family="Work Sans" font-size="8.00" fill="white">(22, 36)</text>
</g>
<!-- V57838&#45;&gt;V57866 -->
<g id="edge2" class="edge">
<title>V57838&#45;&gt;V57866</title>
<path fill="none" stroke="black" d="M385.84,-187.66C394.24,-179.51 404.32,-170.07 413.84,-162 418.39,-158.14 423.26,-154.21 428.15,-150.37"/>
<polygon fill="black" stroke="black" points="430.57,-152.93 436.34,-144.04 426.29,-147.38 430.57,-152.93"/>
<text text-anchor="middle" x="423.83" y="-163.6" font-family="Work Sans" font-size="8.00">MOD</text>
</g>
<!-- V57866&#45;&gt;V57838 -->
<g id="edge3" class="edge">
<title>V57866&#45;&gt;V57838</title>
<path fill="none" stroke="black" d="M454.77,-144.1C448.61,-152.93 440.93,-162.57 432.5,-170 427.4,-174.49 421.67,-178.68 415.76,-182.5"/>
<polygon fill="black" stroke="black" points="413.75,-179.63 407.05,-187.84 417.41,-185.6 413.75,-179.63"/>
<text text-anchor="middle" x="459.17" y="-163.6" font-family="Work Sans" font-size="8.00">NEUTRAL</text>
</g>
<!-- V57882 -->
<g id="node9" class="node">
<title>V57882</title>
<polygon fill="black" stroke="transparent" points="444.5,-40 444.5,-50 583.5,-50 583.5,-40 444.5,-40"/>
<text text-anchor="start" x="500.21" y="-42.6" font-family="Work Sans" font-size="8.00" fill="white">V57882</text>
<polygon fill="black" stroke="transparent" points="444.5,-30 444.5,-40 463.5,-40 463.5,-30 444.5,-30"/>
<text text-anchor="start" x="451.56" y="-32.6" font-family="Work Sans" font-size="8.00" fill="white">F</text>
<polygon fill="black" stroke="transparent" points="463.5,-30 463.5,-40 583.5,-40 583.5,-30 463.5,-30"/>
<text text-anchor="start" x="464.44" y="-32.6" font-family="Work Sans" font-size="8.00" fill="white">ont::PHYSICAL&#45;PROPERTY&#45;VAL</text>
<polygon fill="black" stroke="transparent" points="444.5,-20 444.5,-30 463.5,-30 463.5,-20 444.5,-20"/>
<text text-anchor="start" x="448.89" y="-22.6" font-family="Work Sans" font-size="8.00" fill="white">lex</text>
<polygon fill="black" stroke="transparent" points="463.5,-20 463.5,-30 583.5,-30 583.5,-20 463.5,-20"/>
<text text-anchor="start" x="509.79" y="-22.6" font-family="Work Sans" font-size="8.00" fill="white">FURRY</text>
<polygon fill="black" stroke="transparent" points="444.5,-10 444.5,-20 463.5,-20 463.5,-10 444.5,-10"/>
<text text-anchor="start" x="448.89" y="-12.6" font-family="Work Sans" font-size="8.00" fill="white">wn</text>
<polygon fill="black" stroke="transparent" points="463.5,-10 463.5,-20 583.5,-20 583.5,-10 463.5,-10"/>
<text text-anchor="start" x="483.26" y="-12.6" font-family="Work Sans" font-size="8.00" fill="white">furry%5:00:00:hairy:00</text>
<polygon fill="black" stroke="transparent" points="444.5,0 444.5,-10 463.5,-10 463.5,0 444.5,0"/>
<text text-anchor="start" x="445.33" y="-2.6" font-family="Work Sans" font-size="8.00" fill="white">span</text>
<polygon fill="black" stroke="transparent" points="463.5,0 463.5,-10 583.5,-10 583.5,0 463.5,0"/>
<text text-anchor="start" x="509.71" y="-2.6" font-family="Work Sans" font-size="8.00" fill="white">(31, 36)</text>
</g>
<!-- V57866&#45;&gt;V57882 -->
<g id="edge1" class="edge">
<title>V57866&#45;&gt;V57882</title>
<path fill="none" stroke="black" d="M481.06,-93.83C486.11,-83.26 492.12,-70.7 497.59,-59.27"/>
<polygon fill="black" stroke="black" points="500.86,-60.54 502.02,-50.01 494.54,-57.52 500.86,-60.54"/>
<text text-anchor="middle" x="510.17" y="-69.6" font-family="Work Sans" font-size="8.00">FORMAL</text>
</g>
<!-- V57882&#45;&gt;V57838 -->
<g id="edge8" class="edge">
<title>V57882&#45;&gt;V57838</title>
<path fill="none" stroke="black" d="M525.68,-50.42C536.38,-75.65 547.78,-115.27 530.5,-144 512.91,-173.25 479.35,-188.97 447.15,-197.39"/>
<polygon fill="black" stroke="black" points="446.12,-194.04 437.22,-199.78 447.76,-200.85 446.12,-194.04"/>
<text text-anchor="middle" x="553.61" y="-116.6" font-family="Work Sans" font-size="8.00">FIGURE</text>
</g>
</g>
</svg>
