<?xml version="1.0" encoding="UTF-8" standalone="no"?>
<!DOCTYPE svg PUBLIC "-//W3C//DTD SVG 1.1//EN"
 "http://www.w3.org/Graphics/SVG/1.1/DTD/svg11.dtd">
<!-- Generated by graphviz version 2.43.0 (0)
 -->
<!-- Title: graph Pages: 1 -->
<svg width="257pt" height="452pt"
 viewBox="0.00 0.00 256.90 452.00" xmlns="http://www.w3.org/2000/svg" xmlns:xlink="http://www.w3.org/1999/xlink">
<g id="graph0" class="graph" transform="scale(1 1) rotate(0) translate(4 448)">
<title>graph</title>
<polygon fill="white" stroke="transparent" points="-4,4 -4,-448 252.9,-448 252.9,4 -4,4"/>
<!-- V107112 -->
<g id="node1" class="node">
<title>V107112</title>
<g id="a_node1"><a xlink:href="http://trips.ihmc.us/lexicon/data/ONT::SA_TELL.xml" xlink:title="&lt;font color=&quot;green&quot;&gt;&lt;br /&gt;&lt;/font&gt; &lt;font color=&quot;black&quot;&gt;SA_TELL&lt;/font&gt; &lt;font color=&quot;green&quot;&gt;&lt;br /&gt;&lt;/font&gt; &lt;font color=&quot;red&quot;&gt;SPEECHACT&lt;/font&gt; &lt;font color=&quot;blue&quot;&gt;* &lt;/font&gt; &lt;font color=&quot;green&quot;&gt;&lt;br /&gt; &lt;/font&gt;">
<text text-anchor="start" x="44.34" y="-430.6" font-family="Work Sans" font-size="8.00"> </text>
<text text-anchor="start" x="46.56" y="-430.6" font-family="Work Sans" font-size="8.00">SA_TELL</text>
<text text-anchor="start" x="80.81" y="-430.6" font-family="Work Sans" font-size="8.00"> </text>
<text text-anchor="start" x="33.23" y="-422.6" font-family="Work Sans" font-size="8.00"> </text>
<text text-anchor="start" x="35.46" y="-422.6" font-family="Work Sans" font-size="8.00" fill="red">SPEECHACT</text>
<text text-anchor="start" x="84.36" y="-422.6" font-family="Work Sans" font-size="8.00"> </text>
<text text-anchor="start" x="86.58" y="-422.6" font-family="Work Sans" font-size="8.00" fill="blue">* </text>
<text text-anchor="start" x="91.91" y="-422.6" font-family="Work Sans" font-size="8.00"> </text>
<text text-anchor="start" x="62.57" y="-414.6" font-family="Work Sans" font-size="8.00" fill="green"> </text>
</a>
</g>
</g>
<!-- V105181 -->
<g id="node2" class="node">
<title>V105181</title>
<g id="a_node2"><a xlink:href="http://trips.ihmc.us/lexicon/data/ONT::CONJUNCT.xml" xlink:title="&lt;font color=&quot;green&quot;&gt;&lt;br /&gt;&lt;/font&gt; &lt;font color=&quot;black&quot;&gt;CONJUNCT&lt;/font&gt; &lt;font color=&quot;green&quot;&gt;&lt;br /&gt;&lt;/font&gt; &lt;font color=&quot;red&quot;&gt;F&lt;/font&gt; &lt;font color=&quot;blue&quot;&gt;ALSO&lt;/font&gt; &lt;font color=&quot;green&quot;&gt;&lt;br /&gt;&lt;/font&gt; &lt;font color=&quot;green&quot;&gt;also%4:02:00::&lt;/font&gt; &lt;font color=&quot;green&quot;&gt;&lt;br /&gt; &lt;/font&gt;">
<text text-anchor="start" x="4.46" y="-354.6" font-family="Work Sans" font-size="8.00"> </text>
<text text-anchor="start" x="6.69" y="-354.6" font-family="Work Sans" font-size="8.00">CONJUNCT</text>
<text text-anchor="start" x="50.68" y="-354.6" font-family="Work Sans" font-size="8.00"> </text>
<text text-anchor="start" x="12.24" y="-346.6" font-family="Work Sans" font-size="8.00"> </text>
<text text-anchor="start" x="14.46" y="-346.6" font-family="Work Sans" font-size="8.00" fill="red">F</text>
<text text-anchor="start" x="19.35" y="-346.6" font-family="Work Sans" font-size="8.00"> </text>
<text text-anchor="start" x="21.57" y="-346.6" font-family="Work Sans" font-size="8.00" fill="blue">ALSO</text>
<text text-anchor="start" x="42.91" y="-346.6" font-family="Work Sans" font-size="8.00"> </text>
<text text-anchor="start" x="0" y="-338.6" font-family="Work Sans" font-size="8.00"> </text>
<text text-anchor="start" x="2.22" y="-338.6" font-family="Work Sans" font-size="8.00" fill="green">also%4:02:00::</text>
<text text-anchor="start" x="55.15" y="-338.6" font-family="Work Sans" font-size="8.00"> </text>
<text text-anchor="start" x="27.57" y="-330.6" font-family="Work Sans" font-size="8.00" fill="green"> </text>
</a>
</g>
</g>
<!-- V107112&#45;&gt;V105181 -->
<g id="edge7" class="edge">
<title>V107112&#45;&gt;V105181</title>
<path fill="none" stroke="grey" stroke-width="0.5" d="M33.22,-413.38C25.62,-408.42 18.42,-402.02 14.13,-394 10.6,-387.41 11.42,-379.82 13.94,-372.78"/>
<polygon fill="grey" stroke="grey" stroke-width="0.5" points="15.63,-373.29 15.93,-368 12.39,-371.95 15.63,-373.29"/>
<text text-anchor="middle" x="28.46" y="-387.6" font-family="Work Sans" font-size="8.00"> MOD &#160;&#160;</text>
</g>
<!-- V105197 -->
<g id="node3" class="node">
<title>V105197</title>
<g id="a_node3"><a xlink:href="http://trips.ihmc.us/lexicon/data/ONT::MANNER-SAY.xml" xlink:title="&lt;font color=&quot;green&quot;&gt;&lt;br /&gt;&lt;/font&gt; &lt;font color=&quot;black&quot;&gt;MANNER&#45;SAY&lt;/font&gt; &lt;font color=&quot;green&quot;&gt;&lt;br /&gt;&lt;/font&gt; &lt;font color=&quot;red&quot;&gt;F&lt;/font&gt; &lt;font color=&quot;blue&quot;&gt;SCREAM&lt;/font&gt; &lt;font color=&quot;green&quot;&gt;&lt;br /&gt;&lt;/font&gt; &lt;font color=&quot;green&quot;&gt;scream%2:32:01::&lt;/font&gt; &lt;font color=&quot;green&quot;&gt;&lt;br /&gt; &lt;/font&gt;">
<text text-anchor="start" x="97.09" y="-354.6" font-family="Work Sans" font-size="8.00"> </text>
<text text-anchor="start" x="99.31" y="-354.6" font-family="Work Sans" font-size="8.00">MANNER&#45;SAY</text>
<text text-anchor="start" x="152.06" y="-354.6" font-family="Work Sans" font-size="8.00"> </text>
<text text-anchor="start" x="102.79" y="-346.6" font-family="Work Sans" font-size="8.00"> </text>
<text text-anchor="start" x="105.02" y="-346.6" font-family="Work Sans" font-size="8.00" fill="red">F</text>
<text text-anchor="start" x="109.9" y="-346.6" font-family="Work Sans" font-size="8.00"> </text>
<text text-anchor="start" x="112.13" y="-346.6" font-family="Work Sans" font-size="8.00" fill="blue">SCREAM</text>
<text text-anchor="start" x="146.35" y="-346.6" font-family="Work Sans" font-size="8.00"> </text>
<text text-anchor="start" x="91.22" y="-338.6" font-family="Work Sans" font-size="8.00"> </text>
<text text-anchor="start" x="93.45" y="-338.6" font-family="Work Sans" font-size="8.00" fill="green">scream%2:32:01::</text>
<text text-anchor="start" x="157.92" y="-338.6" font-family="Work Sans" font-size="8.00"> </text>
<text text-anchor="start" x="124.57" y="-330.6" font-family="Work Sans" font-size="8.00" fill="green"> </text>
</a>
</g>
</g>
<!-- V107112&#45;&gt;V105197 -->
<g id="edge6" class="edge">
<title>V107112&#45;&gt;V105197</title>
<path fill="none" stroke="grey" stroke-width="0.5" d="M76.97,-411.71C81.69,-406.18 86.99,-399.86 91.69,-394 97.26,-387.04 103.17,-379.33 108.48,-372.3"/>
<polygon fill="grey" stroke="grey" stroke-width="0.5" points="110.09,-373.06 111.69,-368.01 107.29,-370.96 110.09,-373.06"/>
<text text-anchor="middle" x="121.39" y="-387.6" font-family="Work Sans" font-size="8.00"> CONTENT &#160;&#160;</text>
</g>
<!-- V105181&#45;&gt;V107112 -->
<g id="edge10" class="edge">
<title>V105181&#45;&gt;V107112</title>
<path fill="none" stroke="grey" stroke-width="0.5" d="M37.28,-368.14C42.62,-380.06 49.49,-395.36 54.88,-407.37"/>
<polygon fill="grey" stroke="grey" stroke-width="0.5" points="53.29,-408.12 56.94,-411.96 56.49,-406.68 53.29,-408.12"/>
<text text-anchor="middle" x="68.24" y="-387.6" font-family="Work Sans" font-size="8.00"> FIGURE &#160;&#160;</text>
</g>
<!-- V105189 -->
<g id="node4" class="node">
<title>V105189</title>
<g id="a_node4"><a xlink:href="http://trips.ihmc.us/lexicon/data/ONT::FEMALE-PERSON.xml" xlink:title="&lt;font color=&quot;green&quot;&gt;&lt;br /&gt;&lt;/font&gt; &lt;font color=&quot;black&quot;&gt;FEMALE&#45;PERSON&lt;/font&gt; &lt;font color=&quot;green&quot;&gt;&lt;br /&gt;&lt;/font&gt; &lt;font color=&quot;red&quot;&gt;PRO&lt;/font&gt; &lt;font color=&quot;blue&quot;&gt;SHE&lt;/font&gt; &lt;font color=&quot;green&quot;&gt;&lt;br /&gt;&lt;/font&gt; &lt;font color=&quot;green&quot;&gt;woman%1:18:00&lt;/font&gt; &lt;font color=&quot;green&quot;&gt;&lt;br /&gt; &lt;/font&gt;">
<text text-anchor="start" x="5.23" y="-270.6" font-family="Work Sans" font-size="8.00"> </text>
<text text-anchor="start" x="7.46" y="-270.6" font-family="Work Sans" font-size="8.00">FEMALE&#45;PERSON</text>
<text text-anchor="start" x="75.91" y="-270.6" font-family="Work Sans" font-size="8.00"> </text>
<text text-anchor="start" x="21.46" y="-262.6" font-family="Work Sans" font-size="8.00"> </text>
<text text-anchor="start" x="23.68" y="-262.6" font-family="Work Sans" font-size="8.00" fill="red">PRO</text>
<text text-anchor="start" x="41.02" y="-262.6" font-family="Work Sans" font-size="8.00"> </text>
<text text-anchor="start" x="43.24" y="-262.6" font-family="Work Sans" font-size="8.00" fill="blue">SHE</text>
<text text-anchor="start" x="59.69" y="-262.6" font-family="Work Sans" font-size="8.00"> </text>
<text text-anchor="start" x="9.67" y="-254.6" font-family="Work Sans" font-size="8.00"> </text>
<text text-anchor="start" x="11.89" y="-254.6" font-family="Work Sans" font-size="8.00" fill="green">woman%1:18:00</text>
<text text-anchor="start" x="71.48" y="-254.6" font-family="Work Sans" font-size="8.00"> </text>
<text text-anchor="start" x="40.57" y="-246.6" font-family="Work Sans" font-size="8.00" fill="green"> </text>
</a>
</g>
</g>
<!-- V105197&#45;&gt;V105189 -->
<g id="edge5" class="edge">
<title>V105197&#45;&gt;V105189</title>
<path fill="none" stroke="grey" stroke-width="0.5" d="M91.04,-332.6C80.28,-326.83 69.09,-319.3 60.81,-310 55.5,-304.02 51.5,-296.35 48.58,-289.03"/>
<polygon fill="grey" stroke="grey" stroke-width="0.5" points="50.1,-288.13 46.72,-284.05 46.83,-289.35 50.1,-288.13"/>
<text text-anchor="middle" x="79.62" y="-303.6" font-family="Work Sans" font-size="8.00"> AGENT &#160;&#160;</text>
</g>
<!-- V105203 -->
<g id="node5" class="node">
<title>V105203</title>
<g id="a_node5"><a xlink:href="http://trips.ihmc.us/lexicon/data/ONT::WHEN-WHILE.xml" xlink:title="&lt;font color=&quot;green&quot;&gt;&lt;br /&gt;&lt;/font&gt; &lt;font color=&quot;black&quot;&gt;WHEN&#45;WHILE&lt;/font&gt; &lt;font color=&quot;green&quot;&gt;&lt;br /&gt;&lt;/font&gt; &lt;font color=&quot;red&quot;&gt;F&lt;/font&gt; &lt;font color=&quot;blue&quot;&gt;WHEN&lt;/font&gt; &lt;font color=&quot;green&quot;&gt;&lt;br /&gt; &lt;/font&gt;">
<polygon fill="pink" stroke="transparent" stroke-width="0.5" points="123.3,-248 151.69,-248 151.69,-280 123.3,-280 123.3,-248"/>
<polygon fill="lightblue" stroke="transparent" stroke-width="0.5" points="151.69,-248 180.07,-248 180.07,-280 151.69,-280 151.69,-248"/>
<polygon fill="none" stroke="transparent" points="180.07,-280 123.3,-280 123.3,-248 180.07,-248 180.07,-280"/>
<text text-anchor="start" x="123.24" y="-266.6" font-family="Work Sans" font-size="8.00"> </text>
<text text-anchor="start" x="125.46" y="-266.6" font-family="Work Sans" font-size="8.00">WHEN&#45;WHILE</text>
<text text-anchor="start" x="177.91" y="-266.6" font-family="Work Sans" font-size="8.00"> </text>
<text text-anchor="start" x="133.69" y="-258.6" font-family="Work Sans" font-size="8.00"> </text>
<text text-anchor="start" x="135.91" y="-258.6" font-family="Work Sans" font-size="8.00" fill="red">F</text>
<text text-anchor="start" x="140.8" y="-258.6" font-family="Work Sans" font-size="8.00"> </text>
<text text-anchor="start" x="143.02" y="-258.6" font-family="Work Sans" font-size="8.00" fill="blue">WHEN</text>
<text text-anchor="start" x="167.46" y="-258.6" font-family="Work Sans" font-size="8.00"> </text>
<text text-anchor="start" x="150.57" y="-250.6" font-family="Work Sans" font-size="8.00" fill="green"> </text>
</a>
</g>
</g>
<!-- V105197&#45;&gt;V105203 -->
<g id="edge4" class="edge">
<title>V105197&#45;&gt;V105203</title>
<path fill="none" stroke="red" d="M106.68,-327.82C101.11,-319.87 97.53,-310.53 101.83,-302 105.68,-294.34 111.95,-287.88 118.76,-282.6"/>
<polygon fill="red" stroke="red" points="120.05,-283.82 123.05,-279.46 117.98,-280.99 120.05,-283.82"/>
<text text-anchor="middle" x="116.62" y="-303.6" font-family="Work Sans" font-size="8.00"> TIME &#160;&#160;</text>
</g>
<!-- V105197&#45;&gt;V105203 -->
<g id="edge11" class="edge">
<title>V105197&#45;&gt;V105203</title>
<path fill="none" stroke="blue" d="M131.72,-327.98C135.79,-315.12 141.17,-298.15 145.32,-285.07"/>
<polygon fill="blue" stroke="blue" points="147.06,-285.38 146.9,-280.09 143.72,-284.33 147.06,-285.38"/>
<text text-anchor="middle" x="140.8" y="-303.6" font-family="Work Sans" font-size="8.00">.</text>
</g>
<!-- V105203&#45;&gt;V105197 -->
<g id="edge13" class="edge">
<title>V105203&#45;&gt;V105197</title>
<path fill="none" stroke="grey" stroke-width="0.5" d="M151.02,-280.3C150.3,-289.15 148.8,-300.4 145.69,-310 144.26,-314.39 142.32,-318.86 140.21,-323.11"/>
<polygon fill="grey" stroke="grey" stroke-width="0.5" points="138.62,-322.38 137.86,-327.62 141.72,-323.99 138.62,-322.38"/>
<text text-anchor="middle" x="167.24" y="-303.6" font-family="Work Sans" font-size="8.00"> FIGURE &#160;&#160;</text>
</g>
<!-- V105231 -->
<g id="node6" class="node">
<title>V105231</title>
<g id="a_node6"><a xlink:href="http://trips.ihmc.us/lexicon/data/ONT::SELF-LOCOMOTE.xml" xlink:title="&lt;font color=&quot;green&quot;&gt;&lt;br /&gt;&lt;/font&gt; &lt;font color=&quot;black&quot;&gt;SELF&#45;LOCOMOTE&lt;/font&gt; &lt;font color=&quot;green&quot;&gt;&lt;br /&gt;&lt;/font&gt; &lt;font color=&quot;red&quot;&gt;F&lt;/font&gt; &lt;font color=&quot;blue&quot;&gt;BOLT&lt;/font&gt; &lt;font color=&quot;green&quot;&gt;&lt;br /&gt;&lt;/font&gt; &lt;font color=&quot;green&quot;&gt;bolt%1:04:01::&lt;/font&gt; &lt;font color=&quot;green&quot;&gt;&lt;br /&gt; &lt;/font&gt;">
<polygon fill="pink" stroke="transparent" stroke-width="0.5" points="115.29,-160 151.69,-160 151.69,-200 115.29,-200 115.29,-160"/>
<polygon fill="lightblue" stroke="transparent" stroke-width="0.5" points="151.69,-160 188.08,-160 188.08,-200 151.69,-200 151.69,-160"/>
<polygon fill="none" stroke="transparent" points="188.08,-200 115.29,-200 115.29,-160 188.08,-160 188.08,-200"/>
<text text-anchor="start" x="115.24" y="-186.6" font-family="Work Sans" font-size="8.00"> </text>
<text text-anchor="start" x="117.46" y="-186.6" font-family="Work Sans" font-size="8.00">SELF&#45;LOCOMOTE</text>
<text text-anchor="start" x="185.91" y="-186.6" font-family="Work Sans" font-size="8.00"> </text>
<text text-anchor="start" x="135.76" y="-178.6" font-family="Work Sans" font-size="8.00"> </text>
<text text-anchor="start" x="137.98" y="-178.6" font-family="Work Sans" font-size="8.00" fill="red">F</text>
<text text-anchor="start" x="142.87" y="-178.6" font-family="Work Sans" font-size="8.00"> </text>
<text text-anchor="start" x="145.09" y="-178.6" font-family="Work Sans" font-size="8.00" fill="blue">BOLT</text>
<text text-anchor="start" x="165.39" y="-178.6" font-family="Work Sans" font-size="8.00"> </text>
<text text-anchor="start" x="123.89" y="-170.6" font-family="Work Sans" font-size="8.00"> </text>
<text text-anchor="start" x="126.11" y="-170.6" font-family="Work Sans" font-size="8.00" fill="green">bolt%1:04:01::</text>
<text text-anchor="start" x="177.26" y="-170.6" font-family="Work Sans" font-size="8.00"> </text>
<text text-anchor="start" x="150.57" y="-162.6" font-family="Work Sans" font-size="8.00" fill="green"> </text>
</a>
</g>
</g>
<!-- V105203&#45;&gt;V105231 -->
<g id="edge12" class="edge">
<title>V105203&#45;&gt;V105231</title>
<path fill="none" stroke="grey" stroke-width="0.5" d="M151.69,-247.96C151.69,-236.12 151.69,-219.38 151.69,-205.6"/>
<polygon fill="grey" stroke="grey" stroke-width="0.5" points="153.44,-205.29 151.69,-200.29 149.94,-205.29 153.44,-205.29"/>
<text text-anchor="middle" x="173.91" y="-219.6" font-family="Work Sans" font-size="8.00"> GROUND &#160;&#160;</text>
</g>
<!-- V105222 -->
<g id="node7" class="node">
<title>V105222</title>
<g id="a_node7"><a xlink:href="http://trips.ihmc.us/lexicon/data/ONT::RIDE.xml" xlink:title="&lt;font color=&quot;green&quot;&gt;&lt;br /&gt;&lt;/font&gt; &lt;font color=&quot;black&quot;&gt;RIDE&lt;/font&gt; &lt;font color=&quot;green&quot;&gt;&lt;br /&gt;&lt;/font&gt; &lt;font color=&quot;red&quot;&gt;THE&lt;/font&gt; &lt;font color=&quot;blue&quot;&gt;RIDE&lt;/font&gt; &lt;font color=&quot;green&quot;&gt;&lt;br /&gt;&lt;/font&gt; &lt;font color=&quot;green&quot;&gt;ride%2:38:01::&lt;/font&gt; &lt;font color=&quot;green&quot;&gt;&lt;br /&gt; &lt;/font&gt;">
<text text-anchor="start" x="173.91" y="-26.6" font-family="Work Sans" font-size="8.00"> </text>
<text text-anchor="start" x="176.13" y="-26.6" font-family="Work Sans" font-size="8.00">RIDE</text>
<text text-anchor="start" x="195.24" y="-26.6" font-family="Work Sans" font-size="8.00"> </text>
<text text-anchor="start" x="164.79" y="-18.6" font-family="Work Sans" font-size="8.00"> </text>
<text text-anchor="start" x="167.02" y="-18.6" font-family="Work Sans" font-size="8.00" fill="red">THE</text>
<text text-anchor="start" x="183.02" y="-18.6" font-family="Work Sans" font-size="8.00"> </text>
<text text-anchor="start" x="185.24" y="-18.6" font-family="Work Sans" font-size="8.00" fill="blue">RIDE</text>
<text text-anchor="start" x="204.35" y="-18.6" font-family="Work Sans" font-size="8.00"> </text>
<text text-anchor="start" x="157.67" y="-10.6" font-family="Work Sans" font-size="8.00"> </text>
<text text-anchor="start" x="159.89" y="-10.6" font-family="Work Sans" font-size="8.00" fill="green">ride%2:38:01::</text>
<text text-anchor="start" x="211.48" y="-10.6" font-family="Work Sans" font-size="8.00"> </text>
<text text-anchor="start" x="184.57" y="-2.6" font-family="Work Sans" font-size="8.00" fill="green"> </text>
</a>
</g>
</g>
<!-- V105231&#45;&gt;V105222 -->
<g id="edge8" class="edge">
<title>V105231&#45;&gt;V105222</title>
<path fill="none" stroke="grey" stroke-width="0.5" d="M139.97,-159.64C129.73,-140.12 117.94,-109.35 127.81,-84 133.87,-68.46 145.75,-54.43 157.18,-43.57"/>
<polygon fill="grey" stroke="grey" stroke-width="0.5" points="158.54,-44.7 161.03,-40.02 156.17,-42.13 158.54,-44.7"/>
<text text-anchor="middle" x="146.62" y="-97.6" font-family="Work Sans" font-size="8.00"> AGENT &#160;&#160;</text>
</g>
<!-- V105262 -->
<g id="node8" class="node">
<title>V105262</title>
<g id="a_node8"><a xlink:href="http://trips.ihmc.us/lexicon/data/ONT::DIRECTION-DOWN.xml" xlink:title="&lt;font color=&quot;green&quot;&gt;&lt;br /&gt;&lt;/font&gt; &lt;font color=&quot;black&quot;&gt;DIRECTION&#45;DOWN&lt;/font&gt; &lt;font color=&quot;green&quot;&gt;&lt;br /&gt;&lt;/font&gt; &lt;font color=&quot;red&quot;&gt;F&lt;/font&gt; &lt;font color=&quot;blue&quot;&gt;DOWN&lt;/font&gt; &lt;font color=&quot;green&quot;&gt;&lt;br /&gt; &lt;/font&gt;">
<polygon fill="pink" stroke="transparent" stroke-width="0.5" points="172.25,-84 210.69,-84 210.69,-116 172.25,-116 172.25,-84"/>
<polygon fill="lightblue" stroke="transparent" stroke-width="0.5" points="210.69,-84 249.12,-84 249.12,-116 210.69,-116 210.69,-84"/>
<polygon fill="none" stroke="transparent" points="249.12,-116 172.25,-116 172.25,-84 249.12,-84 249.12,-116"/>
<text text-anchor="start" x="172.47" y="-102.6" font-family="Work Sans" font-size="8.00"> </text>
<text text-anchor="start" x="174.69" y="-102.6" font-family="Work Sans" font-size="8.00">DIRECTION&#45;DOWN</text>
<text text-anchor="start" x="246.68" y="-102.6" font-family="Work Sans" font-size="8.00"> </text>
<text text-anchor="start" x="192.24" y="-94.6" font-family="Work Sans" font-size="8.00"> </text>
<text text-anchor="start" x="194.47" y="-94.6" font-family="Work Sans" font-size="8.00" fill="red">F</text>
<text text-anchor="start" x="199.35" y="-94.6" font-family="Work Sans" font-size="8.00"> </text>
<text text-anchor="start" x="201.58" y="-94.6" font-family="Work Sans" font-size="8.00" fill="blue">DOWN</text>
<text text-anchor="start" x="226.9" y="-94.6" font-family="Work Sans" font-size="8.00"> </text>
<text text-anchor="start" x="209.57" y="-86.6" font-family="Work Sans" font-size="8.00" fill="green"> </text>
</a>
</g>
</g>
<!-- V105231&#45;&gt;V105262 -->
<g id="edge1" class="edge">
<title>V105231&#45;&gt;V105262</title>
<path fill="none" stroke="red" d="M148.2,-159.88C147.63,-151.4 148.38,-141.64 152.96,-134 156.68,-127.81 162.02,-122.67 167.98,-118.44"/>
<polygon fill="red" stroke="red" points="168.98,-119.87 172.19,-115.66 167.05,-116.95 168.98,-119.87"/>
<text text-anchor="middle" x="172.55" y="-135.6" font-family="Work Sans" font-size="8.00"> RESULT &#160;&#160;</text>
</g>
<!-- V105231&#45;&gt;V105262 -->
<g id="edge2" class="edge">
<title>V105231&#45;&gt;V105262</title>
<path fill="none" stroke="blue" d="M176.38,-159.79C182.22,-154.46 188.08,-148.38 192.69,-142 197.27,-135.65 201.03,-127.95 203.91,-120.94"/>
<polygon fill="blue" stroke="blue" points="205.56,-121.52 205.76,-116.23 202.31,-120.24 205.56,-121.52"/>
<text text-anchor="middle" x="197.8" y="-135.6" font-family="Work Sans" font-size="8.00">.</text>
</g>
<!-- V105262&#45;&gt;V105222 -->
<g id="edge3" class="edge">
<title>V105262&#45;&gt;V105222</title>
<path fill="none" stroke="blue" d="M201.6,-83.99C198.61,-78.5 195.53,-72.12 193.46,-66 191.24,-59.42 189.62,-52.07 188.46,-45.24"/>
<polygon fill="blue" stroke="blue" points="190.17,-44.82 187.66,-40.15 186.71,-45.36 190.17,-44.82"/>
<text text-anchor="middle" x="193.8" y="-59.6" font-family="Work Sans" font-size="8.00">.</text>
</g>
<!-- V105262&#45;&gt;V105222 -->
<g id="edge9" class="edge">
<title>V105262&#45;&gt;V105222</title>
<path fill="none" stroke="red" d="M205.87,-83.96C202.33,-72.94 197.46,-57.75 193.39,-45.05"/>
<polygon fill="red" stroke="red" points="195.01,-44.37 191.82,-40.14 191.68,-45.44 195.01,-44.37"/>
<text text-anchor="middle" x="218.24" y="-59.6" font-family="Work Sans" font-size="8.00"> FIGURE &#160;&#160;</text>
</g>
</g>
</svg>
