<?xml version="1.0" encoding="UTF-8" standalone="no"?>
<!DOCTYPE svg PUBLIC "-//W3C//DTD SVG 1.1//EN"
 "http://www.w3.org/Graphics/SVG/1.1/DTD/svg11.dtd">
<!-- Generated by graphviz version 2.43.0 (0)
 -->
<!-- Title: graph Pages: 1 -->
<svg width="469pt" height="376pt"
 viewBox="0.00 0.00 468.56 376.00" xmlns="http://www.w3.org/2000/svg" xmlns:xlink="http://www.w3.org/1999/xlink">
<g id="graph0" class="graph" transform="scale(1 1) rotate(0) translate(4 372)">
<title>graph</title>
<polygon fill="white" stroke="transparent" points="-4,4 -4,-372 464.56,-372 464.56,4 -4,4"/>
<!-- V44588 -->
<g id="node1" class="node">
<title>V44588</title>
<g id="a_node1"><a xlink:href="http://trips.ihmc.us/lexicon/data/ONT::SA_TELL.xml" xlink:title="&lt;font color=&quot;green&quot;&gt;&lt;br /&gt;&lt;/font&gt; &lt;font color=&quot;black&quot;&gt;SA_TELL&lt;/font&gt; &lt;font color=&quot;green&quot;&gt;&lt;br /&gt;&lt;/font&gt; &lt;font color=&quot;red&quot;&gt;SPEECHACT&lt;/font&gt; &lt;font color=&quot;blue&quot;&gt;* &lt;/font&gt; &lt;font color=&quot;green&quot;&gt;&lt;br /&gt; &lt;/font&gt;">
<text text-anchor="start" x="177.11" y="-354.6" font-family="Work Sans" font-size="8.00"> </text>
<text text-anchor="start" x="179.33" y="-354.6" font-family="Work Sans" font-size="8.00">SA_TELL</text>
<text text-anchor="start" x="213.57" y="-354.6" font-family="Work Sans" font-size="8.00"> </text>
<text text-anchor="start" x="166" y="-346.6" font-family="Work Sans" font-size="8.00"> </text>
<text text-anchor="start" x="168.22" y="-346.6" font-family="Work Sans" font-size="8.00" fill="red">SPEECHACT</text>
<text text-anchor="start" x="217.12" y="-346.6" font-family="Work Sans" font-size="8.00"> </text>
<text text-anchor="start" x="219.34" y="-346.6" font-family="Work Sans" font-size="8.00" fill="blue">* </text>
<text text-anchor="start" x="224.68" y="-346.6" font-family="Work Sans" font-size="8.00"> </text>
<text text-anchor="start" x="195.34" y="-338.6" font-family="Work Sans" font-size="8.00" fill="green"> </text>
</a>
</g>
</g>
<!-- V42618 -->
<g id="node2" class="node">
<title>V42618</title>
<g id="a_node2"><a xlink:href="http://trips.ihmc.us/lexicon/data/ONT::ACQUIRE.xml" xlink:title="&lt;font color=&quot;green&quot;&gt;&lt;br /&gt;&lt;/font&gt; &lt;font color=&quot;black&quot;&gt;ACQUIRE&lt;/font&gt; &lt;font color=&quot;green&quot;&gt;&lt;br /&gt;&lt;/font&gt; &lt;font color=&quot;red&quot;&gt;F&lt;/font&gt; &lt;font color=&quot;blue&quot;&gt;GET&lt;/font&gt; &lt;font color=&quot;green&quot;&gt;&lt;br /&gt;&lt;/font&gt; &lt;font color=&quot;green&quot;&gt;get%2:40:00::&lt;/font&gt; &lt;font color=&quot;green&quot;&gt;&lt;br /&gt; &lt;/font&gt;">
<text text-anchor="start" x="176" y="-278.6" font-family="Work Sans" font-size="8.00"> </text>
<text text-anchor="start" x="178.23" y="-278.6" font-family="Work Sans" font-size="8.00">ACQUIRE</text>
<text text-anchor="start" x="214.68" y="-278.6" font-family="Work Sans" font-size="8.00"> </text>
<text text-anchor="start" x="182.45" y="-270.6" font-family="Work Sans" font-size="8.00"> </text>
<text text-anchor="start" x="184.67" y="-270.6" font-family="Work Sans" font-size="8.00" fill="red">F</text>
<text text-anchor="start" x="189.56" y="-270.6" font-family="Work Sans" font-size="8.00"> </text>
<text text-anchor="start" x="191.78" y="-270.6" font-family="Work Sans" font-size="8.00" fill="blue">GET</text>
<text text-anchor="start" x="208.23" y="-270.6" font-family="Work Sans" font-size="8.00"> </text>
<text text-anchor="start" x="169.54" y="-262.6" font-family="Work Sans" font-size="8.00"> </text>
<text text-anchor="start" x="171.77" y="-262.6" font-family="Work Sans" font-size="8.00" fill="green">get%2:40:00::</text>
<text text-anchor="start" x="221.14" y="-262.6" font-family="Work Sans" font-size="8.00"> </text>
<text text-anchor="start" x="195.34" y="-254.6" font-family="Work Sans" font-size="8.00" fill="green"> </text>
</a>
</g>
</g>
<!-- V44588&#45;&gt;V42618 -->
<g id="edge7" class="edge">
<title>V44588&#45;&gt;V42618</title>
<path fill="none" stroke="grey" stroke-width="0.5" d="M196.45,-335.96C196.45,-325.04 196.45,-310.02 196.45,-297.39"/>
<polygon fill="grey" stroke="grey" stroke-width="0.5" points="198.2,-297.14 196.45,-292.14 194.7,-297.14 198.2,-297.14"/>
<text text-anchor="middle" x="220.16" y="-311.6" font-family="Work Sans" font-size="8.00"> CONTENT &#160;&#160;</text>
</g>
<!-- V42584 -->
<g id="node3" class="node">
<title>V42584</title>
<g id="a_node3"><a xlink:href="http://trips.ihmc.us/lexicon/data/ONT::FEMALE-PERSON.xml" xlink:title="&lt;font color=&quot;green&quot;&gt;&lt;br /&gt;&lt;/font&gt; &lt;font color=&quot;black&quot;&gt;FEMALE&#45;PERSON&lt;/font&gt; &lt;font color=&quot;green&quot;&gt;&lt;br /&gt;&lt;/font&gt; &lt;font color=&quot;red&quot;&gt;PRO&lt;/font&gt; &lt;font color=&quot;blue&quot;&gt;SHE&lt;/font&gt; &lt;font color=&quot;green&quot;&gt;&lt;br /&gt;&lt;/font&gt; &lt;font color=&quot;green&quot;&gt;woman%1:18:00&lt;/font&gt; &lt;font color=&quot;green&quot;&gt;&lt;br /&gt; &lt;/font&gt;">
<text text-anchor="start" x="0" y="-194.6" font-family="Work Sans" font-size="8.00"> </text>
<text text-anchor="start" x="2.22" y="-194.6" font-family="Work Sans" font-size="8.00">FEMALE&#45;PERSON</text>
<text text-anchor="start" x="70.68" y="-194.6" font-family="Work Sans" font-size="8.00"> </text>
<text text-anchor="start" x="16.22" y="-186.6" font-family="Work Sans" font-size="8.00"> </text>
<text text-anchor="start" x="18.45" y="-186.6" font-family="Work Sans" font-size="8.00" fill="red">PRO</text>
<text text-anchor="start" x="35.78" y="-186.6" font-family="Work Sans" font-size="8.00"> </text>
<text text-anchor="start" x="38.01" y="-186.6" font-family="Work Sans" font-size="8.00" fill="blue">SHE</text>
<text text-anchor="start" x="54.46" y="-186.6" font-family="Work Sans" font-size="8.00"> </text>
<text text-anchor="start" x="4.43" y="-178.6" font-family="Work Sans" font-size="8.00"> </text>
<text text-anchor="start" x="6.65" y="-178.6" font-family="Work Sans" font-size="8.00" fill="green">woman%1:18:00</text>
<text text-anchor="start" x="66.25" y="-178.6" font-family="Work Sans" font-size="8.00"> </text>
<text text-anchor="start" x="35.34" y="-170.6" font-family="Work Sans" font-size="8.00" fill="green"> </text>
</a>
</g>
</g>
<!-- V42618&#45;&gt;V42584 -->
<g id="edge6" class="edge">
<title>V42618&#45;&gt;V42584</title>
<path fill="none" stroke="blue" d="M169.44,-268.19C129.85,-263.48 58.97,-252.65 42.23,-234 37.18,-228.38 35.11,-220.66 34.48,-213.2"/>
<polygon fill="blue" stroke="blue" points="36.23,-213.02 34.27,-208.1 32.73,-213.17 36.23,-213.02"/>
<text text-anchor="middle" x="43.56" y="-227.6" font-family="Work Sans" font-size="8.00">.</text>
</g>
<!-- V42618&#45;&gt;V42584 -->
<g id="edge10" class="edge">
<title>V42618&#45;&gt;V42584</title>
<path fill="none" stroke="red" d="M169.51,-266.63C144.48,-261.65 106.91,-251.81 78.58,-234 69.39,-228.22 60.87,-219.96 53.93,-212.09"/>
<polygon fill="red" stroke="red" points="55.24,-210.93 50.66,-208.27 52.59,-213.21 55.24,-210.93"/>
<text text-anchor="middle" x="97.39" y="-227.6" font-family="Work Sans" font-size="8.00"> AGENT &#160;&#160;</text>
</g>
<!-- V42588 -->
<g id="node4" class="node">
<title>V42588</title>
<g id="a_node4"><a xlink:href="http://trips.ihmc.us/lexicon/data/ONT::SEQUENCE-POSITION.xml" xlink:title="&lt;font color=&quot;green&quot;&gt;&lt;br /&gt;&lt;/font&gt; &lt;font color=&quot;black&quot;&gt;SEQUENCE&#45;POSITION&lt;/font&gt; &lt;font color=&quot;green&quot;&gt;&lt;br /&gt;&lt;/font&gt; &lt;font color=&quot;red&quot;&gt;F&lt;/font&gt; &lt;font color=&quot;blue&quot;&gt;FINALLY&lt;/font&gt; &lt;font color=&quot;green&quot;&gt;&lt;br /&gt;&lt;/font&gt; &lt;font color=&quot;green&quot;&gt;finally%4:02:02::&lt;/font&gt; &lt;font color=&quot;green&quot;&gt;&lt;br /&gt; &lt;/font&gt;">
<polygon fill="pink" stroke="transparent" stroke-width="0.5" points="95.22,-168 140.45,-168 140.45,-208 95.22,-208 95.22,-168"/>
<polygon fill="lightblue" stroke="transparent" stroke-width="0.5" points="140.45,-168 185.69,-168 185.69,-208 140.45,-208 140.45,-168"/>
<polygon fill="none" stroke="transparent" points="185.69,-208 95.22,-208 95.22,-168 185.69,-168 185.69,-208"/>
<text text-anchor="start" x="95.33" y="-194.6" font-family="Work Sans" font-size="8.00"> </text>
<text text-anchor="start" x="97.56" y="-194.6" font-family="Work Sans" font-size="8.00">SEQUENCE&#45;POSITION</text>
<text text-anchor="start" x="183.35" y="-194.6" font-family="Work Sans" font-size="8.00"> </text>
<text text-anchor="start" x="118.74" y="-186.6" font-family="Work Sans" font-size="8.00"> </text>
<text text-anchor="start" x="120.96" y="-186.6" font-family="Work Sans" font-size="8.00" fill="red">F</text>
<text text-anchor="start" x="125.85" y="-186.6" font-family="Work Sans" font-size="8.00"> </text>
<text text-anchor="start" x="128.07" y="-186.6" font-family="Work Sans" font-size="8.00" fill="blue">FINALLY</text>
<text text-anchor="start" x="159.94" y="-186.6" font-family="Work Sans" font-size="8.00"> </text>
<text text-anchor="start" x="108.88" y="-178.6" font-family="Work Sans" font-size="8.00"> </text>
<text text-anchor="start" x="111.1" y="-178.6" font-family="Work Sans" font-size="8.00" fill="green">finally%4:02:02::</text>
<text text-anchor="start" x="169.8" y="-178.6" font-family="Work Sans" font-size="8.00"> </text>
<text text-anchor="start" x="139.34" y="-170.6" font-family="Work Sans" font-size="8.00" fill="green"> </text>
</a>
</g>
</g>
<!-- V42618&#45;&gt;V42588 -->
<g id="edge4" class="edge">
<title>V42618&#45;&gt;V42588</title>
<path fill="none" stroke="red" stroke-width="0.5" d="M169.55,-265.66C152.12,-260.66 130.72,-251.26 119.9,-234 115.82,-227.5 117.09,-220.05 120.48,-213.11"/>
<polygon fill="red" stroke="red" stroke-width="0.5" points="122.2,-213.62 123.12,-208.41 119.15,-211.91 122.2,-213.62"/>
<text text-anchor="middle" x="134.23" y="-227.6" font-family="Work Sans" font-size="8.00"> MOD &#160;&#160;</text>
</g>
<!-- V42645 -->
<g id="node5" class="node">
<title>V42645</title>
<g id="a_node5"><a xlink:href="http://trips.ihmc.us/lexicon/data/ONT::INTERVIEW.xml" xlink:title="&lt;font color=&quot;green&quot;&gt;&lt;br /&gt;&lt;/font&gt; &lt;font color=&quot;black&quot;&gt;INTERVIEW&lt;/font&gt; &lt;font color=&quot;green&quot;&gt;&lt;br /&gt;&lt;/font&gt; &lt;font color=&quot;red&quot;&gt;A&lt;/font&gt; &lt;font color=&quot;blue&quot;&gt;INTERVIEW&lt;/font&gt; &lt;font color=&quot;green&quot;&gt;&lt;br /&gt;&lt;/font&gt; &lt;font color=&quot;green&quot;&gt;interview%1:10:01::&lt;/font&gt; &lt;font color=&quot;green&quot;&gt;&lt;br /&gt; &lt;/font&gt;">
<text text-anchor="start" x="286.08" y="-110.6" font-family="Work Sans" font-size="8.00"> </text>
<text text-anchor="start" x="288.3" y="-110.6" font-family="Work Sans" font-size="8.00">INTERVIEW</text>
<text text-anchor="start" x="332.6" y="-110.6" font-family="Work Sans" font-size="8.00"> </text>
<text text-anchor="start" x="282.3" y="-102.6" font-family="Work Sans" font-size="8.00"> </text>
<text text-anchor="start" x="284.52" y="-102.6" font-family="Work Sans" font-size="8.00" fill="red">A</text>
<text text-anchor="start" x="289.86" y="-102.6" font-family="Work Sans" font-size="8.00"> </text>
<text text-anchor="start" x="292.08" y="-102.6" font-family="Work Sans" font-size="8.00" fill="blue">INTERVIEW</text>
<text text-anchor="start" x="336.38" y="-102.6" font-family="Work Sans" font-size="8.00"> </text>
<text text-anchor="start" x="273.32" y="-94.6" font-family="Work Sans" font-size="8.00"> </text>
<text text-anchor="start" x="275.54" y="-94.6" font-family="Work Sans" font-size="8.00" fill="green">interview%1:10:01::</text>
<text text-anchor="start" x="345.36" y="-94.6" font-family="Work Sans" font-size="8.00"> </text>
<text text-anchor="start" x="309.34" y="-86.6" font-family="Work Sans" font-size="8.00" fill="green"> </text>
</a>
</g>
</g>
<!-- V42618&#45;&gt;V42645 -->
<g id="edge13" class="edge">
<title>V42618&#45;&gt;V42645</title>
<path fill="none" stroke="red" d="M203.54,-251.95C213.95,-224.19 232.69,-175.14 237.78,-168 248.75,-152.59 264.24,-138.49 278.11,-127.55"/>
<polygon fill="red" stroke="red" points="279.47,-128.7 282.35,-124.25 277.33,-125.94 279.47,-128.7"/>
<text text-anchor="middle" x="263.79" y="-185.6" font-family="Work Sans" font-size="8.00"> AFFECTED &#160;&#160;</text>
</g>
<!-- V42618&#45;&gt;V42645 -->
<g id="edge14" class="edge">
<title>V42618&#45;&gt;V42645</title>
<path fill="none" stroke="blue" d="M223.67,-259.32C244.63,-248.9 272.61,-231.64 288.45,-208 304.28,-184.37 309,-151.44 310.26,-129.22"/>
<polygon fill="blue" stroke="blue" points="312.01,-129.18 310.5,-124.1 308.52,-129.01 312.01,-129.18"/>
<text text-anchor="middle" x="306.56" y="-185.6" font-family="Work Sans" font-size="8.00">.</text>
</g>
<!-- V42663 -->
<g id="node6" class="node">
<title>V42663</title>
<g id="a_node6"><a xlink:href="http://trips.ihmc.us/lexicon/data/ONT::ACCOMPANIMENT.xml" xlink:title="&lt;font color=&quot;green&quot;&gt;&lt;br /&gt;&lt;/font&gt; &lt;font color=&quot;black&quot;&gt;ACCOMPANIMENT&lt;/font&gt; &lt;font color=&quot;green&quot;&gt;&lt;br /&gt;&lt;/font&gt; &lt;font color=&quot;red&quot;&gt;F&lt;/font&gt; &lt;font color=&quot;blue&quot;&gt;WITH&lt;/font&gt; &lt;font color=&quot;green&quot;&gt;&lt;br /&gt; &lt;/font&gt;">
<polygon fill="pink" stroke="transparent" stroke-width="0.5" points="330.98,-172 368.45,-172 368.45,-204 330.98,-204 330.98,-172"/>
<polygon fill="lightblue" stroke="transparent" stroke-width="0.5" points="368.45,-172 405.92,-172 405.92,-204 368.45,-204 368.45,-172"/>
<polygon fill="none" stroke="transparent" points="405.92,-204 330.98,-204 330.98,-172 405.92,-172 405.92,-204"/>
<text text-anchor="start" x="330.97" y="-190.6" font-family="Work Sans" font-size="8.00"> </text>
<text text-anchor="start" x="333.19" y="-190.6" font-family="Work Sans" font-size="8.00">ACCOMPANIMENT</text>
<text text-anchor="start" x="403.71" y="-190.6" font-family="Work Sans" font-size="8.00"> </text>
<text text-anchor="start" x="352.46" y="-182.6" font-family="Work Sans" font-size="8.00"> </text>
<text text-anchor="start" x="354.68" y="-182.6" font-family="Work Sans" font-size="8.00" fill="red">F</text>
<text text-anchor="start" x="359.56" y="-182.6" font-family="Work Sans" font-size="8.00"> </text>
<text text-anchor="start" x="361.79" y="-182.6" font-family="Work Sans" font-size="8.00" fill="blue">WITH</text>
<text text-anchor="start" x="382.22" y="-182.6" font-family="Work Sans" font-size="8.00"> </text>
<text text-anchor="start" x="367.34" y="-174.6" font-family="Work Sans" font-size="8.00" fill="green"> </text>
</a>
</g>
</g>
<!-- V42618&#45;&gt;V42663 -->
<g id="edge2" class="edge">
<title>V42618&#45;&gt;V42663</title>
<path fill="none" stroke="blue" d="M223.28,-266.87C249.64,-261.96 290.33,-252.06 321.45,-234 333.08,-227.25 344.05,-217.06 352.47,-208.07"/>
<polygon fill="blue" stroke="blue" points="353.83,-209.18 355.91,-204.31 351.24,-206.82 353.83,-209.18"/>
<text text-anchor="middle" x="333.56" y="-227.6" font-family="Work Sans" font-size="8.00">.</text>
</g>
<!-- V42618&#45;&gt;V42663 -->
<g id="edge12" class="edge">
<title>V42618&#45;&gt;V42663</title>
<path fill="none" stroke="red" d="M223.44,-269.64C253.93,-266.91 303.8,-258.68 338.45,-234 347.36,-227.66 354.37,-217.78 359.36,-208.89"/>
<polygon fill="red" stroke="red" points="361.12,-209.31 361.93,-204.08 358.03,-207.66 361.12,-209.31"/>
<text text-anchor="middle" x="367.31" y="-227.6" font-family="Work Sans" font-size="8.00"> RESULT &#160;&#160;</text>
</g>
<!-- V42588&#45;&gt;V42618 -->
<g id="edge8" class="edge">
<title>V42588&#45;&gt;V42618</title>
<path fill="none" stroke="red" stroke-width="0.5" d="M153.13,-208.35C158.4,-216.33 164.62,-225.64 170.34,-234 173.4,-238.47 176.7,-243.21 179.9,-247.76"/>
<polygon fill="red" stroke="red" stroke-width="0.5" points="178.48,-248.79 182.79,-251.87 181.34,-246.77 178.48,-248.79"/>
<text text-anchor="middle" x="190.01" y="-227.6" font-family="Work Sans" font-size="8.00"> FIGURE &#160;&#160;</text>
</g>
<!-- V42663&#45;&gt;V42645 -->
<g id="edge1" class="edge">
<title>V42663&#45;&gt;V42645</title>
<path fill="none" stroke="blue" stroke-width="0.5" d="M357.81,-171.96C349.22,-159.81 336.97,-142.49 327.08,-128.51"/>
<polygon fill="blue" stroke="blue" stroke-width="0.5" points="328.41,-127.36 324.09,-124.29 325.55,-129.38 328.41,-127.36"/>
<text text-anchor="middle" x="361.01" y="-143.6" font-family="Work Sans" font-size="8.00"> FIGURE &#160;&#160;</text>
</g>
<!-- V42728 -->
<g id="node7" class="node">
<title>V42728</title>
<g id="a_node7"><a xlink:href="http://trips.ihmc.us/lexicon/data/ONT::COMPANY.xml" xlink:title="&lt;font color=&quot;green&quot;&gt;&lt;br /&gt;&lt;/font&gt; &lt;font color=&quot;black&quot;&gt;COMPANY&lt;/font&gt; &lt;font color=&quot;green&quot;&gt;&lt;br /&gt;&lt;/font&gt; &lt;font color=&quot;red&quot;&gt;A&lt;/font&gt; &lt;font color=&quot;blue&quot;&gt;COMPANY&lt;/font&gt; &lt;font color=&quot;green&quot;&gt;&lt;br /&gt;&lt;/font&gt; &lt;font color=&quot;green&quot;&gt;company%1:14:01::&lt;/font&gt; &lt;font color=&quot;green&quot;&gt;&lt;br /&gt; &lt;/font&gt;">
<text text-anchor="start" x="395.3" y="-110.6" font-family="Work Sans" font-size="8.00"> </text>
<text text-anchor="start" x="397.52" y="-110.6" font-family="Work Sans" font-size="8.00">COMPANY</text>
<text text-anchor="start" x="437.38" y="-110.6" font-family="Work Sans" font-size="8.00"> </text>
<text text-anchor="start" x="391.52" y="-102.6" font-family="Work Sans" font-size="8.00"> </text>
<text text-anchor="start" x="393.74" y="-102.6" font-family="Work Sans" font-size="8.00" fill="red">A</text>
<text text-anchor="start" x="399.08" y="-102.6" font-family="Work Sans" font-size="8.00"> </text>
<text text-anchor="start" x="401.3" y="-102.6" font-family="Work Sans" font-size="8.00" fill="blue">COMPANY</text>
<text text-anchor="start" x="441.16" y="-102.6" font-family="Work Sans" font-size="8.00"> </text>
<text text-anchor="start" x="379.87" y="-94.6" font-family="Work Sans" font-size="8.00"> </text>
<text text-anchor="start" x="382.1" y="-94.6" font-family="Work Sans" font-size="8.00" fill="green">company%1:14:01::</text>
<text text-anchor="start" x="452.81" y="-94.6" font-family="Work Sans" font-size="8.00"> </text>
<text text-anchor="start" x="416.34" y="-86.6" font-family="Work Sans" font-size="8.00" fill="green"> </text>
</a>
</g>
</g>
<!-- V42663&#45;&gt;V42728 -->
<g id="edge3" class="edge">
<title>V42663&#45;&gt;V42728</title>
<path fill="none" stroke="blue" d="M377.44,-171.96C384.64,-159.91 394.87,-142.79 403.19,-128.87"/>
<polygon fill="blue" stroke="blue" points="404.86,-129.48 405.93,-124.29 401.86,-127.68 404.86,-129.48"/>
<text text-anchor="middle" x="394.56" y="-143.6" font-family="Work Sans" font-size="8.00">.</text>
</g>
<!-- V42663&#45;&gt;V42728 -->
<g id="edge5" class="edge">
<title>V42663&#45;&gt;V42728</title>
<path fill="none" stroke="red" d="M382.9,-171.99C388.56,-165.57 394.81,-157.77 399.45,-150 403.38,-143.43 406.79,-135.84 409.56,-128.79"/>
<polygon fill="red" stroke="red" points="411.23,-129.32 411.36,-124.02 407.96,-128.08 411.23,-129.32"/>
<text text-anchor="middle" x="424.67" y="-143.6" font-family="Work Sans" font-size="8.00"> GROUND &#160;&#160;</text>
</g>
<!-- V42720 -->
<g id="node8" class="node">
<title>V42720</title>
<g id="a_node8"><a xlink:href="http://trips.ihmc.us/lexicon/data/ONT::GOOD.xml" xlink:title="&lt;font color=&quot;green&quot;&gt;&lt;br /&gt;&lt;/font&gt; &lt;font color=&quot;black&quot;&gt;GOOD&lt;/font&gt; &lt;font color=&quot;green&quot;&gt;&lt;br /&gt;&lt;/font&gt; &lt;font color=&quot;red&quot;&gt;F&lt;/font&gt; &lt;font color=&quot;blue&quot;&gt;GOOD&lt;/font&gt; &lt;font color=&quot;green&quot;&gt;&lt;br /&gt;&lt;/font&gt; &lt;font color=&quot;green&quot;&gt;good%5:00:00:nice:00&lt;/font&gt; &lt;font color=&quot;green&quot;&gt;&lt;br /&gt; &lt;/font&gt;">
<text text-anchor="start" x="403.01" y="-26.6" font-family="Work Sans" font-size="8.00"> </text>
<text text-anchor="start" x="405.23" y="-26.6" font-family="Work Sans" font-size="8.00">GOOD</text>
<text text-anchor="start" x="429.67" y="-26.6" font-family="Work Sans" font-size="8.00"> </text>
<text text-anchor="start" x="399.45" y="-18.6" font-family="Work Sans" font-size="8.00"> </text>
<text text-anchor="start" x="401.67" y="-18.6" font-family="Work Sans" font-size="8.00" fill="red">F</text>
<text text-anchor="start" x="406.56" y="-18.6" font-family="Work Sans" font-size="8.00"> </text>
<text text-anchor="start" x="408.78" y="-18.6" font-family="Work Sans" font-size="8.00" fill="blue">GOOD</text>
<text text-anchor="start" x="433.23" y="-18.6" font-family="Work Sans" font-size="8.00"> </text>
<text text-anchor="start" x="375.42" y="-10.6" font-family="Work Sans" font-size="8.00"> </text>
<text text-anchor="start" x="377.64" y="-10.6" font-family="Work Sans" font-size="8.00" fill="green">good%5:00:00:nice:00</text>
<text text-anchor="start" x="457.26" y="-10.6" font-family="Work Sans" font-size="8.00"> </text>
<text text-anchor="start" x="416.34" y="-2.6" font-family="Work Sans" font-size="8.00" fill="green"> </text>
</a>
</g>
</g>
<!-- V42728&#45;&gt;V42720 -->
<g id="edge9" class="edge">
<title>V42728&#45;&gt;V42720</title>
<path fill="none" stroke="grey" stroke-width="0.5" d="M402.26,-83.65C398.84,-78.24 395.69,-72.14 393.9,-66 391.77,-58.71 393.74,-51.23 397.29,-44.52"/>
<polygon fill="grey" stroke="grey" stroke-width="0.5" points="398.93,-45.19 399.97,-40 395.92,-43.41 398.93,-45.19"/>
<text text-anchor="middle" x="407.23" y="-59.6" font-family="Work Sans" font-size="8.00"> MOD &#160;&#160;</text>
</g>
<!-- V42720&#45;&gt;V42728 -->
<g id="edge11" class="edge">
<title>V42720&#45;&gt;V42728</title>
<path fill="none" stroke="grey" stroke-width="0.5" d="M419.92,-40.17C420.55,-45.9 421.14,-52.19 421.45,-58 421.81,-64.74 421.48,-72.03 420.88,-78.75"/>
<polygon fill="grey" stroke="grey" stroke-width="0.5" points="419.14,-78.6 420.37,-83.75 422.62,-78.95 419.14,-78.6"/>
<text text-anchor="middle" x="441.01" y="-59.6" font-family="Work Sans" font-size="8.00"> FIGURE &#160;&#160;</text>
</g>
</g>
</svg>
