<?xml version="1.0" encoding="UTF-8" standalone="no"?>
<!DOCTYPE svg PUBLIC "-//W3C//DTD SVG 1.1//EN"
 "http://www.w3.org/Graphics/SVG/1.1/DTD/svg11.dtd">
<!-- Generated by graphviz version 2.43.0 (0)
 -->
<!-- Title: graph Pages: 1 -->
<svg width="314pt" height="200pt"
 viewBox="0.00 0.00 314.45 200.00" xmlns="http://www.w3.org/2000/svg" xmlns:xlink="http://www.w3.org/1999/xlink">
<g id="graph0" class="graph" transform="scale(1 1) rotate(0) translate(4 196)">
<title>graph</title>
<polygon fill="white" stroke="transparent" points="-4,4 -4,-196 310.45,-196 310.45,4 -4,4"/>
<!-- V40125 -->
<g id="node1" class="node">
<title>V40125</title>
<g id="a_node1"><a xlink:href="http://trips.ihmc.us/lexicon/data/ONT::SA_TELL.xml" xlink:title="&lt;font color=&quot;green&quot;&gt;&lt;br /&gt;&lt;/font&gt; &lt;font color=&quot;black&quot;&gt;SA_TELL&lt;/font&gt; &lt;font color=&quot;green&quot;&gt;&lt;br /&gt;&lt;/font&gt; &lt;font color=&quot;red&quot;&gt;SPEECHACT&lt;/font&gt; &lt;font color=&quot;blue&quot;&gt;* &lt;/font&gt; &lt;font color=&quot;green&quot;&gt;&lt;br /&gt; &lt;/font&gt;">
<text text-anchor="start" x="175" y="-178.6" font-family="Work Sans" font-size="8.00"> </text>
<text text-anchor="start" x="177.22" y="-178.6" font-family="Work Sans" font-size="8.00">SA_TELL</text>
<text text-anchor="start" x="211.46" y="-178.6" font-family="Work Sans" font-size="8.00"> </text>
<text text-anchor="start" x="163.89" y="-170.6" font-family="Work Sans" font-size="8.00"> </text>
<text text-anchor="start" x="166.11" y="-170.6" font-family="Work Sans" font-size="8.00" fill="red">SPEECHACT</text>
<text text-anchor="start" x="215.01" y="-170.6" font-family="Work Sans" font-size="8.00"> </text>
<text text-anchor="start" x="217.23" y="-170.6" font-family="Work Sans" font-size="8.00" fill="blue">* </text>
<text text-anchor="start" x="222.57" y="-170.6" font-family="Work Sans" font-size="8.00"> </text>
<text text-anchor="start" x="193.23" y="-162.6" font-family="Work Sans" font-size="8.00" fill="green"> </text>
</a>
</g>
</g>
<!-- V39933 -->
<g id="node2" class="node">
<title>V39933</title>
<g id="a_node2"><a xlink:href="http://trips.ihmc.us/lexicon/data/ONT::CUT.xml" xlink:title="&lt;font color=&quot;green&quot;&gt;&lt;br /&gt;&lt;/font&gt; &lt;font color=&quot;black&quot;&gt;CUT&lt;/font&gt; &lt;font color=&quot;green&quot;&gt;&lt;br /&gt;&lt;/font&gt; &lt;font color=&quot;red&quot;&gt;F&lt;/font&gt; &lt;font color=&quot;blue&quot;&gt;CHOP&lt;/font&gt; &lt;font color=&quot;green&quot;&gt;&lt;br /&gt; &lt;/font&gt;">
<text text-anchor="start" x="183.9" y="-102.6" font-family="Work Sans" font-size="8.00"> </text>
<text text-anchor="start" x="186.12" y="-102.6" font-family="Work Sans" font-size="8.00">CUT</text>
<text text-anchor="start" x="202.56" y="-102.6" font-family="Work Sans" font-size="8.00"> </text>
<text text-anchor="start" x="177.01" y="-94.6" font-family="Work Sans" font-size="8.00"> </text>
<text text-anchor="start" x="179.23" y="-94.6" font-family="Work Sans" font-size="8.00" fill="red">F</text>
<text text-anchor="start" x="184.12" y="-94.6" font-family="Work Sans" font-size="8.00"> </text>
<text text-anchor="start" x="186.34" y="-94.6" font-family="Work Sans" font-size="8.00" fill="blue">CHOP</text>
<text text-anchor="start" x="209.45" y="-94.6" font-family="Work Sans" font-size="8.00"> </text>
<text text-anchor="start" x="193.23" y="-86.6" font-family="Work Sans" font-size="8.00" fill="green"> </text>
</a>
</g>
</g>
<!-- V40125&#45;&gt;V39933 -->
<g id="edge4" class="edge">
<title>V40125&#45;&gt;V39933</title>
<path fill="none" stroke="grey" stroke-width="0.5" d="M194.34,-159.67C194.34,-148.58 194.34,-133.49 194.34,-121.38"/>
<polygon fill="grey" stroke="grey" stroke-width="0.5" points="196.09,-121.06 194.34,-116.06 192.59,-121.06 196.09,-121.06"/>
<text text-anchor="middle" x="218.05" y="-135.6" font-family="Work Sans" font-size="8.00"> CONTENT &#160;&#160;</text>
</g>
<!-- V39916 -->
<g id="node3" class="node">
<title>V39916</title>
<g id="a_node3"><a xlink:href="http://trips.ihmc.us/lexicon/data/ONT::MALE-PERSON.xml" xlink:title="&lt;font color=&quot;green&quot;&gt;&lt;br /&gt;&lt;/font&gt; &lt;font color=&quot;black&quot;&gt;MALE&#45;PERSON&lt;/font&gt; &lt;font color=&quot;green&quot;&gt;&lt;br /&gt;&lt;/font&gt; &lt;font color=&quot;red&quot;&gt;THE&lt;/font&gt; &lt;font color=&quot;blue&quot;&gt;SAM&lt;/font&gt; &lt;font color=&quot;green&quot;&gt;&lt;br /&gt;&lt;/font&gt; &lt;font color=&quot;green&quot;&gt;man%1:18:00&lt;/font&gt; &lt;font color=&quot;green&quot;&gt;&lt;br /&gt; &lt;/font&gt;">
<polygon fill="pink" stroke="transparent" stroke-width="0.5" points="0.16,0 31.34,0 31.34,-40 0.16,-40 0.16,0"/>
<polygon fill="lightblue" stroke="transparent" stroke-width="0.5" points="31.34,0 62.52,0 62.52,-40 31.34,-40 31.34,0"/>
<polygon fill="none" stroke="transparent" points="62.52,-40 0.16,-40 0.16,0 62.52,0 62.52,-40"/>
<text text-anchor="start" x="0" y="-26.6" font-family="Work Sans" font-size="8.00"> </text>
<text text-anchor="start" x="2.22" y="-26.6" font-family="Work Sans" font-size="8.00">MALE&#45;PERSON</text>
<text text-anchor="start" x="60.46" y="-26.6" font-family="Work Sans" font-size="8.00"> </text>
<text text-anchor="start" x="11.34" y="-18.6" font-family="Work Sans" font-size="8.00"> </text>
<text text-anchor="start" x="13.56" y="-18.6" font-family="Work Sans" font-size="8.00" fill="red">THE</text>
<text text-anchor="start" x="29.56" y="-18.6" font-family="Work Sans" font-size="8.00"> </text>
<text text-anchor="start" x="31.78" y="-18.6" font-family="Work Sans" font-size="8.00" fill="blue">SAM</text>
<text text-anchor="start" x="49.12" y="-18.6" font-family="Work Sans" font-size="8.00"> </text>
<text text-anchor="start" x="4.43" y="-10.6" font-family="Work Sans" font-size="8.00"> </text>
<text text-anchor="start" x="6.66" y="-10.6" font-family="Work Sans" font-size="8.00" fill="green">man%1:18:00</text>
<text text-anchor="start" x="56.02" y="-10.6" font-family="Work Sans" font-size="8.00"> </text>
<text text-anchor="start" x="30.23" y="-2.6" font-family="Work Sans" font-size="8.00" fill="green"> </text>
</a>
</g>
</g>
<!-- V39933&#45;&gt;V39916 -->
<g id="edge2" class="edge">
<title>V39933&#45;&gt;V39916</title>
<path fill="none" stroke="grey" stroke-width="0.5" d="M176.92,-95.06C156.28,-90 121.21,-80.14 93.47,-66 81.21,-59.75 68.73,-51.22 58.21,-43.26"/>
<polygon fill="grey" stroke="grey" stroke-width="0.5" points="59.15,-41.79 54.12,-40.13 57.02,-44.56 59.15,-41.79"/>
<text text-anchor="middle" x="112.28" y="-59.6" font-family="Work Sans" font-size="8.00"> AGENT &#160;&#160;</text>
</g>
<!-- V39941 -->
<g id="node4" class="node">
<title>V39941</title>
<g id="a_node4"><a xlink:href="http://trips.ihmc.us/lexicon/data/ONT::REFERENTIAL-SEM.xml" xlink:title="&lt;font color=&quot;green&quot;&gt;&lt;br /&gt;&lt;/font&gt; &lt;font color=&quot;black&quot;&gt;REFERENTIAL&#45;SEM&lt;/font&gt; &lt;font color=&quot;green&quot;&gt;&lt;br /&gt;&lt;/font&gt; &lt;font color=&quot;red&quot;&gt;PRO&lt;/font&gt; &lt;font color=&quot;blue&quot;&gt;IT&lt;/font&gt; &lt;font color=&quot;green&quot;&gt;&lt;br /&gt;&lt;/font&gt; &lt;font color=&quot;green&quot;&gt;entity%1:03:00&lt;/font&gt; &lt;font color=&quot;green&quot;&gt;&lt;br /&gt; &lt;/font&gt;">
<text text-anchor="start" x="80.56" y="-26.6" font-family="Work Sans" font-size="8.00"> </text>
<text text-anchor="start" x="82.78" y="-26.6" font-family="Work Sans" font-size="8.00">REFERENTIAL&#45;SEM</text>
<text text-anchor="start" x="157.9" y="-26.6" font-family="Work Sans" font-size="8.00"> </text>
<text text-anchor="start" x="104.78" y="-18.6" font-family="Work Sans" font-size="8.00"> </text>
<text text-anchor="start" x="107.01" y="-18.6" font-family="Work Sans" font-size="8.00" fill="red">PRO</text>
<text text-anchor="start" x="124.34" y="-18.6" font-family="Work Sans" font-size="8.00"> </text>
<text text-anchor="start" x="126.56" y="-18.6" font-family="Work Sans" font-size="8.00" fill="blue">IT</text>
<text text-anchor="start" x="133.67" y="-18.6" font-family="Work Sans" font-size="8.00"> </text>
<text text-anchor="start" x="91.65" y="-10.6" font-family="Work Sans" font-size="8.00"> </text>
<text text-anchor="start" x="93.88" y="-10.6" font-family="Work Sans" font-size="8.00" fill="green">entity%1:03:00</text>
<text text-anchor="start" x="146.8" y="-10.6" font-family="Work Sans" font-size="8.00"> </text>
<text text-anchor="start" x="119.23" y="-2.6" font-family="Work Sans" font-size="8.00" fill="green"> </text>
</a>
</g>
</g>
<!-- V39933&#45;&gt;V39941 -->
<g id="edge1" class="edge">
<title>V39933&#45;&gt;V39941</title>
<path fill="none" stroke="grey" stroke-width="0.5" d="M176.99,-92.27C164.85,-86.79 149.01,-78 138.66,-66 133.47,-59.98 129.62,-52.29 126.83,-44.98"/>
<polygon fill="grey" stroke="grey" stroke-width="0.5" points="128.38,-44.13 125.06,-40 125.08,-45.3 128.38,-44.13"/>
<text text-anchor="middle" x="164.68" y="-59.6" font-family="Work Sans" font-size="8.00"> AFFECTED &#160;&#160;</text>
</g>
<!-- V39975 -->
<g id="node5" class="node">
<title>V39975</title>
<g id="a_node5"><a xlink:href="http://trips.ihmc.us/lexicon/data/ONT::COMPLETELY.xml" xlink:title="&lt;font color=&quot;green&quot;&gt;&lt;br /&gt;&lt;/font&gt; &lt;font color=&quot;black&quot;&gt;COMPLETELY&lt;/font&gt; &lt;font color=&quot;green&quot;&gt;&lt;br /&gt;&lt;/font&gt; &lt;font color=&quot;red&quot;&gt;F&lt;/font&gt; &lt;font color=&quot;blue&quot;&gt;DOWN&lt;/font&gt; &lt;font color=&quot;green&quot;&gt;&lt;br /&gt;&lt;/font&gt; &lt;font color=&quot;green&quot;&gt;down%4:02:02::&lt;/font&gt; &lt;font color=&quot;green&quot;&gt;&lt;br /&gt; &lt;/font&gt;">
<polygon fill="pink" stroke="transparent" stroke-width="0.5" points="230.52,0 261.34,0 261.34,-40 230.52,-40 230.52,0"/>
<polygon fill="lightblue" stroke="transparent" stroke-width="0.5" points="261.34,0 292.16,0 292.16,-40 261.34,-40 261.34,0"/>
<polygon fill="none" stroke="transparent" points="292.16,-40 230.52,-40 230.52,0 292.16,0 292.16,-40"/>
<text text-anchor="start" x="232.52" y="-26.6" font-family="Work Sans" font-size="8.00"> </text>
<text text-anchor="start" x="234.74" y="-26.6" font-family="Work Sans" font-size="8.00">COMPLETELY</text>
<text text-anchor="start" x="287.94" y="-26.6" font-family="Work Sans" font-size="8.00"> </text>
<text text-anchor="start" x="242.9" y="-18.6" font-family="Work Sans" font-size="8.00"> </text>
<text text-anchor="start" x="245.12" y="-18.6" font-family="Work Sans" font-size="8.00" fill="red">F</text>
<text text-anchor="start" x="250.01" y="-18.6" font-family="Work Sans" font-size="8.00"> </text>
<text text-anchor="start" x="252.23" y="-18.6" font-family="Work Sans" font-size="8.00" fill="blue">DOWN</text>
<text text-anchor="start" x="277.56" y="-18.6" font-family="Work Sans" font-size="8.00"> </text>
<text text-anchor="start" x="230.43" y="-10.6" font-family="Work Sans" font-size="8.00"> </text>
<text text-anchor="start" x="232.65" y="-10.6" font-family="Work Sans" font-size="8.00" fill="green">down%4:02:02::</text>
<text text-anchor="start" x="290.03" y="-10.6" font-family="Work Sans" font-size="8.00"> </text>
<text text-anchor="start" x="260.23" y="-2.6" font-family="Work Sans" font-size="8.00" fill="green"> </text>
</a>
</g>
</g>
<!-- V39933&#45;&gt;V39975 -->
<g id="edge3" class="edge">
<title>V39933&#45;&gt;V39975</title>
<path fill="none" stroke="red" d="M191.47,-83.95C190.7,-75.72 191.12,-65.67 195.78,-58 202.61,-46.76 214.2,-38.64 225.76,-32.92"/>
<polygon fill="red" stroke="red" points="226.56,-34.48 230.35,-30.77 225.08,-31.31 226.56,-34.48"/>
<text text-anchor="middle" x="218.12" y="-59.6" font-family="Work Sans" font-size="8.00"> MANNER &#160;&#160;</text>
</g>
<!-- V39933&#45;&gt;V39975 -->
<g id="edge6" class="edge">
<title>V39933&#45;&gt;V39975</title>
<path fill="none" stroke="blue" d="M211.75,-89.08C220.84,-83.25 231.63,-75.22 239.34,-66 244.51,-59.82 248.81,-52.22 252.21,-45.04"/>
<polygon fill="blue" stroke="blue" points="253.95,-45.43 254.41,-40.16 250.76,-43.99 253.95,-45.43"/>
<text text-anchor="middle" x="246.45" y="-59.6" font-family="Work Sans" font-size="8.00">.</text>
</g>
<!-- V39975&#45;&gt;V39933 -->
<g id="edge5" class="edge">
<title>V39975&#45;&gt;V39933</title>
<path fill="none" stroke="grey" stroke-width="0.5" d="M267.5,-40.22C269.05,-48.71 269.12,-58.46 264.34,-66 253.91,-82.45 232.84,-90.85 216.52,-95.05"/>
<polygon fill="grey" stroke="grey" stroke-width="0.5" points="216.09,-93.35 211.63,-96.22 216.9,-96.76 216.09,-93.35"/>
<text text-anchor="middle" x="286.9" y="-59.6" font-family="Work Sans" font-size="8.00"> FIGURE &#160;&#160;</text>
</g>
</g>
</svg>
