<?xml version="1.0" encoding="UTF-8" standalone="no"?>
<!DOCTYPE svg PUBLIC "-//W3C//DTD SVG 1.1//EN"
 "http://www.w3.org/Graphics/SVG/1.1/DTD/svg11.dtd">
<!-- Generated by graphviz version 2.43.0 (0)
 -->
<!-- Title: graph Pages: 1 -->
<svg width="186pt" height="344pt"
 viewBox="0.00 0.00 186.34 344.00" xmlns="http://www.w3.org/2000/svg" xmlns:xlink="http://www.w3.org/1999/xlink">
<g id="graph0" class="graph" transform="scale(1 1) rotate(0) translate(4 340)">
<title>graph</title>
<polygon fill="white" stroke="transparent" points="-4,4 -4,-340 182.34,-340 182.34,4 -4,4"/>
<!-- V128536 -->
<g id="node1" class="node">
<title>V128536</title>
<g id="a_node1"><a xlink:href="http://trips.ihmc.us/lexicon/data/ONT::SA_TELL.xml" xlink:title="&lt;font color=&quot;green&quot;&gt;&lt;br /&gt;&lt;/font&gt; &lt;font color=&quot;black&quot;&gt;SA_TELL&lt;/font&gt; &lt;font color=&quot;green&quot;&gt;&lt;br /&gt;&lt;/font&gt; &lt;font color=&quot;red&quot;&gt;SPEECHACT&lt;/font&gt; &lt;font color=&quot;blue&quot;&gt;* &lt;/font&gt; &lt;font color=&quot;green&quot;&gt;&lt;br /&gt; &lt;/font&gt;">
<text text-anchor="start" x="87.55" y="-322.6" font-family="Work Sans" font-size="8.00"> </text>
<text text-anchor="start" x="89.77" y="-322.6" font-family="Work Sans" font-size="8.00">SA_TELL</text>
<text text-anchor="start" x="124.01" y="-322.6" font-family="Work Sans" font-size="8.00"> </text>
<text text-anchor="start" x="76.44" y="-314.6" font-family="Work Sans" font-size="8.00"> </text>
<text text-anchor="start" x="78.66" y="-314.6" font-family="Work Sans" font-size="8.00" fill="red">SPEECHACT</text>
<text text-anchor="start" x="127.56" y="-314.6" font-family="Work Sans" font-size="8.00"> </text>
<text text-anchor="start" x="129.78" y="-314.6" font-family="Work Sans" font-size="8.00" fill="blue">* </text>
<text text-anchor="start" x="135.12" y="-314.6" font-family="Work Sans" font-size="8.00"> </text>
<text text-anchor="start" x="105.78" y="-306.6" font-family="Work Sans" font-size="8.00" fill="green"> </text>
</a>
</g>
</g>
<!-- V126236 -->
<g id="node2" class="node">
<title>V126236</title>
<g id="a_node2"><a xlink:href="http://trips.ihmc.us/lexicon/data/ONT::APPEAR.xml" xlink:title="&lt;font color=&quot;green&quot;&gt;&lt;br /&gt;&lt;/font&gt; &lt;font color=&quot;black&quot;&gt;APPEAR&lt;/font&gt; &lt;font color=&quot;green&quot;&gt;&lt;br /&gt;&lt;/font&gt; &lt;font color=&quot;red&quot;&gt;F&lt;/font&gt; &lt;font color=&quot;blue&quot;&gt;APPEAR&lt;/font&gt; &lt;font color=&quot;green&quot;&gt;&lt;br /&gt; &lt;/font&gt;">
<text text-anchor="start" x="88.44" y="-246.6" font-family="Work Sans" font-size="8.00"> </text>
<text text-anchor="start" x="90.66" y="-246.6" font-family="Work Sans" font-size="8.00">APPEAR</text>
<text text-anchor="start" x="123.12" y="-246.6" font-family="Work Sans" font-size="8.00"> </text>
<text text-anchor="start" x="84.88" y="-238.6" font-family="Work Sans" font-size="8.00"> </text>
<text text-anchor="start" x="87.11" y="-238.6" font-family="Work Sans" font-size="8.00" fill="red">F</text>
<text text-anchor="start" x="91.99" y="-238.6" font-family="Work Sans" font-size="8.00"> </text>
<text text-anchor="start" x="94.22" y="-238.6" font-family="Work Sans" font-size="8.00" fill="blue">APPEAR</text>
<text text-anchor="start" x="126.67" y="-238.6" font-family="Work Sans" font-size="8.00"> </text>
<text text-anchor="start" x="105.78" y="-230.6" font-family="Work Sans" font-size="8.00" fill="green"> </text>
</a>
</g>
</g>
<!-- V128536&#45;&gt;V126236 -->
<g id="edge6" class="edge">
<title>V128536&#45;&gt;V126236</title>
<path fill="none" stroke="grey" stroke-width="0.5" d="M106.89,-303.67C106.89,-292.58 106.89,-277.49 106.89,-265.38"/>
<polygon fill="grey" stroke="grey" stroke-width="0.5" points="108.64,-265.06 106.89,-260.06 105.14,-265.06 108.64,-265.06"/>
<text text-anchor="middle" x="130.6" y="-279.6" font-family="Work Sans" font-size="8.00"> CONTENT &#160;&#160;</text>
</g>
<!-- V126229 -->
<g id="node3" class="node">
<title>V126229</title>
<g id="a_node3"><a xlink:href="http://trips.ihmc.us/lexicon/data/ONT::LAND-VEHICLE.xml" xlink:title="&lt;font color=&quot;green&quot;&gt;&lt;br /&gt;&lt;/font&gt; &lt;font color=&quot;black&quot;&gt;LAND&#45;VEHICLE&lt;/font&gt; &lt;font color=&quot;green&quot;&gt;&lt;br /&gt;&lt;/font&gt; &lt;font color=&quot;red&quot;&gt;INDEF&#45;SET&lt;/font&gt; &lt;font color=&quot;blue&quot;&gt;CAR&lt;/font&gt; &lt;font color=&quot;green&quot;&gt;&lt;br /&gt; &lt;/font&gt;">
<polygon fill="pink" stroke="transparent" points="65.67,-184 0.11,-184 0.11,-152 65.67,-152 65.67,-184"/>
<text text-anchor="start" x="1.55" y="-170.6" font-family="Work Sans" font-size="8.00"> </text>
<text text-anchor="start" x="3.77" y="-170.6" font-family="Work Sans" font-size="8.00">LAND&#45;VEHICLE</text>
<text text-anchor="start" x="62.01" y="-170.6" font-family="Work Sans" font-size="8.00"> </text>
<text text-anchor="start" x="0" y="-162.6" font-family="Work Sans" font-size="8.00"> </text>
<text text-anchor="start" x="2.22" y="-162.6" font-family="Work Sans" font-size="8.00" fill="red">INDEF&#45;SET</text>
<text text-anchor="start" x="44.45" y="-162.6" font-family="Work Sans" font-size="8.00"> </text>
<text text-anchor="start" x="46.67" y="-162.6" font-family="Work Sans" font-size="8.00" fill="blue">CAR</text>
<text text-anchor="start" x="63.56" y="-162.6" font-family="Work Sans" font-size="8.00"> </text>
<text text-anchor="start" x="31.78" y="-154.6" font-family="Work Sans" font-size="8.00" fill="green"> </text>
</a>
</g>
</g>
<!-- V126236&#45;&gt;V126229 -->
<g id="edge7" class="edge">
<title>V126236&#45;&gt;V126229</title>
<path fill="none" stroke="grey" stroke-width="0.5" d="M84.85,-235.02C72.61,-229.61 57.94,-221.36 48.21,-210 43.16,-204.09 39.69,-196.35 37.36,-189.19"/>
<polygon fill="grey" stroke="grey" stroke-width="0.5" points="39.02,-188.65 35.91,-184.35 35.67,-189.65 39.02,-188.65"/>
<text text-anchor="middle" x="74.23" y="-203.6" font-family="Work Sans" font-size="8.00"> AFFECTED &#160;&#160;</text>
</g>
<!-- V126252 -->
<g id="node4" class="node">
<title>V126252</title>
<g id="a_node4"><a xlink:href="http://trips.ihmc.us/lexicon/data/ONT::TIME-IN-REL.xml" xlink:title="&lt;font color=&quot;green&quot;&gt;&lt;br /&gt;&lt;/font&gt; &lt;font color=&quot;black&quot;&gt;TIME&#45;IN&#45;REL&lt;/font&gt; &lt;font color=&quot;green&quot;&gt;&lt;br /&gt;&lt;/font&gt; &lt;font color=&quot;red&quot;&gt;F&lt;/font&gt; &lt;font color=&quot;blue&quot;&gt;IN&lt;/font&gt; &lt;font color=&quot;green&quot;&gt;&lt;br /&gt; &lt;/font&gt;">
<polygon fill="pink" stroke="transparent" stroke-width="0.5" points="107.44,-152 133.89,-152 133.89,-184 107.44,-184 107.44,-152"/>
<polygon fill="lightblue" stroke="transparent" stroke-width="0.5" points="133.89,-152 160.34,-152 160.34,-184 133.89,-184 133.89,-152"/>
<polygon fill="none" stroke="transparent" points="160.34,-184 107.44,-184 107.44,-152 160.34,-152 160.34,-184"/>
<text text-anchor="start" x="107.67" y="-170.6" font-family="Work Sans" font-size="8.00"> </text>
<text text-anchor="start" x="109.89" y="-170.6" font-family="Work Sans" font-size="8.00">TIME&#45;IN&#45;REL</text>
<text text-anchor="start" x="157.89" y="-170.6" font-family="Work Sans" font-size="8.00"> </text>
<text text-anchor="start" x="124.11" y="-162.6" font-family="Work Sans" font-size="8.00"> </text>
<text text-anchor="start" x="126.34" y="-162.6" font-family="Work Sans" font-size="8.00" fill="red">F</text>
<text text-anchor="start" x="131.22" y="-162.6" font-family="Work Sans" font-size="8.00"> </text>
<text text-anchor="start" x="133.45" y="-162.6" font-family="Work Sans" font-size="8.00" fill="blue">IN</text>
<text text-anchor="start" x="141.45" y="-162.6" font-family="Work Sans" font-size="8.00"> </text>
<text text-anchor="start" x="132.78" y="-154.6" font-family="Work Sans" font-size="8.00" fill="green"> </text>
</a>
</g>
</g>
<!-- V126236&#45;&gt;V126252 -->
<g id="edge3" class="edge">
<title>V126236&#45;&gt;V126252</title>
<path fill="none" stroke="red" stroke-width="0.5" d="M101.8,-227.91C100.41,-219.87 99.9,-210.17 103.1,-201.64 105.15,-196.37 108.29,-191.59 111.88,-187.24"/>
<path fill="none" stroke="blue" stroke-width="0.5" d="M103.77,-227.56C102.4,-219.76 101.9,-210.07 104.96,-202.36 106.82,-197.47 109.96,-192.69 113.42,-188.51"/>
<polygon fill="red" stroke="red" stroke-width="0.5" points="113.98,-189.02 115.97,-184.11 111.35,-186.7 113.98,-189.02"/>
<text text-anchor="middle" x="118.82" y="-203.6" font-family="Work Sans" font-size="8.00"> TIME &#160;&#160;</text>
</g>
<!-- V126252&#45;&gt;V126236 -->
<g id="edge1" class="edge">
<title>V126252&#45;&gt;V126236</title>
<path fill="none" stroke="grey" stroke-width="0.5" d="M137.48,-184.25C138.65,-192.17 138.96,-201.86 135.89,-210 134.03,-214.92 131.07,-219.59 127.73,-223.78"/>
<polygon fill="grey" stroke="grey" stroke-width="0.5" points="126.21,-222.87 124.3,-227.81 128.88,-225.14 126.21,-222.87"/>
<text text-anchor="middle" x="156.45" y="-203.6" font-family="Work Sans" font-size="8.00"> FIGURE &#160;&#160;</text>
</g>
<!-- V126321 -->
<g id="node5" class="node">
<title>V126321</title>
<g id="a_node5"><a xlink:href="http://trips.ihmc.us/lexicon/data/ONT::EVENING.xml" xlink:title="&lt;font color=&quot;green&quot;&gt;&lt;br /&gt;&lt;/font&gt; &lt;font color=&quot;black&quot;&gt;EVENING&lt;/font&gt; &lt;font color=&quot;green&quot;&gt;&lt;br /&gt;&lt;/font&gt; &lt;font color=&quot;red&quot;&gt;THE&lt;/font&gt; &lt;font color=&quot;blue&quot;&gt;EVENING&lt;/font&gt; &lt;font color=&quot;green&quot;&gt;&lt;br /&gt; &lt;/font&gt;">
<polygon fill="pink" stroke="transparent" stroke-width="0.5" points="104.71,-76 133.89,-76 133.89,-108 104.71,-108 104.71,-76"/>
<polygon fill="lightblue" stroke="transparent" stroke-width="0.5" points="133.89,-76 163.07,-76 163.07,-108 133.89,-108 133.89,-76"/>
<polygon fill="none" stroke="transparent" points="163.07,-108 104.71,-108 104.71,-76 163.07,-76 163.07,-108"/>
<text text-anchor="start" x="113.66" y="-94.6" font-family="Work Sans" font-size="8.00"> </text>
<text text-anchor="start" x="115.89" y="-94.6" font-family="Work Sans" font-size="8.00">EVENING</text>
<text text-anchor="start" x="151.89" y="-94.6" font-family="Work Sans" font-size="8.00"> </text>
<text text-anchor="start" x="104.55" y="-86.6" font-family="Work Sans" font-size="8.00"> </text>
<text text-anchor="start" x="106.78" y="-86.6" font-family="Work Sans" font-size="8.00" fill="red">THE</text>
<text text-anchor="start" x="122.78" y="-86.6" font-family="Work Sans" font-size="8.00"> </text>
<text text-anchor="start" x="125" y="-86.6" font-family="Work Sans" font-size="8.00" fill="blue">EVENING</text>
<text text-anchor="start" x="161.01" y="-86.6" font-family="Work Sans" font-size="8.00"> </text>
<text text-anchor="start" x="132.78" y="-78.6" font-family="Work Sans" font-size="8.00" fill="green"> </text>
</a>
</g>
</g>
<!-- V126252&#45;&gt;V126321 -->
<g id="edge4" class="edge">
<title>V126252&#45;&gt;V126321</title>
<path fill="none" stroke="grey" stroke-width="0.5" d="M133.89,-151.67C133.89,-140.58 133.89,-125.49 133.89,-113.38"/>
<polygon fill="grey" stroke="grey" stroke-width="0.5" points="135.64,-113.06 133.89,-108.06 132.14,-113.06 135.64,-113.06"/>
<text text-anchor="middle" x="156.11" y="-127.6" font-family="Work Sans" font-size="8.00"> GROUND &#160;&#160;</text>
</g>
<!-- V126317 -->
<g id="node6" class="node">
<title>V126317</title>
<g id="a_node6"><a xlink:href="http://trips.ihmc.us/lexicon/data/ONT::EARLY-IN-PROCESS.xml" xlink:title="&lt;font color=&quot;green&quot;&gt;&lt;br /&gt;&lt;/font&gt; &lt;font color=&quot;black&quot;&gt;EARLY&#45;IN&#45;PROCESS&lt;/font&gt; &lt;font color=&quot;green&quot;&gt;&lt;br /&gt;&lt;/font&gt; &lt;font color=&quot;red&quot;&gt;F&lt;/font&gt; &lt;font color=&quot;blue&quot;&gt;EARLY&lt;/font&gt; &lt;font color=&quot;green&quot;&gt;&lt;br /&gt; &lt;/font&gt;">
<text text-anchor="start" x="92.99" y="-18.6" font-family="Work Sans" font-size="8.00"> </text>
<text text-anchor="start" x="95.21" y="-18.6" font-family="Work Sans" font-size="8.00">EARLY&#45;IN&#45;PROCESS</text>
<text text-anchor="start" x="172.57" y="-18.6" font-family="Work Sans" font-size="8.00"> </text>
<text text-anchor="start" x="115.29" y="-10.6" font-family="Work Sans" font-size="8.00"> </text>
<text text-anchor="start" x="117.51" y="-10.6" font-family="Work Sans" font-size="8.00" fill="red">F</text>
<text text-anchor="start" x="122.4" y="-10.6" font-family="Work Sans" font-size="8.00"> </text>
<text text-anchor="start" x="124.62" y="-10.6" font-family="Work Sans" font-size="8.00" fill="blue">EARLY</text>
<text text-anchor="start" x="150.27" y="-10.6" font-family="Work Sans" font-size="8.00"> </text>
<text text-anchor="start" x="132.78" y="-2.6" font-family="Work Sans" font-size="8.00" fill="green"> </text>
</a>
</g>
</g>
<!-- V126321&#45;&gt;V126317 -->
<g id="edge5" class="edge">
<title>V126321&#45;&gt;V126317</title>
<path fill="none" stroke="grey" stroke-width="0.5" d="M117.34,-75.67C112.89,-70.53 108.68,-64.46 106.34,-58 103.58,-50.39 106.6,-42.82 111.51,-36.29"/>
<polygon fill="grey" stroke="grey" stroke-width="0.5" points="112.93,-37.33 114.79,-32.37 110.24,-35.08 112.93,-37.33"/>
<text text-anchor="middle" x="120.67" y="-51.6" font-family="Work Sans" font-size="8.00"> MOD &#160;&#160;</text>
</g>
<!-- V126317&#45;&gt;V126321 -->
<g id="edge2" class="edge">
<title>V126317&#45;&gt;V126321</title>
<path fill="none" stroke="grey" stroke-width="0.5" d="M136.52,-32.17C137.56,-39.89 138.41,-49.43 137.89,-58 137.64,-62.13 137.22,-66.54 136.74,-70.74"/>
<polygon fill="grey" stroke="grey" stroke-width="0.5" points="134.97,-70.75 136.11,-75.92 138.45,-71.17 134.97,-70.75"/>
<text text-anchor="middle" x="157.45" y="-51.6" font-family="Work Sans" font-size="8.00"> FIGURE &#160;&#160;</text>
</g>
</g>
</svg>
