<?xml version="1.0" encoding="UTF-8" standalone="no"?>
<!DOCTYPE svg PUBLIC "-//W3C//DTD SVG 1.1//EN"
 "http://www.w3.org/Graphics/SVG/1.1/DTD/svg11.dtd">
<!-- Generated by graphviz version 2.43.0 (0)
 -->
<!-- Title: graph Pages: 1 -->
<svg width="311pt" height="368pt"
 viewBox="0.00 0.00 311.28 368.00" xmlns="http://www.w3.org/2000/svg" xmlns:xlink="http://www.w3.org/1999/xlink">
<g id="graph0" class="graph" transform="scale(1 1) rotate(0) translate(4 364)">
<title>graph</title>
<polygon fill="white" stroke="transparent" points="-4,4 -4,-364 307.28,-364 307.28,4 -4,4"/>
<!-- V267729 -->
<g id="node1" class="node">
<title>V267729</title>
<g id="a_node1"><a xlink:href="http://trips.ihmc.us/lexicon/data/ONT::SA_TELL.xml" xlink:title="&lt;font color=&quot;green&quot;&gt;&lt;br /&gt;&lt;/font&gt; &lt;font color=&quot;black&quot;&gt;SA_TELL&lt;/font&gt; &lt;font color=&quot;green&quot;&gt;&lt;br /&gt;&lt;/font&gt; &lt;font color=&quot;red&quot;&gt;SPEECHACT&lt;/font&gt; &lt;font color=&quot;blue&quot;&gt;* &lt;/font&gt; &lt;font color=&quot;green&quot;&gt;&lt;br /&gt; &lt;/font&gt;">
<text text-anchor="start" x="71.58" y="-346.6" font-family="Work Sans" font-size="8.00"> </text>
<text text-anchor="start" x="73.8" y="-346.6" font-family="Work Sans" font-size="8.00">SA_TELL</text>
<text text-anchor="start" x="108.04" y="-346.6" font-family="Work Sans" font-size="8.00"> </text>
<text text-anchor="start" x="60.47" y="-338.6" font-family="Work Sans" font-size="8.00"> </text>
<text text-anchor="start" x="62.7" y="-338.6" font-family="Work Sans" font-size="8.00" fill="red">SPEECHACT</text>
<text text-anchor="start" x="111.59" y="-338.6" font-family="Work Sans" font-size="8.00"> </text>
<text text-anchor="start" x="113.82" y="-338.6" font-family="Work Sans" font-size="8.00" fill="blue">* </text>
<text text-anchor="start" x="119.15" y="-338.6" font-family="Work Sans" font-size="8.00"> </text>
<text text-anchor="start" x="89.81" y="-330.6" font-family="Work Sans" font-size="8.00" fill="green"> </text>
</a>
</g>
</g>
<!-- V266722 -->
<g id="node2" class="node">
<title>V266722</title>
<g id="a_node2"><a xlink:href="http://trips.ihmc.us/lexicon/data/ONT::BODY-MOVEMENT-PLACE.xml" xlink:title="&lt;font color=&quot;green&quot;&gt;&lt;br /&gt;&lt;/font&gt; &lt;font color=&quot;black&quot;&gt;BODY&#45;MOVEMENT&#45;PLACE&lt;/font&gt; &lt;font color=&quot;green&quot;&gt;&lt;br /&gt;&lt;/font&gt; &lt;font color=&quot;red&quot;&gt;F&lt;/font&gt; &lt;font color=&quot;blue&quot;&gt;SIT&lt;/font&gt; &lt;font color=&quot;green&quot;&gt;&lt;br /&gt;&lt;/font&gt; &lt;font color=&quot;green&quot;&gt;sit%2:38:00::&lt;/font&gt; &lt;font color=&quot;green&quot;&gt;&lt;br /&gt; &lt;/font&gt;">
<polygon fill="pink" stroke="transparent" stroke-width="0.5" points="39.19,-244 90.92,-244 90.92,-284 39.19,-284 39.19,-244"/>
<polygon fill="lightblue" stroke="transparent" stroke-width="0.5" points="90.92,-244 142.65,-244 142.65,-284 90.92,-284 90.92,-244"/>
<polygon fill="none" stroke="transparent" points="142.65,-284 39.19,-284 39.19,-244 142.65,-244 142.65,-284"/>
<text text-anchor="start" x="39.06" y="-270.6" font-family="Work Sans" font-size="8.00"> </text>
<text text-anchor="start" x="41.28" y="-270.6" font-family="Work Sans" font-size="8.00">BODY&#45;MOVEMENT&#45;PLACE</text>
<text text-anchor="start" x="140.57" y="-270.6" font-family="Work Sans" font-size="8.00"> </text>
<text text-anchor="start" x="78.92" y="-262.6" font-family="Work Sans" font-size="8.00"> </text>
<text text-anchor="start" x="81.15" y="-262.6" font-family="Work Sans" font-size="8.00" fill="red">F</text>
<text text-anchor="start" x="86.03" y="-262.6" font-family="Work Sans" font-size="8.00"> </text>
<text text-anchor="start" x="88.26" y="-262.6" font-family="Work Sans" font-size="8.00" fill="blue">SIT</text>
<text text-anchor="start" x="100.7" y="-262.6" font-family="Work Sans" font-size="8.00"> </text>
<text text-anchor="start" x="65.58" y="-254.6" font-family="Work Sans" font-size="8.00"> </text>
<text text-anchor="start" x="67.8" y="-254.6" font-family="Work Sans" font-size="8.00" fill="green">sit%2:38:00::</text>
<text text-anchor="start" x="114.05" y="-254.6" font-family="Work Sans" font-size="8.00"> </text>
<text text-anchor="start" x="89.81" y="-246.6" font-family="Work Sans" font-size="8.00" fill="green"> </text>
</a>
</g>
</g>
<!-- V267729&#45;&gt;V266722 -->
<g id="edge7" class="edge">
<title>V267729&#45;&gt;V266722</title>
<path fill="none" stroke="grey" stroke-width="0.5" d="M90.92,-327.96C90.92,-317.04 90.92,-302.02 90.92,-289.39"/>
<polygon fill="grey" stroke="grey" stroke-width="0.5" points="92.67,-289.14 90.92,-284.14 89.17,-289.14 92.67,-289.14"/>
<text text-anchor="middle" x="114.63" y="-303.6" font-family="Work Sans" font-size="8.00"> CONTENT &#160;&#160;</text>
</g>
<!-- V266709 -->
<g id="node3" class="node">
<title>V266709</title>
<g id="a_node3"><a xlink:href="http://trips.ihmc.us/lexicon/data/ONT::MALE-PERSON.xml" xlink:title="&lt;font color=&quot;green&quot;&gt;&lt;br /&gt;&lt;/font&gt; &lt;font color=&quot;black&quot;&gt;MALE&#45;PERSON&lt;/font&gt; &lt;font color=&quot;green&quot;&gt;&lt;br /&gt;&lt;/font&gt; &lt;font color=&quot;red&quot;&gt;THE&lt;/font&gt; &lt;font color=&quot;blue&quot;&gt;RICHARD&lt;/font&gt; &lt;font color=&quot;green&quot;&gt;&lt;br /&gt;&lt;/font&gt; &lt;font color=&quot;green&quot;&gt;man%1:18:00&lt;/font&gt; &lt;font color=&quot;green&quot;&gt;&lt;br /&gt; &lt;/font&gt;">
<text text-anchor="start" x="43.58" y="-110.6" font-family="Work Sans" font-size="8.00"> </text>
<text text-anchor="start" x="45.81" y="-110.6" font-family="Work Sans" font-size="8.00">MALE&#45;PERSON</text>
<text text-anchor="start" x="104.04" y="-110.6" font-family="Work Sans" font-size="8.00"> </text>
<text text-anchor="start" x="45.37" y="-102.6" font-family="Work Sans" font-size="8.00"> </text>
<text text-anchor="start" x="47.59" y="-102.6" font-family="Work Sans" font-size="8.00" fill="red">THE</text>
<text text-anchor="start" x="63.59" y="-102.6" font-family="Work Sans" font-size="8.00"> </text>
<text text-anchor="start" x="65.81" y="-102.6" font-family="Work Sans" font-size="8.00" fill="blue">RICHARD</text>
<text text-anchor="start" x="102.26" y="-102.6" font-family="Work Sans" font-size="8.00"> </text>
<text text-anchor="start" x="48.02" y="-94.6" font-family="Work Sans" font-size="8.00"> </text>
<text text-anchor="start" x="50.24" y="-94.6" font-family="Work Sans" font-size="8.00" fill="green">man%1:18:00</text>
<text text-anchor="start" x="99.61" y="-94.6" font-family="Work Sans" font-size="8.00"> </text>
<text text-anchor="start" x="73.81" y="-86.6" font-family="Work Sans" font-size="8.00" fill="green"> </text>
</a>
</g>
</g>
<!-- V266722&#45;&gt;V266709 -->
<g id="edge12" class="edge">
<title>V266722&#45;&gt;V266709</title>
<path fill="none" stroke="grey" stroke-width="0.5" d="M44.8,-243.84C27.58,-233.77 10.62,-219.41 4.05,-200 -0.51,-186.53 -1.77,-180.97 4.05,-168 11.45,-151.53 25.51,-137.61 39.17,-127.08"/>
<polygon fill="grey" stroke="grey" stroke-width="0.5" points="40.44,-128.32 43.39,-123.92 38.34,-125.52 40.44,-128.32"/>
<text text-anchor="middle" x="22.86" y="-181.6" font-family="Work Sans" font-size="8.00"> AGENT &#160;&#160;</text>
</g>
<!-- V266760 -->
<g id="node4" class="node">
<title>V266760</title>
<g id="a_node4"><a xlink:href="http://trips.ihmc.us/lexicon/data/ONT::DIRECTION-DOWN.xml" xlink:title="&lt;font color=&quot;green&quot;&gt;&lt;br /&gt;&lt;/font&gt; &lt;font color=&quot;black&quot;&gt;DIRECTION&#45;DOWN&lt;/font&gt; &lt;font color=&quot;green&quot;&gt;&lt;br /&gt;&lt;/font&gt; &lt;font color=&quot;red&quot;&gt;F&lt;/font&gt; &lt;font color=&quot;blue&quot;&gt;DOWN&lt;/font&gt; &lt;font color=&quot;green&quot;&gt;&lt;br /&gt; &lt;/font&gt;">
<text text-anchor="start" x="48.71" y="-186.6" font-family="Work Sans" font-size="8.00"> </text>
<text text-anchor="start" x="50.93" y="-186.6" font-family="Work Sans" font-size="8.00">DIRECTION&#45;DOWN</text>
<text text-anchor="start" x="122.92" y="-186.6" font-family="Work Sans" font-size="8.00"> </text>
<text text-anchor="start" x="68.48" y="-178.6" font-family="Work Sans" font-size="8.00"> </text>
<text text-anchor="start" x="70.71" y="-178.6" font-family="Work Sans" font-size="8.00" fill="red">F</text>
<text text-anchor="start" x="75.59" y="-178.6" font-family="Work Sans" font-size="8.00"> </text>
<text text-anchor="start" x="77.81" y="-178.6" font-family="Work Sans" font-size="8.00" fill="blue">DOWN</text>
<text text-anchor="start" x="103.14" y="-178.6" font-family="Work Sans" font-size="8.00"> </text>
<text text-anchor="start" x="85.81" y="-170.6" font-family="Work Sans" font-size="8.00" fill="green"> </text>
</a>
</g>
</g>
<!-- V266722&#45;&gt;V266760 -->
<g id="edge9" class="edge">
<title>V266722&#45;&gt;V266760</title>
<path fill="none" stroke="red" d="M46.11,-243.97C39.34,-239.11 33.27,-233.17 29.2,-226 22.83,-214.76 31.42,-205.84 43.76,-199.23"/>
<polygon fill="red" stroke="red" points="44.76,-200.69 48.45,-196.9 43.2,-197.55 44.76,-200.69"/>
<text text-anchor="middle" x="49.79" y="-219.6" font-family="Work Sans" font-size="8.00"> RESULT &#160;&#160;</text>
</g>
<!-- V266722&#45;&gt;V266760 -->
<g id="edge10" class="edge">
<title>V266722&#45;&gt;V266760</title>
<path fill="none" stroke="blue" d="M89.94,-243.72C89.34,-232.06 88.58,-217.21 87.97,-205.36"/>
<polygon fill="blue" stroke="blue" points="89.7,-205.06 87.7,-200.15 86.21,-205.24 89.7,-205.06"/>
<text text-anchor="middle" x="90.04" y="-219.6" font-family="Work Sans" font-size="8.00">.</text>
</g>
<!-- V266780 -->
<g id="node5" class="node">
<title>V266780</title>
<g id="a_node5"><a xlink:href="http://trips.ihmc.us/lexicon/data/ONT::AT-LOC.xml" xlink:title="&lt;font color=&quot;green&quot;&gt;&lt;br /&gt;&lt;/font&gt; &lt;font color=&quot;black&quot;&gt;AT&#45;LOC&lt;/font&gt; &lt;font color=&quot;green&quot;&gt;&lt;br /&gt;&lt;/font&gt; &lt;font color=&quot;red&quot;&gt;F&lt;/font&gt; &lt;font color=&quot;blue&quot;&gt;AT&lt;/font&gt; &lt;font color=&quot;green&quot;&gt;&lt;br /&gt; &lt;/font&gt;">
<text text-anchor="start" x="154.55" y="-186.6" font-family="Work Sans" font-size="8.00"> </text>
<text text-anchor="start" x="156.77" y="-186.6" font-family="Work Sans" font-size="8.00">AT&#45;LOC</text>
<text text-anchor="start" x="185.08" y="-186.6" font-family="Work Sans" font-size="8.00"> </text>
<text text-anchor="start" x="160.33" y="-178.6" font-family="Work Sans" font-size="8.00"> </text>
<text text-anchor="start" x="162.55" y="-178.6" font-family="Work Sans" font-size="8.00" fill="red">F</text>
<text text-anchor="start" x="167.44" y="-178.6" font-family="Work Sans" font-size="8.00"> </text>
<text text-anchor="start" x="169.66" y="-178.6" font-family="Work Sans" font-size="8.00" fill="blue">AT</text>
<text text-anchor="start" x="179.29" y="-178.6" font-family="Work Sans" font-size="8.00"> </text>
<text text-anchor="start" x="169.81" y="-170.6" font-family="Work Sans" font-size="8.00" fill="green"> </text>
</a>
</g>
</g>
<!-- V266722&#45;&gt;V266780 -->
<g id="edge1" class="edge">
<title>V266722&#45;&gt;V266780</title>
<path fill="none" stroke="red" d="M99.26,-243.61C103.58,-235.08 109.46,-225.35 116.61,-218 126.04,-208.31 138.88,-200.34 149.71,-194.66"/>
<polygon fill="red" stroke="red" points="150.55,-196.2 154.21,-192.37 148.96,-193.08 150.55,-196.2"/>
<text text-anchor="middle" x="139.08" y="-219.6" font-family="Work Sans" font-size="8.00"> RESULT1 &#160;&#160;</text>
</g>
<!-- V266722&#45;&gt;V266780 -->
<g id="edge6" class="edge">
<title>V266722&#45;&gt;V266780</title>
<path fill="none" stroke="blue" d="M140.15,-243.94C147.99,-239.08 155.35,-233.16 160.92,-226 165.45,-220.2 167.96,-212.64 169.34,-205.6"/>
<polygon fill="blue" stroke="blue" points="171.12,-205.56 170.2,-200.35 167.67,-205 171.12,-205.56"/>
<text text-anchor="middle" x="166.04" y="-219.6" font-family="Work Sans" font-size="8.00">.</text>
</g>
<!-- V266760&#45;&gt;V266709 -->
<g id="edge4" class="edge">
<title>V266760&#45;&gt;V266709</title>
<path fill="none" stroke="blue" d="M77.06,-167.83C74.09,-162.43 71.21,-156.15 69.7,-150 68.06,-143.3 68.15,-135.92 68.99,-129.1"/>
<polygon fill="blue" stroke="blue" points="70.74,-129.22 69.75,-124.02 67.28,-128.7 70.74,-129.22"/>
<text text-anchor="middle" x="71.04" y="-143.6" font-family="Work Sans" font-size="8.00">.</text>
</g>
<!-- V266760&#45;&gt;V266709 -->
<g id="edge11" class="edge">
<title>V266760&#45;&gt;V266709</title>
<path fill="none" stroke="red" d="M84.61,-167.96C82.93,-157.04 80.62,-142.02 78.68,-129.39"/>
<polygon fill="red" stroke="red" points="80.36,-128.82 77.87,-124.14 76.9,-129.35 80.36,-128.82"/>
<text text-anchor="middle" x="101.48" y="-143.6" font-family="Work Sans" font-size="8.00"> FIGURE &#160;&#160;</text>
</g>
<!-- V266780&#45;&gt;V266709 -->
<g id="edge5" class="edge">
<title>V266780&#45;&gt;V266709</title>
<path fill="none" stroke="grey" stroke-width="0.5" d="M154.63,-167.83C145.97,-159.93 135.05,-150.23 124.92,-142 118.93,-137.13 112.39,-132.09 106.07,-127.36"/>
<polygon fill="grey" stroke="grey" stroke-width="0.5" points="106.79,-125.72 101.73,-124.15 104.7,-128.53 106.79,-125.72"/>
<text text-anchor="middle" x="153.48" y="-143.6" font-family="Work Sans" font-size="8.00"> FIGURE &#160;&#160;</text>
</g>
<!-- V266822 -->
<g id="node6" class="node">
<title>V266822</title>
<g id="a_node6"><a xlink:href="http://trips.ihmc.us/lexicon/data/ONT::FUNCTIONAL-PHYS-OBJECT.xml" xlink:title="&lt;font color=&quot;green&quot;&gt;&lt;br /&gt;&lt;/font&gt; &lt;font color=&quot;black&quot;&gt;FUNCTIONAL&#45;PHYS&#45;OBJECT&lt;/font&gt; &lt;font color=&quot;green&quot;&gt;&lt;br /&gt;&lt;/font&gt; &lt;font color=&quot;red&quot;&gt;THE&lt;/font&gt; &lt;font color=&quot;blue&quot;&gt;KIT&lt;/font&gt; &lt;font color=&quot;green&quot;&gt;&lt;br /&gt;&lt;/font&gt; &lt;font color=&quot;green&quot;&gt;instrumentality%1:06:00&lt;/font&gt; &lt;font color=&quot;green&quot;&gt;&lt;br /&gt; &lt;/font&gt;">
<text text-anchor="start" x="153.81" y="-110.6" font-family="Work Sans" font-size="8.00"> </text>
<text text-anchor="start" x="156.03" y="-110.6" font-family="Work Sans" font-size="8.00">FUNCTIONAL&#45;PHYS&#45;OBJECT</text>
<text text-anchor="start" x="265.82" y="-110.6" font-family="Work Sans" font-size="8.00"> </text>
<text text-anchor="start" x="193.37" y="-102.6" font-family="Work Sans" font-size="8.00"> </text>
<text text-anchor="start" x="195.59" y="-102.6" font-family="Work Sans" font-size="8.00" fill="red">THE</text>
<text text-anchor="start" x="211.59" y="-102.6" font-family="Work Sans" font-size="8.00"> </text>
<text text-anchor="start" x="213.81" y="-102.6" font-family="Work Sans" font-size="8.00" fill="blue">KIT</text>
<text text-anchor="start" x="226.26" y="-102.6" font-family="Work Sans" font-size="8.00"> </text>
<text text-anchor="start" x="166.01" y="-94.6" font-family="Work Sans" font-size="8.00"> </text>
<text text-anchor="start" x="168.23" y="-94.6" font-family="Work Sans" font-size="8.00" fill="green">instrumentality%1:06:00</text>
<text text-anchor="start" x="253.61" y="-94.6" font-family="Work Sans" font-size="8.00"> </text>
<text text-anchor="start" x="209.81" y="-86.6" font-family="Work Sans" font-size="8.00" fill="green"> </text>
</a>
</g>
</g>
<!-- V266780&#45;&gt;V266822 -->
<g id="edge8" class="edge">
<title>V266780&#45;&gt;V266822</title>
<path fill="none" stroke="grey" stroke-width="0.5" d="M179.31,-167.96C182.39,-162.35 185.87,-155.91 188.92,-150 192.43,-143.22 196.11,-135.8 199.45,-128.98"/>
<polygon fill="grey" stroke="grey" stroke-width="0.5" points="201.08,-129.63 201.69,-124.36 197.93,-128.1 201.08,-129.63"/>
<text text-anchor="middle" x="214.15" y="-143.6" font-family="Work Sans" font-size="8.00"> GROUND &#160;&#160;</text>
</g>
<!-- V266798 -->
<g id="node7" class="node">
<title>V266798</title>
<g id="a_node7"><a xlink:href="http://trips.ihmc.us/lexicon/data/ONT::MUSICAL-INSTRUMENT.xml" xlink:title="&lt;font color=&quot;green&quot;&gt;&lt;br /&gt;&lt;/font&gt; &lt;font color=&quot;black&quot;&gt;MUSICAL&#45;INSTRUMENT&lt;/font&gt; &lt;font color=&quot;green&quot;&gt;&lt;br /&gt;&lt;/font&gt; &lt;font color=&quot;red&quot;&gt;KIND&lt;/font&gt; &lt;font color=&quot;blue&quot;&gt;DRUM&lt;/font&gt; &lt;font color=&quot;green&quot;&gt;&lt;br /&gt;&lt;/font&gt; &lt;font color=&quot;green&quot;&gt;drum%1:06:00::&lt;/font&gt; &lt;font color=&quot;green&quot;&gt;&lt;br /&gt; &lt;/font&gt;">
<polygon fill="pink" stroke="transparent" stroke-width="0.5" points="115.31,0 162.92,0 162.92,-40 115.31,-40 115.31,0"/>
<polygon fill="lightblue" stroke="transparent" stroke-width="0.5" points="162.92,0 210.54,0 210.54,-40 162.92,-40 162.92,0"/>
<polygon fill="none" stroke="transparent" points="210.54,-40 115.31,-40 115.31,0 210.54,0 210.54,-40"/>
<text text-anchor="start" x="115.37" y="-26.6" font-family="Work Sans" font-size="8.00"> </text>
<text text-anchor="start" x="117.59" y="-26.6" font-family="Work Sans" font-size="8.00">MUSICAL&#45;INSTRUMENT</text>
<text text-anchor="start" x="208.26" y="-26.6" font-family="Work Sans" font-size="8.00"> </text>
<text text-anchor="start" x="138.04" y="-18.6" font-family="Work Sans" font-size="8.00"> </text>
<text text-anchor="start" x="140.26" y="-18.6" font-family="Work Sans" font-size="8.00" fill="red">KIND</text>
<text text-anchor="start" x="159.37" y="-18.6" font-family="Work Sans" font-size="8.00"> </text>
<text text-anchor="start" x="161.59" y="-18.6" font-family="Work Sans" font-size="8.00" fill="blue">DRUM</text>
<text text-anchor="start" x="185.59" y="-18.6" font-family="Work Sans" font-size="8.00"> </text>
<text text-anchor="start" x="132.46" y="-10.6" font-family="Work Sans" font-size="8.00"> </text>
<text text-anchor="start" x="134.69" y="-10.6" font-family="Work Sans" font-size="8.00" fill="green">drum%1:06:00::</text>
<text text-anchor="start" x="191.16" y="-10.6" font-family="Work Sans" font-size="8.00"> </text>
<text text-anchor="start" x="161.81" y="-2.6" font-family="Work Sans" font-size="8.00" fill="green"> </text>
</a>
</g>
</g>
<!-- V266822&#45;&gt;V266798 -->
<g id="edge3" class="edge">
<title>V266822&#45;&gt;V266798</title>
<path fill="none" stroke="grey" stroke-width="0.5" d="M191.47,-83.75C186.72,-78.34 181.97,-72.22 178.36,-66 174.59,-59.5 171.55,-51.94 169.19,-44.88"/>
<polygon fill="grey" stroke="grey" stroke-width="0.5" points="170.86,-44.34 167.67,-40.1 167.52,-45.4 170.86,-44.34"/>
<text text-anchor="middle" x="207.71" y="-59.6" font-family="Work Sans" font-size="8.00"> ASSOC&#45;WITH &#160;&#160;</text>
</g>
<!-- V266792 -->
<g id="node8" class="node">
<title>V266792</title>
<g id="a_node8"><a xlink:href="http://trips.ihmc.us/lexicon/data/ONT::MALE-PERSON.xml" xlink:title="&lt;font color=&quot;green&quot;&gt;&lt;br /&gt;&lt;/font&gt; &lt;font color=&quot;black&quot;&gt;MALE&#45;PERSON&lt;/font&gt; &lt;font color=&quot;green&quot;&gt;&lt;br /&gt;&lt;/font&gt; &lt;font color=&quot;red&quot;&gt;PRO&lt;/font&gt; &lt;font color=&quot;blue&quot;&gt;HIS&lt;/font&gt; &lt;font color=&quot;green&quot;&gt;&lt;br /&gt;&lt;/font&gt; &lt;font color=&quot;green&quot;&gt;man%1:18:00&lt;/font&gt; &lt;font color=&quot;green&quot;&gt;&lt;br /&gt; &lt;/font&gt;">
<text text-anchor="start" x="228.58" y="-26.6" font-family="Work Sans" font-size="8.00"> </text>
<text text-anchor="start" x="230.81" y="-26.6" font-family="Work Sans" font-size="8.00">MALE&#45;PERSON</text>
<text text-anchor="start" x="289.04" y="-26.6" font-family="Work Sans" font-size="8.00"> </text>
<text text-anchor="start" x="241.25" y="-18.6" font-family="Work Sans" font-size="8.00"> </text>
<text text-anchor="start" x="243.48" y="-18.6" font-family="Work Sans" font-size="8.00" fill="red">PRO</text>
<text text-anchor="start" x="260.81" y="-18.6" font-family="Work Sans" font-size="8.00"> </text>
<text text-anchor="start" x="263.04" y="-18.6" font-family="Work Sans" font-size="8.00" fill="blue">HIS</text>
<text text-anchor="start" x="276.37" y="-18.6" font-family="Work Sans" font-size="8.00"> </text>
<text text-anchor="start" x="233.02" y="-10.6" font-family="Work Sans" font-size="8.00"> </text>
<text text-anchor="start" x="235.24" y="-10.6" font-family="Work Sans" font-size="8.00" fill="green">man%1:18:00</text>
<text text-anchor="start" x="284.61" y="-10.6" font-family="Work Sans" font-size="8.00"> </text>
<text text-anchor="start" x="258.81" y="-2.6" font-family="Work Sans" font-size="8.00" fill="green"> </text>
</a>
</g>
</g>
<!-- V266822&#45;&gt;V266792 -->
<g id="edge2" class="edge">
<title>V266822&#45;&gt;V266792</title>
<path fill="none" stroke="grey" stroke-width="0.5" d="M225.88,-83.85C229.99,-78.24 234.31,-71.99 237.92,-66 241.94,-59.34 245.83,-51.85 249.2,-44.92"/>
<polygon fill="grey" stroke="grey" stroke-width="0.5" points="250.86,-45.49 251.44,-40.22 247.7,-43.98 250.86,-45.49"/>
<text text-anchor="middle" x="272.6" y="-59.6" font-family="Work Sans" font-size="8.00"> ASSOC&#45;POSS &#160;&#160;</text>
</g>
</g>
</svg>
