<?xml version="1.0" encoding="UTF-8" standalone="no"?>
<!DOCTYPE svg PUBLIC "-//W3C//DTD SVG 1.1//EN"
 "http://www.w3.org/Graphics/SVG/1.1/DTD/svg11.dtd">
<!-- Generated by graphviz version 2.43.0 (0)
 -->
<!-- Title: graph Pages: 1 -->
<svg width="245pt" height="268pt"
 viewBox="0.00 0.00 244.79 268.00" xmlns="http://www.w3.org/2000/svg" xmlns:xlink="http://www.w3.org/1999/xlink">
<g id="graph0" class="graph" transform="scale(1 1) rotate(0) translate(4 264)">
<title>graph</title>
<polygon fill="white" stroke="transparent" points="-4,4 -4,-264 240.79,-264 240.79,4 -4,4"/>
<!-- V37848 -->
<g id="node1" class="node">
<title>V37848</title>
<g id="a_node1"><a xlink:href="http://trips.ihmc.us/lexicon/data/ONT::SA_WH-QUESTION.xml" xlink:title="&lt;font color=&quot;green&quot;&gt;&lt;br /&gt;&lt;/font&gt; &lt;font color=&quot;black&quot;&gt;SA_WH&#45;QUESTION&lt;/font&gt; &lt;font color=&quot;green&quot;&gt;&lt;br /&gt;&lt;/font&gt; &lt;font color=&quot;red&quot;&gt;SPEECHACT&lt;/font&gt; &lt;font color=&quot;blue&quot;&gt;* &lt;/font&gt; &lt;font color=&quot;green&quot;&gt;&lt;br /&gt; &lt;/font&gt;">
<polygon fill="lightblue" stroke="transparent" points="194.74,-260 117.05,-260 117.05,-228 194.74,-228 194.74,-260"/>
<text text-anchor="start" x="117.22" y="-246.6" font-family="Work Sans" font-size="8.00"> </text>
<text text-anchor="start" x="119.45" y="-246.6" font-family="Work Sans" font-size="8.00">SA_WH&#45;QUESTION</text>
<text text-anchor="start" x="192.34" y="-246.6" font-family="Work Sans" font-size="8.00"> </text>
<text text-anchor="start" x="125.44" y="-238.6" font-family="Work Sans" font-size="8.00"> </text>
<text text-anchor="start" x="127.67" y="-238.6" font-family="Work Sans" font-size="8.00" fill="red">SPEECHACT</text>
<text text-anchor="start" x="176.56" y="-238.6" font-family="Work Sans" font-size="8.00"> </text>
<text text-anchor="start" x="178.79" y="-238.6" font-family="Work Sans" font-size="8.00" fill="blue">* </text>
<text text-anchor="start" x="184.12" y="-238.6" font-family="Work Sans" font-size="8.00"> </text>
<text text-anchor="start" x="154.78" y="-230.6" font-family="Work Sans" font-size="8.00" fill="green"> </text>
</a>
</g>
</g>
<!-- V37469 -->
<g id="node2" class="node">
<title>V37469</title>
<g id="a_node2"><a xlink:href="http://trips.ihmc.us/lexicon/data/ONT::EAT.xml" xlink:title="&lt;font color=&quot;green&quot;&gt;&lt;br /&gt;&lt;/font&gt; &lt;font color=&quot;black&quot;&gt;EAT&lt;/font&gt; &lt;font color=&quot;green&quot;&gt;&lt;br /&gt;&lt;/font&gt; &lt;font color=&quot;red&quot;&gt;F&lt;/font&gt; &lt;font color=&quot;blue&quot;&gt;EAT&lt;/font&gt; &lt;font color=&quot;green&quot;&gt;&lt;br /&gt; &lt;/font&gt;">
<polygon fill="lightblue" stroke="transparent" points="124.92,-184 98.87,-184 98.87,-152 124.92,-152 124.92,-184"/>
<text text-anchor="start" x="102.19" y="-170.6" font-family="Work Sans" font-size="8.00"> </text>
<text text-anchor="start" x="104.41" y="-170.6" font-family="Work Sans" font-size="8.00">EAT</text>
<text text-anchor="start" x="119.38" y="-170.6" font-family="Work Sans" font-size="8.00"> </text>
<text text-anchor="start" x="98.63" y="-162.6" font-family="Work Sans" font-size="8.00"> </text>
<text text-anchor="start" x="100.86" y="-162.6" font-family="Work Sans" font-size="8.00" fill="red">F</text>
<text text-anchor="start" x="105.74" y="-162.6" font-family="Work Sans" font-size="8.00"> </text>
<text text-anchor="start" x="107.96" y="-162.6" font-family="Work Sans" font-size="8.00" fill="blue">EAT</text>
<text text-anchor="start" x="122.93" y="-162.6" font-family="Work Sans" font-size="8.00"> </text>
<text text-anchor="start" x="110.78" y="-154.6" font-family="Work Sans" font-size="8.00" fill="green"> </text>
</a>
</g>
</g>
<!-- V37848&#45;&gt;V37469 -->
<g id="edge6" class="edge">
<title>V37848&#45;&gt;V37469</title>
<path fill="none" stroke="red" stroke-width="0.5" d="M146.78,-227.67C140.01,-216.28 130.72,-200.67 123.44,-188.41"/>
<polygon fill="red" stroke="red" stroke-width="0.5" points="124.91,-187.46 120.85,-184.06 121.9,-189.25 124.91,-187.46"/>
<text text-anchor="middle" x="158.6" y="-203.6" font-family="Work Sans" font-size="8.00"> CONTENT &#160;&#160;</text>
</g>
<!-- V37439 -->
<g id="node3" class="node">
<title>V37439</title>
<g id="a_node3"><a xlink:href="http://trips.ihmc.us/lexicon/data/ONT::PERSON.xml" xlink:title="&lt;font color=&quot;green&quot;&gt;&lt;br /&gt;&lt;/font&gt; &lt;font color=&quot;black&quot;&gt;PERSON&lt;/font&gt; &lt;font color=&quot;green&quot;&gt;&lt;br /&gt;&lt;/font&gt; &lt;font color=&quot;red&quot;&gt;WH&#45;TERM&#45;SET&lt;/font&gt; &lt;font color=&quot;blue&quot;&gt;WHO&lt;/font&gt; &lt;font color=&quot;green&quot;&gt;&lt;br /&gt; &lt;/font&gt;">
<text text-anchor="start" x="161.78" y="-18.6" font-family="Work Sans" font-size="8.00"> </text>
<text text-anchor="start" x="164" y="-18.6" font-family="Work Sans" font-size="8.00">PERSON</text>
<text text-anchor="start" x="197.79" y="-18.6" font-family="Work Sans" font-size="8.00"> </text>
<text text-anchor="start" x="139.35" y="-10.6" font-family="Work Sans" font-size="8.00"> </text>
<text text-anchor="start" x="141.57" y="-10.6" font-family="Work Sans" font-size="8.00" fill="red">WH&#45;TERM&#45;SET</text>
<text text-anchor="start" x="198.45" y="-10.6" font-family="Work Sans" font-size="8.00"> </text>
<text text-anchor="start" x="200.67" y="-10.6" font-family="Work Sans" font-size="8.00" fill="blue">WHO</text>
<text text-anchor="start" x="220.22" y="-10.6" font-family="Work Sans" font-size="8.00"> </text>
<text text-anchor="start" x="179.78" y="-2.6" font-family="Work Sans" font-size="8.00" fill="green"> </text>
</a>
</g>
</g>
<!-- V37848&#45;&gt;V37439 -->
<g id="edge3" class="edge">
<title>V37848&#45;&gt;V37439</title>
<path fill="none" stroke="red" stroke-width="0.5" d="M173.57,-227.77C178.4,-222.64 183.07,-216.54 185.89,-210 212.8,-147.8 195.23,-125.71 197.89,-58 198.03,-54.45 198.73,-53.46 197.89,-50 196.8,-45.49 194.98,-40.91 192.93,-36.65"/>
<polygon fill="red" stroke="red" stroke-width="0.5" points="194.47,-35.83 190.63,-32.18 191.36,-37.43 194.47,-35.83"/>
<text text-anchor="middle" x="218.34" y="-127.6" font-family="Work Sans" font-size="8.00"> FOCUS &#160;&#160;</text>
</g>
<!-- V37465 -->
<g id="node4" class="node">
<title>V37465</title>
<g id="a_node4"><a xlink:href="http://trips.ihmc.us/lexicon/data/ONT::FAST-FOOD.xml" xlink:title="&lt;font color=&quot;green&quot;&gt;&lt;br /&gt;&lt;/font&gt; &lt;font color=&quot;black&quot;&gt;FAST&#45;FOOD&lt;/font&gt; &lt;font color=&quot;green&quot;&gt;&lt;br /&gt;&lt;/font&gt; &lt;font color=&quot;red&quot;&gt;THE&lt;/font&gt; &lt;font color=&quot;blue&quot;&gt;PIZZA&lt;/font&gt; &lt;font color=&quot;green&quot;&gt;&lt;br /&gt; &lt;/font&gt;">
<text text-anchor="start" x="0" y="-94.6" font-family="Work Sans" font-size="8.00"> </text>
<text text-anchor="start" x="2.22" y="-94.6" font-family="Work Sans" font-size="8.00">FAST&#45;FOOD</text>
<text text-anchor="start" x="47.57" y="-94.6" font-family="Work Sans" font-size="8.00"> </text>
<text text-anchor="start" x="2.23" y="-86.6" font-family="Work Sans" font-size="8.00"> </text>
<text text-anchor="start" x="4.45" y="-86.6" font-family="Work Sans" font-size="8.00" fill="red">THE</text>
<text text-anchor="start" x="20.45" y="-86.6" font-family="Work Sans" font-size="8.00"> </text>
<text text-anchor="start" x="22.67" y="-86.6" font-family="Work Sans" font-size="8.00" fill="blue">PIZZA</text>
<text text-anchor="start" x="45.34" y="-86.6" font-family="Work Sans" font-size="8.00"> </text>
<text text-anchor="start" x="23.78" y="-78.6" font-family="Work Sans" font-size="8.00" fill="green"> </text>
</a>
</g>
</g>
<!-- V37469&#45;&gt;V37465 -->
<g id="edge2" class="edge">
<title>V37469&#45;&gt;V37465</title>
<path fill="none" stroke="grey" stroke-width="0.5" d="M98.6,-163.44C83.68,-158.85 59.55,-149.54 44.22,-134 38.47,-128.17 34.2,-120.32 31.16,-113.04"/>
<polygon fill="grey" stroke="grey" stroke-width="0.5" points="32.69,-112.15 29.25,-108.12 29.43,-113.42 32.69,-112.15"/>
<text text-anchor="middle" x="70.23" y="-127.6" font-family="Work Sans" font-size="8.00"> AFFECTED &#160;&#160;</text>
</g>
<!-- V37482 -->
<g id="node5" class="node">
<title>V37482</title>
<g id="a_node5"><a xlink:href="http://trips.ihmc.us/lexicon/data/ONT::OBJ-IN-PATH.xml" xlink:title="&lt;font color=&quot;green&quot;&gt;&lt;br /&gt;&lt;/font&gt; &lt;font color=&quot;black&quot;&gt;OBJ&#45;IN&#45;PATH&lt;/font&gt; &lt;font color=&quot;green&quot;&gt;&lt;br /&gt;&lt;/font&gt; &lt;font color=&quot;red&quot;&gt;F&lt;/font&gt; &lt;font color=&quot;blue&quot;&gt;BY&lt;/font&gt; &lt;font color=&quot;green&quot;&gt;&lt;br /&gt; &lt;/font&gt;">
<polygon fill="lightblue" stroke="transparent" points="176.89,-108 122.9,-108 122.9,-76 176.89,-76 176.89,-108"/>
<text text-anchor="start" x="123.15" y="-94.6" font-family="Work Sans" font-size="8.00"> </text>
<text text-anchor="start" x="125.37" y="-94.6" font-family="Work Sans" font-size="8.00">OBJ&#45;IN&#45;PATH</text>
<text text-anchor="start" x="174.42" y="-94.6" font-family="Work Sans" font-size="8.00"> </text>
<text text-anchor="start" x="138.78" y="-86.6" font-family="Work Sans" font-size="8.00"> </text>
<text text-anchor="start" x="141" y="-86.6" font-family="Work Sans" font-size="8.00" fill="red">F</text>
<text text-anchor="start" x="145.89" y="-86.6" font-family="Work Sans" font-size="8.00"> </text>
<text text-anchor="start" x="148.11" y="-86.6" font-family="Work Sans" font-size="8.00" fill="blue">BY</text>
<text text-anchor="start" x="158.79" y="-86.6" font-family="Work Sans" font-size="8.00"> </text>
<text text-anchor="start" x="148.78" y="-78.6" font-family="Work Sans" font-size="8.00" fill="green"> </text>
</a>
</g>
</g>
<!-- V37469&#45;&gt;V37482 -->
<g id="edge1" class="edge">
<title>V37469&#45;&gt;V37482</title>
<path fill="none" stroke="red" stroke-width="0.5" d="M102.39,-151.99C98.59,-143.96 96.01,-134.08 100.34,-126 104.46,-118.3 111.26,-112.09 118.52,-107.23"/>
<polygon fill="red" stroke="red" stroke-width="0.5" points="119.77,-108.51 123.08,-104.37 117.91,-105.54 119.77,-108.51"/>
<text text-anchor="middle" x="114.67" y="-127.6" font-family="Work Sans" font-size="8.00"> MOD &#160;&#160;</text>
</g>
<!-- V37482&#45;&gt;V37469 -->
<g id="edge4" class="edge">
<title>V37482&#45;&gt;V37469</title>
<path fill="none" stroke="red" stroke-width="0.5" d="M142.16,-108.06C136.4,-119.28 128.48,-134.71 122.18,-146.97"/>
<polygon fill="red" stroke="red" stroke-width="0.5" points="120.5,-146.42 119.77,-151.67 123.61,-148.02 120.5,-146.42"/>
<text text-anchor="middle" x="151.45" y="-127.6" font-family="Work Sans" font-size="8.00"> FIGURE &#160;&#160;</text>
</g>
<!-- V37482&#45;&gt;V37439 -->
<g id="edge5" class="edge">
<title>V37482&#45;&gt;V37439</title>
<path fill="none" stroke="red" stroke-width="0.5" d="M149.07,-75.69C149.17,-67.75 150.13,-58.06 153.45,-50 155.45,-45.14 158.43,-40.46 161.69,-36.22"/>
<polygon fill="red" stroke="red" stroke-width="0.5" points="163.22,-37.11 165.03,-32.14 160.51,-34.9 163.22,-37.11"/>
<text text-anchor="middle" x="175.12" y="-51.6" font-family="Work Sans" font-size="8.00"> GROUND &#160;&#160;</text>
</g>
</g>
</svg>
