<?xml version="1.0" encoding="UTF-8" standalone="no"?>
<!DOCTYPE svg PUBLIC "-//W3C//DTD SVG 1.1//EN"
 "http://www.w3.org/Graphics/SVG/1.1/DTD/svg11.dtd">
<!-- Generated by graphviz version 2.43.0 (0)
 -->
<!-- Title: graph Pages: 1 -->
<svg width="240pt" height="368pt"
 viewBox="0.00 0.00 239.79 368.00" xmlns="http://www.w3.org/2000/svg" xmlns:xlink="http://www.w3.org/1999/xlink">
<g id="graph0" class="graph" transform="scale(1 1) rotate(0) translate(4 364)">
<title>graph</title>
<polygon fill="white" stroke="transparent" points="-4,4 -4,-364 235.79,-364 235.79,4 -4,4"/>
<!-- V499390 -->
<g id="node1" class="node">
<title>V499390</title>
<g id="a_node1"><a xlink:href="http://trips.ihmc.us/lexicon/data/ONT::SA_TELL.xml" xlink:title="&lt;font color=&quot;green&quot;&gt;&lt;br /&gt;&lt;/font&gt; &lt;font color=&quot;black&quot;&gt;SA_TELL&lt;/font&gt; &lt;font color=&quot;green&quot;&gt;&lt;br /&gt;&lt;/font&gt; &lt;font color=&quot;red&quot;&gt;SPEECHACT&lt;/font&gt; &lt;font color=&quot;blue&quot;&gt;* &lt;/font&gt; &lt;font color=&quot;green&quot;&gt;&lt;br /&gt; &lt;/font&gt;">
<text text-anchor="start" x="11.11" y="-346.6" font-family="Work Sans" font-size="8.00"> </text>
<text text-anchor="start" x="13.33" y="-346.6" font-family="Work Sans" font-size="8.00">SA_TELL</text>
<text text-anchor="start" x="47.57" y="-346.6" font-family="Work Sans" font-size="8.00"> </text>
<text text-anchor="start" x="0" y="-338.6" font-family="Work Sans" font-size="8.00"> </text>
<text text-anchor="start" x="2.22" y="-338.6" font-family="Work Sans" font-size="8.00" fill="red">SPEECHACT</text>
<text text-anchor="start" x="51.12" y="-338.6" font-family="Work Sans" font-size="8.00"> </text>
<text text-anchor="start" x="53.34" y="-338.6" font-family="Work Sans" font-size="8.00" fill="blue">* </text>
<text text-anchor="start" x="58.68" y="-338.6" font-family="Work Sans" font-size="8.00"> </text>
<text text-anchor="start" x="29.34" y="-330.6" font-family="Work Sans" font-size="8.00" fill="green"> </text>
</a>
</g>
</g>
<!-- V499173 -->
<g id="node2" class="node">
<title>V499173</title>
<g id="a_node2"><a xlink:href="http://trips.ihmc.us/lexicon/data/ONT::APPRECIATE.xml" xlink:title="&lt;font color=&quot;green&quot;&gt;&lt;br /&gt;&lt;/font&gt; &lt;font color=&quot;black&quot;&gt;APPRECIATE&lt;/font&gt; &lt;font color=&quot;green&quot;&gt;&lt;br /&gt;&lt;/font&gt; &lt;font color=&quot;red&quot;&gt;F&lt;/font&gt; &lt;font color=&quot;blue&quot;&gt;LOVE&lt;/font&gt; &lt;font color=&quot;green&quot;&gt;&lt;br /&gt;&lt;/font&gt; &lt;font color=&quot;green&quot;&gt;love%2:37:00::&lt;/font&gt; &lt;font color=&quot;green&quot;&gt;&lt;br /&gt; &lt;/font&gt;">
<text text-anchor="start" x="3.18" y="-270.6" font-family="Work Sans" font-size="8.00"> </text>
<text text-anchor="start" x="5.41" y="-270.6" font-family="Work Sans" font-size="8.00">APPRECIATE</text>
<text text-anchor="start" x="55.5" y="-270.6" font-family="Work Sans" font-size="8.00"> </text>
<text text-anchor="start" x="14" y="-262.6" font-family="Work Sans" font-size="8.00"> </text>
<text text-anchor="start" x="16.22" y="-262.6" font-family="Work Sans" font-size="8.00" fill="red">F</text>
<text text-anchor="start" x="21.11" y="-262.6" font-family="Work Sans" font-size="8.00"> </text>
<text text-anchor="start" x="23.33" y="-262.6" font-family="Work Sans" font-size="8.00" fill="blue">LOVE</text>
<text text-anchor="start" x="44.68" y="-262.6" font-family="Work Sans" font-size="8.00"> </text>
<text text-anchor="start" x="1.77" y="-254.6" font-family="Work Sans" font-size="8.00"> </text>
<text text-anchor="start" x="3.99" y="-254.6" font-family="Work Sans" font-size="8.00" fill="green">love%2:37:00::</text>
<text text-anchor="start" x="56.91" y="-254.6" font-family="Work Sans" font-size="8.00"> </text>
<text text-anchor="start" x="29.34" y="-246.6" font-family="Work Sans" font-size="8.00" fill="green"> </text>
</a>
</g>
</g>
<!-- V499390&#45;&gt;V499173 -->
<g id="edge4" class="edge">
<title>V499390&#45;&gt;V499173</title>
<path fill="none" stroke="grey" stroke-width="0.5" d="M30.45,-327.96C30.45,-317.04 30.45,-302.02 30.45,-289.39"/>
<polygon fill="grey" stroke="grey" stroke-width="0.5" points="32.2,-289.14 30.45,-284.14 28.7,-289.14 32.2,-289.14"/>
<text text-anchor="middle" x="54.16" y="-303.6" font-family="Work Sans" font-size="8.00"> CONTENT &#160;&#160;</text>
</g>
<!-- V499162 -->
<g id="node3" class="node">
<title>V499162</title>
<g id="a_node3"><a xlink:href="http://trips.ihmc.us/lexicon/data/ONT::MALE-PERSON.xml" xlink:title="&lt;font color=&quot;green&quot;&gt;&lt;br /&gt;&lt;/font&gt; &lt;font color=&quot;black&quot;&gt;MALE&#45;PERSON&lt;/font&gt; &lt;font color=&quot;green&quot;&gt;&lt;br /&gt;&lt;/font&gt; &lt;font color=&quot;red&quot;&gt;THE&lt;/font&gt; &lt;font color=&quot;blue&quot;&gt;FRANK&lt;/font&gt; &lt;font color=&quot;green&quot;&gt;&lt;br /&gt;&lt;/font&gt; &lt;font color=&quot;green&quot;&gt;man%1:18:00&lt;/font&gt; &lt;font color=&quot;green&quot;&gt;&lt;br /&gt; &lt;/font&gt;">
<text text-anchor="start" x="81.11" y="-26.6" font-family="Work Sans" font-size="8.00"> </text>
<text text-anchor="start" x="83.33" y="-26.6" font-family="Work Sans" font-size="8.00">MALE&#45;PERSON</text>
<text text-anchor="start" x="141.57" y="-26.6" font-family="Work Sans" font-size="8.00"> </text>
<text text-anchor="start" x="87.56" y="-18.6" font-family="Work Sans" font-size="8.00"> </text>
<text text-anchor="start" x="89.78" y="-18.6" font-family="Work Sans" font-size="8.00" fill="red">THE</text>
<text text-anchor="start" x="105.78" y="-18.6" font-family="Work Sans" font-size="8.00"> </text>
<text text-anchor="start" x="108.01" y="-18.6" font-family="Work Sans" font-size="8.00" fill="blue">FRANK</text>
<text text-anchor="start" x="135.12" y="-18.6" font-family="Work Sans" font-size="8.00"> </text>
<text text-anchor="start" x="85.54" y="-10.6" font-family="Work Sans" font-size="8.00"> </text>
<text text-anchor="start" x="87.77" y="-10.6" font-family="Work Sans" font-size="8.00" fill="green">man%1:18:00</text>
<text text-anchor="start" x="137.13" y="-10.6" font-family="Work Sans" font-size="8.00"> </text>
<text text-anchor="start" x="111.34" y="-2.6" font-family="Work Sans" font-size="8.00" fill="green"> </text>
</a>
</g>
</g>
<!-- V499173&#45;&gt;V499162 -->
<g id="edge6" class="edge">
<title>V499173&#45;&gt;V499162</title>
<path fill="none" stroke="grey" stroke-width="0.5" d="M28.12,-243.62C25.73,-217.85 23.91,-171.25 36.21,-134 47.67,-99.31 73.04,-65.36 91.37,-43.88"/>
<polygon fill="grey" stroke="grey" stroke-width="0.5" points="92.76,-44.94 94.71,-40.01 90.11,-42.65 92.76,-44.94"/>
<text text-anchor="middle" x="69.57" y="-135.6" font-family="Work Sans" font-size="8.00"> EXPERIENCER &#160;&#160;</text>
</g>
<!-- V499215 -->
<g id="node4" class="node">
<title>V499215</title>
<g id="a_node4"><a xlink:href="http://trips.ihmc.us/lexicon/data/ONT::EXECUTE.xml" xlink:title="&lt;font color=&quot;green&quot;&gt;&lt;br /&gt;&lt;/font&gt; &lt;font color=&quot;black&quot;&gt;EXECUTE&lt;/font&gt; &lt;font color=&quot;green&quot;&gt;&lt;br /&gt;&lt;/font&gt; &lt;font color=&quot;red&quot;&gt;F&lt;/font&gt; &lt;font color=&quot;blue&quot;&gt;GO&lt;/font&gt; &lt;font color=&quot;green&quot;&gt;&lt;br /&gt;&lt;/font&gt; &lt;font color=&quot;green&quot;&gt;fulfil%2:36:00&lt;/font&gt; &lt;font color=&quot;green&quot;&gt;&lt;br /&gt; &lt;/font&gt;">
<polygon fill="pink" stroke="transparent" stroke-width="0.5" points="84.97,-160 111.45,-160 111.45,-200 84.97,-200 84.97,-160"/>
<polygon fill="lightblue" stroke="transparent" stroke-width="0.5" points="111.45,-160 137.93,-160 137.93,-200 111.45,-200 111.45,-160"/>
<polygon fill="none" stroke="transparent" points="137.93,-200 84.97,-200 84.97,-160 137.93,-160 137.93,-200"/>
<text text-anchor="start" x="90.34" y="-186.6" font-family="Work Sans" font-size="8.00"> </text>
<text text-anchor="start" x="92.56" y="-186.6" font-family="Work Sans" font-size="8.00">EXECUTE</text>
<text text-anchor="start" x="130.34" y="-186.6" font-family="Work Sans" font-size="8.00"> </text>
<text text-anchor="start" x="99.45" y="-178.6" font-family="Work Sans" font-size="8.00"> </text>
<text text-anchor="start" x="101.67" y="-178.6" font-family="Work Sans" font-size="8.00" fill="red">F</text>
<text text-anchor="start" x="106.56" y="-178.6" font-family="Work Sans" font-size="8.00"> </text>
<text text-anchor="start" x="108.78" y="-178.6" font-family="Work Sans" font-size="8.00" fill="blue">GO</text>
<text text-anchor="start" x="121.23" y="-178.6" font-family="Work Sans" font-size="8.00"> </text>
<text text-anchor="start" x="85.21" y="-170.6" font-family="Work Sans" font-size="8.00"> </text>
<text text-anchor="start" x="87.44" y="-170.6" font-family="Work Sans" font-size="8.00" fill="green">fulfil%2:36:00</text>
<text text-anchor="start" x="135.47" y="-170.6" font-family="Work Sans" font-size="8.00"> </text>
<text text-anchor="start" x="110.34" y="-162.6" font-family="Work Sans" font-size="8.00" fill="green"> </text>
</a>
</g>
</g>
<!-- V499173&#45;&gt;V499215 -->
<g id="edge7" class="edge">
<title>V499173&#45;&gt;V499215</title>
<path fill="none" stroke="grey" stroke-width="0.5" d="M49.24,-243.98C61.01,-232.06 76.26,-216.62 88.72,-204.01"/>
<polygon fill="grey" stroke="grey" stroke-width="0.5" points="90.22,-204.99 92.49,-200.2 87.73,-202.53 90.22,-204.99"/>
<text text-anchor="middle" x="94.42" y="-219.6" font-family="Work Sans" font-size="8.00"> FORMAL &#160;&#160;</text>
</g>
<!-- V499215&#45;&gt;V499162 -->
<g id="edge3" class="edge">
<title>V499215&#45;&gt;V499162</title>
<path fill="none" stroke="red" stroke-width="0.5" d="M108.54,-159.72C105.99,-140.53 102.95,-110.24 104.58,-84 105.38,-71.22 107.07,-57.06 108.68,-45.41"/>
<polygon fill="red" stroke="red" stroke-width="0.5" points="110.45,-45.44 109.42,-40.24 106.98,-44.95 110.45,-45.44"/>
<text text-anchor="middle" x="123.39" y="-97.6" font-family="Work Sans" font-size="8.00"> AGENT &#160;&#160;</text>
</g>
<!-- V499236 -->
<g id="node5" class="node">
<title>V499236</title>
<g id="a_node5"><a xlink:href="http://trips.ihmc.us/lexicon/data/ONT::PHYSICAL-ACTIVITY.xml" xlink:title="&lt;font color=&quot;green&quot;&gt;&lt;br /&gt;&lt;/font&gt; &lt;font color=&quot;black&quot;&gt;PHYSICAL&#45;ACTIVITY&lt;/font&gt; &lt;font color=&quot;green&quot;&gt;&lt;br /&gt;&lt;/font&gt; &lt;font color=&quot;red&quot;&gt;F&lt;/font&gt; &lt;font color=&quot;blue&quot;&gt;FISH&lt;/font&gt; &lt;font color=&quot;green&quot;&gt;&lt;br /&gt; &lt;/font&gt;">
<text text-anchor="start" x="149.11" y="-102.6" font-family="Work Sans" font-size="8.00"> </text>
<text text-anchor="start" x="151.33" y="-102.6" font-family="Work Sans" font-size="8.00">PHYSICAL&#45;ACTIVITY</text>
<text text-anchor="start" x="229.57" y="-102.6" font-family="Work Sans" font-size="8.00"> </text>
<text text-anchor="start" x="175.56" y="-94.6" font-family="Work Sans" font-size="8.00"> </text>
<text text-anchor="start" x="177.79" y="-94.6" font-family="Work Sans" font-size="8.00" fill="red">F</text>
<text text-anchor="start" x="182.67" y="-94.6" font-family="Work Sans" font-size="8.00"> </text>
<text text-anchor="start" x="184.89" y="-94.6" font-family="Work Sans" font-size="8.00" fill="blue">FISH</text>
<text text-anchor="start" x="203.12" y="-94.6" font-family="Work Sans" font-size="8.00"> </text>
<text text-anchor="start" x="189.34" y="-86.6" font-family="Work Sans" font-size="8.00" fill="green"> </text>
</a>
</g>
</g>
<!-- V499215&#45;&gt;V499236 -->
<g id="edge1" class="edge">
<title>V499215&#45;&gt;V499236</title>
<path fill="none" stroke="red" d="M115.92,-159.89C118.7,-151.21 123.02,-141.29 129.52,-134 134.82,-128.05 141.46,-122.97 148.39,-118.71"/>
<polygon fill="red" stroke="red" points="149.31,-120.2 152.73,-116.16 147.53,-117.18 149.31,-120.2"/>
<text text-anchor="middle" x="151.42" y="-135.6" font-family="Work Sans" font-size="8.00"> FORMAL &#160;&#160;</text>
</g>
<!-- V499215&#45;&gt;V499236 -->
<g id="edge8" class="edge">
<title>V499215&#45;&gt;V499236</title>
<path fill="none" stroke="blue" d="M137.8,-167.11C149.28,-160.91 162.19,-152.43 171.45,-142 176.78,-135.99 180.89,-128.24 183.9,-121.09"/>
<polygon fill="blue" stroke="blue" points="185.59,-121.56 185.81,-116.26 182.34,-120.27 185.59,-121.56"/>
<text text-anchor="middle" x="178.56" y="-135.6" font-family="Work Sans" font-size="8.00">.</text>
</g>
<!-- V499236&#45;&gt;V499162 -->
<g id="edge2" class="edge">
<title>V499236&#45;&gt;V499162</title>
<path fill="none" stroke="red" d="M154.72,-83.9C146.34,-79.11 137.99,-73.15 131.58,-66 126.24,-60.04 122.24,-52.37 119.31,-45.06"/>
<polygon fill="red" stroke="red" points="120.84,-44.15 117.46,-40.08 117.56,-45.37 120.84,-44.15"/>
<text text-anchor="middle" x="150.39" y="-59.6" font-family="Work Sans" font-size="8.00"> AGENT &#160;&#160;</text>
</g>
<!-- V499236&#45;&gt;V499162 -->
<g id="edge5" class="edge">
<title>V499236&#45;&gt;V499162</title>
<path fill="none" stroke="blue" d="M184.07,-83.87C180.1,-75.61 174.42,-65.56 167.45,-58 161.83,-51.9 155.02,-46.31 148.13,-41.42"/>
<polygon fill="blue" stroke="blue" points="148.95,-39.86 143.84,-38.46 146.96,-42.74 148.95,-39.86"/>
<text text-anchor="middle" x="174.56" y="-59.6" font-family="Work Sans" font-size="8.00">.</text>
</g>
</g>
</svg>
