<?xml version="1.0" encoding="UTF-8" standalone="no"?>
<!DOCTYPE svg PUBLIC "-//W3C//DTD SVG 1.1//EN"
 "http://www.w3.org/Graphics/SVG/1.1/DTD/svg11.dtd">
<!-- Generated by graphviz version 2.43.0 (0)
 -->
<!-- Title: graph Pages: 1 -->
<svg width="91pt" height="292pt"
 viewBox="0.00 0.00 90.85 292.00" xmlns="http://www.w3.org/2000/svg" xmlns:xlink="http://www.w3.org/1999/xlink">
<g id="graph0" class="graph" transform="scale(1 1) rotate(0) translate(4 288)">
<title>graph</title>
<polygon fill="white" stroke="transparent" points="-4,4 -4,-288 86.85,-288 86.85,4 -4,4"/>
<!-- V58624 -->
<g id="node1" class="node">
<title>V58624</title>
<g id="a_node1"><a xlink:href="http://trips.ihmc.us/lexicon/data/ONT::SA_IDENTIFY.xml" xlink:title="&lt;font color=&quot;green&quot;&gt;&lt;br /&gt;&lt;/font&gt; &lt;font color=&quot;black&quot;&gt;SA_IDENTIFY&lt;/font&gt; &lt;font color=&quot;green&quot;&gt;&lt;br /&gt;&lt;/font&gt; &lt;font color=&quot;red&quot;&gt;SPEECHACT&lt;/font&gt; &lt;font color=&quot;blue&quot;&gt;* &lt;/font&gt; &lt;font color=&quot;green&quot;&gt;&lt;br /&gt; &lt;/font&gt;">
<polygon fill="pink" stroke="transparent" stroke-width="0.5" points="2.51,-252 32.91,-252 32.91,-284 2.51,-284 2.51,-252"/>
<polygon fill="lightblue" stroke="transparent" stroke-width="0.5" points="32.91,-252 63.31,-252 63.31,-284 32.91,-284 32.91,-252"/>
<polygon fill="none" stroke="transparent" points="63.31,-284 2.51,-284 2.51,-252 63.31,-252 63.31,-284"/>
<text text-anchor="start" x="4.91" y="-270.6" font-family="Work Sans" font-size="8.00"> </text>
<text text-anchor="start" x="7.13" y="-270.6" font-family="Work Sans" font-size="8.00">SA_IDENTIFY</text>
<text text-anchor="start" x="58.7" y="-270.6" font-family="Work Sans" font-size="8.00"> </text>
<text text-anchor="start" x="2.46" y="-262.6" font-family="Work Sans" font-size="8.00"> </text>
<text text-anchor="start" x="4.68" y="-262.6" font-family="Work Sans" font-size="8.00" fill="red">SPEECHACT</text>
<text text-anchor="start" x="53.58" y="-262.6" font-family="Work Sans" font-size="8.00"> </text>
<text text-anchor="start" x="55.8" y="-262.6" font-family="Work Sans" font-size="8.00" fill="blue">* </text>
<text text-anchor="start" x="61.14" y="-262.6" font-family="Work Sans" font-size="8.00"> </text>
<text text-anchor="start" x="31.8" y="-254.6" font-family="Work Sans" font-size="8.00" fill="green"> </text>
</a>
</g>
</g>
<!-- V58187 -->
<g id="node2" class="node">
<title>V58187</title>
<g id="a_node2"><a xlink:href="http://trips.ihmc.us/lexicon/data/ONT::MALE-PERSON.xml" xlink:title="&lt;font color=&quot;green&quot;&gt;&lt;br /&gt;&lt;/font&gt; &lt;font color=&quot;black&quot;&gt;MALE&#45;PERSON&lt;/font&gt; &lt;font color=&quot;green&quot;&gt;&lt;br /&gt;&lt;/font&gt; &lt;font color=&quot;red&quot;&gt;BARE&lt;/font&gt; &lt;font color=&quot;blue&quot;&gt;THE&lt;/font&gt; &lt;font color=&quot;green&quot;&gt;&lt;br /&gt;&lt;/font&gt; &lt;font color=&quot;green&quot;&gt;man%1:18:00&lt;/font&gt; &lt;font color=&quot;green&quot;&gt;&lt;br /&gt; &lt;/font&gt;">
<polygon fill="pink" stroke="transparent" points="64.09,-208 1.73,-208 1.73,-168 64.09,-168 64.09,-208"/>
<text text-anchor="start" x="1.57" y="-194.6" font-family="Work Sans" font-size="8.00"> </text>
<text text-anchor="start" x="3.79" y="-194.6" font-family="Work Sans" font-size="8.00">MALE&#45;PERSON</text>
<text text-anchor="start" x="62.03" y="-194.6" font-family="Work Sans" font-size="8.00"> </text>
<text text-anchor="start" x="10.69" y="-186.6" font-family="Work Sans" font-size="8.00"> </text>
<text text-anchor="start" x="12.91" y="-186.6" font-family="Work Sans" font-size="8.00" fill="red">BARE</text>
<text text-anchor="start" x="34.69" y="-186.6" font-family="Work Sans" font-size="8.00"> </text>
<text text-anchor="start" x="36.92" y="-186.6" font-family="Work Sans" font-size="8.00" fill="blue">THE</text>
<text text-anchor="start" x="52.92" y="-186.6" font-family="Work Sans" font-size="8.00"> </text>
<text text-anchor="start" x="6.01" y="-178.6" font-family="Work Sans" font-size="8.00"> </text>
<text text-anchor="start" x="8.23" y="-178.6" font-family="Work Sans" font-size="8.00" fill="green">man%1:18:00</text>
<text text-anchor="start" x="57.6" y="-178.6" font-family="Work Sans" font-size="8.00"> </text>
<text text-anchor="start" x="31.8" y="-170.6" font-family="Work Sans" font-size="8.00" fill="green"> </text>
</a>
</g>
</g>
<!-- V58624&#45;&gt;V58187 -->
<g id="edge4" class="edge">
<title>V58624&#45;&gt;V58187</title>
<path fill="none" stroke="grey" stroke-width="0.5" d="M32.91,-251.96C32.91,-241.04 32.91,-226.02 32.91,-213.39"/>
<polygon fill="grey" stroke="grey" stroke-width="0.5" points="34.66,-213.14 32.91,-208.14 31.16,-213.14 34.66,-213.14"/>
<text text-anchor="middle" x="56.62" y="-227.6" font-family="Work Sans" font-size="8.00"> CONTENT &#160;&#160;</text>
</g>
<!-- V58214 -->
<g id="node3" class="node">
<title>V58214</title>
<g id="a_node3"><a xlink:href="http://trips.ihmc.us/lexicon/data/ONT::MISS.xml" xlink:title="&lt;font color=&quot;green&quot;&gt;&lt;br /&gt;&lt;/font&gt; &lt;font color=&quot;black&quot;&gt;MISS&lt;/font&gt; &lt;font color=&quot;green&quot;&gt;&lt;br /&gt;&lt;/font&gt; &lt;font color=&quot;red&quot;&gt;F&lt;/font&gt; &lt;font color=&quot;blue&quot;&gt;MISS&lt;/font&gt; &lt;font color=&quot;green&quot;&gt;&lt;br /&gt;&lt;/font&gt; &lt;font color=&quot;green&quot;&gt;miss%2:35:00::&lt;/font&gt; &lt;font color=&quot;green&quot;&gt;&lt;br /&gt; &lt;/font&gt;">
<polygon fill="pink" stroke="transparent" stroke-width="0.5" points="3.28,-84 32.91,-84 32.91,-124 3.28,-124 3.28,-84"/>
<polygon fill="lightblue" stroke="transparent" stroke-width="0.5" points="32.91,-84 62.55,-84 62.55,-124 32.91,-124 32.91,-84"/>
<polygon fill="none" stroke="transparent" points="62.55,-124 3.28,-124 3.28,-84 62.55,-84 62.55,-124"/>
<text text-anchor="start" x="20.91" y="-110.6" font-family="Work Sans" font-size="8.00"> </text>
<text text-anchor="start" x="23.13" y="-110.6" font-family="Work Sans" font-size="8.00">MISS</text>
<text text-anchor="start" x="42.69" y="-110.6" font-family="Work Sans" font-size="8.00"> </text>
<text text-anchor="start" x="17.36" y="-102.6" font-family="Work Sans" font-size="8.00"> </text>
<text text-anchor="start" x="19.58" y="-102.6" font-family="Work Sans" font-size="8.00" fill="red">F</text>
<text text-anchor="start" x="24.46" y="-102.6" font-family="Work Sans" font-size="8.00"> </text>
<text text-anchor="start" x="26.69" y="-102.6" font-family="Work Sans" font-size="8.00" fill="blue">MISS</text>
<text text-anchor="start" x="46.25" y="-102.6" font-family="Work Sans" font-size="8.00"> </text>
<text text-anchor="start" x="3.34" y="-94.6" font-family="Work Sans" font-size="8.00"> </text>
<text text-anchor="start" x="5.57" y="-94.6" font-family="Work Sans" font-size="8.00" fill="green">miss%2:35:00::</text>
<text text-anchor="start" x="60.26" y="-94.6" font-family="Work Sans" font-size="8.00"> </text>
<text text-anchor="start" x="31.8" y="-86.6" font-family="Work Sans" font-size="8.00" fill="green"> </text>
</a>
</g>
</g>
<!-- V58187&#45;&gt;V58214 -->
<g id="edge1" class="edge">
<title>V58187&#45;&gt;V58214</title>
<path fill="none" stroke="red" stroke-width="0.5" d="M17.72,-167.65C14.3,-162.24 11.15,-156.14 9.36,-150 7.23,-142.71 9.2,-135.23 12.76,-128.52"/>
<polygon fill="red" stroke="red" stroke-width="0.5" points="14.39,-129.19 15.44,-124 11.38,-127.41 14.39,-129.19"/>
<text text-anchor="middle" x="23.69" y="-143.6" font-family="Work Sans" font-size="8.00"> MOD &#160;&#160;</text>
</g>
<!-- V58214&#45;&gt;V58187 -->
<g id="edge3" class="edge">
<title>V58214&#45;&gt;V58187</title>
<path fill="none" stroke="blue" stroke-width="0.5" d="M35.83,-124.25C36.73,-132.21 37.37,-141.54 36.91,-150 36.69,-154.08 36.34,-158.41 35.93,-162.61"/>
<polygon fill="blue" stroke="blue" stroke-width="0.5" points="34.16,-162.67 35.38,-167.83 37.64,-163.04 34.16,-162.67"/>
<text text-anchor="middle" x="59.88" y="-143.6" font-family="Work Sans" font-size="8.00"> NEUTRAL &#160;&#160;</text>
</g>
<!-- V58191 -->
<g id="node4" class="node">
<title>V58191</title>
<g id="a_node4"><a xlink:href="http://trips.ihmc.us/lexicon/data/ONT::ATTIRE.xml" xlink:title="&lt;font color=&quot;green&quot;&gt;&lt;br /&gt;&lt;/font&gt; &lt;font color=&quot;black&quot;&gt;ATTIRE&lt;/font&gt; &lt;font color=&quot;green&quot;&gt;&lt;br /&gt;&lt;/font&gt; &lt;font color=&quot;red&quot;&gt;BARE&lt;/font&gt; &lt;font color=&quot;blue&quot;&gt;SHOE&lt;/font&gt; &lt;font color=&quot;green&quot;&gt;&lt;br /&gt;&lt;/font&gt; &lt;font color=&quot;green&quot;&gt;clothing%1:06:00&lt;/font&gt; &lt;font color=&quot;green&quot;&gt;&lt;br /&gt; &lt;/font&gt;">
<text text-anchor="start" x="16.76" y="-26.6" font-family="Work Sans" font-size="8.00"> </text>
<text text-anchor="start" x="18.98" y="-26.6" font-family="Work Sans" font-size="8.00">ATTIRE</text>
<text text-anchor="start" x="46.84" y="-26.6" font-family="Work Sans" font-size="8.00"> </text>
<text text-anchor="start" x="7.35" y="-18.6" font-family="Work Sans" font-size="8.00"> </text>
<text text-anchor="start" x="9.57" y="-18.6" font-family="Work Sans" font-size="8.00" fill="red">BARE</text>
<text text-anchor="start" x="31.36" y="-18.6" font-family="Work Sans" font-size="8.00"> </text>
<text text-anchor="start" x="33.58" y="-18.6" font-family="Work Sans" font-size="8.00" fill="blue">SHOE</text>
<text text-anchor="start" x="56.25" y="-18.6" font-family="Work Sans" font-size="8.00"> </text>
<text text-anchor="start" x="0" y="-10.6" font-family="Work Sans" font-size="8.00"> </text>
<text text-anchor="start" x="2.22" y="-10.6" font-family="Work Sans" font-size="8.00" fill="green">clothing%1:06:00</text>
<text text-anchor="start" x="63.6" y="-10.6" font-family="Work Sans" font-size="8.00"> </text>
<text text-anchor="start" x="31.8" y="-2.6" font-family="Work Sans" font-size="8.00" fill="green"> </text>
</a>
</g>
</g>
<!-- V58214&#45;&gt;V58191 -->
<g id="edge2" class="edge">
<title>V58214&#45;&gt;V58191</title>
<path fill="none" stroke="red" stroke-width="0.5" d="M32.91,-83.98C32.91,-72.47 32.91,-57.68 32.91,-45.33"/>
<polygon fill="red" stroke="red" stroke-width="0.5" points="34.66,-45.2 32.91,-40.2 31.16,-45.2 34.66,-45.2"/>
<text text-anchor="middle" x="50.85" y="-59.6" font-family="Work Sans" font-size="8.00"> AGENT &#160;&#160;</text>
</g>
</g>
</svg>
