<?xml version="1.0" encoding="UTF-8" standalone="no"?>
<!DOCTYPE svg PUBLIC "-//W3C//DTD SVG 1.1//EN"
 "http://www.w3.org/Graphics/SVG/1.1/DTD/svg11.dtd">
<!-- Generated by graphviz version 2.43.0 (0)
 -->
<!-- Title: graph Pages: 1 -->
<svg width="252pt" height="284pt"
 viewBox="0.00 0.00 251.72 284.00" xmlns="http://www.w3.org/2000/svg" xmlns:xlink="http://www.w3.org/1999/xlink">
<g id="graph0" class="graph" transform="scale(1 1) rotate(0) translate(4 280)">
<title>graph</title>
<polygon fill="white" stroke="transparent" points="-4,4 -4,-280 247.72,-280 247.72,4 -4,4"/>
<!-- V74109 -->
<g id="node1" class="node">
<title>V74109</title>
<g id="a_node1"><a xlink:href="http://trips.ihmc.us/lexicon/data/ONT::SA_WH-QUESTION.xml" xlink:title="&lt;font color=&quot;green&quot;&gt;&lt;br /&gt;&lt;/font&gt; &lt;font color=&quot;black&quot;&gt;SA_WH&#45;QUESTION&lt;/font&gt; &lt;font color=&quot;green&quot;&gt;&lt;br /&gt;&lt;/font&gt; &lt;font color=&quot;red&quot;&gt;SPEECHACT&lt;/font&gt; &lt;font color=&quot;blue&quot;&gt;* &lt;/font&gt; &lt;font color=&quot;green&quot;&gt;&lt;br /&gt; &lt;/font&gt;">
<text text-anchor="start" x="114.16" y="-262.6" font-family="Work Sans" font-size="8.00"> </text>
<text text-anchor="start" x="116.38" y="-262.6" font-family="Work Sans" font-size="8.00">SA_WH&#45;QUESTION</text>
<text text-anchor="start" x="189.28" y="-262.6" font-family="Work Sans" font-size="8.00"> </text>
<text text-anchor="start" x="122.38" y="-254.6" font-family="Work Sans" font-size="8.00"> </text>
<text text-anchor="start" x="124.6" y="-254.6" font-family="Work Sans" font-size="8.00" fill="red">SPEECHACT</text>
<text text-anchor="start" x="173.5" y="-254.6" font-family="Work Sans" font-size="8.00"> </text>
<text text-anchor="start" x="175.72" y="-254.6" font-family="Work Sans" font-size="8.00" fill="blue">* </text>
<text text-anchor="start" x="181.06" y="-254.6" font-family="Work Sans" font-size="8.00"> </text>
<text text-anchor="start" x="151.72" y="-246.6" font-family="Work Sans" font-size="8.00" fill="green"> </text>
</a>
</g>
</g>
<!-- V73708 -->
<g id="node2" class="node">
<title>V73708</title>
<g id="a_node2"><a xlink:href="http://trips.ihmc.us/lexicon/data/ONT::OCCURRING.xml" xlink:title="&lt;font color=&quot;green&quot;&gt;&lt;br /&gt;&lt;/font&gt; &lt;font color=&quot;black&quot;&gt;OCCURRING&lt;/font&gt; &lt;font color=&quot;green&quot;&gt;&lt;br /&gt;&lt;/font&gt; &lt;font color=&quot;red&quot;&gt;F&lt;/font&gt; &lt;font color=&quot;blue&quot;&gt;GO&lt;/font&gt; &lt;font color=&quot;green&quot;&gt;&lt;br /&gt;&lt;/font&gt; &lt;font color=&quot;green&quot;&gt;go%2:30:01::&lt;/font&gt; &lt;font color=&quot;green&quot;&gt;&lt;br /&gt; &lt;/font&gt;">
<polygon fill="pink" stroke="transparent" stroke-width="0.5" points="60.05,-160 86.83,-160 86.83,-200 60.05,-200 60.05,-160"/>
<polygon fill="lightblue" stroke="transparent" stroke-width="0.5" points="86.83,-160 113.61,-160 113.61,-200 86.83,-200 86.83,-160"/>
<polygon fill="none" stroke="transparent" points="113.61,-200 60.05,-200 60.05,-160 113.61,-160 113.61,-200"/>
<text text-anchor="start" x="59.94" y="-186.6" font-family="Work Sans" font-size="8.00"> </text>
<text text-anchor="start" x="62.17" y="-186.6" font-family="Work Sans" font-size="8.00">OCCURRING</text>
<text text-anchor="start" x="111.5" y="-186.6" font-family="Work Sans" font-size="8.00"> </text>
<text text-anchor="start" x="74.83" y="-178.6" font-family="Work Sans" font-size="8.00"> </text>
<text text-anchor="start" x="77.05" y="-178.6" font-family="Work Sans" font-size="8.00" fill="red">F</text>
<text text-anchor="start" x="81.94" y="-178.6" font-family="Work Sans" font-size="8.00"> </text>
<text text-anchor="start" x="84.16" y="-178.6" font-family="Work Sans" font-size="8.00" fill="blue">GO</text>
<text text-anchor="start" x="96.61" y="-178.6" font-family="Work Sans" font-size="8.00"> </text>
<text text-anchor="start" x="61.03" y="-170.6" font-family="Work Sans" font-size="8.00"> </text>
<text text-anchor="start" x="63.26" y="-170.6" font-family="Work Sans" font-size="8.00" fill="green">go%2:30:01::</text>
<text text-anchor="start" x="110.41" y="-170.6" font-family="Work Sans" font-size="8.00"> </text>
<text text-anchor="start" x="85.72" y="-162.6" font-family="Work Sans" font-size="8.00" fill="green"> </text>
</a>
</g>
</g>
<!-- V74109&#45;&gt;V73708 -->
<g id="edge2" class="edge">
<title>V74109&#45;&gt;V73708</title>
<path fill="none" stroke="grey" stroke-width="0.5" d="M140.11,-243.96C130.53,-232.65 117.24,-216.94 106.33,-204.05"/>
<polygon fill="grey" stroke="grey" stroke-width="0.5" points="107.59,-202.83 103.03,-200.14 104.92,-205.09 107.59,-202.83"/>
<text text-anchor="middle" x="146.54" y="-219.6" font-family="Work Sans" font-size="8.00"> CONTENT &#160;&#160;</text>
</g>
<!-- V73753 -->
<g id="node4" class="node">
<title>V73753</title>
<g id="a_node4"><a xlink:href="http://trips.ihmc.us/lexicon/data/ONT::METHOD.xml" xlink:title="&lt;font color=&quot;green&quot;&gt;&lt;br /&gt;&lt;/font&gt; &lt;font color=&quot;black&quot;&gt;METHOD&lt;/font&gt; &lt;font color=&quot;green&quot;&gt;&lt;br /&gt;&lt;/font&gt; &lt;font color=&quot;red&quot;&gt;WH&#45;TERM&lt;/font&gt; &lt;font color=&quot;blue&quot;&gt;* &lt;/font&gt; &lt;font color=&quot;green&quot;&gt;&lt;br /&gt; &lt;/font&gt;">
<polygon fill="pink" stroke="transparent" stroke-width="0.5" points="82.67,0 107.83,0 107.83,-32 82.67,-32 82.67,0"/>
<polygon fill="lightblue" stroke="transparent" stroke-width="0.5" points="107.83,0 132.99,0 132.99,-32 107.83,-32 107.83,0"/>
<polygon fill="none" stroke="transparent" points="132.99,-32 82.67,-32 82.67,0 132.99,0 132.99,-32"/>
<text text-anchor="start" x="88.28" y="-18.6" font-family="Work Sans" font-size="8.00"> </text>
<text text-anchor="start" x="90.5" y="-18.6" font-family="Work Sans" font-size="8.00">METHOD</text>
<text text-anchor="start" x="125.16" y="-18.6" font-family="Work Sans" font-size="8.00"> </text>
<text text-anchor="start" x="82.5" y="-10.6" font-family="Work Sans" font-size="8.00"> </text>
<text text-anchor="start" x="84.72" y="-10.6" font-family="Work Sans" font-size="8.00" fill="red">WH&#45;TERM</text>
<text text-anchor="start" x="123.38" y="-10.6" font-family="Work Sans" font-size="8.00"> </text>
<text text-anchor="start" x="125.6" y="-10.6" font-family="Work Sans" font-size="8.00" fill="blue">* </text>
<text text-anchor="start" x="130.94" y="-10.6" font-family="Work Sans" font-size="8.00"> </text>
<text text-anchor="start" x="106.72" y="-2.6" font-family="Work Sans" font-size="8.00" fill="green"> </text>
</a>
</g>
</g>
<!-- V74109&#45;&gt;V73753 -->
<g id="edge1" class="edge">
<title>V74109&#45;&gt;V73753</title>
<path fill="none" stroke="grey" stroke-width="0.5" d="M163.46,-243.85C184.86,-211.3 228.62,-133 197.83,-76 185.2,-52.62 158.82,-37 137.87,-27.75"/>
<polygon fill="grey" stroke="grey" stroke-width="0.5" points="138.5,-26.11 133.22,-25.75 137.12,-29.33 138.5,-26.11"/>
<text text-anchor="middle" x="225.28" y="-135.6" font-family="Work Sans" font-size="8.00"> FOCUS &#160;&#160;</text>
</g>
<!-- V73665 -->
<g id="node3" class="node">
<title>V73665</title>
<g id="a_node3"><a xlink:href="http://trips.ihmc.us/lexicon/data/ONT::BY-MEANS-OF.xml" xlink:title="&lt;font color=&quot;green&quot;&gt;&lt;br /&gt;&lt;/font&gt; &lt;font color=&quot;black&quot;&gt;BY&#45;MEANS&#45;OF&lt;/font&gt; &lt;font color=&quot;green&quot;&gt;&lt;br /&gt;&lt;/font&gt; &lt;font color=&quot;red&quot;&gt;F&lt;/font&gt; &lt;font color=&quot;blue&quot;&gt;HOW&lt;/font&gt; &lt;font color=&quot;green&quot;&gt;&lt;br /&gt; &lt;/font&gt;">
<polygon fill="pink" stroke="transparent" stroke-width="0.5" points="11.06,-80 40.83,-80 40.83,-112 11.06,-112 11.06,-80"/>
<polygon fill="lightblue" stroke="transparent" stroke-width="0.5" points="40.83,-80 70.6,-80 70.6,-112 40.83,-112 40.83,-80"/>
<polygon fill="none" stroke="transparent" points="70.6,-112 11.06,-112 11.06,-80 70.6,-80 70.6,-112"/>
<text text-anchor="start" x="11.2" y="-98.6" font-family="Work Sans" font-size="8.00"> </text>
<text text-anchor="start" x="13.42" y="-98.6" font-family="Work Sans" font-size="8.00">BY&#45;MEANS&#45;OF</text>
<text text-anchor="start" x="68.24" y="-98.6" font-family="Work Sans" font-size="8.00"> </text>
<text text-anchor="start" x="25.28" y="-90.6" font-family="Work Sans" font-size="8.00"> </text>
<text text-anchor="start" x="27.5" y="-90.6" font-family="Work Sans" font-size="8.00" fill="red">F</text>
<text text-anchor="start" x="32.39" y="-90.6" font-family="Work Sans" font-size="8.00"> </text>
<text text-anchor="start" x="34.61" y="-90.6" font-family="Work Sans" font-size="8.00" fill="blue">HOW</text>
<text text-anchor="start" x="54.16" y="-90.6" font-family="Work Sans" font-size="8.00"> </text>
<text text-anchor="start" x="39.72" y="-82.6" font-family="Work Sans" font-size="8.00" fill="green"> </text>
</a>
</g>
</g>
<!-- V73708&#45;&gt;V73665 -->
<g id="edge4" class="edge">
<title>V73708&#45;&gt;V73665</title>
<path fill="none" stroke="blue" d="M59.79,-175.01C40.26,-170.56 15.18,-161.26 2.61,-142 -3.47,-132.69 2.47,-123.19 11.33,-115.33"/>
<polygon fill="blue" stroke="blue" points="12.54,-116.6 15.28,-112.07 10.31,-113.9 12.54,-116.6"/>
<text text-anchor="middle" x="3.94" y="-135.6" font-family="Work Sans" font-size="8.00">.</text>
</g>
<!-- V73708&#45;&gt;V73665 -->
<g id="edge5" class="edge">
<title>V73708&#45;&gt;V73665</title>
<path fill="none" stroke="red" d="M59.88,-172.14C44.5,-166.69 26.5,-157.36 17.28,-142 12.37,-133.84 15.8,-124.55 21.4,-116.54"/>
<polygon fill="red" stroke="red" points="23.04,-117.28 24.69,-112.24 20.26,-115.15 23.04,-117.28"/>
<text text-anchor="middle" x="39.61" y="-135.6" font-family="Work Sans" font-size="8.00"> METHOD &#160;&#160;</text>
</g>
<!-- V73693 -->
<g id="node5" class="node">
<title>V73693</title>
<g id="a_node5"><a xlink:href="http://trips.ihmc.us/lexicon/data/ONT::COMPOSITION.xml" xlink:title="&lt;font color=&quot;green&quot;&gt;&lt;br /&gt;&lt;/font&gt; &lt;font color=&quot;black&quot;&gt;COMPOSITION&lt;/font&gt; &lt;font color=&quot;green&quot;&gt;&lt;br /&gt;&lt;/font&gt; &lt;font color=&quot;red&quot;&gt;THE&lt;/font&gt; &lt;font color=&quot;blue&quot;&gt;STORY&lt;/font&gt; &lt;font color=&quot;green&quot;&gt;&lt;br /&gt;&lt;/font&gt; &lt;font color=&quot;green&quot;&gt;composition%1:07:01&lt;/font&gt; &lt;font color=&quot;green&quot;&gt;&lt;br /&gt; &lt;/font&gt;">
<text text-anchor="start" x="118.16" y="-102.6" font-family="Work Sans" font-size="8.00"> </text>
<text text-anchor="start" x="120.39" y="-102.6" font-family="Work Sans" font-size="8.00">COMPOSITION</text>
<text text-anchor="start" x="177.28" y="-102.6" font-family="Work Sans" font-size="8.00"> </text>
<text text-anchor="start" x="123.86" y="-94.6" font-family="Work Sans" font-size="8.00"> </text>
<text text-anchor="start" x="126.08" y="-94.6" font-family="Work Sans" font-size="8.00" fill="red">THE</text>
<text text-anchor="start" x="142.08" y="-94.6" font-family="Work Sans" font-size="8.00"> </text>
<text text-anchor="start" x="144.3" y="-94.6" font-family="Work Sans" font-size="8.00" fill="blue">STORY</text>
<text text-anchor="start" x="171.58" y="-94.6" font-family="Work Sans" font-size="8.00"> </text>
<text text-anchor="start" x="108.36" y="-86.6" font-family="Work Sans" font-size="8.00"> </text>
<text text-anchor="start" x="110.58" y="-86.6" font-family="Work Sans" font-size="8.00" fill="green">composition%1:07:01</text>
<text text-anchor="start" x="187.08" y="-86.6" font-family="Work Sans" font-size="8.00"> </text>
<text text-anchor="start" x="147.72" y="-78.6" font-family="Work Sans" font-size="8.00" fill="green"> </text>
</a>
</g>
</g>
<!-- V73708&#45;&gt;V73693 -->
<g id="edge7" class="edge">
<title>V73708&#45;&gt;V73693</title>
<path fill="none" stroke="red" stroke-width="0.5" d="M101.21,-159.98C110.15,-148.16 121.7,-132.89 131.18,-120.34"/>
<polygon fill="red" stroke="red" stroke-width="0.5" points="132.69,-121.24 134.31,-116.2 129.9,-119.13 132.69,-121.24"/>
<text text-anchor="middle" x="141.8" y="-135.6" font-family="Work Sans" font-size="8.00"> NEUTRAL &#160;&#160;</text>
</g>
<!-- V73665&#45;&gt;V73708 -->
<g id="edge3" class="edge">
<title>V73665&#45;&gt;V73708</title>
<path fill="none" stroke="blue" stroke-width="0.5" d="M51.3,-112.22C55.67,-118.81 60.68,-126.67 64.83,-134 68.66,-140.76 72.5,-148.29 75.87,-155.22"/>
<polygon fill="blue" stroke="blue" stroke-width="0.5" points="74.38,-156.16 78.12,-159.91 77.53,-154.64 74.38,-156.16"/>
<text text-anchor="middle" x="87.39" y="-135.6" font-family="Work Sans" font-size="8.00"> FIGURE &#160;&#160;</text>
</g>
<!-- V73665&#45;&gt;V73753 -->
<g id="edge6" class="edge">
<title>V73665&#45;&gt;V73753</title>
<path fill="none" stroke="grey" stroke-width="0.5" d="M37.23,-79.7C35.92,-70.42 35.9,-58.73 41.39,-50 49.44,-37.18 64.11,-29.17 77.62,-24.27"/>
<polygon fill="grey" stroke="grey" stroke-width="0.5" points="78.36,-25.86 82.53,-22.59 77.24,-22.55 78.36,-25.86"/>
<text text-anchor="middle" x="64.05" y="-51.6" font-family="Work Sans" font-size="8.00"> GROUND &#160;&#160;</text>
</g>
<!-- V73753&#45;&gt;V73665 -->
<g id="edge8" class="edge">
<title>V73753&#45;&gt;V73665</title>
<path fill="none" stroke="grey" stroke-width="0.5" d="M101.39,-32.29C97.55,-40.4 92.19,-50.26 85.83,-58 80.3,-64.73 73.4,-71.12 66.68,-76.64"/>
<polygon fill="grey" stroke="grey" stroke-width="0.5" points="65.34,-75.47 62.52,-79.96 67.52,-78.2 65.34,-75.47"/>
<text text-anchor="middle" x="116.69" y="-51.6" font-family="Work Sans" font-size="8.00"> SUCHTHAT &#160;&#160;</text>
</g>
</g>
</svg>
