<?xml version="1.0" encoding="UTF-8" standalone="no"?>
<!DOCTYPE svg PUBLIC "-//W3C//DTD SVG 1.1//EN"
 "http://www.w3.org/Graphics/SVG/1.1/DTD/svg11.dtd">
<!-- Generated by graphviz version 2.43.0 (0)
 -->
<!-- Title: graph Pages: 1 -->
<svg width="272pt" height="276pt"
 viewBox="0.00 0.00 271.91 276.00" xmlns="http://www.w3.org/2000/svg" xmlns:xlink="http://www.w3.org/1999/xlink">
<g id="graph0" class="graph" transform="scale(1 1) rotate(0) translate(4 272)">
<title>graph</title>
<polygon fill="white" stroke="transparent" points="-4,4 -4,-272 267.91,-272 267.91,4 -4,4"/>
<!-- V72402 -->
<g id="node1" class="node">
<title>V72402</title>
<g id="a_node1"><a xlink:href="http://trips.ihmc.us/lexicon/data/ONT::SA_WH-QUESTION.xml" xlink:title="&lt;font color=&quot;green&quot;&gt;&lt;br /&gt;&lt;/font&gt; &lt;font color=&quot;black&quot;&gt;SA_WH&#45;QUESTION&lt;/font&gt; &lt;font color=&quot;green&quot;&gt;&lt;br /&gt;&lt;/font&gt; &lt;font color=&quot;red&quot;&gt;SPEECHACT&lt;/font&gt; &lt;font color=&quot;blue&quot;&gt;* &lt;/font&gt; &lt;font color=&quot;green&quot;&gt;&lt;br /&gt; &lt;/font&gt;">
<text text-anchor="start" x="141.35" y="-254.6" font-family="Work Sans" font-size="8.00"> </text>
<text text-anchor="start" x="143.57" y="-254.6" font-family="Work Sans" font-size="8.00">SA_WH&#45;QUESTION</text>
<text text-anchor="start" x="216.47" y="-254.6" font-family="Work Sans" font-size="8.00"> </text>
<text text-anchor="start" x="149.57" y="-246.6" font-family="Work Sans" font-size="8.00"> </text>
<text text-anchor="start" x="151.79" y="-246.6" font-family="Work Sans" font-size="8.00" fill="red">SPEECHACT</text>
<text text-anchor="start" x="200.69" y="-246.6" font-family="Work Sans" font-size="8.00"> </text>
<text text-anchor="start" x="202.91" y="-246.6" font-family="Work Sans" font-size="8.00" fill="blue">* </text>
<text text-anchor="start" x="208.25" y="-246.6" font-family="Work Sans" font-size="8.00"> </text>
<text text-anchor="start" x="178.91" y="-238.6" font-family="Work Sans" font-size="8.00" fill="green"> </text>
</a>
</g>
</g>
<!-- V72097 -->
<g id="node2" class="node">
<title>V72097</title>
<g id="a_node2"><a xlink:href="http://trips.ihmc.us/lexicon/data/ONT::BECOME.xml" xlink:title="&lt;font color=&quot;green&quot;&gt;&lt;br /&gt;&lt;/font&gt; &lt;font color=&quot;black&quot;&gt;BECOME&lt;/font&gt; &lt;font color=&quot;green&quot;&gt;&lt;br /&gt;&lt;/font&gt; &lt;font color=&quot;red&quot;&gt;F&lt;/font&gt; &lt;font color=&quot;blue&quot;&gt;GO&lt;/font&gt; &lt;font color=&quot;green&quot;&gt;&lt;br /&gt; &lt;/font&gt;">
<polygon fill="pink" stroke="transparent" stroke-width="0.5" points="97.4,-160 117.02,-160 117.02,-192 97.4,-192 97.4,-160"/>
<polygon fill="lightblue" stroke="transparent" stroke-width="0.5" points="117.02,-160 136.64,-160 136.64,-192 117.02,-192 117.02,-160"/>
<polygon fill="none" stroke="transparent" points="136.64,-192 97.4,-192 97.4,-160 136.64,-160 136.64,-192"/>
<text text-anchor="start" x="97.46" y="-178.6" font-family="Work Sans" font-size="8.00"> </text>
<text text-anchor="start" x="99.69" y="-178.6" font-family="Work Sans" font-size="8.00">BECOME</text>
<text text-anchor="start" x="134.36" y="-178.6" font-family="Work Sans" font-size="8.00"> </text>
<text text-anchor="start" x="105.02" y="-170.6" font-family="Work Sans" font-size="8.00"> </text>
<text text-anchor="start" x="107.24" y="-170.6" font-family="Work Sans" font-size="8.00" fill="red">F</text>
<text text-anchor="start" x="112.13" y="-170.6" font-family="Work Sans" font-size="8.00"> </text>
<text text-anchor="start" x="114.35" y="-170.6" font-family="Work Sans" font-size="8.00" fill="blue">GO</text>
<text text-anchor="start" x="126.8" y="-170.6" font-family="Work Sans" font-size="8.00"> </text>
<text text-anchor="start" x="115.91" y="-162.6" font-family="Work Sans" font-size="8.00" fill="green"> </text>
</a>
</g>
</g>
<!-- V72402&#45;&gt;V72097 -->
<g id="edge5" class="edge">
<title>V72402&#45;&gt;V72097</title>
<path fill="none" stroke="grey" stroke-width="0.5" d="M166.97,-235.67C157.19,-224.18 143.75,-208.39 133.27,-196.09"/>
<polygon fill="grey" stroke="grey" stroke-width="0.5" points="134.42,-194.73 129.84,-192.06 131.75,-197 134.42,-194.73"/>
<text text-anchor="middle" x="173.73" y="-211.6" font-family="Work Sans" font-size="8.00"> CONTENT &#160;&#160;</text>
</g>
<!-- V72141 -->
<g id="node4" class="node">
<title>V72141</title>
<g id="a_node4"><a xlink:href="http://trips.ihmc.us/lexicon/data/ONT::STATUS.xml" xlink:title="&lt;font color=&quot;green&quot;&gt;&lt;br /&gt;&lt;/font&gt; &lt;font color=&quot;black&quot;&gt;STATUS&lt;/font&gt; &lt;font color=&quot;green&quot;&gt;&lt;br /&gt;&lt;/font&gt; &lt;font color=&quot;red&quot;&gt;WH&#45;TERM&lt;/font&gt; &lt;font color=&quot;blue&quot;&gt;* &lt;/font&gt; &lt;font color=&quot;green&quot;&gt;&lt;br /&gt; &lt;/font&gt;">
<polygon fill="pink" stroke="transparent" points="200.18,-36 149.86,-36 149.86,-4 200.18,-4 200.18,-36"/>
<text text-anchor="start" x="157.61" y="-22.6" font-family="Work Sans" font-size="8.00"> </text>
<text text-anchor="start" x="159.83" y="-22.6" font-family="Work Sans" font-size="8.00">STATUS</text>
<text text-anchor="start" x="190.21" y="-22.6" font-family="Work Sans" font-size="8.00"> </text>
<text text-anchor="start" x="149.69" y="-14.6" font-family="Work Sans" font-size="8.00"> </text>
<text text-anchor="start" x="151.91" y="-14.6" font-family="Work Sans" font-size="8.00" fill="red">WH&#45;TERM</text>
<text text-anchor="start" x="190.57" y="-14.6" font-family="Work Sans" font-size="8.00"> </text>
<text text-anchor="start" x="192.79" y="-14.6" font-family="Work Sans" font-size="8.00" fill="blue">* </text>
<text text-anchor="start" x="198.13" y="-14.6" font-family="Work Sans" font-size="8.00"> </text>
<text text-anchor="start" x="173.91" y="-6.6" font-family="Work Sans" font-size="8.00" fill="green"> </text>
</a>
</g>
</g>
<!-- V72402&#45;&gt;V72141 -->
<g id="edge6" class="edge">
<title>V72402&#45;&gt;V72141</title>
<path fill="none" stroke="grey" stroke-width="0.5" d="M191.93,-235.68C195.46,-230.36 198.93,-224.18 201.02,-218 223.87,-150.41 242.19,-123.55 214.02,-58 211.09,-51.17 206.21,-45.01 200.87,-39.77"/>
<polygon fill="grey" stroke="grey" stroke-width="0.5" points="201.98,-38.4 197.12,-36.28 199.6,-40.97 201.98,-38.4"/>
<text text-anchor="middle" x="245.47" y="-135.6" font-family="Work Sans" font-size="8.00"> FOCUS &#160;&#160;</text>
</g>
<!-- V72056 -->
<g id="node3" class="node">
<title>V72056</title>
<g id="a_node3"><a xlink:href="http://trips.ihmc.us/lexicon/data/ONT::AT-SCALE-VALUE.xml" xlink:title="&lt;font color=&quot;green&quot;&gt;&lt;br /&gt;&lt;/font&gt; &lt;font color=&quot;black&quot;&gt;AT&#45;SCALE&#45;VALUE&lt;/font&gt; &lt;font color=&quot;green&quot;&gt;&lt;br /&gt;&lt;/font&gt; &lt;font color=&quot;red&quot;&gt;F&lt;/font&gt; &lt;font color=&quot;blue&quot;&gt;HOW&lt;/font&gt; &lt;font color=&quot;green&quot;&gt;&lt;br /&gt; &lt;/font&gt;">
<polygon fill="pink" stroke="transparent" points="152.37,-116 81.67,-116 81.67,-84 152.37,-84 152.37,-116"/>
<text text-anchor="start" x="81.6" y="-102.6" font-family="Work Sans" font-size="8.00"> </text>
<text text-anchor="start" x="83.82" y="-102.6" font-family="Work Sans" font-size="8.00">AT&#45;SCALE&#45;VALUE</text>
<text text-anchor="start" x="150.22" y="-102.6" font-family="Work Sans" font-size="8.00"> </text>
<text text-anchor="start" x="101.47" y="-94.6" font-family="Work Sans" font-size="8.00"> </text>
<text text-anchor="start" x="103.69" y="-94.6" font-family="Work Sans" font-size="8.00" fill="red">F</text>
<text text-anchor="start" x="108.58" y="-94.6" font-family="Work Sans" font-size="8.00"> </text>
<text text-anchor="start" x="110.8" y="-94.6" font-family="Work Sans" font-size="8.00" fill="blue">HOW</text>
<text text-anchor="start" x="130.35" y="-94.6" font-family="Work Sans" font-size="8.00"> </text>
<text text-anchor="start" x="115.91" y="-86.6" font-family="Work Sans" font-size="8.00" fill="green"> </text>
</a>
</g>
</g>
<!-- V72097&#45;&gt;V72056 -->
<g id="edge3" class="edge">
<title>V72097&#45;&gt;V72056</title>
<path fill="none" stroke="red" stroke-width="0.5" d="M117.02,-159.67C117.02,-148.58 117.02,-133.49 117.02,-121.38"/>
<polygon fill="red" stroke="red" stroke-width="0.5" points="118.77,-121.06 117.02,-116.06 115.27,-121.06 118.77,-121.06"/>
<text text-anchor="middle" x="137.99" y="-135.6" font-family="Work Sans" font-size="8.00"> FORMAL &#160;&#160;</text>
</g>
<!-- V72079 -->
<g id="node5" class="node">
<title>V72079</title>
<g id="a_node5"><a xlink:href="http://trips.ihmc.us/lexicon/data/ONT::MUSIC.xml" xlink:title="&lt;font color=&quot;green&quot;&gt;&lt;br /&gt;&lt;/font&gt; &lt;font color=&quot;black&quot;&gt;MUSIC&lt;/font&gt; &lt;font color=&quot;green&quot;&gt;&lt;br /&gt;&lt;/font&gt; &lt;font color=&quot;red&quot;&gt;THE&lt;/font&gt; &lt;font color=&quot;blue&quot;&gt;SONG&lt;/font&gt; &lt;font color=&quot;green&quot;&gt;&lt;br /&gt;&lt;/font&gt; &lt;font color=&quot;green&quot;&gt;song%1:10:00::&lt;/font&gt; &lt;font color=&quot;green&quot;&gt;&lt;br /&gt; &lt;/font&gt;">
<text text-anchor="start" x="14.91" y="-26.6" font-family="Work Sans" font-size="8.00"> </text>
<text text-anchor="start" x="17.13" y="-26.6" font-family="Work Sans" font-size="8.00">MUSIC</text>
<text text-anchor="start" x="42.91" y="-26.6" font-family="Work Sans" font-size="8.00"> </text>
<text text-anchor="start" x="6.91" y="-18.6" font-family="Work Sans" font-size="8.00"> </text>
<text text-anchor="start" x="9.13" y="-18.6" font-family="Work Sans" font-size="8.00" fill="red">THE</text>
<text text-anchor="start" x="25.13" y="-18.6" font-family="Work Sans" font-size="8.00"> </text>
<text text-anchor="start" x="27.35" y="-18.6" font-family="Work Sans" font-size="8.00" fill="blue">SONG</text>
<text text-anchor="start" x="50.91" y="-18.6" font-family="Work Sans" font-size="8.00"> </text>
<text text-anchor="start" x="0" y="-10.6" font-family="Work Sans" font-size="8.00"> </text>
<text text-anchor="start" x="2.22" y="-10.6" font-family="Work Sans" font-size="8.00" fill="green">song%1:10:00::</text>
<text text-anchor="start" x="57.82" y="-10.6" font-family="Work Sans" font-size="8.00"> </text>
<text text-anchor="start" x="28.91" y="-2.6" font-family="Work Sans" font-size="8.00" fill="green"> </text>
</a>
</g>
</g>
<!-- V72097&#45;&gt;V72079 -->
<g id="edge2" class="edge">
<title>V72097&#45;&gt;V72079</title>
<path fill="none" stroke="red" stroke-width="0.5" d="M97.15,-169.1C74.4,-161.16 38.23,-144.62 22.35,-116 10.28,-94.26 15.02,-65.31 21,-45.11"/>
<polygon fill="red" stroke="red" stroke-width="0.5" points="22.72,-45.46 22.54,-40.17 19.38,-44.42 22.72,-45.46"/>
<text text-anchor="middle" x="48.36" y="-97.6" font-family="Work Sans" font-size="8.00"> AFFECTED &#160;&#160;</text>
</g>
<!-- V72056&#45;&gt;V72141 -->
<g id="edge7" class="edge">
<title>V72056&#45;&gt;V72141</title>
<path fill="none" stroke="grey" stroke-width="0.5" d="M106.7,-83.84C102.58,-75.76 99.81,-65.89 104.58,-58 113.37,-43.45 129.99,-34.34 144.88,-28.8"/>
<polygon fill="grey" stroke="grey" stroke-width="0.5" points="145.71,-30.36 149.85,-27.05 144.56,-27.06 145.71,-30.36"/>
<text text-anchor="middle" x="126.24" y="-59.6" font-family="Work Sans" font-size="8.00"> GROUND &#160;&#160;</text>
</g>
<!-- V72056&#45;&gt;V72079 -->
<g id="edge1" class="edge">
<title>V72056&#45;&gt;V72079</title>
<path fill="none" stroke="blue" stroke-width="0.5" d="M84.06,-83.92C75.3,-78.98 66.24,-72.94 58.91,-66 52.43,-59.87 46.75,-52 42.18,-44.57"/>
<polygon fill="blue" stroke="blue" stroke-width="0.5" points="43.53,-43.42 39.48,-40.01 40.52,-45.2 43.53,-43.42"/>
<text text-anchor="middle" x="78.58" y="-59.6" font-family="Work Sans" font-size="8.00"> FIGURE &#160;&#160;</text>
</g>
<!-- V72141&#45;&gt;V72056 -->
<g id="edge4" class="edge">
<title>V72141&#45;&gt;V72056</title>
<path fill="none" stroke="grey" stroke-width="0.5" d="M169.2,-36.39C165.36,-45.48 159.79,-56.94 153.02,-66 149.29,-70.99 144.74,-75.83 140.15,-80.2"/>
<polygon fill="grey" stroke="grey" stroke-width="0.5" points="138.78,-79.07 136.29,-83.75 141.16,-81.65 138.78,-79.07"/>
<text text-anchor="middle" x="183.88" y="-59.6" font-family="Work Sans" font-size="8.00"> SUCHTHAT &#160;&#160;</text>
</g>
</g>
</svg>
