<?xml version="1.0" encoding="UTF-8" standalone="no"?>
<!DOCTYPE svg PUBLIC "-//W3C//DTD SVG 1.1//EN"
 "http://www.w3.org/Graphics/SVG/1.1/DTD/svg11.dtd">
<!-- Generated by graphviz version 2.43.0 (0)
 -->
<!-- Title: graph Pages: 1 -->
<svg width="225pt" height="284pt"
 viewBox="0.00 0.00 225.08 284.00" xmlns="http://www.w3.org/2000/svg" xmlns:xlink="http://www.w3.org/1999/xlink">
<g id="graph0" class="graph" transform="scale(1 1) rotate(0) translate(4 280)">
<title>graph</title>
<polygon fill="white" stroke="transparent" points="-4,4 -4,-280 221.08,-280 221.08,4 -4,4"/>
<!-- V72494 -->
<g id="node1" class="node">
<title>V72494</title>
<g id="a_node1"><a xlink:href="http://trips.ihmc.us/lexicon/data/ONT::SA_WH-QUESTION.xml" xlink:title="&lt;font color=&quot;green&quot;&gt;&lt;br /&gt;&lt;/font&gt; &lt;font color=&quot;black&quot;&gt;SA_WH&#45;QUESTION&lt;/font&gt; &lt;font color=&quot;green&quot;&gt;&lt;br /&gt;&lt;/font&gt; &lt;font color=&quot;red&quot;&gt;SPEECHACT&lt;/font&gt; &lt;font color=&quot;blue&quot;&gt;* &lt;/font&gt; &lt;font color=&quot;green&quot;&gt;&lt;br /&gt; &lt;/font&gt;">
<text text-anchor="start" x="95.52" y="-262.6" font-family="Work Sans" font-size="8.00"> </text>
<text text-anchor="start" x="97.74" y="-262.6" font-family="Work Sans" font-size="8.00">SA_WH&#45;QUESTION</text>
<text text-anchor="start" x="170.64" y="-262.6" font-family="Work Sans" font-size="8.00"> </text>
<text text-anchor="start" x="103.74" y="-254.6" font-family="Work Sans" font-size="8.00"> </text>
<text text-anchor="start" x="105.96" y="-254.6" font-family="Work Sans" font-size="8.00" fill="red">SPEECHACT</text>
<text text-anchor="start" x="154.86" y="-254.6" font-family="Work Sans" font-size="8.00"> </text>
<text text-anchor="start" x="157.08" y="-254.6" font-family="Work Sans" font-size="8.00" fill="blue">* </text>
<text text-anchor="start" x="162.42" y="-254.6" font-family="Work Sans" font-size="8.00"> </text>
<text text-anchor="start" x="133.08" y="-246.6" font-family="Work Sans" font-size="8.00" fill="green"> </text>
</a>
</g>
</g>
<!-- V72094 -->
<g id="node2" class="node">
<title>V72094</title>
<g id="a_node2"><a xlink:href="http://trips.ihmc.us/lexicon/data/ONT::OCCURRING.xml" xlink:title="&lt;font color=&quot;green&quot;&gt;&lt;br /&gt;&lt;/font&gt; &lt;font color=&quot;black&quot;&gt;OCCURRING&lt;/font&gt; &lt;font color=&quot;green&quot;&gt;&lt;br /&gt;&lt;/font&gt; &lt;font color=&quot;red&quot;&gt;F&lt;/font&gt; &lt;font color=&quot;blue&quot;&gt;GO&lt;/font&gt; &lt;font color=&quot;green&quot;&gt;&lt;br /&gt;&lt;/font&gt; &lt;font color=&quot;green&quot;&gt;go%2:30:01::&lt;/font&gt; &lt;font color=&quot;green&quot;&gt;&lt;br /&gt; &lt;/font&gt;">
<polygon fill="pink" stroke="transparent" points="111.97,-200 58.41,-200 58.41,-160 111.97,-160 111.97,-200"/>
<text text-anchor="start" x="58.3" y="-186.6" font-family="Work Sans" font-size="8.00"> </text>
<text text-anchor="start" x="60.52" y="-186.6" font-family="Work Sans" font-size="8.00">OCCURRING</text>
<text text-anchor="start" x="109.86" y="-186.6" font-family="Work Sans" font-size="8.00"> </text>
<text text-anchor="start" x="73.19" y="-178.6" font-family="Work Sans" font-size="8.00"> </text>
<text text-anchor="start" x="75.41" y="-178.6" font-family="Work Sans" font-size="8.00" fill="red">F</text>
<text text-anchor="start" x="80.3" y="-178.6" font-family="Work Sans" font-size="8.00"> </text>
<text text-anchor="start" x="82.52" y="-178.6" font-family="Work Sans" font-size="8.00" fill="blue">GO</text>
<text text-anchor="start" x="94.97" y="-178.6" font-family="Work Sans" font-size="8.00"> </text>
<text text-anchor="start" x="59.39" y="-170.6" font-family="Work Sans" font-size="8.00"> </text>
<text text-anchor="start" x="61.62" y="-170.6" font-family="Work Sans" font-size="8.00" fill="green">go%2:30:01::</text>
<text text-anchor="start" x="108.76" y="-170.6" font-family="Work Sans" font-size="8.00"> </text>
<text text-anchor="start" x="84.08" y="-162.6" font-family="Work Sans" font-size="8.00" fill="green"> </text>
</a>
</g>
</g>
<!-- V72494&#45;&gt;V72094 -->
<g id="edge4" class="edge">
<title>V72494&#45;&gt;V72094</title>
<path fill="none" stroke="grey" stroke-width="0.5" d="M124.74,-243.96C117.7,-232.74 107.94,-217.21 99.88,-204.38"/>
<polygon fill="grey" stroke="grey" stroke-width="0.5" points="101.36,-203.45 97.22,-200.14 98.39,-205.31 101.36,-203.45"/>
<text text-anchor="middle" x="135.9" y="-219.6" font-family="Work Sans" font-size="8.00"> CONTENT &#160;&#160;</text>
</g>
<!-- V72138 -->
<g id="node4" class="node">
<title>V72138</title>
<g id="a_node4"><a xlink:href="http://trips.ihmc.us/lexicon/data/ONT::METHOD.xml" xlink:title="&lt;font color=&quot;green&quot;&gt;&lt;br /&gt;&lt;/font&gt; &lt;font color=&quot;black&quot;&gt;METHOD&lt;/font&gt; &lt;font color=&quot;green&quot;&gt;&lt;br /&gt;&lt;/font&gt; &lt;font color=&quot;red&quot;&gt;WH&#45;TERM&lt;/font&gt; &lt;font color=&quot;blue&quot;&gt;* &lt;/font&gt; &lt;font color=&quot;green&quot;&gt;&lt;br /&gt; &lt;/font&gt;">
<polygon fill="pink" stroke="transparent" points="144.35,-32 94.03,-32 94.03,0 144.35,0 144.35,-32"/>
<text text-anchor="start" x="99.64" y="-18.6" font-family="Work Sans" font-size="8.00"> </text>
<text text-anchor="start" x="101.86" y="-18.6" font-family="Work Sans" font-size="8.00">METHOD</text>
<text text-anchor="start" x="136.52" y="-18.6" font-family="Work Sans" font-size="8.00"> </text>
<text text-anchor="start" x="93.86" y="-10.6" font-family="Work Sans" font-size="8.00"> </text>
<text text-anchor="start" x="96.08" y="-10.6" font-family="Work Sans" font-size="8.00" fill="red">WH&#45;TERM</text>
<text text-anchor="start" x="134.74" y="-10.6" font-family="Work Sans" font-size="8.00"> </text>
<text text-anchor="start" x="136.96" y="-10.6" font-family="Work Sans" font-size="8.00" fill="blue">* </text>
<text text-anchor="start" x="142.3" y="-10.6" font-family="Work Sans" font-size="8.00"> </text>
<text text-anchor="start" x="118.08" y="-2.6" font-family="Work Sans" font-size="8.00" fill="green"> </text>
</a>
</g>
</g>
<!-- V72494&#45;&gt;V72138 -->
<g id="edge5" class="edge">
<title>V72494&#45;&gt;V72138</title>
<path fill="none" stroke="grey" stroke-width="0.5" d="M151.38,-243.72C156.05,-238.58 160.54,-232.5 163.19,-226 188.42,-164.23 182.45,-141.39 169.19,-76 166.7,-63.7 165.63,-60.11 158.19,-50 154.41,-44.87 149.68,-40.01 144.83,-35.69"/>
<polygon fill="grey" stroke="grey" stroke-width="0.5" points="145.68,-34.11 140.75,-32.19 143.4,-36.77 145.68,-34.11"/>
<text text-anchor="middle" x="198.64" y="-135.6" font-family="Work Sans" font-size="8.00"> FOCUS &#160;&#160;</text>
</g>
<!-- V72055 -->
<g id="node3" class="node">
<title>V72055</title>
<g id="a_node3"><a xlink:href="http://trips.ihmc.us/lexicon/data/ONT::BY-MEANS-OF.xml" xlink:title="&lt;font color=&quot;green&quot;&gt;&lt;br /&gt;&lt;/font&gt; &lt;font color=&quot;black&quot;&gt;BY&#45;MEANS&#45;OF&lt;/font&gt; &lt;font color=&quot;green&quot;&gt;&lt;br /&gt;&lt;/font&gt; &lt;font color=&quot;red&quot;&gt;F&lt;/font&gt; &lt;font color=&quot;blue&quot;&gt;HOW&lt;/font&gt; &lt;font color=&quot;green&quot;&gt;&lt;br /&gt; &lt;/font&gt;">
<polygon fill="pink" stroke="transparent" points="81.96,-112 22.42,-112 22.42,-80 81.96,-80 81.96,-112"/>
<text text-anchor="start" x="22.56" y="-98.6" font-family="Work Sans" font-size="8.00"> </text>
<text text-anchor="start" x="24.78" y="-98.6" font-family="Work Sans" font-size="8.00">BY&#45;MEANS&#45;OF</text>
<text text-anchor="start" x="79.6" y="-98.6" font-family="Work Sans" font-size="8.00"> </text>
<text text-anchor="start" x="36.64" y="-90.6" font-family="Work Sans" font-size="8.00"> </text>
<text text-anchor="start" x="38.86" y="-90.6" font-family="Work Sans" font-size="8.00" fill="red">F</text>
<text text-anchor="start" x="43.75" y="-90.6" font-family="Work Sans" font-size="8.00"> </text>
<text text-anchor="start" x="45.97" y="-90.6" font-family="Work Sans" font-size="8.00" fill="blue">HOW</text>
<text text-anchor="start" x="65.52" y="-90.6" font-family="Work Sans" font-size="8.00"> </text>
<text text-anchor="start" x="51.08" y="-82.6" font-family="Work Sans" font-size="8.00" fill="green"> </text>
</a>
</g>
</g>
<!-- V72094&#45;&gt;V72055 -->
<g id="edge1" class="edge">
<title>V72094&#45;&gt;V72055</title>
<path fill="none" stroke="red" stroke-width="0.5" d="M58.27,-174.76C39.17,-170.19 14.84,-160.85 2.64,-142 -4.8,-130.52 5.08,-120.08 17.92,-112.16"/>
<polygon fill="red" stroke="red" stroke-width="0.5" points="18.92,-113.6 22.36,-109.57 17.16,-110.57 18.92,-113.6"/>
<text text-anchor="middle" x="24.97" y="-135.6" font-family="Work Sans" font-size="8.00"> METHOD &#160;&#160;</text>
</g>
<!-- V72079 -->
<g id="node5" class="node">
<title>V72079</title>
<g id="a_node5"><a xlink:href="http://trips.ihmc.us/lexicon/data/ONT::MUSIC.xml" xlink:title="&lt;font color=&quot;green&quot;&gt;&lt;br /&gt;&lt;/font&gt; &lt;font color=&quot;black&quot;&gt;MUSIC&lt;/font&gt; &lt;font color=&quot;green&quot;&gt;&lt;br /&gt;&lt;/font&gt; &lt;font color=&quot;red&quot;&gt;THE&lt;/font&gt; &lt;font color=&quot;blue&quot;&gt;SONG&lt;/font&gt; &lt;font color=&quot;green&quot;&gt;&lt;br /&gt;&lt;/font&gt; &lt;font color=&quot;green&quot;&gt;song%1:10:00::&lt;/font&gt; &lt;font color=&quot;green&quot;&gt;&lt;br /&gt; &lt;/font&gt;">
<text text-anchor="start" x="115.08" y="-102.6" font-family="Work Sans" font-size="8.00"> </text>
<text text-anchor="start" x="117.3" y="-102.6" font-family="Work Sans" font-size="8.00">MUSIC</text>
<text text-anchor="start" x="143.08" y="-102.6" font-family="Work Sans" font-size="8.00"> </text>
<text text-anchor="start" x="107.08" y="-94.6" font-family="Work Sans" font-size="8.00"> </text>
<text text-anchor="start" x="109.3" y="-94.6" font-family="Work Sans" font-size="8.00" fill="red">THE</text>
<text text-anchor="start" x="125.3" y="-94.6" font-family="Work Sans" font-size="8.00"> </text>
<text text-anchor="start" x="127.52" y="-94.6" font-family="Work Sans" font-size="8.00" fill="blue">SONG</text>
<text text-anchor="start" x="151.08" y="-94.6" font-family="Work Sans" font-size="8.00"> </text>
<text text-anchor="start" x="100.17" y="-86.6" font-family="Work Sans" font-size="8.00"> </text>
<text text-anchor="start" x="102.39" y="-86.6" font-family="Work Sans" font-size="8.00" fill="green">song%1:10:00::</text>
<text text-anchor="start" x="157.99" y="-86.6" font-family="Work Sans" font-size="8.00"> </text>
<text text-anchor="start" x="129.08" y="-78.6" font-family="Work Sans" font-size="8.00" fill="green"> </text>
</a>
</g>
</g>
<!-- V72094&#45;&gt;V72079 -->
<g id="edge7" class="edge">
<title>V72094&#45;&gt;V72079</title>
<path fill="none" stroke="red" stroke-width="0.5" d="M97.74,-159.63C101.24,-154.02 104.97,-147.82 108.19,-142 111.95,-135.2 115.77,-127.66 119.15,-120.73"/>
<polygon fill="red" stroke="red" stroke-width="0.5" points="120.81,-121.31 121.4,-116.05 117.66,-119.79 120.81,-121.31"/>
<text text-anchor="middle" x="134.16" y="-135.6" font-family="Work Sans" font-size="8.00"> NEUTRAL &#160;&#160;</text>
</g>
<!-- V72055&#45;&gt;V72094 -->
<g id="edge6" class="edge">
<title>V72055&#45;&gt;V72094</title>
<path fill="none" stroke="grey" stroke-width="0.5" d="M57.63,-112.08C60.85,-120.85 65.07,-132.1 69.08,-142 70.82,-146.29 72.73,-150.83 74.61,-155.21"/>
<polygon fill="grey" stroke="grey" stroke-width="0.5" points="73.04,-155.98 76.64,-159.88 76.25,-154.59 73.04,-155.98"/>
<text text-anchor="middle" x="87.75" y="-135.6" font-family="Work Sans" font-size="8.00"> FIGURE &#160;&#160;</text>
</g>
<!-- V72055&#45;&gt;V72138 -->
<g id="edge2" class="edge">
<title>V72055&#45;&gt;V72138</title>
<path fill="none" stroke="grey" stroke-width="0.5" d="M48.59,-79.7C47.28,-70.42 47.26,-58.73 52.75,-50 60.8,-37.18 75.47,-29.17 88.98,-24.27"/>
<polygon fill="grey" stroke="grey" stroke-width="0.5" points="89.72,-25.86 93.89,-22.59 88.59,-22.55 89.72,-25.86"/>
<text text-anchor="middle" x="74.41" y="-51.6" font-family="Work Sans" font-size="8.00"> GROUND &#160;&#160;</text>
</g>
<!-- V72138&#45;&gt;V72055 -->
<g id="edge3" class="edge">
<title>V72138&#45;&gt;V72055</title>
<path fill="none" stroke="grey" stroke-width="0.5" d="M112.75,-32.29C108.91,-40.4 103.55,-50.26 97.19,-58 91.66,-64.73 84.76,-71.12 78.03,-76.64"/>
<polygon fill="grey" stroke="grey" stroke-width="0.5" points="76.7,-75.47 73.88,-79.96 78.88,-78.2 76.7,-75.47"/>
<text text-anchor="middle" x="128.05" y="-51.6" font-family="Work Sans" font-size="8.00"> SUCHTHAT &#160;&#160;</text>
</g>
</g>
</svg>
