<?xml version="1.0" encoding="UTF-8" standalone="no"?>
<!DOCTYPE svg PUBLIC "-//W3C//DTD SVG 1.1//EN"
 "http://www.w3.org/Graphics/SVG/1.1/DTD/svg11.dtd">
<!-- Generated by graphviz version 2.43.0 (0)
 -->
<!-- Title: graph Pages: 1 -->
<svg width="247pt" height="284pt"
 viewBox="0.00 0.00 246.74 284.00" xmlns="http://www.w3.org/2000/svg" xmlns:xlink="http://www.w3.org/1999/xlink">
<g id="graph0" class="graph" transform="scale(1 1) rotate(0) translate(4 280)">
<title>graph</title>
<polygon fill="white" stroke="transparent" points="-4,4 -4,-280 242.74,-280 242.74,4 -4,4"/>
<!-- V72494 -->
<g id="node1" class="node">
<title>V72494</title>
<g id="a_node1"><a xlink:href="http://trips.ihmc.us/lexicon/data/ONT::SA_WH-QUESTION.xml" xlink:title="&lt;font color=&quot;green&quot;&gt;&lt;br /&gt;&lt;/font&gt; &lt;font color=&quot;black&quot;&gt;SA_WH&#45;QUESTION&lt;/font&gt; &lt;font color=&quot;green&quot;&gt;&lt;br /&gt;&lt;/font&gt; &lt;font color=&quot;red&quot;&gt;SPEECHACT&lt;/font&gt; &lt;font color=&quot;blue&quot;&gt;* &lt;/font&gt; &lt;font color=&quot;green&quot;&gt;&lt;br /&gt; &lt;/font&gt;">
<text text-anchor="start" x="114.18" y="-262.6" font-family="Work Sans" font-size="8.00"> </text>
<text text-anchor="start" x="116.41" y="-262.6" font-family="Work Sans" font-size="8.00">SA_WH&#45;QUESTION</text>
<text text-anchor="start" x="189.3" y="-262.6" font-family="Work Sans" font-size="8.00"> </text>
<text text-anchor="start" x="122.4" y="-254.6" font-family="Work Sans" font-size="8.00"> </text>
<text text-anchor="start" x="124.62" y="-254.6" font-family="Work Sans" font-size="8.00" fill="red">SPEECHACT</text>
<text text-anchor="start" x="173.52" y="-254.6" font-family="Work Sans" font-size="8.00"> </text>
<text text-anchor="start" x="175.75" y="-254.6" font-family="Work Sans" font-size="8.00" fill="blue">* </text>
<text text-anchor="start" x="181.08" y="-254.6" font-family="Work Sans" font-size="8.00"> </text>
<text text-anchor="start" x="151.74" y="-246.6" font-family="Work Sans" font-size="8.00" fill="green"> </text>
</a>
</g>
</g>
<!-- V72094 -->
<g id="node2" class="node">
<title>V72094</title>
<g id="a_node2"><a xlink:href="http://trips.ihmc.us/lexicon/data/ONT::OCCURRING.xml" xlink:title="&lt;font color=&quot;green&quot;&gt;&lt;br /&gt;&lt;/font&gt; &lt;font color=&quot;black&quot;&gt;OCCURRING&lt;/font&gt; &lt;font color=&quot;green&quot;&gt;&lt;br /&gt;&lt;/font&gt; &lt;font color=&quot;red&quot;&gt;F&lt;/font&gt; &lt;font color=&quot;blue&quot;&gt;GO&lt;/font&gt; &lt;font color=&quot;green&quot;&gt;&lt;br /&gt;&lt;/font&gt; &lt;font color=&quot;green&quot;&gt;go%2:30:01::&lt;/font&gt; &lt;font color=&quot;green&quot;&gt;&lt;br /&gt; &lt;/font&gt;">
<polygon fill="pink" stroke="transparent" stroke-width="0.5" points="60.08,-160 86.85,-160 86.85,-200 60.08,-200 60.08,-160"/>
<polygon fill="lightblue" stroke="transparent" stroke-width="0.5" points="86.85,-160 113.63,-160 113.63,-200 86.85,-200 86.85,-160"/>
<polygon fill="none" stroke="transparent" points="113.63,-200 60.08,-200 60.08,-160 113.63,-160 113.63,-200"/>
<text text-anchor="start" x="59.96" y="-186.6" font-family="Work Sans" font-size="8.00"> </text>
<text text-anchor="start" x="62.19" y="-186.6" font-family="Work Sans" font-size="8.00">OCCURRING</text>
<text text-anchor="start" x="111.52" y="-186.6" font-family="Work Sans" font-size="8.00"> </text>
<text text-anchor="start" x="74.85" y="-178.6" font-family="Work Sans" font-size="8.00"> </text>
<text text-anchor="start" x="77.08" y="-178.6" font-family="Work Sans" font-size="8.00" fill="red">F</text>
<text text-anchor="start" x="81.96" y="-178.6" font-family="Work Sans" font-size="8.00"> </text>
<text text-anchor="start" x="84.19" y="-178.6" font-family="Work Sans" font-size="8.00" fill="blue">GO</text>
<text text-anchor="start" x="96.63" y="-178.6" font-family="Work Sans" font-size="8.00"> </text>
<text text-anchor="start" x="61.06" y="-170.6" font-family="Work Sans" font-size="8.00"> </text>
<text text-anchor="start" x="63.28" y="-170.6" font-family="Work Sans" font-size="8.00" fill="green">go%2:30:01::</text>
<text text-anchor="start" x="110.43" y="-170.6" font-family="Work Sans" font-size="8.00"> </text>
<text text-anchor="start" x="85.74" y="-162.6" font-family="Work Sans" font-size="8.00" fill="green"> </text>
</a>
</g>
</g>
<!-- V72494&#45;&gt;V72094 -->
<g id="edge4" class="edge">
<title>V72494&#45;&gt;V72094</title>
<path fill="none" stroke="grey" stroke-width="0.5" d="M140.13,-243.96C130.55,-232.65 117.27,-216.94 106.35,-204.05"/>
<polygon fill="grey" stroke="grey" stroke-width="0.5" points="107.62,-202.83 103.05,-200.14 104.95,-205.09 107.62,-202.83"/>
<text text-anchor="middle" x="146.56" y="-219.6" font-family="Work Sans" font-size="8.00"> CONTENT &#160;&#160;</text>
</g>
<!-- V72138 -->
<g id="node4" class="node">
<title>V72138</title>
<g id="a_node4"><a xlink:href="http://trips.ihmc.us/lexicon/data/ONT::METHOD.xml" xlink:title="&lt;font color=&quot;green&quot;&gt;&lt;br /&gt;&lt;/font&gt; &lt;font color=&quot;black&quot;&gt;METHOD&lt;/font&gt; &lt;font color=&quot;green&quot;&gt;&lt;br /&gt;&lt;/font&gt; &lt;font color=&quot;red&quot;&gt;WH&#45;TERM&lt;/font&gt; &lt;font color=&quot;blue&quot;&gt;* &lt;/font&gt; &lt;font color=&quot;green&quot;&gt;&lt;br /&gt; &lt;/font&gt;">
<polygon fill="pink" stroke="transparent" stroke-width="0.5" points="87.69,0 112.85,0 112.85,-32 87.69,-32 87.69,0"/>
<polygon fill="lightblue" stroke="transparent" stroke-width="0.5" points="112.85,0 138.01,0 138.01,-32 112.85,-32 112.85,0"/>
<polygon fill="none" stroke="transparent" points="138.01,-32 87.69,-32 87.69,0 138.01,0 138.01,-32"/>
<text text-anchor="start" x="93.3" y="-18.6" font-family="Work Sans" font-size="8.00"> </text>
<text text-anchor="start" x="95.52" y="-18.6" font-family="Work Sans" font-size="8.00">METHOD</text>
<text text-anchor="start" x="130.19" y="-18.6" font-family="Work Sans" font-size="8.00"> </text>
<text text-anchor="start" x="87.52" y="-10.6" font-family="Work Sans" font-size="8.00"> </text>
<text text-anchor="start" x="89.75" y="-10.6" font-family="Work Sans" font-size="8.00" fill="red">WH&#45;TERM</text>
<text text-anchor="start" x="128.4" y="-10.6" font-family="Work Sans" font-size="8.00"> </text>
<text text-anchor="start" x="130.62" y="-10.6" font-family="Work Sans" font-size="8.00" fill="blue">* </text>
<text text-anchor="start" x="135.96" y="-10.6" font-family="Work Sans" font-size="8.00"> </text>
<text text-anchor="start" x="111.74" y="-2.6" font-family="Work Sans" font-size="8.00" fill="green"> </text>
</a>
</g>
</g>
<!-- V72494&#45;&gt;V72138 -->
<g id="edge2" class="edge">
<title>V72494&#45;&gt;V72138</title>
<path fill="none" stroke="grey" stroke-width="0.5" d="M164.39,-243.96C167.98,-238.56 171.59,-232.26 173.85,-226 196.6,-163.03 217.1,-136.23 187.85,-76 178.46,-56.66 159.31,-41.76 142.71,-31.78"/>
<polygon fill="grey" stroke="grey" stroke-width="0.5" points="143.31,-30.1 138.11,-29.09 141.55,-33.12 143.31,-30.1"/>
<text text-anchor="middle" x="220.3" y="-135.6" font-family="Work Sans" font-size="8.00"> FOCUS &#160;&#160;</text>
</g>
<!-- V72055 -->
<g id="node3" class="node">
<title>V72055</title>
<g id="a_node3"><a xlink:href="http://trips.ihmc.us/lexicon/data/ONT::BY-MEANS-OF.xml" xlink:title="&lt;font color=&quot;green&quot;&gt;&lt;br /&gt;&lt;/font&gt; &lt;font color=&quot;black&quot;&gt;BY&#45;MEANS&#45;OF&lt;/font&gt; &lt;font color=&quot;green&quot;&gt;&lt;br /&gt;&lt;/font&gt; &lt;font color=&quot;red&quot;&gt;F&lt;/font&gt; &lt;font color=&quot;blue&quot;&gt;HOW&lt;/font&gt; &lt;font color=&quot;green&quot;&gt;&lt;br /&gt; &lt;/font&gt;">
<polygon fill="pink" stroke="transparent" stroke-width="0.5" points="16.08,-80 45.85,-80 45.85,-112 16.08,-112 16.08,-80"/>
<polygon fill="lightblue" stroke="transparent" stroke-width="0.5" points="45.85,-80 75.62,-80 75.62,-112 45.85,-112 45.85,-80"/>
<polygon fill="none" stroke="transparent" points="75.62,-112 16.08,-112 16.08,-80 75.62,-80 75.62,-112"/>
<text text-anchor="start" x="16.22" y="-98.6" font-family="Work Sans" font-size="8.00"> </text>
<text text-anchor="start" x="18.44" y="-98.6" font-family="Work Sans" font-size="8.00">BY&#45;MEANS&#45;OF</text>
<text text-anchor="start" x="73.27" y="-98.6" font-family="Work Sans" font-size="8.00"> </text>
<text text-anchor="start" x="30.3" y="-90.6" font-family="Work Sans" font-size="8.00"> </text>
<text text-anchor="start" x="32.52" y="-90.6" font-family="Work Sans" font-size="8.00" fill="red">F</text>
<text text-anchor="start" x="37.41" y="-90.6" font-family="Work Sans" font-size="8.00"> </text>
<text text-anchor="start" x="39.63" y="-90.6" font-family="Work Sans" font-size="8.00" fill="blue">HOW</text>
<text text-anchor="start" x="59.18" y="-90.6" font-family="Work Sans" font-size="8.00"> </text>
<text text-anchor="start" x="44.74" y="-82.6" font-family="Work Sans" font-size="8.00" fill="green"> </text>
</a>
</g>
</g>
<!-- V72094&#45;&gt;V72055 -->
<g id="edge5" class="edge">
<title>V72094&#45;&gt;V72055</title>
<path fill="none" stroke="blue" d="M59.82,-175.01C40.28,-170.56 15.2,-161.26 2.63,-142 -3.64,-132.4 2.67,-123.04 12.23,-115.37"/>
<polygon fill="blue" stroke="blue" points="13.53,-116.58 16.49,-112.19 11.44,-113.77 13.53,-116.58"/>
<text text-anchor="middle" x="3.96" y="-135.6" font-family="Work Sans" font-size="8.00">.</text>
</g>
<!-- V72094&#45;&gt;V72055 -->
<g id="edge7" class="edge">
<title>V72094&#45;&gt;V72055</title>
<path fill="none" stroke="red" d="M59.9,-172.14C44.52,-166.69 26.53,-157.36 17.3,-142 12.14,-133.41 16.45,-124.04 23.15,-116.08"/>
<polygon fill="red" stroke="red" points="24.52,-117.17 26.6,-112.3 21.94,-114.81 24.52,-117.17"/>
<text text-anchor="middle" x="39.63" y="-135.6" font-family="Work Sans" font-size="8.00"> METHOD &#160;&#160;</text>
</g>
<!-- V72079 -->
<g id="node5" class="node">
<title>V72079</title>
<g id="a_node5"><a xlink:href="http://trips.ihmc.us/lexicon/data/ONT::MUSIC.xml" xlink:title="&lt;font color=&quot;green&quot;&gt;&lt;br /&gt;&lt;/font&gt; &lt;font color=&quot;black&quot;&gt;MUSIC&lt;/font&gt; &lt;font color=&quot;green&quot;&gt;&lt;br /&gt;&lt;/font&gt; &lt;font color=&quot;red&quot;&gt;THE&lt;/font&gt; &lt;font color=&quot;blue&quot;&gt;SONG&lt;/font&gt; &lt;font color=&quot;green&quot;&gt;&lt;br /&gt;&lt;/font&gt; &lt;font color=&quot;green&quot;&gt;song%1:10:00::&lt;/font&gt; &lt;font color=&quot;green&quot;&gt;&lt;br /&gt; &lt;/font&gt;">
<text text-anchor="start" x="133.74" y="-102.6" font-family="Work Sans" font-size="8.00"> </text>
<text text-anchor="start" x="135.96" y="-102.6" font-family="Work Sans" font-size="8.00">MUSIC</text>
<text text-anchor="start" x="161.74" y="-102.6" font-family="Work Sans" font-size="8.00"> </text>
<text text-anchor="start" x="125.74" y="-94.6" font-family="Work Sans" font-size="8.00"> </text>
<text text-anchor="start" x="127.96" y="-94.6" font-family="Work Sans" font-size="8.00" fill="red">THE</text>
<text text-anchor="start" x="143.96" y="-94.6" font-family="Work Sans" font-size="8.00"> </text>
<text text-anchor="start" x="146.19" y="-94.6" font-family="Work Sans" font-size="8.00" fill="blue">SONG</text>
<text text-anchor="start" x="169.74" y="-94.6" font-family="Work Sans" font-size="8.00"> </text>
<text text-anchor="start" x="118.83" y="-86.6" font-family="Work Sans" font-size="8.00"> </text>
<text text-anchor="start" x="121.05" y="-86.6" font-family="Work Sans" font-size="8.00" fill="green">song%1:10:00::</text>
<text text-anchor="start" x="176.65" y="-86.6" font-family="Work Sans" font-size="8.00"> </text>
<text text-anchor="start" x="147.74" y="-78.6" font-family="Work Sans" font-size="8.00" fill="green"> </text>
</a>
</g>
</g>
<!-- V72094&#45;&gt;V72079 -->
<g id="edge1" class="edge">
<title>V72094&#45;&gt;V72079</title>
<path fill="none" stroke="red" stroke-width="0.5" d="M101.23,-159.98C110.17,-148.16 121.72,-132.89 131.21,-120.34"/>
<polygon fill="red" stroke="red" stroke-width="0.5" points="132.72,-121.24 134.34,-116.2 129.93,-119.13 132.72,-121.24"/>
<text text-anchor="middle" x="141.82" y="-135.6" font-family="Work Sans" font-size="8.00"> NEUTRAL &#160;&#160;</text>
</g>
<!-- V72055&#45;&gt;V72094 -->
<g id="edge3" class="edge">
<title>V72055&#45;&gt;V72094</title>
<path fill="none" stroke="blue" stroke-width="0.5" d="M53.69,-112.09C57.14,-118.78 61.23,-126.77 64.85,-134 68.27,-140.82 71.93,-148.25 75.27,-155.08"/>
<polygon fill="blue" stroke="blue" stroke-width="0.5" points="73.75,-155.96 77.52,-159.69 76.9,-154.43 73.75,-155.96"/>
<text text-anchor="middle" x="88.41" y="-135.6" font-family="Work Sans" font-size="8.00"> FIGURE &#160;&#160;</text>
</g>
<!-- V72055&#45;&gt;V72138 -->
<g id="edge6" class="edge">
<title>V72055&#45;&gt;V72138</title>
<path fill="none" stroke="grey" stroke-width="0.5" d="M42.26,-79.7C40.94,-70.42 40.92,-58.73 46.41,-50 54.47,-37.18 69.13,-29.17 82.64,-24.27"/>
<polygon fill="grey" stroke="grey" stroke-width="0.5" points="83.39,-25.86 87.56,-22.59 82.26,-22.55 83.39,-25.86"/>
<text text-anchor="middle" x="69.08" y="-51.6" font-family="Work Sans" font-size="8.00"> GROUND &#160;&#160;</text>
</g>
<!-- V72138&#45;&gt;V72055 -->
<g id="edge8" class="edge">
<title>V72138&#45;&gt;V72055</title>
<path fill="none" stroke="grey" stroke-width="0.5" d="M106.41,-32.29C102.57,-40.4 97.21,-50.26 90.85,-58 85.33,-64.73 78.42,-71.12 71.7,-76.64"/>
<polygon fill="grey" stroke="grey" stroke-width="0.5" points="70.36,-75.47 67.55,-79.96 72.55,-78.2 70.36,-75.47"/>
<text text-anchor="middle" x="121.71" y="-51.6" font-family="Work Sans" font-size="8.00"> SUCHTHAT &#160;&#160;</text>
</g>
</g>
</svg>
