<?xml version="1.0" encoding="UTF-8" standalone="no"?>
<!DOCTYPE svg PUBLIC "-//W3C//DTD SVG 1.1//EN"
 "http://www.w3.org/Graphics/SVG/1.1/DTD/svg11.dtd">
<!-- Generated by graphviz version 2.43.0 (0)
 -->
<!-- Title: graph Pages: 1 -->
<svg width="219pt" height="276pt"
 viewBox="0.00 0.00 219.31 276.00" xmlns="http://www.w3.org/2000/svg" xmlns:xlink="http://www.w3.org/1999/xlink">
<g id="graph0" class="graph" transform="scale(1 1) rotate(0) translate(4 272)">
<title>graph</title>
<polygon fill="white" stroke="transparent" points="-4,4 -4,-272 215.31,-272 215.31,4 -4,4"/>
<!-- V72516 -->
<g id="node1" class="node">
<title>V72516</title>
<g id="a_node1"><a xlink:href="http://trips.ihmc.us/lexicon/data/ONT::SA_WH-QUESTION.xml" xlink:title="&lt;font color=&quot;green&quot;&gt;&lt;br /&gt;&lt;/font&gt; &lt;font color=&quot;black&quot;&gt;SA_WH&#45;QUESTION&lt;/font&gt; &lt;font color=&quot;green&quot;&gt;&lt;br /&gt;&lt;/font&gt; &lt;font color=&quot;red&quot;&gt;SPEECHACT&lt;/font&gt; &lt;font color=&quot;blue&quot;&gt;* &lt;/font&gt; &lt;font color=&quot;green&quot;&gt;&lt;br /&gt; &lt;/font&gt;">
<text text-anchor="start" x="108.75" y="-254.6" font-family="Work Sans" font-size="8.00"> </text>
<text text-anchor="start" x="110.98" y="-254.6" font-family="Work Sans" font-size="8.00">SA_WH&#45;QUESTION</text>
<text text-anchor="start" x="183.87" y="-254.6" font-family="Work Sans" font-size="8.00"> </text>
<text text-anchor="start" x="116.97" y="-246.6" font-family="Work Sans" font-size="8.00"> </text>
<text text-anchor="start" x="119.2" y="-246.6" font-family="Work Sans" font-size="8.00" fill="red">SPEECHACT</text>
<text text-anchor="start" x="168.09" y="-246.6" font-family="Work Sans" font-size="8.00"> </text>
<text text-anchor="start" x="170.32" y="-246.6" font-family="Work Sans" font-size="8.00" fill="blue">* </text>
<text text-anchor="start" x="175.65" y="-246.6" font-family="Work Sans" font-size="8.00"> </text>
<text text-anchor="start" x="146.31" y="-238.6" font-family="Work Sans" font-size="8.00" fill="green"> </text>
</a>
</g>
</g>
<!-- V72100 -->
<g id="node2" class="node">
<title>V72100</title>
<g id="a_node2"><a xlink:href="http://trips.ihmc.us/lexicon/data/ONT::SHOULD-BE-AT.xml" xlink:title="&lt;font color=&quot;green&quot;&gt;&lt;br /&gt;&lt;/font&gt; &lt;font color=&quot;black&quot;&gt;SHOULD&#45;BE&#45;AT&lt;/font&gt; &lt;font color=&quot;green&quot;&gt;&lt;br /&gt;&lt;/font&gt; &lt;font color=&quot;red&quot;&gt;F&lt;/font&gt; &lt;font color=&quot;blue&quot;&gt;GO&lt;/font&gt; &lt;font color=&quot;green&quot;&gt;&lt;br /&gt; &lt;/font&gt;">
<polygon fill="lightblue" stroke="transparent" points="144.34,-192 80.5,-192 80.5,-160 144.34,-160 144.34,-192"/>
<text text-anchor="start" x="80.71" y="-178.6" font-family="Work Sans" font-size="8.00"> </text>
<text text-anchor="start" x="82.94" y="-178.6" font-family="Work Sans" font-size="8.00">SHOULD&#45;BE&#45;AT</text>
<text text-anchor="start" x="141.91" y="-178.6" font-family="Work Sans" font-size="8.00"> </text>
<text text-anchor="start" x="100.42" y="-170.6" font-family="Work Sans" font-size="8.00"> </text>
<text text-anchor="start" x="102.65" y="-170.6" font-family="Work Sans" font-size="8.00" fill="red">F</text>
<text text-anchor="start" x="107.53" y="-170.6" font-family="Work Sans" font-size="8.00"> </text>
<text text-anchor="start" x="109.76" y="-170.6" font-family="Work Sans" font-size="8.00" fill="blue">GO</text>
<text text-anchor="start" x="122.2" y="-170.6" font-family="Work Sans" font-size="8.00"> </text>
<text text-anchor="start" x="111.31" y="-162.6" font-family="Work Sans" font-size="8.00" fill="green"> </text>
</a>
</g>
</g>
<!-- V72516&#45;&gt;V72100 -->
<g id="edge1" class="edge">
<title>V72516&#45;&gt;V72100</title>
<path fill="none" stroke="grey" stroke-width="0.5" d="M131.95,-235.7C127.46,-230.47 122.98,-224.34 120.01,-218 117.02,-211.63 115.21,-204.18 114.11,-197.4"/>
<polygon fill="grey" stroke="grey" stroke-width="0.5" points="115.84,-197.07 113.4,-192.37 112.37,-197.56 115.84,-197.07"/>
<text text-anchor="middle" x="143.13" y="-211.6" font-family="Work Sans" font-size="8.00"> CONTENT &#160;&#160;</text>
</g>
<!-- V72141 -->
<g id="node4" class="node">
<title>V72141</title>
<g id="a_node4"><a xlink:href="http://trips.ihmc.us/lexicon/data/ONT::STATUS.xml" xlink:title="&lt;font color=&quot;green&quot;&gt;&lt;br /&gt;&lt;/font&gt; &lt;font color=&quot;black&quot;&gt;STATUS&lt;/font&gt; &lt;font color=&quot;green&quot;&gt;&lt;br /&gt;&lt;/font&gt; &lt;font color=&quot;red&quot;&gt;WH&#45;TERM&lt;/font&gt; &lt;font color=&quot;blue&quot;&gt;* &lt;/font&gt; &lt;font color=&quot;green&quot;&gt;&lt;br /&gt; &lt;/font&gt;">
<polygon fill="lightblue" stroke="transparent" points="127.59,-32 77.26,-32 77.26,0 127.59,0 127.59,-32"/>
<text text-anchor="start" x="85.01" y="-18.6" font-family="Work Sans" font-size="8.00"> </text>
<text text-anchor="start" x="87.23" y="-18.6" font-family="Work Sans" font-size="8.00">STATUS</text>
<text text-anchor="start" x="117.61" y="-18.6" font-family="Work Sans" font-size="8.00"> </text>
<text text-anchor="start" x="77.09" y="-10.6" font-family="Work Sans" font-size="8.00"> </text>
<text text-anchor="start" x="79.32" y="-10.6" font-family="Work Sans" font-size="8.00" fill="red">WH&#45;TERM</text>
<text text-anchor="start" x="117.97" y="-10.6" font-family="Work Sans" font-size="8.00"> </text>
<text text-anchor="start" x="120.2" y="-10.6" font-family="Work Sans" font-size="8.00" fill="blue">* </text>
<text text-anchor="start" x="125.53" y="-10.6" font-family="Work Sans" font-size="8.00"> </text>
<text text-anchor="start" x="101.31" y="-2.6" font-family="Work Sans" font-size="8.00" fill="green"> </text>
</a>
</g>
</g>
<!-- V72516&#45;&gt;V72141 -->
<g id="edge5" class="edge">
<title>V72516&#45;&gt;V72141</title>
<path fill="none" stroke="grey" stroke-width="0.5" d="M159.07,-235.7C162.45,-230.38 165.69,-224.19 167.42,-218 184.45,-157.07 176.91,-136.19 157.42,-76 152.19,-59.84 139.57,-45.75 127.74,-35.39"/>
<polygon fill="grey" stroke="grey" stroke-width="0.5" points="128.71,-33.93 123.77,-32.03 126.45,-36.6 128.71,-33.93"/>
<text text-anchor="middle" x="192.87" y="-135.6" font-family="Work Sans" font-size="8.00"> FOCUS &#160;&#160;</text>
</g>
<!-- V72056 -->
<g id="node3" class="node">
<title>V72056</title>
<g id="a_node3"><a xlink:href="http://trips.ihmc.us/lexicon/data/ONT::AT-SCALE-VALUE.xml" xlink:title="&lt;font color=&quot;green&quot;&gt;&lt;br /&gt;&lt;/font&gt; &lt;font color=&quot;black&quot;&gt;AT&#45;SCALE&#45;VALUE&lt;/font&gt; &lt;font color=&quot;green&quot;&gt;&lt;br /&gt;&lt;/font&gt; &lt;font color=&quot;red&quot;&gt;F&lt;/font&gt; &lt;font color=&quot;blue&quot;&gt;HOW&lt;/font&gt; &lt;font color=&quot;green&quot;&gt;&lt;br /&gt; &lt;/font&gt;">
<polygon fill="lightblue" stroke="transparent" points="70.77,-112 0.08,-112 0.08,-80 70.77,-80 70.77,-112"/>
<text text-anchor="start" x="0" y="-98.6" font-family="Work Sans" font-size="8.00"> </text>
<text text-anchor="start" x="2.22" y="-98.6" font-family="Work Sans" font-size="8.00">AT&#45;SCALE&#45;VALUE</text>
<text text-anchor="start" x="68.62" y="-98.6" font-family="Work Sans" font-size="8.00"> </text>
<text text-anchor="start" x="19.87" y="-90.6" font-family="Work Sans" font-size="8.00"> </text>
<text text-anchor="start" x="22.09" y="-90.6" font-family="Work Sans" font-size="8.00" fill="red">F</text>
<text text-anchor="start" x="26.98" y="-90.6" font-family="Work Sans" font-size="8.00"> </text>
<text text-anchor="start" x="29.2" y="-90.6" font-family="Work Sans" font-size="8.00" fill="blue">HOW</text>
<text text-anchor="start" x="48.75" y="-90.6" font-family="Work Sans" font-size="8.00"> </text>
<text text-anchor="start" x="34.31" y="-82.6" font-family="Work Sans" font-size="8.00" fill="green"> </text>
</a>
</g>
</g>
<!-- V72100&#45;&gt;V72056 -->
<g id="edge2" class="edge">
<title>V72100&#45;&gt;V72056</title>
<path fill="none" stroke="blue" stroke-width="0.5" d="M81.92,-159.88C73.89,-154.94 65.68,-148.91 59.23,-142 52.41,-134.7 46.97,-125.07 43.02,-116.59"/>
<polygon fill="blue" stroke="blue" stroke-width="0.5" points="44.62,-115.87 40.98,-112.02 41.42,-117.3 44.62,-115.87"/>
<text text-anchor="middle" x="83.02" y="-135.6" font-family="Work Sans" font-size="8.00"> LOCATION &#160;&#160;</text>
</g>
<!-- V72079 -->
<g id="node5" class="node">
<title>V72079</title>
<g id="a_node5"><a xlink:href="http://trips.ihmc.us/lexicon/data/ONT::MUSIC.xml" xlink:title="&lt;font color=&quot;green&quot;&gt;&lt;br /&gt;&lt;/font&gt; &lt;font color=&quot;black&quot;&gt;MUSIC&lt;/font&gt; &lt;font color=&quot;green&quot;&gt;&lt;br /&gt;&lt;/font&gt; &lt;font color=&quot;red&quot;&gt;THE&lt;/font&gt; &lt;font color=&quot;blue&quot;&gt;SONG&lt;/font&gt; &lt;font color=&quot;green&quot;&gt;&lt;br /&gt;&lt;/font&gt; &lt;font color=&quot;green&quot;&gt;song%1:10:00::&lt;/font&gt; &lt;font color=&quot;green&quot;&gt;&lt;br /&gt; &lt;/font&gt;">
<text text-anchor="start" x="103.31" y="-102.6" font-family="Work Sans" font-size="8.00"> </text>
<text text-anchor="start" x="105.54" y="-102.6" font-family="Work Sans" font-size="8.00">MUSIC</text>
<text text-anchor="start" x="131.31" y="-102.6" font-family="Work Sans" font-size="8.00"> </text>
<text text-anchor="start" x="95.31" y="-94.6" font-family="Work Sans" font-size="8.00"> </text>
<text text-anchor="start" x="97.53" y="-94.6" font-family="Work Sans" font-size="8.00" fill="red">THE</text>
<text text-anchor="start" x="113.53" y="-94.6" font-family="Work Sans" font-size="8.00"> </text>
<text text-anchor="start" x="115.76" y="-94.6" font-family="Work Sans" font-size="8.00" fill="blue">SONG</text>
<text text-anchor="start" x="139.31" y="-94.6" font-family="Work Sans" font-size="8.00"> </text>
<text text-anchor="start" x="88.4" y="-86.6" font-family="Work Sans" font-size="8.00"> </text>
<text text-anchor="start" x="90.62" y="-86.6" font-family="Work Sans" font-size="8.00" fill="green">song%1:10:00::</text>
<text text-anchor="start" x="146.22" y="-86.6" font-family="Work Sans" font-size="8.00"> </text>
<text text-anchor="start" x="117.31" y="-78.6" font-family="Work Sans" font-size="8.00" fill="green"> </text>
</a>
</g>
</g>
<!-- V72100&#45;&gt;V72079 -->
<g id="edge6" class="edge">
<title>V72100&#45;&gt;V72079</title>
<path fill="none" stroke="grey" stroke-width="0.5" d="M112.43,-159.79C112.53,-152.06 112.81,-142.52 113.49,-134 113.81,-129.91 114.28,-125.58 114.79,-121.38"/>
<polygon fill="grey" stroke="grey" stroke-width="0.5" points="116.56,-121.35 115.47,-116.16 113.09,-120.9 116.56,-121.35"/>
<text text-anchor="middle" x="136.39" y="-135.6" font-family="Work Sans" font-size="8.00"> NEUTRAL &#160;&#160;</text>
</g>
<!-- V72056&#45;&gt;V72141 -->
<g id="edge3" class="edge">
<title>V72056&#45;&gt;V72141</title>
<path fill="none" stroke="grey" stroke-width="0.5" d="M31.83,-79.7C30.51,-70.42 30.49,-58.73 35.98,-50 44.04,-37.18 58.71,-29.17 72.22,-24.27"/>
<polygon fill="grey" stroke="grey" stroke-width="0.5" points="72.96,-25.86 77.13,-22.59 71.83,-22.55 72.96,-25.86"/>
<text text-anchor="middle" x="58.65" y="-51.6" font-family="Work Sans" font-size="8.00"> GROUND &#160;&#160;</text>
</g>
<!-- V72141&#45;&gt;V72056 -->
<g id="edge4" class="edge">
<title>V72141&#45;&gt;V72056</title>
<path fill="none" stroke="grey" stroke-width="0.5" d="M95.98,-32.29C92.14,-40.4 86.78,-50.26 80.42,-58 74.9,-64.73 67.99,-71.12 61.27,-76.64"/>
<polygon fill="grey" stroke="grey" stroke-width="0.5" points="59.93,-75.47 57.12,-79.96 62.12,-78.2 59.93,-75.47"/>
<text text-anchor="middle" x="111.28" y="-51.6" font-family="Work Sans" font-size="8.00"> SUCHTHAT &#160;&#160;</text>
</g>
</g>
</svg>
