<?xml version="1.0" encoding="UTF-8" standalone="no"?>
<!DOCTYPE svg PUBLIC "-//W3C//DTD SVG 1.1//EN"
 "http://www.w3.org/Graphics/SVG/1.1/DTD/svg11.dtd">
<!-- Generated by graphviz version 2.43.0 (0)
 -->
<!-- Title: graph Pages: 1 -->
<svg width="535pt" height="460pt"
 viewBox="0.00 0.00 535.45 460.00" xmlns="http://www.w3.org/2000/svg" xmlns:xlink="http://www.w3.org/1999/xlink">
<g id="graph0" class="graph" transform="scale(1 1) rotate(0) translate(4 456)">
<title>graph</title>
<polygon fill="white" stroke="transparent" points="-4,4 -4,-456 531.45,-456 531.45,4 -4,4"/>
<!-- V38630 -->
<g id="node1" class="node">
<title>V38630</title>
<g id="a_node1"><a xlink:href="http://trips.ihmc.us/lexicon/data/ONT::SA_WH-QUESTION.xml" xlink:title="&lt;font color=&quot;green&quot;&gt;&lt;br /&gt;&lt;/font&gt; &lt;font color=&quot;black&quot;&gt;SA_WH&#45;QUESTION&lt;/font&gt; &lt;font color=&quot;green&quot;&gt;&lt;br /&gt;&lt;/font&gt; &lt;font color=&quot;red&quot;&gt;SPEECHACT&lt;/font&gt; &lt;font color=&quot;blue&quot;&gt;* &lt;/font&gt; &lt;font color=&quot;green&quot;&gt;&lt;br /&gt; &lt;/font&gt;">
<text text-anchor="start" x="0" y="-438.6" font-family="Work Sans" font-size="8.00"> </text>
<text text-anchor="start" x="2.22" y="-438.6" font-family="Work Sans" font-size="8.00">SA_WH&#45;QUESTION</text>
<text text-anchor="start" x="75.12" y="-438.6" font-family="Work Sans" font-size="8.00"> </text>
<text text-anchor="start" x="8.22" y="-430.6" font-family="Work Sans" font-size="8.00"> </text>
<text text-anchor="start" x="10.44" y="-430.6" font-family="Work Sans" font-size="8.00" fill="red">SPEECHACT</text>
<text text-anchor="start" x="59.34" y="-430.6" font-family="Work Sans" font-size="8.00"> </text>
<text text-anchor="start" x="61.56" y="-430.6" font-family="Work Sans" font-size="8.00" fill="blue">* </text>
<text text-anchor="start" x="66.9" y="-430.6" font-family="Work Sans" font-size="8.00"> </text>
<text text-anchor="start" x="37.56" y="-422.6" font-family="Work Sans" font-size="8.00" fill="green"> </text>
</a>
</g>
</g>
<!-- V37347 -->
<g id="node2" class="node">
<title>V37347</title>
<g id="a_node2"><a xlink:href="http://trips.ihmc.us/lexicon/data/ONT::EXPECTATION.xml" xlink:title="&lt;font color=&quot;green&quot;&gt;&lt;br /&gt;&lt;/font&gt; &lt;font color=&quot;black&quot;&gt;EXPECTATION&lt;/font&gt; &lt;font color=&quot;green&quot;&gt;&lt;br /&gt;&lt;/font&gt; &lt;font color=&quot;red&quot;&gt;F&lt;/font&gt; &lt;font color=&quot;blue&quot;&gt;BE&lt;/font&gt; &lt;font color=&quot;green&quot;&gt;&lt;br /&gt;&lt;/font&gt; &lt;font color=&quot;green&quot;&gt;expect%2:31:00&lt;/font&gt; &lt;font color=&quot;green&quot;&gt;&lt;br /&gt; &lt;/font&gt;">
<polygon fill="pink" stroke="transparent" stroke-width="0.5" points="170.85,-336 201.67,-336 201.67,-376 170.85,-376 170.85,-336"/>
<polygon fill="lightblue" stroke="transparent" stroke-width="0.5" points="201.67,-336 232.49,-336 232.49,-376 201.67,-376 201.67,-336"/>
<polygon fill="none" stroke="transparent" points="232.49,-376 170.85,-376 170.85,-336 232.49,-336 232.49,-376"/>
<text text-anchor="start" x="171.81" y="-362.6" font-family="Work Sans" font-size="8.00"> </text>
<text text-anchor="start" x="174.03" y="-362.6" font-family="Work Sans" font-size="8.00">EXPECTATION</text>
<text text-anchor="start" x="229.31" y="-362.6" font-family="Work Sans" font-size="8.00"> </text>
<text text-anchor="start" x="190.56" y="-354.6" font-family="Work Sans" font-size="8.00"> </text>
<text text-anchor="start" x="192.78" y="-354.6" font-family="Work Sans" font-size="8.00" fill="red">F</text>
<text text-anchor="start" x="197.67" y="-354.6" font-family="Work Sans" font-size="8.00"> </text>
<text text-anchor="start" x="199.89" y="-354.6" font-family="Work Sans" font-size="8.00" fill="blue">BE</text>
<text text-anchor="start" x="210.56" y="-354.6" font-family="Work Sans" font-size="8.00"> </text>
<text text-anchor="start" x="170.76" y="-346.6" font-family="Work Sans" font-size="8.00"> </text>
<text text-anchor="start" x="172.98" y="-346.6" font-family="Work Sans" font-size="8.00" fill="green">expect%2:31:00</text>
<text text-anchor="start" x="230.36" y="-346.6" font-family="Work Sans" font-size="8.00"> </text>
<text text-anchor="start" x="200.56" y="-338.6" font-family="Work Sans" font-size="8.00" fill="green"> </text>
</a>
</g>
</g>
<!-- V38630&#45;&gt;V37347 -->
<g id="edge16" class="edge">
<title>V38630&#45;&gt;V37347</title>
<path fill="none" stroke="grey" stroke-width="0.5" d="M70.1,-419.96C97.47,-406.86 137.15,-387.88 165.76,-374.18"/>
<polygon fill="grey" stroke="grey" stroke-width="0.5" points="166.86,-375.6 170.62,-371.86 165.35,-372.44 166.86,-375.6"/>
<text text-anchor="middle" x="144.38" y="-395.6" font-family="Work Sans" font-size="8.00"> CONTENT &#160;&#160;</text>
</g>
<!-- V37523 -->
<g id="node4" class="node">
<title>V37523</title>
<g id="a_node4"><a xlink:href="http://trips.ihmc.us/lexicon/data/ONT::METHOD.xml" xlink:title="&lt;font color=&quot;green&quot;&gt;&lt;br /&gt;&lt;/font&gt; &lt;font color=&quot;black&quot;&gt;METHOD&lt;/font&gt; &lt;font color=&quot;green&quot;&gt;&lt;br /&gt;&lt;/font&gt; &lt;font color=&quot;red&quot;&gt;WH&#45;TERM&lt;/font&gt; &lt;font color=&quot;blue&quot;&gt;* &lt;/font&gt; &lt;font color=&quot;green&quot;&gt;&lt;br /&gt; &lt;/font&gt;">
<polygon fill="pink" stroke="transparent" stroke-width="0.5" points="44.51,-172 69.67,-172 69.67,-204 44.51,-204 44.51,-172"/>
<polygon fill="lightblue" stroke="transparent" stroke-width="0.5" points="69.67,-172 94.83,-172 94.83,-204 69.67,-204 69.67,-172"/>
<polygon fill="none" stroke="transparent" points="94.83,-204 44.51,-204 44.51,-172 94.83,-172 94.83,-204"/>
<text text-anchor="start" x="50.12" y="-190.6" font-family="Work Sans" font-size="8.00"> </text>
<text text-anchor="start" x="52.34" y="-190.6" font-family="Work Sans" font-size="8.00">METHOD</text>
<text text-anchor="start" x="87" y="-190.6" font-family="Work Sans" font-size="8.00"> </text>
<text text-anchor="start" x="44.34" y="-182.6" font-family="Work Sans" font-size="8.00"> </text>
<text text-anchor="start" x="46.56" y="-182.6" font-family="Work Sans" font-size="8.00" fill="red">WH&#45;TERM</text>
<text text-anchor="start" x="85.22" y="-182.6" font-family="Work Sans" font-size="8.00"> </text>
<text text-anchor="start" x="87.44" y="-182.6" font-family="Work Sans" font-size="8.00" fill="blue">* </text>
<text text-anchor="start" x="92.78" y="-182.6" font-family="Work Sans" font-size="8.00"> </text>
<text text-anchor="start" x="68.56" y="-174.6" font-family="Work Sans" font-size="8.00" fill="green"> </text>
</a>
</g>
</g>
<!-- V38630&#45;&gt;V37523 -->
<g id="edge19" class="edge">
<title>V38630&#45;&gt;V37523</title>
<path fill="none" stroke="grey" stroke-width="0.5" d="M37.94,-419.92C37.01,-396.37 36.06,-349.44 40.78,-310 45.32,-272.01 50.48,-263.15 59.67,-226 61.04,-220.46 62.61,-214.48 64.1,-208.98"/>
<polygon fill="grey" stroke="grey" stroke-width="0.5" points="65.81,-209.37 65.44,-204.08 62.43,-208.45 65.81,-209.37"/>
<text text-anchor="middle" x="60.12" y="-311.6" font-family="Work Sans" font-size="8.00"> FOCUS &#160;&#160;</text>
</g>
<!-- V37339 -->
<g id="node3" class="node">
<title>V37339</title>
<g id="a_node3"><a xlink:href="http://trips.ihmc.us/lexicon/data/ONT::BY-MEANS-OF.xml" xlink:title="&lt;font color=&quot;green&quot;&gt;&lt;br /&gt;&lt;/font&gt; &lt;font color=&quot;black&quot;&gt;BY&#45;MEANS&#45;OF&lt;/font&gt; &lt;font color=&quot;green&quot;&gt;&lt;br /&gt;&lt;/font&gt; &lt;font color=&quot;red&quot;&gt;F&lt;/font&gt; &lt;font color=&quot;blue&quot;&gt;HOW&lt;/font&gt; &lt;font color=&quot;green&quot;&gt;&lt;br /&gt; &lt;/font&gt;">
<polygon fill="pink" stroke="transparent" stroke-width="0.5" points="106.9,-256 136.67,-256 136.67,-288 106.9,-288 106.9,-256"/>
<polygon fill="lightblue" stroke="transparent" stroke-width="0.5" points="136.67,-256 166.44,-256 166.44,-288 136.67,-288 136.67,-256"/>
<polygon fill="none" stroke="transparent" points="166.44,-288 106.9,-288 106.9,-256 166.44,-256 166.44,-288"/>
<text text-anchor="start" x="107.04" y="-274.6" font-family="Work Sans" font-size="8.00"> </text>
<text text-anchor="start" x="109.26" y="-274.6" font-family="Work Sans" font-size="8.00">BY&#45;MEANS&#45;OF</text>
<text text-anchor="start" x="164.08" y="-274.6" font-family="Work Sans" font-size="8.00"> </text>
<text text-anchor="start" x="121.12" y="-266.6" font-family="Work Sans" font-size="8.00"> </text>
<text text-anchor="start" x="123.34" y="-266.6" font-family="Work Sans" font-size="8.00" fill="red">F</text>
<text text-anchor="start" x="128.23" y="-266.6" font-family="Work Sans" font-size="8.00"> </text>
<text text-anchor="start" x="130.45" y="-266.6" font-family="Work Sans" font-size="8.00" fill="blue">HOW</text>
<text text-anchor="start" x="150" y="-266.6" font-family="Work Sans" font-size="8.00"> </text>
<text text-anchor="start" x="135.56" y="-258.6" font-family="Work Sans" font-size="8.00" fill="green"> </text>
</a>
</g>
</g>
<!-- V37347&#45;&gt;V37339 -->
<g id="edge4" class="edge">
<title>V37347&#45;&gt;V37339</title>
<path fill="none" stroke="red" d="M170.64,-354.77C142.94,-352.71 103.8,-344.83 84.12,-318 75.29,-305.98 87.39,-295.03 102.19,-286.94"/>
<polygon fill="red" stroke="red" points="103.22,-288.38 106.85,-284.53 101.61,-285.28 103.22,-288.38"/>
<text text-anchor="middle" x="106.45" y="-311.6" font-family="Work Sans" font-size="8.00"> METHOD &#160;&#160;</text>
</g>
<!-- V37347&#45;&gt;V37339 -->
<g id="edge13" class="edge">
<title>V37347&#45;&gt;V37339</title>
<path fill="none" stroke="blue" d="M178.26,-335.83C172.39,-330.41 166.37,-324.27 161.45,-318 155.52,-310.45 150.2,-301.29 146.02,-293.21"/>
<polygon fill="blue" stroke="blue" points="147.38,-292.02 143.57,-288.34 144.25,-293.6 147.38,-292.02"/>
<text text-anchor="middle" x="162.78" y="-311.6" font-family="Work Sans" font-size="8.00">.</text>
</g>
<!-- V37362 -->
<g id="node5" class="node">
<title>V37362</title>
<g id="a_node5"><a xlink:href="http://trips.ihmc.us/lexicon/data/ONT::FEMALE-PERSON.xml" xlink:title="&lt;font color=&quot;green&quot;&gt;&lt;br /&gt;&lt;/font&gt; &lt;font color=&quot;black&quot;&gt;FEMALE&#45;PERSON&lt;/font&gt; &lt;font color=&quot;green&quot;&gt;&lt;br /&gt;&lt;/font&gt; &lt;font color=&quot;red&quot;&gt;PRO&lt;/font&gt; &lt;font color=&quot;blue&quot;&gt;SHE&lt;/font&gt; &lt;font color=&quot;green&quot;&gt;&lt;br /&gt;&lt;/font&gt; &lt;font color=&quot;green&quot;&gt;woman%1:18:00&lt;/font&gt; &lt;font color=&quot;green&quot;&gt;&lt;br /&gt; &lt;/font&gt;">
<text text-anchor="start" x="225.22" y="-194.6" font-family="Work Sans" font-size="8.00"> </text>
<text text-anchor="start" x="227.44" y="-194.6" font-family="Work Sans" font-size="8.00">FEMALE&#45;PERSON</text>
<text text-anchor="start" x="295.9" y="-194.6" font-family="Work Sans" font-size="8.00"> </text>
<text text-anchor="start" x="241.44" y="-186.6" font-family="Work Sans" font-size="8.00"> </text>
<text text-anchor="start" x="243.67" y="-186.6" font-family="Work Sans" font-size="8.00" fill="red">PRO</text>
<text text-anchor="start" x="261" y="-186.6" font-family="Work Sans" font-size="8.00"> </text>
<text text-anchor="start" x="263.22" y="-186.6" font-family="Work Sans" font-size="8.00" fill="blue">SHE</text>
<text text-anchor="start" x="279.67" y="-186.6" font-family="Work Sans" font-size="8.00"> </text>
<text text-anchor="start" x="229.65" y="-178.6" font-family="Work Sans" font-size="8.00"> </text>
<text text-anchor="start" x="231.87" y="-178.6" font-family="Work Sans" font-size="8.00" fill="green">woman%1:18:00</text>
<text text-anchor="start" x="291.47" y="-178.6" font-family="Work Sans" font-size="8.00"> </text>
<text text-anchor="start" x="260.56" y="-170.6" font-family="Work Sans" font-size="8.00" fill="green"> </text>
</a>
</g>
</g>
<!-- V37347&#45;&gt;V37362 -->
<g id="edge14" class="edge">
<title>V37347&#45;&gt;V37362</title>
<path fill="none" stroke="grey" stroke-width="0.5" d="M208.55,-335.96C219.51,-305.64 240.91,-246.45 252.93,-213.18"/>
<polygon fill="grey" stroke="grey" stroke-width="0.5" points="254.72,-213.37 254.78,-208.08 251.43,-212.18 254.72,-213.37"/>
<text text-anchor="middle" x="261.64" y="-269.6" font-family="Work Sans" font-size="8.00"> NEUTRAL &#160;&#160;</text>
</g>
<!-- V37393 -->
<g id="node6" class="node">
<title>V37393</title>
<g id="a_node6"><a xlink:href="http://trips.ihmc.us/lexicon/data/ONT::KNOW.xml" xlink:title="&lt;font color=&quot;green&quot;&gt;&lt;br /&gt;&lt;/font&gt; &lt;font color=&quot;black&quot;&gt;KNOW&lt;/font&gt; &lt;font color=&quot;green&quot;&gt;&lt;br /&gt;&lt;/font&gt; &lt;font color=&quot;red&quot;&gt;F&lt;/font&gt; &lt;font color=&quot;blue&quot;&gt;KNOW&lt;/font&gt; &lt;font color=&quot;green&quot;&gt;&lt;br /&gt;&lt;/font&gt; &lt;font color=&quot;green&quot;&gt;know%2:31:01::&lt;/font&gt; &lt;font color=&quot;green&quot;&gt;&lt;br /&gt; &lt;/font&gt;">
<text text-anchor="start" x="324" y="-278.6" font-family="Work Sans" font-size="8.00"> </text>
<text text-anchor="start" x="326.23" y="-278.6" font-family="Work Sans" font-size="8.00">KNOW</text>
<text text-anchor="start" x="351.11" y="-278.6" font-family="Work Sans" font-size="8.00"> </text>
<text text-anchor="start" x="320.45" y="-270.6" font-family="Work Sans" font-size="8.00"> </text>
<text text-anchor="start" x="322.67" y="-270.6" font-family="Work Sans" font-size="8.00" fill="red">F</text>
<text text-anchor="start" x="327.56" y="-270.6" font-family="Work Sans" font-size="8.00"> </text>
<text text-anchor="start" x="329.78" y="-270.6" font-family="Work Sans" font-size="8.00" fill="blue">KNOW</text>
<text text-anchor="start" x="354.67" y="-270.6" font-family="Work Sans" font-size="8.00"> </text>
<text text-anchor="start" x="307.98" y="-262.6" font-family="Work Sans" font-size="8.00"> </text>
<text text-anchor="start" x="310.21" y="-262.6" font-family="Work Sans" font-size="8.00" fill="green">know%2:31:01::</text>
<text text-anchor="start" x="367.13" y="-262.6" font-family="Work Sans" font-size="8.00"> </text>
<text text-anchor="start" x="337.56" y="-254.6" font-family="Work Sans" font-size="8.00" fill="green"> </text>
</a>
</g>
</g>
<!-- V37347&#45;&gt;V37393 -->
<g id="edge3" class="edge">
<title>V37347&#45;&gt;V37393</title>
<path fill="none" stroke="grey" stroke-width="0.5" d="M225.34,-336C236.38,-327.55 249.89,-317.77 262.74,-310 275.47,-302.29 290.05,-294.88 303.01,-288.74"/>
<polygon fill="grey" stroke="grey" stroke-width="0.5" points="303.92,-290.24 307.7,-286.53 302.43,-287.07 303.92,-290.24"/>
<text text-anchor="middle" x="284.64" y="-311.6" font-family="Work Sans" font-size="8.00"> FORMAL &#160;&#160;</text>
</g>
<!-- V37347&#45;&gt;V37393 -->
<g id="edge11" class="edge">
<title>V37347&#45;&gt;V37393</title>
<path fill="none" stroke="red" d="M232.75,-348.8C254.45,-343.35 283.24,-333.76 304.67,-318 312.52,-312.22 319.41,-304.13 324.89,-296.4"/>
<polygon fill="red" stroke="red" points="326.42,-297.28 327.8,-292.16 323.53,-295.3 326.42,-297.28"/>
<text text-anchor="middle" x="332.34" y="-311.6" font-family="Work Sans" font-size="8.00"> COMP3 &#160;&#160;</text>
</g>
<!-- V37347&#45;&gt;V37393 -->
<g id="edge15" class="edge">
<title>V37347&#45;&gt;V37393</title>
<path fill="none" stroke="blue" d="M232.8,-351.96C273.06,-347.3 339.8,-336.9 354.67,-318 359.42,-311.96 358.64,-304.41 355.71,-297.22"/>
<polygon fill="blue" stroke="blue" points="357.1,-296.08 353.37,-292.32 353.94,-297.59 357.1,-296.08"/>
<text text-anchor="middle" x="358.78" y="-311.6" font-family="Work Sans" font-size="8.00">.</text>
</g>
<!-- V37339&#45;&gt;V37347 -->
<g id="edge9" class="edge">
<title>V37339&#45;&gt;V37347</title>
<path fill="none" stroke="grey" stroke-width="0.5" d="M148.63,-288.09C158.32,-300.31 172.14,-317.75 183.24,-331.75"/>
<polygon fill="grey" stroke="grey" stroke-width="0.5" points="182.12,-333.15 186.59,-335.98 184.86,-330.98 182.12,-333.15"/>
<text text-anchor="middle" x="191.23" y="-311.6" font-family="Work Sans" font-size="8.00"> FIGURE &#160;&#160;</text>
</g>
<!-- V37339&#45;&gt;V37523 -->
<g id="edge10" class="edge">
<title>V37339&#45;&gt;V37523</title>
<path fill="none" stroke="grey" stroke-width="0.5" d="M106.86,-263.33C91.89,-257.8 75.08,-248.66 66.22,-234 61.79,-226.67 61.78,-217.39 63.21,-209.17"/>
<polygon fill="grey" stroke="grey" stroke-width="0.5" points="64.94,-209.47 64.26,-204.22 61.51,-208.74 64.94,-209.47"/>
<text text-anchor="middle" x="88.89" y="-227.6" font-family="Work Sans" font-size="8.00"> GROUND &#160;&#160;</text>
</g>
<!-- V37523&#45;&gt;V37339 -->
<g id="edge6" class="edge">
<title>V37523&#45;&gt;V37339</title>
<path fill="none" stroke="grey" stroke-width="0.5" d="M91.99,-204.27C99.83,-210.39 108.27,-217.91 114.67,-226 120.56,-233.46 125.43,-242.75 129.08,-250.95"/>
<polygon fill="grey" stroke="grey" stroke-width="0.5" points="127.62,-251.98 131.19,-255.89 130.84,-250.61 127.62,-251.98"/>
<text text-anchor="middle" x="146.53" y="-227.6" font-family="Work Sans" font-size="8.00"> SUCHTHAT &#160;&#160;</text>
</g>
<!-- V37393&#45;&gt;V37362 -->
<g id="edge5" class="edge">
<title>V37393&#45;&gt;V37362</title>
<path fill="none" stroke="red" d="M307.76,-264.28C291.32,-258.98 272.48,-249.75 262.43,-234 258.61,-228.02 257.41,-220.61 257.44,-213.55"/>
<polygon fill="red" stroke="red" points="259.21,-213.32 257.69,-208.25 255.71,-213.16 259.21,-213.32"/>
<text text-anchor="middle" x="295.79" y="-227.6" font-family="Work Sans" font-size="8.00"> EXPERIENCER &#160;&#160;</text>
</g>
<!-- V37393&#45;&gt;V37362 -->
<g id="edge12" class="edge">
<title>V37393&#45;&gt;V37362</title>
<path fill="none" stroke="blue" d="M337.9,-251.57C336.72,-243.03 334.14,-233.3 328.67,-226 321.97,-217.05 312.44,-209.99 302.67,-204.54"/>
<polygon fill="blue" stroke="blue" points="303.4,-202.95 298.16,-202.15 301.76,-206.04 303.4,-202.95"/>
<text text-anchor="middle" x="334.78" y="-227.6" font-family="Work Sans" font-size="8.00">.</text>
</g>
<!-- V37432 -->
<g id="node7" class="node">
<title>V37432</title>
<g id="a_node7"><a xlink:href="http://trips.ihmc.us/lexicon/data/ONT::BE.xml" xlink:title="&lt;font color=&quot;green&quot;&gt;&lt;br /&gt;&lt;/font&gt; &lt;font color=&quot;black&quot;&gt;BE&lt;/font&gt; &lt;font color=&quot;green&quot;&gt;&lt;br /&gt;&lt;/font&gt; &lt;font color=&quot;red&quot;&gt;F&lt;/font&gt; &lt;font color=&quot;blue&quot;&gt;BE&lt;/font&gt; &lt;font color=&quot;green&quot;&gt;&lt;br /&gt;&lt;/font&gt; &lt;font color=&quot;green&quot;&gt;be%2:42:06::&lt;/font&gt; &lt;font color=&quot;green&quot;&gt;&lt;br /&gt; &lt;/font&gt;">
<text text-anchor="start" x="368.11" y="-194.6" font-family="Work Sans" font-size="8.00"> </text>
<text text-anchor="start" x="370.33" y="-194.6" font-family="Work Sans" font-size="8.00">BE</text>
<text text-anchor="start" x="381.01" y="-194.6" font-family="Work Sans" font-size="8.00"> </text>
<text text-anchor="start" x="364.56" y="-186.6" font-family="Work Sans" font-size="8.00"> </text>
<text text-anchor="start" x="366.78" y="-186.6" font-family="Work Sans" font-size="8.00" fill="red">F</text>
<text text-anchor="start" x="371.67" y="-186.6" font-family="Work Sans" font-size="8.00"> </text>
<text text-anchor="start" x="373.89" y="-186.6" font-family="Work Sans" font-size="8.00" fill="blue">BE</text>
<text text-anchor="start" x="384.56" y="-186.6" font-family="Work Sans" font-size="8.00"> </text>
<text text-anchor="start" x="349.87" y="-178.6" font-family="Work Sans" font-size="8.00"> </text>
<text text-anchor="start" x="352.1" y="-178.6" font-family="Work Sans" font-size="8.00" fill="green">be%2:42:06::</text>
<text text-anchor="start" x="399.24" y="-178.6" font-family="Work Sans" font-size="8.00"> </text>
<text text-anchor="start" x="374.56" y="-170.6" font-family="Work Sans" font-size="8.00" fill="green"> </text>
</a>
</g>
</g>
<!-- V37393&#45;&gt;V37432 -->
<g id="edge1" class="edge">
<title>V37393&#45;&gt;V37432</title>
<path fill="none" stroke="grey" stroke-width="0.5" d="M347.25,-251.98C352.49,-240.37 359.24,-225.42 364.84,-213"/>
<polygon fill="grey" stroke="grey" stroke-width="0.5" points="366.55,-213.48 367.01,-208.2 363.36,-212.04 366.55,-213.48"/>
<text text-anchor="middle" x="378.64" y="-227.6" font-family="Work Sans" font-size="8.00"> FORMAL &#160;&#160;</text>
</g>
<!-- V37424 -->
<g id="node8" class="node">
<title>V37424</title>
<g id="a_node8"><a xlink:href="http://trips.ihmc.us/lexicon/data/ONT::MALE-PERSON.xml" xlink:title="&lt;font color=&quot;green&quot;&gt;&lt;br /&gt;&lt;/font&gt; &lt;font color=&quot;black&quot;&gt;MALE&#45;PERSON&lt;/font&gt; &lt;font color=&quot;green&quot;&gt;&lt;br /&gt;&lt;/font&gt; &lt;font color=&quot;red&quot;&gt;PRO&lt;/font&gt; &lt;font color=&quot;blue&quot;&gt;HE&lt;/font&gt; &lt;font color=&quot;green&quot;&gt;&lt;br /&gt;&lt;/font&gt; &lt;font color=&quot;green&quot;&gt;man%1:18:00&lt;/font&gt; &lt;font color=&quot;green&quot;&gt;&lt;br /&gt; &lt;/font&gt;">
<text text-anchor="start" x="305.33" y="-110.6" font-family="Work Sans" font-size="8.00"> </text>
<text text-anchor="start" x="307.55" y="-110.6" font-family="Work Sans" font-size="8.00">MALE&#45;PERSON</text>
<text text-anchor="start" x="365.79" y="-110.6" font-family="Work Sans" font-size="8.00"> </text>
<text text-anchor="start" x="319.11" y="-102.6" font-family="Work Sans" font-size="8.00"> </text>
<text text-anchor="start" x="321.33" y="-102.6" font-family="Work Sans" font-size="8.00" fill="red">PRO</text>
<text text-anchor="start" x="338.67" y="-102.6" font-family="Work Sans" font-size="8.00"> </text>
<text text-anchor="start" x="340.89" y="-102.6" font-family="Work Sans" font-size="8.00" fill="blue">HE</text>
<text text-anchor="start" x="352.01" y="-102.6" font-family="Work Sans" font-size="8.00"> </text>
<text text-anchor="start" x="309.76" y="-94.6" font-family="Work Sans" font-size="8.00"> </text>
<text text-anchor="start" x="311.99" y="-94.6" font-family="Work Sans" font-size="8.00" fill="green">man%1:18:00</text>
<text text-anchor="start" x="361.35" y="-94.6" font-family="Work Sans" font-size="8.00"> </text>
<text text-anchor="start" x="335.56" y="-86.6" font-family="Work Sans" font-size="8.00" fill="green"> </text>
</a>
</g>
</g>
<!-- V37432&#45;&gt;V37424 -->
<g id="edge8" class="edge">
<title>V37432&#45;&gt;V37424</title>
<path fill="none" stroke="grey" stroke-width="0.5" d="M358,-167.72C353.78,-162.3 349.66,-156.19 346.73,-150 343.68,-143.54 341.53,-136.12 340.03,-129.18"/>
<polygon fill="grey" stroke="grey" stroke-width="0.5" points="341.69,-128.57 339,-124 338.26,-129.25 341.69,-128.57"/>
<text text-anchor="middle" x="369.64" y="-143.6" font-family="Work Sans" font-size="8.00"> NEUTRAL &#160;&#160;</text>
</g>
<!-- V37509 -->
<g id="node9" class="node">
<title>V37509</title>
<g id="a_node9"><a xlink:href="http://trips.ihmc.us/lexicon/data/ONT::PERSON.xml" xlink:title="&lt;font color=&quot;green&quot;&gt;&lt;br /&gt;&lt;/font&gt; &lt;font color=&quot;black&quot;&gt;PERSON&lt;/font&gt; &lt;font color=&quot;green&quot;&gt;&lt;br /&gt;&lt;/font&gt; &lt;font color=&quot;red&quot;&gt;A&lt;/font&gt; &lt;font color=&quot;blue&quot;&gt;CHAMPION&lt;/font&gt; &lt;font color=&quot;green&quot;&gt;&lt;br /&gt;&lt;/font&gt; &lt;font color=&quot;green&quot;&gt;champion%1:18:01::&lt;/font&gt; &lt;font color=&quot;green&quot;&gt;&lt;br /&gt; &lt;/font&gt;">
<text text-anchor="start" x="405.55" y="-110.6" font-family="Work Sans" font-size="8.00"> </text>
<text text-anchor="start" x="407.78" y="-110.6" font-family="Work Sans" font-size="8.00">PERSON</text>
<text text-anchor="start" x="441.56" y="-110.6" font-family="Work Sans" font-size="8.00"> </text>
<text text-anchor="start" x="397.11" y="-102.6" font-family="Work Sans" font-size="8.00"> </text>
<text text-anchor="start" x="399.33" y="-102.6" font-family="Work Sans" font-size="8.00" fill="red">A</text>
<text text-anchor="start" x="404.67" y="-102.6" font-family="Work Sans" font-size="8.00"> </text>
<text text-anchor="start" x="406.89" y="-102.6" font-family="Work Sans" font-size="8.00" fill="blue">CHAMPION</text>
<text text-anchor="start" x="450.01" y="-102.6" font-family="Work Sans" font-size="8.00"> </text>
<text text-anchor="start" x="385.98" y="-94.6" font-family="Work Sans" font-size="8.00"> </text>
<text text-anchor="start" x="388.2" y="-94.6" font-family="Work Sans" font-size="8.00" fill="green">champion%1:18:01::</text>
<text text-anchor="start" x="461.14" y="-94.6" font-family="Work Sans" font-size="8.00"> </text>
<text text-anchor="start" x="423.56" y="-86.6" font-family="Work Sans" font-size="8.00" fill="green"> </text>
</a>
</g>
</g>
<!-- V37432&#45;&gt;V37509 -->
<g id="edge2" class="edge">
<title>V37432&#45;&gt;V37509</title>
<path fill="none" stroke="grey" stroke-width="0.5" d="M387.03,-167.98C394.03,-156.27 403.07,-141.15 410.53,-128.67"/>
<polygon fill="grey" stroke="grey" stroke-width="0.5" points="412.13,-129.39 413.2,-124.2 409.13,-127.59 412.13,-129.39"/>
<text text-anchor="middle" x="426.01" y="-143.6" font-family="Work Sans" font-size="8.00"> NEUTRAL1 &#160;&#160;</text>
</g>
<!-- V37494 -->
<g id="node10" class="node">
<title>V37494</title>
<g id="a_node10"><a xlink:href="http://trips.ihmc.us/lexicon/data/ONT::GAME.xml" xlink:title="&lt;font color=&quot;green&quot;&gt;&lt;br /&gt;&lt;/font&gt; &lt;font color=&quot;black&quot;&gt;GAME&lt;/font&gt; &lt;font color=&quot;green&quot;&gt;&lt;br /&gt;&lt;/font&gt; &lt;font color=&quot;red&quot;&gt;KIND&lt;/font&gt; &lt;font color=&quot;blue&quot;&gt;BOWLING&lt;/font&gt; &lt;font color=&quot;green&quot;&gt;&lt;br /&gt;&lt;/font&gt; &lt;font color=&quot;green&quot;&gt;bowling%1:04:00::&lt;/font&gt; &lt;font color=&quot;green&quot;&gt;&lt;br /&gt; &lt;/font&gt;">
<polygon fill="pink" stroke="transparent" stroke-width="0.5" points="306.85,0 341.67,0 341.67,-40 306.85,-40 306.85,0"/>
<polygon fill="lightblue" stroke="transparent" stroke-width="0.5" points="341.67,0 376.49,0 376.49,-40 341.67,-40 341.67,0"/>
<polygon fill="none" stroke="transparent" points="376.49,-40 306.85,-40 306.85,0 376.49,0 376.49,-40"/>
<text text-anchor="start" x="327.67" y="-26.6" font-family="Work Sans" font-size="8.00"> </text>
<text text-anchor="start" x="329.89" y="-26.6" font-family="Work Sans" font-size="8.00">GAME</text>
<text text-anchor="start" x="353.45" y="-26.6" font-family="Work Sans" font-size="8.00"> </text>
<text text-anchor="start" x="309.89" y="-18.6" font-family="Work Sans" font-size="8.00"> </text>
<text text-anchor="start" x="312.11" y="-18.6" font-family="Work Sans" font-size="8.00" fill="red">KIND</text>
<text text-anchor="start" x="331.22" y="-18.6" font-family="Work Sans" font-size="8.00"> </text>
<text text-anchor="start" x="333.45" y="-18.6" font-family="Work Sans" font-size="8.00" fill="blue">BOWLING</text>
<text text-anchor="start" x="371.23" y="-18.6" font-family="Work Sans" font-size="8.00"> </text>
<text text-anchor="start" x="306.76" y="-10.6" font-family="Work Sans" font-size="8.00"> </text>
<text text-anchor="start" x="308.98" y="-10.6" font-family="Work Sans" font-size="8.00" fill="green">bowling%1:04:00::</text>
<text text-anchor="start" x="374.36" y="-10.6" font-family="Work Sans" font-size="8.00"> </text>
<text text-anchor="start" x="340.56" y="-2.6" font-family="Work Sans" font-size="8.00" fill="green"> </text>
</a>
</g>
</g>
<!-- V37509&#45;&gt;V37494 -->
<g id="edge18" class="edge">
<title>V37509&#45;&gt;V37494</title>
<path fill="none" stroke="grey" stroke-width="0.5" d="M385.72,-86.77C376.05,-81.3 366.38,-74.4 359.11,-66 353.94,-60.03 350.21,-52.35 347.57,-45.04"/>
<polygon fill="grey" stroke="grey" stroke-width="0.5" points="349.15,-44.25 345.9,-40.06 345.83,-45.36 349.15,-44.25"/>
<text text-anchor="middle" x="388.45" y="-59.6" font-family="Work Sans" font-size="8.00"> ASSOC&#45;WITH &#160;&#160;</text>
</g>
<!-- V37484 -->
<g id="node11" class="node">
<title>V37484</title>
<g id="a_node11"><a xlink:href="http://trips.ihmc.us/lexicon/data/ONT::ACADEMIC-INSTITUTION.xml" xlink:title="&lt;font color=&quot;green&quot;&gt;&lt;br /&gt;&lt;/font&gt; &lt;font color=&quot;black&quot;&gt;ACADEMIC&#45;INSTITUTION&lt;/font&gt; &lt;font color=&quot;green&quot;&gt;&lt;br /&gt;&lt;/font&gt; &lt;font color=&quot;red&quot;&gt;KIND&lt;/font&gt; &lt;font color=&quot;blue&quot;&gt;COLLEGE&lt;/font&gt; &lt;font color=&quot;green&quot;&gt;&lt;br /&gt;&lt;/font&gt; &lt;font color=&quot;green&quot;&gt;college%1:14:00::&lt;/font&gt; &lt;font color=&quot;green&quot;&gt;&lt;br /&gt; &lt;/font&gt;">
<text text-anchor="start" x="427.89" y="-26.6" font-family="Work Sans" font-size="8.00"> </text>
<text text-anchor="start" x="430.12" y="-26.6" font-family="Work Sans" font-size="8.00">ACADEMIC&#45;INSTITUTION</text>
<text text-anchor="start" x="525.22" y="-26.6" font-family="Work Sans" font-size="8.00"> </text>
<text text-anchor="start" x="445.88" y="-18.6" font-family="Work Sans" font-size="8.00"> </text>
<text text-anchor="start" x="448.11" y="-18.6" font-family="Work Sans" font-size="8.00" fill="red">KIND</text>
<text text-anchor="start" x="467.22" y="-18.6" font-family="Work Sans" font-size="8.00"> </text>
<text text-anchor="start" x="469.44" y="-18.6" font-family="Work Sans" font-size="8.00" fill="blue">COLLEGE</text>
<text text-anchor="start" x="507.23" y="-18.6" font-family="Work Sans" font-size="8.00"> </text>
<text text-anchor="start" x="443.65" y="-10.6" font-family="Work Sans" font-size="8.00"> </text>
<text text-anchor="start" x="445.87" y="-10.6" font-family="Work Sans" font-size="8.00" fill="green">college%1:14:00::</text>
<text text-anchor="start" x="509.47" y="-10.6" font-family="Work Sans" font-size="8.00"> </text>
<text text-anchor="start" x="476.56" y="-2.6" font-family="Work Sans" font-size="8.00" fill="green"> </text>
</a>
</g>
</g>
<!-- V37509&#45;&gt;V37484 -->
<g id="edge7" class="edge">
<title>V37509&#45;&gt;V37484</title>
<path fill="none" stroke="red" d="M421.37,-83.64C420.86,-75.31 421.56,-65.73 425.66,-58 428.54,-52.57 432.61,-47.75 437.22,-43.54"/>
<polygon fill="red" stroke="red" points="438.54,-44.72 441.21,-40.15 436.27,-42.06 438.54,-44.72"/>
<text text-anchor="middle" x="456.68" y="-59.6" font-family="Work Sans" font-size="8.00"> ASSOC&#45;WITH1 &#160;&#160;</text>
</g>
<!-- V37509&#45;&gt;V37484 -->
<g id="edge17" class="edge">
<title>V37509&#45;&gt;V37484</title>
<path fill="none" stroke="blue" d="M463.47,-89.43C473.8,-83.84 483.73,-76.22 489.67,-66 493.37,-59.64 492.92,-52.11 490.81,-45.06"/>
<polygon fill="blue" stroke="blue" points="492.43,-44.39 489.11,-40.27 489.13,-45.56 492.43,-44.39"/>
<text text-anchor="middle" x="492.78" y="-59.6" font-family="Work Sans" font-size="8.00">.</text>
</g>
</g>
</svg>
