<?xml version="1.0" encoding="UTF-8" standalone="no"?>
<!DOCTYPE svg PUBLIC "-//W3C//DTD SVG 1.1//EN"
 "http://www.w3.org/Graphics/SVG/1.1/DTD/svg11.dtd">
<!-- Generated by graphviz version 2.43.0 (0)
 -->
<!-- Title: graph Pages: 1 -->
<svg width="249pt" height="292pt"
 viewBox="0.00 0.00 249.24 292.00" xmlns="http://www.w3.org/2000/svg" xmlns:xlink="http://www.w3.org/1999/xlink">
<g id="graph0" class="graph" transform="scale(1 1) rotate(0) translate(4 288)">
<title>graph</title>
<polygon fill="white" stroke="transparent" points="-4,4 -4,-288 245.24,-288 245.24,4 -4,4"/>
<!-- V43244 -->
<g id="node1" class="node">
<title>V43244</title>
<g id="a_node1"><a xlink:href="http://trips.ihmc.us/lexicon/data/ONT::SA_TELL.xml" xlink:title="&lt;font color=&quot;green&quot;&gt;&lt;br /&gt;&lt;/font&gt; &lt;font color=&quot;black&quot;&gt;SA_TELL&lt;/font&gt; &lt;font color=&quot;green&quot;&gt;&lt;br /&gt;&lt;/font&gt; &lt;font color=&quot;red&quot;&gt;SPEECHACT&lt;/font&gt; &lt;font color=&quot;blue&quot;&gt;* &lt;/font&gt; &lt;font color=&quot;green&quot;&gt;&lt;br /&gt; &lt;/font&gt;">
<text text-anchor="start" x="92.45" y="-270.6" font-family="Work Sans" font-size="8.00"> </text>
<text text-anchor="start" x="94.67" y="-270.6" font-family="Work Sans" font-size="8.00">SA_TELL</text>
<text text-anchor="start" x="128.91" y="-270.6" font-family="Work Sans" font-size="8.00"> </text>
<text text-anchor="start" x="81.34" y="-262.6" font-family="Work Sans" font-size="8.00"> </text>
<text text-anchor="start" x="83.56" y="-262.6" font-family="Work Sans" font-size="8.00" fill="red">SPEECHACT</text>
<text text-anchor="start" x="132.46" y="-262.6" font-family="Work Sans" font-size="8.00"> </text>
<text text-anchor="start" x="134.69" y="-262.6" font-family="Work Sans" font-size="8.00" fill="blue">* </text>
<text text-anchor="start" x="140.02" y="-262.6" font-family="Work Sans" font-size="8.00"> </text>
<text text-anchor="start" x="110.68" y="-254.6" font-family="Work Sans" font-size="8.00" fill="green"> </text>
</a>
</g>
</g>
<!-- V42727 -->
<g id="node2" class="node">
<title>V42727</title>
<g id="a_node2"><a xlink:href="http://trips.ihmc.us/lexicon/data/ONT::HITTING.xml" xlink:title="&lt;font color=&quot;green&quot;&gt;&lt;br /&gt;&lt;/font&gt; &lt;font color=&quot;black&quot;&gt;HITTING&lt;/font&gt; &lt;font color=&quot;green&quot;&gt;&lt;br /&gt;&lt;/font&gt; &lt;font color=&quot;red&quot;&gt;F&lt;/font&gt; &lt;font color=&quot;blue&quot;&gt;STRIKE&lt;/font&gt; &lt;font color=&quot;green&quot;&gt;&lt;br /&gt;&lt;/font&gt; &lt;font color=&quot;green&quot;&gt;strike%2:35:01::&lt;/font&gt; &lt;font color=&quot;green&quot;&gt;&lt;br /&gt; &lt;/font&gt;">
<polygon fill="pink" stroke="transparent" stroke-width="0.5" points="80.98,-168 111.79,-168 111.79,-208 80.98,-208 80.98,-168"/>
<polygon fill="lightblue" stroke="transparent" stroke-width="0.5" points="111.79,-168 142.6,-168 142.6,-208 111.79,-208 111.79,-168"/>
<polygon fill="none" stroke="transparent" points="142.6,-208 80.98,-208 80.98,-168 142.6,-168 142.6,-208"/>
<text text-anchor="start" x="93.57" y="-194.6" font-family="Work Sans" font-size="8.00"> </text>
<text text-anchor="start" x="95.79" y="-194.6" font-family="Work Sans" font-size="8.00">HITTING</text>
<text text-anchor="start" x="127.79" y="-194.6" font-family="Work Sans" font-size="8.00"> </text>
<text text-anchor="start" x="91.57" y="-186.6" font-family="Work Sans" font-size="8.00"> </text>
<text text-anchor="start" x="93.79" y="-186.6" font-family="Work Sans" font-size="8.00" fill="red">F</text>
<text text-anchor="start" x="98.68" y="-186.6" font-family="Work Sans" font-size="8.00"> </text>
<text text-anchor="start" x="100.9" y="-186.6" font-family="Work Sans" font-size="8.00" fill="blue">STRIKE</text>
<text text-anchor="start" x="129.79" y="-186.6" font-family="Work Sans" font-size="8.00"> </text>
<text text-anchor="start" x="80.89" y="-178.6" font-family="Work Sans" font-size="8.00"> </text>
<text text-anchor="start" x="83.11" y="-178.6" font-family="Work Sans" font-size="8.00" fill="green">strike%2:35:01::</text>
<text text-anchor="start" x="140.47" y="-178.6" font-family="Work Sans" font-size="8.00"> </text>
<text text-anchor="start" x="110.68" y="-170.6" font-family="Work Sans" font-size="8.00" fill="green"> </text>
</a>
</g>
</g>
<!-- V43244&#45;&gt;V42727 -->
<g id="edge8" class="edge">
<title>V43244&#45;&gt;V42727</title>
<path fill="none" stroke="grey" stroke-width="0.5" d="M111.79,-251.96C111.79,-241.04 111.79,-226.02 111.79,-213.39"/>
<polygon fill="grey" stroke="grey" stroke-width="0.5" points="113.54,-213.14 111.79,-208.14 110.04,-213.14 113.54,-213.14"/>
<text text-anchor="middle" x="135.5" y="-227.6" font-family="Work Sans" font-size="8.00"> CONTENT &#160;&#160;</text>
</g>
<!-- V42721 -->
<g id="node3" class="node">
<title>V42721</title>
<g id="a_node3"><a xlink:href="http://trips.ihmc.us/lexicon/data/ONT::TRUCK.xml" xlink:title="&lt;font color=&quot;green&quot;&gt;&lt;br /&gt;&lt;/font&gt; &lt;font color=&quot;black&quot;&gt;TRUCK&lt;/font&gt; &lt;font color=&quot;green&quot;&gt;&lt;br /&gt;&lt;/font&gt; &lt;font color=&quot;red&quot;&gt;THE&lt;/font&gt; &lt;font color=&quot;blue&quot;&gt;SEMI&lt;/font&gt; &lt;font color=&quot;green&quot;&gt;&lt;br /&gt;&lt;/font&gt; &lt;font color=&quot;green&quot;&gt;semi%1:06:01::&lt;/font&gt; &lt;font color=&quot;green&quot;&gt;&lt;br /&gt; &lt;/font&gt;">
<text text-anchor="start" x="13.79" y="-110.6" font-family="Work Sans" font-size="8.00"> </text>
<text text-anchor="start" x="16.02" y="-110.6" font-family="Work Sans" font-size="8.00">TRUCK</text>
<text text-anchor="start" x="43.57" y="-110.6" font-family="Work Sans" font-size="8.00"> </text>
<text text-anchor="start" x="8.68" y="-102.6" font-family="Work Sans" font-size="8.00"> </text>
<text text-anchor="start" x="10.9" y="-102.6" font-family="Work Sans" font-size="8.00" fill="red">THE</text>
<text text-anchor="start" x="26.9" y="-102.6" font-family="Work Sans" font-size="8.00"> </text>
<text text-anchor="start" x="29.12" y="-102.6" font-family="Work Sans" font-size="8.00" fill="blue">SEMI</text>
<text text-anchor="start" x="48.68" y="-102.6" font-family="Work Sans" font-size="8.00"> </text>
<text text-anchor="start" x="0" y="-94.6" font-family="Work Sans" font-size="8.00"> </text>
<text text-anchor="start" x="2.22" y="-94.6" font-family="Work Sans" font-size="8.00" fill="green">semi%1:06:01::</text>
<text text-anchor="start" x="57.36" y="-94.6" font-family="Work Sans" font-size="8.00"> </text>
<text text-anchor="start" x="28.68" y="-86.6" font-family="Work Sans" font-size="8.00" fill="green"> </text>
</a>
</g>
</g>
<!-- V42727&#45;&gt;V42721 -->
<g id="edge6" class="edge">
<title>V42727&#45;&gt;V42721</title>
<path fill="none" stroke="grey" stroke-width="0.5" d="M80.71,-175.21C68.46,-169.25 55.15,-160.92 45.92,-150 40.87,-144.03 37.36,-136.35 34.93,-129.04"/>
<polygon fill="grey" stroke="grey" stroke-width="0.5" points="36.54,-128.33 33.41,-124.06 33.19,-129.35 36.54,-128.33"/>
<text text-anchor="middle" x="64.73" y="-143.6" font-family="Work Sans" font-size="8.00"> AGENT &#160;&#160;</text>
</g>
<!-- V42742 -->
<g id="node4" class="node">
<title>V42742</title>
<g id="a_node4"><a xlink:href="http://trips.ihmc.us/lexicon/data/ONT::LAND-VEHICLE.xml" xlink:title="&lt;font color=&quot;green&quot;&gt;&lt;br /&gt;&lt;/font&gt; &lt;font color=&quot;black&quot;&gt;LAND&#45;VEHICLE&lt;/font&gt; &lt;font color=&quot;green&quot;&gt;&lt;br /&gt;&lt;/font&gt; &lt;font color=&quot;red&quot;&gt;THE&lt;/font&gt; &lt;font color=&quot;blue&quot;&gt;CAR&lt;/font&gt; &lt;font color=&quot;green&quot;&gt;&lt;br /&gt;&lt;/font&gt; &lt;font color=&quot;green&quot;&gt;car%1:06:00::&lt;/font&gt; &lt;font color=&quot;green&quot;&gt;&lt;br /&gt; &lt;/font&gt;">
<polygon fill="pink" stroke="transparent" points="145.98,-40 83.61,-40 83.61,0 145.98,0 145.98,-40"/>
<text text-anchor="start" x="83.45" y="-26.6" font-family="Work Sans" font-size="8.00"> </text>
<text text-anchor="start" x="85.67" y="-26.6" font-family="Work Sans" font-size="8.00">LAND&#45;VEHICLE</text>
<text text-anchor="start" x="143.91" y="-26.6" font-family="Work Sans" font-size="8.00"> </text>
<text text-anchor="start" x="95.01" y="-18.6" font-family="Work Sans" font-size="8.00"> </text>
<text text-anchor="start" x="97.24" y="-18.6" font-family="Work Sans" font-size="8.00" fill="red">THE</text>
<text text-anchor="start" x="113.24" y="-18.6" font-family="Work Sans" font-size="8.00"> </text>
<text text-anchor="start" x="115.46" y="-18.6" font-family="Work Sans" font-size="8.00" fill="blue">CAR</text>
<text text-anchor="start" x="132.35" y="-18.6" font-family="Work Sans" font-size="8.00"> </text>
<text text-anchor="start" x="87.89" y="-10.6" font-family="Work Sans" font-size="8.00"> </text>
<text text-anchor="start" x="90.11" y="-10.6" font-family="Work Sans" font-size="8.00" fill="green">car%1:06:00::</text>
<text text-anchor="start" x="139.47" y="-10.6" font-family="Work Sans" font-size="8.00"> </text>
<text text-anchor="start" x="113.68" y="-2.6" font-family="Work Sans" font-size="8.00" fill="green"> </text>
</a>
</g>
</g>
<!-- V42727&#45;&gt;V42742 -->
<g id="edge3" class="edge">
<title>V42727&#45;&gt;V42742</title>
<path fill="none" stroke="grey" stroke-width="0.5" d="M109.3,-167.63C106.97,-146.92 104.12,-113.12 106.12,-84 106.99,-71.2 108.86,-57.04 110.64,-45.39"/>
<polygon fill="grey" stroke="grey" stroke-width="0.5" points="112.41,-45.44 111.45,-40.23 108.95,-44.9 112.41,-45.44"/>
<text text-anchor="middle" x="132.13" y="-101.6" font-family="Work Sans" font-size="8.00"> AFFECTED &#160;&#160;</text>
</g>
<!-- V42769 -->
<g id="node5" class="node">
<title>V42769</title>
<g id="a_node5"><a xlink:href="http://trips.ihmc.us/lexicon/data/ONT::FRONT.xml" xlink:title="&lt;font color=&quot;green&quot;&gt;&lt;br /&gt;&lt;/font&gt; &lt;font color=&quot;black&quot;&gt;FRONT&lt;/font&gt; &lt;font color=&quot;green&quot;&gt;&lt;br /&gt;&lt;/font&gt; &lt;font color=&quot;red&quot;&gt;F&lt;/font&gt; &lt;font color=&quot;blue&quot;&gt;IN&#45;FRONT&lt;/font&gt; &lt;font color=&quot;green&quot;&gt;&lt;br /&gt; &lt;/font&gt;">
<polygon fill="pink" stroke="transparent" stroke-width="0.5" points="166.02,-88 190.79,-88 190.79,-120 166.02,-120 166.02,-88"/>
<polygon fill="lightblue" stroke="transparent" stroke-width="0.5" points="190.79,-88 215.56,-88 215.56,-120 190.79,-120 190.79,-88"/>
<polygon fill="none" stroke="transparent" points="215.56,-120 166.02,-120 166.02,-88 215.56,-88 215.56,-120"/>
<text text-anchor="start" x="174.79" y="-106.6" font-family="Work Sans" font-size="8.00"> </text>
<text text-anchor="start" x="177.02" y="-106.6" font-family="Work Sans" font-size="8.00">FRONT</text>
<text text-anchor="start" x="204.57" y="-106.6" font-family="Work Sans" font-size="8.00"> </text>
<text text-anchor="start" x="165.91" y="-98.6" font-family="Work Sans" font-size="8.00"> </text>
<text text-anchor="start" x="168.13" y="-98.6" font-family="Work Sans" font-size="8.00" fill="red">F</text>
<text text-anchor="start" x="173.02" y="-98.6" font-family="Work Sans" font-size="8.00"> </text>
<text text-anchor="start" x="175.24" y="-98.6" font-family="Work Sans" font-size="8.00" fill="blue">IN&#45;FRONT</text>
<text text-anchor="start" x="213.46" y="-98.6" font-family="Work Sans" font-size="8.00"> </text>
<text text-anchor="start" x="189.68" y="-90.6" font-family="Work Sans" font-size="8.00" fill="green"> </text>
</a>
</g>
</g>
<!-- V42727&#45;&gt;V42769 -->
<g id="edge1" class="edge">
<title>V42727&#45;&gt;V42769</title>
<path fill="none" stroke="red" d="M116.68,-167.58C119.54,-159.05 123.84,-149.32 130.07,-142 138.54,-132.04 150.39,-123.99 161.37,-117.98"/>
<polygon fill="red" stroke="red" points="162.41,-119.41 166.02,-115.52 160.78,-116.31 162.41,-119.41"/>
<text text-anchor="middle" x="149.65" y="-143.6" font-family="Work Sans" font-size="8.00"> RESULT &#160;&#160;</text>
</g>
<!-- V42727&#45;&gt;V42769 -->
<g id="edge2" class="edge">
<title>V42727&#45;&gt;V42769</title>
<path fill="none" stroke="blue" d="M142.88,-171.63C152.4,-165.83 162.31,-158.53 169.79,-150 176.1,-142.81 180.88,-133.39 184.28,-125.04"/>
<polygon fill="blue" stroke="blue" points="186.06,-125.3 186.22,-120 182.79,-124.04 186.06,-125.3"/>
<text text-anchor="middle" x="175.9" y="-143.6" font-family="Work Sans" font-size="8.00">.</text>
</g>
<!-- V42769&#45;&gt;V42742 -->
<g id="edge7" class="edge">
<title>V42769&#45;&gt;V42742</title>
<path fill="none" stroke="grey" stroke-width="0.5" d="M174.49,-87.87C167.6,-81.3 159.59,-73.42 152.68,-66 146.22,-59.06 139.46,-51.24 133.47,-44.09"/>
<polygon fill="grey" stroke="grey" stroke-width="0.5" points="134.78,-42.92 130.23,-40.19 132.09,-45.16 134.78,-42.92"/>
<text text-anchor="middle" x="171.35" y="-59.6" font-family="Work Sans" font-size="8.00"> FIGURE &#160;&#160;</text>
</g>
<!-- V42876 -->
<g id="node6" class="node">
<title>V42876</title>
<g id="a_node6"><a xlink:href="http://trips.ihmc.us/lexicon/data/ONT::MALE-PERSON.xml" xlink:title="&lt;font color=&quot;green&quot;&gt;&lt;br /&gt;&lt;/font&gt; &lt;font color=&quot;black&quot;&gt;MALE&#45;PERSON&lt;/font&gt; &lt;font color=&quot;green&quot;&gt;&lt;br /&gt;&lt;/font&gt; &lt;font color=&quot;red&quot;&gt;PRO&lt;/font&gt; &lt;font color=&quot;blue&quot;&gt;HIM&lt;/font&gt; &lt;font color=&quot;green&quot;&gt;&lt;br /&gt;&lt;/font&gt; &lt;font color=&quot;green&quot;&gt;man%1:18:00&lt;/font&gt; &lt;font color=&quot;green&quot;&gt;&lt;br /&gt; &lt;/font&gt;">
<text text-anchor="start" x="171.45" y="-26.6" font-family="Work Sans" font-size="8.00"> </text>
<text text-anchor="start" x="173.68" y="-26.6" font-family="Work Sans" font-size="8.00">MALE&#45;PERSON</text>
<text text-anchor="start" x="231.91" y="-26.6" font-family="Work Sans" font-size="8.00"> </text>
<text text-anchor="start" x="183.46" y="-18.6" font-family="Work Sans" font-size="8.00"> </text>
<text text-anchor="start" x="185.68" y="-18.6" font-family="Work Sans" font-size="8.00" fill="red">PRO</text>
<text text-anchor="start" x="203.02" y="-18.6" font-family="Work Sans" font-size="8.00"> </text>
<text text-anchor="start" x="205.24" y="-18.6" font-family="Work Sans" font-size="8.00" fill="blue">HIM</text>
<text text-anchor="start" x="219.9" y="-18.6" font-family="Work Sans" font-size="8.00"> </text>
<text text-anchor="start" x="175.89" y="-10.6" font-family="Work Sans" font-size="8.00"> </text>
<text text-anchor="start" x="178.11" y="-10.6" font-family="Work Sans" font-size="8.00" fill="green">man%1:18:00</text>
<text text-anchor="start" x="227.48" y="-10.6" font-family="Work Sans" font-size="8.00"> </text>
<text text-anchor="start" x="201.68" y="-2.6" font-family="Work Sans" font-size="8.00" fill="green"> </text>
</a>
</g>
</g>
<!-- V42769&#45;&gt;V42876 -->
<g id="edge4" class="edge">
<title>V42769&#45;&gt;V42876</title>
<path fill="none" stroke="blue" d="M192.99,-87.96C194.74,-76.02 197.22,-59.08 199.25,-45.24"/>
<polygon fill="blue" stroke="blue" points="200.98,-45.49 199.97,-40.29 197.51,-44.98 200.98,-45.49"/>
<text text-anchor="middle" x="197.9" y="-59.6" font-family="Work Sans" font-size="8.00">.</text>
</g>
<!-- V42769&#45;&gt;V42876 -->
<g id="edge5" class="edge">
<title>V42769&#45;&gt;V42876</title>
<path fill="none" stroke="red" d="M192.99,-87.96C194.74,-76.02 197.22,-59.08 199.25,-45.24"/>
<polygon fill="red" stroke="red" points="200.98,-45.49 199.97,-40.29 197.51,-44.98 200.98,-45.49"/>
<text text-anchor="middle" x="219.02" y="-59.6" font-family="Work Sans" font-size="8.00"> GROUND &#160;&#160;</text>
</g>
</g>
</svg>
