<?xml version="1.0" encoding="UTF-8" standalone="no"?>
<!DOCTYPE svg PUBLIC "-//W3C//DTD SVG 1.1//EN"
 "http://www.w3.org/Graphics/SVG/1.1/DTD/svg11.dtd">
<!-- Generated by graphviz version 2.43.0 (0)
 -->
<!-- Title: graph Pages: 1 -->
<svg width="250pt" height="268pt"
 viewBox="0.00 0.00 250.41 268.00" xmlns="http://www.w3.org/2000/svg" xmlns:xlink="http://www.w3.org/1999/xlink">
<g id="graph0" class="graph" transform="scale(1 1) rotate(0) translate(4 264)">
<title>graph</title>
<polygon fill="white" stroke="transparent" points="-4,4 -4,-264 246.41,-264 246.41,4 -4,4"/>
<!-- V104951 -->
<g id="node1" class="node">
<title>V104951</title>
<g id="a_node1"><a xlink:href="http://trips.ihmc.us/lexicon/data/ONT::SA_WH-QUESTION.xml" xlink:title="&lt;font color=&quot;green&quot;&gt;&lt;br /&gt;&lt;/font&gt; &lt;font color=&quot;black&quot;&gt;SA_WH&#45;QUESTION&lt;/font&gt; &lt;font color=&quot;green&quot;&gt;&lt;br /&gt;&lt;/font&gt; &lt;font color=&quot;red&quot;&gt;SPEECHACT&lt;/font&gt; &lt;font color=&quot;blue&quot;&gt;* &lt;/font&gt; &lt;font color=&quot;green&quot;&gt;&lt;br /&gt; &lt;/font&gt;">
<text text-anchor="start" x="126.85" y="-246.6" font-family="Work Sans" font-size="8.00"> </text>
<text text-anchor="start" x="129.07" y="-246.6" font-family="Work Sans" font-size="8.00">SA_WH&#45;QUESTION</text>
<text text-anchor="start" x="201.97" y="-246.6" font-family="Work Sans" font-size="8.00"> </text>
<text text-anchor="start" x="135.07" y="-238.6" font-family="Work Sans" font-size="8.00"> </text>
<text text-anchor="start" x="137.29" y="-238.6" font-family="Work Sans" font-size="8.00" fill="red">SPEECHACT</text>
<text text-anchor="start" x="186.19" y="-238.6" font-family="Work Sans" font-size="8.00"> </text>
<text text-anchor="start" x="188.41" y="-238.6" font-family="Work Sans" font-size="8.00" fill="blue">* </text>
<text text-anchor="start" x="193.75" y="-238.6" font-family="Work Sans" font-size="8.00"> </text>
<text text-anchor="start" x="164.41" y="-230.6" font-family="Work Sans" font-size="8.00" fill="green"> </text>
</a>
</g>
</g>
<!-- V104689 -->
<g id="node2" class="node">
<title>V104689</title>
<g id="a_node2"><a xlink:href="http://trips.ihmc.us/lexicon/data/ONT::OPEN.xml" xlink:title="&lt;font color=&quot;green&quot;&gt;&lt;br /&gt;&lt;/font&gt; &lt;font color=&quot;black&quot;&gt;OPEN&lt;/font&gt; &lt;font color=&quot;green&quot;&gt;&lt;br /&gt;&lt;/font&gt; &lt;font color=&quot;red&quot;&gt;F&lt;/font&gt; &lt;font color=&quot;blue&quot;&gt;OPEN&lt;/font&gt; &lt;font color=&quot;green&quot;&gt;&lt;br /&gt; &lt;/font&gt;">
<text text-anchor="start" x="84.96" y="-170.6" font-family="Work Sans" font-size="8.00"> </text>
<text text-anchor="start" x="87.18" y="-170.6" font-family="Work Sans" font-size="8.00">OPEN</text>
<text text-anchor="start" x="109.86" y="-170.6" font-family="Work Sans" font-size="8.00"> </text>
<text text-anchor="start" x="81.41" y="-162.6" font-family="Work Sans" font-size="8.00"> </text>
<text text-anchor="start" x="83.63" y="-162.6" font-family="Work Sans" font-size="8.00" fill="red">F</text>
<text text-anchor="start" x="88.52" y="-162.6" font-family="Work Sans" font-size="8.00"> </text>
<text text-anchor="start" x="90.74" y="-162.6" font-family="Work Sans" font-size="8.00" fill="blue">OPEN</text>
<text text-anchor="start" x="113.41" y="-162.6" font-family="Work Sans" font-size="8.00"> </text>
<text text-anchor="start" x="97.41" y="-154.6" font-family="Work Sans" font-size="8.00" fill="green"> </text>
</a>
</g>
</g>
<!-- V104951&#45;&gt;V104689 -->
<g id="edge5" class="edge">
<title>V104951&#45;&gt;V104689</title>
<path fill="none" stroke="grey" stroke-width="0.5" d="M151.64,-227.67C141.15,-216.08 126.69,-200.12 115.51,-187.77"/>
<polygon fill="grey" stroke="grey" stroke-width="0.5" points="116.81,-186.59 112.16,-184.06 114.21,-188.94 116.81,-186.59"/>
<text text-anchor="middle" x="157.23" y="-203.6" font-family="Work Sans" font-size="8.00"> CONTENT &#160;&#160;</text>
</g>
<!-- V104719 -->
<g id="node4" class="node">
<title>V104719</title>
<g id="a_node4"><a xlink:href="http://trips.ihmc.us/lexicon/data/ONT::METHOD.xml" xlink:title="&lt;font color=&quot;green&quot;&gt;&lt;br /&gt;&lt;/font&gt; &lt;font color=&quot;black&quot;&gt;METHOD&lt;/font&gt; &lt;font color=&quot;green&quot;&gt;&lt;br /&gt;&lt;/font&gt; &lt;font color=&quot;red&quot;&gt;WH&#45;TERM&lt;/font&gt; &lt;font color=&quot;blue&quot;&gt;* &lt;/font&gt; &lt;font color=&quot;green&quot;&gt;&lt;br /&gt; &lt;/font&gt;">
<polygon fill="pink" stroke="transparent" points="122.68,-32 72.36,-32 72.36,0 122.68,0 122.68,-32"/>
<text text-anchor="start" x="77.97" y="-18.6" font-family="Work Sans" font-size="8.00"> </text>
<text text-anchor="start" x="80.19" y="-18.6" font-family="Work Sans" font-size="8.00">METHOD</text>
<text text-anchor="start" x="114.85" y="-18.6" font-family="Work Sans" font-size="8.00"> </text>
<text text-anchor="start" x="72.19" y="-10.6" font-family="Work Sans" font-size="8.00"> </text>
<text text-anchor="start" x="74.41" y="-10.6" font-family="Work Sans" font-size="8.00" fill="red">WH&#45;TERM</text>
<text text-anchor="start" x="113.07" y="-10.6" font-family="Work Sans" font-size="8.00"> </text>
<text text-anchor="start" x="115.29" y="-10.6" font-family="Work Sans" font-size="8.00" fill="blue">* </text>
<text text-anchor="start" x="120.63" y="-10.6" font-family="Work Sans" font-size="8.00"> </text>
<text text-anchor="start" x="96.41" y="-2.6" font-family="Work Sans" font-size="8.00" fill="green"> </text>
</a>
</g>
</g>
<!-- V104951&#45;&gt;V104719 -->
<g id="edge8" class="edge">
<title>V104951&#45;&gt;V104719</title>
<path fill="none" stroke="grey" stroke-width="0.5" d="M175.88,-227.8C179.12,-222.39 182.4,-216.12 184.52,-210 203.99,-153.71 219.25,-125.76 186.52,-76 172.37,-54.49 147.39,-38.96 127.48,-29.24"/>
<polygon fill="grey" stroke="grey" stroke-width="0.5" points="128.07,-27.58 122.8,-27.02 126.57,-30.75 128.07,-27.58"/>
<text text-anchor="middle" x="223.97" y="-127.6" font-family="Work Sans" font-size="8.00"> FOCUS &#160;&#160;</text>
</g>
<!-- V104646 -->
<g id="node3" class="node">
<title>V104646</title>
<g id="a_node3"><a xlink:href="http://trips.ihmc.us/lexicon/data/ONT::BY-MEANS-OF.xml" xlink:title="&lt;font color=&quot;green&quot;&gt;&lt;br /&gt;&lt;/font&gt; &lt;font color=&quot;black&quot;&gt;BY&#45;MEANS&#45;OF&lt;/font&gt; &lt;font color=&quot;green&quot;&gt;&lt;br /&gt;&lt;/font&gt; &lt;font color=&quot;red&quot;&gt;F&lt;/font&gt; &lt;font color=&quot;blue&quot;&gt;HOW&lt;/font&gt; &lt;font color=&quot;green&quot;&gt;&lt;br /&gt; &lt;/font&gt;">
<polygon fill="pink" stroke="transparent" points="60.29,-108 0.75,-108 0.75,-76 60.29,-76 60.29,-108"/>
<text text-anchor="start" x="0.89" y="-94.6" font-family="Work Sans" font-size="8.00"> </text>
<text text-anchor="start" x="3.11" y="-94.6" font-family="Work Sans" font-size="8.00">BY&#45;MEANS&#45;OF</text>
<text text-anchor="start" x="57.93" y="-94.6" font-family="Work Sans" font-size="8.00"> </text>
<text text-anchor="start" x="14.97" y="-86.6" font-family="Work Sans" font-size="8.00"> </text>
<text text-anchor="start" x="17.19" y="-86.6" font-family="Work Sans" font-size="8.00" fill="red">F</text>
<text text-anchor="start" x="22.08" y="-86.6" font-family="Work Sans" font-size="8.00"> </text>
<text text-anchor="start" x="24.3" y="-86.6" font-family="Work Sans" font-size="8.00" fill="blue">HOW</text>
<text text-anchor="start" x="43.85" y="-86.6" font-family="Work Sans" font-size="8.00"> </text>
<text text-anchor="start" x="29.41" y="-78.6" font-family="Work Sans" font-size="8.00" fill="green"> </text>
</a>
</g>
</g>
<!-- V104689&#45;&gt;V104646 -->
<g id="edge4" class="edge">
<title>V104689&#45;&gt;V104646</title>
<path fill="none" stroke="red" stroke-width="0.5" d="M81.16,-167.69C58.74,-166.24 20.63,-160 2.15,-134.58 -3,-126.55 0.26,-118.66 6.19,-111.44"/>
<path fill="none" stroke="blue" stroke-width="0.5" d="M81.29,-165.69C59.06,-164.26 20.95,-158.03 3.78,-133.42 -1.15,-127.31 2.11,-119.42 7.73,-112.72"/>
<polygon fill="red" stroke="red" stroke-width="0.5" points="8.31,-113.19 10.4,-108.32 5.73,-110.83 8.31,-113.19"/>
<text text-anchor="middle" x="25.3" y="-127.6" font-family="Work Sans" font-size="8.00"> METHOD &#160;&#160;</text>
</g>
<!-- V104677 -->
<g id="node5" class="node">
<title>V104677</title>
<g id="a_node5"><a xlink:href="http://trips.ihmc.us/lexicon/data/ONT::PERSON.xml" xlink:title="&lt;font color=&quot;green&quot;&gt;&lt;br /&gt;&lt;/font&gt; &lt;font color=&quot;black&quot;&gt;PERSON&lt;/font&gt; &lt;font color=&quot;green&quot;&gt;&lt;br /&gt;&lt;/font&gt; &lt;font color=&quot;red&quot;&gt;PRO&lt;/font&gt; &lt;font color=&quot;blue&quot;&gt;YOU&lt;/font&gt; &lt;font color=&quot;green&quot;&gt;&lt;br /&gt; &lt;/font&gt;">
<text text-anchor="start" x="79.4" y="-94.6" font-family="Work Sans" font-size="8.00"> </text>
<text text-anchor="start" x="81.63" y="-94.6" font-family="Work Sans" font-size="8.00">PERSON</text>
<text text-anchor="start" x="115.41" y="-94.6" font-family="Work Sans" font-size="8.00"> </text>
<text text-anchor="start" x="77.85" y="-86.6" font-family="Work Sans" font-size="8.00"> </text>
<text text-anchor="start" x="80.07" y="-86.6" font-family="Work Sans" font-size="8.00" fill="red">PRO</text>
<text text-anchor="start" x="97.41" y="-86.6" font-family="Work Sans" font-size="8.00"> </text>
<text text-anchor="start" x="99.63" y="-86.6" font-family="Work Sans" font-size="8.00" fill="blue">YOU</text>
<text text-anchor="start" x="116.97" y="-86.6" font-family="Work Sans" font-size="8.00"> </text>
<text text-anchor="start" x="97.41" y="-78.6" font-family="Work Sans" font-size="8.00" fill="green"> </text>
</a>
</g>
</g>
<!-- V104689&#45;&gt;V104677 -->
<g id="edge2" class="edge">
<title>V104689&#45;&gt;V104677</title>
<path fill="none" stroke="grey" stroke-width="0.5" d="M98.52,-151.67C98.52,-140.58 98.52,-125.49 98.52,-113.38"/>
<polygon fill="grey" stroke="grey" stroke-width="0.5" points="100.27,-113.06 98.52,-108.06 96.77,-113.06 100.27,-113.06"/>
<text text-anchor="middle" x="116.46" y="-127.6" font-family="Work Sans" font-size="8.00"> AGENT &#160;&#160;</text>
</g>
<!-- V104704 -->
<g id="node6" class="node">
<title>V104704</title>
<g id="a_node6"><a xlink:href="http://trips.ihmc.us/lexicon/data/ONT::BOX.xml" xlink:title="&lt;font color=&quot;green&quot;&gt;&lt;br /&gt;&lt;/font&gt; &lt;font color=&quot;black&quot;&gt;BOX&lt;/font&gt; &lt;font color=&quot;green&quot;&gt;&lt;br /&gt;&lt;/font&gt; &lt;font color=&quot;red&quot;&gt;THE&lt;/font&gt; &lt;font color=&quot;blue&quot;&gt;BOX&lt;/font&gt; &lt;font color=&quot;green&quot;&gt;&lt;br /&gt; &lt;/font&gt;">
<polygon fill="pink" stroke="transparent" stroke-width="0.5" points="137.95,-76 157.52,-76 157.52,-108 137.95,-108 137.95,-76"/>
<polygon fill="lightblue" stroke="transparent" stroke-width="0.5" points="157.52,-76 177.08,-76 177.08,-108 157.52,-108 157.52,-76"/>
<polygon fill="none" stroke="transparent" points="177.08,-108 137.95,-108 137.95,-76 177.08,-76 177.08,-108"/>
<text text-anchor="start" x="146.85" y="-94.6" font-family="Work Sans" font-size="8.00"> </text>
<text text-anchor="start" x="149.07" y="-94.6" font-family="Work Sans" font-size="8.00">BOX</text>
<text text-anchor="start" x="165.97" y="-94.6" font-family="Work Sans" font-size="8.00"> </text>
<text text-anchor="start" x="137.74" y="-86.6" font-family="Work Sans" font-size="8.00"> </text>
<text text-anchor="start" x="139.96" y="-86.6" font-family="Work Sans" font-size="8.00" fill="red">THE</text>
<text text-anchor="start" x="155.96" y="-86.6" font-family="Work Sans" font-size="8.00"> </text>
<text text-anchor="start" x="158.18" y="-86.6" font-family="Work Sans" font-size="8.00" fill="blue">BOX</text>
<text text-anchor="start" x="175.08" y="-86.6" font-family="Work Sans" font-size="8.00"> </text>
<text text-anchor="start" x="156.41" y="-78.6" font-family="Work Sans" font-size="8.00" fill="green"> </text>
</a>
</g>
</g>
<!-- V104689&#45;&gt;V104704 -->
<g id="edge3" class="edge">
<title>V104689&#45;&gt;V104704</title>
<path fill="none" stroke="grey" stroke-width="0.5" d="M115.93,-153.67C122.56,-148.06 129.87,-141.17 135.52,-134 140.56,-127.61 145.04,-119.9 148.62,-112.9"/>
<polygon fill="grey" stroke="grey" stroke-width="0.5" points="150.3,-113.44 150.95,-108.19 147.16,-111.89 150.3,-113.44"/>
<text text-anchor="middle" x="165.86" y="-127.6" font-family="Work Sans" font-size="8.00"> AFFECTED &#160;&#160;</text>
</g>
<!-- V104646&#45;&gt;V104689 -->
<g id="edge1" class="edge">
<title>V104646&#45;&gt;V104689</title>
<path fill="none" stroke="grey" stroke-width="0.5" d="M38.05,-108.33C42.45,-116.46 48.51,-126.32 55.41,-134 61.66,-140.97 69.56,-147.5 76.88,-152.88"/>
<polygon fill="grey" stroke="grey" stroke-width="0.5" points="76.26,-154.59 81.34,-156.08 78.3,-151.75 76.26,-154.59"/>
<text text-anchor="middle" x="75.08" y="-127.6" font-family="Work Sans" font-size="8.00"> FIGURE &#160;&#160;</text>
</g>
<!-- V104646&#45;&gt;V104719 -->
<g id="edge6" class="edge">
<title>V104646&#45;&gt;V104719</title>
<path fill="none" stroke="grey" stroke-width="0.5" d="M27.11,-75.89C26.09,-67.64 26.3,-57.59 31.07,-50 39.14,-37.18 53.81,-29.18 67.32,-24.27"/>
<polygon fill="grey" stroke="grey" stroke-width="0.5" points="68.06,-25.87 72.23,-22.6 66.93,-22.55 68.06,-25.87"/>
<text text-anchor="middle" x="53.74" y="-51.6" font-family="Work Sans" font-size="8.00"> GROUND &#160;&#160;</text>
</g>
<!-- V104719&#45;&gt;V104646 -->
<g id="edge7" class="edge">
<title>V104719&#45;&gt;V104646</title>
<path fill="none" stroke="grey" stroke-width="0.5" d="M91.43,-32.04C87.63,-40.26 82.19,-50.32 75.52,-58 70.96,-63.25 65.43,-68.14 59.82,-72.47"/>
<polygon fill="grey" stroke="grey" stroke-width="0.5" points="58.49,-71.28 55.53,-75.67 60.59,-74.08 58.49,-71.28"/>
<text text-anchor="middle" x="107.38" y="-51.6" font-family="Work Sans" font-size="8.00"> SUCHTHAT &#160;&#160;</text>
</g>
</g>
</svg>
