<?xml version="1.0" encoding="UTF-8" standalone="no"?>
<!DOCTYPE svg PUBLIC "-//W3C//DTD SVG 1.1//EN"
 "http://www.w3.org/Graphics/SVG/1.1/DTD/svg11.dtd">
<!-- Generated by graphviz version 2.43.0 (0)
 -->
<!-- Title: graph Pages: 1 -->
<svg width="351pt" height="284pt"
 viewBox="0.00 0.00 350.68 284.00" xmlns="http://www.w3.org/2000/svg" xmlns:xlink="http://www.w3.org/1999/xlink">
<g id="graph0" class="graph" transform="scale(1 1) rotate(0) translate(4 280)">
<title>graph</title>
<polygon fill="white" stroke="transparent" points="-4,4 -4,-280 346.68,-280 346.68,4 -4,4"/>
<!-- V70922 -->
<g id="node1" class="node">
<title>V70922</title>
<g id="a_node1"><a xlink:href="http://trips.ihmc.us/lexicon/data/ONT::SA_WH-QUESTION.xml" xlink:title="&lt;font color=&quot;green&quot;&gt;&lt;br /&gt;&lt;/font&gt; &lt;font color=&quot;black&quot;&gt;SA_WH&#45;QUESTION&lt;/font&gt; &lt;font color=&quot;green&quot;&gt;&lt;br /&gt;&lt;/font&gt; &lt;font color=&quot;red&quot;&gt;SPEECHACT&lt;/font&gt; &lt;font color=&quot;blue&quot;&gt;* &lt;/font&gt; &lt;font color=&quot;green&quot;&gt;&lt;br /&gt; &lt;/font&gt;">
<text text-anchor="start" x="199.12" y="-262.6" font-family="Work Sans" font-size="8.00"> </text>
<text text-anchor="start" x="201.34" y="-262.6" font-family="Work Sans" font-size="8.00">SA_WH&#45;QUESTION</text>
<text text-anchor="start" x="274.24" y="-262.6" font-family="Work Sans" font-size="8.00"> </text>
<text text-anchor="start" x="207.34" y="-254.6" font-family="Work Sans" font-size="8.00"> </text>
<text text-anchor="start" x="209.56" y="-254.6" font-family="Work Sans" font-size="8.00" fill="red">SPEECHACT</text>
<text text-anchor="start" x="258.46" y="-254.6" font-family="Work Sans" font-size="8.00"> </text>
<text text-anchor="start" x="260.68" y="-254.6" font-family="Work Sans" font-size="8.00" fill="blue">* </text>
<text text-anchor="start" x="266.02" y="-254.6" font-family="Work Sans" font-size="8.00"> </text>
<text text-anchor="start" x="236.68" y="-246.6" font-family="Work Sans" font-size="8.00" fill="green"> </text>
</a>
</g>
</g>
<!-- V70328 -->
<g id="node2" class="node">
<title>V70328</title>
<g id="a_node2"><a xlink:href="http://trips.ihmc.us/lexicon/data/ONT::OCCURRING.xml" xlink:title="&lt;font color=&quot;green&quot;&gt;&lt;br /&gt;&lt;/font&gt; &lt;font color=&quot;black&quot;&gt;OCCURRING&lt;/font&gt; &lt;font color=&quot;green&quot;&gt;&lt;br /&gt;&lt;/font&gt; &lt;font color=&quot;red&quot;&gt;F&lt;/font&gt; &lt;font color=&quot;blue&quot;&gt;GO&lt;/font&gt; &lt;font color=&quot;green&quot;&gt;&lt;br /&gt;&lt;/font&gt; &lt;font color=&quot;green&quot;&gt;go%2:30:01::&lt;/font&gt; &lt;font color=&quot;green&quot;&gt;&lt;br /&gt; &lt;/font&gt;">
<polygon fill="pink" stroke="transparent" points="191.57,-200 138.01,-200 138.01,-160 191.57,-160 191.57,-200"/>
<text text-anchor="start" x="137.9" y="-186.6" font-family="Work Sans" font-size="8.00"> </text>
<text text-anchor="start" x="140.12" y="-186.6" font-family="Work Sans" font-size="8.00">OCCURRING</text>
<text text-anchor="start" x="189.46" y="-186.6" font-family="Work Sans" font-size="8.00"> </text>
<text text-anchor="start" x="152.79" y="-178.6" font-family="Work Sans" font-size="8.00"> </text>
<text text-anchor="start" x="155.01" y="-178.6" font-family="Work Sans" font-size="8.00" fill="red">F</text>
<text text-anchor="start" x="159.9" y="-178.6" font-family="Work Sans" font-size="8.00"> </text>
<text text-anchor="start" x="162.12" y="-178.6" font-family="Work Sans" font-size="8.00" fill="blue">GO</text>
<text text-anchor="start" x="174.57" y="-178.6" font-family="Work Sans" font-size="8.00"> </text>
<text text-anchor="start" x="138.99" y="-170.6" font-family="Work Sans" font-size="8.00"> </text>
<text text-anchor="start" x="141.21" y="-170.6" font-family="Work Sans" font-size="8.00" fill="green">go%2:30:01::</text>
<text text-anchor="start" x="188.36" y="-170.6" font-family="Work Sans" font-size="8.00"> </text>
<text text-anchor="start" x="163.68" y="-162.6" font-family="Work Sans" font-size="8.00" fill="green"> </text>
</a>
</g>
</g>
<!-- V70922&#45;&gt;V70328 -->
<g id="edge4" class="edge">
<title>V70922&#45;&gt;V70328</title>
<path fill="none" stroke="grey" stroke-width="0.5" d="M223.71,-243.96C213.13,-232.65 198.43,-216.94 186.36,-204.05"/>
<polygon fill="grey" stroke="grey" stroke-width="0.5" points="187.4,-202.6 182.71,-200.14 184.84,-204.99 187.4,-202.6"/>
<text text-anchor="middle" x="229.5" y="-219.6" font-family="Work Sans" font-size="8.00"> CONTENT &#160;&#160;</text>
</g>
<!-- V70370 -->
<g id="node4" class="node">
<title>V70370</title>
<g id="a_node4"><a xlink:href="http://trips.ihmc.us/lexicon/data/ONT::METHOD.xml" xlink:title="&lt;font color=&quot;green&quot;&gt;&lt;br /&gt;&lt;/font&gt; &lt;font color=&quot;black&quot;&gt;METHOD&lt;/font&gt; &lt;font color=&quot;green&quot;&gt;&lt;br /&gt;&lt;/font&gt; &lt;font color=&quot;red&quot;&gt;WH&#45;TERM&lt;/font&gt; &lt;font color=&quot;blue&quot;&gt;* &lt;/font&gt; &lt;font color=&quot;green&quot;&gt;&lt;br /&gt; &lt;/font&gt;">
<polygon fill="pink" stroke="transparent" points="144.95,-32 94.63,-32 94.63,0 144.95,0 144.95,-32"/>
<text text-anchor="start" x="100.23" y="-18.6" font-family="Work Sans" font-size="8.00"> </text>
<text text-anchor="start" x="102.46" y="-18.6" font-family="Work Sans" font-size="8.00">METHOD</text>
<text text-anchor="start" x="137.12" y="-18.6" font-family="Work Sans" font-size="8.00"> </text>
<text text-anchor="start" x="94.46" y="-10.6" font-family="Work Sans" font-size="8.00"> </text>
<text text-anchor="start" x="96.68" y="-10.6" font-family="Work Sans" font-size="8.00" fill="red">WH&#45;TERM</text>
<text text-anchor="start" x="135.34" y="-10.6" font-family="Work Sans" font-size="8.00"> </text>
<text text-anchor="start" x="137.56" y="-10.6" font-family="Work Sans" font-size="8.00" fill="blue">* </text>
<text text-anchor="start" x="142.9" y="-10.6" font-family="Work Sans" font-size="8.00"> </text>
<text text-anchor="start" x="118.68" y="-2.6" font-family="Work Sans" font-size="8.00" fill="green"> </text>
</a>
</g>
</g>
<!-- V70922&#45;&gt;V70370 -->
<g id="edge3" class="edge">
<title>V70922&#45;&gt;V70370</title>
<path fill="none" stroke="grey" stroke-width="0.5" d="M249.95,-243.89C266.2,-222.64 294.16,-182.04 304.79,-142 311.21,-117.82 308.34,-99.12 285.79,-76 249.25,-38.54 187.41,-24.8 150.4,-19.8"/>
<polygon fill="grey" stroke="grey" stroke-width="0.5" points="150.31,-18.03 145.13,-19.13 149.87,-21.5 150.31,-18.03"/>
<text text-anchor="middle" x="324.23" y="-135.6" font-family="Work Sans" font-size="8.00"> FOCUS &#160;&#160;</text>
</g>
<!-- V70288 -->
<g id="node3" class="node">
<title>V70288</title>
<g id="a_node3"><a xlink:href="http://trips.ihmc.us/lexicon/data/ONT::BY-MEANS-OF.xml" xlink:title="&lt;font color=&quot;green&quot;&gt;&lt;br /&gt;&lt;/font&gt; &lt;font color=&quot;black&quot;&gt;BY&#45;MEANS&#45;OF&lt;/font&gt; &lt;font color=&quot;green&quot;&gt;&lt;br /&gt;&lt;/font&gt; &lt;font color=&quot;red&quot;&gt;F&lt;/font&gt; &lt;font color=&quot;blue&quot;&gt;HOW&lt;/font&gt; &lt;font color=&quot;green&quot;&gt;&lt;br /&gt; &lt;/font&gt;">
<polygon fill="pink" stroke="transparent" points="82.56,-112 23.02,-112 23.02,-80 82.56,-80 82.56,-112"/>
<text text-anchor="start" x="23.15" y="-98.6" font-family="Work Sans" font-size="8.00"> </text>
<text text-anchor="start" x="25.38" y="-98.6" font-family="Work Sans" font-size="8.00">BY&#45;MEANS&#45;OF</text>
<text text-anchor="start" x="80.2" y="-98.6" font-family="Work Sans" font-size="8.00"> </text>
<text text-anchor="start" x="37.24" y="-90.6" font-family="Work Sans" font-size="8.00"> </text>
<text text-anchor="start" x="39.46" y="-90.6" font-family="Work Sans" font-size="8.00" fill="red">F</text>
<text text-anchor="start" x="44.35" y="-90.6" font-family="Work Sans" font-size="8.00"> </text>
<text text-anchor="start" x="46.57" y="-90.6" font-family="Work Sans" font-size="8.00" fill="blue">HOW</text>
<text text-anchor="start" x="66.12" y="-90.6" font-family="Work Sans" font-size="8.00"> </text>
<text text-anchor="start" x="51.68" y="-82.6" font-family="Work Sans" font-size="8.00" fill="green"> </text>
</a>
</g>
</g>
<!-- V70328&#45;&gt;V70288 -->
<g id="edge1" class="edge">
<title>V70328&#45;&gt;V70288</title>
<path fill="none" stroke="red" stroke-width="0.5" d="M137.89,-176.81C96.39,-172.81 19.78,-162.76 3.23,-142 -5.48,-131.06 4.96,-120.46 18.46,-112.29"/>
<polygon fill="red" stroke="red" stroke-width="0.5" points="19.67,-113.62 23.14,-109.62 17.93,-110.58 19.67,-113.62"/>
<text text-anchor="middle" x="25.57" y="-135.6" font-family="Work Sans" font-size="8.00"> METHOD &#160;&#160;</text>
</g>
<!-- V70312 -->
<g id="node5" class="node">
<title>V70312</title>
<g id="a_node5"><a xlink:href="http://trips.ihmc.us/lexicon/data/ONT::MUSIC.xml" xlink:title="&lt;font color=&quot;green&quot;&gt;&lt;br /&gt;&lt;/font&gt; &lt;font color=&quot;black&quot;&gt;MUSIC&lt;/font&gt; &lt;font color=&quot;green&quot;&gt;&lt;br /&gt;&lt;/font&gt; &lt;font color=&quot;red&quot;&gt;THE&lt;/font&gt; &lt;font color=&quot;blue&quot;&gt;SONG&lt;/font&gt; &lt;font color=&quot;green&quot;&gt;&lt;br /&gt;&lt;/font&gt; &lt;font color=&quot;green&quot;&gt;song%1:10:00::&lt;/font&gt; &lt;font color=&quot;green&quot;&gt;&lt;br /&gt; &lt;/font&gt;">
<text text-anchor="start" x="115.68" y="-102.6" font-family="Work Sans" font-size="8.00"> </text>
<text text-anchor="start" x="117.9" y="-102.6" font-family="Work Sans" font-size="8.00">MUSIC</text>
<text text-anchor="start" x="143.68" y="-102.6" font-family="Work Sans" font-size="8.00"> </text>
<text text-anchor="start" x="107.68" y="-94.6" font-family="Work Sans" font-size="8.00"> </text>
<text text-anchor="start" x="109.9" y="-94.6" font-family="Work Sans" font-size="8.00" fill="red">THE</text>
<text text-anchor="start" x="125.9" y="-94.6" font-family="Work Sans" font-size="8.00"> </text>
<text text-anchor="start" x="128.12" y="-94.6" font-family="Work Sans" font-size="8.00" fill="blue">SONG</text>
<text text-anchor="start" x="151.68" y="-94.6" font-family="Work Sans" font-size="8.00"> </text>
<text text-anchor="start" x="100.77" y="-86.6" font-family="Work Sans" font-size="8.00"> </text>
<text text-anchor="start" x="102.99" y="-86.6" font-family="Work Sans" font-size="8.00" fill="green">song%1:10:00::</text>
<text text-anchor="start" x="158.59" y="-86.6" font-family="Work Sans" font-size="8.00"> </text>
<text text-anchor="start" x="129.68" y="-78.6" font-family="Work Sans" font-size="8.00" fill="green"> </text>
</a>
</g>
</g>
<!-- V70328&#45;&gt;V70312 -->
<g id="edge5" class="edge">
<title>V70328&#45;&gt;V70312</title>
<path fill="none" stroke="red" stroke-width="0.5" d="M143.07,-159.66C138.54,-154.41 134.37,-148.4 131.85,-142 129.34,-135.63 128.42,-128.34 128.3,-121.52"/>
<polygon fill="red" stroke="red" stroke-width="0.5" points="130.06,-121.43 128.36,-116.41 126.56,-121.39 130.06,-121.43"/>
<text text-anchor="middle" x="155.76" y="-135.6" font-family="Work Sans" font-size="8.00"> NEUTRAL &#160;&#160;</text>
</g>
<!-- V70349 -->
<g id="node6" class="node">
<title>V70349</title>
<g id="a_node6"><a xlink:href="http://trips.ihmc.us/lexicon/data/ONT::AGAIN.xml" xlink:title="&lt;font color=&quot;green&quot;&gt;&lt;br /&gt;&lt;/font&gt; &lt;font color=&quot;black&quot;&gt;AGAIN&lt;/font&gt; &lt;font color=&quot;green&quot;&gt;&lt;br /&gt;&lt;/font&gt; &lt;font color=&quot;red&quot;&gt;F&lt;/font&gt; &lt;font color=&quot;blue&quot;&gt;AGAIN&lt;/font&gt; &lt;font color=&quot;green&quot;&gt;&lt;br /&gt;&lt;/font&gt; &lt;font color=&quot;green&quot;&gt;again%4:02:00::&lt;/font&gt; &lt;font color=&quot;green&quot;&gt;&lt;br /&gt; &lt;/font&gt;">
<text text-anchor="start" x="231.12" y="-102.6" font-family="Work Sans" font-size="8.00"> </text>
<text text-anchor="start" x="233.34" y="-102.6" font-family="Work Sans" font-size="8.00">AGAIN</text>
<text text-anchor="start" x="258.24" y="-102.6" font-family="Work Sans" font-size="8.00"> </text>
<text text-anchor="start" x="227.56" y="-94.6" font-family="Work Sans" font-size="8.00"> </text>
<text text-anchor="start" x="229.79" y="-94.6" font-family="Work Sans" font-size="8.00" fill="red">F</text>
<text text-anchor="start" x="234.67" y="-94.6" font-family="Work Sans" font-size="8.00"> </text>
<text text-anchor="start" x="236.9" y="-94.6" font-family="Work Sans" font-size="8.00" fill="blue">AGAIN</text>
<text text-anchor="start" x="261.79" y="-94.6" font-family="Work Sans" font-size="8.00"> </text>
<text text-anchor="start" x="214.65" y="-86.6" font-family="Work Sans" font-size="8.00"> </text>
<text text-anchor="start" x="216.88" y="-86.6" font-family="Work Sans" font-size="8.00" fill="green">again%4:02:00::</text>
<text text-anchor="start" x="274.7" y="-86.6" font-family="Work Sans" font-size="8.00"> </text>
<text text-anchor="start" x="244.68" y="-78.6" font-family="Work Sans" font-size="8.00" fill="green"> </text>
</a>
</g>
</g>
<!-- V70328&#45;&gt;V70349 -->
<g id="edge9" class="edge">
<title>V70328&#45;&gt;V70349</title>
<path fill="none" stroke="red" stroke-width="0.5" d="M176.68,-159.61C182.26,-151.28 189.33,-141.7 196.81,-134 201.82,-128.85 207.59,-123.84 213.37,-119.26"/>
<polygon fill="red" stroke="red" stroke-width="0.5" points="214.49,-120.61 217.36,-116.16 212.34,-117.85 214.49,-120.61"/>
<text text-anchor="middle" x="227.28" y="-135.6" font-family="Work Sans" font-size="8.00"> FREQUENCY &#160;&#160;</text>
</g>
<!-- V70288&#45;&gt;V70328 -->
<g id="edge7" class="edge">
<title>V70288&#45;&gt;V70328</title>
<path fill="none" stroke="grey" stroke-width="0.5" d="M61.62,-112.28C67.71,-121.78 76.52,-133.72 86.68,-142 100.37,-153.16 117.98,-161.88 133.01,-168.04"/>
<polygon fill="grey" stroke="grey" stroke-width="0.5" points="132.71,-169.8 138,-170.03 134.01,-166.55 132.71,-169.8"/>
<text text-anchor="middle" x="106.35" y="-135.6" font-family="Work Sans" font-size="8.00"> FIGURE &#160;&#160;</text>
</g>
<!-- V70288&#45;&gt;V70370 -->
<g id="edge8" class="edge">
<title>V70288&#45;&gt;V70370</title>
<path fill="none" stroke="grey" stroke-width="0.5" d="M47.24,-79.7C44.88,-70.42 43.79,-58.73 49.34,-50 58.2,-36.07 74.65,-27.92 89.43,-23.21"/>
<polygon fill="grey" stroke="grey" stroke-width="0.5" points="90.07,-24.84 94.36,-21.74 89.07,-21.49 90.07,-24.84"/>
<text text-anchor="middle" x="72.01" y="-51.6" font-family="Work Sans" font-size="8.00"> GROUND &#160;&#160;</text>
</g>
<!-- V70370&#45;&gt;V70288 -->
<g id="edge2" class="edge">
<title>V70370&#45;&gt;V70288</title>
<path fill="none" stroke="grey" stroke-width="0.5" d="M113.34,-32.29C109.51,-40.4 104.15,-50.26 97.79,-58 92.26,-64.73 85.36,-71.12 78.63,-76.64"/>
<polygon fill="grey" stroke="grey" stroke-width="0.5" points="77.3,-75.47 74.48,-79.96 79.48,-78.2 77.3,-75.47"/>
<text text-anchor="middle" x="129.65" y="-51.6" font-family="Work Sans" font-size="8.00"> SUCHTHAT &#160;&#160;</text>
</g>
<!-- V70349&#45;&gt;V70328 -->
<g id="edge6" class="edge">
<title>V70349&#45;&gt;V70328</title>
<path fill="none" stroke="grey" stroke-width="0.5" d="M258.79,-116.07C262.85,-124.53 265.05,-134.3 259.79,-142 245.73,-162.56 218.42,-171.7 196.68,-175.76"/>
<polygon fill="grey" stroke="grey" stroke-width="0.5" points="196.2,-174.06 191.57,-176.64 196.79,-177.51 196.2,-174.06"/>
<text text-anchor="middle" x="281.35" y="-135.6" font-family="Work Sans" font-size="8.00"> FIGURE &#160;&#160;</text>
</g>
</g>
</svg>
