<?xml version="1.0" encoding="UTF-8" standalone="no"?>
<!DOCTYPE svg PUBLIC "-//W3C//DTD SVG 1.1//EN"
 "http://www.w3.org/Graphics/SVG/1.1/DTD/svg11.dtd">
<!-- Generated by graphviz version 2.43.0 (0)
 -->
<!-- Title: graph Pages: 1 -->
<svg width="328pt" height="284pt"
 viewBox="0.00 0.00 327.53 284.00" xmlns="http://www.w3.org/2000/svg" xmlns:xlink="http://www.w3.org/1999/xlink">
<g id="graph0" class="graph" transform="scale(1 1) rotate(0) translate(4 280)">
<title>graph</title>
<polygon fill="white" stroke="transparent" points="-4,4 -4,-280 323.53,-280 323.53,4 -4,4"/>
<!-- V70922 -->
<g id="node1" class="node">
<title>V70922</title>
<g id="a_node1"><a xlink:href="http://trips.ihmc.us/lexicon/data/ONT::SA_WH-QUESTION.xml" xlink:title="&lt;font color=&quot;green&quot;&gt;&lt;br /&gt;&lt;/font&gt; &lt;font color=&quot;black&quot;&gt;SA_WH&#45;QUESTION&lt;/font&gt; &lt;font color=&quot;green&quot;&gt;&lt;br /&gt;&lt;/font&gt; &lt;font color=&quot;red&quot;&gt;SPEECHACT&lt;/font&gt; &lt;font color=&quot;blue&quot;&gt;* &lt;/font&gt; &lt;font color=&quot;green&quot;&gt;&lt;br /&gt; &lt;/font&gt;">
<text text-anchor="start" x="175.96" y="-262.6" font-family="Work Sans" font-size="8.00"> </text>
<text text-anchor="start" x="178.19" y="-262.6" font-family="Work Sans" font-size="8.00">SA_WH&#45;QUESTION</text>
<text text-anchor="start" x="251.08" y="-262.6" font-family="Work Sans" font-size="8.00"> </text>
<text text-anchor="start" x="184.18" y="-254.6" font-family="Work Sans" font-size="8.00"> </text>
<text text-anchor="start" x="186.41" y="-254.6" font-family="Work Sans" font-size="8.00" fill="red">SPEECHACT</text>
<text text-anchor="start" x="235.3" y="-254.6" font-family="Work Sans" font-size="8.00"> </text>
<text text-anchor="start" x="237.53" y="-254.6" font-family="Work Sans" font-size="8.00" fill="blue">* </text>
<text text-anchor="start" x="242.86" y="-254.6" font-family="Work Sans" font-size="8.00"> </text>
<text text-anchor="start" x="213.52" y="-246.6" font-family="Work Sans" font-size="8.00" fill="green"> </text>
</a>
</g>
</g>
<!-- V70328 -->
<g id="node2" class="node">
<title>V70328</title>
<g id="a_node2"><a xlink:href="http://trips.ihmc.us/lexicon/data/ONT::OCCURRING.xml" xlink:title="&lt;font color=&quot;green&quot;&gt;&lt;br /&gt;&lt;/font&gt; &lt;font color=&quot;black&quot;&gt;OCCURRING&lt;/font&gt; &lt;font color=&quot;green&quot;&gt;&lt;br /&gt;&lt;/font&gt; &lt;font color=&quot;red&quot;&gt;F&lt;/font&gt; &lt;font color=&quot;blue&quot;&gt;GO&lt;/font&gt; &lt;font color=&quot;green&quot;&gt;&lt;br /&gt;&lt;/font&gt; &lt;font color=&quot;green&quot;&gt;go%2:30:01::&lt;/font&gt; &lt;font color=&quot;green&quot;&gt;&lt;br /&gt; &lt;/font&gt;">
<polygon fill="pink" stroke="transparent" points="168.41,-200 114.86,-200 114.86,-160 168.41,-160 168.41,-200"/>
<text text-anchor="start" x="114.75" y="-186.6" font-family="Work Sans" font-size="8.00"> </text>
<text text-anchor="start" x="116.97" y="-186.6" font-family="Work Sans" font-size="8.00">OCCURRING</text>
<text text-anchor="start" x="166.3" y="-186.6" font-family="Work Sans" font-size="8.00"> </text>
<text text-anchor="start" x="129.63" y="-178.6" font-family="Work Sans" font-size="8.00"> </text>
<text text-anchor="start" x="131.86" y="-178.6" font-family="Work Sans" font-size="8.00" fill="red">F</text>
<text text-anchor="start" x="136.74" y="-178.6" font-family="Work Sans" font-size="8.00"> </text>
<text text-anchor="start" x="138.97" y="-178.6" font-family="Work Sans" font-size="8.00" fill="blue">GO</text>
<text text-anchor="start" x="151.41" y="-178.6" font-family="Work Sans" font-size="8.00"> </text>
<text text-anchor="start" x="115.84" y="-170.6" font-family="Work Sans" font-size="8.00"> </text>
<text text-anchor="start" x="118.06" y="-170.6" font-family="Work Sans" font-size="8.00" fill="green">go%2:30:01::</text>
<text text-anchor="start" x="165.21" y="-170.6" font-family="Work Sans" font-size="8.00"> </text>
<text text-anchor="start" x="140.52" y="-162.6" font-family="Work Sans" font-size="8.00" fill="green"> </text>
</a>
</g>
</g>
<!-- V70922&#45;&gt;V70328 -->
<g id="edge4" class="edge">
<title>V70922&#45;&gt;V70328</title>
<path fill="none" stroke="grey" stroke-width="0.5" d="M200.56,-243.96C189.97,-232.65 175.27,-216.94 163.2,-204.05"/>
<polygon fill="grey" stroke="grey" stroke-width="0.5" points="164.25,-202.6 159.55,-200.14 161.69,-204.99 164.25,-202.6"/>
<text text-anchor="middle" x="206.34" y="-219.6" font-family="Work Sans" font-size="8.00"> CONTENT &#160;&#160;</text>
</g>
<!-- V70370 -->
<g id="node4" class="node">
<title>V70370</title>
<g id="a_node4"><a xlink:href="http://trips.ihmc.us/lexicon/data/ONT::METHOD.xml" xlink:title="&lt;font color=&quot;green&quot;&gt;&lt;br /&gt;&lt;/font&gt; &lt;font color=&quot;black&quot;&gt;METHOD&lt;/font&gt; &lt;font color=&quot;green&quot;&gt;&lt;br /&gt;&lt;/font&gt; &lt;font color=&quot;red&quot;&gt;WH&#45;TERM&lt;/font&gt; &lt;font color=&quot;blue&quot;&gt;* &lt;/font&gt; &lt;font color=&quot;green&quot;&gt;&lt;br /&gt; &lt;/font&gt;">
<polygon fill="pink" stroke="transparent" points="121.8,-32 71.47,-32 71.47,0 121.8,0 121.8,-32"/>
<text text-anchor="start" x="77.08" y="-18.6" font-family="Work Sans" font-size="8.00"> </text>
<text text-anchor="start" x="79.3" y="-18.6" font-family="Work Sans" font-size="8.00">METHOD</text>
<text text-anchor="start" x="113.97" y="-18.6" font-family="Work Sans" font-size="8.00"> </text>
<text text-anchor="start" x="71.3" y="-10.6" font-family="Work Sans" font-size="8.00"> </text>
<text text-anchor="start" x="73.53" y="-10.6" font-family="Work Sans" font-size="8.00" fill="red">WH&#45;TERM</text>
<text text-anchor="start" x="112.18" y="-10.6" font-family="Work Sans" font-size="8.00"> </text>
<text text-anchor="start" x="114.41" y="-10.6" font-family="Work Sans" font-size="8.00" fill="blue">* </text>
<text text-anchor="start" x="119.74" y="-10.6" font-family="Work Sans" font-size="8.00"> </text>
<text text-anchor="start" x="95.52" y="-2.6" font-family="Work Sans" font-size="8.00" fill="green"> </text>
</a>
</g>
</g>
<!-- V70922&#45;&gt;V70370 -->
<g id="edge1" class="edge">
<title>V70922&#45;&gt;V70370</title>
<path fill="none" stroke="grey" stroke-width="0.5" d="M226.8,-243.89C243.04,-222.64 271,-182.04 281.63,-142 288.06,-117.82 285.19,-99.12 262.63,-76 226.1,-38.54 164.26,-24.8 127.25,-19.8"/>
<polygon fill="grey" stroke="grey" stroke-width="0.5" points="127.16,-18.03 121.98,-19.13 126.71,-21.5 127.16,-18.03"/>
<text text-anchor="middle" x="301.08" y="-135.6" font-family="Work Sans" font-size="8.00"> FOCUS &#160;&#160;</text>
</g>
<!-- V70288 -->
<g id="node3" class="node">
<title>V70288</title>
<g id="a_node3"><a xlink:href="http://trips.ihmc.us/lexicon/data/ONT::BY-MEANS-OF.xml" xlink:title="&lt;font color=&quot;green&quot;&gt;&lt;br /&gt;&lt;/font&gt; &lt;font color=&quot;black&quot;&gt;BY&#45;MEANS&#45;OF&lt;/font&gt; &lt;font color=&quot;green&quot;&gt;&lt;br /&gt;&lt;/font&gt; &lt;font color=&quot;red&quot;&gt;F&lt;/font&gt; &lt;font color=&quot;blue&quot;&gt;HOW&lt;/font&gt; &lt;font color=&quot;green&quot;&gt;&lt;br /&gt; &lt;/font&gt;">
<polygon fill="pink" stroke="transparent" points="59.4,-112 -0.14,-112 -0.14,-80 59.4,-80 59.4,-112"/>
<text text-anchor="start" x="0" y="-98.6" font-family="Work Sans" font-size="8.00"> </text>
<text text-anchor="start" x="2.22" y="-98.6" font-family="Work Sans" font-size="8.00">BY&#45;MEANS&#45;OF</text>
<text text-anchor="start" x="57.05" y="-98.6" font-family="Work Sans" font-size="8.00"> </text>
<text text-anchor="start" x="14.08" y="-90.6" font-family="Work Sans" font-size="8.00"> </text>
<text text-anchor="start" x="16.3" y="-90.6" font-family="Work Sans" font-size="8.00" fill="red">F</text>
<text text-anchor="start" x="21.19" y="-90.6" font-family="Work Sans" font-size="8.00"> </text>
<text text-anchor="start" x="23.41" y="-90.6" font-family="Work Sans" font-size="8.00" fill="blue">HOW</text>
<text text-anchor="start" x="42.96" y="-90.6" font-family="Work Sans" font-size="8.00"> </text>
<text text-anchor="start" x="28.52" y="-82.6" font-family="Work Sans" font-size="8.00" fill="green"> </text>
</a>
</g>
</g>
<!-- V70328&#45;&gt;V70288 -->
<g id="edge9" class="edge">
<title>V70328&#45;&gt;V70288</title>
<path fill="none" stroke="red" stroke-width="0.5" d="M114.62,-175.32C79.68,-169.96 21.79,-158.75 9.08,-142 3.3,-134.38 6.44,-124.87 11.83,-116.56"/>
<polygon fill="red" stroke="red" stroke-width="0.5" points="13.54,-117.18 15.01,-112.09 10.69,-115.15 13.54,-117.18"/>
<text text-anchor="middle" x="31.41" y="-135.6" font-family="Work Sans" font-size="8.00"> METHOD &#160;&#160;</text>
</g>
<!-- V70312 -->
<g id="node5" class="node">
<title>V70312</title>
<g id="a_node5"><a xlink:href="http://trips.ihmc.us/lexicon/data/ONT::MUSIC.xml" xlink:title="&lt;font color=&quot;green&quot;&gt;&lt;br /&gt;&lt;/font&gt; &lt;font color=&quot;black&quot;&gt;MUSIC&lt;/font&gt; &lt;font color=&quot;green&quot;&gt;&lt;br /&gt;&lt;/font&gt; &lt;font color=&quot;red&quot;&gt;THE&lt;/font&gt; &lt;font color=&quot;blue&quot;&gt;SONG&lt;/font&gt; &lt;font color=&quot;green&quot;&gt;&lt;br /&gt;&lt;/font&gt; &lt;font color=&quot;green&quot;&gt;song%1:10:00::&lt;/font&gt; &lt;font color=&quot;green&quot;&gt;&lt;br /&gt; &lt;/font&gt;">
<text text-anchor="start" x="92.52" y="-102.6" font-family="Work Sans" font-size="8.00"> </text>
<text text-anchor="start" x="94.75" y="-102.6" font-family="Work Sans" font-size="8.00">MUSIC</text>
<text text-anchor="start" x="120.52" y="-102.6" font-family="Work Sans" font-size="8.00"> </text>
<text text-anchor="start" x="84.52" y="-94.6" font-family="Work Sans" font-size="8.00"> </text>
<text text-anchor="start" x="86.74" y="-94.6" font-family="Work Sans" font-size="8.00" fill="red">THE</text>
<text text-anchor="start" x="102.74" y="-94.6" font-family="Work Sans" font-size="8.00"> </text>
<text text-anchor="start" x="104.97" y="-94.6" font-family="Work Sans" font-size="8.00" fill="blue">SONG</text>
<text text-anchor="start" x="128.53" y="-94.6" font-family="Work Sans" font-size="8.00"> </text>
<text text-anchor="start" x="77.61" y="-86.6" font-family="Work Sans" font-size="8.00"> </text>
<text text-anchor="start" x="79.84" y="-86.6" font-family="Work Sans" font-size="8.00" fill="green">song%1:10:00::</text>
<text text-anchor="start" x="135.43" y="-86.6" font-family="Work Sans" font-size="8.00"> </text>
<text text-anchor="start" x="106.52" y="-78.6" font-family="Work Sans" font-size="8.00" fill="green"> </text>
</a>
</g>
</g>
<!-- V70328&#45;&gt;V70312 -->
<g id="edge2" class="edge">
<title>V70328&#45;&gt;V70312</title>
<path fill="none" stroke="red" stroke-width="0.5" d="M119.91,-159.66C115.38,-154.41 111.22,-148.4 108.7,-142 106.19,-135.63 105.27,-128.34 105.15,-121.52"/>
<polygon fill="red" stroke="red" stroke-width="0.5" points="106.9,-121.43 105.2,-116.41 103.4,-121.39 106.9,-121.43"/>
<text text-anchor="middle" x="132.6" y="-135.6" font-family="Work Sans" font-size="8.00"> NEUTRAL &#160;&#160;</text>
</g>
<!-- V70349 -->
<g id="node6" class="node">
<title>V70349</title>
<g id="a_node6"><a xlink:href="http://trips.ihmc.us/lexicon/data/ONT::AGAIN.xml" xlink:title="&lt;font color=&quot;green&quot;&gt;&lt;br /&gt;&lt;/font&gt; &lt;font color=&quot;black&quot;&gt;AGAIN&lt;/font&gt; &lt;font color=&quot;green&quot;&gt;&lt;br /&gt;&lt;/font&gt; &lt;font color=&quot;red&quot;&gt;F&lt;/font&gt; &lt;font color=&quot;blue&quot;&gt;AGAIN&lt;/font&gt; &lt;font color=&quot;green&quot;&gt;&lt;br /&gt;&lt;/font&gt; &lt;font color=&quot;green&quot;&gt;again%4:02:00::&lt;/font&gt; &lt;font color=&quot;green&quot;&gt;&lt;br /&gt; &lt;/font&gt;">
<text text-anchor="start" x="207.96" y="-102.6" font-family="Work Sans" font-size="8.00"> </text>
<text text-anchor="start" x="210.19" y="-102.6" font-family="Work Sans" font-size="8.00">AGAIN</text>
<text text-anchor="start" x="235.08" y="-102.6" font-family="Work Sans" font-size="8.00"> </text>
<text text-anchor="start" x="204.41" y="-94.6" font-family="Work Sans" font-size="8.00"> </text>
<text text-anchor="start" x="206.63" y="-94.6" font-family="Work Sans" font-size="8.00" fill="red">F</text>
<text text-anchor="start" x="211.52" y="-94.6" font-family="Work Sans" font-size="8.00"> </text>
<text text-anchor="start" x="213.74" y="-94.6" font-family="Work Sans" font-size="8.00" fill="blue">AGAIN</text>
<text text-anchor="start" x="238.64" y="-94.6" font-family="Work Sans" font-size="8.00"> </text>
<text text-anchor="start" x="191.5" y="-86.6" font-family="Work Sans" font-size="8.00"> </text>
<text text-anchor="start" x="193.72" y="-86.6" font-family="Work Sans" font-size="8.00" fill="green">again%4:02:00::</text>
<text text-anchor="start" x="251.55" y="-86.6" font-family="Work Sans" font-size="8.00"> </text>
<text text-anchor="start" x="221.52" y="-78.6" font-family="Work Sans" font-size="8.00" fill="green"> </text>
</a>
</g>
</g>
<!-- V70328&#45;&gt;V70349 -->
<g id="edge3" class="edge">
<title>V70328&#45;&gt;V70349</title>
<path fill="none" stroke="red" stroke-width="0.5" d="M155.53,-159.88C161.91,-151.59 169.79,-141.98 177.66,-134 182.53,-129.07 188.01,-124.12 193.43,-119.53"/>
<polygon fill="red" stroke="red" stroke-width="0.5" points="194.84,-120.64 197.56,-116.09 192.59,-117.95 194.84,-120.64"/>
<text text-anchor="middle" x="208.12" y="-135.6" font-family="Work Sans" font-size="8.00"> FREQUENCY &#160;&#160;</text>
</g>
<!-- V70288&#45;&gt;V70328 -->
<g id="edge7" class="edge">
<title>V70288&#45;&gt;V70328</title>
<path fill="none" stroke="grey" stroke-width="0.5" d="M38.47,-112.28C44.55,-121.78 53.36,-133.72 63.52,-142 77.21,-153.16 94.82,-161.88 109.86,-168.04"/>
<polygon fill="grey" stroke="grey" stroke-width="0.5" points="109.56,-169.8 114.85,-170.03 110.85,-166.55 109.56,-169.8"/>
<text text-anchor="middle" x="83.19" y="-135.6" font-family="Work Sans" font-size="8.00"> FIGURE &#160;&#160;</text>
</g>
<!-- V70288&#45;&gt;V70370 -->
<g id="edge6" class="edge">
<title>V70288&#45;&gt;V70370</title>
<path fill="none" stroke="grey" stroke-width="0.5" d="M24.09,-79.7C21.73,-70.42 20.64,-58.73 26.19,-50 35.04,-36.07 51.49,-27.92 66.27,-23.21"/>
<polygon fill="grey" stroke="grey" stroke-width="0.5" points="66.91,-24.84 71.21,-21.74 65.91,-21.49 66.91,-24.84"/>
<text text-anchor="middle" x="48.86" y="-51.6" font-family="Work Sans" font-size="8.00"> GROUND &#160;&#160;</text>
</g>
<!-- V70370&#45;&gt;V70288 -->
<g id="edge5" class="edge">
<title>V70370&#45;&gt;V70288</title>
<path fill="none" stroke="grey" stroke-width="0.5" d="M90.19,-32.29C86.35,-40.4 80.99,-50.26 74.63,-58 69.11,-64.73 62.2,-71.12 55.48,-76.64"/>
<polygon fill="grey" stroke="grey" stroke-width="0.5" points="54.14,-75.47 51.33,-79.96 56.33,-78.2 54.14,-75.47"/>
<text text-anchor="middle" x="106.49" y="-51.6" font-family="Work Sans" font-size="8.00"> SUCHTHAT &#160;&#160;</text>
</g>
<!-- V70349&#45;&gt;V70328 -->
<g id="edge8" class="edge">
<title>V70349&#45;&gt;V70328</title>
<path fill="none" stroke="grey" stroke-width="0.5" d="M235.64,-116.07C239.7,-124.53 241.9,-134.3 236.63,-142 222.58,-162.56 195.27,-171.7 173.53,-175.76"/>
<polygon fill="grey" stroke="grey" stroke-width="0.5" points="173.04,-174.06 168.41,-176.64 173.64,-177.51 173.04,-174.06"/>
<text text-anchor="middle" x="258.19" y="-135.6" font-family="Work Sans" font-size="8.00"> FIGURE &#160;&#160;</text>
</g>
</g>
</svg>
