<?xml version="1.0" encoding="UTF-8" standalone="no"?>
<!DOCTYPE svg PUBLIC "-//W3C//DTD SVG 1.1//EN"
 "http://www.w3.org/Graphics/SVG/1.1/DTD/svg11.dtd">
<!-- Generated by graphviz version 2.43.0 (0)
 -->
<!-- Title: graph Pages: 1 -->
<svg width="382pt" height="284pt"
 viewBox="0.00 0.00 381.74 284.00" xmlns="http://www.w3.org/2000/svg" xmlns:xlink="http://www.w3.org/1999/xlink">
<g id="graph0" class="graph" transform="scale(1 1) rotate(0) translate(4 280)">
<title>graph</title>
<polygon fill="white" stroke="transparent" points="-4,4 -4,-280 377.74,-280 377.74,4 -4,4"/>
<!-- V70922 -->
<g id="node1" class="node">
<title>V70922</title>
<g id="a_node1"><a xlink:href="http://trips.ihmc.us/lexicon/data/ONT::SA_WH-QUESTION.xml" xlink:title="&lt;font color=&quot;green&quot;&gt;&lt;br /&gt;&lt;/font&gt; &lt;font color=&quot;black&quot;&gt;SA_WH&#45;QUESTION&lt;/font&gt; &lt;font color=&quot;green&quot;&gt;&lt;br /&gt;&lt;/font&gt; &lt;font color=&quot;red&quot;&gt;SPEECHACT&lt;/font&gt; &lt;font color=&quot;blue&quot;&gt;* &lt;/font&gt; &lt;font color=&quot;green&quot;&gt;&lt;br /&gt; &lt;/font&gt;">
<text text-anchor="start" x="237.18" y="-262.6" font-family="Work Sans" font-size="8.00"> </text>
<text text-anchor="start" x="239.4" y="-262.6" font-family="Work Sans" font-size="8.00">SA_WH&#45;QUESTION</text>
<text text-anchor="start" x="312.3" y="-262.6" font-family="Work Sans" font-size="8.00"> </text>
<text text-anchor="start" x="245.4" y="-254.6" font-family="Work Sans" font-size="8.00"> </text>
<text text-anchor="start" x="247.62" y="-254.6" font-family="Work Sans" font-size="8.00" fill="red">SPEECHACT</text>
<text text-anchor="start" x="296.52" y="-254.6" font-family="Work Sans" font-size="8.00"> </text>
<text text-anchor="start" x="298.74" y="-254.6" font-family="Work Sans" font-size="8.00" fill="blue">* </text>
<text text-anchor="start" x="304.08" y="-254.6" font-family="Work Sans" font-size="8.00"> </text>
<text text-anchor="start" x="274.74" y="-246.6" font-family="Work Sans" font-size="8.00" fill="green"> </text>
</a>
</g>
</g>
<!-- V70328 -->
<g id="node2" class="node">
<title>V70328</title>
<g id="a_node2"><a xlink:href="http://trips.ihmc.us/lexicon/data/ONT::OCCURRING.xml" xlink:title="&lt;font color=&quot;green&quot;&gt;&lt;br /&gt;&lt;/font&gt; &lt;font color=&quot;black&quot;&gt;OCCURRING&lt;/font&gt; &lt;font color=&quot;green&quot;&gt;&lt;br /&gt;&lt;/font&gt; &lt;font color=&quot;red&quot;&gt;F&lt;/font&gt; &lt;font color=&quot;blue&quot;&gt;GO&lt;/font&gt; &lt;font color=&quot;green&quot;&gt;&lt;br /&gt;&lt;/font&gt; &lt;font color=&quot;green&quot;&gt;go%2:30:01::&lt;/font&gt; &lt;font color=&quot;green&quot;&gt;&lt;br /&gt; &lt;/font&gt;">
<polygon fill="pink" stroke="transparent" stroke-width="0.5" points="164.07,-160 190.85,-160 190.85,-200 164.07,-200 164.07,-160"/>
<polygon fill="lightblue" stroke="transparent" stroke-width="0.5" points="190.85,-160 217.63,-160 217.63,-200 190.85,-200 190.85,-160"/>
<polygon fill="none" stroke="transparent" points="217.63,-200 164.07,-200 164.07,-160 217.63,-160 217.63,-200"/>
<text text-anchor="start" x="163.96" y="-186.6" font-family="Work Sans" font-size="8.00"> </text>
<text text-anchor="start" x="166.18" y="-186.6" font-family="Work Sans" font-size="8.00">OCCURRING</text>
<text text-anchor="start" x="215.51" y="-186.6" font-family="Work Sans" font-size="8.00"> </text>
<text text-anchor="start" x="178.85" y="-178.6" font-family="Work Sans" font-size="8.00"> </text>
<text text-anchor="start" x="181.07" y="-178.6" font-family="Work Sans" font-size="8.00" fill="red">F</text>
<text text-anchor="start" x="185.96" y="-178.6" font-family="Work Sans" font-size="8.00"> </text>
<text text-anchor="start" x="188.18" y="-178.6" font-family="Work Sans" font-size="8.00" fill="blue">GO</text>
<text text-anchor="start" x="200.63" y="-178.6" font-family="Work Sans" font-size="8.00"> </text>
<text text-anchor="start" x="165.05" y="-170.6" font-family="Work Sans" font-size="8.00"> </text>
<text text-anchor="start" x="167.27" y="-170.6" font-family="Work Sans" font-size="8.00" fill="green">go%2:30:01::</text>
<text text-anchor="start" x="214.42" y="-170.6" font-family="Work Sans" font-size="8.00"> </text>
<text text-anchor="start" x="189.74" y="-162.6" font-family="Work Sans" font-size="8.00" fill="green"> </text>
</a>
</g>
</g>
<!-- V70922&#45;&gt;V70328 -->
<g id="edge8" class="edge">
<title>V70922&#45;&gt;V70328</title>
<path fill="none" stroke="grey" stroke-width="0.5" d="M259.46,-243.96C247.02,-232.55 229.72,-216.67 215.6,-203.71"/>
<polygon fill="grey" stroke="grey" stroke-width="0.5" points="216.58,-202.23 211.71,-200.14 214.21,-204.81 216.58,-202.23"/>
<text text-anchor="middle" x="262.56" y="-219.6" font-family="Work Sans" font-size="8.00"> CONTENT &#160;&#160;</text>
</g>
<!-- V70370 -->
<g id="node4" class="node">
<title>V70370</title>
<g id="a_node4"><a xlink:href="http://trips.ihmc.us/lexicon/data/ONT::METHOD.xml" xlink:title="&lt;font color=&quot;green&quot;&gt;&lt;br /&gt;&lt;/font&gt; &lt;font color=&quot;black&quot;&gt;METHOD&lt;/font&gt; &lt;font color=&quot;green&quot;&gt;&lt;br /&gt;&lt;/font&gt; &lt;font color=&quot;red&quot;&gt;WH&#45;TERM&lt;/font&gt; &lt;font color=&quot;blue&quot;&gt;* &lt;/font&gt; &lt;font color=&quot;green&quot;&gt;&lt;br /&gt; &lt;/font&gt;">
<polygon fill="pink" stroke="transparent" stroke-width="0.5" points="126.69,0 151.85,0 151.85,-32 126.69,-32 126.69,0"/>
<polygon fill="lightblue" stroke="transparent" stroke-width="0.5" points="151.85,0 177.01,0 177.01,-32 151.85,-32 151.85,0"/>
<polygon fill="none" stroke="transparent" points="177.01,-32 126.69,-32 126.69,0 177.01,0 177.01,-32"/>
<text text-anchor="start" x="132.29" y="-18.6" font-family="Work Sans" font-size="8.00"> </text>
<text text-anchor="start" x="134.52" y="-18.6" font-family="Work Sans" font-size="8.00">METHOD</text>
<text text-anchor="start" x="169.18" y="-18.6" font-family="Work Sans" font-size="8.00"> </text>
<text text-anchor="start" x="126.52" y="-10.6" font-family="Work Sans" font-size="8.00"> </text>
<text text-anchor="start" x="128.74" y="-10.6" font-family="Work Sans" font-size="8.00" fill="red">WH&#45;TERM</text>
<text text-anchor="start" x="167.4" y="-10.6" font-family="Work Sans" font-size="8.00"> </text>
<text text-anchor="start" x="169.62" y="-10.6" font-family="Work Sans" font-size="8.00" fill="blue">* </text>
<text text-anchor="start" x="174.96" y="-10.6" font-family="Work Sans" font-size="8.00"> </text>
<text text-anchor="start" x="150.74" y="-2.6" font-family="Work Sans" font-size="8.00" fill="green"> </text>
</a>
</g>
</g>
<!-- V70922&#45;&gt;V70370 -->
<g id="edge10" class="edge">
<title>V70922&#45;&gt;V70370</title>
<path fill="none" stroke="grey" stroke-width="0.5" d="M291.36,-243.89C312.85,-221.04 347.8,-175.9 335.85,-134 327.53,-104.82 323.11,-95.48 299.85,-76 265.13,-46.91 214.28,-30.9 182.13,-23.13"/>
<polygon fill="grey" stroke="grey" stroke-width="0.5" points="182.41,-21.4 177.14,-21.96 181.6,-24.81 182.41,-21.4"/>
<text text-anchor="middle" x="355.29" y="-135.6" font-family="Work Sans" font-size="8.00"> FOCUS &#160;&#160;</text>
</g>
<!-- V70288 -->
<g id="node3" class="node">
<title>V70288</title>
<g id="a_node3"><a xlink:href="http://trips.ihmc.us/lexicon/data/ONT::BY-MEANS-OF.xml" xlink:title="&lt;font color=&quot;green&quot;&gt;&lt;br /&gt;&lt;/font&gt; &lt;font color=&quot;black&quot;&gt;BY&#45;MEANS&#45;OF&lt;/font&gt; &lt;font color=&quot;green&quot;&gt;&lt;br /&gt;&lt;/font&gt; &lt;font color=&quot;red&quot;&gt;F&lt;/font&gt; &lt;font color=&quot;blue&quot;&gt;HOW&lt;/font&gt; &lt;font color=&quot;green&quot;&gt;&lt;br /&gt; &lt;/font&gt;">
<polygon fill="pink" stroke="transparent" stroke-width="0.5" points="55.08,-80 84.85,-80 84.85,-112 55.08,-112 55.08,-80"/>
<polygon fill="lightblue" stroke="transparent" stroke-width="0.5" points="84.85,-80 114.62,-80 114.62,-112 84.85,-112 84.85,-80"/>
<polygon fill="none" stroke="transparent" points="114.62,-112 55.08,-112 55.08,-80 114.62,-80 114.62,-112"/>
<text text-anchor="start" x="55.21" y="-98.6" font-family="Work Sans" font-size="8.00"> </text>
<text text-anchor="start" x="57.44" y="-98.6" font-family="Work Sans" font-size="8.00">BY&#45;MEANS&#45;OF</text>
<text text-anchor="start" x="112.26" y="-98.6" font-family="Work Sans" font-size="8.00"> </text>
<text text-anchor="start" x="69.3" y="-90.6" font-family="Work Sans" font-size="8.00"> </text>
<text text-anchor="start" x="71.52" y="-90.6" font-family="Work Sans" font-size="8.00" fill="red">F</text>
<text text-anchor="start" x="76.41" y="-90.6" font-family="Work Sans" font-size="8.00"> </text>
<text text-anchor="start" x="78.63" y="-90.6" font-family="Work Sans" font-size="8.00" fill="blue">HOW</text>
<text text-anchor="start" x="98.18" y="-90.6" font-family="Work Sans" font-size="8.00"> </text>
<text text-anchor="start" x="83.74" y="-82.6" font-family="Work Sans" font-size="8.00" fill="green"> </text>
</a>
</g>
</g>
<!-- V70328&#45;&gt;V70288 -->
<g id="edge3" class="edge">
<title>V70328&#45;&gt;V70288</title>
<path fill="none" stroke="red" d="M164.01,-177.72C117.32,-174.88 24.2,-166.24 4.29,-142 -11.56,-122.69 21.81,-110.21 50.3,-103.4"/>
<polygon fill="red" stroke="red" points="50.71,-105.1 55.19,-102.27 49.93,-101.69 50.71,-105.1"/>
<text text-anchor="middle" x="26.63" y="-135.6" font-family="Work Sans" font-size="8.00"> METHOD &#160;&#160;</text>
</g>
<!-- V70328&#45;&gt;V70288 -->
<g id="edge7" class="edge">
<title>V70328&#45;&gt;V70288</title>
<path fill="none" stroke="blue" d="M163.72,-178.63C136.92,-176.64 97.17,-168.95 77.63,-142 72.47,-134.89 73.14,-125.49 75.56,-117.12"/>
<polygon fill="blue" stroke="blue" points="77.32,-117.37 77.25,-112.07 74,-116.26 77.32,-117.37"/>
<text text-anchor="middle" x="78.96" y="-135.6" font-family="Work Sans" font-size="8.00">.</text>
</g>
<!-- V70312 -->
<g id="node5" class="node">
<title>V70312</title>
<g id="a_node5"><a xlink:href="http://trips.ihmc.us/lexicon/data/ONT::MUSIC.xml" xlink:title="&lt;font color=&quot;green&quot;&gt;&lt;br /&gt;&lt;/font&gt; &lt;font color=&quot;black&quot;&gt;MUSIC&lt;/font&gt; &lt;font color=&quot;green&quot;&gt;&lt;br /&gt;&lt;/font&gt; &lt;font color=&quot;red&quot;&gt;THE&lt;/font&gt; &lt;font color=&quot;blue&quot;&gt;SONG&lt;/font&gt; &lt;font color=&quot;green&quot;&gt;&lt;br /&gt;&lt;/font&gt; &lt;font color=&quot;green&quot;&gt;song%1:10:00::&lt;/font&gt; &lt;font color=&quot;green&quot;&gt;&lt;br /&gt; &lt;/font&gt;">
<text text-anchor="start" x="159.74" y="-102.6" font-family="Work Sans" font-size="8.00"> </text>
<text text-anchor="start" x="161.96" y="-102.6" font-family="Work Sans" font-size="8.00">MUSIC</text>
<text text-anchor="start" x="187.74" y="-102.6" font-family="Work Sans" font-size="8.00"> </text>
<text text-anchor="start" x="151.74" y="-94.6" font-family="Work Sans" font-size="8.00"> </text>
<text text-anchor="start" x="153.96" y="-94.6" font-family="Work Sans" font-size="8.00" fill="red">THE</text>
<text text-anchor="start" x="169.96" y="-94.6" font-family="Work Sans" font-size="8.00"> </text>
<text text-anchor="start" x="172.18" y="-94.6" font-family="Work Sans" font-size="8.00" fill="blue">SONG</text>
<text text-anchor="start" x="195.74" y="-94.6" font-family="Work Sans" font-size="8.00"> </text>
<text text-anchor="start" x="144.83" y="-86.6" font-family="Work Sans" font-size="8.00"> </text>
<text text-anchor="start" x="147.05" y="-86.6" font-family="Work Sans" font-size="8.00" fill="green">song%1:10:00::</text>
<text text-anchor="start" x="202.65" y="-86.6" font-family="Work Sans" font-size="8.00"> </text>
<text text-anchor="start" x="173.74" y="-78.6" font-family="Work Sans" font-size="8.00" fill="green"> </text>
</a>
</g>
</g>
<!-- V70328&#45;&gt;V70312 -->
<g id="edge5" class="edge">
<title>V70328&#45;&gt;V70312</title>
<path fill="none" stroke="red" d="M169.02,-159.7C164.49,-154.45 160.36,-148.43 157.91,-142 155.31,-135.15 156.48,-127.71 159.14,-120.89"/>
<polygon fill="red" stroke="red" points="160.76,-121.56 161.2,-116.28 157.56,-120.14 160.76,-121.56"/>
<text text-anchor="middle" x="181.82" y="-135.6" font-family="Work Sans" font-size="8.00"> NEUTRAL &#160;&#160;</text>
</g>
<!-- V70328&#45;&gt;V70312 -->
<g id="edge6" class="edge">
<title>V70328&#45;&gt;V70312</title>
<path fill="none" stroke="blue" d="M201.73,-159.59C204.85,-151.61 206.71,-142.3 203.85,-134 202.21,-129.26 199.69,-124.66 196.8,-120.4"/>
<polygon fill="blue" stroke="blue" points="198.15,-119.3 193.8,-116.28 195.32,-121.35 198.15,-119.3"/>
<text text-anchor="middle" x="206.96" y="-135.6" font-family="Work Sans" font-size="8.00">.</text>
</g>
<!-- V70349 -->
<g id="node6" class="node">
<title>V70349</title>
<g id="a_node6"><a xlink:href="http://trips.ihmc.us/lexicon/data/ONT::AGAIN.xml" xlink:title="&lt;font color=&quot;green&quot;&gt;&lt;br /&gt;&lt;/font&gt; &lt;font color=&quot;black&quot;&gt;AGAIN&lt;/font&gt; &lt;font color=&quot;green&quot;&gt;&lt;br /&gt;&lt;/font&gt; &lt;font color=&quot;red&quot;&gt;F&lt;/font&gt; &lt;font color=&quot;blue&quot;&gt;AGAIN&lt;/font&gt; &lt;font color=&quot;green&quot;&gt;&lt;br /&gt;&lt;/font&gt; &lt;font color=&quot;green&quot;&gt;again%4:02:00::&lt;/font&gt; &lt;font color=&quot;green&quot;&gt;&lt;br /&gt; &lt;/font&gt;">
<text text-anchor="start" x="245.18" y="-102.6" font-family="Work Sans" font-size="8.00"> </text>
<text text-anchor="start" x="247.4" y="-102.6" font-family="Work Sans" font-size="8.00">AGAIN</text>
<text text-anchor="start" x="272.3" y="-102.6" font-family="Work Sans" font-size="8.00"> </text>
<text text-anchor="start" x="241.62" y="-94.6" font-family="Work Sans" font-size="8.00"> </text>
<text text-anchor="start" x="243.85" y="-94.6" font-family="Work Sans" font-size="8.00" fill="red">F</text>
<text text-anchor="start" x="248.73" y="-94.6" font-family="Work Sans" font-size="8.00"> </text>
<text text-anchor="start" x="250.96" y="-94.6" font-family="Work Sans" font-size="8.00" fill="blue">AGAIN</text>
<text text-anchor="start" x="275.85" y="-94.6" font-family="Work Sans" font-size="8.00"> </text>
<text text-anchor="start" x="228.71" y="-86.6" font-family="Work Sans" font-size="8.00"> </text>
<text text-anchor="start" x="230.94" y="-86.6" font-family="Work Sans" font-size="8.00" fill="green">again%4:02:00::</text>
<text text-anchor="start" x="288.76" y="-86.6" font-family="Work Sans" font-size="8.00"> </text>
<text text-anchor="start" x="258.74" y="-78.6" font-family="Work Sans" font-size="8.00" fill="green"> </text>
</a>
</g>
</g>
<!-- V70328&#45;&gt;V70349 -->
<g id="edge1" class="edge">
<title>V70328&#45;&gt;V70349</title>
<path fill="none" stroke="red" stroke-width="0.5" d="M206.85,-159.98C216.8,-148.16 229.65,-132.89 240.21,-120.34"/>
<polygon fill="red" stroke="red" stroke-width="0.5" points="241.81,-121.15 243.69,-116.2 239.13,-118.9 241.81,-121.15"/>
<text text-anchor="middle" x="257.34" y="-135.6" font-family="Work Sans" font-size="8.00"> FREQUENCY &#160;&#160;</text>
</g>
<!-- V70288&#45;&gt;V70328 -->
<g id="edge11" class="edge">
<title>V70288&#45;&gt;V70328</title>
<path fill="none" stroke="grey" stroke-width="0.5" d="M91.93,-112.31C96.94,-121.82 104.41,-133.76 113.74,-142 126.73,-153.48 143.92,-162.19 158.77,-168.26"/>
<polygon fill="grey" stroke="grey" stroke-width="0.5" points="158.41,-170.01 163.71,-170.22 159.71,-166.75 158.41,-170.01"/>
<text text-anchor="middle" x="133.41" y="-135.6" font-family="Work Sans" font-size="8.00"> FIGURE &#160;&#160;</text>
</g>
<!-- V70288&#45;&gt;V70370 -->
<g id="edge4" class="edge">
<title>V70288&#45;&gt;V70370</title>
<path fill="none" stroke="grey" stroke-width="0.5" d="M79.3,-79.7C76.94,-70.42 75.85,-58.73 81.4,-50 90.26,-36.07 106.71,-27.92 121.49,-23.21"/>
<polygon fill="grey" stroke="grey" stroke-width="0.5" points="122.13,-24.84 126.42,-21.74 121.13,-21.49 122.13,-24.84"/>
<text text-anchor="middle" x="104.07" y="-51.6" font-family="Work Sans" font-size="8.00"> GROUND &#160;&#160;</text>
</g>
<!-- V70370&#45;&gt;V70288 -->
<g id="edge2" class="edge">
<title>V70370&#45;&gt;V70288</title>
<path fill="none" stroke="grey" stroke-width="0.5" d="M145.4,-32.29C141.57,-40.4 136.21,-50.26 129.85,-58 124.32,-64.73 117.42,-71.12 110.69,-76.64"/>
<polygon fill="grey" stroke="grey" stroke-width="0.5" points="109.36,-75.47 106.54,-79.96 111.54,-78.2 109.36,-75.47"/>
<text text-anchor="middle" x="161.71" y="-51.6" font-family="Work Sans" font-size="8.00"> SUCHTHAT &#160;&#160;</text>
</g>
<!-- V70349&#45;&gt;V70328 -->
<g id="edge9" class="edge">
<title>V70349&#45;&gt;V70328</title>
<path fill="none" stroke="grey" stroke-width="0.5" d="M284.82,-116.3C292.1,-124.27 296.7,-133.59 290.85,-142 275.7,-163.75 246.22,-172.75 223.18,-176.45"/>
<polygon fill="grey" stroke="grey" stroke-width="0.5" points="222.76,-174.74 218.07,-177.2 223.27,-178.2 222.76,-174.74"/>
<text text-anchor="middle" x="312.41" y="-135.6" font-family="Work Sans" font-size="8.00"> FIGURE &#160;&#160;</text>
</g>
</g>
</svg>
