<?xml version="1.0" encoding="UTF-8" standalone="no"?>
<!DOCTYPE svg PUBLIC "-//W3C//DTD SVG 1.1//EN"
 "http://www.w3.org/Graphics/SVG/1.1/DTD/svg11.dtd">
<!-- Generated by graphviz version 2.43.0 (0)
 -->
<!-- Title: graph Pages: 1 -->
<svg width="172pt" height="284pt"
 viewBox="0.00 0.00 171.79 284.00" xmlns="http://www.w3.org/2000/svg" xmlns:xlink="http://www.w3.org/1999/xlink">
<g id="graph0" class="graph" transform="scale(1 1) rotate(0) translate(4 280)">
<title>graph</title>
<polygon fill="white" stroke="transparent" points="-4,4 -4,-280 167.79,-280 167.79,4 -4,4"/>
<!-- V41830 -->
<g id="node1" class="node">
<title>V41830</title>
<g id="a_node1"><a xlink:href="http://trips.ihmc.us/lexicon/data/ONT::SA_TELL.xml" xlink:title="&lt;font color=&quot;green&quot;&gt;&lt;br /&gt;&lt;/font&gt; &lt;font color=&quot;black&quot;&gt;SA_TELL&lt;/font&gt; &lt;font color=&quot;green&quot;&gt;&lt;br /&gt;&lt;/font&gt; &lt;font color=&quot;red&quot;&gt;SPEECHACT&lt;/font&gt; &lt;font color=&quot;blue&quot;&gt;* &lt;/font&gt; &lt;font color=&quot;green&quot;&gt;&lt;br /&gt; &lt;/font&gt;">
<text text-anchor="start" x="32.11" y="-262.6" font-family="Work Sans" font-size="8.00"> </text>
<text text-anchor="start" x="34.33" y="-262.6" font-family="Work Sans" font-size="8.00">SA_TELL</text>
<text text-anchor="start" x="68.57" y="-262.6" font-family="Work Sans" font-size="8.00"> </text>
<text text-anchor="start" x="21" y="-254.6" font-family="Work Sans" font-size="8.00"> </text>
<text text-anchor="start" x="23.22" y="-254.6" font-family="Work Sans" font-size="8.00" fill="red">SPEECHACT</text>
<text text-anchor="start" x="72.12" y="-254.6" font-family="Work Sans" font-size="8.00"> </text>
<text text-anchor="start" x="74.34" y="-254.6" font-family="Work Sans" font-size="8.00" fill="blue">* </text>
<text text-anchor="start" x="79.68" y="-254.6" font-family="Work Sans" font-size="8.00"> </text>
<text text-anchor="start" x="50.34" y="-246.6" font-family="Work Sans" font-size="8.00" fill="green"> </text>
</a>
</g>
</g>
<!-- V41395 -->
<g id="node2" class="node">
<title>V41395</title>
<g id="a_node2"><a xlink:href="http://trips.ihmc.us/lexicon/data/ONT::HAVE-PROPERTY.xml" xlink:title="&lt;font color=&quot;green&quot;&gt;&lt;br /&gt;&lt;/font&gt; &lt;font color=&quot;black&quot;&gt;HAVE&#45;PROPERTY&lt;/font&gt; &lt;font color=&quot;green&quot;&gt;&lt;br /&gt;&lt;/font&gt; &lt;font color=&quot;red&quot;&gt;F&lt;/font&gt; &lt;font color=&quot;blue&quot;&gt;BE&lt;/font&gt; &lt;font color=&quot;green&quot;&gt;&lt;br /&gt;&lt;/font&gt; &lt;font color=&quot;green&quot;&gt;be%2:42:03::&lt;/font&gt; &lt;font color=&quot;green&quot;&gt;&lt;br /&gt; &lt;/font&gt;">
<polygon fill="pink" stroke="transparent" stroke-width="0.5" points="15.28,-160 51.45,-160 51.45,-200 15.28,-200 15.28,-160"/>
<polygon fill="lightblue" stroke="transparent" stroke-width="0.5" points="51.45,-160 87.62,-160 87.62,-200 51.45,-200 51.45,-160"/>
<polygon fill="none" stroke="transparent" points="87.62,-200 15.28,-200 15.28,-160 87.62,-160 87.62,-200"/>
<text text-anchor="start" x="15.37" y="-186.6" font-family="Work Sans" font-size="8.00"> </text>
<text text-anchor="start" x="17.59" y="-186.6" font-family="Work Sans" font-size="8.00">HAVE&#45;PROPERTY</text>
<text text-anchor="start" x="85.31" y="-186.6" font-family="Work Sans" font-size="8.00"> </text>
<text text-anchor="start" x="40.34" y="-178.6" font-family="Work Sans" font-size="8.00"> </text>
<text text-anchor="start" x="42.56" y="-178.6" font-family="Work Sans" font-size="8.00" fill="red">F</text>
<text text-anchor="start" x="47.45" y="-178.6" font-family="Work Sans" font-size="8.00"> </text>
<text text-anchor="start" x="49.67" y="-178.6" font-family="Work Sans" font-size="8.00" fill="blue">BE</text>
<text text-anchor="start" x="60.34" y="-178.6" font-family="Work Sans" font-size="8.00"> </text>
<text text-anchor="start" x="25.65" y="-170.6" font-family="Work Sans" font-size="8.00"> </text>
<text text-anchor="start" x="27.88" y="-170.6" font-family="Work Sans" font-size="8.00" fill="green">be%2:42:03::</text>
<text text-anchor="start" x="75.03" y="-170.6" font-family="Work Sans" font-size="8.00"> </text>
<text text-anchor="start" x="50.34" y="-162.6" font-family="Work Sans" font-size="8.00" fill="green"> </text>
</a>
</g>
</g>
<!-- V41830&#45;&gt;V41395 -->
<g id="edge3" class="edge">
<title>V41830&#45;&gt;V41395</title>
<path fill="none" stroke="grey" stroke-width="0.5" d="M51.45,-243.96C51.45,-233.04 51.45,-218.02 51.45,-205.39"/>
<polygon fill="grey" stroke="grey" stroke-width="0.5" points="53.2,-205.14 51.45,-200.14 49.7,-205.14 53.2,-205.14"/>
<text text-anchor="middle" x="75.16" y="-219.6" font-family="Work Sans" font-size="8.00"> CONTENT &#160;&#160;</text>
</g>
<!-- V41387 -->
<g id="node3" class="node">
<title>V41387</title>
<g id="a_node3"><a xlink:href="http://trips.ihmc.us/lexicon/data/ONT::FEMALE-PERSON.xml" xlink:title="&lt;font color=&quot;green&quot;&gt;&lt;br /&gt;&lt;/font&gt; &lt;font color=&quot;black&quot;&gt;FEMALE&#45;PERSON&lt;/font&gt; &lt;font color=&quot;green&quot;&gt;&lt;br /&gt;&lt;/font&gt; &lt;font color=&quot;red&quot;&gt;PRO&lt;/font&gt; &lt;font color=&quot;blue&quot;&gt;SHE&lt;/font&gt; &lt;font color=&quot;green&quot;&gt;&lt;br /&gt;&lt;/font&gt; &lt;font color=&quot;green&quot;&gt;woman%1:18:00&lt;/font&gt; &lt;font color=&quot;green&quot;&gt;&lt;br /&gt; &lt;/font&gt;">
<text text-anchor="start" x="0" y="-26.6" font-family="Work Sans" font-size="8.00"> </text>
<text text-anchor="start" x="2.22" y="-26.6" font-family="Work Sans" font-size="8.00">FEMALE&#45;PERSON</text>
<text text-anchor="start" x="70.68" y="-26.6" font-family="Work Sans" font-size="8.00"> </text>
<text text-anchor="start" x="16.22" y="-18.6" font-family="Work Sans" font-size="8.00"> </text>
<text text-anchor="start" x="18.45" y="-18.6" font-family="Work Sans" font-size="8.00" fill="red">PRO</text>
<text text-anchor="start" x="35.78" y="-18.6" font-family="Work Sans" font-size="8.00"> </text>
<text text-anchor="start" x="38.01" y="-18.6" font-family="Work Sans" font-size="8.00" fill="blue">SHE</text>
<text text-anchor="start" x="54.46" y="-18.6" font-family="Work Sans" font-size="8.00"> </text>
<text text-anchor="start" x="4.43" y="-10.6" font-family="Work Sans" font-size="8.00"> </text>
<text text-anchor="start" x="6.65" y="-10.6" font-family="Work Sans" font-size="8.00" fill="green">woman%1:18:00</text>
<text text-anchor="start" x="66.25" y="-10.6" font-family="Work Sans" font-size="8.00"> </text>
<text text-anchor="start" x="35.34" y="-2.6" font-family="Work Sans" font-size="8.00" fill="green"> </text>
</a>
</g>
</g>
<!-- V41395&#45;&gt;V41387 -->
<g id="edge7" class="edge">
<title>V41395&#45;&gt;V41387</title>
<path fill="none" stroke="grey" stroke-width="0.5" d="M42.9,-159.86C37.9,-147.6 32.08,-131.19 29.51,-116 25.48,-92.15 28.32,-64.55 31.5,-45.26"/>
<polygon fill="grey" stroke="grey" stroke-width="0.5" points="33.27,-45.28 32.39,-40.05 29.82,-44.68 33.27,-45.28"/>
<text text-anchor="middle" x="53.42" y="-97.6" font-family="Work Sans" font-size="8.00"> NEUTRAL &#160;&#160;</text>
</g>
<!-- V41503 -->
<g id="node4" class="node">
<title>V41503</title>
<g id="a_node4"><a xlink:href="http://trips.ihmc.us/lexicon/data/ONT::MEMBERSHIP.xml" xlink:title="&lt;font color=&quot;green&quot;&gt;&lt;br /&gt;&lt;/font&gt; &lt;font color=&quot;black&quot;&gt;MEMBERSHIP&lt;/font&gt; &lt;font color=&quot;green&quot;&gt;&lt;br /&gt;&lt;/font&gt; &lt;font color=&quot;red&quot;&gt;F&lt;/font&gt; &lt;font color=&quot;blue&quot;&gt;* &lt;/font&gt; &lt;font color=&quot;green&quot;&gt;&lt;br /&gt; &lt;/font&gt;">
<polygon fill="pink" stroke="transparent" stroke-width="0.5" points="84.22,-84 113.45,-84 113.45,-116 84.22,-116 84.22,-84"/>
<polygon fill="lightblue" stroke="transparent" stroke-width="0.5" points="113.45,-84 142.68,-84 142.68,-116 113.45,-116 113.45,-84"/>
<polygon fill="none" stroke="transparent" points="142.68,-116 84.22,-116 84.22,-84 142.68,-84 142.68,-116"/>
<text text-anchor="start" x="84.34" y="-102.6" font-family="Work Sans" font-size="8.00"> </text>
<text text-anchor="start" x="86.56" y="-102.6" font-family="Work Sans" font-size="8.00">MEMBERSHIP</text>
<text text-anchor="start" x="140.34" y="-102.6" font-family="Work Sans" font-size="8.00"> </text>
<text text-anchor="start" x="105.01" y="-94.6" font-family="Work Sans" font-size="8.00"> </text>
<text text-anchor="start" x="107.23" y="-94.6" font-family="Work Sans" font-size="8.00" fill="red">F</text>
<text text-anchor="start" x="112.12" y="-94.6" font-family="Work Sans" font-size="8.00"> </text>
<text text-anchor="start" x="114.34" y="-94.6" font-family="Work Sans" font-size="8.00" fill="blue">* </text>
<text text-anchor="start" x="119.67" y="-94.6" font-family="Work Sans" font-size="8.00"> </text>
<text text-anchor="start" x="112.34" y="-86.6" font-family="Work Sans" font-size="8.00" fill="green"> </text>
</a>
</g>
</g>
<!-- V41395&#45;&gt;V41503 -->
<g id="edge1" class="edge">
<title>V41395&#45;&gt;V41503</title>
<path fill="none" stroke="red" d="M47.78,-159.84C47.15,-151.35 47.87,-141.6 52.52,-134 58.67,-123.94 69.04,-116.75 79.5,-111.7"/>
<polygon fill="red" stroke="red" points="80.46,-113.19 84.29,-109.53 79.02,-110 80.46,-113.19"/>
<text text-anchor="middle" x="73.42" y="-135.6" font-family="Work Sans" font-size="8.00"> FORMAL &#160;&#160;</text>
</g>
<!-- V41395&#45;&gt;V41503 -->
<g id="edge5" class="edge">
<title>V41395&#45;&gt;V41503</title>
<path fill="none" stroke="blue" d="M77.29,-159.89C83.42,-154.55 89.58,-148.44 94.45,-142 99.22,-135.69 103.17,-128 106.22,-120.99"/>
<polygon fill="blue" stroke="blue" points="107.88,-121.56 108.18,-116.27 104.65,-120.21 107.88,-121.56"/>
<text text-anchor="middle" x="99.56" y="-135.6" font-family="Work Sans" font-size="8.00">.</text>
</g>
<!-- V41503&#45;&gt;V41387 -->
<g id="edge2" class="edge">
<title>V41503&#45;&gt;V41387</title>
<path fill="none" stroke="blue" stroke-width="0.5" d="M90.41,-83.76C83.29,-78.54 75.66,-72.39 69.34,-66 63.03,-59.62 56.97,-51.95 51.82,-44.77"/>
<polygon fill="blue" stroke="blue" stroke-width="0.5" points="53.04,-43.47 48.73,-40.38 50.17,-45.48 53.04,-43.47"/>
<text text-anchor="middle" x="88.01" y="-59.6" font-family="Work Sans" font-size="8.00"> FIGURE &#160;&#160;</text>
</g>
<!-- V41449 -->
<g id="node5" class="node">
<title>V41449</title>
<g id="a_node5"><a xlink:href="http://trips.ihmc.us/lexicon/data/ONT::FRIEND.xml" xlink:title="&lt;font color=&quot;green&quot;&gt;&lt;br /&gt;&lt;/font&gt; &lt;font color=&quot;black&quot;&gt;FRIEND&lt;/font&gt; &lt;font color=&quot;green&quot;&gt;&lt;br /&gt;&lt;/font&gt; &lt;font color=&quot;red&quot;&gt;THE&#45;SET&lt;/font&gt; &lt;font color=&quot;blue&quot;&gt;FRIEND&lt;/font&gt; &lt;font color=&quot;green&quot;&gt;&lt;br /&gt; &lt;/font&gt;">
<text text-anchor="start" x="111.34" y="-22.6" font-family="Work Sans" font-size="8.00"> </text>
<text text-anchor="start" x="113.56" y="-22.6" font-family="Work Sans" font-size="8.00">FRIEND</text>
<text text-anchor="start" x="143.34" y="-22.6" font-family="Work Sans" font-size="8.00"> </text>
<text text-anchor="start" x="93.12" y="-14.6" font-family="Work Sans" font-size="8.00"> </text>
<text text-anchor="start" x="95.34" y="-14.6" font-family="Work Sans" font-size="8.00" fill="red">THE&#45;SET</text>
<text text-anchor="start" x="129.56" y="-14.6" font-family="Work Sans" font-size="8.00"> </text>
<text text-anchor="start" x="131.79" y="-14.6" font-family="Work Sans" font-size="8.00" fill="blue">FRIEND</text>
<text text-anchor="start" x="161.56" y="-14.6" font-family="Work Sans" font-size="8.00"> </text>
<text text-anchor="start" x="127.34" y="-6.6" font-family="Work Sans" font-size="8.00" fill="green"> </text>
</a>
</g>
</g>
<!-- V41503&#45;&gt;V41449 -->
<g id="edge4" class="edge">
<title>V41503&#45;&gt;V41449</title>
<path fill="none" stroke="red" d="M112.37,-83.68C112.14,-75.92 112.37,-66.38 114.01,-58 115.12,-52.3 117.06,-46.35 119.17,-40.92"/>
<polygon fill="red" stroke="red" points="120.86,-41.4 121.13,-36.11 117.62,-40.08 120.86,-41.4"/>
<text text-anchor="middle" x="135.67" y="-59.6" font-family="Work Sans" font-size="8.00"> GROUND &#160;&#160;</text>
</g>
<!-- V41503&#45;&gt;V41449 -->
<g id="edge6" class="edge">
<title>V41503&#45;&gt;V41449</title>
<path fill="none" stroke="blue" d="M142.58,-83.81C148.95,-79.02 154.86,-73.09 158.45,-66 162.97,-57.07 158.53,-47.78 151.81,-39.98"/>
<polygon fill="blue" stroke="blue" points="153.04,-38.73 148.35,-36.27 150.48,-41.12 153.04,-38.73"/>
<text text-anchor="middle" x="160.56" y="-59.6" font-family="Work Sans" font-size="8.00">.</text>
</g>
</g>
</svg>
