<?xml version="1.0" encoding="UTF-8" standalone="no"?>
<!DOCTYPE svg PUBLIC "-//W3C//DTD SVG 1.1//EN"
 "http://www.w3.org/Graphics/SVG/1.1/DTD/svg11.dtd">
<!-- Generated by graphviz version 2.43.0 (0)
 -->
<!-- Title: graph Pages: 1 -->
<svg width="266pt" height="376pt"
 viewBox="0.00 0.00 265.90 376.00" xmlns="http://www.w3.org/2000/svg" xmlns:xlink="http://www.w3.org/1999/xlink">
<g id="graph0" class="graph" transform="scale(1 1) rotate(0) translate(4 372)">
<title>graph</title>
<polygon fill="white" stroke="transparent" points="-4,4 -4,-372 261.9,-372 261.9,4 -4,4"/>
<!-- V50346 -->
<g id="node1" class="node">
<title>V50346</title>
<g id="a_node1"><a xlink:href="http://trips.ihmc.us/lexicon/data/ONT::SA_TELL.xml" xlink:title="&lt;font color=&quot;green&quot;&gt;&lt;br /&gt;&lt;/font&gt; &lt;font color=&quot;black&quot;&gt;SA_TELL&lt;/font&gt; &lt;font color=&quot;green&quot;&gt;&lt;br /&gt;&lt;/font&gt; &lt;font color=&quot;red&quot;&gt;SPEECHACT&lt;/font&gt; &lt;font color=&quot;blue&quot;&gt;* &lt;/font&gt; &lt;font color=&quot;green&quot;&gt;&lt;br /&gt; &lt;/font&gt;">
<text text-anchor="start" x="11.11" y="-354.6" font-family="Work Sans" font-size="8.00"> </text>
<text text-anchor="start" x="13.33" y="-354.6" font-family="Work Sans" font-size="8.00">SA_TELL</text>
<text text-anchor="start" x="47.57" y="-354.6" font-family="Work Sans" font-size="8.00"> </text>
<text text-anchor="start" x="0" y="-346.6" font-family="Work Sans" font-size="8.00"> </text>
<text text-anchor="start" x="2.22" y="-346.6" font-family="Work Sans" font-size="8.00" fill="red">SPEECHACT</text>
<text text-anchor="start" x="51.12" y="-346.6" font-family="Work Sans" font-size="8.00"> </text>
<text text-anchor="start" x="53.34" y="-346.6" font-family="Work Sans" font-size="8.00" fill="blue">* </text>
<text text-anchor="start" x="58.68" y="-346.6" font-family="Work Sans" font-size="8.00"> </text>
<text text-anchor="start" x="29.34" y="-338.6" font-family="Work Sans" font-size="8.00" fill="green"> </text>
</a>
</g>
</g>
<!-- V50000 -->
<g id="node2" class="node">
<title>V50000</title>
<g id="a_node2"><a xlink:href="http://trips.ihmc.us/lexicon/data/ONT::APPRECIATE.xml" xlink:title="&lt;font color=&quot;green&quot;&gt;&lt;br /&gt;&lt;/font&gt; &lt;font color=&quot;black&quot;&gt;APPRECIATE&lt;/font&gt; &lt;font color=&quot;green&quot;&gt;&lt;br /&gt;&lt;/font&gt; &lt;font color=&quot;red&quot;&gt;F&lt;/font&gt; &lt;font color=&quot;blue&quot;&gt;LOVE&lt;/font&gt; &lt;font color=&quot;green&quot;&gt;&lt;br /&gt;&lt;/font&gt; &lt;font color=&quot;green&quot;&gt;love%2:37:00::&lt;/font&gt; &lt;font color=&quot;green&quot;&gt;&lt;br /&gt; &lt;/font&gt;">
<text text-anchor="start" x="3.18" y="-278.6" font-family="Work Sans" font-size="8.00"> </text>
<text text-anchor="start" x="5.41" y="-278.6" font-family="Work Sans" font-size="8.00">APPRECIATE</text>
<text text-anchor="start" x="55.5" y="-278.6" font-family="Work Sans" font-size="8.00"> </text>
<text text-anchor="start" x="14" y="-270.6" font-family="Work Sans" font-size="8.00"> </text>
<text text-anchor="start" x="16.22" y="-270.6" font-family="Work Sans" font-size="8.00" fill="red">F</text>
<text text-anchor="start" x="21.11" y="-270.6" font-family="Work Sans" font-size="8.00"> </text>
<text text-anchor="start" x="23.33" y="-270.6" font-family="Work Sans" font-size="8.00" fill="blue">LOVE</text>
<text text-anchor="start" x="44.68" y="-270.6" font-family="Work Sans" font-size="8.00"> </text>
<text text-anchor="start" x="1.77" y="-262.6" font-family="Work Sans" font-size="8.00"> </text>
<text text-anchor="start" x="3.99" y="-262.6" font-family="Work Sans" font-size="8.00" fill="green">love%2:37:00::</text>
<text text-anchor="start" x="56.91" y="-262.6" font-family="Work Sans" font-size="8.00"> </text>
<text text-anchor="start" x="29.34" y="-254.6" font-family="Work Sans" font-size="8.00" fill="green"> </text>
</a>
</g>
</g>
<!-- V50346&#45;&gt;V50000 -->
<g id="edge6" class="edge">
<title>V50346&#45;&gt;V50000</title>
<path fill="none" stroke="grey" stroke-width="0.5" d="M30.45,-335.96C30.45,-325.04 30.45,-310.02 30.45,-297.39"/>
<polygon fill="grey" stroke="grey" stroke-width="0.5" points="32.2,-297.14 30.45,-292.14 28.7,-297.14 32.2,-297.14"/>
<text text-anchor="middle" x="54.16" y="-311.6" font-family="Work Sans" font-size="8.00"> CONTENT &#160;&#160;</text>
</g>
<!-- V49990 -->
<g id="node3" class="node">
<title>V49990</title>
<g id="a_node3"><a xlink:href="http://trips.ihmc.us/lexicon/data/ONT::MALE-PERSON.xml" xlink:title="&lt;font color=&quot;green&quot;&gt;&lt;br /&gt;&lt;/font&gt; &lt;font color=&quot;black&quot;&gt;MALE&#45;PERSON&lt;/font&gt; &lt;font color=&quot;green&quot;&gt;&lt;br /&gt;&lt;/font&gt; &lt;font color=&quot;red&quot;&gt;THE&lt;/font&gt; &lt;font color=&quot;blue&quot;&gt;JAKE&lt;/font&gt; &lt;font color=&quot;green&quot;&gt;&lt;br /&gt;&lt;/font&gt; &lt;font color=&quot;green&quot;&gt;man%1:18:00&lt;/font&gt; &lt;font color=&quot;green&quot;&gt;&lt;br /&gt; &lt;/font&gt;">
<polygon fill="pink" stroke="transparent" stroke-width="0.5" points="16.27,-84 47.45,-84 47.45,-124 16.27,-124 16.27,-84"/>
<polygon fill="lightblue" stroke="transparent" stroke-width="0.5" points="47.45,-84 78.63,-84 78.63,-124 47.45,-124 47.45,-84"/>
<polygon fill="none" stroke="transparent" points="78.63,-124 16.27,-124 16.27,-84 78.63,-84 78.63,-124"/>
<text text-anchor="start" x="16.11" y="-110.6" font-family="Work Sans" font-size="8.00"> </text>
<text text-anchor="start" x="18.33" y="-110.6" font-family="Work Sans" font-size="8.00">MALE&#45;PERSON</text>
<text text-anchor="start" x="76.57" y="-110.6" font-family="Work Sans" font-size="8.00"> </text>
<text text-anchor="start" x="26.11" y="-102.6" font-family="Work Sans" font-size="8.00"> </text>
<text text-anchor="start" x="28.34" y="-102.6" font-family="Work Sans" font-size="8.00" fill="red">THE</text>
<text text-anchor="start" x="44.34" y="-102.6" font-family="Work Sans" font-size="8.00"> </text>
<text text-anchor="start" x="46.56" y="-102.6" font-family="Work Sans" font-size="8.00" fill="blue">JAKE</text>
<text text-anchor="start" x="66.57" y="-102.6" font-family="Work Sans" font-size="8.00"> </text>
<text text-anchor="start" x="20.54" y="-94.6" font-family="Work Sans" font-size="8.00"> </text>
<text text-anchor="start" x="22.77" y="-94.6" font-family="Work Sans" font-size="8.00" fill="green">man%1:18:00</text>
<text text-anchor="start" x="72.13" y="-94.6" font-family="Work Sans" font-size="8.00"> </text>
<text text-anchor="start" x="46.34" y="-86.6" font-family="Work Sans" font-size="8.00" fill="green"> </text>
</a>
</g>
</g>
<!-- V50000&#45;&gt;V49990 -->
<g id="edge7" class="edge">
<title>V50000&#45;&gt;V49990</title>
<path fill="none" stroke="grey" stroke-width="0.5" d="M29.53,-251.93C28.82,-231.18 28.49,-197.09 32.21,-168 33.89,-154.91 37.22,-140.6 40.35,-128.93"/>
<polygon fill="grey" stroke="grey" stroke-width="0.5" points="42.04,-129.38 41.67,-124.1 38.66,-128.46 42.04,-129.38"/>
<text text-anchor="middle" x="65.57" y="-185.6" font-family="Work Sans" font-size="8.00"> EXPERIENCER &#160;&#160;</text>
</g>
<!-- V50038 -->
<g id="node4" class="node">
<title>V50038</title>
<g id="a_node4"><a xlink:href="http://trips.ihmc.us/lexicon/data/ONT::BE-AT-LOC.xml" xlink:title="&lt;font color=&quot;green&quot;&gt;&lt;br /&gt;&lt;/font&gt; &lt;font color=&quot;black&quot;&gt;BE&#45;AT&#45;LOC&lt;/font&gt; &lt;font color=&quot;green&quot;&gt;&lt;br /&gt;&lt;/font&gt; &lt;font color=&quot;red&quot;&gt;F&lt;/font&gt; &lt;font color=&quot;blue&quot;&gt;SIT&lt;/font&gt; &lt;font color=&quot;green&quot;&gt;&lt;br /&gt;&lt;/font&gt; &lt;font color=&quot;green&quot;&gt;sit%2:35:00::&lt;/font&gt; &lt;font color=&quot;green&quot;&gt;&lt;br /&gt; &lt;/font&gt;">
<polygon fill="pink" stroke="transparent" stroke-width="0.5" points="107.25,-168 132.45,-168 132.45,-208 107.25,-208 107.25,-168"/>
<polygon fill="lightblue" stroke="transparent" stroke-width="0.5" points="132.45,-168 157.65,-168 157.65,-208 132.45,-208 132.45,-168"/>
<polygon fill="none" stroke="transparent" points="157.65,-208 107.25,-208 107.25,-168 157.65,-168 157.65,-208"/>
<text text-anchor="start" x="109.41" y="-194.6" font-family="Work Sans" font-size="8.00"> </text>
<text text-anchor="start" x="111.63" y="-194.6" font-family="Work Sans" font-size="8.00">BE&#45;AT&#45;LOC</text>
<text text-anchor="start" x="153.27" y="-194.6" font-family="Work Sans" font-size="8.00"> </text>
<text text-anchor="start" x="120.45" y="-186.6" font-family="Work Sans" font-size="8.00"> </text>
<text text-anchor="start" x="122.67" y="-186.6" font-family="Work Sans" font-size="8.00" fill="red">F</text>
<text text-anchor="start" x="127.56" y="-186.6" font-family="Work Sans" font-size="8.00"> </text>
<text text-anchor="start" x="129.78" y="-186.6" font-family="Work Sans" font-size="8.00" fill="blue">SIT</text>
<text text-anchor="start" x="142.23" y="-186.6" font-family="Work Sans" font-size="8.00"> </text>
<text text-anchor="start" x="107.1" y="-178.6" font-family="Work Sans" font-size="8.00"> </text>
<text text-anchor="start" x="109.33" y="-178.6" font-family="Work Sans" font-size="8.00" fill="green">sit%2:35:00::</text>
<text text-anchor="start" x="155.58" y="-178.6" font-family="Work Sans" font-size="8.00"> </text>
<text text-anchor="start" x="131.34" y="-170.6" font-family="Work Sans" font-size="8.00" fill="green"> </text>
</a>
</g>
</g>
<!-- V50000&#45;&gt;V50038 -->
<g id="edge2" class="edge">
<title>V50000&#45;&gt;V50038</title>
<path fill="none" stroke="grey" stroke-width="0.5" d="M54.11,-251.98C69.19,-239.86 88.8,-224.09 104.63,-211.36"/>
<polygon fill="grey" stroke="grey" stroke-width="0.5" points="105.77,-212.7 108.57,-208.2 103.58,-209.97 105.77,-212.7"/>
<text text-anchor="middle" x="106.42" y="-227.6" font-family="Work Sans" font-size="8.00"> FORMAL &#160;&#160;</text>
</g>
<!-- V50038&#45;&gt;V49990 -->
<g id="edge3" class="edge">
<title>V50038&#45;&gt;V49990</title>
<path fill="none" stroke="red" d="M107.09,-176.6C83.04,-166.61 50.3,-152.66 48.51,-150 44.57,-144.1 43.29,-136.72 43.28,-129.65"/>
<polygon fill="red" stroke="red" points="45.04,-129.41 43.5,-124.34 41.54,-129.27 45.04,-129.41"/>
<text text-anchor="middle" x="72.42" y="-143.6" font-family="Work Sans" font-size="8.00"> NEUTRAL &#160;&#160;</text>
</g>
<!-- V50038&#45;&gt;V49990 -->
<g id="edge4" class="edge">
<title>V50038&#45;&gt;V49990</title>
<path fill="none" stroke="blue" d="M117.72,-167.86C110.99,-159.57 102.69,-149.96 94.45,-142 89.23,-136.96 83.36,-131.91 77.58,-127.24"/>
<polygon fill="blue" stroke="blue" points="78.61,-125.82 73.61,-124.07 76.42,-128.55 78.61,-125.82"/>
<text text-anchor="middle" x="102.56" y="-143.6" font-family="Work Sans" font-size="8.00">.</text>
</g>
<!-- V50059 -->
<g id="node5" class="node">
<title>V50059</title>
<g id="a_node5"><a xlink:href="http://trips.ihmc.us/lexicon/data/ONT::ON.xml" xlink:title="&lt;font color=&quot;green&quot;&gt;&lt;br /&gt;&lt;/font&gt; &lt;font color=&quot;black&quot;&gt;ON&lt;/font&gt; &lt;font color=&quot;green&quot;&gt;&lt;br /&gt;&lt;/font&gt; &lt;font color=&quot;red&quot;&gt;F&lt;/font&gt; &lt;font color=&quot;blue&quot;&gt;ON&lt;/font&gt; &lt;font color=&quot;green&quot;&gt;&lt;br /&gt; &lt;/font&gt;">
<polygon fill="pink" stroke="transparent" stroke-width="0.5" points="201.89,-88 213.45,-88 213.45,-120 201.89,-120 201.89,-88"/>
<polygon fill="lightblue" stroke="transparent" stroke-width="0.5" points="213.45,-88 225.01,-88 225.01,-120 213.45,-120 213.45,-88"/>
<polygon fill="none" stroke="transparent" points="225.01,-120 201.89,-120 201.89,-88 225.01,-88 225.01,-120"/>
<text text-anchor="start" x="205.23" y="-106.6" font-family="Work Sans" font-size="8.00"> </text>
<text text-anchor="start" x="207.45" y="-106.6" font-family="Work Sans" font-size="8.00">ON</text>
<text text-anchor="start" x="219.45" y="-106.6" font-family="Work Sans" font-size="8.00"> </text>
<text text-anchor="start" x="201.67" y="-98.6" font-family="Work Sans" font-size="8.00"> </text>
<text text-anchor="start" x="203.9" y="-98.6" font-family="Work Sans" font-size="8.00" fill="red">F</text>
<text text-anchor="start" x="208.78" y="-98.6" font-family="Work Sans" font-size="8.00"> </text>
<text text-anchor="start" x="211.01" y="-98.6" font-family="Work Sans" font-size="8.00" fill="blue">ON</text>
<text text-anchor="start" x="223.01" y="-98.6" font-family="Work Sans" font-size="8.00"> </text>
<text text-anchor="start" x="212.34" y="-90.6" font-family="Work Sans" font-size="8.00" fill="green"> </text>
</a>
</g>
</g>
<!-- V50038&#45;&gt;V50059 -->
<g id="edge1" class="edge">
<title>V50038&#45;&gt;V50059</title>
<path fill="none" stroke="red" d="M132.98,-167.95C134.08,-159.3 136.62,-149.37 142.26,-142 155.91,-124.15 180.62,-114.11 197.04,-109.12"/>
<polygon fill="red" stroke="red" points="197.53,-110.8 201.85,-107.73 196.56,-107.43 197.53,-110.8"/>
<text text-anchor="middle" x="166.05" y="-143.6" font-family="Work Sans" font-size="8.00"> LOCATION &#160;&#160;</text>
</g>
<!-- V50038&#45;&gt;V50059 -->
<g id="edge5" class="edge">
<title>V50038&#45;&gt;V50059</title>
<path fill="none" stroke="blue" d="M157.67,-175.26C169.08,-169 182.07,-160.43 191.45,-150 197.91,-142.83 202.9,-133.42 206.48,-125.06"/>
<polygon fill="blue" stroke="blue" points="208.27,-125.31 208.53,-120.02 205.03,-123.99 208.27,-125.31"/>
<text text-anchor="middle" x="197.56" y="-143.6" font-family="Work Sans" font-size="8.00">.</text>
</g>
<!-- V50059&#45;&gt;V50038 -->
<g id="edge8" class="edge">
<title>V50059&#45;&gt;V50038</title>
<path fill="none" stroke="grey" stroke-width="0.5" d="M212.85,-120.13C211.78,-129.57 209.08,-141.5 202.45,-150 192.43,-162.86 176.67,-171.74 162.64,-177.58"/>
<polygon fill="grey" stroke="grey" stroke-width="0.5" points="161.96,-175.96 157.96,-179.44 163.25,-179.22 161.96,-175.96"/>
<text text-anchor="middle" x="226.01" y="-143.6" font-family="Work Sans" font-size="8.00"> FIGURE &#160;&#160;</text>
</g>
<!-- V50086 -->
<g id="node6" class="node">
<title>V50086</title>
<g id="a_node6"><a xlink:href="http://trips.ihmc.us/lexicon/data/ONT::GRASS.xml" xlink:title="&lt;font color=&quot;green&quot;&gt;&lt;br /&gt;&lt;/font&gt; &lt;font color=&quot;black&quot;&gt;GRASS&lt;/font&gt; &lt;font color=&quot;green&quot;&gt;&lt;br /&gt;&lt;/font&gt; &lt;font color=&quot;red&quot;&gt;THE&lt;/font&gt; &lt;font color=&quot;blue&quot;&gt;GRASS&lt;/font&gt; &lt;font color=&quot;green&quot;&gt;&lt;br /&gt;&lt;/font&gt; &lt;font color=&quot;green&quot;&gt;grass%1:20:00::&lt;/font&gt; &lt;font color=&quot;green&quot;&gt;&lt;br /&gt; &lt;/font&gt;">
<text text-anchor="start" x="197.22" y="-26.6" font-family="Work Sans" font-size="8.00"> </text>
<text text-anchor="start" x="199.45" y="-26.6" font-family="Work Sans" font-size="8.00">GRASS</text>
<text text-anchor="start" x="227.46" y="-26.6" font-family="Work Sans" font-size="8.00"> </text>
<text text-anchor="start" x="188.11" y="-18.6" font-family="Work Sans" font-size="8.00"> </text>
<text text-anchor="start" x="190.34" y="-18.6" font-family="Work Sans" font-size="8.00" fill="red">THE</text>
<text text-anchor="start" x="206.34" y="-18.6" font-family="Work Sans" font-size="8.00"> </text>
<text text-anchor="start" x="208.56" y="-18.6" font-family="Work Sans" font-size="8.00" fill="blue">GRASS</text>
<text text-anchor="start" x="236.57" y="-18.6" font-family="Work Sans" font-size="8.00"> </text>
<text text-anchor="start" x="182.32" y="-10.6" font-family="Work Sans" font-size="8.00"> </text>
<text text-anchor="start" x="184.54" y="-10.6" font-family="Work Sans" font-size="8.00" fill="green">grass%1:20:00::</text>
<text text-anchor="start" x="242.36" y="-10.6" font-family="Work Sans" font-size="8.00"> </text>
<text text-anchor="start" x="212.34" y="-2.6" font-family="Work Sans" font-size="8.00" fill="green"> </text>
</a>
</g>
</g>
<!-- V50059&#45;&gt;V50086 -->
<g id="edge9" class="edge">
<title>V50059&#45;&gt;V50086</title>
<path fill="none" stroke="grey" stroke-width="0.5" d="M213.45,-87.96C213.45,-76.12 213.45,-59.38 213.45,-45.6"/>
<polygon fill="grey" stroke="grey" stroke-width="0.5" points="215.2,-45.29 213.45,-40.29 211.7,-45.29 215.2,-45.29"/>
<text text-anchor="middle" x="235.67" y="-59.6" font-family="Work Sans" font-size="8.00"> GROUND &#160;&#160;</text>
</g>
</g>
</svg>
