<?xml version="1.0" encoding="UTF-8" standalone="no"?>
<!DOCTYPE svg PUBLIC "-//W3C//DTD SVG 1.1//EN"
 "http://www.w3.org/Graphics/SVG/1.1/DTD/svg11.dtd">
<!-- Generated by graphviz version 2.43.0 (0)
 -->
<!-- Title: graph Pages: 1 -->
<svg width="305pt" height="292pt"
 viewBox="0.00 0.00 305.45 292.00" xmlns="http://www.w3.org/2000/svg" xmlns:xlink="http://www.w3.org/1999/xlink">
<g id="graph0" class="graph" transform="scale(1 1) rotate(0) translate(4 288)">
<title>graph</title>
<polygon fill="white" stroke="transparent" points="-4,4 -4,-288 301.45,-288 301.45,4 -4,4"/>
<!-- V39776 -->
<g id="node1" class="node">
<title>V39776</title>
<g id="a_node1"><a xlink:href="http://trips.ihmc.us/lexicon/data/ONT::SA_TELL.xml" xlink:title="&lt;font color=&quot;green&quot;&gt;&lt;br /&gt;&lt;/font&gt; &lt;font color=&quot;black&quot;&gt;SA_TELL&lt;/font&gt; &lt;font color=&quot;green&quot;&gt;&lt;br /&gt;&lt;/font&gt; &lt;font color=&quot;red&quot;&gt;SPEECHACT&lt;/font&gt; &lt;font color=&quot;blue&quot;&gt;* &lt;/font&gt; &lt;font color=&quot;green&quot;&gt;&lt;br /&gt; &lt;/font&gt;">
<text text-anchor="start" x="156" y="-270.6" font-family="Work Sans" font-size="8.00"> </text>
<text text-anchor="start" x="158.22" y="-270.6" font-family="Work Sans" font-size="8.00">SA_TELL</text>
<text text-anchor="start" x="192.46" y="-270.6" font-family="Work Sans" font-size="8.00"> </text>
<text text-anchor="start" x="144.89" y="-262.6" font-family="Work Sans" font-size="8.00"> </text>
<text text-anchor="start" x="147.11" y="-262.6" font-family="Work Sans" font-size="8.00" fill="red">SPEECHACT</text>
<text text-anchor="start" x="196.01" y="-262.6" font-family="Work Sans" font-size="8.00"> </text>
<text text-anchor="start" x="198.23" y="-262.6" font-family="Work Sans" font-size="8.00" fill="blue">* </text>
<text text-anchor="start" x="203.57" y="-262.6" font-family="Work Sans" font-size="8.00"> </text>
<text text-anchor="start" x="174.23" y="-254.6" font-family="Work Sans" font-size="8.00" fill="green"> </text>
</a>
</g>
</g>
<!-- V39460 -->
<g id="node2" class="node">
<title>V39460</title>
<g id="a_node2"><a xlink:href="http://trips.ihmc.us/lexicon/data/ONT::CAUSE-COVER.xml" xlink:title="&lt;font color=&quot;green&quot;&gt;&lt;br /&gt;&lt;/font&gt; &lt;font color=&quot;black&quot;&gt;CAUSE&#45;COVER&lt;/font&gt; &lt;font color=&quot;green&quot;&gt;&lt;br /&gt;&lt;/font&gt; &lt;font color=&quot;red&quot;&gt;F&lt;/font&gt; &lt;font color=&quot;blue&quot;&gt;COVER&lt;/font&gt; &lt;font color=&quot;green&quot;&gt;&lt;br /&gt;&lt;/font&gt; &lt;font color=&quot;green&quot;&gt;cover%2:35:00::&lt;/font&gt; &lt;font color=&quot;green&quot;&gt;&lt;br /&gt; &lt;/font&gt;">
<polygon fill="pink" stroke="transparent" stroke-width="0.5" points="143.72,-168 175.34,-168 175.34,-208 143.72,-208 143.72,-168"/>
<polygon fill="lightblue" stroke="transparent" stroke-width="0.5" points="175.34,-168 206.96,-168 206.96,-208 175.34,-208 175.34,-168"/>
<polygon fill="none" stroke="transparent" points="206.96,-208 143.72,-208 143.72,-168 206.96,-168 206.96,-208"/>
<text text-anchor="start" x="143.78" y="-194.6" font-family="Work Sans" font-size="8.00"> </text>
<text text-anchor="start" x="146" y="-194.6" font-family="Work Sans" font-size="8.00">CAUSE&#45;COVER</text>
<text text-anchor="start" x="204.68" y="-194.6" font-family="Work Sans" font-size="8.00"> </text>
<text text-anchor="start" x="155.34" y="-186.6" font-family="Work Sans" font-size="8.00"> </text>
<text text-anchor="start" x="157.56" y="-186.6" font-family="Work Sans" font-size="8.00" fill="red">F</text>
<text text-anchor="start" x="162.45" y="-186.6" font-family="Work Sans" font-size="8.00"> </text>
<text text-anchor="start" x="164.67" y="-186.6" font-family="Work Sans" font-size="8.00" fill="blue">COVER</text>
<text text-anchor="start" x="193.12" y="-186.6" font-family="Work Sans" font-size="8.00"> </text>
<text text-anchor="start" x="144.21" y="-178.6" font-family="Work Sans" font-size="8.00"> </text>
<text text-anchor="start" x="146.43" y="-178.6" font-family="Work Sans" font-size="8.00" fill="green">cover%2:35:00::</text>
<text text-anchor="start" x="204.25" y="-178.6" font-family="Work Sans" font-size="8.00"> </text>
<text text-anchor="start" x="174.23" y="-170.6" font-family="Work Sans" font-size="8.00" fill="green"> </text>
</a>
</g>
</g>
<!-- V39776&#45;&gt;V39460 -->
<g id="edge2" class="edge">
<title>V39776&#45;&gt;V39460</title>
<path fill="none" stroke="grey" stroke-width="0.5" d="M175.34,-251.96C175.34,-241.04 175.34,-226.02 175.34,-213.39"/>
<polygon fill="grey" stroke="grey" stroke-width="0.5" points="177.09,-213.14 175.34,-208.14 173.59,-213.14 177.09,-213.14"/>
<text text-anchor="middle" x="199.05" y="-227.6" font-family="Work Sans" font-size="8.00"> CONTENT &#160;&#160;</text>
</g>
<!-- V39455 -->
<g id="node3" class="node">
<title>V39455</title>
<g id="a_node3"><a xlink:href="http://trips.ihmc.us/lexicon/data/ONT::MALE-PERSON.xml" xlink:title="&lt;font color=&quot;green&quot;&gt;&lt;br /&gt;&lt;/font&gt; &lt;font color=&quot;black&quot;&gt;MALE&#45;PERSON&lt;/font&gt; &lt;font color=&quot;green&quot;&gt;&lt;br /&gt;&lt;/font&gt; &lt;font color=&quot;red&quot;&gt;PRO&lt;/font&gt; &lt;font color=&quot;blue&quot;&gt;HE&lt;/font&gt; &lt;font color=&quot;green&quot;&gt;&lt;br /&gt;&lt;/font&gt; &lt;font color=&quot;green&quot;&gt;man%1:18:00&lt;/font&gt; &lt;font color=&quot;green&quot;&gt;&lt;br /&gt; &lt;/font&gt;">
<text text-anchor="start" x="0" y="-110.6" font-family="Work Sans" font-size="8.00"> </text>
<text text-anchor="start" x="2.22" y="-110.6" font-family="Work Sans" font-size="8.00">MALE&#45;PERSON</text>
<text text-anchor="start" x="60.46" y="-110.6" font-family="Work Sans" font-size="8.00"> </text>
<text text-anchor="start" x="13.78" y="-102.6" font-family="Work Sans" font-size="8.00"> </text>
<text text-anchor="start" x="16" y="-102.6" font-family="Work Sans" font-size="8.00" fill="red">PRO</text>
<text text-anchor="start" x="33.34" y="-102.6" font-family="Work Sans" font-size="8.00"> </text>
<text text-anchor="start" x="35.56" y="-102.6" font-family="Work Sans" font-size="8.00" fill="blue">HE</text>
<text text-anchor="start" x="46.68" y="-102.6" font-family="Work Sans" font-size="8.00"> </text>
<text text-anchor="start" x="4.43" y="-94.6" font-family="Work Sans" font-size="8.00"> </text>
<text text-anchor="start" x="6.66" y="-94.6" font-family="Work Sans" font-size="8.00" fill="green">man%1:18:00</text>
<text text-anchor="start" x="56.02" y="-94.6" font-family="Work Sans" font-size="8.00"> </text>
<text text-anchor="start" x="30.23" y="-86.6" font-family="Work Sans" font-size="8.00" fill="green"> </text>
</a>
</g>
</g>
<!-- V39460&#45;&gt;V39455 -->
<g id="edge1" class="edge">
<title>V39460&#45;&gt;V39455</title>
<path fill="none" stroke="blue" d="M143.75,-183.75C104.12,-178.94 39.57,-168.45 25.12,-150 20.53,-144.15 20.17,-136.51 21.54,-129.19"/>
<polygon fill="blue" stroke="blue" points="23.27,-129.46 22.73,-124.19 19.86,-128.65 23.27,-129.46"/>
<text text-anchor="middle" x="26.45" y="-143.6" font-family="Work Sans" font-size="8.00">.</text>
</g>
<!-- V39460&#45;&gt;V39455 -->
<g id="edge6" class="edge">
<title>V39460&#45;&gt;V39455</title>
<path fill="none" stroke="red" d="M143.64,-182.73C118.93,-178.09 84.83,-168.67 60.47,-150 53.25,-144.47 47.3,-136.6 42.7,-128.99"/>
<polygon fill="red" stroke="red" points="44.02,-127.77 40.01,-124.31 40.98,-129.52 44.02,-127.77"/>
<text text-anchor="middle" x="79.28" y="-143.6" font-family="Work Sans" font-size="8.00"> AGENT &#160;&#160;</text>
</g>
<!-- V39473 -->
<g id="node4" class="node">
<title>V39473</title>
<g id="a_node4"><a xlink:href="http://trips.ihmc.us/lexicon/data/ONT::TABLE.xml" xlink:title="&lt;font color=&quot;green&quot;&gt;&lt;br /&gt;&lt;/font&gt; &lt;font color=&quot;black&quot;&gt;TABLE&lt;/font&gt; &lt;font color=&quot;green&quot;&gt;&lt;br /&gt;&lt;/font&gt; &lt;font color=&quot;red&quot;&gt;THE&lt;/font&gt; &lt;font color=&quot;blue&quot;&gt;TABLE&lt;/font&gt; &lt;font color=&quot;green&quot;&gt;&lt;br /&gt;&lt;/font&gt; &lt;font color=&quot;green&quot;&gt;table%1:06:01::&lt;/font&gt; &lt;font color=&quot;green&quot;&gt;&lt;br /&gt; &lt;/font&gt;">
<text text-anchor="start" x="97.74" y="-110.6" font-family="Work Sans" font-size="8.00"> </text>
<text text-anchor="start" x="99.96" y="-110.6" font-family="Work Sans" font-size="8.00">TABLE</text>
<text text-anchor="start" x="124.72" y="-110.6" font-family="Work Sans" font-size="8.00"> </text>
<text text-anchor="start" x="88.63" y="-102.6" font-family="Work Sans" font-size="8.00"> </text>
<text text-anchor="start" x="90.85" y="-102.6" font-family="Work Sans" font-size="8.00" fill="red">THE</text>
<text text-anchor="start" x="106.85" y="-102.6" font-family="Work Sans" font-size="8.00"> </text>
<text text-anchor="start" x="109.07" y="-102.6" font-family="Work Sans" font-size="8.00" fill="blue">TABLE</text>
<text text-anchor="start" x="133.83" y="-102.6" font-family="Work Sans" font-size="8.00"> </text>
<text text-anchor="start" x="82.32" y="-94.6" font-family="Work Sans" font-size="8.00"> </text>
<text text-anchor="start" x="84.54" y="-94.6" font-family="Work Sans" font-size="8.00" fill="green">table%1:06:01::</text>
<text text-anchor="start" x="140.14" y="-94.6" font-family="Work Sans" font-size="8.00"> </text>
<text text-anchor="start" x="111.23" y="-86.6" font-family="Work Sans" font-size="8.00" fill="green"> </text>
</a>
</g>
</g>
<!-- V39460&#45;&gt;V39473 -->
<g id="edge5" class="edge">
<title>V39460&#45;&gt;V39473</title>
<path fill="none" stroke="red" d="M143.49,-179.17C128.34,-173.67 111.62,-164.61 102.66,-150 98.8,-143.69 98.99,-136.05 100.82,-128.88"/>
<polygon fill="red" stroke="red" points="102.52,-129.3 102.32,-124.01 99.18,-128.27 102.52,-129.3"/>
<text text-anchor="middle" x="128.68" y="-143.6" font-family="Work Sans" font-size="8.00"> AFFECTED &#160;&#160;</text>
</g>
<!-- V39460&#45;&gt;V39473 -->
<g id="edge7" class="edge">
<title>V39460&#45;&gt;V39473</title>
<path fill="none" stroke="blue" d="M167.85,-167.69C164.14,-159.36 159.2,-149.78 153.34,-142 149.64,-137.09 145.23,-132.33 140.69,-127.94"/>
<polygon fill="blue" stroke="blue" points="141.7,-126.49 136.86,-124.34 139.31,-129.04 141.7,-126.49"/>
<text text-anchor="middle" x="160.45" y="-143.6" font-family="Work Sans" font-size="8.00">.</text>
</g>
<!-- V39482 -->
<g id="node5" class="node">
<title>V39482</title>
<g id="a_node5"><a xlink:href="http://trips.ihmc.us/lexicon/data/ONT::WITH-INSTRUMENT.xml" xlink:title="&lt;font color=&quot;green&quot;&gt;&lt;br /&gt;&lt;/font&gt; &lt;font color=&quot;black&quot;&gt;WITH&#45;INSTRUMENT&lt;/font&gt; &lt;font color=&quot;green&quot;&gt;&lt;br /&gt;&lt;/font&gt; &lt;font color=&quot;red&quot;&gt;F&lt;/font&gt; &lt;font color=&quot;blue&quot;&gt;WITH&lt;/font&gt; &lt;font color=&quot;green&quot;&gt;&lt;br /&gt; &lt;/font&gt;">
<polygon fill="pink" stroke="transparent" stroke-width="0.5" points="185.35,-88 225.34,-88 225.34,-120 185.35,-120 185.35,-88"/>
<polygon fill="lightblue" stroke="transparent" stroke-width="0.5" points="225.34,-88 265.33,-88 265.33,-120 225.34,-120 225.34,-88"/>
<polygon fill="none" stroke="transparent" points="265.33,-120 185.35,-120 185.35,-88 265.33,-88 265.33,-120"/>
<text text-anchor="start" x="185.35" y="-106.6" font-family="Work Sans" font-size="8.00"> </text>
<text text-anchor="start" x="187.57" y="-106.6" font-family="Work Sans" font-size="8.00">WITH&#45;INSTRUMENT</text>
<text text-anchor="start" x="263.11" y="-106.6" font-family="Work Sans" font-size="8.00"> </text>
<text text-anchor="start" x="209.34" y="-98.6" font-family="Work Sans" font-size="8.00"> </text>
<text text-anchor="start" x="211.57" y="-98.6" font-family="Work Sans" font-size="8.00" fill="red">F</text>
<text text-anchor="start" x="216.45" y="-98.6" font-family="Work Sans" font-size="8.00"> </text>
<text text-anchor="start" x="218.68" y="-98.6" font-family="Work Sans" font-size="8.00" fill="blue">WITH</text>
<text text-anchor="start" x="239.11" y="-98.6" font-family="Work Sans" font-size="8.00"> </text>
<text text-anchor="start" x="224.23" y="-90.6" font-family="Work Sans" font-size="8.00" fill="green"> </text>
</a>
</g>
</g>
<!-- V39460&#45;&gt;V39482 -->
<g id="edge3" class="edge">
<title>V39460&#45;&gt;V39482</title>
<path fill="none" stroke="blue" d="M186.94,-167.98C194.92,-154.89 205.49,-137.55 213.52,-124.38"/>
<polygon fill="blue" stroke="blue" points="215.03,-125.27 216.14,-120.09 212.04,-123.45 215.03,-125.27"/>
<text text-anchor="middle" x="203.45" y="-143.6" font-family="Work Sans" font-size="8.00">.</text>
</g>
<!-- V39460&#45;&gt;V39482 -->
<g id="edge8" class="edge">
<title>V39460&#45;&gt;V39482</title>
<path fill="none" stroke="red" d="M190.89,-167.91C195.16,-162.3 199.63,-156.04 203.34,-150 208.17,-142.15 212.77,-133.08 216.5,-125.16"/>
<polygon fill="red" stroke="red" points="218.2,-125.66 218.71,-120.39 215.02,-124.19 218.2,-125.66"/>
<text text-anchor="middle" x="230.12" y="-143.6" font-family="Work Sans" font-size="8.00"> METHOD &#160;&#160;</text>
</g>
<!-- V39482&#45;&gt;V39460 -->
<g id="edge9" class="edge">
<title>V39482&#45;&gt;V39460</title>
<path fill="none" stroke="grey" stroke-width="0.5" d="M246.2,-120.25C255.39,-128.89 262.8,-139.94 256.34,-150 246.49,-165.32 228.55,-174.38 212.06,-179.69"/>
<polygon fill="grey" stroke="grey" stroke-width="0.5" points="211.27,-178.1 206.99,-181.22 212.29,-181.45 211.27,-178.1"/>
<text text-anchor="middle" x="277.9" y="-143.6" font-family="Work Sans" font-size="8.00"> FIGURE &#160;&#160;</text>
</g>
<!-- V39495 -->
<g id="node6" class="node">
<title>V39495</title>
<g id="a_node6"><a xlink:href="http://trips.ihmc.us/lexicon/data/ONT::COMMODITY.xml" xlink:title="&lt;font color=&quot;green&quot;&gt;&lt;br /&gt;&lt;/font&gt; &lt;font color=&quot;black&quot;&gt;COMMODITY&lt;/font&gt; &lt;font color=&quot;green&quot;&gt;&lt;br /&gt;&lt;/font&gt; &lt;font color=&quot;red&quot;&gt;BARE&lt;/font&gt; &lt;font color=&quot;blue&quot;&gt;TABLECLOTH&lt;/font&gt; &lt;font color=&quot;green&quot;&gt;&lt;br /&gt;&lt;/font&gt; &lt;font color=&quot;green&quot;&gt;tablecloth%1:06:00::&lt;/font&gt; &lt;font color=&quot;green&quot;&gt;&lt;br /&gt; &lt;/font&gt;">
<text text-anchor="start" x="198.23" y="-26.6" font-family="Work Sans" font-size="8.00"> </text>
<text text-anchor="start" x="200.45" y="-26.6" font-family="Work Sans" font-size="8.00">COMMODITY</text>
<text text-anchor="start" x="250.23" y="-26.6" font-family="Work Sans" font-size="8.00"> </text>
<text text-anchor="start" x="185.18" y="-18.6" font-family="Work Sans" font-size="8.00"> </text>
<text text-anchor="start" x="187.4" y="-18.6" font-family="Work Sans" font-size="8.00" fill="red">BARE</text>
<text text-anchor="start" x="209.19" y="-18.6" font-family="Work Sans" font-size="8.00"> </text>
<text text-anchor="start" x="211.41" y="-18.6" font-family="Work Sans" font-size="8.00" fill="blue">TABLECLOTH</text>
<text text-anchor="start" x="263.28" y="-18.6" font-family="Work Sans" font-size="8.00"> </text>
<text text-anchor="start" x="186.87" y="-10.6" font-family="Work Sans" font-size="8.00"> </text>
<text text-anchor="start" x="189.09" y="-10.6" font-family="Work Sans" font-size="8.00" fill="green">tablecloth%1:06:00::</text>
<text text-anchor="start" x="261.59" y="-10.6" font-family="Work Sans" font-size="8.00"> </text>
<text text-anchor="start" x="224.23" y="-2.6" font-family="Work Sans" font-size="8.00" fill="green"> </text>
</a>
</g>
</g>
<!-- V39482&#45;&gt;V39495 -->
<g id="edge4" class="edge">
<title>V39482&#45;&gt;V39495</title>
<path fill="none" stroke="grey" stroke-width="0.5" d="M225.34,-87.96C225.34,-76.12 225.34,-59.38 225.34,-45.6"/>
<polygon fill="grey" stroke="grey" stroke-width="0.5" points="227.09,-45.29 225.34,-40.29 223.59,-45.29 227.09,-45.29"/>
<text text-anchor="middle" x="247.56" y="-59.6" font-family="Work Sans" font-size="8.00"> GROUND &#160;&#160;</text>
</g>
</g>
</svg>
