<?xml version="1.0" encoding="UTF-8" standalone="no"?>
<!DOCTYPE svg PUBLIC "-//W3C//DTD SVG 1.1//EN"
 "http://www.w3.org/Graphics/SVG/1.1/DTD/svg11.dtd">
<!-- Generated by graphviz version 2.43.0 (0)
 -->
<!-- Title: graph Pages: 1 -->
<svg width="307pt" height="376pt"
 viewBox="0.00 0.00 306.81 376.00" xmlns="http://www.w3.org/2000/svg" xmlns:xlink="http://www.w3.org/1999/xlink">
<g id="graph0" class="graph" transform="scale(1 1) rotate(0) translate(4 372)">
<title>graph</title>
<polygon fill="white" stroke="transparent" points="-4,4 -4,-372 302.81,-372 302.81,4 -4,4"/>
<!-- V108611 -->
<g id="node1" class="node">
<title>V108611</title>
<g id="a_node1"><a xlink:href="http://trips.ihmc.us/lexicon/data/ONT::SA_TELL.xml" xlink:title="&lt;font color=&quot;green&quot;&gt;&lt;br /&gt;&lt;/font&gt; &lt;font color=&quot;black&quot;&gt;SA_TELL&lt;/font&gt; &lt;font color=&quot;green&quot;&gt;&lt;br /&gt;&lt;/font&gt; &lt;font color=&quot;red&quot;&gt;SPEECHACT&lt;/font&gt; &lt;font color=&quot;blue&quot;&gt;* &lt;/font&gt; &lt;font color=&quot;green&quot;&gt;&lt;br /&gt; &lt;/font&gt;">
<text text-anchor="start" x="126.11" y="-354.6" font-family="Work Sans" font-size="8.00"> </text>
<text text-anchor="start" x="128.33" y="-354.6" font-family="Work Sans" font-size="8.00">SA_TELL</text>
<text text-anchor="start" x="162.57" y="-354.6" font-family="Work Sans" font-size="8.00"> </text>
<text text-anchor="start" x="115" y="-346.6" font-family="Work Sans" font-size="8.00"> </text>
<text text-anchor="start" x="117.22" y="-346.6" font-family="Work Sans" font-size="8.00" fill="red">SPEECHACT</text>
<text text-anchor="start" x="166.12" y="-346.6" font-family="Work Sans" font-size="8.00"> </text>
<text text-anchor="start" x="168.34" y="-346.6" font-family="Work Sans" font-size="8.00" fill="blue">* </text>
<text text-anchor="start" x="173.68" y="-346.6" font-family="Work Sans" font-size="8.00"> </text>
<text text-anchor="start" x="144.34" y="-338.6" font-family="Work Sans" font-size="8.00" fill="green"> </text>
</a>
</g>
</g>
<!-- V107481 -->
<g id="node2" class="node">
<title>V107481</title>
<g id="a_node2"><a xlink:href="http://trips.ihmc.us/lexicon/data/ONT::EXECUTE.xml" xlink:title="&lt;font color=&quot;green&quot;&gt;&lt;br /&gt;&lt;/font&gt; &lt;font color=&quot;black&quot;&gt;EXECUTE&lt;/font&gt; &lt;font color=&quot;green&quot;&gt;&lt;br /&gt;&lt;/font&gt; &lt;font color=&quot;red&quot;&gt;F&lt;/font&gt; &lt;font color=&quot;blue&quot;&gt;GO&lt;/font&gt; &lt;font color=&quot;green&quot;&gt;&lt;br /&gt;&lt;/font&gt; &lt;font color=&quot;green&quot;&gt;fulfil%2:36:00&lt;/font&gt; &lt;font color=&quot;green&quot;&gt;&lt;br /&gt; &lt;/font&gt;">
<polygon fill="pink" stroke="transparent" stroke-width="0.5" points="118.97,-252 145.45,-252 145.45,-292 118.97,-292 118.97,-252"/>
<polygon fill="lightblue" stroke="transparent" stroke-width="0.5" points="145.45,-252 171.93,-252 171.93,-292 145.45,-292 145.45,-252"/>
<polygon fill="none" stroke="transparent" points="171.93,-292 118.97,-292 118.97,-252 171.93,-252 171.93,-292"/>
<text text-anchor="start" x="124.34" y="-278.6" font-family="Work Sans" font-size="8.00"> </text>
<text text-anchor="start" x="126.56" y="-278.6" font-family="Work Sans" font-size="8.00">EXECUTE</text>
<text text-anchor="start" x="164.34" y="-278.6" font-family="Work Sans" font-size="8.00"> </text>
<text text-anchor="start" x="133.45" y="-270.6" font-family="Work Sans" font-size="8.00"> </text>
<text text-anchor="start" x="135.67" y="-270.6" font-family="Work Sans" font-size="8.00" fill="red">F</text>
<text text-anchor="start" x="140.56" y="-270.6" font-family="Work Sans" font-size="8.00"> </text>
<text text-anchor="start" x="142.78" y="-270.6" font-family="Work Sans" font-size="8.00" fill="blue">GO</text>
<text text-anchor="start" x="155.23" y="-270.6" font-family="Work Sans" font-size="8.00"> </text>
<text text-anchor="start" x="119.21" y="-262.6" font-family="Work Sans" font-size="8.00"> </text>
<text text-anchor="start" x="121.44" y="-262.6" font-family="Work Sans" font-size="8.00" fill="green">fulfil%2:36:00</text>
<text text-anchor="start" x="169.47" y="-262.6" font-family="Work Sans" font-size="8.00"> </text>
<text text-anchor="start" x="144.34" y="-254.6" font-family="Work Sans" font-size="8.00" fill="green"> </text>
</a>
</g>
</g>
<!-- V108611&#45;&gt;V107481 -->
<g id="edge4" class="edge">
<title>V108611&#45;&gt;V107481</title>
<path fill="none" stroke="grey" stroke-width="0.5" d="M145.45,-335.96C145.45,-325.04 145.45,-310.02 145.45,-297.39"/>
<polygon fill="grey" stroke="grey" stroke-width="0.5" points="147.2,-297.14 145.45,-292.14 143.7,-297.14 147.2,-297.14"/>
<text text-anchor="middle" x="169.16" y="-311.6" font-family="Work Sans" font-size="8.00"> CONTENT &#160;&#160;</text>
</g>
<!-- V107444 -->
<g id="node3" class="node">
<title>V107444</title>
<g id="a_node3"><a xlink:href="http://trips.ihmc.us/lexicon/data/ONT::FEMALE-PERSON.xml" xlink:title="&lt;font color=&quot;green&quot;&gt;&lt;br /&gt;&lt;/font&gt; &lt;font color=&quot;black&quot;&gt;FEMALE&#45;PERSON&lt;/font&gt; &lt;font color=&quot;green&quot;&gt;&lt;br /&gt;&lt;/font&gt; &lt;font color=&quot;red&quot;&gt;THE&lt;/font&gt; &lt;font color=&quot;blue&quot;&gt;AMY&lt;/font&gt; &lt;font color=&quot;green&quot;&gt;&lt;br /&gt;&lt;/font&gt; &lt;font color=&quot;green&quot;&gt;woman%1:18:00&lt;/font&gt; &lt;font color=&quot;green&quot;&gt;&lt;br /&gt; &lt;/font&gt;">
<text text-anchor="start" x="0" y="-194.6" font-family="Work Sans" font-size="8.00"> </text>
<text text-anchor="start" x="2.22" y="-194.6" font-family="Work Sans" font-size="8.00">FEMALE&#45;PERSON</text>
<text text-anchor="start" x="70.68" y="-194.6" font-family="Work Sans" font-size="8.00"> </text>
<text text-anchor="start" x="16.45" y="-186.6" font-family="Work Sans" font-size="8.00"> </text>
<text text-anchor="start" x="18.67" y="-186.6" font-family="Work Sans" font-size="8.00" fill="red">THE</text>
<text text-anchor="start" x="34.67" y="-186.6" font-family="Work Sans" font-size="8.00"> </text>
<text text-anchor="start" x="36.89" y="-186.6" font-family="Work Sans" font-size="8.00" fill="blue">AMY</text>
<text text-anchor="start" x="54.23" y="-186.6" font-family="Work Sans" font-size="8.00"> </text>
<text text-anchor="start" x="4.43" y="-178.6" font-family="Work Sans" font-size="8.00"> </text>
<text text-anchor="start" x="6.65" y="-178.6" font-family="Work Sans" font-size="8.00" fill="green">woman%1:18:00</text>
<text text-anchor="start" x="66.25" y="-178.6" font-family="Work Sans" font-size="8.00"> </text>
<text text-anchor="start" x="35.34" y="-170.6" font-family="Work Sans" font-size="8.00" fill="green"> </text>
</a>
</g>
</g>
<!-- V107481&#45;&gt;V107444 -->
<g id="edge2" class="edge">
<title>V107481&#45;&gt;V107444</title>
<path fill="none" stroke="blue" d="M118.84,-268.59C95.58,-265.01 62.7,-256.12 44.23,-234 39.44,-228.26 37.12,-220.65 36.11,-213.32"/>
<polygon fill="blue" stroke="blue" points="37.84,-213.12 35.6,-208.32 34.36,-213.47 37.84,-213.12"/>
<text text-anchor="middle" x="45.56" y="-227.6" font-family="Work Sans" font-size="8.00">.</text>
</g>
<!-- V107481&#45;&gt;V107444 -->
<g id="edge3" class="edge">
<title>V107481&#45;&gt;V107444</title>
<path fill="none" stroke="red" d="M118.95,-255.25C108.9,-248.96 97.49,-241.46 87.58,-234 78.49,-227.15 69,-219.1 60.71,-211.7"/>
<polygon fill="red" stroke="red" points="61.63,-210.18 56.74,-208.14 59.29,-212.78 61.63,-210.18"/>
<text text-anchor="middle" x="106.39" y="-227.6" font-family="Work Sans" font-size="8.00"> AGENT &#160;&#160;</text>
</g>
<!-- V107562 -->
<g id="node4" class="node">
<title>V107562</title>
<g id="a_node4"><a xlink:href="http://trips.ihmc.us/lexicon/data/ONT::PHYSICAL-SCRUTINY.xml" xlink:title="&lt;font color=&quot;green&quot;&gt;&lt;br /&gt;&lt;/font&gt; &lt;font color=&quot;black&quot;&gt;PHYSICAL&#45;SCRUTINY&lt;/font&gt; &lt;font color=&quot;green&quot;&gt;&lt;br /&gt;&lt;/font&gt; &lt;font color=&quot;red&quot;&gt;BARE&lt;/font&gt; &lt;font color=&quot;blue&quot;&gt;SHOP&lt;/font&gt; &lt;font color=&quot;green&quot;&gt;&lt;br /&gt;&lt;/font&gt; &lt;font color=&quot;green&quot;&gt;shop%2:40:01::&lt;/font&gt; &lt;font color=&quot;green&quot;&gt;&lt;br /&gt; &lt;/font&gt;">
<polygon fill="pink" stroke="transparent" stroke-width="0.5" points="90.88,-168 134.45,-168 134.45,-208 90.88,-208 90.88,-168"/>
<polygon fill="lightblue" stroke="transparent" stroke-width="0.5" points="134.45,-168 178.02,-168 178.02,-208 134.45,-208 134.45,-168"/>
<polygon fill="none" stroke="transparent" points="178.02,-208 90.88,-208 90.88,-168 178.02,-168 178.02,-208"/>
<text text-anchor="start" x="90.67" y="-194.6" font-family="Work Sans" font-size="8.00"> </text>
<text text-anchor="start" x="92.89" y="-194.6" font-family="Work Sans" font-size="8.00">PHYSICAL&#45;SCRUTINY</text>
<text text-anchor="start" x="176.01" y="-194.6" font-family="Work Sans" font-size="8.00"> </text>
<text text-anchor="start" x="108.89" y="-186.6" font-family="Work Sans" font-size="8.00"> </text>
<text text-anchor="start" x="111.11" y="-186.6" font-family="Work Sans" font-size="8.00" fill="red">BARE</text>
<text text-anchor="start" x="132.9" y="-186.6" font-family="Work Sans" font-size="8.00"> </text>
<text text-anchor="start" x="135.12" y="-186.6" font-family="Work Sans" font-size="8.00" fill="blue">SHOP</text>
<text text-anchor="start" x="157.79" y="-186.6" font-family="Work Sans" font-size="8.00"> </text>
<text text-anchor="start" x="104.43" y="-178.6" font-family="Work Sans" font-size="8.00"> </text>
<text text-anchor="start" x="106.65" y="-178.6" font-family="Work Sans" font-size="8.00" fill="green">shop%2:40:01::</text>
<text text-anchor="start" x="162.25" y="-178.6" font-family="Work Sans" font-size="8.00"> </text>
<text text-anchor="start" x="133.34" y="-170.6" font-family="Work Sans" font-size="8.00" fill="green"> </text>
</a>
</g>
</g>
<!-- V107481&#45;&gt;V107562 -->
<g id="edge5" class="edge">
<title>V107481&#45;&gt;V107562</title>
<path fill="none" stroke="blue" d="M134.68,-251.98C132.03,-246.36 129.58,-240.09 128.23,-234 126.76,-227.37 126.98,-220.12 127.93,-213.4"/>
<polygon fill="blue" stroke="blue" points="129.67,-213.61 128.77,-208.39 126.21,-213.03 129.67,-213.61"/>
<text text-anchor="middle" x="129.56" y="-227.6" font-family="Work Sans" font-size="8.00">.</text>
</g>
<!-- V107481&#45;&gt;V107562 -->
<g id="edge9" class="edge">
<title>V107481&#45;&gt;V107562</title>
<path fill="none" stroke="red" d="M142.9,-251.98C141.36,-240.47 139.37,-225.68 137.71,-213.33"/>
<polygon fill="red" stroke="red" points="139.43,-212.92 137.03,-208.2 135.96,-213.39 139.43,-212.92"/>
<text text-anchor="middle" x="161.42" y="-227.6" font-family="Work Sans" font-size="8.00"> FORMAL &#160;&#160;</text>
</g>
<!-- V107575 -->
<g id="node6" class="node">
<title>V107575</title>
<g id="a_node6"><a xlink:href="http://trips.ihmc.us/lexicon/data/ONT::ACCOMPANIMENT.xml" xlink:title="&lt;font color=&quot;green&quot;&gt;&lt;br /&gt;&lt;/font&gt; &lt;font color=&quot;black&quot;&gt;ACCOMPANIMENT&lt;/font&gt; &lt;font color=&quot;green&quot;&gt;&lt;br /&gt;&lt;/font&gt; &lt;font color=&quot;red&quot;&gt;F&lt;/font&gt; &lt;font color=&quot;blue&quot;&gt;WITH&lt;/font&gt; &lt;font color=&quot;green&quot;&gt;&lt;br /&gt; &lt;/font&gt;">
<polygon fill="pink" stroke="transparent" stroke-width="0.5" points="197.98,-172 235.45,-172 235.45,-204 197.98,-204 197.98,-172"/>
<polygon fill="lightblue" stroke="transparent" stroke-width="0.5" points="235.45,-172 272.92,-172 272.92,-204 235.45,-204 235.45,-172"/>
<polygon fill="none" stroke="transparent" points="272.92,-204 197.98,-204 197.98,-172 272.92,-172 272.92,-204"/>
<text text-anchor="start" x="197.97" y="-190.6" font-family="Work Sans" font-size="8.00"> </text>
<text text-anchor="start" x="200.19" y="-190.6" font-family="Work Sans" font-size="8.00">ACCOMPANIMENT</text>
<text text-anchor="start" x="270.71" y="-190.6" font-family="Work Sans" font-size="8.00"> </text>
<text text-anchor="start" x="219.46" y="-182.6" font-family="Work Sans" font-size="8.00"> </text>
<text text-anchor="start" x="221.68" y="-182.6" font-family="Work Sans" font-size="8.00" fill="red">F</text>
<text text-anchor="start" x="226.56" y="-182.6" font-family="Work Sans" font-size="8.00"> </text>
<text text-anchor="start" x="228.79" y="-182.6" font-family="Work Sans" font-size="8.00" fill="blue">WITH</text>
<text text-anchor="start" x="249.22" y="-182.6" font-family="Work Sans" font-size="8.00"> </text>
<text text-anchor="start" x="234.34" y="-174.6" font-family="Work Sans" font-size="8.00" fill="green"> </text>
</a>
</g>
</g>
<!-- V107481&#45;&gt;V107575 -->
<g id="edge1" class="edge">
<title>V107481&#45;&gt;V107575</title>
<path fill="none" stroke="blue" d="M166.76,-251.83C173.11,-246.11 180.07,-239.81 186.45,-234 196.02,-225.29 206.59,-215.59 215.46,-207.43"/>
<polygon fill="blue" stroke="blue" points="216.66,-208.71 219.15,-204.04 214.29,-206.13 216.66,-208.71"/>
<text text-anchor="middle" x="196.56" y="-227.6" font-family="Work Sans" font-size="8.00">.</text>
</g>
<!-- V107481&#45;&gt;V107575 -->
<g id="edge7" class="edge">
<title>V107481&#45;&gt;V107575</title>
<path fill="none" stroke="red" d="M171.89,-256.13C181.72,-249.96 192.62,-242.29 201.45,-234 209.4,-226.54 216.87,-217.05 222.77,-208.71"/>
<polygon fill="red" stroke="red" points="224.47,-209.33 225.88,-204.22 221.6,-207.33 224.47,-209.33"/>
<text text-anchor="middle" x="229.68" y="-227.6" font-family="Work Sans" font-size="8.00"> AGENT1 &#160;&#160;</text>
</g>
<!-- V107558 -->
<g id="node5" class="node">
<title>V107558</title>
<g id="a_node5"><a xlink:href="http://trips.ihmc.us/lexicon/data/ONT::ACADEMIC-INSTITUTION.xml" xlink:title="&lt;font color=&quot;green&quot;&gt;&lt;br /&gt;&lt;/font&gt; &lt;font color=&quot;black&quot;&gt;ACADEMIC&#45;INSTITUTION&lt;/font&gt; &lt;font color=&quot;green&quot;&gt;&lt;br /&gt;&lt;/font&gt; &lt;font color=&quot;red&quot;&gt;KIND&lt;/font&gt; &lt;font color=&quot;blue&quot;&gt;SCHOOL&lt;/font&gt; &lt;font color=&quot;green&quot;&gt;&lt;br /&gt;&lt;/font&gt; &lt;font color=&quot;green&quot;&gt;school%1:14:00::&lt;/font&gt; &lt;font color=&quot;green&quot;&gt;&lt;br /&gt; &lt;/font&gt;">
<text text-anchor="start" x="82.67" y="-110.6" font-family="Work Sans" font-size="8.00"> </text>
<text text-anchor="start" x="84.9" y="-110.6" font-family="Work Sans" font-size="8.00">ACADEMIC&#45;INSTITUTION</text>
<text text-anchor="start" x="180.01" y="-110.6" font-family="Work Sans" font-size="8.00"> </text>
<text text-anchor="start" x="102.67" y="-102.6" font-family="Work Sans" font-size="8.00"> </text>
<text text-anchor="start" x="104.89" y="-102.6" font-family="Work Sans" font-size="8.00" fill="red">KIND</text>
<text text-anchor="start" x="124" y="-102.6" font-family="Work Sans" font-size="8.00"> </text>
<text text-anchor="start" x="126.23" y="-102.6" font-family="Work Sans" font-size="8.00" fill="blue">SCHOOL</text>
<text text-anchor="start" x="160.01" y="-102.6" font-family="Work Sans" font-size="8.00"> </text>
<text text-anchor="start" x="99.54" y="-94.6" font-family="Work Sans" font-size="8.00"> </text>
<text text-anchor="start" x="101.76" y="-94.6" font-family="Work Sans" font-size="8.00" fill="green">school%1:14:00::</text>
<text text-anchor="start" x="163.14" y="-94.6" font-family="Work Sans" font-size="8.00"> </text>
<text text-anchor="start" x="131.34" y="-86.6" font-family="Work Sans" font-size="8.00" fill="green"> </text>
</a>
</g>
</g>
<!-- V107562&#45;&gt;V107558 -->
<g id="edge8" class="edge">
<title>V107562&#45;&gt;V107558</title>
<path fill="none" stroke="grey" stroke-width="0.5" d="M133.99,-167.98C133.71,-156.47 133.35,-141.68 133.04,-129.33"/>
<polygon fill="grey" stroke="grey" stroke-width="0.5" points="134.79,-129.16 132.92,-124.2 131.29,-129.24 134.79,-129.16"/>
<text text-anchor="middle" x="164.23" y="-143.6" font-family="Work Sans" font-size="8.00"> ASSOC&#45;WITH &#160;&#160;</text>
</g>
<!-- V107575&#45;&gt;V107481 -->
<g id="edge10" class="edge">
<title>V107575&#45;&gt;V107481</title>
<path fill="none" stroke="grey" stroke-width="0.5" d="M248.57,-204.08C254.92,-213.28 259.91,-224.96 253.45,-234 236.24,-258.09 202.34,-266.66 177.09,-269.63"/>
<polygon fill="grey" stroke="grey" stroke-width="0.5" points="176.64,-267.92 171.85,-270.18 177,-271.4 176.64,-267.92"/>
<text text-anchor="middle" x="275.01" y="-227.6" font-family="Work Sans" font-size="8.00"> FIGURE &#160;&#160;</text>
</g>
<!-- V107592 -->
<g id="node7" class="node">
<title>V107592</title>
<g id="a_node7"><a xlink:href="http://trips.ihmc.us/lexicon/data/ONT::FAMILY-RELATION.xml" xlink:title="&lt;font color=&quot;green&quot;&gt;&lt;br /&gt;&lt;/font&gt; &lt;font color=&quot;black&quot;&gt;FAMILY&#45;RELATION&lt;/font&gt; &lt;font color=&quot;green&quot;&gt;&lt;br /&gt;&lt;/font&gt; &lt;font color=&quot;red&quot;&gt;THE&lt;/font&gt; &lt;font color=&quot;blue&quot;&gt;MOM&lt;/font&gt; &lt;font color=&quot;green&quot;&gt;&lt;br /&gt;&lt;/font&gt; &lt;font color=&quot;green&quot;&gt;mom%1:18:00::&lt;/font&gt; &lt;font color=&quot;green&quot;&gt;&lt;br /&gt; &lt;/font&gt;">
<text text-anchor="start" x="200.62" y="-110.6" font-family="Work Sans" font-size="8.00"> </text>
<text text-anchor="start" x="202.84" y="-110.6" font-family="Work Sans" font-size="8.00">FAMILY&#45;RELATION</text>
<text text-anchor="start" x="272.06" y="-110.6" font-family="Work Sans" font-size="8.00"> </text>
<text text-anchor="start" x="216.34" y="-102.6" font-family="Work Sans" font-size="8.00"> </text>
<text text-anchor="start" x="218.56" y="-102.6" font-family="Work Sans" font-size="8.00" fill="red">THE</text>
<text text-anchor="start" x="234.56" y="-102.6" font-family="Work Sans" font-size="8.00"> </text>
<text text-anchor="start" x="236.79" y="-102.6" font-family="Work Sans" font-size="8.00" fill="blue">MOM</text>
<text text-anchor="start" x="256.34" y="-102.6" font-family="Work Sans" font-size="8.00"> </text>
<text text-anchor="start" x="207.21" y="-94.6" font-family="Work Sans" font-size="8.00"> </text>
<text text-anchor="start" x="209.44" y="-94.6" font-family="Work Sans" font-size="8.00" fill="green">mom%1:18:00::</text>
<text text-anchor="start" x="265.46" y="-94.6" font-family="Work Sans" font-size="8.00"> </text>
<text text-anchor="start" x="236.34" y="-86.6" font-family="Work Sans" font-size="8.00" fill="green"> </text>
</a>
</g>
</g>
<!-- V107575&#45;&gt;V107592 -->
<g id="edge6" class="edge">
<title>V107575&#45;&gt;V107592</title>
<path fill="none" stroke="grey" stroke-width="0.5" d="M235.82,-171.96C236.11,-160.12 236.52,-143.38 236.85,-129.6"/>
<polygon fill="grey" stroke="grey" stroke-width="0.5" points="238.61,-129.33 236.98,-124.29 235.11,-129.24 238.61,-129.33"/>
<text text-anchor="middle" x="258.67" y="-143.6" font-family="Work Sans" font-size="8.00"> GROUND &#160;&#160;</text>
</g>
<!-- V107586 -->
<g id="node8" class="node">
<title>V107586</title>
<g id="a_node8"><a xlink:href="http://trips.ihmc.us/lexicon/data/ONT::FEMALE-PERSON.xml" xlink:title="&lt;font color=&quot;green&quot;&gt;&lt;br /&gt;&lt;/font&gt; &lt;font color=&quot;black&quot;&gt;FEMALE&#45;PERSON&lt;/font&gt; &lt;font color=&quot;green&quot;&gt;&lt;br /&gt;&lt;/font&gt; &lt;font color=&quot;red&quot;&gt;PRO&lt;/font&gt; &lt;font color=&quot;blue&quot;&gt;HER&lt;/font&gt; &lt;font color=&quot;green&quot;&gt;&lt;br /&gt;&lt;/font&gt; &lt;font color=&quot;green&quot;&gt;woman%1:18:00&lt;/font&gt; &lt;font color=&quot;green&quot;&gt;&lt;br /&gt; &lt;/font&gt;">
<polygon fill="pink" stroke="transparent" stroke-width="0.5" points="201.05,0 237.45,0 237.45,-40 201.05,-40 201.05,0"/>
<polygon fill="lightblue" stroke="transparent" stroke-width="0.5" points="237.45,0 273.85,0 273.85,-40 237.45,-40 237.45,0"/>
<polygon fill="none" stroke="transparent" points="273.85,-40 201.05,-40 201.05,0 273.85,0 273.85,-40"/>
<text text-anchor="start" x="201" y="-26.6" font-family="Work Sans" font-size="8.00"> </text>
<text text-anchor="start" x="203.22" y="-26.6" font-family="Work Sans" font-size="8.00">FEMALE&#45;PERSON</text>
<text text-anchor="start" x="271.68" y="-26.6" font-family="Work Sans" font-size="8.00"> </text>
<text text-anchor="start" x="217" y="-18.6" font-family="Work Sans" font-size="8.00"> </text>
<text text-anchor="start" x="219.23" y="-18.6" font-family="Work Sans" font-size="8.00" fill="red">PRO</text>
<text text-anchor="start" x="236.56" y="-18.6" font-family="Work Sans" font-size="8.00"> </text>
<text text-anchor="start" x="238.79" y="-18.6" font-family="Work Sans" font-size="8.00" fill="blue">HER</text>
<text text-anchor="start" x="255.68" y="-18.6" font-family="Work Sans" font-size="8.00"> </text>
<text text-anchor="start" x="205.43" y="-10.6" font-family="Work Sans" font-size="8.00"> </text>
<text text-anchor="start" x="207.65" y="-10.6" font-family="Work Sans" font-size="8.00" fill="green">woman%1:18:00</text>
<text text-anchor="start" x="267.25" y="-10.6" font-family="Work Sans" font-size="8.00"> </text>
<text text-anchor="start" x="236.34" y="-2.6" font-family="Work Sans" font-size="8.00" fill="green"> </text>
</a>
</g>
</g>
<!-- V107592&#45;&gt;V107586 -->
<g id="edge11" class="edge">
<title>V107592&#45;&gt;V107586</title>
<path fill="none" stroke="grey" stroke-width="0.5" d="M237.45,-83.98C237.45,-72.47 237.45,-57.68 237.45,-45.33"/>
<polygon fill="grey" stroke="grey" stroke-width="0.5" points="239.2,-45.2 237.45,-40.2 235.7,-45.2 239.2,-45.2"/>
<text text-anchor="middle" x="268.13" y="-59.6" font-family="Work Sans" font-size="8.00"> ASSOC&#45;POSS &#160;&#160;</text>
</g>
</g>
</svg>
