<?xml version="1.0" encoding="UTF-8" standalone="no"?>
<!DOCTYPE svg PUBLIC "-//W3C//DTD SVG 1.1//EN"
 "http://www.w3.org/Graphics/SVG/1.1/DTD/svg11.dtd">
<!-- Generated by graphviz version 2.43.0 (0)
 -->
<!-- Title: graph Pages: 1 -->
<svg width="269pt" height="276pt"
 viewBox="0.00 0.00 269.37 276.00" xmlns="http://www.w3.org/2000/svg" xmlns:xlink="http://www.w3.org/1999/xlink">
<g id="graph0" class="graph" transform="scale(1 1) rotate(0) translate(4 272)">
<title>graph</title>
<polygon fill="white" stroke="transparent" points="-4,4 -4,-272 265.37,-272 265.37,4 -4,4"/>
<!-- V56744 -->
<g id="node1" class="node">
<title>V56744</title>
<g id="a_node1"><a xlink:href="http://trips.ihmc.us/lexicon/data/ONT::SA_WH-QUESTION.xml" xlink:title="&lt;font color=&quot;green&quot;&gt;&lt;br /&gt;&lt;/font&gt; &lt;font color=&quot;black&quot;&gt;SA_WH&#45;QUESTION&lt;/font&gt; &lt;font color=&quot;green&quot;&gt;&lt;br /&gt;&lt;/font&gt; &lt;font color=&quot;red&quot;&gt;SPEECHACT&lt;/font&gt; &lt;font color=&quot;blue&quot;&gt;* &lt;/font&gt; &lt;font color=&quot;green&quot;&gt;&lt;br /&gt; &lt;/font&gt;">
<text text-anchor="start" x="150.81" y="-254.6" font-family="Work Sans" font-size="8.00"> </text>
<text text-anchor="start" x="153.03" y="-254.6" font-family="Work Sans" font-size="8.00">SA_WH&#45;QUESTION</text>
<text text-anchor="start" x="225.93" y="-254.6" font-family="Work Sans" font-size="8.00"> </text>
<text text-anchor="start" x="159.03" y="-246.6" font-family="Work Sans" font-size="8.00"> </text>
<text text-anchor="start" x="161.25" y="-246.6" font-family="Work Sans" font-size="8.00" fill="red">SPEECHACT</text>
<text text-anchor="start" x="210.15" y="-246.6" font-family="Work Sans" font-size="8.00"> </text>
<text text-anchor="start" x="212.37" y="-246.6" font-family="Work Sans" font-size="8.00" fill="blue">* </text>
<text text-anchor="start" x="217.71" y="-246.6" font-family="Work Sans" font-size="8.00"> </text>
<text text-anchor="start" x="188.37" y="-238.6" font-family="Work Sans" font-size="8.00" fill="green"> </text>
</a>
</g>
</g>
<!-- V56451 -->
<g id="node2" class="node">
<title>V56451</title>
<g id="a_node2"><a xlink:href="http://trips.ihmc.us/lexicon/data/ONT::HAVE-PROPERTY.xml" xlink:title="&lt;font color=&quot;green&quot;&gt;&lt;br /&gt;&lt;/font&gt; &lt;font color=&quot;black&quot;&gt;HAVE&#45;PROPERTY&lt;/font&gt; &lt;font color=&quot;green&quot;&gt;&lt;br /&gt;&lt;/font&gt; &lt;font color=&quot;red&quot;&gt;F&lt;/font&gt; &lt;font color=&quot;blue&quot;&gt;BE&lt;/font&gt; &lt;font color=&quot;green&quot;&gt;&lt;br /&gt; &lt;/font&gt;">
<text text-anchor="start" x="88.39" y="-178.6" font-family="Work Sans" font-size="8.00"> </text>
<text text-anchor="start" x="90.62" y="-178.6" font-family="Work Sans" font-size="8.00">HAVE&#45;PROPERTY</text>
<text text-anchor="start" x="158.34" y="-178.6" font-family="Work Sans" font-size="8.00"> </text>
<text text-anchor="start" x="113.37" y="-170.6" font-family="Work Sans" font-size="8.00"> </text>
<text text-anchor="start" x="115.59" y="-170.6" font-family="Work Sans" font-size="8.00" fill="red">F</text>
<text text-anchor="start" x="120.47" y="-170.6" font-family="Work Sans" font-size="8.00"> </text>
<text text-anchor="start" x="122.7" y="-170.6" font-family="Work Sans" font-size="8.00" fill="blue">BE</text>
<text text-anchor="start" x="133.37" y="-170.6" font-family="Work Sans" font-size="8.00"> </text>
<text text-anchor="start" x="123.37" y="-162.6" font-family="Work Sans" font-size="8.00" fill="green"> </text>
</a>
</g>
</g>
<!-- V56744&#45;&gt;V56451 -->
<g id="edge6" class="edge">
<title>V56744&#45;&gt;V56451</title>
<path fill="none" stroke="grey" stroke-width="0.5" d="M176.01,-235.67C165.92,-224.18 152.05,-208.39 141.25,-196.09"/>
<polygon fill="grey" stroke="grey" stroke-width="0.5" points="142.32,-194.66 137.71,-192.06 139.69,-196.97 142.32,-194.66"/>
<text text-anchor="middle" x="182.19" y="-211.6" font-family="Work Sans" font-size="8.00"> CONTENT &#160;&#160;</text>
</g>
<!-- V56522 -->
<g id="node4" class="node">
<title>V56522</title>
<g id="a_node4"><a xlink:href="http://trips.ihmc.us/lexicon/data/ONT::LEVEL.xml" xlink:title="&lt;font color=&quot;green&quot;&gt;&lt;br /&gt;&lt;/font&gt; &lt;font color=&quot;black&quot;&gt;LEVEL&lt;/font&gt; &lt;font color=&quot;green&quot;&gt;&lt;br /&gt;&lt;/font&gt; &lt;font color=&quot;red&quot;&gt;WH&#45;TERM&lt;/font&gt; &lt;font color=&quot;blue&quot;&gt;* &lt;/font&gt; &lt;font color=&quot;green&quot;&gt;&lt;br /&gt; &lt;/font&gt;">
<text text-anchor="start" x="172.8" y="-22.6" font-family="Work Sans" font-size="8.00"> </text>
<text text-anchor="start" x="175.03" y="-22.6" font-family="Work Sans" font-size="8.00">LEVEL</text>
<text text-anchor="start" x="199.93" y="-22.6" font-family="Work Sans" font-size="8.00"> </text>
<text text-anchor="start" x="162.15" y="-14.6" font-family="Work Sans" font-size="8.00"> </text>
<text text-anchor="start" x="164.37" y="-14.6" font-family="Work Sans" font-size="8.00" fill="red">WH&#45;TERM</text>
<text text-anchor="start" x="203.03" y="-14.6" font-family="Work Sans" font-size="8.00"> </text>
<text text-anchor="start" x="205.25" y="-14.6" font-family="Work Sans" font-size="8.00" fill="blue">* </text>
<text text-anchor="start" x="210.59" y="-14.6" font-family="Work Sans" font-size="8.00"> </text>
<text text-anchor="start" x="186.37" y="-6.6" font-family="Work Sans" font-size="8.00" fill="green"> </text>
</a>
</g>
</g>
<!-- V56744&#45;&gt;V56522 -->
<g id="edge7" class="edge">
<title>V56744&#45;&gt;V56522</title>
<path fill="none" stroke="grey" stroke-width="0.5" d="M200.51,-235.91C203.94,-230.51 207.36,-224.21 209.48,-218 231.39,-153.65 222.69,-133.87 226.48,-66 226.68,-62.45 227.88,-61.27 226.48,-58 223.54,-51.17 218.66,-45.01 213.33,-39.77"/>
<polygon fill="grey" stroke="grey" stroke-width="0.5" points="214.44,-38.4 209.58,-36.28 212.05,-40.97 214.44,-38.4"/>
<text text-anchor="middle" x="242.92" y="-135.6" font-family="Work Sans" font-size="8.00"> FOCUS &#160;&#160;</text>
</g>
<!-- V56440 -->
<g id="node3" class="node">
<title>V56440</title>
<g id="a_node3"><a xlink:href="http://trips.ihmc.us/lexicon/data/ONT::AT-SCALE-VALUE.xml" xlink:title="&lt;font color=&quot;green&quot;&gt;&lt;br /&gt;&lt;/font&gt; &lt;font color=&quot;black&quot;&gt;AT&#45;SCALE&#45;VALUE&lt;/font&gt; &lt;font color=&quot;green&quot;&gt;&lt;br /&gt;&lt;/font&gt; &lt;font color=&quot;red&quot;&gt;F&lt;/font&gt; &lt;font color=&quot;blue&quot;&gt;* &lt;/font&gt; &lt;font color=&quot;green&quot;&gt;&lt;br /&gt; &lt;/font&gt;">
<text text-anchor="start" x="89.05" y="-102.6" font-family="Work Sans" font-size="8.00"> </text>
<text text-anchor="start" x="91.28" y="-102.6" font-family="Work Sans" font-size="8.00">AT&#45;SCALE&#45;VALUE</text>
<text text-anchor="start" x="157.68" y="-102.6" font-family="Work Sans" font-size="8.00"> </text>
<text text-anchor="start" x="116.03" y="-94.6" font-family="Work Sans" font-size="8.00"> </text>
<text text-anchor="start" x="118.26" y="-94.6" font-family="Work Sans" font-size="8.00" fill="red">F</text>
<text text-anchor="start" x="123.14" y="-94.6" font-family="Work Sans" font-size="8.00"> </text>
<text text-anchor="start" x="125.37" y="-94.6" font-family="Work Sans" font-size="8.00" fill="blue">* </text>
<text text-anchor="start" x="130.7" y="-94.6" font-family="Work Sans" font-size="8.00"> </text>
<text text-anchor="start" x="123.37" y="-86.6" font-family="Work Sans" font-size="8.00" fill="green"> </text>
</a>
</g>
</g>
<!-- V56451&#45;&gt;V56440 -->
<g id="edge1" class="edge">
<title>V56451&#45;&gt;V56440</title>
<path fill="none" stroke="grey" stroke-width="0.5" d="M124.48,-159.67C124.48,-148.58 124.48,-133.49 124.48,-121.38"/>
<polygon fill="grey" stroke="grey" stroke-width="0.5" points="126.23,-121.06 124.48,-116.06 122.73,-121.06 126.23,-121.06"/>
<text text-anchor="middle" x="145.45" y="-135.6" font-family="Work Sans" font-size="8.00"> FORMAL &#160;&#160;</text>
</g>
<!-- V56501 -->
<g id="node5" class="node">
<title>V56501</title>
<g id="a_node5"><a xlink:href="http://trips.ihmc.us/lexicon/data/ONT::CONTAINER.xml" xlink:title="&lt;font color=&quot;green&quot;&gt;&lt;br /&gt;&lt;/font&gt; &lt;font color=&quot;black&quot;&gt;CONTAINER&lt;/font&gt; &lt;font color=&quot;green&quot;&gt;&lt;br /&gt;&lt;/font&gt; &lt;font color=&quot;red&quot;&gt;THE&lt;/font&gt; &lt;font color=&quot;blue&quot;&gt;GARBAGE&#45;CAN&lt;/font&gt; &lt;font color=&quot;green&quot;&gt;&lt;br /&gt;&lt;/font&gt; &lt;font color=&quot;green&quot;&gt;garbage_can%1:06:00&lt;/font&gt; &lt;font color=&quot;green&quot;&gt;&lt;br /&gt; &lt;/font&gt;">
<polygon fill="pink" stroke="transparent" stroke-width="0.5" points="0.02,0 42.48,0 42.48,-40 0.02,-40 0.02,0"/>
<polygon fill="lightblue" stroke="transparent" stroke-width="0.5" points="42.48,0 84.94,0 84.94,-40 42.48,-40 42.48,0"/>
<polygon fill="none" stroke="transparent" points="84.94,-40 0.02,-40 0.02,0 84.94,0 84.94,-40"/>
<text text-anchor="start" x="16.99" y="-26.6" font-family="Work Sans" font-size="8.00"> </text>
<text text-anchor="start" x="19.22" y="-26.6" font-family="Work Sans" font-size="8.00">CONTAINER</text>
<text text-anchor="start" x="65.74" y="-26.6" font-family="Work Sans" font-size="8.00"> </text>
<text text-anchor="start" x="1.58" y="-18.6" font-family="Work Sans" font-size="8.00"> </text>
<text text-anchor="start" x="3.81" y="-18.6" font-family="Work Sans" font-size="8.00" fill="red">THE</text>
<text text-anchor="start" x="19.81" y="-18.6" font-family="Work Sans" font-size="8.00"> </text>
<text text-anchor="start" x="22.03" y="-18.6" font-family="Work Sans" font-size="8.00" fill="blue">GARBAGE&#45;CAN</text>
<text text-anchor="start" x="81.15" y="-18.6" font-family="Work Sans" font-size="8.00"> </text>
<text text-anchor="start" x="0" y="-10.6" font-family="Work Sans" font-size="8.00"> </text>
<text text-anchor="start" x="2.22" y="-10.6" font-family="Work Sans" font-size="8.00" fill="green">garbage_can%1:06:00</text>
<text text-anchor="start" x="82.73" y="-10.6" font-family="Work Sans" font-size="8.00"> </text>
<text text-anchor="start" x="41.37" y="-2.6" font-family="Work Sans" font-size="8.00" fill="green"> </text>
</a>
</g>
</g>
<!-- V56451&#45;&gt;V56501 -->
<g id="edge4" class="edge">
<title>V56451&#45;&gt;V56501</title>
<path fill="none" stroke="grey" stroke-width="0.5" d="M88.03,-161.27C68.38,-151.78 45.9,-137.03 34.54,-116 22.72,-94.12 27.52,-65.19 33.49,-45.03"/>
<polygon fill="grey" stroke="grey" stroke-width="0.5" points="35.21,-45.4 35.02,-40.1 31.86,-44.36 35.21,-45.4"/>
<text text-anchor="middle" x="58.45" y="-97.6" font-family="Work Sans" font-size="8.00"> NEUTRAL &#160;&#160;</text>
</g>
<!-- V56440&#45;&gt;V56522 -->
<g id="edge3" class="edge">
<title>V56440&#45;&gt;V56522</title>
<path fill="none" stroke="grey" stroke-width="0.5" d="M119.1,-83.63C117.21,-75.49 116.55,-65.64 121.03,-58 128.9,-44.62 143.55,-35.72 157.1,-30.02"/>
<polygon fill="grey" stroke="grey" stroke-width="0.5" points="158.03,-31.53 162.03,-28.06 156.74,-28.28 158.03,-31.53"/>
<text text-anchor="middle" x="142.7" y="-59.6" font-family="Work Sans" font-size="8.00"> GROUND &#160;&#160;</text>
</g>
<!-- V56440&#45;&gt;V56501 -->
<g id="edge2" class="edge">
<title>V56440&#45;&gt;V56501</title>
<path fill="none" stroke="grey" stroke-width="0.5" d="M97.61,-83.92C89.67,-78.8 81.26,-72.66 74.37,-66 67.87,-59.72 61.82,-51.95 56.78,-44.65"/>
<polygon fill="grey" stroke="grey" stroke-width="0.5" points="58.02,-43.35 53.78,-40.17 55.12,-45.3 58.02,-43.35"/>
<text text-anchor="middle" x="94.04" y="-59.6" font-family="Work Sans" font-size="8.00"> FIGURE &#160;&#160;</text>
</g>
<!-- V56522&#45;&gt;V56440 -->
<g id="edge5" class="edge">
<title>V56522&#45;&gt;V56440</title>
<path fill="none" stroke="grey" stroke-width="0.5" d="M182.04,-36.13C178.27,-45.35 172.64,-57.03 165.48,-66 161.3,-71.23 156.15,-76.18 150.93,-80.57"/>
<polygon fill="grey" stroke="grey" stroke-width="0.5" points="149.72,-79.3 146.94,-83.81 151.92,-82.01 149.72,-79.3"/>
<text text-anchor="middle" x="196.34" y="-59.6" font-family="Work Sans" font-size="8.00"> SUCHTHAT &#160;&#160;</text>
</g>
</g>
</svg>
