<?xml version="1.0" encoding="UTF-8" standalone="no"?>
<!DOCTYPE svg PUBLIC "-//W3C//DTD SVG 1.1//EN"
 "http://www.w3.org/Graphics/SVG/1.1/DTD/svg11.dtd">
<!-- Generated by graphviz version 2.43.0 (0)
 -->
<!-- Title: graph Pages: 1 -->
<svg width="222pt" height="268pt"
 viewBox="0.00 0.00 221.71 268.00" xmlns="http://www.w3.org/2000/svg" xmlns:xlink="http://www.w3.org/1999/xlink">
<g id="graph0" class="graph" transform="scale(1 1) rotate(0) translate(4 264)">
<title>graph</title>
<polygon fill="white" stroke="transparent" points="-4,4 -4,-264 217.71,-264 217.71,4 -4,4"/>
<!-- V97403 -->
<g id="node1" class="node">
<title>V97403</title>
<g id="a_node1"><a xlink:href="http://trips.ihmc.us/lexicon/data/ONT::SA_REQUEST.xml" xlink:title="&lt;font color=&quot;green&quot;&gt;&lt;br /&gt;&lt;/font&gt; &lt;font color=&quot;black&quot;&gt;SA_REQUEST&lt;/font&gt; &lt;font color=&quot;green&quot;&gt;&lt;br /&gt;&lt;/font&gt; &lt;font color=&quot;red&quot;&gt;SPEECHACT&lt;/font&gt; &lt;font color=&quot;blue&quot;&gt;* &lt;/font&gt; &lt;font color=&quot;green&quot;&gt;&lt;br /&gt; &lt;/font&gt;">
<polygon fill="pink" stroke="transparent" points="104.52,-260 43.71,-260 43.71,-228 104.52,-228 104.52,-260"/>
<text text-anchor="start" x="45" y="-246.6" font-family="Work Sans" font-size="8.00"> </text>
<text text-anchor="start" x="47.22" y="-246.6" font-family="Work Sans" font-size="8.00">SA_REQUEST</text>
<text text-anchor="start" x="101.01" y="-246.6" font-family="Work Sans" font-size="8.00"> </text>
<text text-anchor="start" x="43.66" y="-238.6" font-family="Work Sans" font-size="8.00"> </text>
<text text-anchor="start" x="45.89" y="-238.6" font-family="Work Sans" font-size="8.00" fill="red">SPEECHACT</text>
<text text-anchor="start" x="94.79" y="-238.6" font-family="Work Sans" font-size="8.00"> </text>
<text text-anchor="start" x="97.01" y="-238.6" font-family="Work Sans" font-size="8.00" fill="blue">* </text>
<text text-anchor="start" x="102.34" y="-238.6" font-family="Work Sans" font-size="8.00"> </text>
<text text-anchor="start" x="73" y="-230.6" font-family="Work Sans" font-size="8.00" fill="green"> </text>
</a>
</g>
</g>
<!-- V97205 -->
<g id="node2" class="node">
<title>V97205</title>
<g id="a_node2"><a xlink:href="http://trips.ihmc.us/lexicon/data/ONT::ADD-INCLUDE.xml" xlink:title="&lt;font color=&quot;green&quot;&gt;&lt;br /&gt;&lt;/font&gt; &lt;font color=&quot;black&quot;&gt;ADD&#45;INCLUDE&lt;/font&gt; &lt;font color=&quot;green&quot;&gt;&lt;br /&gt;&lt;/font&gt; &lt;font color=&quot;red&quot;&gt;F&lt;/font&gt; &lt;font color=&quot;blue&quot;&gt;ADD&lt;/font&gt; &lt;font color=&quot;green&quot;&gt;&lt;br /&gt; &lt;/font&gt;">
<text text-anchor="start" x="44.56" y="-170.6" font-family="Work Sans" font-size="8.00"> </text>
<text text-anchor="start" x="46.78" y="-170.6" font-family="Work Sans" font-size="8.00">ADD&#45;INCLUDE</text>
<text text-anchor="start" x="101.45" y="-170.6" font-family="Work Sans" font-size="8.00"> </text>
<text text-anchor="start" x="59.89" y="-162.6" font-family="Work Sans" font-size="8.00"> </text>
<text text-anchor="start" x="62.12" y="-162.6" font-family="Work Sans" font-size="8.00" fill="red">F</text>
<text text-anchor="start" x="67" y="-162.6" font-family="Work Sans" font-size="8.00"> </text>
<text text-anchor="start" x="69.22" y="-162.6" font-family="Work Sans" font-size="8.00" fill="blue">ADD</text>
<text text-anchor="start" x="86.12" y="-162.6" font-family="Work Sans" font-size="8.00"> </text>
<text text-anchor="start" x="73" y="-154.6" font-family="Work Sans" font-size="8.00" fill="green"> </text>
</a>
</g>
</g>
<!-- V97403&#45;&gt;V97205 -->
<g id="edge3" class="edge">
<title>V97403&#45;&gt;V97205</title>
<path fill="none" stroke="grey" stroke-width="0.5" d="M74.12,-227.67C74.12,-216.58 74.12,-201.49 74.12,-189.38"/>
<polygon fill="grey" stroke="grey" stroke-width="0.5" points="75.87,-189.06 74.12,-184.06 72.37,-189.06 75.87,-189.06"/>
<text text-anchor="middle" x="97.82" y="-203.6" font-family="Work Sans" font-size="8.00"> CONTENT &#160;&#160;</text>
</g>
<!-- V97401 -->
<g id="node3" class="node">
<title>V97401</title>
<g id="a_node3"><a xlink:href="http://trips.ihmc.us/lexicon/data/ONT::PERSON.xml" xlink:title="&lt;font color=&quot;green&quot;&gt;&lt;br /&gt;&lt;/font&gt; &lt;font color=&quot;black&quot;&gt;PERSON&lt;/font&gt; &lt;font color=&quot;green&quot;&gt;&lt;br /&gt;&lt;/font&gt; &lt;font color=&quot;red&quot;&gt;IMPRO&lt;/font&gt; &lt;font color=&quot;blue&quot;&gt;* &lt;/font&gt; &lt;font color=&quot;green&quot;&gt;&lt;br /&gt; &lt;/font&gt;">
<polygon fill="pink" stroke="transparent" points="38.35,-108 -0.12,-108 -0.12,-76 38.35,-76 38.35,-108"/>
<text text-anchor="start" x="0" y="-94.6" font-family="Work Sans" font-size="8.00"> </text>
<text text-anchor="start" x="2.22" y="-94.6" font-family="Work Sans" font-size="8.00">PERSON</text>
<text text-anchor="start" x="36.01" y="-94.6" font-family="Work Sans" font-size="8.00"> </text>
<text text-anchor="start" x="0" y="-86.6" font-family="Work Sans" font-size="8.00"> </text>
<text text-anchor="start" x="2.22" y="-86.6" font-family="Work Sans" font-size="8.00" fill="red">IMPRO</text>
<text text-anchor="start" x="28.45" y="-86.6" font-family="Work Sans" font-size="8.00"> </text>
<text text-anchor="start" x="30.67" y="-86.6" font-family="Work Sans" font-size="8.00" fill="blue">* </text>
<text text-anchor="start" x="36.01" y="-86.6" font-family="Work Sans" font-size="8.00"> </text>
<text text-anchor="start" x="18" y="-78.6" font-family="Work Sans" font-size="8.00" fill="green"> </text>
</a>
</g>
</g>
<!-- V97205&#45;&gt;V97401 -->
<g id="edge5" class="edge">
<title>V97205&#45;&gt;V97401</title>
<path fill="none" stroke="grey" stroke-width="0.5" d="M44.36,-153.22C36.63,-148.23 29.12,-141.85 24.24,-134 20.45,-127.88 18.84,-120.25 18.29,-113.24"/>
<polygon fill="grey" stroke="grey" stroke-width="0.5" points="20.03,-112.95 18.05,-108.04 16.53,-113.11 20.03,-112.95"/>
<text text-anchor="middle" x="43.05" y="-127.6" font-family="Work Sans" font-size="8.00"> AGENT &#160;&#160;</text>
</g>
<!-- V97221 -->
<g id="node4" class="node">
<title>V97221</title>
<g id="a_node4"><a xlink:href="http://trips.ihmc.us/lexicon/data/ONT::FRUIT.xml" xlink:title="&lt;font color=&quot;green&quot;&gt;&lt;br /&gt;&lt;/font&gt; &lt;font color=&quot;black&quot;&gt;FRUIT&lt;/font&gt; &lt;font color=&quot;green&quot;&gt;&lt;br /&gt;&lt;/font&gt; &lt;font color=&quot;red&quot;&gt;A&lt;/font&gt; &lt;font color=&quot;blue&quot;&gt;APPLE&lt;/font&gt; &lt;font color=&quot;green&quot;&gt;&lt;br /&gt; &lt;/font&gt;">
<text text-anchor="start" x="67.12" y="-18.6" font-family="Work Sans" font-size="8.00"> </text>
<text text-anchor="start" x="69.34" y="-18.6" font-family="Work Sans" font-size="8.00">FRUIT</text>
<text text-anchor="start" x="92.89" y="-18.6" font-family="Work Sans" font-size="8.00"> </text>
<text text-anchor="start" x="62.22" y="-10.6" font-family="Work Sans" font-size="8.00"> </text>
<text text-anchor="start" x="64.44" y="-10.6" font-family="Work Sans" font-size="8.00" fill="red">A</text>
<text text-anchor="start" x="69.78" y="-10.6" font-family="Work Sans" font-size="8.00"> </text>
<text text-anchor="start" x="72" y="-10.6" font-family="Work Sans" font-size="8.00" fill="blue">APPLE</text>
<text text-anchor="start" x="97.79" y="-10.6" font-family="Work Sans" font-size="8.00"> </text>
<text text-anchor="start" x="80" y="-2.6" font-family="Work Sans" font-size="8.00" fill="green"> </text>
</a>
</g>
</g>
<!-- V97205&#45;&gt;V97221 -->
<g id="edge4" class="edge">
<title>V97205&#45;&gt;V97221</title>
<path fill="none" stroke="grey" stroke-width="0.5" d="M74.82,-151.79C76.09,-124.61 78.75,-67.71 80.17,-37.26"/>
<polygon fill="grey" stroke="grey" stroke-width="0.5" points="81.92,-37.32 80.4,-32.25 78.42,-37.16 81.92,-37.32"/>
<text text-anchor="middle" x="104.45" y="-89.6" font-family="Work Sans" font-size="8.00"> AFFECTED &#160;&#160;</text>
</g>
<!-- V97227 -->
<g id="node5" class="node">
<title>V97227</title>
<g id="a_node5"><a xlink:href="http://trips.ihmc.us/lexicon/data/ONT::TO-LOC.xml" xlink:title="&lt;font color=&quot;green&quot;&gt;&lt;br /&gt;&lt;/font&gt; &lt;font color=&quot;black&quot;&gt;TO&#45;LOC&lt;/font&gt; &lt;font color=&quot;green&quot;&gt;&lt;br /&gt;&lt;/font&gt; &lt;font color=&quot;red&quot;&gt;F&lt;/font&gt; &lt;font color=&quot;blue&quot;&gt;TO&lt;/font&gt; &lt;font color=&quot;green&quot;&gt;&lt;br /&gt; &lt;/font&gt;">
<polygon fill="pink" stroke="transparent" stroke-width="0.5" points="143.08,-76 160.12,-76 160.12,-108 143.08,-108 143.08,-76"/>
<polygon fill="lightblue" stroke="transparent" stroke-width="0.5" points="160.12,-76 177.15,-76 177.15,-108 160.12,-108 160.12,-76"/>
<polygon fill="none" stroke="transparent" points="177.15,-108 143.08,-108 143.08,-76 177.15,-76 177.15,-108"/>
<text text-anchor="start" x="142.85" y="-94.6" font-family="Work Sans" font-size="8.00"> </text>
<text text-anchor="start" x="145.07" y="-94.6" font-family="Work Sans" font-size="8.00">TO&#45;LOC</text>
<text text-anchor="start" x="175.16" y="-94.6" font-family="Work Sans" font-size="8.00"> </text>
<text text-anchor="start" x="148.85" y="-86.6" font-family="Work Sans" font-size="8.00"> </text>
<text text-anchor="start" x="151.08" y="-86.6" font-family="Work Sans" font-size="8.00" fill="red">F</text>
<text text-anchor="start" x="155.96" y="-86.6" font-family="Work Sans" font-size="8.00"> </text>
<text text-anchor="start" x="158.19" y="-86.6" font-family="Work Sans" font-size="8.00" fill="blue">TO</text>
<text text-anchor="start" x="169.15" y="-86.6" font-family="Work Sans" font-size="8.00"> </text>
<text text-anchor="start" x="159" y="-78.6" font-family="Work Sans" font-size="8.00" fill="green"> </text>
</a>
</g>
</g>
<!-- V97205&#45;&gt;V97227 -->
<g id="edge6" class="edge">
<title>V97205&#45;&gt;V97227</title>
<path fill="none" stroke="blue" stroke-width="0.5" d="M91.93,-151.67C105.61,-139.9 124.52,-123.63 138.96,-111.2"/>
<polygon fill="blue" stroke="blue" stroke-width="0.5" points="140.26,-112.4 142.91,-107.81 137.97,-109.74 140.26,-112.4"/>
<text text-anchor="middle" x="139.98" y="-127.6" font-family="Work Sans" font-size="8.00"> RESULT &#160;&#160;</text>
</g>
<!-- V97227&#45;&gt;V97221 -->
<g id="edge2" class="edge">
<title>V97227&#45;&gt;V97221</title>
<path fill="none" stroke="grey" stroke-width="0.5" d="M142.8,-76.48C136.2,-70.82 128.66,-64.21 122,-58 114.43,-50.94 106.34,-42.93 99.37,-35.88"/>
<polygon fill="grey" stroke="grey" stroke-width="0.5" points="100.37,-34.41 95.62,-32.07 97.88,-36.86 100.37,-34.41"/>
<text text-anchor="middle" x="141.67" y="-51.6" font-family="Work Sans" font-size="8.00"> FIGURE &#160;&#160;</text>
</g>
<!-- V97261 -->
<g id="node6" class="node">
<title>V97261</title>
<g id="a_node6"><a xlink:href="http://trips.ihmc.us/lexicon/data/ONT::COLUMN-FORMATION.xml" xlink:title="&lt;font color=&quot;green&quot;&gt;&lt;br /&gt;&lt;/font&gt; &lt;font color=&quot;black&quot;&gt;COLUMN&#45;FORMATION&lt;/font&gt; &lt;font color=&quot;green&quot;&gt;&lt;br /&gt;&lt;/font&gt; &lt;font color=&quot;red&quot;&gt;THE&lt;/font&gt; &lt;font color=&quot;blue&quot;&gt;PILE&lt;/font&gt; &lt;font color=&quot;green&quot;&gt;&lt;br /&gt; &lt;/font&gt;">
<polygon fill="pink" stroke="transparent" stroke-width="0.5" points="124.43,0 169.12,0 169.12,-32 124.43,-32 124.43,0"/>
<polygon fill="lightblue" stroke="transparent" stroke-width="0.5" points="169.12,0 213.8,0 213.8,-32 169.12,-32 169.12,0"/>
<polygon fill="none" stroke="transparent" points="213.8,-32 124.43,-32 124.43,0 213.8,0 213.8,-32"/>
<text text-anchor="start" x="124.52" y="-18.6" font-family="Work Sans" font-size="8.00"> </text>
<text text-anchor="start" x="126.75" y="-18.6" font-family="Work Sans" font-size="8.00">COLUMN&#45;FORMATION</text>
<text text-anchor="start" x="211.48" y="-18.6" font-family="Work Sans" font-size="8.00"> </text>
<text text-anchor="start" x="149.11" y="-10.6" font-family="Work Sans" font-size="8.00"> </text>
<text text-anchor="start" x="151.33" y="-10.6" font-family="Work Sans" font-size="8.00" fill="red">THE</text>
<text text-anchor="start" x="167.33" y="-10.6" font-family="Work Sans" font-size="8.00"> </text>
<text text-anchor="start" x="169.55" y="-10.6" font-family="Work Sans" font-size="8.00" fill="blue">PILE</text>
<text text-anchor="start" x="186.9" y="-10.6" font-family="Work Sans" font-size="8.00"> </text>
<text text-anchor="start" x="168" y="-2.6" font-family="Work Sans" font-size="8.00" fill="green"> </text>
</a>
</g>
</g>
<!-- V97227&#45;&gt;V97261 -->
<g id="edge1" class="edge">
<title>V97227&#45;&gt;V97261</title>
<path fill="none" stroke="grey" stroke-width="0.5" d="M161.98,-75.67C163.34,-64.48 165.2,-49.21 166.68,-37.06"/>
<polygon fill="grey" stroke="grey" stroke-width="0.5" points="168.42,-37.23 167.28,-32.06 164.94,-36.81 168.42,-37.23"/>
<text text-anchor="middle" x="187.34" y="-51.6" font-family="Work Sans" font-size="8.00"> GROUND &#160;&#160;</text>
</g>
</g>
</svg>
