<?xml version="1.0" encoding="UTF-8" standalone="no"?>
<!DOCTYPE svg PUBLIC "-//W3C//DTD SVG 1.1//EN"
 "http://www.w3.org/Graphics/SVG/1.1/DTD/svg11.dtd">
<!-- Generated by graphviz version 2.43.0 (0)
 -->
<!-- Title: graph Pages: 1 -->
<svg width="163pt" height="284pt"
 viewBox="0.00 0.00 162.79 284.00" xmlns="http://www.w3.org/2000/svg" xmlns:xlink="http://www.w3.org/1999/xlink">
<g id="graph0" class="graph" transform="scale(1 1) rotate(0) translate(4 280)">
<title>graph</title>
<polygon fill="white" stroke="transparent" points="-4,4 -4,-280 158.79,-280 158.79,4 -4,4"/>
<!-- V39468 -->
<g id="node1" class="node">
<title>V39468</title>
<g id="a_node1"><a xlink:href="http://trips.ihmc.us/lexicon/data/ONT::SA_TELL.xml" xlink:title="&lt;font color=&quot;green&quot;&gt;&lt;br /&gt;&lt;/font&gt; &lt;font color=&quot;black&quot;&gt;SA_TELL&lt;/font&gt; &lt;font color=&quot;green&quot;&gt;&lt;br /&gt;&lt;/font&gt; &lt;font color=&quot;red&quot;&gt;SPEECHACT&lt;/font&gt; &lt;font color=&quot;blue&quot;&gt;* &lt;/font&gt; &lt;font color=&quot;green&quot;&gt;&lt;br /&gt; &lt;/font&gt;">
<text text-anchor="start" x="36" y="-262.6" font-family="Work Sans" font-size="8.00"> </text>
<text text-anchor="start" x="38.22" y="-262.6" font-family="Work Sans" font-size="8.00">SA_TELL</text>
<text text-anchor="start" x="72.46" y="-262.6" font-family="Work Sans" font-size="8.00"> </text>
<text text-anchor="start" x="24.89" y="-254.6" font-family="Work Sans" font-size="8.00"> </text>
<text text-anchor="start" x="27.11" y="-254.6" font-family="Work Sans" font-size="8.00" fill="red">SPEECHACT</text>
<text text-anchor="start" x="76.01" y="-254.6" font-family="Work Sans" font-size="8.00"> </text>
<text text-anchor="start" x="78.23" y="-254.6" font-family="Work Sans" font-size="8.00" fill="blue">* </text>
<text text-anchor="start" x="83.57" y="-254.6" font-family="Work Sans" font-size="8.00"> </text>
<text text-anchor="start" x="54.23" y="-246.6" font-family="Work Sans" font-size="8.00" fill="green"> </text>
</a>
</g>
</g>
<!-- V39228 -->
<g id="node2" class="node">
<title>V39228</title>
<g id="a_node2"><a xlink:href="http://trips.ihmc.us/lexicon/data/ONT::JUMP.xml" xlink:title="&lt;font color=&quot;green&quot;&gt;&lt;br /&gt;&lt;/font&gt; &lt;font color=&quot;black&quot;&gt;JUMP&lt;/font&gt; &lt;font color=&quot;green&quot;&gt;&lt;br /&gt;&lt;/font&gt; &lt;font color=&quot;red&quot;&gt;F&lt;/font&gt; &lt;font color=&quot;blue&quot;&gt;JUMP&lt;/font&gt; &lt;font color=&quot;green&quot;&gt;&lt;br /&gt;&lt;/font&gt; &lt;font color=&quot;green&quot;&gt;jump%2:38:01::&lt;/font&gt; &lt;font color=&quot;green&quot;&gt;&lt;br /&gt; &lt;/font&gt;">
<text text-anchor="start" x="42.23" y="-186.6" font-family="Work Sans" font-size="8.00"> </text>
<text text-anchor="start" x="44.45" y="-186.6" font-family="Work Sans" font-size="8.00">JUMP</text>
<text text-anchor="start" x="66.23" y="-186.6" font-family="Work Sans" font-size="8.00"> </text>
<text text-anchor="start" x="38.67" y="-178.6" font-family="Work Sans" font-size="8.00"> </text>
<text text-anchor="start" x="40.9" y="-178.6" font-family="Work Sans" font-size="8.00" fill="red">F</text>
<text text-anchor="start" x="45.78" y="-178.6" font-family="Work Sans" font-size="8.00"> </text>
<text text-anchor="start" x="48.01" y="-178.6" font-family="Work Sans" font-size="8.00" fill="blue">JUMP</text>
<text text-anchor="start" x="69.78" y="-178.6" font-family="Work Sans" font-size="8.00"> </text>
<text text-anchor="start" x="25.32" y="-170.6" font-family="Work Sans" font-size="8.00"> </text>
<text text-anchor="start" x="27.54" y="-170.6" font-family="Work Sans" font-size="8.00" fill="green">jump%2:38:01::</text>
<text text-anchor="start" x="83.13" y="-170.6" font-family="Work Sans" font-size="8.00"> </text>
<text text-anchor="start" x="54.23" y="-162.6" font-family="Work Sans" font-size="8.00" fill="green"> </text>
</a>
</g>
</g>
<!-- V39468&#45;&gt;V39228 -->
<g id="edge3" class="edge">
<title>V39468&#45;&gt;V39228</title>
<path fill="none" stroke="grey" stroke-width="0.5" d="M55.34,-243.96C55.34,-233.04 55.34,-218.02 55.34,-205.39"/>
<polygon fill="grey" stroke="grey" stroke-width="0.5" points="57.09,-205.14 55.34,-200.14 53.59,-205.14 57.09,-205.14"/>
<text text-anchor="middle" x="79.05" y="-219.6" font-family="Work Sans" font-size="8.00"> CONTENT &#160;&#160;</text>
</g>
<!-- V39216 -->
<g id="node3" class="node">
<title>V39216</title>
<g id="a_node3"><a xlink:href="http://trips.ihmc.us/lexicon/data/ONT::MALE-PERSON.xml" xlink:title="&lt;font color=&quot;green&quot;&gt;&lt;br /&gt;&lt;/font&gt; &lt;font color=&quot;black&quot;&gt;MALE&#45;PERSON&lt;/font&gt; &lt;font color=&quot;green&quot;&gt;&lt;br /&gt;&lt;/font&gt; &lt;font color=&quot;red&quot;&gt;PRO&lt;/font&gt; &lt;font color=&quot;blue&quot;&gt;HE&lt;/font&gt; &lt;font color=&quot;green&quot;&gt;&lt;br /&gt;&lt;/font&gt; &lt;font color=&quot;green&quot;&gt;man%1:18:00&lt;/font&gt; &lt;font color=&quot;green&quot;&gt;&lt;br /&gt; &lt;/font&gt;">
<text text-anchor="start" x="0" y="-26.6" font-family="Work Sans" font-size="8.00"> </text>
<text text-anchor="start" x="2.22" y="-26.6" font-family="Work Sans" font-size="8.00">MALE&#45;PERSON</text>
<text text-anchor="start" x="60.46" y="-26.6" font-family="Work Sans" font-size="8.00"> </text>
<text text-anchor="start" x="13.78" y="-18.6" font-family="Work Sans" font-size="8.00"> </text>
<text text-anchor="start" x="16" y="-18.6" font-family="Work Sans" font-size="8.00" fill="red">PRO</text>
<text text-anchor="start" x="33.34" y="-18.6" font-family="Work Sans" font-size="8.00"> </text>
<text text-anchor="start" x="35.56" y="-18.6" font-family="Work Sans" font-size="8.00" fill="blue">HE</text>
<text text-anchor="start" x="46.68" y="-18.6" font-family="Work Sans" font-size="8.00"> </text>
<text text-anchor="start" x="4.43" y="-10.6" font-family="Work Sans" font-size="8.00"> </text>
<text text-anchor="start" x="6.66" y="-10.6" font-family="Work Sans" font-size="8.00" fill="green">man%1:18:00</text>
<text text-anchor="start" x="56.02" y="-10.6" font-family="Work Sans" font-size="8.00"> </text>
<text text-anchor="start" x="30.23" y="-2.6" font-family="Work Sans" font-size="8.00" fill="green"> </text>
</a>
</g>
</g>
<!-- V39228&#45;&gt;V39216 -->
<g id="edge5" class="edge">
<title>V39228&#45;&gt;V39216</title>
<path fill="none" stroke="grey" stroke-width="0.5" d="M51.41,-159.75C48.94,-147.3 45.8,-130.73 43.47,-116 39.7,-92.13 36.3,-64.74 34.07,-45.53"/>
<polygon fill="grey" stroke="grey" stroke-width="0.5" points="35.78,-45.1 33.47,-40.33 32.3,-45.5 35.78,-45.1"/>
<text text-anchor="middle" x="62.28" y="-97.6" font-family="Work Sans" font-size="8.00"> AGENT &#160;&#160;</text>
</g>
<!-- V39238 -->
<g id="node4" class="node">
<title>V39238</title>
<g id="a_node4"><a xlink:href="http://trips.ihmc.us/lexicon/data/ONT::IN-LOC.xml" xlink:title="&lt;font color=&quot;green&quot;&gt;&lt;br /&gt;&lt;/font&gt; &lt;font color=&quot;black&quot;&gt;IN&#45;LOC&lt;/font&gt; &lt;font color=&quot;green&quot;&gt;&lt;br /&gt;&lt;/font&gt; &lt;font color=&quot;red&quot;&gt;F&lt;/font&gt; &lt;font color=&quot;blue&quot;&gt;IN&lt;/font&gt; &lt;font color=&quot;green&quot;&gt;&lt;br /&gt; &lt;/font&gt;">
<polygon fill="pink" stroke="transparent" stroke-width="0.5" points="88.78,-84 104.34,-84 104.34,-116 88.78,-116 88.78,-84"/>
<polygon fill="lightblue" stroke="transparent" stroke-width="0.5" points="104.34,-84 119.9,-84 119.9,-116 104.34,-116 104.34,-84"/>
<polygon fill="none" stroke="transparent" points="119.9,-116 88.78,-116 88.78,-84 119.9,-84 119.9,-116"/>
<text text-anchor="start" x="88.56" y="-102.6" font-family="Work Sans" font-size="8.00"> </text>
<text text-anchor="start" x="90.78" y="-102.6" font-family="Work Sans" font-size="8.00">IN&#45;LOC</text>
<text text-anchor="start" x="117.9" y="-102.6" font-family="Work Sans" font-size="8.00"> </text>
<text text-anchor="start" x="94.56" y="-94.6" font-family="Work Sans" font-size="8.00"> </text>
<text text-anchor="start" x="96.79" y="-94.6" font-family="Work Sans" font-size="8.00" fill="red">F</text>
<text text-anchor="start" x="101.67" y="-94.6" font-family="Work Sans" font-size="8.00"> </text>
<text text-anchor="start" x="103.89" y="-94.6" font-family="Work Sans" font-size="8.00" fill="blue">IN</text>
<text text-anchor="start" x="111.89" y="-94.6" font-family="Work Sans" font-size="8.00"> </text>
<text text-anchor="start" x="103.23" y="-86.6" font-family="Work Sans" font-size="8.00" fill="green"> </text>
</a>
</g>
</g>
<!-- V39228&#45;&gt;V39238 -->
<g id="edge1" class="edge">
<title>V39228&#45;&gt;V39238</title>
<path fill="none" stroke="red" d="M52.14,-159.61C51.68,-151.27 52.44,-141.69 56.62,-134 62.53,-123.1 73.8,-115.05 83.9,-109.63"/>
<polygon fill="red" stroke="red" points="84.77,-111.15 88.44,-107.32 83.19,-108.03 84.77,-111.15"/>
<text text-anchor="middle" x="77.2" y="-135.6" font-family="Work Sans" font-size="8.00"> RESULT &#160;&#160;</text>
</g>
<!-- V39228&#45;&gt;V39238 -->
<g id="edge4" class="edge">
<title>V39228&#45;&gt;V39238</title>
<path fill="none" stroke="blue" d="M81.9,-159.65C87.41,-154.49 92.66,-148.51 96.34,-142 99.87,-135.76 101.86,-128.23 102.99,-121.34"/>
<polygon fill="blue" stroke="blue" points="104.74,-121.41 103.68,-116.22 101.27,-120.93 104.74,-121.41"/>
<text text-anchor="middle" x="100.45" y="-135.6" font-family="Work Sans" font-size="8.00">.</text>
</g>
<!-- V39238&#45;&gt;V39216 -->
<g id="edge2" class="edge">
<title>V39238&#45;&gt;V39216</title>
<path fill="none" stroke="grey" stroke-width="0.5" d="M88.5,-86.49C81.4,-80.58 73.09,-73.24 66.23,-66 59.92,-59.34 53.61,-51.6 48.11,-44.44"/>
<polygon fill="grey" stroke="grey" stroke-width="0.5" points="49.22,-43 44.81,-40.07 46.43,-45.11 49.22,-43"/>
<text text-anchor="middle" x="85.9" y="-59.6" font-family="Work Sans" font-size="8.00"> FIGURE &#160;&#160;</text>
</g>
<!-- V39300 -->
<g id="node5" class="node">
<title>V39300</title>
<g id="a_node5"><a xlink:href="http://trips.ihmc.us/lexicon/data/ONT::HOLE.xml" xlink:title="&lt;font color=&quot;green&quot;&gt;&lt;br /&gt;&lt;/font&gt; &lt;font color=&quot;black&quot;&gt;HOLE&lt;/font&gt; &lt;font color=&quot;green&quot;&gt;&lt;br /&gt;&lt;/font&gt; &lt;font color=&quot;red&quot;&gt;A&lt;/font&gt; &lt;font color=&quot;blue&quot;&gt;HOLE&lt;/font&gt; &lt;font color=&quot;green&quot;&gt;&lt;br /&gt;&lt;/font&gt; &lt;font color=&quot;green&quot;&gt;hole%1:17:02::&lt;/font&gt; &lt;font color=&quot;green&quot;&gt;&lt;br /&gt; &lt;/font&gt;">
<polygon fill="pink" stroke="transparent" stroke-width="0.5" points="88.52,0 117.34,0 117.34,-40 88.52,-40 88.52,0"/>
<polygon fill="lightblue" stroke="transparent" stroke-width="0.5" points="117.34,0 146.16,0 146.16,-40 117.34,-40 117.34,0"/>
<polygon fill="none" stroke="transparent" points="146.16,-40 88.52,-40 88.52,0 146.16,0 146.16,-40"/>
<text text-anchor="start" x="104.22" y="-26.6" font-family="Work Sans" font-size="8.00"> </text>
<text text-anchor="start" x="106.45" y="-26.6" font-family="Work Sans" font-size="8.00">HOLE</text>
<text text-anchor="start" x="128.23" y="-26.6" font-family="Work Sans" font-size="8.00"> </text>
<text text-anchor="start" x="100.45" y="-18.6" font-family="Work Sans" font-size="8.00"> </text>
<text text-anchor="start" x="102.67" y="-18.6" font-family="Work Sans" font-size="8.00" fill="red">A</text>
<text text-anchor="start" x="108" y="-18.6" font-family="Work Sans" font-size="8.00"> </text>
<text text-anchor="start" x="110.23" y="-18.6" font-family="Work Sans" font-size="8.00" fill="blue">HOLE</text>
<text text-anchor="start" x="132.01" y="-18.6" font-family="Work Sans" font-size="8.00"> </text>
<text text-anchor="start" x="88.43" y="-10.6" font-family="Work Sans" font-size="8.00"> </text>
<text text-anchor="start" x="90.65" y="-10.6" font-family="Work Sans" font-size="8.00" fill="green">hole%1:17:02::</text>
<text text-anchor="start" x="144.03" y="-10.6" font-family="Work Sans" font-size="8.00"> </text>
<text text-anchor="start" x="116.23" y="-2.6" font-family="Work Sans" font-size="8.00" fill="green"> </text>
</a>
</g>
</g>
<!-- V39238&#45;&gt;V39300 -->
<g id="edge6" class="edge">
<title>V39238&#45;&gt;V39300</title>
<path fill="none" stroke="grey" stroke-width="0.5" d="M106.85,-83.96C108.67,-73.04 111.17,-58.02 113.27,-45.39"/>
<polygon fill="grey" stroke="grey" stroke-width="0.5" points="115.05,-45.36 114.15,-40.14 111.6,-44.79 115.05,-45.36"/>
<text text-anchor="middle" x="132.56" y="-59.6" font-family="Work Sans" font-size="8.00"> GROUND &#160;&#160;</text>
</g>
</g>
</svg>
