<?xml version="1.0" encoding="UTF-8" standalone="no"?>
<!DOCTYPE svg PUBLIC "-//W3C//DTD SVG 1.1//EN"
 "http://www.w3.org/Graphics/SVG/1.1/DTD/svg11.dtd">
<!-- Generated by graphviz version 2.43.0 (0)
 -->
<!-- Title: graph Pages: 1 -->
<svg width="354pt" height="284pt"
 viewBox="0.00 0.00 354.13 284.00" xmlns="http://www.w3.org/2000/svg" xmlns:xlink="http://www.w3.org/1999/xlink">
<g id="graph0" class="graph" transform="scale(1 1) rotate(0) translate(4 280)">
<title>graph</title>
<polygon fill="white" stroke="transparent" points="-4,4 -4,-280 350.13,-280 350.13,4 -4,4"/>
<!-- V70796 -->
<g id="node1" class="node">
<title>V70796</title>
<g id="a_node1"><a xlink:href="http://trips.ihmc.us/lexicon/data/ONT::SA_WH-QUESTION.xml" xlink:title="&lt;font color=&quot;green&quot;&gt;&lt;br /&gt;&lt;/font&gt; &lt;font color=&quot;black&quot;&gt;SA_WH&#45;QUESTION&lt;/font&gt; &lt;font color=&quot;green&quot;&gt;&lt;br /&gt;&lt;/font&gt; &lt;font color=&quot;red&quot;&gt;SPEECHACT&lt;/font&gt; &lt;font color=&quot;blue&quot;&gt;* &lt;/font&gt; &lt;font color=&quot;green&quot;&gt;&lt;br /&gt; &lt;/font&gt;">
<text text-anchor="start" x="219.35" y="-262.6" font-family="Work Sans" font-size="8.00"> </text>
<text text-anchor="start" x="221.57" y="-262.6" font-family="Work Sans" font-size="8.00">SA_WH&#45;QUESTION</text>
<text text-anchor="start" x="294.47" y="-262.6" font-family="Work Sans" font-size="8.00"> </text>
<text text-anchor="start" x="227.57" y="-254.6" font-family="Work Sans" font-size="8.00"> </text>
<text text-anchor="start" x="229.79" y="-254.6" font-family="Work Sans" font-size="8.00" fill="red">SPEECHACT</text>
<text text-anchor="start" x="278.69" y="-254.6" font-family="Work Sans" font-size="8.00"> </text>
<text text-anchor="start" x="280.91" y="-254.6" font-family="Work Sans" font-size="8.00" fill="blue">* </text>
<text text-anchor="start" x="286.25" y="-254.6" font-family="Work Sans" font-size="8.00"> </text>
<text text-anchor="start" x="256.91" y="-246.6" font-family="Work Sans" font-size="8.00" fill="green"> </text>
</a>
</g>
</g>
<!-- V70330 -->
<g id="node2" class="node">
<title>V70330</title>
<g id="a_node2"><a xlink:href="http://trips.ihmc.us/lexicon/data/ONT::BECOME.xml" xlink:title="&lt;font color=&quot;green&quot;&gt;&lt;br /&gt;&lt;/font&gt; &lt;font color=&quot;black&quot;&gt;BECOME&lt;/font&gt; &lt;font color=&quot;green&quot;&gt;&lt;br /&gt;&lt;/font&gt; &lt;font color=&quot;red&quot;&gt;F&lt;/font&gt; &lt;font color=&quot;blue&quot;&gt;GO&lt;/font&gt; &lt;font color=&quot;green&quot;&gt;&lt;br /&gt; &lt;/font&gt;">
<polygon fill="pink" stroke="transparent" points="136.64,-196 97.4,-196 97.4,-164 136.64,-164 136.64,-196"/>
<text text-anchor="start" x="97.46" y="-182.6" font-family="Work Sans" font-size="8.00"> </text>
<text text-anchor="start" x="99.69" y="-182.6" font-family="Work Sans" font-size="8.00">BECOME</text>
<text text-anchor="start" x="134.36" y="-182.6" font-family="Work Sans" font-size="8.00"> </text>
<text text-anchor="start" x="105.02" y="-174.6" font-family="Work Sans" font-size="8.00"> </text>
<text text-anchor="start" x="107.24" y="-174.6" font-family="Work Sans" font-size="8.00" fill="red">F</text>
<text text-anchor="start" x="112.13" y="-174.6" font-family="Work Sans" font-size="8.00"> </text>
<text text-anchor="start" x="114.35" y="-174.6" font-family="Work Sans" font-size="8.00" fill="blue">GO</text>
<text text-anchor="start" x="126.8" y="-174.6" font-family="Work Sans" font-size="8.00"> </text>
<text text-anchor="start" x="115.91" y="-166.6" font-family="Work Sans" font-size="8.00" fill="green"> </text>
</a>
</g>
</g>
<!-- V70796&#45;&gt;V70330 -->
<g id="edge1" class="edge">
<title>V70796&#45;&gt;V70330</title>
<path fill="none" stroke="grey" stroke-width="0.5" d="M219.06,-244.29C206.51,-239.06 192.72,-232.77 180.61,-226 166.62,-218.19 151.97,-207.97 140.25,-199.25"/>
<polygon fill="grey" stroke="grey" stroke-width="0.5" points="141.13,-197.71 136.08,-196.11 139.02,-200.51 141.13,-197.71"/>
<text text-anchor="middle" x="204.73" y="-219.6" font-family="Work Sans" font-size="8.00"> CONTENT &#160;&#160;</text>
</g>
<!-- V70373 -->
<g id="node4" class="node">
<title>V70373</title>
<g id="a_node4"><a xlink:href="http://trips.ihmc.us/lexicon/data/ONT::STATUS.xml" xlink:title="&lt;font color=&quot;green&quot;&gt;&lt;br /&gt;&lt;/font&gt; &lt;font color=&quot;black&quot;&gt;STATUS&lt;/font&gt; &lt;font color=&quot;green&quot;&gt;&lt;br /&gt;&lt;/font&gt; &lt;font color=&quot;red&quot;&gt;WH&#45;TERM&lt;/font&gt; &lt;font color=&quot;blue&quot;&gt;* &lt;/font&gt; &lt;font color=&quot;green&quot;&gt;&lt;br /&gt; &lt;/font&gt;">
<polygon fill="pink" stroke="transparent" points="200.18,-36 149.86,-36 149.86,-4 200.18,-4 200.18,-36"/>
<text text-anchor="start" x="157.61" y="-22.6" font-family="Work Sans" font-size="8.00"> </text>
<text text-anchor="start" x="159.83" y="-22.6" font-family="Work Sans" font-size="8.00">STATUS</text>
<text text-anchor="start" x="190.21" y="-22.6" font-family="Work Sans" font-size="8.00"> </text>
<text text-anchor="start" x="149.69" y="-14.6" font-family="Work Sans" font-size="8.00"> </text>
<text text-anchor="start" x="151.91" y="-14.6" font-family="Work Sans" font-size="8.00" fill="red">WH&#45;TERM</text>
<text text-anchor="start" x="190.57" y="-14.6" font-family="Work Sans" font-size="8.00"> </text>
<text text-anchor="start" x="192.79" y="-14.6" font-family="Work Sans" font-size="8.00" fill="blue">* </text>
<text text-anchor="start" x="198.13" y="-14.6" font-family="Work Sans" font-size="8.00"> </text>
<text text-anchor="start" x="173.91" y="-6.6" font-family="Work Sans" font-size="8.00" fill="green"> </text>
</a>
</g>
</g>
<!-- V70796&#45;&gt;V70373 -->
<g id="edge8" class="edge">
<title>V70796&#45;&gt;V70373</title>
<path fill="none" stroke="grey" stroke-width="0.5" d="M257.83,-243.78C256.78,-208.69 250.51,-120.33 215.02,-58 211.22,-51.32 205.8,-45.15 200.18,-39.85"/>
<polygon fill="grey" stroke="grey" stroke-width="0.5" points="201.15,-38.37 196.27,-36.32 198.8,-40.97 201.15,-38.37"/>
<text text-anchor="middle" x="264.47" y="-135.6" font-family="Work Sans" font-size="8.00"> FOCUS &#160;&#160;</text>
</g>
<!-- V70350 -->
<g id="node6" class="node">
<title>V70350</title>
<g id="a_node6"><a xlink:href="http://trips.ihmc.us/lexicon/data/ONT::AGAIN.xml" xlink:title="&lt;font color=&quot;green&quot;&gt;&lt;br /&gt;&lt;/font&gt; &lt;font color=&quot;black&quot;&gt;AGAIN&lt;/font&gt; &lt;font color=&quot;green&quot;&gt;&lt;br /&gt;&lt;/font&gt; &lt;font color=&quot;red&quot;&gt;F&lt;/font&gt; &lt;font color=&quot;blue&quot;&gt;AGAIN&lt;/font&gt; &lt;font color=&quot;green&quot;&gt;&lt;br /&gt;&lt;/font&gt; &lt;font color=&quot;green&quot;&gt;again%4:02:00::&lt;/font&gt; &lt;font color=&quot;green&quot;&gt;&lt;br /&gt; &lt;/font&gt;">
<text text-anchor="start" x="298.35" y="-186.6" font-family="Work Sans" font-size="8.00"> </text>
<text text-anchor="start" x="300.57" y="-186.6" font-family="Work Sans" font-size="8.00">AGAIN</text>
<text text-anchor="start" x="325.47" y="-186.6" font-family="Work Sans" font-size="8.00"> </text>
<text text-anchor="start" x="294.8" y="-178.6" font-family="Work Sans" font-size="8.00"> </text>
<text text-anchor="start" x="297.02" y="-178.6" font-family="Work Sans" font-size="8.00" fill="red">F</text>
<text text-anchor="start" x="301.91" y="-178.6" font-family="Work Sans" font-size="8.00"> </text>
<text text-anchor="start" x="304.13" y="-178.6" font-family="Work Sans" font-size="8.00" fill="blue">AGAIN</text>
<text text-anchor="start" x="329.02" y="-178.6" font-family="Work Sans" font-size="8.00"> </text>
<text text-anchor="start" x="281.89" y="-170.6" font-family="Work Sans" font-size="8.00"> </text>
<text text-anchor="start" x="284.11" y="-170.6" font-family="Work Sans" font-size="8.00" fill="green">again%4:02:00::</text>
<text text-anchor="start" x="341.93" y="-170.6" font-family="Work Sans" font-size="8.00"> </text>
<text text-anchor="start" x="311.91" y="-162.6" font-family="Work Sans" font-size="8.00" fill="green"> </text>
</a>
</g>
</g>
<!-- V70796&#45;&gt;V70350 -->
<g id="edge9" class="edge">
<title>V70796&#45;&gt;V70350</title>
<path fill="none" stroke="red" stroke-width="0.5" d="M261.46,-243.76C263.75,-235.67 267.3,-225.8 272.47,-218 275.84,-212.91 280.06,-208.05 284.5,-203.62"/>
<polygon fill="red" stroke="red" stroke-width="0.5" points="285.87,-204.74 288.26,-200.01 283.44,-202.21 285.87,-204.74"/>
<text text-anchor="middle" x="286.8" y="-219.6" font-family="Work Sans" font-size="8.00"> MOD &#160;&#160;</text>
</g>
<!-- V70289 -->
<g id="node3" class="node">
<title>V70289</title>
<g id="a_node3"><a xlink:href="http://trips.ihmc.us/lexicon/data/ONT::AT-SCALE-VALUE.xml" xlink:title="&lt;font color=&quot;green&quot;&gt;&lt;br /&gt;&lt;/font&gt; &lt;font color=&quot;black&quot;&gt;AT&#45;SCALE&#45;VALUE&lt;/font&gt; &lt;font color=&quot;green&quot;&gt;&lt;br /&gt;&lt;/font&gt; &lt;font color=&quot;red&quot;&gt;F&lt;/font&gt; &lt;font color=&quot;blue&quot;&gt;HOW&lt;/font&gt; &lt;font color=&quot;green&quot;&gt;&lt;br /&gt; &lt;/font&gt;">
<polygon fill="pink" stroke="transparent" points="152.37,-116 81.67,-116 81.67,-84 152.37,-84 152.37,-116"/>
<text text-anchor="start" x="81.6" y="-102.6" font-family="Work Sans" font-size="8.00"> </text>
<text text-anchor="start" x="83.82" y="-102.6" font-family="Work Sans" font-size="8.00">AT&#45;SCALE&#45;VALUE</text>
<text text-anchor="start" x="150.22" y="-102.6" font-family="Work Sans" font-size="8.00"> </text>
<text text-anchor="start" x="101.47" y="-94.6" font-family="Work Sans" font-size="8.00"> </text>
<text text-anchor="start" x="103.69" y="-94.6" font-family="Work Sans" font-size="8.00" fill="red">F</text>
<text text-anchor="start" x="108.58" y="-94.6" font-family="Work Sans" font-size="8.00"> </text>
<text text-anchor="start" x="110.8" y="-94.6" font-family="Work Sans" font-size="8.00" fill="blue">HOW</text>
<text text-anchor="start" x="130.35" y="-94.6" font-family="Work Sans" font-size="8.00"> </text>
<text text-anchor="start" x="115.91" y="-86.6" font-family="Work Sans" font-size="8.00" fill="green"> </text>
</a>
</g>
</g>
<!-- V70330&#45;&gt;V70289 -->
<g id="edge3" class="edge">
<title>V70330&#45;&gt;V70289</title>
<path fill="none" stroke="red" stroke-width="0.5" d="M117.02,-163.96C117.02,-151.85 117.02,-134.69 117.02,-121.35"/>
<polygon fill="red" stroke="red" stroke-width="0.5" points="118.77,-121.26 117.02,-116.26 115.27,-121.26 118.77,-121.26"/>
<text text-anchor="middle" x="137.99" y="-135.6" font-family="Work Sans" font-size="8.00"> FORMAL &#160;&#160;</text>
</g>
<!-- V70312 -->
<g id="node5" class="node">
<title>V70312</title>
<g id="a_node5"><a xlink:href="http://trips.ihmc.us/lexicon/data/ONT::MUSIC.xml" xlink:title="&lt;font color=&quot;green&quot;&gt;&lt;br /&gt;&lt;/font&gt; &lt;font color=&quot;black&quot;&gt;MUSIC&lt;/font&gt; &lt;font color=&quot;green&quot;&gt;&lt;br /&gt;&lt;/font&gt; &lt;font color=&quot;red&quot;&gt;THE&lt;/font&gt; &lt;font color=&quot;blue&quot;&gt;SONG&lt;/font&gt; &lt;font color=&quot;green&quot;&gt;&lt;br /&gt;&lt;/font&gt; &lt;font color=&quot;green&quot;&gt;song%1:10:00::&lt;/font&gt; &lt;font color=&quot;green&quot;&gt;&lt;br /&gt; &lt;/font&gt;">
<text text-anchor="start" x="14.91" y="-26.6" font-family="Work Sans" font-size="8.00"> </text>
<text text-anchor="start" x="17.13" y="-26.6" font-family="Work Sans" font-size="8.00">MUSIC</text>
<text text-anchor="start" x="42.91" y="-26.6" font-family="Work Sans" font-size="8.00"> </text>
<text text-anchor="start" x="6.91" y="-18.6" font-family="Work Sans" font-size="8.00"> </text>
<text text-anchor="start" x="9.13" y="-18.6" font-family="Work Sans" font-size="8.00" fill="red">THE</text>
<text text-anchor="start" x="25.13" y="-18.6" font-family="Work Sans" font-size="8.00"> </text>
<text text-anchor="start" x="27.35" y="-18.6" font-family="Work Sans" font-size="8.00" fill="blue">SONG</text>
<text text-anchor="start" x="50.91" y="-18.6" font-family="Work Sans" font-size="8.00"> </text>
<text text-anchor="start" x="0" y="-10.6" font-family="Work Sans" font-size="8.00"> </text>
<text text-anchor="start" x="2.22" y="-10.6" font-family="Work Sans" font-size="8.00" fill="green">song%1:10:00::</text>
<text text-anchor="start" x="57.82" y="-10.6" font-family="Work Sans" font-size="8.00"> </text>
<text text-anchor="start" x="28.91" y="-2.6" font-family="Work Sans" font-size="8.00" fill="green"> </text>
</a>
</g>
</g>
<!-- V70330&#45;&gt;V70312 -->
<g id="edge7" class="edge">
<title>V70330&#45;&gt;V70312</title>
<path fill="none" stroke="red" stroke-width="0.5" d="M97.11,-172.31C74.32,-163.45 38.1,-145.41 22.35,-116 10.6,-94.08 15.29,-65.16 21.17,-45.01"/>
<polygon fill="red" stroke="red" stroke-width="0.5" points="22.88,-45.38 22.68,-40.09 19.54,-44.36 22.88,-45.38"/>
<text text-anchor="middle" x="48.36" y="-97.6" font-family="Work Sans" font-size="8.00"> AFFECTED &#160;&#160;</text>
</g>
<!-- V70289&#45;&gt;V70373 -->
<g id="edge6" class="edge">
<title>V70289&#45;&gt;V70373</title>
<path fill="none" stroke="grey" stroke-width="0.5" d="M106.7,-83.84C102.58,-75.76 99.81,-65.89 104.58,-58 113.37,-43.45 129.99,-34.34 144.88,-28.8"/>
<polygon fill="grey" stroke="grey" stroke-width="0.5" points="145.71,-30.36 149.85,-27.05 144.56,-27.06 145.71,-30.36"/>
<text text-anchor="middle" x="127.24" y="-59.6" font-family="Work Sans" font-size="8.00"> GROUND &#160;&#160;</text>
</g>
<!-- V70289&#45;&gt;V70312 -->
<g id="edge4" class="edge">
<title>V70289&#45;&gt;V70312</title>
<path fill="none" stroke="grey" stroke-width="0.5" d="M85,-83.93C76.3,-78.96 67.25,-72.9 59.91,-66 53.46,-59.94 47.7,-52.23 43,-44.91"/>
<polygon fill="grey" stroke="grey" stroke-width="0.5" points="44.34,-43.75 40.21,-40.42 41.36,-45.59 44.34,-43.75"/>
<text text-anchor="middle" x="79.58" y="-59.6" font-family="Work Sans" font-size="8.00"> FIGURE &#160;&#160;</text>
</g>
<!-- V70373&#45;&gt;V70289 -->
<g id="edge2" class="edge">
<title>V70373&#45;&gt;V70289</title>
<path fill="none" stroke="grey" stroke-width="0.5" d="M169.2,-36.39C165.36,-45.48 159.79,-56.94 153.02,-66 149.29,-70.99 144.74,-75.83 140.15,-80.2"/>
<polygon fill="grey" stroke="grey" stroke-width="0.5" points="138.78,-79.07 136.29,-83.75 141.16,-81.65 138.78,-79.07"/>
<text text-anchor="middle" x="184.88" y="-59.6" font-family="Work Sans" font-size="8.00"> SUCHTHAT &#160;&#160;</text>
</g>
<!-- V70350&#45;&gt;V70796 -->
<g id="edge5" class="edge">
<title>V70350&#45;&gt;V70796</title>
<path fill="none" stroke="grey" stroke-width="0.5" d="M312.33,-200.13C311.27,-208.61 308.95,-218.37 304.02,-226 300.45,-231.53 295.61,-236.42 290.4,-240.63"/>
<polygon fill="grey" stroke="grey" stroke-width="0.5" points="289.26,-239.3 286.35,-243.72 291.39,-242.08 289.26,-239.3"/>
<text text-anchor="middle" x="326.58" y="-219.6" font-family="Work Sans" font-size="8.00"> FIGURE &#160;&#160;</text>
</g>
</g>
</svg>
