<?xml version="1.0" encoding="UTF-8" standalone="no"?>
<!DOCTYPE svg PUBLIC "-//W3C//DTD SVG 1.1//EN"
 "http://www.w3.org/Graphics/SVG/1.1/DTD/svg11.dtd">
<!-- Generated by graphviz version 2.43.0 (0)
 -->
<!-- Title: graph Pages: 1 -->
<svg width="234pt" height="276pt"
 viewBox="0.00 0.00 233.53 276.00" xmlns="http://www.w3.org/2000/svg" xmlns:xlink="http://www.w3.org/1999/xlink">
<g id="graph0" class="graph" transform="scale(1 1) rotate(0) translate(4 272)">
<title>graph</title>
<polygon fill="white" stroke="transparent" points="-4,4 -4,-272 229.53,-272 229.53,4 -4,4"/>
<!-- V75720 -->
<g id="node1" class="node">
<title>V75720</title>
<g id="a_node1"><a xlink:href="http://trips.ihmc.us/lexicon/data/ONT::SA_WH-QUESTION.xml" xlink:title="&lt;font color=&quot;green&quot;&gt;&lt;br /&gt;&lt;/font&gt; &lt;font color=&quot;black&quot;&gt;SA_WH&#45;QUESTION&lt;/font&gt; &lt;font color=&quot;green&quot;&gt;&lt;br /&gt;&lt;/font&gt; &lt;font color=&quot;red&quot;&gt;SPEECHACT&lt;/font&gt; &lt;font color=&quot;blue&quot;&gt;* &lt;/font&gt; &lt;font color=&quot;green&quot;&gt;&lt;br /&gt; &lt;/font&gt;">
<text text-anchor="start" x="88.96" y="-254.6" font-family="Work Sans" font-size="8.00"> </text>
<text text-anchor="start" x="91.19" y="-254.6" font-family="Work Sans" font-size="8.00">SA_WH&#45;QUESTION</text>
<text text-anchor="start" x="164.08" y="-254.6" font-family="Work Sans" font-size="8.00"> </text>
<text text-anchor="start" x="97.18" y="-246.6" font-family="Work Sans" font-size="8.00"> </text>
<text text-anchor="start" x="99.41" y="-246.6" font-family="Work Sans" font-size="8.00" fill="red">SPEECHACT</text>
<text text-anchor="start" x="148.3" y="-246.6" font-family="Work Sans" font-size="8.00"> </text>
<text text-anchor="start" x="150.53" y="-246.6" font-family="Work Sans" font-size="8.00" fill="blue">* </text>
<text text-anchor="start" x="155.86" y="-246.6" font-family="Work Sans" font-size="8.00"> </text>
<text text-anchor="start" x="126.52" y="-238.6" font-family="Work Sans" font-size="8.00" fill="green"> </text>
</a>
</g>
</g>
<!-- V75345 -->
<g id="node2" class="node">
<title>V75345</title>
<g id="a_node2"><a xlink:href="http://trips.ihmc.us/lexicon/data/ONT::OCCURRING.xml" xlink:title="&lt;font color=&quot;green&quot;&gt;&lt;br /&gt;&lt;/font&gt; &lt;font color=&quot;black&quot;&gt;OCCURRING&lt;/font&gt; &lt;font color=&quot;green&quot;&gt;&lt;br /&gt;&lt;/font&gt; &lt;font color=&quot;red&quot;&gt;F&lt;/font&gt; &lt;font color=&quot;blue&quot;&gt;GO&lt;/font&gt; &lt;font color=&quot;green&quot;&gt;&lt;br /&gt;&lt;/font&gt; &lt;font color=&quot;green&quot;&gt;go%2:30:01::&lt;/font&gt; &lt;font color=&quot;green&quot;&gt;&lt;br /&gt; &lt;/font&gt;">
<polygon fill="pink" stroke="transparent" points="104.41,-192 50.86,-192 50.86,-152 104.41,-152 104.41,-192"/>
<text text-anchor="start" x="50.75" y="-178.6" font-family="Work Sans" font-size="8.00"> </text>
<text text-anchor="start" x="52.97" y="-178.6" font-family="Work Sans" font-size="8.00">OCCURRING</text>
<text text-anchor="start" x="102.3" y="-178.6" font-family="Work Sans" font-size="8.00"> </text>
<text text-anchor="start" x="65.63" y="-170.6" font-family="Work Sans" font-size="8.00"> </text>
<text text-anchor="start" x="67.86" y="-170.6" font-family="Work Sans" font-size="8.00" fill="red">F</text>
<text text-anchor="start" x="72.74" y="-170.6" font-family="Work Sans" font-size="8.00"> </text>
<text text-anchor="start" x="74.97" y="-170.6" font-family="Work Sans" font-size="8.00" fill="blue">GO</text>
<text text-anchor="start" x="87.41" y="-170.6" font-family="Work Sans" font-size="8.00"> </text>
<text text-anchor="start" x="51.84" y="-162.6" font-family="Work Sans" font-size="8.00"> </text>
<text text-anchor="start" x="54.06" y="-162.6" font-family="Work Sans" font-size="8.00" fill="green">go%2:30:01::</text>
<text text-anchor="start" x="101.21" y="-162.6" font-family="Work Sans" font-size="8.00"> </text>
<text text-anchor="start" x="76.52" y="-154.6" font-family="Work Sans" font-size="8.00" fill="green"> </text>
</a>
</g>
</g>
<!-- V75720&#45;&gt;V75345 -->
<g id="edge6" class="edge">
<title>V75720&#45;&gt;V75345</title>
<path fill="none" stroke="grey" stroke-width="0.5" d="M117.99,-235.96C110.8,-224.74 100.85,-209.21 92.62,-196.38"/>
<polygon fill="grey" stroke="grey" stroke-width="0.5" points="94.08,-195.41 89.91,-192.14 91.13,-197.3 94.08,-195.41"/>
<text text-anchor="middle" x="128.34" y="-211.6" font-family="Work Sans" font-size="8.00"> CONTENT &#160;&#160;</text>
</g>
<!-- V75389 -->
<g id="node4" class="node">
<title>V75389</title>
<g id="a_node4"><a xlink:href="http://trips.ihmc.us/lexicon/data/ONT::METHOD.xml" xlink:title="&lt;font color=&quot;green&quot;&gt;&lt;br /&gt;&lt;/font&gt; &lt;font color=&quot;black&quot;&gt;METHOD&lt;/font&gt; &lt;font color=&quot;green&quot;&gt;&lt;br /&gt;&lt;/font&gt; &lt;font color=&quot;red&quot;&gt;WH&#45;TERM&lt;/font&gt; &lt;font color=&quot;blue&quot;&gt;* &lt;/font&gt; &lt;font color=&quot;green&quot;&gt;&lt;br /&gt; &lt;/font&gt;">
<polygon fill="pink" stroke="transparent" points="121.8,-32 71.47,-32 71.47,0 121.8,0 121.8,-32"/>
<text text-anchor="start" x="77.08" y="-18.6" font-family="Work Sans" font-size="8.00"> </text>
<text text-anchor="start" x="79.3" y="-18.6" font-family="Work Sans" font-size="8.00">METHOD</text>
<text text-anchor="start" x="113.97" y="-18.6" font-family="Work Sans" font-size="8.00"> </text>
<text text-anchor="start" x="71.3" y="-10.6" font-family="Work Sans" font-size="8.00"> </text>
<text text-anchor="start" x="73.53" y="-10.6" font-family="Work Sans" font-size="8.00" fill="red">WH&#45;TERM</text>
<text text-anchor="start" x="112.18" y="-10.6" font-family="Work Sans" font-size="8.00"> </text>
<text text-anchor="start" x="114.41" y="-10.6" font-family="Work Sans" font-size="8.00" fill="blue">* </text>
<text text-anchor="start" x="119.74" y="-10.6" font-family="Work Sans" font-size="8.00"> </text>
<text text-anchor="start" x="95.52" y="-2.6" font-family="Work Sans" font-size="8.00" fill="green"> </text>
</a>
</g>
</g>
<!-- V75720&#45;&gt;V75389 -->
<g id="edge1" class="edge">
<title>V75720&#45;&gt;V75389</title>
<path fill="none" stroke="grey" stroke-width="0.5" d="M143.45,-235.75C148.04,-230.53 152.62,-224.38 155.63,-218 182.88,-160.38 204.2,-132.98 175.63,-76 165.38,-55.54 144.3,-40.36 126.49,-30.53"/>
<polygon fill="grey" stroke="grey" stroke-width="0.5" points="127.27,-28.96 122.04,-28.14 125.62,-32.05 127.27,-28.96"/>
<text text-anchor="middle" x="207.08" y="-127.6" font-family="Work Sans" font-size="8.00"> FOCUS &#160;&#160;</text>
</g>
<!-- V75296 -->
<g id="node3" class="node">
<title>V75296</title>
<g id="a_node3"><a xlink:href="http://trips.ihmc.us/lexicon/data/ONT::BY-MEANS-OF.xml" xlink:title="&lt;font color=&quot;green&quot;&gt;&lt;br /&gt;&lt;/font&gt; &lt;font color=&quot;black&quot;&gt;BY&#45;MEANS&#45;OF&lt;/font&gt; &lt;font color=&quot;green&quot;&gt;&lt;br /&gt;&lt;/font&gt; &lt;font color=&quot;red&quot;&gt;F&lt;/font&gt; &lt;font color=&quot;blue&quot;&gt;HOW&lt;/font&gt; &lt;font color=&quot;green&quot;&gt;&lt;br /&gt; &lt;/font&gt;">
<polygon fill="pink" stroke="transparent" points="59.4,-108 -0.14,-108 -0.14,-76 59.4,-76 59.4,-108"/>
<text text-anchor="start" x="0" y="-94.6" font-family="Work Sans" font-size="8.00"> </text>
<text text-anchor="start" x="2.22" y="-94.6" font-family="Work Sans" font-size="8.00">BY&#45;MEANS&#45;OF</text>
<text text-anchor="start" x="57.05" y="-94.6" font-family="Work Sans" font-size="8.00"> </text>
<text text-anchor="start" x="14.08" y="-86.6" font-family="Work Sans" font-size="8.00"> </text>
<text text-anchor="start" x="16.3" y="-86.6" font-family="Work Sans" font-size="8.00" fill="red">F</text>
<text text-anchor="start" x="21.19" y="-86.6" font-family="Work Sans" font-size="8.00"> </text>
<text text-anchor="start" x="23.41" y="-86.6" font-family="Work Sans" font-size="8.00" fill="blue">HOW</text>
<text text-anchor="start" x="42.96" y="-86.6" font-family="Work Sans" font-size="8.00"> </text>
<text text-anchor="start" x="28.52" y="-78.6" font-family="Work Sans" font-size="8.00" fill="green"> </text>
</a>
</g>
</g>
<!-- V75345&#45;&gt;V75296 -->
<g id="edge3" class="edge">
<title>V75345&#45;&gt;V75296</title>
<path fill="none" stroke="red" stroke-width="0.5" d="M50.67,-165.24C33.83,-160.1 13.44,-150.7 3.08,-134 -1.36,-126.84 1.65,-119.06 6.99,-112.22"/>
<polygon fill="red" stroke="red" stroke-width="0.5" points="8.61,-113.02 10.57,-108.1 5.97,-110.72 8.61,-113.02"/>
<text text-anchor="middle" x="25.41" y="-127.6" font-family="Work Sans" font-size="8.00"> METHOD &#160;&#160;</text>
</g>
<!-- V75320 -->
<g id="node5" class="node">
<title>V75320</title>
<g id="a_node5"><a xlink:href="http://trips.ihmc.us/lexicon/data/ONT::PERFORMANCE-PLAY.xml" xlink:title="&lt;font color=&quot;green&quot;&gt;&lt;br /&gt;&lt;/font&gt; &lt;font color=&quot;black&quot;&gt;PERFORMANCE&#45;PLAY&lt;/font&gt; &lt;font color=&quot;green&quot;&gt;&lt;br /&gt;&lt;/font&gt; &lt;font color=&quot;red&quot;&gt;THE&lt;/font&gt; &lt;font color=&quot;blue&quot;&gt;PLAY&lt;/font&gt; &lt;font color=&quot;green&quot;&gt;&lt;br /&gt; &lt;/font&gt;">
<text text-anchor="start" x="77.03" y="-94.6" font-family="Work Sans" font-size="8.00"> </text>
<text text-anchor="start" x="79.26" y="-94.6" font-family="Work Sans" font-size="8.00">PERFORMANCE&#45;PLAY</text>
<text text-anchor="start" x="164.01" y="-94.6" font-family="Work Sans" font-size="8.00"> </text>
<text text-anchor="start" x="100.37" y="-86.6" font-family="Work Sans" font-size="8.00"> </text>
<text text-anchor="start" x="102.59" y="-86.6" font-family="Work Sans" font-size="8.00" fill="red">THE</text>
<text text-anchor="start" x="118.59" y="-86.6" font-family="Work Sans" font-size="8.00"> </text>
<text text-anchor="start" x="120.81" y="-86.6" font-family="Work Sans" font-size="8.00" fill="blue">PLAY</text>
<text text-anchor="start" x="140.68" y="-86.6" font-family="Work Sans" font-size="8.00"> </text>
<text text-anchor="start" x="120.52" y="-78.6" font-family="Work Sans" font-size="8.00" fill="green"> </text>
</a>
</g>
</g>
<!-- V75345&#45;&gt;V75320 -->
<g id="edge4" class="edge">
<title>V75345&#45;&gt;V75320</title>
<path fill="none" stroke="red" stroke-width="0.5" d="M89.21,-151.89C92.62,-146.17 96.33,-139.86 99.63,-134 103.51,-127.14 107.62,-119.56 111.23,-112.8"/>
<polygon fill="red" stroke="red" stroke-width="0.5" points="112.84,-113.51 113.64,-108.27 109.75,-111.87 112.84,-113.51"/>
<text text-anchor="middle" x="126.6" y="-127.6" font-family="Work Sans" font-size="8.00"> NEUTRAL &#160;&#160;</text>
</g>
<!-- V75296&#45;&gt;V75345 -->
<g id="edge2" class="edge">
<title>V75296&#45;&gt;V75345</title>
<path fill="none" stroke="grey" stroke-width="0.5" d="M38.96,-108.15C45.78,-119.23 55.15,-134.47 62.97,-147.17"/>
<polygon fill="grey" stroke="grey" stroke-width="0.5" points="61.66,-148.38 65.77,-151.72 64.64,-146.54 61.66,-148.38"/>
<text text-anchor="middle" x="73.19" y="-127.6" font-family="Work Sans" font-size="8.00"> FIGURE &#160;&#160;</text>
</g>
<!-- V75296&#45;&gt;V75389 -->
<g id="edge5" class="edge">
<title>V75296&#45;&gt;V75389</title>
<path fill="none" stroke="grey" stroke-width="0.5" d="M26.22,-75.89C25.2,-67.64 25.41,-57.59 30.19,-50 38.25,-37.18 52.92,-29.18 66.43,-24.27"/>
<polygon fill="grey" stroke="grey" stroke-width="0.5" points="67.17,-25.87 71.34,-22.6 66.05,-22.55 67.17,-25.87"/>
<text text-anchor="middle" x="51.86" y="-51.6" font-family="Work Sans" font-size="8.00"> GROUND &#160;&#160;</text>
</g>
<!-- V75389&#45;&gt;V75296 -->
<g id="edge7" class="edge">
<title>V75389&#45;&gt;V75296</title>
<path fill="none" stroke="grey" stroke-width="0.5" d="M90.54,-32.04C86.74,-40.26 81.31,-50.32 74.63,-58 70.08,-63.25 64.54,-68.14 58.93,-72.47"/>
<polygon fill="grey" stroke="grey" stroke-width="0.5" points="57.61,-71.28 54.65,-75.67 59.7,-74.08 57.61,-71.28"/>
<text text-anchor="middle" x="105.49" y="-51.6" font-family="Work Sans" font-size="8.00"> SUCHTHAT &#160;&#160;</text>
</g>
</g>
</svg>
