<?xml version="1.0" encoding="UTF-8" standalone="no"?>
<!DOCTYPE svg PUBLIC "-//W3C//DTD SVG 1.1//EN"
 "http://www.w3.org/Graphics/SVG/1.1/DTD/svg11.dtd">
<!-- Generated by graphviz version 2.43.0 (0)
 -->
<!-- Title: graph Pages: 1 -->
<svg width="282pt" height="276pt"
 viewBox="0.00 0.00 282.36 276.00" xmlns="http://www.w3.org/2000/svg" xmlns:xlink="http://www.w3.org/1999/xlink">
<g id="graph0" class="graph" transform="scale(1 1) rotate(0) translate(4 272)">
<title>graph</title>
<polygon fill="white" stroke="transparent" points="-4,4 -4,-272 278.36,-272 278.36,4 -4,4"/>
<!-- V74001 -->
<g id="node1" class="node">
<title>V74001</title>
<g id="a_node1"><a xlink:href="http://trips.ihmc.us/lexicon/data/ONT::SA_WH-QUESTION.xml" xlink:title="&lt;font color=&quot;green&quot;&gt;&lt;br /&gt;&lt;/font&gt; &lt;font color=&quot;black&quot;&gt;SA_WH&#45;QUESTION&lt;/font&gt; &lt;font color=&quot;green&quot;&gt;&lt;br /&gt;&lt;/font&gt; &lt;font color=&quot;red&quot;&gt;SPEECHACT&lt;/font&gt; &lt;font color=&quot;blue&quot;&gt;* &lt;/font&gt; &lt;font color=&quot;green&quot;&gt;&lt;br /&gt; &lt;/font&gt;">
<text text-anchor="start" x="151.8" y="-254.6" font-family="Work Sans" font-size="8.00"> </text>
<text text-anchor="start" x="154.02" y="-254.6" font-family="Work Sans" font-size="8.00">SA_WH&#45;QUESTION</text>
<text text-anchor="start" x="226.92" y="-254.6" font-family="Work Sans" font-size="8.00"> </text>
<text text-anchor="start" x="160.02" y="-246.6" font-family="Work Sans" font-size="8.00"> </text>
<text text-anchor="start" x="162.24" y="-246.6" font-family="Work Sans" font-size="8.00" fill="red">SPEECHACT</text>
<text text-anchor="start" x="211.14" y="-246.6" font-family="Work Sans" font-size="8.00"> </text>
<text text-anchor="start" x="213.36" y="-246.6" font-family="Work Sans" font-size="8.00" fill="blue">* </text>
<text text-anchor="start" x="218.7" y="-246.6" font-family="Work Sans" font-size="8.00"> </text>
<text text-anchor="start" x="189.36" y="-238.6" font-family="Work Sans" font-size="8.00" fill="green"> </text>
</a>
</g>
</g>
<!-- V73711 -->
<g id="node2" class="node">
<title>V73711</title>
<g id="a_node2"><a xlink:href="http://trips.ihmc.us/lexicon/data/ONT::BECOME.xml" xlink:title="&lt;font color=&quot;green&quot;&gt;&lt;br /&gt;&lt;/font&gt; &lt;font color=&quot;black&quot;&gt;BECOME&lt;/font&gt; &lt;font color=&quot;green&quot;&gt;&lt;br /&gt;&lt;/font&gt; &lt;font color=&quot;red&quot;&gt;F&lt;/font&gt; &lt;font color=&quot;blue&quot;&gt;GO&lt;/font&gt; &lt;font color=&quot;green&quot;&gt;&lt;br /&gt; &lt;/font&gt;">
<polygon fill="pink" stroke="transparent" points="147.09,-192 107.85,-192 107.85,-160 147.09,-160 147.09,-192"/>
<text text-anchor="start" x="107.91" y="-178.6" font-family="Work Sans" font-size="8.00"> </text>
<text text-anchor="start" x="110.13" y="-178.6" font-family="Work Sans" font-size="8.00">BECOME</text>
<text text-anchor="start" x="144.8" y="-178.6" font-family="Work Sans" font-size="8.00"> </text>
<text text-anchor="start" x="115.47" y="-170.6" font-family="Work Sans" font-size="8.00"> </text>
<text text-anchor="start" x="117.69" y="-170.6" font-family="Work Sans" font-size="8.00" fill="red">F</text>
<text text-anchor="start" x="122.58" y="-170.6" font-family="Work Sans" font-size="8.00"> </text>
<text text-anchor="start" x="124.8" y="-170.6" font-family="Work Sans" font-size="8.00" fill="blue">GO</text>
<text text-anchor="start" x="137.25" y="-170.6" font-family="Work Sans" font-size="8.00"> </text>
<text text-anchor="start" x="126.36" y="-162.6" font-family="Work Sans" font-size="8.00" fill="green"> </text>
</a>
</g>
</g>
<!-- V74001&#45;&gt;V73711 -->
<g id="edge2" class="edge">
<title>V74001&#45;&gt;V73711</title>
<path fill="none" stroke="grey" stroke-width="0.5" d="M177.42,-235.67C167.64,-224.18 154.2,-208.39 143.72,-196.09"/>
<polygon fill="grey" stroke="grey" stroke-width="0.5" points="144.86,-194.73 140.29,-192.06 142.2,-197 144.86,-194.73"/>
<text text-anchor="middle" x="184.18" y="-211.6" font-family="Work Sans" font-size="8.00"> CONTENT &#160;&#160;</text>
</g>
<!-- V73756 -->
<g id="node4" class="node">
<title>V73756</title>
<g id="a_node4"><a xlink:href="http://trips.ihmc.us/lexicon/data/ONT::STATUS.xml" xlink:title="&lt;font color=&quot;green&quot;&gt;&lt;br /&gt;&lt;/font&gt; &lt;font color=&quot;black&quot;&gt;STATUS&lt;/font&gt; &lt;font color=&quot;green&quot;&gt;&lt;br /&gt;&lt;/font&gt; &lt;font color=&quot;red&quot;&gt;WH&#45;TERM&lt;/font&gt; &lt;font color=&quot;blue&quot;&gt;* &lt;/font&gt; &lt;font color=&quot;green&quot;&gt;&lt;br /&gt; &lt;/font&gt;">
<polygon fill="pink" stroke="transparent" points="210.63,-36 160.31,-36 160.31,-4 210.63,-4 210.63,-36"/>
<text text-anchor="start" x="168.06" y="-22.6" font-family="Work Sans" font-size="8.00"> </text>
<text text-anchor="start" x="170.28" y="-22.6" font-family="Work Sans" font-size="8.00">STATUS</text>
<text text-anchor="start" x="200.66" y="-22.6" font-family="Work Sans" font-size="8.00"> </text>
<text text-anchor="start" x="160.14" y="-14.6" font-family="Work Sans" font-size="8.00"> </text>
<text text-anchor="start" x="162.36" y="-14.6" font-family="Work Sans" font-size="8.00" fill="red">WH&#45;TERM</text>
<text text-anchor="start" x="201.02" y="-14.6" font-family="Work Sans" font-size="8.00"> </text>
<text text-anchor="start" x="203.24" y="-14.6" font-family="Work Sans" font-size="8.00" fill="blue">* </text>
<text text-anchor="start" x="208.58" y="-14.6" font-family="Work Sans" font-size="8.00"> </text>
<text text-anchor="start" x="184.36" y="-6.6" font-family="Work Sans" font-size="8.00" fill="green"> </text>
</a>
</g>
</g>
<!-- V74001&#45;&gt;V73756 -->
<g id="edge7" class="edge">
<title>V74001&#45;&gt;V73756</title>
<path fill="none" stroke="grey" stroke-width="0.5" d="M202.38,-235.68C205.91,-230.36 209.38,-224.18 211.47,-218 234.32,-150.41 252.64,-123.55 224.47,-58 221.53,-51.17 216.65,-45.01 211.32,-39.77"/>
<polygon fill="grey" stroke="grey" stroke-width="0.5" points="212.43,-38.4 207.57,-36.28 210.04,-40.97 212.43,-38.4"/>
<text text-anchor="middle" x="255.91" y="-135.6" font-family="Work Sans" font-size="8.00"> FOCUS &#160;&#160;</text>
</g>
<!-- V73666 -->
<g id="node3" class="node">
<title>V73666</title>
<g id="a_node3"><a xlink:href="http://trips.ihmc.us/lexicon/data/ONT::AT-SCALE-VALUE.xml" xlink:title="&lt;font color=&quot;green&quot;&gt;&lt;br /&gt;&lt;/font&gt; &lt;font color=&quot;black&quot;&gt;AT&#45;SCALE&#45;VALUE&lt;/font&gt; &lt;font color=&quot;green&quot;&gt;&lt;br /&gt;&lt;/font&gt; &lt;font color=&quot;red&quot;&gt;F&lt;/font&gt; &lt;font color=&quot;blue&quot;&gt;HOW&lt;/font&gt; &lt;font color=&quot;green&quot;&gt;&lt;br /&gt; &lt;/font&gt;">
<polygon fill="pink" stroke="transparent" points="162.82,-116 92.12,-116 92.12,-84 162.82,-84 162.82,-116"/>
<text text-anchor="start" x="92.04" y="-102.6" font-family="Work Sans" font-size="8.00"> </text>
<text text-anchor="start" x="94.27" y="-102.6" font-family="Work Sans" font-size="8.00">AT&#45;SCALE&#45;VALUE</text>
<text text-anchor="start" x="160.67" y="-102.6" font-family="Work Sans" font-size="8.00"> </text>
<text text-anchor="start" x="111.92" y="-94.6" font-family="Work Sans" font-size="8.00"> </text>
<text text-anchor="start" x="114.14" y="-94.6" font-family="Work Sans" font-size="8.00" fill="red">F</text>
<text text-anchor="start" x="119.03" y="-94.6" font-family="Work Sans" font-size="8.00"> </text>
<text text-anchor="start" x="121.25" y="-94.6" font-family="Work Sans" font-size="8.00" fill="blue">HOW</text>
<text text-anchor="start" x="140.8" y="-94.6" font-family="Work Sans" font-size="8.00"> </text>
<text text-anchor="start" x="126.36" y="-86.6" font-family="Work Sans" font-size="8.00" fill="green"> </text>
</a>
</g>
</g>
<!-- V73711&#45;&gt;V73666 -->
<g id="edge4" class="edge">
<title>V73711&#45;&gt;V73666</title>
<path fill="none" stroke="red" stroke-width="0.5" d="M127.47,-159.67C127.47,-148.58 127.47,-133.49 127.47,-121.38"/>
<polygon fill="red" stroke="red" stroke-width="0.5" points="129.22,-121.06 127.47,-116.06 125.72,-121.06 129.22,-121.06"/>
<text text-anchor="middle" x="148.44" y="-135.6" font-family="Work Sans" font-size="8.00"> FORMAL &#160;&#160;</text>
</g>
<!-- V73693 -->
<g id="node5" class="node">
<title>V73693</title>
<g id="a_node5"><a xlink:href="http://trips.ihmc.us/lexicon/data/ONT::COMPOSITION.xml" xlink:title="&lt;font color=&quot;green&quot;&gt;&lt;br /&gt;&lt;/font&gt; &lt;font color=&quot;black&quot;&gt;COMPOSITION&lt;/font&gt; &lt;font color=&quot;green&quot;&gt;&lt;br /&gt;&lt;/font&gt; &lt;font color=&quot;red&quot;&gt;THE&lt;/font&gt; &lt;font color=&quot;blue&quot;&gt;STORY&lt;/font&gt; &lt;font color=&quot;green&quot;&gt;&lt;br /&gt;&lt;/font&gt; &lt;font color=&quot;green&quot;&gt;composition%1:07:01&lt;/font&gt; &lt;font color=&quot;green&quot;&gt;&lt;br /&gt; &lt;/font&gt;">
<text text-anchor="start" x="9.8" y="-26.6" font-family="Work Sans" font-size="8.00"> </text>
<text text-anchor="start" x="12.02" y="-26.6" font-family="Work Sans" font-size="8.00">COMPOSITION</text>
<text text-anchor="start" x="68.91" y="-26.6" font-family="Work Sans" font-size="8.00"> </text>
<text text-anchor="start" x="15.5" y="-18.6" font-family="Work Sans" font-size="8.00"> </text>
<text text-anchor="start" x="17.72" y="-18.6" font-family="Work Sans" font-size="8.00" fill="red">THE</text>
<text text-anchor="start" x="33.72" y="-18.6" font-family="Work Sans" font-size="8.00"> </text>
<text text-anchor="start" x="35.94" y="-18.6" font-family="Work Sans" font-size="8.00" fill="blue">STORY</text>
<text text-anchor="start" x="63.22" y="-18.6" font-family="Work Sans" font-size="8.00"> </text>
<text text-anchor="start" x="0" y="-10.6" font-family="Work Sans" font-size="8.00"> </text>
<text text-anchor="start" x="2.22" y="-10.6" font-family="Work Sans" font-size="8.00" fill="green">composition%1:07:01</text>
<text text-anchor="start" x="78.71" y="-10.6" font-family="Work Sans" font-size="8.00"> </text>
<text text-anchor="start" x="39.36" y="-2.6" font-family="Work Sans" font-size="8.00" fill="green"> </text>
</a>
</g>
</g>
<!-- V73711&#45;&gt;V73693 -->
<g id="edge1" class="edge">
<title>V73711&#45;&gt;V73693</title>
<path fill="none" stroke="red" stroke-width="0.5" d="M107.6,-169.1C84.85,-161.16 48.68,-144.62 32.79,-116 20.73,-94.26 25.47,-65.31 31.45,-45.11"/>
<polygon fill="red" stroke="red" stroke-width="0.5" points="33.17,-45.46 32.98,-40.17 29.83,-44.42 33.17,-45.46"/>
<text text-anchor="middle" x="58.81" y="-97.6" font-family="Work Sans" font-size="8.00"> AFFECTED &#160;&#160;</text>
</g>
<!-- V73666&#45;&gt;V73756 -->
<g id="edge3" class="edge">
<title>V73666&#45;&gt;V73756</title>
<path fill="none" stroke="grey" stroke-width="0.5" d="M119.41,-83.74C116.3,-75.63 114.46,-65.77 119.02,-58 126.89,-44.62 141.54,-35.72 155.09,-30.02"/>
<polygon fill="grey" stroke="grey" stroke-width="0.5" points="156.02,-31.53 160.02,-28.06 154.73,-28.28 156.02,-31.53"/>
<text text-anchor="middle" x="140.69" y="-59.6" font-family="Work Sans" font-size="8.00"> GROUND &#160;&#160;</text>
</g>
<!-- V73666&#45;&gt;V73693 -->
<g id="edge5" class="edge">
<title>V73666&#45;&gt;V73693</title>
<path fill="none" stroke="grey" stroke-width="0.5" d="M98.19,-83.99C89.69,-78.91 80.73,-72.78 73.36,-66 66.63,-59.82 60.39,-52.07 55.2,-44.76"/>
<polygon fill="grey" stroke="grey" stroke-width="0.5" points="56.39,-43.4 52.11,-40.28 53.51,-45.39 56.39,-43.4"/>
<text text-anchor="middle" x="93.03" y="-59.6" font-family="Work Sans" font-size="8.00"> FIGURE &#160;&#160;</text>
</g>
<!-- V73756&#45;&gt;V73666 -->
<g id="edge6" class="edge">
<title>V73756&#45;&gt;V73666</title>
<path fill="none" stroke="grey" stroke-width="0.5" d="M179.64,-36.39C175.8,-45.48 170.24,-56.94 163.47,-66 159.74,-70.99 155.19,-75.83 150.59,-80.2"/>
<polygon fill="grey" stroke="grey" stroke-width="0.5" points="149.23,-79.07 146.74,-83.75 151.6,-81.65 149.23,-79.07"/>
<text text-anchor="middle" x="194.33" y="-59.6" font-family="Work Sans" font-size="8.00"> SUCHTHAT &#160;&#160;</text>
</g>
</g>
</svg>
