<?xml version="1.0" encoding="UTF-8" standalone="no"?>
<!DOCTYPE svg PUBLIC "-//W3C//DTD SVG 1.1//EN"
 "http://www.w3.org/Graphics/SVG/1.1/DTD/svg11.dtd">
<!-- Generated by graphviz version 2.43.0 (0)
 -->
<!-- Title: graph Pages: 1 -->
<svg width="431pt" height="368pt"
 viewBox="0.00 0.00 430.78 368.00" xmlns="http://www.w3.org/2000/svg" xmlns:xlink="http://www.w3.org/1999/xlink">
<g id="graph0" class="graph" transform="scale(1 1) rotate(0) translate(4 364)">
<title>graph</title>
<polygon fill="white" stroke="transparent" points="-4,4 -4,-364 426.78,-364 426.78,4 -4,4"/>
<!-- V45278 -->
<g id="node1" class="node">
<title>V45278</title>
<g id="a_node1"><a xlink:href="http://trips.ihmc.us/lexicon/data/ONT::SA_TELL.xml" xlink:title="&lt;font color=&quot;green&quot;&gt;&lt;br /&gt;&lt;/font&gt; &lt;font color=&quot;black&quot;&gt;SA_TELL&lt;/font&gt; &lt;font color=&quot;green&quot;&gt;&lt;br /&gt;&lt;/font&gt; &lt;font color=&quot;red&quot;&gt;SPEECHACT&lt;/font&gt; &lt;font color=&quot;blue&quot;&gt;* &lt;/font&gt; &lt;font color=&quot;green&quot;&gt;&lt;br /&gt; &lt;/font&gt;">
<text text-anchor="start" x="243.33" y="-346.6" font-family="Work Sans" font-size="8.00"> </text>
<text text-anchor="start" x="245.55" y="-346.6" font-family="Work Sans" font-size="8.00">SA_TELL</text>
<text text-anchor="start" x="279.79" y="-346.6" font-family="Work Sans" font-size="8.00"> </text>
<text text-anchor="start" x="232.22" y="-338.6" font-family="Work Sans" font-size="8.00"> </text>
<text text-anchor="start" x="234.44" y="-338.6" font-family="Work Sans" font-size="8.00" fill="red">SPEECHACT</text>
<text text-anchor="start" x="283.34" y="-338.6" font-family="Work Sans" font-size="8.00"> </text>
<text text-anchor="start" x="285.56" y="-338.6" font-family="Work Sans" font-size="8.00" fill="blue">* </text>
<text text-anchor="start" x="290.9" y="-338.6" font-family="Work Sans" font-size="8.00"> </text>
<text text-anchor="start" x="261.56" y="-330.6" font-family="Work Sans" font-size="8.00" fill="green"> </text>
</a>
</g>
</g>
<!-- V44592 -->
<g id="node2" class="node">
<title>V44592</title>
<g id="a_node2"><a xlink:href="http://trips.ihmc.us/lexicon/data/ONT::DECIDE.xml" xlink:title="&lt;font color=&quot;green&quot;&gt;&lt;br /&gt;&lt;/font&gt; &lt;font color=&quot;black&quot;&gt;DECIDE&lt;/font&gt; &lt;font color=&quot;green&quot;&gt;&lt;br /&gt;&lt;/font&gt; &lt;font color=&quot;red&quot;&gt;F&lt;/font&gt; &lt;font color=&quot;blue&quot;&gt;DECIDE&lt;/font&gt; &lt;font color=&quot;green&quot;&gt;&lt;br /&gt;&lt;/font&gt; &lt;font color=&quot;green&quot;&gt;decide%2:31:00::&lt;/font&gt; &lt;font color=&quot;green&quot;&gt;&lt;br /&gt; &lt;/font&gt;">
<text text-anchor="start" x="245.33" y="-270.6" font-family="Work Sans" font-size="8.00"> </text>
<text text-anchor="start" x="247.56" y="-270.6" font-family="Work Sans" font-size="8.00">DECIDE</text>
<text text-anchor="start" x="277.78" y="-270.6" font-family="Work Sans" font-size="8.00"> </text>
<text text-anchor="start" x="241.78" y="-262.6" font-family="Work Sans" font-size="8.00"> </text>
<text text-anchor="start" x="244" y="-262.6" font-family="Work Sans" font-size="8.00" fill="red">F</text>
<text text-anchor="start" x="248.89" y="-262.6" font-family="Work Sans" font-size="8.00"> </text>
<text text-anchor="start" x="251.11" y="-262.6" font-family="Work Sans" font-size="8.00" fill="blue">DECIDE</text>
<text text-anchor="start" x="281.34" y="-262.6" font-family="Work Sans" font-size="8.00"> </text>
<text text-anchor="start" x="229.54" y="-254.6" font-family="Work Sans" font-size="8.00"> </text>
<text text-anchor="start" x="231.76" y="-254.6" font-family="Work Sans" font-size="8.00" fill="green">decide%2:31:00::</text>
<text text-anchor="start" x="293.58" y="-254.6" font-family="Work Sans" font-size="8.00"> </text>
<text text-anchor="start" x="261.56" y="-246.6" font-family="Work Sans" font-size="8.00" fill="green"> </text>
</a>
</g>
</g>
<!-- V45278&#45;&gt;V44592 -->
<g id="edge5" class="edge">
<title>V45278&#45;&gt;V44592</title>
<path fill="none" stroke="grey" stroke-width="0.5" d="M262.67,-327.96C262.67,-317.04 262.67,-302.02 262.67,-289.39"/>
<polygon fill="grey" stroke="grey" stroke-width="0.5" points="264.42,-289.14 262.67,-284.14 260.92,-289.14 264.42,-289.14"/>
<text text-anchor="middle" x="286.38" y="-303.6" font-family="Work Sans" font-size="8.00"> CONTENT &#160;&#160;</text>
</g>
<!-- V44585 -->
<g id="node3" class="node">
<title>V44585</title>
<g id="a_node3"><a xlink:href="http://trips.ihmc.us/lexicon/data/ONT::FAMILY-RELATION.xml" xlink:title="&lt;font color=&quot;green&quot;&gt;&lt;br /&gt;&lt;/font&gt; &lt;font color=&quot;black&quot;&gt;FAMILY&#45;RELATION&lt;/font&gt; &lt;font color=&quot;green&quot;&gt;&lt;br /&gt;&lt;/font&gt; &lt;font color=&quot;red&quot;&gt;BARE&lt;/font&gt; &lt;font color=&quot;blue&quot;&gt;GRANDMA&lt;/font&gt; &lt;font color=&quot;green&quot;&gt;&lt;br /&gt;&lt;/font&gt; &lt;font color=&quot;green&quot;&gt;grandma%1:18:00::&lt;/font&gt; &lt;font color=&quot;green&quot;&gt;&lt;br /&gt; &lt;/font&gt;">
<text text-anchor="start" x="182.84" y="-26.6" font-family="Work Sans" font-size="8.00"> </text>
<text text-anchor="start" x="185.06" y="-26.6" font-family="Work Sans" font-size="8.00">FAMILY&#45;RELATION</text>
<text text-anchor="start" x="254.28" y="-26.6" font-family="Work Sans" font-size="8.00"> </text>
<text text-anchor="start" x="185" y="-18.6" font-family="Work Sans" font-size="8.00"> </text>
<text text-anchor="start" x="187.22" y="-18.6" font-family="Work Sans" font-size="8.00" fill="red">BARE</text>
<text text-anchor="start" x="209.01" y="-18.6" font-family="Work Sans" font-size="8.00"> </text>
<text text-anchor="start" x="211.23" y="-18.6" font-family="Work Sans" font-size="8.00" fill="blue">GRANDMA</text>
<text text-anchor="start" x="252.12" y="-18.6" font-family="Work Sans" font-size="8.00"> </text>
<text text-anchor="start" x="182.54" y="-10.6" font-family="Work Sans" font-size="8.00"> </text>
<text text-anchor="start" x="184.76" y="-10.6" font-family="Work Sans" font-size="8.00" fill="green">grandma%1:18:00::</text>
<text text-anchor="start" x="254.58" y="-10.6" font-family="Work Sans" font-size="8.00"> </text>
<text text-anchor="start" x="218.56" y="-2.6" font-family="Work Sans" font-size="8.00" fill="green"> </text>
</a>
</g>
</g>
<!-- V44592&#45;&gt;V44585 -->
<g id="edge1" class="edge">
<title>V44592&#45;&gt;V44585</title>
<path fill="none" stroke="grey" stroke-width="0.5" d="M237.01,-243.61C210.87,-222.1 171.97,-184.73 155.8,-142 142.41,-106.61 145.33,-86.97 169.67,-58 174.1,-52.73 179.42,-47.79 184.92,-43.34"/>
<polygon fill="grey" stroke="grey" stroke-width="0.5" points="186.28,-44.5 189.15,-40.04 184.13,-41.74 186.28,-44.5"/>
<text text-anchor="middle" x="174.61" y="-135.6" font-family="Work Sans" font-size="8.00"> AGENT &#160;&#160;</text>
</g>
<!-- V44645 -->
<g id="node4" class="node">
<title>V44645</title>
<g id="a_node4"><a xlink:href="http://trips.ihmc.us/lexicon/data/ONT::SELF-LOCOMOTE.xml" xlink:title="&lt;font color=&quot;green&quot;&gt;&lt;br /&gt;&lt;/font&gt; &lt;font color=&quot;black&quot;&gt;SELF&#45;LOCOMOTE&lt;/font&gt; &lt;font color=&quot;green&quot;&gt;&lt;br /&gt;&lt;/font&gt; &lt;font color=&quot;red&quot;&gt;F&lt;/font&gt; &lt;font color=&quot;blue&quot;&gt;GO&lt;/font&gt; &lt;font color=&quot;green&quot;&gt;&lt;br /&gt;&lt;/font&gt; &lt;font color=&quot;green&quot;&gt;go%2:38:00::&lt;/font&gt; &lt;font color=&quot;green&quot;&gt;&lt;br /&gt; &lt;/font&gt;">
<polygon fill="pink" stroke="transparent" stroke-width="0.5" points="251.27,-160 287.67,-160 287.67,-200 251.27,-200 251.27,-160"/>
<polygon fill="lightblue" stroke="transparent" stroke-width="0.5" points="287.67,-160 324.07,-160 324.07,-200 287.67,-200 287.67,-160"/>
<polygon fill="none" stroke="transparent" points="324.07,-200 251.27,-200 251.27,-160 324.07,-160 324.07,-200"/>
<text text-anchor="start" x="251.22" y="-186.6" font-family="Work Sans" font-size="8.00"> </text>
<text text-anchor="start" x="253.44" y="-186.6" font-family="Work Sans" font-size="8.00">SELF&#45;LOCOMOTE</text>
<text text-anchor="start" x="321.9" y="-186.6" font-family="Work Sans" font-size="8.00"> </text>
<text text-anchor="start" x="275.67" y="-178.6" font-family="Work Sans" font-size="8.00"> </text>
<text text-anchor="start" x="277.89" y="-178.6" font-family="Work Sans" font-size="8.00" fill="red">F</text>
<text text-anchor="start" x="282.78" y="-178.6" font-family="Work Sans" font-size="8.00"> </text>
<text text-anchor="start" x="285" y="-178.6" font-family="Work Sans" font-size="8.00" fill="blue">GO</text>
<text text-anchor="start" x="297.45" y="-178.6" font-family="Work Sans" font-size="8.00"> </text>
<text text-anchor="start" x="261.87" y="-170.6" font-family="Work Sans" font-size="8.00"> </text>
<text text-anchor="start" x="264.1" y="-170.6" font-family="Work Sans" font-size="8.00" fill="green">go%2:38:00::</text>
<text text-anchor="start" x="311.24" y="-170.6" font-family="Work Sans" font-size="8.00"> </text>
<text text-anchor="start" x="286.56" y="-162.6" font-family="Work Sans" font-size="8.00" fill="green"> </text>
</a>
</g>
</g>
<!-- V44592&#45;&gt;V44645 -->
<g id="edge12" class="edge">
<title>V44592&#45;&gt;V44645</title>
<path fill="none" stroke="red" d="M268.47,-243.98C272.01,-232.37 276.57,-217.42 280.35,-205"/>
<polygon fill="red" stroke="red" points="282.03,-205.49 281.82,-200.2 278.68,-204.47 282.03,-205.49"/>
<text text-anchor="middle" x="297.64" y="-219.6" font-family="Work Sans" font-size="8.00"> FORMAL &#160;&#160;</text>
</g>
<!-- V44592&#45;&gt;V44645 -->
<g id="edge14" class="edge">
<title>V44592&#45;&gt;V44645</title>
<path fill="none" stroke="blue" d="M264.83,-243.91C266.04,-235.8 267.84,-226.32 270.45,-218 271.82,-213.63 273.59,-209.11 275.48,-204.79"/>
<polygon fill="blue" stroke="blue" points="277.09,-205.48 277.56,-200.2 273.9,-204.03 277.09,-205.48"/>
<text text-anchor="middle" x="271.78" y="-219.6" font-family="Work Sans" font-size="8.00">.</text>
</g>
<!-- V44645&#45;&gt;V44585 -->
<g id="edge9" class="edge">
<title>V44645&#45;&gt;V44585</title>
<path fill="none" stroke="blue" d="M288.6,-159.59C288.63,-151.6 288.21,-142.3 286.67,-134 282.35,-110.78 280.06,-104.69 268.67,-84 260.87,-69.84 250,-55.5 240.48,-44.09"/>
<polygon fill="blue" stroke="blue" points="241.61,-42.71 237.05,-40.02 238.94,-44.97 241.61,-42.71"/>
<text text-anchor="middle" x="284.78" y="-97.6" font-family="Work Sans" font-size="8.00">.</text>
</g>
<!-- V44645&#45;&gt;V44585 -->
<g id="edge11" class="edge">
<title>V44645&#45;&gt;V44585</title>
<path fill="none" stroke="red" d="M279.07,-159.96C274.49,-151.31 268.24,-141.37 260.67,-134 249.02,-122.65 237.66,-129.64 228.8,-116 215.15,-94.99 214.44,-65.67 216.14,-45.17"/>
<polygon fill="red" stroke="red" points="217.89,-45.31 216.62,-40.16 214.4,-44.97 217.89,-45.31"/>
<text text-anchor="middle" x="247.61" y="-97.6" font-family="Work Sans" font-size="8.00"> AGENT &#160;&#160;</text>
</g>
<!-- V44665 -->
<g id="node5" class="node">
<title>V44665</title>
<g id="a_node5"><a xlink:href="http://trips.ihmc.us/lexicon/data/ONT::ACCOMPANIMENT.xml" xlink:title="&lt;font color=&quot;green&quot;&gt;&lt;br /&gt;&lt;/font&gt; &lt;font color=&quot;black&quot;&gt;ACCOMPANIMENT&lt;/font&gt; &lt;font color=&quot;green&quot;&gt;&lt;br /&gt;&lt;/font&gt; &lt;font color=&quot;red&quot;&gt;F&lt;/font&gt; &lt;font color=&quot;blue&quot;&gt;WITH&lt;/font&gt; &lt;font color=&quot;green&quot;&gt;&lt;br /&gt; &lt;/font&gt;">
<polygon fill="pink" stroke="transparent" stroke-width="0.5" points="321.2,-84 358.67,-84 358.67,-116 321.2,-116 321.2,-84"/>
<polygon fill="lightblue" stroke="transparent" stroke-width="0.5" points="358.67,-84 396.14,-84 396.14,-116 358.67,-116 358.67,-84"/>
<polygon fill="none" stroke="transparent" points="396.14,-116 321.2,-116 321.2,-84 396.14,-84 396.14,-116"/>
<text text-anchor="start" x="321.19" y="-102.6" font-family="Work Sans" font-size="8.00"> </text>
<text text-anchor="start" x="323.41" y="-102.6" font-family="Work Sans" font-size="8.00">ACCOMPANIMENT</text>
<text text-anchor="start" x="393.93" y="-102.6" font-family="Work Sans" font-size="8.00"> </text>
<text text-anchor="start" x="342.67" y="-94.6" font-family="Work Sans" font-size="8.00"> </text>
<text text-anchor="start" x="344.9" y="-94.6" font-family="Work Sans" font-size="8.00" fill="red">F</text>
<text text-anchor="start" x="349.78" y="-94.6" font-family="Work Sans" font-size="8.00"> </text>
<text text-anchor="start" x="352.01" y="-94.6" font-family="Work Sans" font-size="8.00" fill="blue">WITH</text>
<text text-anchor="start" x="372.44" y="-94.6" font-family="Work Sans" font-size="8.00"> </text>
<text text-anchor="start" x="357.56" y="-86.6" font-family="Work Sans" font-size="8.00" fill="green"> </text>
</a>
</g>
</g>
<!-- V44645&#45;&gt;V44665 -->
<g id="edge2" class="edge">
<title>V44645&#45;&gt;V44665</title>
<path fill="none" stroke="blue" d="M305.22,-159.72C316.21,-147.64 330.33,-132.14 341.29,-120.09"/>
<polygon fill="blue" stroke="blue" points="342.8,-121.03 344.88,-116.15 340.22,-118.67 342.8,-121.03"/>
<text text-anchor="middle" x="327.78" y="-135.6" font-family="Work Sans" font-size="8.00">.</text>
</g>
<!-- V44645&#45;&gt;V44665 -->
<g id="edge8" class="edge">
<title>V44645&#45;&gt;V44665</title>
<path fill="none" stroke="red" d="M313.69,-159.96C320.26,-154.54 327.04,-148.37 332.67,-142 338.4,-135.52 343.72,-127.64 348.03,-120.52"/>
<polygon fill="red" stroke="red" points="349.54,-121.41 350.58,-116.21 346.53,-119.63 349.54,-121.41"/>
<text text-anchor="middle" x="357.9" y="-135.6" font-family="Work Sans" font-size="8.00"> AGENT1 &#160;&#160;</text>
</g>
<!-- V44712 -->
<g id="node7" class="node">
<title>V44712</title>
<g id="a_node7"><a xlink:href="http://trips.ihmc.us/lexicon/data/ONT::ON.xml" xlink:title="&lt;font color=&quot;green&quot;&gt;&lt;br /&gt;&lt;/font&gt; &lt;font color=&quot;black&quot;&gt;ON&lt;/font&gt; &lt;font color=&quot;green&quot;&gt;&lt;br /&gt;&lt;/font&gt; &lt;font color=&quot;red&quot;&gt;F&lt;/font&gt; &lt;font color=&quot;blue&quot;&gt;ON&lt;/font&gt; &lt;font color=&quot;green&quot;&gt;&lt;br /&gt; &lt;/font&gt;">
<polygon fill="pink" stroke="transparent" points="189.23,-116 166.11,-116 166.11,-84 189.23,-84 189.23,-116"/>
<text text-anchor="start" x="169.45" y="-102.6" font-family="Work Sans" font-size="8.00"> </text>
<text text-anchor="start" x="171.67" y="-102.6" font-family="Work Sans" font-size="8.00">ON</text>
<text text-anchor="start" x="183.67" y="-102.6" font-family="Work Sans" font-size="8.00"> </text>
<text text-anchor="start" x="165.89" y="-94.6" font-family="Work Sans" font-size="8.00"> </text>
<text text-anchor="start" x="168.12" y="-94.6" font-family="Work Sans" font-size="8.00" fill="red">F</text>
<text text-anchor="start" x="173" y="-94.6" font-family="Work Sans" font-size="8.00"> </text>
<text text-anchor="start" x="175.22" y="-94.6" font-family="Work Sans" font-size="8.00" fill="blue">ON</text>
<text text-anchor="start" x="187.22" y="-94.6" font-family="Work Sans" font-size="8.00"> </text>
<text text-anchor="start" x="176.56" y="-86.6" font-family="Work Sans" font-size="8.00" fill="green"> </text>
</a>
</g>
</g>
<!-- V44645&#45;&gt;V44712 -->
<g id="edge3" class="edge">
<title>V44645&#45;&gt;V44712</title>
<path fill="none" stroke="blue" d="M250.87,-168.65C234.7,-162.76 216.29,-154.1 202.45,-142 195.81,-136.2 190.42,-128.17 186.39,-120.76"/>
<polygon fill="blue" stroke="blue" points="187.9,-119.88 184.05,-116.24 184.79,-121.49 187.9,-119.88"/>
<text text-anchor="middle" x="203.78" y="-135.6" font-family="Work Sans" font-size="8.00">.</text>
</g>
<!-- V44645&#45;&gt;V44712 -->
<g id="edge4" class="edge">
<title>V44645&#45;&gt;V44712</title>
<path fill="none" stroke="red" d="M250.98,-160.82C240.93,-155.27 230.24,-148.81 220.95,-142 211.05,-134.75 201.03,-125.41 193.13,-117.49"/>
<polygon fill="red" stroke="red" points="194.19,-116.06 189.43,-113.72 191.69,-118.52 194.19,-116.06"/>
<text text-anchor="middle" x="241.53" y="-135.6" font-family="Work Sans" font-size="8.00"> RESULT &#160;&#160;</text>
</g>
<!-- V44665&#45;&gt;V44645 -->
<g id="edge10" class="edge">
<title>V44665&#45;&gt;V44645</title>
<path fill="none" stroke="grey" stroke-width="0.5" d="M375.58,-116.18C382.31,-124.07 387.27,-133.77 381.67,-142 369.84,-159.37 348.48,-168.59 329.12,-173.48"/>
<polygon fill="grey" stroke="grey" stroke-width="0.5" points="328.7,-171.78 324.24,-174.63 329.51,-175.18 328.7,-171.78"/>
<text text-anchor="middle" x="403.23" y="-135.6" font-family="Work Sans" font-size="8.00"> FIGURE &#160;&#160;</text>
</g>
<!-- V44705 -->
<g id="node6" class="node">
<title>V44705</title>
<g id="a_node6"><a xlink:href="http://trips.ihmc.us/lexicon/data/ONT::PERSON.xml" xlink:title="&lt;font color=&quot;green&quot;&gt;&lt;br /&gt;&lt;/font&gt; &lt;font color=&quot;black&quot;&gt;PERSON&lt;/font&gt; &lt;font color=&quot;green&quot;&gt;&lt;br /&gt;&lt;/font&gt; &lt;font color=&quot;red&quot;&gt;PRO&#45;SET&lt;/font&gt; &lt;font color=&quot;blue&quot;&gt;US&lt;/font&gt; &lt;font color=&quot;green&quot;&gt;&lt;br /&gt;&lt;/font&gt; &lt;font color=&quot;green&quot;&gt;person%1:03:00&lt;/font&gt; &lt;font color=&quot;green&quot;&gt;&lt;br /&gt; &lt;/font&gt;">
<text text-anchor="start" x="339.55" y="-26.6" font-family="Work Sans" font-size="8.00"> </text>
<text text-anchor="start" x="341.78" y="-26.6" font-family="Work Sans" font-size="8.00">PERSON</text>
<text text-anchor="start" x="375.56" y="-26.6" font-family="Work Sans" font-size="8.00"> </text>
<text text-anchor="start" x="332" y="-18.6" font-family="Work Sans" font-size="8.00"> </text>
<text text-anchor="start" x="334.22" y="-18.6" font-family="Work Sans" font-size="8.00" fill="red">PRO&#45;SET</text>
<text text-anchor="start" x="369.78" y="-18.6" font-family="Work Sans" font-size="8.00"> </text>
<text text-anchor="start" x="372" y="-18.6" font-family="Work Sans" font-size="8.00" fill="blue">US</text>
<text text-anchor="start" x="383.12" y="-18.6" font-family="Work Sans" font-size="8.00"> </text>
<text text-anchor="start" x="327.31" y="-10.6" font-family="Work Sans" font-size="8.00"> </text>
<text text-anchor="start" x="329.54" y="-10.6" font-family="Work Sans" font-size="8.00" fill="green">person%1:03:00</text>
<text text-anchor="start" x="387.8" y="-10.6" font-family="Work Sans" font-size="8.00"> </text>
<text text-anchor="start" x="357.56" y="-2.6" font-family="Work Sans" font-size="8.00" fill="green"> </text>
</a>
</g>
</g>
<!-- V44665&#45;&gt;V44705 -->
<g id="edge6" class="edge">
<title>V44665&#45;&gt;V44705</title>
<path fill="none" stroke="grey" stroke-width="0.5" d="M358.67,-83.96C358.67,-73.04 358.67,-58.02 358.67,-45.39"/>
<polygon fill="grey" stroke="grey" stroke-width="0.5" points="360.42,-45.14 358.67,-40.14 356.92,-45.14 360.42,-45.14"/>
<text text-anchor="middle" x="380.89" y="-59.6" font-family="Work Sans" font-size="8.00"> GROUND &#160;&#160;</text>
</g>
<!-- V44712&#45;&gt;V44585 -->
<g id="edge13" class="edge">
<title>V44712&#45;&gt;V44585</title>
<path fill="none" stroke="grey" stroke-width="0.5" d="M173.58,-83.93C172.2,-75.88 171.82,-66.01 175.56,-58 177.95,-52.87 181.45,-48.19 185.44,-44.03"/>
<polygon fill="grey" stroke="grey" stroke-width="0.5" points="186.86,-45.09 189.22,-40.35 184.42,-42.58 186.86,-45.09"/>
<text text-anchor="middle" x="195.23" y="-59.6" font-family="Work Sans" font-size="8.00"> FIGURE &#160;&#160;</text>
</g>
<!-- V44739 -->
<g id="node8" class="node">
<title>V44739</title>
<g id="a_node8"><a xlink:href="http://trips.ihmc.us/lexicon/data/ONT::STRUCTURE-EXTERNAL-COMPONENT.xml" xlink:title="&lt;font color=&quot;green&quot;&gt;&lt;br /&gt;&lt;/font&gt; &lt;font color=&quot;black&quot;&gt;STRUCTURE&#45;EXTERNAL&#45;COMPONENT&lt;/font&gt; &lt;font color=&quot;green&quot;&gt;&lt;br /&gt;&lt;/font&gt; &lt;font color=&quot;red&quot;&gt;THE&lt;/font&gt; &lt;font color=&quot;blue&quot;&gt;ROOF&lt;/font&gt; &lt;font color=&quot;green&quot;&gt;&lt;br /&gt;&lt;/font&gt; &lt;font color=&quot;green&quot;&gt;roof%1:06:00::&lt;/font&gt; &lt;font color=&quot;green&quot;&gt;&lt;br /&gt; &lt;/font&gt;">
<text text-anchor="start" x="0" y="-26.6" font-family="Work Sans" font-size="8.00"> </text>
<text text-anchor="start" x="2.22" y="-26.6" font-family="Work Sans" font-size="8.00">STRUCTURE&#45;EXTERNAL&#45;COMPONENT</text>
<text text-anchor="start" x="151.12" y="-26.6" font-family="Work Sans" font-size="8.00"> </text>
<text text-anchor="start" x="53.78" y="-18.6" font-family="Work Sans" font-size="8.00"> </text>
<text text-anchor="start" x="56" y="-18.6" font-family="Work Sans" font-size="8.00" fill="red">THE</text>
<text text-anchor="start" x="72" y="-18.6" font-family="Work Sans" font-size="8.00"> </text>
<text text-anchor="start" x="74.23" y="-18.6" font-family="Work Sans" font-size="8.00" fill="blue">ROOF</text>
<text text-anchor="start" x="97.34" y="-18.6" font-family="Work Sans" font-size="8.00"> </text>
<text text-anchor="start" x="48.43" y="-10.6" font-family="Work Sans" font-size="8.00"> </text>
<text text-anchor="start" x="50.65" y="-10.6" font-family="Work Sans" font-size="8.00" fill="green">roof%1:06:00::</text>
<text text-anchor="start" x="102.69" y="-10.6" font-family="Work Sans" font-size="8.00"> </text>
<text text-anchor="start" x="75.56" y="-2.6" font-family="Work Sans" font-size="8.00" fill="green"> </text>
</a>
</g>
</g>
<!-- V44712&#45;&gt;V44739 -->
<g id="edge7" class="edge">
<title>V44712&#45;&gt;V44739</title>
<path fill="none" stroke="grey" stroke-width="0.5" d="M166.01,-92.5C155.1,-86.24 138.54,-76.22 125.22,-66 116.45,-59.27 107.41,-51.23 99.54,-43.83"/>
<polygon fill="grey" stroke="grey" stroke-width="0.5" points="100.61,-42.43 95.78,-40.26 98.2,-44.97 100.61,-42.43"/>
<text text-anchor="middle" x="147.89" y="-59.6" font-family="Work Sans" font-size="8.00"> GROUND &#160;&#160;</text>
</g>
</g>
</svg>
