<?xml version="1.0" encoding="UTF-8" standalone="no"?>
<!DOCTYPE svg PUBLIC "-//W3C//DTD SVG 1.1//EN"
 "http://www.w3.org/Graphics/SVG/1.1/DTD/svg11.dtd">
<!-- Generated by graphviz version 2.43.0 (0)
 -->
<!-- Title: graph Pages: 1 -->
<svg width="428pt" height="368pt"
 viewBox="0.00 0.00 428.27 368.00" xmlns="http://www.w3.org/2000/svg" xmlns:xlink="http://www.w3.org/1999/xlink">
<g id="graph0" class="graph" transform="scale(1 1) rotate(0) translate(4 364)">
<title>graph</title>
<polygon fill="white" stroke="transparent" points="-4,4 -4,-364 424.27,-364 424.27,4 -4,4"/>
<!-- V340525 -->
<g id="node1" class="node">
<title>V340525</title>
<g id="a_node1"><a xlink:href="http://trips.ihmc.us/lexicon/data/ONT::SA_TELL.xml" xlink:title="&lt;font color=&quot;green&quot;&gt;&lt;br /&gt;&lt;/font&gt; &lt;font color=&quot;black&quot;&gt;SA_TELL&lt;/font&gt; &lt;font color=&quot;green&quot;&gt;&lt;br /&gt;&lt;/font&gt; &lt;font color=&quot;red&quot;&gt;SPEECHACT&lt;/font&gt; &lt;font color=&quot;blue&quot;&gt;* &lt;/font&gt; &lt;font color=&quot;green&quot;&gt;&lt;br /&gt; &lt;/font&gt;">
<text text-anchor="start" x="251.57" y="-346.6" font-family="Work Sans" font-size="8.00"> </text>
<text text-anchor="start" x="253.79" y="-346.6" font-family="Work Sans" font-size="8.00">SA_TELL</text>
<text text-anchor="start" x="288.03" y="-346.6" font-family="Work Sans" font-size="8.00"> </text>
<text text-anchor="start" x="240.46" y="-338.6" font-family="Work Sans" font-size="8.00"> </text>
<text text-anchor="start" x="242.68" y="-338.6" font-family="Work Sans" font-size="8.00" fill="red">SPEECHACT</text>
<text text-anchor="start" x="291.58" y="-338.6" font-family="Work Sans" font-size="8.00"> </text>
<text text-anchor="start" x="293.8" y="-338.6" font-family="Work Sans" font-size="8.00" fill="blue">* </text>
<text text-anchor="start" x="299.14" y="-338.6" font-family="Work Sans" font-size="8.00"> </text>
<text text-anchor="start" x="269.8" y="-330.6" font-family="Work Sans" font-size="8.00" fill="green"> </text>
</a>
</g>
</g>
<!-- V340411 -->
<g id="node2" class="node">
<title>V340411</title>
<g id="a_node2"><a xlink:href="http://trips.ihmc.us/lexicon/data/ONT::EVENT-OF-ACTION.xml" xlink:title="&lt;font color=&quot;green&quot;&gt;&lt;br /&gt;&lt;/font&gt; &lt;font color=&quot;black&quot;&gt;EVENT&#45;OF&#45;ACTION&lt;/font&gt; &lt;font color=&quot;green&quot;&gt;&lt;br /&gt;&lt;/font&gt; &lt;font color=&quot;red&quot;&gt;F&lt;/font&gt; &lt;font color=&quot;blue&quot;&gt;* &lt;/font&gt; &lt;font color=&quot;green&quot;&gt;&lt;br /&gt; &lt;/font&gt;">
<polygon fill="pink" stroke="transparent" stroke-width="0.5" points="232.07,-252 270.91,-252 270.91,-284 232.07,-284 232.07,-252"/>
<polygon fill="lightblue" stroke="transparent" stroke-width="0.5" points="270.91,-252 309.75,-252 309.75,-284 270.91,-284 270.91,-252"/>
<polygon fill="none" stroke="transparent" points="309.75,-284 232.07,-284 232.07,-252 309.75,-252 309.75,-284"/>
<text text-anchor="start" x="232.24" y="-270.6" font-family="Work Sans" font-size="8.00"> </text>
<text text-anchor="start" x="234.46" y="-270.6" font-family="Work Sans" font-size="8.00">EVENT&#45;OF&#45;ACTION</text>
<text text-anchor="start" x="307.36" y="-270.6" font-family="Work Sans" font-size="8.00"> </text>
<text text-anchor="start" x="262.46" y="-262.6" font-family="Work Sans" font-size="8.00"> </text>
<text text-anchor="start" x="264.69" y="-262.6" font-family="Work Sans" font-size="8.00" fill="red">F</text>
<text text-anchor="start" x="269.57" y="-262.6" font-family="Work Sans" font-size="8.00"> </text>
<text text-anchor="start" x="271.8" y="-262.6" font-family="Work Sans" font-size="8.00" fill="blue">* </text>
<text text-anchor="start" x="277.13" y="-262.6" font-family="Work Sans" font-size="8.00"> </text>
<text text-anchor="start" x="269.8" y="-254.6" font-family="Work Sans" font-size="8.00" fill="green"> </text>
</a>
</g>
</g>
<!-- V340525&#45;&gt;V340411 -->
<g id="edge14" class="edge">
<title>V340525&#45;&gt;V340411</title>
<path fill="none" stroke="grey" stroke-width="0.5" d="M270.91,-327.67C270.91,-316.58 270.91,-301.49 270.91,-289.38"/>
<polygon fill="grey" stroke="grey" stroke-width="0.5" points="272.66,-289.06 270.91,-284.06 269.16,-289.06 272.66,-289.06"/>
<text text-anchor="middle" x="294.62" y="-303.6" font-family="Work Sans" font-size="8.00"> CONTENT &#160;&#160;</text>
</g>
<!-- V340235 -->
<g id="node3" class="node">
<title>V340235</title>
<g id="a_node3"><a xlink:href="http://trips.ihmc.us/lexicon/data/ONT::SELF-LOCOMOTE.xml" xlink:title="&lt;font color=&quot;green&quot;&gt;&lt;br /&gt;&lt;/font&gt; &lt;font color=&quot;black&quot;&gt;SELF&#45;LOCOMOTE&lt;/font&gt; &lt;font color=&quot;green&quot;&gt;&lt;br /&gt;&lt;/font&gt; &lt;font color=&quot;red&quot;&gt;F&lt;/font&gt; &lt;font color=&quot;blue&quot;&gt;GO&lt;/font&gt; &lt;font color=&quot;green&quot;&gt;&lt;br /&gt;&lt;/font&gt; &lt;font color=&quot;green&quot;&gt;go%2:38:00::&lt;/font&gt; &lt;font color=&quot;green&quot;&gt;&lt;br /&gt; &lt;/font&gt;">
<polygon fill="pink" stroke="transparent" stroke-width="0.5" points="91.51,-168 127.91,-168 127.91,-208 91.51,-208 91.51,-168"/>
<polygon fill="lightblue" stroke="transparent" stroke-width="0.5" points="127.91,-168 164.31,-168 164.31,-208 127.91,-208 127.91,-168"/>
<polygon fill="none" stroke="transparent" points="164.31,-208 91.51,-208 91.51,-168 164.31,-168 164.31,-208"/>
<text text-anchor="start" x="91.46" y="-194.6" font-family="Work Sans" font-size="8.00"> </text>
<text text-anchor="start" x="93.68" y="-194.6" font-family="Work Sans" font-size="8.00">SELF&#45;LOCOMOTE</text>
<text text-anchor="start" x="162.14" y="-194.6" font-family="Work Sans" font-size="8.00"> </text>
<text text-anchor="start" x="115.91" y="-186.6" font-family="Work Sans" font-size="8.00"> </text>
<text text-anchor="start" x="118.13" y="-186.6" font-family="Work Sans" font-size="8.00" fill="red">F</text>
<text text-anchor="start" x="123.02" y="-186.6" font-family="Work Sans" font-size="8.00"> </text>
<text text-anchor="start" x="125.24" y="-186.6" font-family="Work Sans" font-size="8.00" fill="blue">GO</text>
<text text-anchor="start" x="137.69" y="-186.6" font-family="Work Sans" font-size="8.00"> </text>
<text text-anchor="start" x="102.11" y="-178.6" font-family="Work Sans" font-size="8.00"> </text>
<text text-anchor="start" x="104.34" y="-178.6" font-family="Work Sans" font-size="8.00" fill="green">go%2:38:00::</text>
<text text-anchor="start" x="151.48" y="-178.6" font-family="Work Sans" font-size="8.00"> </text>
<text text-anchor="start" x="126.8" y="-170.6" font-family="Work Sans" font-size="8.00" fill="green"> </text>
</a>
</g>
</g>
<!-- V340411&#45;&gt;V340235 -->
<g id="edge3" class="edge">
<title>V340411&#45;&gt;V340235</title>
<path fill="none" stroke="red" d="M232.01,-263.42C194.15,-259.04 140.5,-250.12 127.67,-234 123.09,-228.24 121.91,-220.62 122.25,-213.29"/>
<polygon fill="red" stroke="red" points="124,-213.43 122.71,-208.29 120.51,-213.11 124,-213.43"/>
<text text-anchor="middle" x="157.03" y="-227.6" font-family="Work Sans" font-size="8.00"> SEQUENCE1 &#160;&#160;</text>
</g>
<!-- V340411&#45;&gt;V340235 -->
<g id="edge8" class="edge">
<title>V340411&#45;&gt;V340235</title>
<path fill="none" stroke="blue" d="M243.34,-251.96C221.79,-240.21 191.56,-223.72 167.44,-210.56"/>
<polygon fill="blue" stroke="blue" points="168.23,-209 163.01,-208.14 166.56,-212.07 168.23,-209"/>
<text text-anchor="middle" x="210.02" y="-227.6" font-family="Work Sans" font-size="8.00">.</text>
</g>
<!-- V340194 -->
<g id="node4" class="node">
<title>V340194</title>
<g id="a_node4"><a xlink:href="http://trips.ihmc.us/lexicon/data/ONT::MAINTAIN-KEEP.xml" xlink:title="&lt;font color=&quot;green&quot;&gt;&lt;br /&gt;&lt;/font&gt; &lt;font color=&quot;black&quot;&gt;MAINTAIN&#45;KEEP&lt;/font&gt; &lt;font color=&quot;green&quot;&gt;&lt;br /&gt;&lt;/font&gt; &lt;font color=&quot;red&quot;&gt;F&lt;/font&gt; &lt;font color=&quot;blue&quot;&gt;MAINTAIN&lt;/font&gt; &lt;font color=&quot;green&quot;&gt;&lt;br /&gt;&lt;/font&gt; &lt;font color=&quot;green&quot;&gt;maintain%2:42:00::&lt;/font&gt; &lt;font color=&quot;green&quot;&gt;&lt;br /&gt; &lt;/font&gt;">
<text text-anchor="start" x="230.87" y="-194.6" font-family="Work Sans" font-size="8.00"> </text>
<text text-anchor="start" x="233.09" y="-194.6" font-family="Work Sans" font-size="8.00">MAINTAIN&#45;KEEP</text>
<text text-anchor="start" x="294.73" y="-194.6" font-family="Work Sans" font-size="8.00"> </text>
<text text-anchor="start" x="239.32" y="-186.6" font-family="Work Sans" font-size="8.00"> </text>
<text text-anchor="start" x="241.54" y="-186.6" font-family="Work Sans" font-size="8.00" fill="red">F</text>
<text text-anchor="start" x="246.43" y="-186.6" font-family="Work Sans" font-size="8.00"> </text>
<text text-anchor="start" x="248.65" y="-186.6" font-family="Work Sans" font-size="8.00" fill="blue">MAINTAIN</text>
<text text-anchor="start" x="286.28" y="-186.6" font-family="Work Sans" font-size="8.00"> </text>
<text text-anchor="start" x="227.44" y="-178.6" font-family="Work Sans" font-size="8.00"> </text>
<text text-anchor="start" x="229.67" y="-178.6" font-family="Work Sans" font-size="8.00" fill="green">maintain%2:42:00::</text>
<text text-anchor="start" x="298.15" y="-178.6" font-family="Work Sans" font-size="8.00"> </text>
<text text-anchor="start" x="262.8" y="-170.6" font-family="Work Sans" font-size="8.00" fill="green"> </text>
</a>
</g>
</g>
<!-- V340411&#45;&gt;V340194 -->
<g id="edge2" class="edge">
<title>V340411&#45;&gt;V340194</title>
<path fill="none" stroke="red" d="M248.15,-251.93C242.51,-246.95 237.2,-240.89 234.12,-234 230.83,-226.63 233.13,-219.13 237.62,-212.41"/>
<polygon fill="red" stroke="red" points="239.08,-213.39 240.68,-208.34 236.28,-211.29 239.08,-213.39"/>
<text text-anchor="middle" x="261.8" y="-227.6" font-family="Work Sans" font-size="8.00"> SEQUENCE &#160;&#160;</text>
</g>
<!-- V340411&#45;&gt;V340194 -->
<g id="edge16" class="edge">
<title>V340411&#45;&gt;V340194</title>
<path fill="none" stroke="blue" d="M282.65,-251.7C287.08,-244.11 290.49,-234.72 287.91,-226 286.57,-221.47 284.48,-216.98 282.08,-212.76"/>
<polygon fill="blue" stroke="blue" points="283.47,-211.68 279.38,-208.31 280.48,-213.49 283.47,-211.68"/>
<text text-anchor="middle" x="290.02" y="-227.6" font-family="Work Sans" font-size="8.00">.</text>
</g>
<!-- V340186 -->
<g id="node5" class="node">
<title>V340186</title>
<g id="a_node5"><a xlink:href="http://trips.ihmc.us/lexicon/data/ONT::DEGREE-OF-BELIEF.xml" xlink:title="&lt;font color=&quot;green&quot;&gt;&lt;br /&gt;&lt;/font&gt; &lt;font color=&quot;black&quot;&gt;DEGREE&#45;OF&#45;BELIEF&lt;/font&gt; &lt;font color=&quot;green&quot;&gt;&lt;br /&gt;&lt;/font&gt; &lt;font color=&quot;red&quot;&gt;F&lt;/font&gt; &lt;font color=&quot;blue&quot;&gt;SOMEHOW&lt;/font&gt; &lt;font color=&quot;green&quot;&gt;&lt;br /&gt;&lt;/font&gt; &lt;font color=&quot;green&quot;&gt;somehow%4:02:00::&lt;/font&gt; &lt;font color=&quot;green&quot;&gt;&lt;br /&gt; &lt;/font&gt;">
<text text-anchor="start" x="318.79" y="-194.6" font-family="Work Sans" font-size="8.00"> </text>
<text text-anchor="start" x="321.02" y="-194.6" font-family="Work Sans" font-size="8.00">DEGREE&#45;OF&#45;BELIEF</text>
<text text-anchor="start" x="398.8" y="-194.6" font-family="Work Sans" font-size="8.00"> </text>
<text text-anchor="start" x="332.58" y="-186.6" font-family="Work Sans" font-size="8.00"> </text>
<text text-anchor="start" x="334.8" y="-186.6" font-family="Work Sans" font-size="8.00" fill="red">F</text>
<text text-anchor="start" x="339.69" y="-186.6" font-family="Work Sans" font-size="8.00"> </text>
<text text-anchor="start" x="341.91" y="-186.6" font-family="Work Sans" font-size="8.00" fill="blue">SOMEHOW</text>
<text text-anchor="start" x="385.02" y="-186.6" font-family="Work Sans" font-size="8.00"> </text>
<text text-anchor="start" x="321.44" y="-178.6" font-family="Work Sans" font-size="8.00"> </text>
<text text-anchor="start" x="323.67" y="-178.6" font-family="Work Sans" font-size="8.00" fill="green">somehow%4:02:00::</text>
<text text-anchor="start" x="396.15" y="-178.6" font-family="Work Sans" font-size="8.00"> </text>
<text text-anchor="start" x="358.8" y="-170.6" font-family="Work Sans" font-size="8.00" fill="green"> </text>
</a>
</g>
</g>
<!-- V340411&#45;&gt;V340186 -->
<g id="edge6" class="edge">
<title>V340411&#45;&gt;V340186</title>
<path fill="none" stroke="grey" stroke-width="0.5" d="M288.07,-251.96C301.09,-240.55 319.21,-224.67 333.99,-211.71"/>
<polygon fill="grey" stroke="grey" stroke-width="0.5" points="335.46,-212.76 338.07,-208.14 333.15,-210.12 335.46,-212.76"/>
<text text-anchor="middle" x="329.69" y="-227.6" font-family="Work Sans" font-size="8.00"> MOD &#160;&#160;</text>
</g>
<!-- V340189 -->
<g id="node6" class="node">
<title>V340189</title>
<g id="a_node6"><a xlink:href="http://trips.ihmc.us/lexicon/data/ONT::MALE-PERSON.xml" xlink:title="&lt;font color=&quot;green&quot;&gt;&lt;br /&gt;&lt;/font&gt; &lt;font color=&quot;black&quot;&gt;MALE&#45;PERSON&lt;/font&gt; &lt;font color=&quot;green&quot;&gt;&lt;br /&gt;&lt;/font&gt; &lt;font color=&quot;red&quot;&gt;PRO&lt;/font&gt; &lt;font color=&quot;blue&quot;&gt;HE&lt;/font&gt; &lt;font color=&quot;green&quot;&gt;&lt;br /&gt;&lt;/font&gt; &lt;font color=&quot;green&quot;&gt;man%1:18:00&lt;/font&gt; &lt;font color=&quot;green&quot;&gt;&lt;br /&gt; &lt;/font&gt;">
<text text-anchor="start" x="158.57" y="-26.6" font-family="Work Sans" font-size="8.00"> </text>
<text text-anchor="start" x="160.79" y="-26.6" font-family="Work Sans" font-size="8.00">MALE&#45;PERSON</text>
<text text-anchor="start" x="219.03" y="-26.6" font-family="Work Sans" font-size="8.00"> </text>
<text text-anchor="start" x="172.35" y="-18.6" font-family="Work Sans" font-size="8.00"> </text>
<text text-anchor="start" x="174.57" y="-18.6" font-family="Work Sans" font-size="8.00" fill="red">PRO</text>
<text text-anchor="start" x="191.91" y="-18.6" font-family="Work Sans" font-size="8.00"> </text>
<text text-anchor="start" x="194.13" y="-18.6" font-family="Work Sans" font-size="8.00" fill="blue">HE</text>
<text text-anchor="start" x="205.25" y="-18.6" font-family="Work Sans" font-size="8.00"> </text>
<text text-anchor="start" x="163" y="-10.6" font-family="Work Sans" font-size="8.00"> </text>
<text text-anchor="start" x="165.23" y="-10.6" font-family="Work Sans" font-size="8.00" fill="green">man%1:18:00</text>
<text text-anchor="start" x="214.59" y="-10.6" font-family="Work Sans" font-size="8.00"> </text>
<text text-anchor="start" x="188.8" y="-2.6" font-family="Work Sans" font-size="8.00" fill="green"> </text>
</a>
</g>
</g>
<!-- V340235&#45;&gt;V340189 -->
<g id="edge11" class="edge">
<title>V340235&#45;&gt;V340189</title>
<path fill="none" stroke="red" d="M135.02,-167.96C146.39,-137.52 168.64,-77.96 181.03,-44.77"/>
<polygon fill="red" stroke="red" points="182.68,-45.37 182.79,-40.08 179.4,-44.15 182.68,-45.37"/>
<text text-anchor="middle" x="184.85" y="-101.6" font-family="Work Sans" font-size="8.00"> AGENT &#160;&#160;</text>
</g>
<!-- V340235&#45;&gt;V340189 -->
<g id="edge13" class="edge">
<title>V340235&#45;&gt;V340189</title>
<path fill="none" stroke="blue" d="M162.86,-167.77C178.49,-157.12 195.31,-142.3 203.91,-124 215.76,-98.79 208.23,-66.55 200.39,-44.91"/>
<polygon fill="blue" stroke="blue" points="202.01,-44.25 198.61,-40.19 198.73,-45.48 202.01,-44.25"/>
<text text-anchor="middle" x="212.02" y="-101.6" font-family="Work Sans" font-size="8.00">.</text>
</g>
<!-- V340250 -->
<g id="node9" class="node">
<title>V340250</title>
<g id="a_node9"><a xlink:href="http://trips.ihmc.us/lexicon/data/ONT::POS-AS-OPPOSITE.xml" xlink:title="&lt;font color=&quot;green&quot;&gt;&lt;br /&gt;&lt;/font&gt; &lt;font color=&quot;black&quot;&gt;POS&#45;AS&#45;OPPOSITE&lt;/font&gt; &lt;font color=&quot;green&quot;&gt;&lt;br /&gt;&lt;/font&gt; &lt;font color=&quot;red&quot;&gt;F&lt;/font&gt; &lt;font color=&quot;blue&quot;&gt;ACROSS&lt;/font&gt; &lt;font color=&quot;green&quot;&gt;&lt;br /&gt; &lt;/font&gt;">
<polygon fill="pink" stroke="transparent" stroke-width="0.5" points="36.67,-88 75.91,-88 75.91,-120 36.67,-120 36.67,-88"/>
<polygon fill="lightblue" stroke="transparent" stroke-width="0.5" points="75.91,-88 115.15,-88 115.15,-120 75.91,-120 75.91,-88"/>
<polygon fill="none" stroke="transparent" points="115.15,-120 36.67,-120 36.67,-88 115.15,-88 115.15,-120"/>
<text text-anchor="start" x="36.79" y="-106.6" font-family="Work Sans" font-size="8.00"> </text>
<text text-anchor="start" x="39.01" y="-106.6" font-family="Work Sans" font-size="8.00">POS&#45;AS&#45;OPPOSITE</text>
<text text-anchor="start" x="112.81" y="-106.6" font-family="Work Sans" font-size="8.00"> </text>
<text text-anchor="start" x="53.24" y="-98.6" font-family="Work Sans" font-size="8.00"> </text>
<text text-anchor="start" x="55.46" y="-98.6" font-family="Work Sans" font-size="8.00" fill="red">F</text>
<text text-anchor="start" x="60.35" y="-98.6" font-family="Work Sans" font-size="8.00"> </text>
<text text-anchor="start" x="62.57" y="-98.6" font-family="Work Sans" font-size="8.00" fill="blue">ACROSS</text>
<text text-anchor="start" x="96.36" y="-98.6" font-family="Work Sans" font-size="8.00"> </text>
<text text-anchor="start" x="74.8" y="-90.6" font-family="Work Sans" font-size="8.00" fill="green"> </text>
</a>
</g>
</g>
<!-- V340235&#45;&gt;V340250 -->
<g id="edge1" class="edge">
<title>V340235&#45;&gt;V340250</title>
<path fill="none" stroke="blue" d="M97.16,-167.95C91.14,-162.84 85.51,-156.81 81.69,-150 77.55,-142.63 75.87,-133.54 75.31,-125.46"/>
<polygon fill="blue" stroke="blue" points="77.04,-124.99 75.08,-120.06 73.54,-125.13 77.04,-124.99"/>
<text text-anchor="middle" x="83.02" y="-143.6" font-family="Work Sans" font-size="8.00">.</text>
</g>
<!-- V340235&#45;&gt;V340250 -->
<g id="edge10" class="edge">
<title>V340235&#45;&gt;V340250</title>
<path fill="none" stroke="red" d="M112.68,-167.8C108.46,-162.18 103.99,-155.95 100.19,-150 95.12,-142.07 90.09,-132.99 85.93,-125.08"/>
<polygon fill="red" stroke="red" points="87.31,-123.95 83.46,-120.32 84.21,-125.56 87.31,-123.95"/>
<text text-anchor="middle" x="120.77" y="-143.6" font-family="Work Sans" font-size="8.00"> RESULT &#160;&#160;</text>
</g>
<!-- V340194&#45;&gt;V340189 -->
<g id="edge7" class="edge">
<title>V340194&#45;&gt;V340189</title>
<path fill="none" stroke="grey" stroke-width="0.5" d="M259.61,-167.76C253.3,-141.75 240.06,-94.45 219.91,-58 217.28,-53.23 214.01,-48.47 210.62,-44.03"/>
<polygon fill="grey" stroke="grey" stroke-width="0.5" points="211.95,-42.89 207.48,-40.04 209.2,-45.05 211.95,-42.89"/>
<text text-anchor="middle" x="264.85" y="-101.6" font-family="Work Sans" font-size="8.00"> AGENT &#160;&#160;</text>
</g>
<!-- V340204 -->
<g id="node7" class="node">
<title>V340204</title>
<g id="a_node7"><a xlink:href="http://trips.ihmc.us/lexicon/data/ONT::DOMAIN.xml" xlink:title="&lt;font color=&quot;green&quot;&gt;&lt;br /&gt;&lt;/font&gt; &lt;font color=&quot;black&quot;&gt;DOMAIN&lt;/font&gt; &lt;font color=&quot;green&quot;&gt;&lt;br /&gt;&lt;/font&gt; &lt;font color=&quot;red&quot;&gt;THE&lt;/font&gt; &lt;font color=&quot;blue&quot;&gt;COMPOSURE&lt;/font&gt; &lt;font color=&quot;green&quot;&gt;&lt;br /&gt;&lt;/font&gt; &lt;font color=&quot;green&quot;&gt;composure%1:07:00::&lt;/font&gt; &lt;font color=&quot;green&quot;&gt;&lt;br /&gt; &lt;/font&gt;">
<text text-anchor="start" x="340.69" y="-110.6" font-family="Work Sans" font-size="8.00"> </text>
<text text-anchor="start" x="342.91" y="-110.6" font-family="Work Sans" font-size="8.00">DOMAIN</text>
<text text-anchor="start" x="374.91" y="-110.6" font-family="Work Sans" font-size="8.00"> </text>
<text text-anchor="start" x="321.35" y="-102.6" font-family="Work Sans" font-size="8.00"> </text>
<text text-anchor="start" x="323.57" y="-102.6" font-family="Work Sans" font-size="8.00" fill="red">THE</text>
<text text-anchor="start" x="339.57" y="-102.6" font-family="Work Sans" font-size="8.00"> </text>
<text text-anchor="start" x="341.8" y="-102.6" font-family="Work Sans" font-size="8.00" fill="blue">COMPOSURE</text>
<text text-anchor="start" x="394.25" y="-102.6" font-family="Work Sans" font-size="8.00"> </text>
<text text-anchor="start" x="317.78" y="-94.6" font-family="Work Sans" font-size="8.00"> </text>
<text text-anchor="start" x="320" y="-94.6" font-family="Work Sans" font-size="8.00" fill="green">composure%1:07:00::</text>
<text text-anchor="start" x="397.82" y="-94.6" font-family="Work Sans" font-size="8.00"> </text>
<text text-anchor="start" x="357.8" y="-86.6" font-family="Work Sans" font-size="8.00" fill="green"> </text>
</a>
</g>
</g>
<!-- V340194&#45;&gt;V340204 -->
<g id="edge4" class="edge">
<title>V340194&#45;&gt;V340204</title>
<path fill="none" stroke="grey" stroke-width="0.5" d="M285.94,-167.98C299.87,-155.96 317.95,-140.36 332.62,-127.69"/>
<polygon fill="grey" stroke="grey" stroke-width="0.5" points="334.03,-128.79 336.67,-124.2 331.74,-126.14 334.03,-128.79"/>
<text text-anchor="middle" x="340.25" y="-143.6" font-family="Work Sans" font-size="8.00"> AFFECTED &#160;&#160;</text>
</g>
<!-- V340186&#45;&gt;V340411 -->
<g id="edge5" class="edge">
<title>V340186&#45;&gt;V340411</title>
<path fill="none" stroke="grey" stroke-width="0.5" d="M367,-208.44C368.84,-216.97 369.07,-226.7 363.91,-234 352.71,-249.86 333.19,-258.15 314.93,-262.45"/>
<polygon fill="grey" stroke="grey" stroke-width="0.5" points="314.33,-260.79 309.81,-263.57 315.07,-264.21 314.33,-260.79"/>
<text text-anchor="middle" x="386.47" y="-227.6" font-family="Work Sans" font-size="8.00"> FIGURE &#160;&#160;</text>
</g>
<!-- V340198 -->
<g id="node8" class="node">
<title>V340198</title>
<g id="a_node8"><a xlink:href="http://trips.ihmc.us/lexicon/data/ONT::MALE-PERSON.xml" xlink:title="&lt;font color=&quot;green&quot;&gt;&lt;br /&gt;&lt;/font&gt; &lt;font color=&quot;black&quot;&gt;MALE&#45;PERSON&lt;/font&gt; &lt;font color=&quot;green&quot;&gt;&lt;br /&gt;&lt;/font&gt; &lt;font color=&quot;red&quot;&gt;PRO&lt;/font&gt; &lt;font color=&quot;blue&quot;&gt;HIS&lt;/font&gt; &lt;font color=&quot;green&quot;&gt;&lt;br /&gt;&lt;/font&gt; &lt;font color=&quot;green&quot;&gt;man%1:18:00&lt;/font&gt; &lt;font color=&quot;green&quot;&gt;&lt;br /&gt; &lt;/font&gt;">
<text text-anchor="start" x="327.57" y="-26.6" font-family="Work Sans" font-size="8.00"> </text>
<text text-anchor="start" x="329.79" y="-26.6" font-family="Work Sans" font-size="8.00">MALE&#45;PERSON</text>
<text text-anchor="start" x="388.03" y="-26.6" font-family="Work Sans" font-size="8.00"> </text>
<text text-anchor="start" x="340.24" y="-18.6" font-family="Work Sans" font-size="8.00"> </text>
<text text-anchor="start" x="342.46" y="-18.6" font-family="Work Sans" font-size="8.00" fill="red">PRO</text>
<text text-anchor="start" x="359.8" y="-18.6" font-family="Work Sans" font-size="8.00"> </text>
<text text-anchor="start" x="362.02" y="-18.6" font-family="Work Sans" font-size="8.00" fill="blue">HIS</text>
<text text-anchor="start" x="375.36" y="-18.6" font-family="Work Sans" font-size="8.00"> </text>
<text text-anchor="start" x="332" y="-10.6" font-family="Work Sans" font-size="8.00"> </text>
<text text-anchor="start" x="334.23" y="-10.6" font-family="Work Sans" font-size="8.00" fill="green">man%1:18:00</text>
<text text-anchor="start" x="383.59" y="-10.6" font-family="Work Sans" font-size="8.00"> </text>
<text text-anchor="start" x="357.8" y="-2.6" font-family="Work Sans" font-size="8.00" fill="green"> </text>
</a>
</g>
</g>
<!-- V340204&#45;&gt;V340198 -->
<g id="edge12" class="edge">
<title>V340204&#45;&gt;V340198</title>
<path fill="none" stroke="grey" stroke-width="0.5" d="M358.91,-83.98C358.91,-72.47 358.91,-57.68 358.91,-45.33"/>
<polygon fill="grey" stroke="grey" stroke-width="0.5" points="360.66,-45.2 358.91,-40.2 357.16,-45.2 360.66,-45.2"/>
<text text-anchor="middle" x="389.59" y="-59.6" font-family="Work Sans" font-size="8.00"> ASSOC&#45;POSS &#160;&#160;</text>
</g>
<!-- V340250&#45;&gt;V340189 -->
<g id="edge15" class="edge">
<title>V340250&#45;&gt;V340189</title>
<path fill="none" stroke="red" stroke-width="0.5" d="M81.22,-87.94C85.29,-78.29 91.75,-66.09 100.8,-58 115.75,-44.63 136.21,-35.67 153.76,-29.92"/>
<polygon fill="red" stroke="red" stroke-width="0.5" points="154.38,-31.56 158.62,-28.39 153.33,-28.23 154.38,-31.56"/>
<text text-anchor="middle" x="120.47" y="-59.6" font-family="Work Sans" font-size="8.00"> FIGURE &#160;&#160;</text>
</g>
<!-- V340264 -->
<g id="node10" class="node">
<title>V340264</title>
<g id="a_node10"><a xlink:href="http://trips.ihmc.us/lexicon/data/ONT::EDGE.xml" xlink:title="&lt;font color=&quot;green&quot;&gt;&lt;br /&gt;&lt;/font&gt; &lt;font color=&quot;black&quot;&gt;EDGE&lt;/font&gt; &lt;font color=&quot;green&quot;&gt;&lt;br /&gt;&lt;/font&gt; &lt;font color=&quot;red&quot;&gt;THE&lt;/font&gt; &lt;font color=&quot;blue&quot;&gt;BORDER&lt;/font&gt; &lt;font color=&quot;green&quot;&gt;&lt;br /&gt;&lt;/font&gt; &lt;font color=&quot;green&quot;&gt;border%1:25:00::&lt;/font&gt; &lt;font color=&quot;green&quot;&gt;&lt;br /&gt; &lt;/font&gt;">
<text text-anchor="start" x="19.35" y="-26.6" font-family="Work Sans" font-size="8.00"> </text>
<text text-anchor="start" x="21.57" y="-26.6" font-family="Work Sans" font-size="8.00">EDGE</text>
<text text-anchor="start" x="44.25" y="-26.6" font-family="Work Sans" font-size="8.00"> </text>
<text text-anchor="start" x="4.46" y="-18.6" font-family="Work Sans" font-size="8.00"> </text>
<text text-anchor="start" x="6.69" y="-18.6" font-family="Work Sans" font-size="8.00" fill="red">THE</text>
<text text-anchor="start" x="22.69" y="-18.6" font-family="Work Sans" font-size="8.00"> </text>
<text text-anchor="start" x="24.91" y="-18.6" font-family="Work Sans" font-size="8.00" fill="blue">BORDER</text>
<text text-anchor="start" x="59.13" y="-18.6" font-family="Work Sans" font-size="8.00"> </text>
<text text-anchor="start" x="0" y="-10.6" font-family="Work Sans" font-size="8.00"> </text>
<text text-anchor="start" x="2.22" y="-10.6" font-family="Work Sans" font-size="8.00" fill="green">border%1:25:00::</text>
<text text-anchor="start" x="63.6" y="-10.6" font-family="Work Sans" font-size="8.00"> </text>
<text text-anchor="start" x="31.8" y="-2.6" font-family="Work Sans" font-size="8.00" fill="green"> </text>
</a>
</g>
</g>
<!-- V340250&#45;&gt;V340264 -->
<g id="edge9" class="edge">
<title>V340250&#45;&gt;V340264</title>
<path fill="none" stroke="grey" stroke-width="0.5" d="M51.51,-87.69C44.36,-81.85 37.4,-74.52 33.46,-66 30.54,-59.67 29.59,-52.28 29.58,-45.35"/>
<polygon fill="grey" stroke="grey" stroke-width="0.5" points="31.34,-45.21 29.75,-40.16 27.84,-45.1 31.34,-45.21"/>
<text text-anchor="middle" x="56.13" y="-59.6" font-family="Work Sans" font-size="8.00"> GROUND &#160;&#160;</text>
</g>
</g>
</svg>
