<?xml version="1.0" encoding="UTF-8" standalone="no"?>
<!DOCTYPE svg PUBLIC "-//W3C//DTD SVG 1.1//EN"
 "http://www.w3.org/Graphics/SVG/1.1/DTD/svg11.dtd">
<!-- Generated by graphviz version 2.43.0 (0)
 -->
<!-- Title: graph Pages: 1 -->
<svg width="293pt" height="284pt"
 viewBox="0.00 0.00 293.23 284.00" xmlns="http://www.w3.org/2000/svg" xmlns:xlink="http://www.w3.org/1999/xlink">
<g id="graph0" class="graph" transform="scale(1 1) rotate(0) translate(4 280)">
<title>graph</title>
<polygon fill="white" stroke="transparent" points="-4,4 -4,-280 289.23,-280 289.23,4 -4,4"/>
<!-- V217729 -->
<g id="node1" class="node">
<title>V217729</title>
<g id="a_node1"><a xlink:href="http://trips.ihmc.us/lexicon/data/ONT::SA_TELL.xml" xlink:title="&lt;font color=&quot;green&quot;&gt;&lt;br /&gt;&lt;/font&gt; &lt;font color=&quot;black&quot;&gt;SA_TELL&lt;/font&gt; &lt;font color=&quot;green&quot;&gt;&lt;br /&gt;&lt;/font&gt; &lt;font color=&quot;red&quot;&gt;SPEECHACT&lt;/font&gt; &lt;font color=&quot;blue&quot;&gt;* &lt;/font&gt; &lt;font color=&quot;green&quot;&gt;&lt;br /&gt; &lt;/font&gt;">
<text text-anchor="start" x="142.66" y="-262.6" font-family="Work Sans" font-size="8.00"> </text>
<text text-anchor="start" x="144.89" y="-262.6" font-family="Work Sans" font-size="8.00">SA_TELL</text>
<text text-anchor="start" x="179.13" y="-262.6" font-family="Work Sans" font-size="8.00"> </text>
<text text-anchor="start" x="131.56" y="-254.6" font-family="Work Sans" font-size="8.00"> </text>
<text text-anchor="start" x="133.78" y="-254.6" font-family="Work Sans" font-size="8.00" fill="red">SPEECHACT</text>
<text text-anchor="start" x="182.68" y="-254.6" font-family="Work Sans" font-size="8.00"> </text>
<text text-anchor="start" x="184.9" y="-254.6" font-family="Work Sans" font-size="8.00" fill="blue">* </text>
<text text-anchor="start" x="190.24" y="-254.6" font-family="Work Sans" font-size="8.00"> </text>
<text text-anchor="start" x="160.9" y="-246.6" font-family="Work Sans" font-size="8.00" fill="green"> </text>
</a>
</g>
</g>
<!-- V217687 -->
<g id="node2" class="node">
<title>V217687</title>
<g id="a_node2"><a xlink:href="http://trips.ihmc.us/lexicon/data/ONT::SITUATION-ROOT.xml" xlink:title="&lt;font color=&quot;green&quot;&gt;&lt;br /&gt;&lt;/font&gt; &lt;font color=&quot;black&quot;&gt;SITUATION&#45;ROOT&lt;/font&gt; &lt;font color=&quot;green&quot;&gt;&lt;br /&gt;&lt;/font&gt; &lt;font color=&quot;red&quot;&gt;F&lt;/font&gt; &lt;font color=&quot;blue&quot;&gt;* &lt;/font&gt; &lt;font color=&quot;green&quot;&gt;&lt;br /&gt; &lt;/font&gt;">
<polygon fill="pink" stroke="transparent" stroke-width="0.5" points="125.71,-168 162.01,-168 162.01,-200 125.71,-200 125.71,-168"/>
<polygon fill="lightblue" stroke="transparent" stroke-width="0.5" points="162.01,-168 198.31,-168 198.31,-200 162.01,-200 162.01,-168"/>
<polygon fill="none" stroke="transparent" points="198.31,-200 125.71,-200 125.71,-168 198.31,-168 198.31,-200"/>
<text text-anchor="start" x="125.86" y="-186.6" font-family="Work Sans" font-size="8.00"> </text>
<text text-anchor="start" x="128.08" y="-186.6" font-family="Work Sans" font-size="8.00">SITUATION&#45;ROOT</text>
<text text-anchor="start" x="195.93" y="-186.6" font-family="Work Sans" font-size="8.00"> </text>
<text text-anchor="start" x="153.56" y="-178.6" font-family="Work Sans" font-size="8.00"> </text>
<text text-anchor="start" x="155.79" y="-178.6" font-family="Work Sans" font-size="8.00" fill="red">F</text>
<text text-anchor="start" x="160.67" y="-178.6" font-family="Work Sans" font-size="8.00"> </text>
<text text-anchor="start" x="162.89" y="-178.6" font-family="Work Sans" font-size="8.00" fill="blue">* </text>
<text text-anchor="start" x="168.23" y="-178.6" font-family="Work Sans" font-size="8.00"> </text>
<text text-anchor="start" x="160.9" y="-170.6" font-family="Work Sans" font-size="8.00" fill="green"> </text>
</a>
</g>
</g>
<!-- V217729&#45;&gt;V217687 -->
<g id="edge7" class="edge">
<title>V217729&#45;&gt;V217687</title>
<path fill="none" stroke="grey" stroke-width="0.5" d="M162.01,-243.67C162.01,-232.58 162.01,-217.49 162.01,-205.38"/>
<polygon fill="grey" stroke="grey" stroke-width="0.5" points="163.76,-205.06 162.01,-200.06 160.26,-205.06 163.76,-205.06"/>
<text text-anchor="middle" x="185.71" y="-219.6" font-family="Work Sans" font-size="8.00"> CONTENT &#160;&#160;</text>
</g>
<!-- V217638 -->
<g id="node3" class="node">
<title>V217638</title>
<g id="a_node3"><a xlink:href="http://trips.ihmc.us/lexicon/data/ONT::SOUND-EXPRESSION.xml" xlink:title="&lt;font color=&quot;green&quot;&gt;&lt;br /&gt;&lt;/font&gt; &lt;font color=&quot;black&quot;&gt;SOUND&#45;EXPRESSION&lt;/font&gt; &lt;font color=&quot;green&quot;&gt;&lt;br /&gt;&lt;/font&gt; &lt;font color=&quot;red&quot;&gt;F&lt;/font&gt; &lt;font color=&quot;blue&quot;&gt;CRY&lt;/font&gt; &lt;font color=&quot;green&quot;&gt;&lt;br /&gt;&lt;/font&gt; &lt;font color=&quot;green&quot;&gt;cry%2:29:00::&lt;/font&gt; &lt;font color=&quot;green&quot;&gt;&lt;br /&gt; &lt;/font&gt;">
<text text-anchor="start" x="0" y="-110.6" font-family="Work Sans" font-size="8.00"> </text>
<text text-anchor="start" x="2.22" y="-110.6" font-family="Work Sans" font-size="8.00">SOUND&#45;EXPRESSION</text>
<text text-anchor="start" x="85.79" y="-110.6" font-family="Work Sans" font-size="8.00"> </text>
<text text-anchor="start" x="29.86" y="-102.6" font-family="Work Sans" font-size="8.00"> </text>
<text text-anchor="start" x="32.08" y="-102.6" font-family="Work Sans" font-size="8.00" fill="red">F</text>
<text text-anchor="start" x="36.96" y="-102.6" font-family="Work Sans" font-size="8.00"> </text>
<text text-anchor="start" x="39.19" y="-102.6" font-family="Work Sans" font-size="8.00" fill="blue">CRY</text>
<text text-anchor="start" x="55.94" y="-102.6" font-family="Work Sans" font-size="8.00"> </text>
<text text-anchor="start" x="17.33" y="-94.6" font-family="Work Sans" font-size="8.00"> </text>
<text text-anchor="start" x="19.55" y="-94.6" font-family="Work Sans" font-size="8.00" fill="green">cry%2:29:00::</text>
<text text-anchor="start" x="68.46" y="-94.6" font-family="Work Sans" font-size="8.00"> </text>
<text text-anchor="start" x="42.9" y="-86.6" font-family="Work Sans" font-size="8.00" fill="green"> </text>
</a>
</g>
</g>
<!-- V217687&#45;&gt;V217638 -->
<g id="edge10" class="edge">
<title>V217687&#45;&gt;V217638</title>
<path fill="none" stroke="red" d="M125.83,-183.48C98.86,-181.7 63.55,-174.37 44.77,-150 40.27,-144.17 38.99,-136.53 39.15,-129.21"/>
<polygon fill="red" stroke="red" points="40.9,-129.32 39.48,-124.21 37.41,-129.09 40.9,-129.32"/>
<text text-anchor="middle" x="74.13" y="-143.6" font-family="Work Sans" font-size="8.00"> SEQUENCE1 &#160;&#160;</text>
</g>
<!-- V217687&#45;&gt;V217638 -->
<g id="edge11" class="edge">
<title>V217687&#45;&gt;V217638</title>
<path fill="none" stroke="blue" d="M140.87,-167.95C129.7,-160.09 115.71,-150.39 103.01,-142 95.43,-137 87.22,-131.74 79.41,-126.82"/>
<polygon fill="blue" stroke="blue" points="80.28,-125.3 75.11,-124.12 78.41,-128.26 80.28,-125.3"/>
<text text-anchor="middle" x="116.12" y="-143.6" font-family="Work Sans" font-size="8.00">.</text>
</g>
<!-- V217602 -->
<g id="node4" class="node">
<title>V217602</title>
<g id="a_node4"><a xlink:href="http://trips.ihmc.us/lexicon/data/ONT::ACTIVE-PERCEPTION.xml" xlink:title="&lt;font color=&quot;green&quot;&gt;&lt;br /&gt;&lt;/font&gt; &lt;font color=&quot;black&quot;&gt;ACTIVE&#45;PERCEPTION&lt;/font&gt; &lt;font color=&quot;green&quot;&gt;&lt;br /&gt;&lt;/font&gt; &lt;font color=&quot;red&quot;&gt;F&lt;/font&gt; &lt;font color=&quot;blue&quot;&gt;SEE&lt;/font&gt; &lt;font color=&quot;green&quot;&gt;&lt;br /&gt;&lt;/font&gt; &lt;font color=&quot;green&quot;&gt;see%2:39:00::&lt;/font&gt; &lt;font color=&quot;green&quot;&gt;&lt;br /&gt; &lt;/font&gt;">
<polygon fill="pink" stroke="transparent" stroke-width="0.5" points="114,-84 158.01,-84 158.01,-124 114,-124 114,-84"/>
<polygon fill="lightblue" stroke="transparent" stroke-width="0.5" points="158.01,-84 202.02,-84 202.02,-124 158.01,-124 158.01,-84"/>
<polygon fill="none" stroke="transparent" points="202.02,-124 114,-124 114,-84 202.02,-84 202.02,-124"/>
<text text-anchor="start" x="114" y="-110.6" font-family="Work Sans" font-size="8.00"> </text>
<text text-anchor="start" x="116.22" y="-110.6" font-family="Work Sans" font-size="8.00">ACTIVE&#45;PERCEPTION</text>
<text text-anchor="start" x="199.79" y="-110.6" font-family="Work Sans" font-size="8.00"> </text>
<text text-anchor="start" x="144.23" y="-102.6" font-family="Work Sans" font-size="8.00"> </text>
<text text-anchor="start" x="146.45" y="-102.6" font-family="Work Sans" font-size="8.00" fill="red">F</text>
<text text-anchor="start" x="151.34" y="-102.6" font-family="Work Sans" font-size="8.00"> </text>
<text text-anchor="start" x="153.56" y="-102.6" font-family="Work Sans" font-size="8.00" fill="blue">SEE</text>
<text text-anchor="start" x="169.57" y="-102.6" font-family="Work Sans" font-size="8.00"> </text>
<text text-anchor="start" x="130.21" y="-94.6" font-family="Work Sans" font-size="8.00"> </text>
<text text-anchor="start" x="132.43" y="-94.6" font-family="Work Sans" font-size="8.00" fill="green">see%2:39:00::</text>
<text text-anchor="start" x="183.58" y="-94.6" font-family="Work Sans" font-size="8.00"> </text>
<text text-anchor="start" x="156.9" y="-86.6" font-family="Work Sans" font-size="8.00" fill="green"> </text>
</a>
</g>
</g>
<!-- V217687&#45;&gt;V217602 -->
<g id="edge6" class="edge">
<title>V217687&#45;&gt;V217602</title>
<path fill="none" stroke="blue" d="M159.67,-167.92C158.91,-162.31 158.16,-155.88 157.79,-150 157.36,-143.29 157.24,-136.01 157.28,-129.29"/>
<polygon fill="blue" stroke="blue" points="159.03,-129.31 157.33,-124.29 155.53,-129.27 159.03,-129.31"/>
<text text-anchor="middle" x="158.12" y="-143.6" font-family="Work Sans" font-size="8.00">.</text>
</g>
<!-- V217687&#45;&gt;V217602 -->
<g id="edge8" class="edge">
<title>V217687&#45;&gt;V217602</title>
<path fill="none" stroke="red" d="M161.24,-167.96C160.68,-157.04 159.91,-142.02 159.26,-129.39"/>
<polygon fill="red" stroke="red" points="160.99,-129.05 158.99,-124.14 157.5,-129.23 160.99,-129.05"/>
<text text-anchor="middle" x="186.9" y="-143.6" font-family="Work Sans" font-size="8.00"> SEQUENCE &#160;&#160;</text>
</g>
<!-- V217588 -->
<g id="node5" class="node">
<title>V217588</title>
<g id="a_node5"><a xlink:href="http://trips.ihmc.us/lexicon/data/ONT::PERSON.xml" xlink:title="&lt;font color=&quot;green&quot;&gt;&lt;br /&gt;&lt;/font&gt; &lt;font color=&quot;black&quot;&gt;PERSON&lt;/font&gt; &lt;font color=&quot;green&quot;&gt;&lt;br /&gt;&lt;/font&gt; &lt;font color=&quot;red&quot;&gt;PRO&lt;/font&gt; &lt;font color=&quot;blue&quot;&gt;I&lt;/font&gt; &lt;font color=&quot;green&quot;&gt;&lt;br /&gt;&lt;/font&gt; &lt;font color=&quot;green&quot;&gt;person%1:03:00&lt;/font&gt; &lt;font color=&quot;green&quot;&gt;&lt;br /&gt; &lt;/font&gt;">
<polygon fill="pink" stroke="transparent" points="71.22,-40 8.8,-40 8.8,0 71.22,0 71.22,-40"/>
<text text-anchor="start" x="20.89" y="-26.6" font-family="Work Sans" font-size="8.00"> </text>
<text text-anchor="start" x="23.12" y="-26.6" font-family="Work Sans" font-size="8.00">PERSON</text>
<text text-anchor="start" x="56.9" y="-26.6" font-family="Work Sans" font-size="8.00"> </text>
<text text-anchor="start" x="26.89" y="-18.6" font-family="Work Sans" font-size="8.00"> </text>
<text text-anchor="start" x="29.12" y="-18.6" font-family="Work Sans" font-size="8.00" fill="red">PRO</text>
<text text-anchor="start" x="46.45" y="-18.6" font-family="Work Sans" font-size="8.00"> </text>
<text text-anchor="start" x="48.68" y="-18.6" font-family="Work Sans" font-size="8.00" fill="blue">I</text>
<text text-anchor="start" x="50.9" y="-18.6" font-family="Work Sans" font-size="8.00"> </text>
<text text-anchor="start" x="8.65" y="-10.6" font-family="Work Sans" font-size="8.00"> </text>
<text text-anchor="start" x="10.88" y="-10.6" font-family="Work Sans" font-size="8.00" fill="green">person%1:03:00</text>
<text text-anchor="start" x="69.14" y="-10.6" font-family="Work Sans" font-size="8.00"> </text>
<text text-anchor="start" x="38.9" y="-2.6" font-family="Work Sans" font-size="8.00" fill="green"> </text>
</a>
</g>
</g>
<!-- V217638&#45;&gt;V217588 -->
<g id="edge2" class="edge">
<title>V217638&#45;&gt;V217588</title>
<path fill="none" stroke="grey" stroke-width="0.5" d="M22.22,-83.69C17.7,-78.45 13.58,-72.43 11.14,-66 8.3,-58.53 10.64,-50.99 14.99,-44.28"/>
<polygon fill="grey" stroke="grey" stroke-width="0.5" points="16.42,-45.29 17.93,-40.21 13.58,-43.23 16.42,-45.29"/>
<text text-anchor="middle" x="29.94" y="-59.6" font-family="Work Sans" font-size="8.00"> AGENT &#160;&#160;</text>
</g>
<!-- V217602&#45;&gt;V217588 -->
<g id="edge9" class="edge">
<title>V217602&#45;&gt;V217588</title>
<path fill="none" stroke="grey" stroke-width="0.5" d="M114.45,-83.88C104.34,-78.67 93.88,-72.61 84.77,-66 76.03,-59.66 67.43,-51.58 60.13,-44.02"/>
<polygon fill="grey" stroke="grey" stroke-width="0.5" points="61.37,-42.79 56.66,-40.36 58.83,-45.2 61.37,-42.79"/>
<text text-anchor="middle" x="118.13" y="-59.6" font-family="Work Sans" font-size="8.00"> EXPERIENCER &#160;&#160;</text>
</g>
<!-- V217620 -->
<g id="node6" class="node">
<title>V217620</title>
<g id="a_node6"><a xlink:href="http://trips.ihmc.us/lexicon/data/ONT::REFERENTIAL-SEM.xml" xlink:title="&lt;font color=&quot;green&quot;&gt;&lt;br /&gt;&lt;/font&gt; &lt;font color=&quot;black&quot;&gt;REFERENTIAL&#45;SEM&lt;/font&gt; &lt;font color=&quot;green&quot;&gt;&lt;br /&gt;&lt;/font&gt; &lt;font color=&quot;red&quot;&gt;PRO&lt;/font&gt; &lt;font color=&quot;blue&quot;&gt;IT&lt;/font&gt; &lt;font color=&quot;green&quot;&gt;&lt;br /&gt;&lt;/font&gt; &lt;font color=&quot;green&quot;&gt;entity%1:03:00&lt;/font&gt; &lt;font color=&quot;green&quot;&gt;&lt;br /&gt; &lt;/font&gt;">
<text text-anchor="start" x="195.22" y="-26.6" font-family="Work Sans" font-size="8.00"> </text>
<text text-anchor="start" x="197.45" y="-26.6" font-family="Work Sans" font-size="8.00">REFERENTIAL&#45;SEM</text>
<text text-anchor="start" x="272.57" y="-26.6" font-family="Work Sans" font-size="8.00"> </text>
<text text-anchor="start" x="219.45" y="-18.6" font-family="Work Sans" font-size="8.00"> </text>
<text text-anchor="start" x="221.67" y="-18.6" font-family="Work Sans" font-size="8.00" fill="red">PRO</text>
<text text-anchor="start" x="239.01" y="-18.6" font-family="Work Sans" font-size="8.00"> </text>
<text text-anchor="start" x="241.23" y="-18.6" font-family="Work Sans" font-size="8.00" fill="blue">IT</text>
<text text-anchor="start" x="248.34" y="-18.6" font-family="Work Sans" font-size="8.00"> </text>
<text text-anchor="start" x="206.32" y="-10.6" font-family="Work Sans" font-size="8.00"> </text>
<text text-anchor="start" x="208.54" y="-10.6" font-family="Work Sans" font-size="8.00" fill="green">entity%1:03:00</text>
<text text-anchor="start" x="261.47" y="-10.6" font-family="Work Sans" font-size="8.00"> </text>
<text text-anchor="start" x="233.9" y="-2.6" font-family="Work Sans" font-size="8.00" fill="green"> </text>
</a>
</g>
</g>
<!-- V217602&#45;&gt;V217620 -->
<g id="edge4" class="edge">
<title>V217602&#45;&gt;V217620</title>
<path fill="none" stroke="red" d="M154.18,-83.74C153.52,-75.24 154.26,-65.5 159.07,-58 166.34,-46.67 178.17,-38.71 190.34,-33.15"/>
<polygon fill="red" stroke="red" points="191.29,-34.65 195.2,-31.07 189.91,-31.43 191.29,-34.65"/>
<text text-anchor="middle" x="181.98" y="-59.6" font-family="Work Sans" font-size="8.00"> NEUTRAL &#160;&#160;</text>
</g>
<!-- V217602&#45;&gt;V217620 -->
<g id="edge5" class="edge">
<title>V217602&#45;&gt;V217620</title>
<path fill="none" stroke="blue" d="M185.62,-83.62C192.33,-78.3 199.23,-72.25 205.01,-66 210.92,-59.6 216.48,-51.94 221.18,-44.76"/>
<polygon fill="blue" stroke="blue" points="222.77,-45.52 223.98,-40.37 219.82,-43.64 222.77,-45.52"/>
<text text-anchor="middle" x="212.12" y="-59.6" font-family="Work Sans" font-size="8.00">.</text>
</g>
<!-- V217620&#45;&gt;V217687 -->
<g id="edge1" class="edge">
<title>V217620&#45;&gt;V217687</title>
<path fill="none" stroke="red" d="M237.42,-40.29C239.75,-67.2 240.2,-116.47 218.01,-150 214.01,-156.04 208.5,-161.13 202.48,-165.36"/>
<polygon fill="red" stroke="red" points="201.45,-163.94 198.24,-168.15 203.38,-166.86 201.45,-163.94"/>
<text text-anchor="middle" x="255.45" y="-101.6" font-family="Work Sans" font-size="8.00"> COREF &#160;&#160;</text>
</g>
<!-- V217620&#45;&gt;V217687 -->
<g id="edge3" class="edge">
<title>V217620&#45;&gt;V217687</title>
<path fill="none" stroke="blue" d="M253.5,-40.29C271.51,-61.52 293.99,-96.31 278.01,-124 262.38,-151.08 229.75,-166.12 203.07,-174.23"/>
<polygon fill="blue" stroke="blue" points="202.47,-172.58 198.16,-175.67 203.45,-175.94 202.47,-172.58"/>
<text text-anchor="middle" x="284.12" y="-101.6" font-family="Work Sans" font-size="8.00">.</text>
</g>
</g>
</svg>
