<?xml version="1.0" encoding="UTF-8" standalone="no"?>
<!DOCTYPE svg PUBLIC "-//W3C//DTD SVG 1.1//EN"
 "http://www.w3.org/Graphics/SVG/1.1/DTD/svg11.dtd">
<!-- Generated by graphviz version 2.43.0 (0)
 -->
<!-- Title: graph Pages: 1 -->
<svg width="536pt" height="226pt"
 viewBox="0.00 0.00 536.00 226.00" xmlns="http://www.w3.org/2000/svg" xmlns:xlink="http://www.w3.org/1999/xlink">
<g id="graph0" class="graph" transform="scale(1 1) rotate(0) translate(4 222)">
<title>graph</title>
<polygon fill="white" stroke="transparent" points="-4,4 -4,-222 532,-222 532,4 -4,4"/>
<!-- V74718 -->
<g id="node1" class="node">
<title>V74718</title>
<polygon fill="black" stroke="transparent" points="10,-208 10,-218 111,-218 111,-208 10,-208"/>
<text text-anchor="start" x="46.71" y="-210.6" font-family="Work Sans" font-size="8.00" fill="white">V74718</text>
<polygon fill="black" stroke="transparent" points="10,-198 10,-208 60,-208 60,-198 10,-198"/>
<text text-anchor="start" x="10.55" y="-200.6" font-family="Work Sans" font-size="8.00" fill="white">SPEECHACT</text>
<polygon fill="black" stroke="transparent" points="60,-198 60,-208 111,-208 111,-198 60,-198"/>
<text text-anchor="start" x="60.6" y="-200.6" font-family="Work Sans" font-size="8.00" fill="white">ont::SA_TELL</text>
<polygon fill="black" stroke="transparent" points="10,-188 10,-198 60,-198 60,-188 10,-188"/>
<text text-anchor="start" x="29.89" y="-190.6" font-family="Work Sans" font-size="8.00" fill="white">lex</text>
<polygon fill="black" stroke="transparent" points="60,-188 60,-198 111,-198 111,-188 60,-188"/>
<text text-anchor="start" x="75.94" y="-190.6" font-family="Work Sans" font-size="8.00" fill="white">PIGS</text>
<polygon fill="black" stroke="transparent" points="10,-178 10,-188 60,-188 60,-178 10,-178"/>
<text text-anchor="start" x="26.33" y="-180.6" font-family="Work Sans" font-size="8.00" fill="white">span</text>
<polygon fill="black" stroke="transparent" points="60,-178 60,-188 111,-188 111,-178 60,-178"/>
<text text-anchor="start" x="76.16" y="-180.6" font-family="Work Sans" font-size="8.00" fill="white">(2, 6)</text>
</g>
<!-- V74429 -->
<g id="node2" class="node">
<title>V74429</title>
<polygon fill="black" stroke="transparent" points="25,-124 25,-134 96,-134 96,-124 25,-124"/>
<text text-anchor="start" x="46.71" y="-126.6" font-family="Work Sans" font-size="8.00" fill="white">V74429</text>
<polygon fill="black" stroke="transparent" points="25,-114 25,-124 44,-124 44,-114 25,-114"/>
<text text-anchor="start" x="32.06" y="-116.6" font-family="Work Sans" font-size="8.00" fill="white">F</text>
<polygon fill="black" stroke="transparent" points="44,-114 44,-124 96,-124 96,-114 44,-114"/>
<text text-anchor="start" x="53.54" y="-116.6" font-family="Work Sans" font-size="8.00" fill="white">ont::LIVE</text>
<polygon fill="black" stroke="transparent" points="25,-104 25,-114 44,-114 44,-104 25,-104"/>
<text text-anchor="start" x="29.39" y="-106.6" font-family="Work Sans" font-size="8.00" fill="white">lex</text>
<polygon fill="black" stroke="transparent" points="44,-104 44,-114 96,-114 96,-104 44,-104"/>
<text text-anchor="start" x="60.44" y="-106.6" font-family="Work Sans" font-size="8.00" fill="white">PIGS</text>
<polygon fill="black" stroke="transparent" points="25,-94 25,-104 44,-104 44,-94 25,-94"/>
<text text-anchor="start" x="29.39" y="-96.6" font-family="Work Sans" font-size="8.00" fill="white">wn</text>
<polygon fill="black" stroke="transparent" points="44,-94 44,-104 96,-104 96,-94 44,-94"/>
<text text-anchor="start" x="44.87" y="-96.6" font-family="Work Sans" font-size="8.00" fill="white">exist%2:42:01</text>
<polygon fill="black" stroke="transparent" points="25,-84 25,-94 44,-94 44,-84 25,-84"/>
<text text-anchor="start" x="25.83" y="-86.6" font-family="Work Sans" font-size="8.00" fill="white">span</text>
<polygon fill="black" stroke="transparent" points="44,-84 44,-94 96,-94 96,-84 44,-84"/>
<text text-anchor="start" x="60.66" y="-86.6" font-family="Work Sans" font-size="8.00" fill="white">(2, 6)</text>
</g>
<!-- V74718&#45;&gt;V74429 -->
<g id="edge2" class="edge">
<title>V74718&#45;&gt;V74429</title>
<path fill="none" stroke="black" d="M60,-177.69C60,-167.88 60,-155.66 60,-144.31"/>
<polygon fill="black" stroke="black" points="63.5,-144.23 60,-134.23 56.5,-144.23 63.5,-144.23"/>
<text text-anchor="middle" x="79.33" y="-153.6" font-family="Work Sans" font-size="8.00">CONTENT</text>
</g>
<!-- V74719 -->
<g id="node3" class="node">
<title>V74719</title>
<polygon fill="black" stroke="transparent" points="0,-30 0,-40 120,-40 120,-30 0,-30"/>
<text text-anchor="start" x="46.21" y="-32.6" font-family="Work Sans" font-size="8.00" fill="white">V74719</text>
<polygon fill="black" stroke="transparent" points="0,-20 0,-30 28,-30 28,-20 0,-20"/>
<text text-anchor="start" x="0.89" y="-22.6" font-family="Work Sans" font-size="8.00" fill="white">IMPRO</text>
<polygon fill="black" stroke="transparent" points="28,-20 28,-30 120,-30 120,-20 28,-20"/>
<text text-anchor="start" x="28.66" y="-22.6" font-family="Work Sans" font-size="8.00" fill="white">ont::REFERENTIAL&#45;SEM</text>
<polygon fill="black" stroke="transparent" points="0,-10 0,-20 28,-20 28,-10 0,-10"/>
<text text-anchor="start" x="8.89" y="-12.6" font-family="Work Sans" font-size="8.00" fill="white">lex</text>
<polygon fill="black" stroke="transparent" points="28,-10 28,-20 120,-20 120,-10 28,-10"/>
<text text-anchor="start" x="64.44" y="-12.6" font-family="Work Sans" font-size="8.00" fill="white">None</text>
<polygon fill="black" stroke="transparent" points="0,0 0,-10 28,-10 28,0 0,0"/>
<text text-anchor="start" x="5.33" y="-2.6" font-family="Work Sans" font-size="8.00" fill="white">span</text>
<polygon fill="black" stroke="transparent" points="28,0 28,-10 120,-10 120,0 28,0"/>
<text text-anchor="start" x="64.66" y="-2.6" font-family="Work Sans" font-size="8.00" fill="white">(2, 6)</text>
</g>
<!-- V74429&#45;&gt;V74719 -->
<g id="edge1" class="edge">
<title>V74429&#45;&gt;V74719</title>
<path fill="none" stroke="black" d="M60,-83.77C60,-73.43 60,-61.28 60,-50.44"/>
<polygon fill="black" stroke="black" points="63.5,-50.15 60,-40.15 56.5,-50.15 63.5,-50.15"/>
<text text-anchor="middle" x="81.11" y="-59.6" font-family="Work Sans" font-size="8.00">AFFECTED</text>
</g>
<!-- V74591 -->
<g id="node4" class="node">
<title>V74591</title>
<polygon fill="black" stroke="transparent" points="186,-208 186,-218 236,-218 236,-208 186,-208"/>
<text text-anchor="start" x="197.21" y="-210.6" font-family="Work Sans" font-size="8.00" fill="white">V74591</text>
<polygon fill="black" stroke="transparent" points="186,-198 186,-208 205,-208 205,-198 186,-198"/>
<text text-anchor="start" x="193.06" y="-200.6" font-family="Work Sans" font-size="8.00" fill="white">F</text>
<polygon fill="black" stroke="transparent" points="205,-198 205,-208 236,-208 236,-198 205,-198"/>
<text text-anchor="start" x="205.68" y="-200.6" font-family="Work Sans" font-size="8.00" fill="white">ont::FLY</text>
<polygon fill="black" stroke="transparent" points="186,-188 186,-198 205,-198 205,-188 186,-188"/>
<text text-anchor="start" x="190.39" y="-190.6" font-family="Work Sans" font-size="8.00" fill="white">lex</text>
<polygon fill="black" stroke="transparent" points="205,-188 205,-198 236,-198 236,-188 205,-188"/>
<text text-anchor="start" x="212.5" y="-190.6" font-family="Work Sans" font-size="8.00" fill="white">BUT</text>
<polygon fill="black" stroke="transparent" points="186,-178 186,-188 205,-188 205,-178 186,-178"/>
<text text-anchor="start" x="186.83" y="-180.6" font-family="Work Sans" font-size="8.00" fill="white">span</text>
<polygon fill="black" stroke="transparent" points="205,-178 205,-188 236,-188 236,-178 205,-178"/>
<text text-anchor="start" x="208.94" y="-180.6" font-family="Work Sans" font-size="8.00" fill="white">(6, 27)</text>
</g>
<!-- V74471 -->
<g id="node5" class="node">
<title>V74471</title>
<polygon fill="black" stroke="transparent" points="114,-124 114,-134 181,-134 181,-124 114,-124"/>
<text text-anchor="start" x="133.71" y="-126.6" font-family="Work Sans" font-size="8.00" fill="white">V74471</text>
<polygon fill="black" stroke="transparent" points="114,-114 114,-124 133,-124 133,-114 114,-114"/>
<text text-anchor="start" x="121.06" y="-116.6" font-family="Work Sans" font-size="8.00" fill="white">F</text>
<polygon fill="black" stroke="transparent" points="133,-114 133,-124 181,-124 181,-114 133,-114"/>
<text text-anchor="start" x="142.18" y="-116.6" font-family="Work Sans" font-size="8.00" fill="white">ont::FLY</text>
<polygon fill="black" stroke="transparent" points="114,-104 114,-114 133,-114 133,-104 114,-104"/>
<text text-anchor="start" x="118.39" y="-106.6" font-family="Work Sans" font-size="8.00" fill="white">lex</text>
<polygon fill="black" stroke="transparent" points="133,-104 133,-114 181,-114 181,-104 133,-104"/>
<text text-anchor="start" x="145.88" y="-106.6" font-family="Work Sans" font-size="8.00" fill="white">FLIES</text>
<polygon fill="black" stroke="transparent" points="114,-94 114,-104 133,-104 133,-94 114,-94"/>
<text text-anchor="start" x="118.39" y="-96.6" font-family="Work Sans" font-size="8.00" fill="white">wn</text>
<polygon fill="black" stroke="transparent" points="133,-94 133,-104 181,-104 181,-94 133,-94"/>
<text text-anchor="start" x="133.88" y="-96.6" font-family="Work Sans" font-size="8.00" fill="white">fly%2:38:00::</text>
<polygon fill="black" stroke="transparent" points="114,-84 114,-94 133,-94 133,-84 114,-84"/>
<text text-anchor="start" x="114.83" y="-86.6" font-family="Work Sans" font-size="8.00" fill="white">span</text>
<polygon fill="black" stroke="transparent" points="133,-84 133,-94 181,-94 181,-84 133,-84"/>
<text text-anchor="start" x="145.44" y="-86.6" font-family="Work Sans" font-size="8.00" fill="white">(6, 27)</text>
</g>
<!-- V74591&#45;&gt;V74471 -->
<g id="edge3" class="edge">
<title>V74591&#45;&gt;V74471</title>
<path fill="none" stroke="black" d="M185.65,-178.83C179.18,-173.32 172.65,-166.89 167.65,-160 164.05,-155.03 160.94,-149.35 158.3,-143.63"/>
<polygon fill="black" stroke="black" points="161.41,-141.97 154.32,-134.1 154.95,-144.67 161.41,-141.97"/>
<text text-anchor="middle" x="192.67" y="-153.6" font-family="Work Sans" font-size="8.00">SEQUENCE1</text>
</g>
<!-- V74456 -->
<g id="node6" class="node">
<title>V74456</title>
<polygon fill="black" stroke="transparent" points="199,-124 199,-134 266,-134 266,-124 199,-124"/>
<text text-anchor="start" x="218.71" y="-126.6" font-family="Work Sans" font-size="8.00" fill="white">V74456</text>
<polygon fill="black" stroke="transparent" points="199,-114 199,-124 218,-124 218,-114 199,-114"/>
<text text-anchor="start" x="206.06" y="-116.6" font-family="Work Sans" font-size="8.00" fill="white">F</text>
<polygon fill="black" stroke="transparent" points="218,-114 218,-124 266,-124 266,-114 218,-114"/>
<text text-anchor="start" x="227.18" y="-116.6" font-family="Work Sans" font-size="8.00" fill="white">ont::FLY</text>
<polygon fill="black" stroke="transparent" points="199,-104 199,-114 218,-114 218,-104 199,-104"/>
<text text-anchor="start" x="203.39" y="-106.6" font-family="Work Sans" font-size="8.00" fill="white">lex</text>
<polygon fill="black" stroke="transparent" points="218,-104 218,-114 266,-114 266,-104 218,-104"/>
<text text-anchor="start" x="234.96" y="-106.6" font-family="Work Sans" font-size="8.00" fill="white">FLY</text>
<polygon fill="black" stroke="transparent" points="199,-94 199,-104 218,-104 218,-94 199,-94"/>
<text text-anchor="start" x="203.39" y="-96.6" font-family="Work Sans" font-size="8.00" fill="white">wn</text>
<polygon fill="black" stroke="transparent" points="218,-94 218,-104 266,-104 266,-94 218,-94"/>
<text text-anchor="start" x="218.88" y="-96.6" font-family="Work Sans" font-size="8.00" fill="white">fly%2:38:00::</text>
<polygon fill="black" stroke="transparent" points="199,-84 199,-94 218,-94 218,-84 199,-84"/>
<text text-anchor="start" x="199.83" y="-86.6" font-family="Work Sans" font-size="8.00" fill="white">span</text>
<polygon fill="black" stroke="transparent" points="218,-84 218,-94 266,-94 266,-84 218,-84"/>
<text text-anchor="start" x="230.44" y="-86.6" font-family="Work Sans" font-size="8.00" fill="white">(6, 27)</text>
</g>
<!-- V74591&#45;&gt;V74456 -->
<g id="edge4" class="edge">
<title>V74591&#45;&gt;V74456</title>
<path fill="none" stroke="black" d="M215.66,-177.69C218.05,-167.78 221.04,-155.41 223.8,-143.97"/>
<polygon fill="black" stroke="black" points="227.21,-144.78 226.15,-134.23 220.4,-143.13 227.21,-144.78"/>
<text text-anchor="middle" x="244.45" y="-153.6" font-family="Work Sans" font-size="8.00">SEQUENCE</text>
</g>
<!-- V74748 -->
<g id="node7" class="node">
<title>V74748</title>
<polygon fill="black" stroke="transparent" points="290,-208 290,-218 391,-218 391,-208 290,-208"/>
<text text-anchor="start" x="326.71" y="-210.6" font-family="Work Sans" font-size="8.00" fill="white">V74748</text>
<polygon fill="black" stroke="transparent" points="290,-198 290,-208 340,-208 340,-198 290,-198"/>
<text text-anchor="start" x="290.55" y="-200.6" font-family="Work Sans" font-size="8.00" fill="white">SPEECHACT</text>
<polygon fill="black" stroke="transparent" points="340,-198 340,-208 391,-208 391,-198 340,-198"/>
<text text-anchor="start" x="340.6" y="-200.6" font-family="Work Sans" font-size="8.00" fill="white">ont::SA_TELL</text>
<polygon fill="black" stroke="transparent" points="290,-188 290,-198 340,-198 340,-188 290,-188"/>
<text text-anchor="start" x="309.89" y="-190.6" font-family="Work Sans" font-size="8.00" fill="white">lex</text>
<polygon fill="black" stroke="transparent" points="340,-188 340,-198 391,-198 391,-188 340,-188"/>
<text text-anchor="start" x="358.61" y="-190.6" font-family="Work Sans" font-size="8.00" fill="white">WO</text>
<polygon fill="black" stroke="transparent" points="290,-178 290,-188 340,-188 340,-178 290,-178"/>
<text text-anchor="start" x="306.33" y="-180.6" font-family="Work Sans" font-size="8.00" fill="white">span</text>
<polygon fill="black" stroke="transparent" points="340,-178 340,-188 391,-188 391,-178 340,-178"/>
<text text-anchor="start" x="351.71" y="-180.6" font-family="Work Sans" font-size="8.00" fill="white">(27, 33)</text>
</g>
<!-- V74489 -->
<g id="node8" class="node">
<title>V74489</title>
<polygon fill="black" stroke="transparent" points="305,-119 305,-129 376,-129 376,-119 305,-119"/>
<text text-anchor="start" x="326.71" y="-121.6" font-family="Work Sans" font-size="8.00" fill="white">V74489</text>
<polygon fill="black" stroke="transparent" points="305,-109 305,-119 324,-119 324,-109 305,-109"/>
<text text-anchor="start" x="312.06" y="-111.6" font-family="Work Sans" font-size="8.00" fill="white">F</text>
<polygon fill="black" stroke="transparent" points="324,-109 324,-119 376,-119 376,-109 324,-109"/>
<text text-anchor="start" x="324.87" y="-111.6" font-family="Work Sans" font-size="8.00" fill="white">ont::ELLIPSIS</text>
<polygon fill="black" stroke="transparent" points="305,-99 305,-109 324,-109 324,-99 305,-99"/>
<text text-anchor="start" x="309.39" y="-101.6" font-family="Work Sans" font-size="8.00" fill="white">lex</text>
<polygon fill="black" stroke="transparent" points="324,-99 324,-109 376,-109 376,-99 324,-99"/>
<text text-anchor="start" x="343.11" y="-101.6" font-family="Work Sans" font-size="8.00" fill="white">WO</text>
<polygon fill="black" stroke="transparent" points="305,-89 305,-99 324,-99 324,-89 305,-89"/>
<text text-anchor="start" x="305.83" y="-91.6" font-family="Work Sans" font-size="8.00" fill="white">span</text>
<polygon fill="black" stroke="transparent" points="324,-89 324,-99 376,-99 376,-89 324,-89"/>
<text text-anchor="start" x="336.21" y="-91.6" font-family="Work Sans" font-size="8.00" fill="white">(27, 33)</text>
</g>
<!-- V74748&#45;&gt;V74489 -->
<g id="edge5" class="edge">
<title>V74748&#45;&gt;V74489</title>
<path fill="none" stroke="black" d="M340,-177.69C340,-166.43 340,-151.99 340,-139.35"/>
<polygon fill="black" stroke="black" points="343.5,-139.25 340,-129.25 336.5,-139.25 343.5,-139.25"/>
<text text-anchor="middle" x="359.33" y="-153.6" font-family="Work Sans" font-size="8.00">CONTENT</text>
</g>
<!-- V74749 -->
<g id="node9" class="node">
<title>V74749</title>
<polygon fill="black" stroke="transparent" points="280,-30 280,-40 400,-40 400,-30 280,-30"/>
<text text-anchor="start" x="326.21" y="-32.6" font-family="Work Sans" font-size="8.00" fill="white">V74749</text>
<polygon fill="black" stroke="transparent" points="280,-20 280,-30 308,-30 308,-20 280,-20"/>
<text text-anchor="start" x="280.89" y="-22.6" font-family="Work Sans" font-size="8.00" fill="white">IMPRO</text>
<polygon fill="black" stroke="transparent" points="308,-20 308,-30 400,-30 400,-20 308,-20"/>
<text text-anchor="start" x="308.66" y="-22.6" font-family="Work Sans" font-size="8.00" fill="white">ont::REFERENTIAL&#45;SEM</text>
<polygon fill="black" stroke="transparent" points="280,-10 280,-20 308,-20 308,-10 280,-10"/>
<text text-anchor="start" x="288.89" y="-12.6" font-family="Work Sans" font-size="8.00" fill="white">lex</text>
<polygon fill="black" stroke="transparent" points="308,-10 308,-20 400,-20 400,-10 308,-10"/>
<text text-anchor="start" x="344.44" y="-12.6" font-family="Work Sans" font-size="8.00" fill="white">None</text>
<polygon fill="black" stroke="transparent" points="280,0 280,-10 308,-10 308,0 280,0"/>
<text text-anchor="start" x="285.33" y="-2.6" font-family="Work Sans" font-size="8.00" fill="white">span</text>
<polygon fill="black" stroke="transparent" points="308,0 308,-10 400,-10 400,0 308,0"/>
<text text-anchor="start" x="340.21" y="-2.6" font-family="Work Sans" font-size="8.00" fill="white">(27, 33)</text>
</g>
<!-- V74489&#45;&gt;V74749 -->
<g id="edge6" class="edge">
<title>V74489&#45;&gt;V74749</title>
<path fill="none" stroke="black" d="M340,-88.69C340,-77.43 340,-62.99 340,-50.35"/>
<polygon fill="black" stroke="black" points="343.5,-50.25 340,-40.25 336.5,-50.25 343.5,-50.25"/>
<text text-anchor="middle" x="358.67" y="-59.6" font-family="Work Sans" font-size="8.00">NEUTRAL</text>
</g>
<!-- V74670 -->
<g id="node10" class="node">
<title>V74670</title>
<polygon fill="black" stroke="transparent" points="409,-208 409,-218 528,-218 528,-208 409,-208"/>
<text text-anchor="start" x="454.71" y="-210.6" font-family="Work Sans" font-size="8.00" fill="white">V74670</text>
<polygon fill="black" stroke="transparent" points="409,-198 409,-208 459,-208 459,-198 409,-198"/>
<text text-anchor="start" x="409.55" y="-200.6" font-family="Work Sans" font-size="8.00" fill="white">SPEECHACT</text>
<polygon fill="black" stroke="transparent" points="459,-198 459,-208 528,-208 528,-198 459,-198"/>
<text text-anchor="start" x="459.93" y="-200.6" font-family="Work Sans" font-size="8.00" fill="white">ont::SA_IDENTIFY</text>
<polygon fill="black" stroke="transparent" points="409,-188 409,-198 459,-198 459,-188 409,-188"/>
<text text-anchor="start" x="428.89" y="-190.6" font-family="Work Sans" font-size="8.00" fill="white">lex</text>
<polygon fill="black" stroke="transparent" points="459,-188 459,-198 528,-198 528,-188 459,-188"/>
<text text-anchor="start" x="486.61" y="-190.6" font-family="Work Sans" font-size="8.00" fill="white">PIG</text>
<polygon fill="black" stroke="transparent" points="409,-178 409,-188 459,-188 459,-178 409,-178"/>
<text text-anchor="start" x="425.33" y="-180.6" font-family="Work Sans" font-size="8.00" fill="white">span</text>
<polygon fill="black" stroke="transparent" points="459,-178 459,-188 528,-188 528,-178 459,-178"/>
<text text-anchor="start" x="479.71" y="-180.6" font-family="Work Sans" font-size="8.00" fill="white">(33, 37)</text>
</g>
<!-- V74498 -->
<g id="node11" class="node">
<title>V74498</title>
<polygon fill="black" stroke="transparent" points="408,-124 408,-134 528,-134 528,-124 408,-124"/>
<text text-anchor="start" x="454.21" y="-126.6" font-family="Work Sans" font-size="8.00" fill="white">V74498</text>
<polygon fill="black" stroke="transparent" points="408,-114 408,-124 431,-124 431,-114 408,-114"/>
<text text-anchor="start" x="408.61" y="-116.6" font-family="Work Sans" font-size="8.00" fill="white">BARE</text>
<polygon fill="black" stroke="transparent" points="431,-114 431,-124 528,-124 528,-114 431,-114"/>
<text text-anchor="start" x="431.94" y="-116.6" font-family="Work Sans" font-size="8.00" fill="white">ont::NONHUMAN&#45;ANIMAL</text>
<polygon fill="black" stroke="transparent" points="408,-104 408,-114 431,-114 431,-104 408,-104"/>
<text text-anchor="start" x="414.39" y="-106.6" font-family="Work Sans" font-size="8.00" fill="white">lex</text>
<polygon fill="black" stroke="transparent" points="431,-104 431,-114 528,-114 528,-104 431,-104"/>
<text text-anchor="start" x="472.61" y="-106.6" font-family="Work Sans" font-size="8.00" fill="white">PIG</text>
<polygon fill="black" stroke="transparent" points="408,-94 408,-104 431,-104 431,-94 408,-94"/>
<text text-anchor="start" x="414.39" y="-96.6" font-family="Work Sans" font-size="8.00" fill="white">wn</text>
<polygon fill="black" stroke="transparent" points="431,-94 431,-104 528,-104 528,-94 431,-94"/>
<text text-anchor="start" x="455.04" y="-96.6" font-family="Work Sans" font-size="8.00" fill="white">pig%1:05:00::</text>
<polygon fill="black" stroke="transparent" points="408,-84 408,-94 431,-94 431,-84 408,-84"/>
<text text-anchor="start" x="410.83" y="-86.6" font-family="Work Sans" font-size="8.00" fill="white">span</text>
<polygon fill="black" stroke="transparent" points="431,-84 431,-94 528,-94 528,-84 431,-84"/>
<text text-anchor="start" x="465.71" y="-86.6" font-family="Work Sans" font-size="8.00" fill="white">(33, 36)</text>
</g>
<!-- V74670&#45;&gt;V74498 -->
<g id="edge7" class="edge">
<title>V74670&#45;&gt;V74498</title>
<path fill="none" stroke="black" d="M468,-177.69C468,-167.88 468,-155.66 468,-144.31"/>
<polygon fill="black" stroke="black" points="471.5,-144.23 468,-134.23 464.5,-144.23 471.5,-144.23"/>
<text text-anchor="middle" x="487.33" y="-153.6" font-family="Work Sans" font-size="8.00">CONTENT</text>
</g>
</g>
</svg>
