<?xml version="1.0" encoding="UTF-8" standalone="no"?>
<!DOCTYPE svg PUBLIC "-//W3C//DTD SVG 1.1//EN"
 "http://www.w3.org/Graphics/SVG/1.1/DTD/svg11.dtd">
<!-- Generated by graphviz version 2.43.0 (0)
 -->
<!-- Title: graph Pages: 1 -->
<svg width="391pt" height="284pt"
 viewBox="0.00 0.00 390.90 284.00" xmlns="http://www.w3.org/2000/svg" xmlns:xlink="http://www.w3.org/1999/xlink">
<g id="graph0" class="graph" transform="scale(1 1) rotate(0) translate(4 280)">
<title>graph</title>
<polygon fill="white" stroke="transparent" points="-4,4 -4,-280 386.9,-280 386.9,4 -4,4"/>
<!-- V181569 -->
<g id="node1" class="node">
<title>V181569</title>
<g id="a_node1"><a xlink:href="http://trips.ihmc.us/lexicon/data/ONT::SA_TELL.xml" xlink:title="&lt;font color=&quot;green&quot;&gt;&lt;br /&gt;&lt;/font&gt; &lt;font color=&quot;black&quot;&gt;SA_TELL&lt;/font&gt; &lt;font color=&quot;green&quot;&gt;&lt;br /&gt;&lt;/font&gt; &lt;font color=&quot;red&quot;&gt;SPEECHACT&lt;/font&gt; &lt;font color=&quot;blue&quot;&gt;* &lt;/font&gt; &lt;font color=&quot;green&quot;&gt;&lt;br /&gt; &lt;/font&gt;">
<text text-anchor="start" x="201.44" y="-262.6" font-family="Work Sans" font-size="8.00"> </text>
<text text-anchor="start" x="203.66" y="-262.6" font-family="Work Sans" font-size="8.00">SA_TELL</text>
<text text-anchor="start" x="237.9" y="-262.6" font-family="Work Sans" font-size="8.00"> </text>
<text text-anchor="start" x="190.33" y="-254.6" font-family="Work Sans" font-size="8.00"> </text>
<text text-anchor="start" x="192.55" y="-254.6" font-family="Work Sans" font-size="8.00" fill="red">SPEECHACT</text>
<text text-anchor="start" x="241.45" y="-254.6" font-family="Work Sans" font-size="8.00"> </text>
<text text-anchor="start" x="243.68" y="-254.6" font-family="Work Sans" font-size="8.00" fill="blue">* </text>
<text text-anchor="start" x="249.01" y="-254.6" font-family="Work Sans" font-size="8.00"> </text>
<text text-anchor="start" x="219.67" y="-246.6" font-family="Work Sans" font-size="8.00" fill="green"> </text>
</a>
</g>
</g>
<!-- V180968 -->
<g id="node2" class="node">
<title>V180968</title>
<g id="a_node2"><a xlink:href="http://trips.ihmc.us/lexicon/data/ONT::HAVE-PROPERTY.xml" xlink:title="&lt;font color=&quot;green&quot;&gt;&lt;br /&gt;&lt;/font&gt; &lt;font color=&quot;black&quot;&gt;HAVE&#45;PROPERTY&lt;/font&gt; &lt;font color=&quot;green&quot;&gt;&lt;br /&gt;&lt;/font&gt; &lt;font color=&quot;red&quot;&gt;F&lt;/font&gt; &lt;font color=&quot;blue&quot;&gt;BE&lt;/font&gt; &lt;font color=&quot;green&quot;&gt;&lt;br /&gt;&lt;/font&gt; &lt;font color=&quot;green&quot;&gt;be%2:42:03::&lt;/font&gt; &lt;font color=&quot;green&quot;&gt;&lt;br /&gt; &lt;/font&gt;">
<polygon fill="pink" stroke="transparent" stroke-width="0.5" points="184.61,-160 220.78,-160 220.78,-200 184.61,-200 184.61,-160"/>
<polygon fill="lightblue" stroke="transparent" stroke-width="0.5" points="220.78,-160 256.96,-160 256.96,-200 220.78,-200 220.78,-160"/>
<polygon fill="none" stroke="transparent" points="256.96,-200 184.61,-200 184.61,-160 256.96,-160 256.96,-200"/>
<text text-anchor="start" x="184.7" y="-186.6" font-family="Work Sans" font-size="8.00"> </text>
<text text-anchor="start" x="186.92" y="-186.6" font-family="Work Sans" font-size="8.00">HAVE&#45;PROPERTY</text>
<text text-anchor="start" x="254.65" y="-186.6" font-family="Work Sans" font-size="8.00"> </text>
<text text-anchor="start" x="209.67" y="-178.6" font-family="Work Sans" font-size="8.00"> </text>
<text text-anchor="start" x="211.89" y="-178.6" font-family="Work Sans" font-size="8.00" fill="red">F</text>
<text text-anchor="start" x="216.78" y="-178.6" font-family="Work Sans" font-size="8.00"> </text>
<text text-anchor="start" x="219" y="-178.6" font-family="Work Sans" font-size="8.00" fill="blue">BE</text>
<text text-anchor="start" x="229.67" y="-178.6" font-family="Work Sans" font-size="8.00"> </text>
<text text-anchor="start" x="194.99" y="-170.6" font-family="Work Sans" font-size="8.00"> </text>
<text text-anchor="start" x="197.21" y="-170.6" font-family="Work Sans" font-size="8.00" fill="green">be%2:42:03::</text>
<text text-anchor="start" x="244.36" y="-170.6" font-family="Work Sans" font-size="8.00"> </text>
<text text-anchor="start" x="219.67" y="-162.6" font-family="Work Sans" font-size="8.00" fill="green"> </text>
</a>
</g>
</g>
<!-- V181569&#45;&gt;V180968 -->
<g id="edge2" class="edge">
<title>V181569&#45;&gt;V180968</title>
<path fill="none" stroke="grey" stroke-width="0.5" d="M220.78,-243.96C220.78,-233.04 220.78,-218.02 220.78,-205.39"/>
<polygon fill="grey" stroke="grey" stroke-width="0.5" points="222.53,-205.14 220.78,-200.14 219.03,-205.14 222.53,-205.14"/>
<text text-anchor="middle" x="244.49" y="-219.6" font-family="Work Sans" font-size="8.00"> CONTENT &#160;&#160;</text>
</g>
<!-- V180959 -->
<g id="node3" class="node">
<title>V180959</title>
<g id="a_node3"><a xlink:href="http://trips.ihmc.us/lexicon/data/ONT::REFERENTIAL-SEM.xml" xlink:title="&lt;font color=&quot;green&quot;&gt;&lt;br /&gt;&lt;/font&gt; &lt;font color=&quot;black&quot;&gt;REFERENTIAL&#45;SEM&lt;/font&gt; &lt;font color=&quot;green&quot;&gt;&lt;br /&gt;&lt;/font&gt; &lt;font color=&quot;red&quot;&gt;PRO&lt;/font&gt; &lt;font color=&quot;blue&quot;&gt;IT&lt;/font&gt; &lt;font color=&quot;green&quot;&gt;&lt;br /&gt;&lt;/font&gt; &lt;font color=&quot;green&quot;&gt;entity%1:03:00&lt;/font&gt; &lt;font color=&quot;green&quot;&gt;&lt;br /&gt; &lt;/font&gt;">
<text text-anchor="start" x="0" y="-26.6" font-family="Work Sans" font-size="8.00"> </text>
<text text-anchor="start" x="2.22" y="-26.6" font-family="Work Sans" font-size="8.00">REFERENTIAL&#45;SEM</text>
<text text-anchor="start" x="77.34" y="-26.6" font-family="Work Sans" font-size="8.00"> </text>
<text text-anchor="start" x="24.23" y="-18.6" font-family="Work Sans" font-size="8.00"> </text>
<text text-anchor="start" x="26.45" y="-18.6" font-family="Work Sans" font-size="8.00" fill="red">PRO</text>
<text text-anchor="start" x="43.79" y="-18.6" font-family="Work Sans" font-size="8.00"> </text>
<text text-anchor="start" x="46.01" y="-18.6" font-family="Work Sans" font-size="8.00" fill="blue">IT</text>
<text text-anchor="start" x="53.12" y="-18.6" font-family="Work Sans" font-size="8.00"> </text>
<text text-anchor="start" x="11.1" y="-10.6" font-family="Work Sans" font-size="8.00"> </text>
<text text-anchor="start" x="13.32" y="-10.6" font-family="Work Sans" font-size="8.00" fill="green">entity%1:03:00</text>
<text text-anchor="start" x="66.25" y="-10.6" font-family="Work Sans" font-size="8.00"> </text>
<text text-anchor="start" x="38.67" y="-2.6" font-family="Work Sans" font-size="8.00" fill="green"> </text>
</a>
</g>
</g>
<!-- V180968&#45;&gt;V180959 -->
<g id="edge5" class="edge">
<title>V180968&#45;&gt;V180959</title>
<path fill="none" stroke="grey" stroke-width="0.5" d="M184.59,-168.16C156.2,-158.21 117.07,-141.18 89.85,-116 68.81,-96.55 54.99,-66.21 47.3,-45.07"/>
<polygon fill="grey" stroke="grey" stroke-width="0.5" points="48.89,-44.31 45.57,-40.18 45.59,-45.48 48.89,-44.31"/>
<text text-anchor="middle" x="113.75" y="-97.6" font-family="Work Sans" font-size="8.00"> NEUTRAL &#160;&#160;</text>
</g>
<!-- V181004 -->
<g id="node4" class="node">
<title>V181004</title>
<g id="a_node4"><a xlink:href="http://trips.ihmc.us/lexicon/data/ONT::PROVOCATIVE-VAL.xml" xlink:title="&lt;font color=&quot;green&quot;&gt;&lt;br /&gt;&lt;/font&gt; &lt;font color=&quot;black&quot;&gt;PROVOCATIVE&#45;VAL&lt;/font&gt; &lt;font color=&quot;green&quot;&gt;&lt;br /&gt;&lt;/font&gt; &lt;font color=&quot;red&quot;&gt;F&lt;/font&gt; &lt;font color=&quot;blue&quot;&gt;EXCITING&lt;/font&gt; &lt;font color=&quot;green&quot;&gt;&lt;br /&gt; &lt;/font&gt;">
<polygon fill="pink" stroke="transparent" stroke-width="0.5" points="144.44,-84 183.78,-84 183.78,-116 144.44,-116 144.44,-84"/>
<polygon fill="lightblue" stroke="transparent" stroke-width="0.5" points="183.78,-84 223.12,-84 223.12,-116 183.78,-116 183.78,-84"/>
<polygon fill="none" stroke="transparent" points="223.12,-116 144.44,-116 144.44,-84 223.12,-84 223.12,-116"/>
<text text-anchor="start" x="144.36" y="-102.6" font-family="Work Sans" font-size="8.00"> </text>
<text text-anchor="start" x="146.59" y="-102.6" font-family="Work Sans" font-size="8.00">PROVOCATIVE&#45;VAL</text>
<text text-anchor="start" x="220.98" y="-102.6" font-family="Work Sans" font-size="8.00"> </text>
<text text-anchor="start" x="159.12" y="-94.6" font-family="Work Sans" font-size="8.00"> </text>
<text text-anchor="start" x="161.34" y="-94.6" font-family="Work Sans" font-size="8.00" fill="red">F</text>
<text text-anchor="start" x="166.22" y="-94.6" font-family="Work Sans" font-size="8.00"> </text>
<text text-anchor="start" x="168.45" y="-94.6" font-family="Work Sans" font-size="8.00" fill="blue">EXCITING</text>
<text text-anchor="start" x="206.23" y="-94.6" font-family="Work Sans" font-size="8.00"> </text>
<text text-anchor="start" x="182.67" y="-86.6" font-family="Work Sans" font-size="8.00" fill="green"> </text>
</a>
</g>
</g>
<!-- V180968&#45;&gt;V181004 -->
<g id="edge9" class="edge">
<title>V180968&#45;&gt;V181004</title>
<path fill="none" stroke="blue" d="M186.38,-159.81C180.4,-154.83 175,-148.89 171.56,-142 168.27,-135.41 169.36,-127.78 171.93,-120.9"/>
<polygon fill="blue" stroke="blue" points="173.55,-121.56 173.92,-116.28 170.34,-120.18 173.55,-121.56"/>
<text text-anchor="middle" x="172.89" y="-135.6" font-family="Work Sans" font-size="8.00">.</text>
</g>
<!-- V180968&#45;&gt;V181004 -->
<g id="edge13" class="edge">
<title>V180968&#45;&gt;V181004</title>
<path fill="none" stroke="red" d="M201.23,-159.64C196.84,-154.31 192.66,-148.26 189.85,-142 186.99,-135.62 185.42,-128.17 184.59,-121.39"/>
<polygon fill="red" stroke="red" points="186.32,-121.15 184.08,-116.36 182.84,-121.51 186.32,-121.15"/>
<text text-anchor="middle" x="211.75" y="-135.6" font-family="Work Sans" font-size="8.00"> FORMAL &#160;&#160;</text>
</g>
<!-- V181014 -->
<g id="node6" class="node">
<title>V181014</title>
<g id="a_node6"><a xlink:href="http://trips.ihmc.us/lexicon/data/ONT::BENEFICIARY.xml" xlink:title="&lt;font color=&quot;green&quot;&gt;&lt;br /&gt;&lt;/font&gt; &lt;font color=&quot;black&quot;&gt;BENEFICIARY&lt;/font&gt; &lt;font color=&quot;green&quot;&gt;&lt;br /&gt;&lt;/font&gt; &lt;font color=&quot;red&quot;&gt;F&lt;/font&gt; &lt;font color=&quot;blue&quot;&gt;FOR&lt;/font&gt; &lt;font color=&quot;green&quot;&gt;&lt;br /&gt; &lt;/font&gt;">
<polygon fill="pink" stroke="transparent" stroke-width="0.5" points="261.13,-84 289.78,-84 289.78,-116 261.13,-116 261.13,-84"/>
<polygon fill="lightblue" stroke="transparent" stroke-width="0.5" points="289.78,-84 318.43,-84 318.43,-116 289.78,-116 289.78,-84"/>
<polygon fill="none" stroke="transparent" points="318.43,-116 261.13,-116 261.13,-84 318.43,-84 318.43,-116"/>
<text text-anchor="start" x="260.96" y="-102.6" font-family="Work Sans" font-size="8.00"> </text>
<text text-anchor="start" x="263.18" y="-102.6" font-family="Work Sans" font-size="8.00">BENEFICIARY</text>
<text text-anchor="start" x="316.38" y="-102.6" font-family="Work Sans" font-size="8.00"> </text>
<text text-anchor="start" x="275.56" y="-94.6" font-family="Work Sans" font-size="8.00"> </text>
<text text-anchor="start" x="277.79" y="-94.6" font-family="Work Sans" font-size="8.00" fill="red">F</text>
<text text-anchor="start" x="282.67" y="-94.6" font-family="Work Sans" font-size="8.00"> </text>
<text text-anchor="start" x="284.89" y="-94.6" font-family="Work Sans" font-size="8.00" fill="blue">FOR</text>
<text text-anchor="start" x="301.78" y="-94.6" font-family="Work Sans" font-size="8.00"> </text>
<text text-anchor="start" x="288.67" y="-86.6" font-family="Work Sans" font-size="8.00" fill="green"> </text>
</a>
</g>
</g>
<!-- V180968&#45;&gt;V181014 -->
<g id="edge6" class="edge">
<title>V180968&#45;&gt;V181014</title>
<path fill="none" stroke="blue" d="M237.84,-159.72C248.52,-147.64 262.24,-132.14 272.89,-120.09"/>
<polygon fill="blue" stroke="blue" points="274.38,-121.06 276.38,-116.15 271.75,-118.74 274.38,-121.06"/>
<text text-anchor="middle" x="259.89" y="-135.6" font-family="Work Sans" font-size="8.00">.</text>
</g>
<!-- V180968&#45;&gt;V181014 -->
<g id="edge10" class="edge">
<title>V180968&#45;&gt;V181014</title>
<path fill="none" stroke="red" d="M240.19,-159.74C245.67,-154.12 251.55,-147.9 256.78,-142 262.9,-135.09 269.33,-127.25 274.87,-120.28"/>
<polygon fill="red" stroke="red" points="276.47,-121.09 278.2,-116.08 273.72,-118.92 276.47,-121.09"/>
<text text-anchor="middle" x="293.76" y="-135.6" font-family="Work Sans" font-size="8.00"> BENEFICIARY &#160;&#160;</text>
</g>
<!-- V181004&#45;&gt;V180959 -->
<g id="edge12" class="edge">
<title>V181004&#45;&gt;V180959</title>
<path fill="none" stroke="grey" stroke-width="0.5" d="M144.19,-93.39C121.95,-88.78 94.55,-80.54 73.67,-66 65.68,-60.44 58.78,-52.39 53.33,-44.64"/>
<polygon fill="grey" stroke="grey" stroke-width="0.5" points="54.7,-43.55 50.45,-40.38 51.8,-45.51 54.7,-43.55"/>
<text text-anchor="middle" x="93.34" y="-59.6" font-family="Work Sans" font-size="8.00"> FIGURE &#160;&#160;</text>
</g>
<!-- V180986 -->
<g id="node5" class="node">
<title>V180986</title>
<g id="a_node5"><a xlink:href="http://trips.ihmc.us/lexicon/data/ONT::DEGREE-MODIFIER-HIGH.xml" xlink:title="&lt;font color=&quot;green&quot;&gt;&lt;br /&gt;&lt;/font&gt; &lt;font color=&quot;black&quot;&gt;DEGREE&#45;MODIFIER&#45;HIGH&lt;/font&gt; &lt;font color=&quot;green&quot;&gt;&lt;br /&gt;&lt;/font&gt; &lt;font color=&quot;red&quot;&gt;F&lt;/font&gt; &lt;font color=&quot;blue&quot;&gt;SO&lt;/font&gt; &lt;font color=&quot;green&quot;&gt;&lt;br /&gt;&lt;/font&gt; &lt;font color=&quot;green&quot;&gt;so%4:02:02::&lt;/font&gt; &lt;font color=&quot;green&quot;&gt;&lt;br /&gt; &lt;/font&gt;">
<polygon fill="pink" stroke="transparent" stroke-width="0.5" points="137.61,0 188.78,0 188.78,-40 137.61,-40 137.61,0"/>
<polygon fill="lightblue" stroke="transparent" stroke-width="0.5" points="188.78,0 239.95,0 239.95,-40 188.78,-40 188.78,0"/>
<polygon fill="none" stroke="transparent" points="239.95,-40 137.61,-40 137.61,0 239.95,0 239.95,-40"/>
<text text-anchor="start" x="137.45" y="-26.6" font-family="Work Sans" font-size="8.00"> </text>
<text text-anchor="start" x="139.67" y="-26.6" font-family="Work Sans" font-size="8.00">DEGREE&#45;MODIFIER&#45;HIGH</text>
<text text-anchor="start" x="237.89" y="-26.6" font-family="Work Sans" font-size="8.00"> </text>
<text text-anchor="start" x="177.23" y="-18.6" font-family="Work Sans" font-size="8.00"> </text>
<text text-anchor="start" x="179.45" y="-18.6" font-family="Work Sans" font-size="8.00" fill="red">F</text>
<text text-anchor="start" x="184.34" y="-18.6" font-family="Work Sans" font-size="8.00"> </text>
<text text-anchor="start" x="186.56" y="-18.6" font-family="Work Sans" font-size="8.00" fill="blue">SO</text>
<text text-anchor="start" x="198.12" y="-18.6" font-family="Work Sans" font-size="8.00"> </text>
<text text-anchor="start" x="163.21" y="-10.6" font-family="Work Sans" font-size="8.00"> </text>
<text text-anchor="start" x="165.43" y="-10.6" font-family="Work Sans" font-size="8.00" fill="green">so%4:02:02::</text>
<text text-anchor="start" x="212.13" y="-10.6" font-family="Work Sans" font-size="8.00"> </text>
<text text-anchor="start" x="187.67" y="-2.6" font-family="Work Sans" font-size="8.00" fill="green"> </text>
</a>
</g>
</g>
<!-- V181004&#45;&gt;V180986 -->
<g id="edge1" class="edge">
<title>V181004&#45;&gt;V180986</title>
<path fill="none" stroke="red" d="M144.44,-89.28C126.26,-82.67 110.41,-72.47 119.11,-58 122.65,-52.11 127.48,-47.1 132.96,-42.86"/>
<polygon fill="red" stroke="red" points="134.23,-44.11 137.27,-39.77 132.19,-41.27 134.23,-44.11"/>
<text text-anchor="middle" x="141.12" y="-59.6" font-family="Work Sans" font-size="8.00"> DEGREE &#160;&#160;</text>
</g>
<!-- V181004&#45;&gt;V180986 -->
<g id="edge11" class="edge">
<title>V181004&#45;&gt;V180986</title>
<path fill="none" stroke="blue" d="M184.75,-83.96C185.45,-73.04 186.41,-58.02 187.22,-45.39"/>
<polygon fill="blue" stroke="blue" points="188.98,-45.25 187.56,-40.14 185.49,-45.02 188.98,-45.25"/>
<text text-anchor="middle" x="187.89" y="-59.6" font-family="Work Sans" font-size="8.00">.</text>
</g>
<!-- V180986&#45;&gt;V181004 -->
<g id="edge4" class="edge">
<title>V180986&#45;&gt;V181004</title>
<path fill="none" stroke="blue" d="M188.12,-40.28C187.8,-48.25 187.35,-57.57 186.78,-66 186.5,-70.12 186.15,-74.52 185.78,-78.72"/>
<polygon fill="blue" stroke="blue" points="184.01,-78.76 185.3,-83.9 187.5,-79.08 184.01,-78.76"/>
<text text-anchor="middle" x="188.89" y="-59.6" font-family="Work Sans" font-size="8.00">.</text>
</g>
<!-- V180986&#45;&gt;V181004 -->
<g id="edge8" class="edge">
<title>V180986&#45;&gt;V181004</title>
<path fill="none" stroke="red" d="M193.11,-40.31C194.33,-48.28 195.03,-57.6 193.78,-66 193.15,-70.26 192.09,-74.72 190.88,-78.95"/>
<polygon fill="red" stroke="red" points="189.2,-78.48 189.42,-83.77 192.55,-79.49 189.2,-78.48"/>
<text text-anchor="middle" x="214.34" y="-59.6" font-family="Work Sans" font-size="8.00"> FIGURE &#160;&#160;</text>
</g>
<!-- V181014&#45;&gt;V180968 -->
<g id="edge7" class="edge">
<title>V181014&#45;&gt;V180968</title>
<path fill="none" stroke="grey" stroke-width="0.5" d="M318.76,-110.97C335.37,-118.33 351.22,-129.25 341.78,-142 323.58,-166.6 289.35,-175.39 261.93,-178.28"/>
<polygon fill="grey" stroke="grey" stroke-width="0.5" points="261.71,-176.54 256.89,-178.76 262.04,-180.03 261.71,-176.54"/>
<text text-anchor="middle" x="363.34" y="-135.6" font-family="Work Sans" font-size="8.00"> FIGURE &#160;&#160;</text>
</g>
<!-- V181035 -->
<g id="node7" class="node">
<title>V181035</title>
<g id="a_node7"><a xlink:href="http://trips.ihmc.us/lexicon/data/ONT::MALE-PERSON.xml" xlink:title="&lt;font color=&quot;green&quot;&gt;&lt;br /&gt;&lt;/font&gt; &lt;font color=&quot;black&quot;&gt;MALE&#45;PERSON&lt;/font&gt; &lt;font color=&quot;green&quot;&gt;&lt;br /&gt;&lt;/font&gt; &lt;font color=&quot;red&quot;&gt;PRO&lt;/font&gt; &lt;font color=&quot;blue&quot;&gt;HIM&lt;/font&gt; &lt;font color=&quot;green&quot;&gt;&lt;br /&gt;&lt;/font&gt; &lt;font color=&quot;green&quot;&gt;man%1:18:00&lt;/font&gt; &lt;font color=&quot;green&quot;&gt;&lt;br /&gt; &lt;/font&gt;">
<text text-anchor="start" x="264.44" y="-26.6" font-family="Work Sans" font-size="8.00"> </text>
<text text-anchor="start" x="266.67" y="-26.6" font-family="Work Sans" font-size="8.00">MALE&#45;PERSON</text>
<text text-anchor="start" x="324.9" y="-26.6" font-family="Work Sans" font-size="8.00"> </text>
<text text-anchor="start" x="276.45" y="-18.6" font-family="Work Sans" font-size="8.00"> </text>
<text text-anchor="start" x="278.67" y="-18.6" font-family="Work Sans" font-size="8.00" fill="red">PRO</text>
<text text-anchor="start" x="296.01" y="-18.6" font-family="Work Sans" font-size="8.00"> </text>
<text text-anchor="start" x="298.23" y="-18.6" font-family="Work Sans" font-size="8.00" fill="blue">HIM</text>
<text text-anchor="start" x="312.89" y="-18.6" font-family="Work Sans" font-size="8.00"> </text>
<text text-anchor="start" x="268.88" y="-10.6" font-family="Work Sans" font-size="8.00"> </text>
<text text-anchor="start" x="271.1" y="-10.6" font-family="Work Sans" font-size="8.00" fill="green">man%1:18:00</text>
<text text-anchor="start" x="320.47" y="-10.6" font-family="Work Sans" font-size="8.00"> </text>
<text text-anchor="start" x="294.67" y="-2.6" font-family="Work Sans" font-size="8.00" fill="green"> </text>
</a>
</g>
</g>
<!-- V181014&#45;&gt;V181035 -->
<g id="edge3" class="edge">
<title>V181014&#45;&gt;V181035</title>
<path fill="none" stroke="grey" stroke-width="0.5" d="M290.94,-83.96C291.78,-73.04 292.94,-58.02 293.91,-45.39"/>
<polygon fill="grey" stroke="grey" stroke-width="0.5" points="295.67,-45.26 294.31,-40.14 292.18,-44.99 295.67,-45.26"/>
<text text-anchor="middle" x="315.01" y="-59.6" font-family="Work Sans" font-size="8.00"> GROUND &#160;&#160;</text>
</g>
</g>
</svg>
