<?xml version="1.0" encoding="UTF-8" standalone="no"?>
<!DOCTYPE svg PUBLIC "-//W3C//DTD SVG 1.1//EN"
 "http://www.w3.org/Graphics/SVG/1.1/DTD/svg11.dtd">
<!-- Generated by graphviz version 2.43.0 (0)
 -->
<!-- Title: graph Pages: 1 -->
<svg width="300pt" height="268pt"
 viewBox="0.00 0.00 299.79 268.00" xmlns="http://www.w3.org/2000/svg" xmlns:xlink="http://www.w3.org/1999/xlink">
<g id="graph0" class="graph" transform="scale(1 1) rotate(0) translate(4 264)">
<title>graph</title>
<polygon fill="white" stroke="transparent" points="-4,4 -4,-264 295.79,-264 295.79,4 -4,4"/>
<!-- V107512 -->
<g id="node1" class="node">
<title>V107512</title>
<g id="a_node1"><a xlink:href="http://trips.ihmc.us/lexicon/data/ONT::SA_WH-QUESTION.xml" xlink:title="&lt;font color=&quot;green&quot;&gt;&lt;br /&gt;&lt;/font&gt; &lt;font color=&quot;black&quot;&gt;SA_WH&#45;QUESTION&lt;/font&gt; &lt;font color=&quot;green&quot;&gt;&lt;br /&gt;&lt;/font&gt; &lt;font color=&quot;red&quot;&gt;SPEECHACT&lt;/font&gt; &lt;font color=&quot;blue&quot;&gt;* &lt;/font&gt; &lt;font color=&quot;green&quot;&gt;&lt;br /&gt; &lt;/font&gt;">
<text text-anchor="start" x="165.23" y="-246.6" font-family="Work Sans" font-size="8.00"> </text>
<text text-anchor="start" x="167.45" y="-246.6" font-family="Work Sans" font-size="8.00">SA_WH&#45;QUESTION</text>
<text text-anchor="start" x="240.34" y="-246.6" font-family="Work Sans" font-size="8.00"> </text>
<text text-anchor="start" x="173.44" y="-238.6" font-family="Work Sans" font-size="8.00"> </text>
<text text-anchor="start" x="175.67" y="-238.6" font-family="Work Sans" font-size="8.00" fill="red">SPEECHACT</text>
<text text-anchor="start" x="224.57" y="-238.6" font-family="Work Sans" font-size="8.00"> </text>
<text text-anchor="start" x="226.79" y="-238.6" font-family="Work Sans" font-size="8.00" fill="blue">* </text>
<text text-anchor="start" x="232.12" y="-238.6" font-family="Work Sans" font-size="8.00"> </text>
<text text-anchor="start" x="202.78" y="-230.6" font-family="Work Sans" font-size="8.00" fill="green"> </text>
</a>
</g>
</g>
<!-- V107321 -->
<g id="node2" class="node">
<title>V107321</title>
<g id="a_node2"><a xlink:href="http://trips.ihmc.us/lexicon/data/ONT::PURCHASE.xml" xlink:title="&lt;font color=&quot;green&quot;&gt;&lt;br /&gt;&lt;/font&gt; &lt;font color=&quot;black&quot;&gt;PURCHASE&lt;/font&gt; &lt;font color=&quot;green&quot;&gt;&lt;br /&gt;&lt;/font&gt; &lt;font color=&quot;red&quot;&gt;F&lt;/font&gt; &lt;font color=&quot;blue&quot;&gt;BUY&lt;/font&gt; &lt;font color=&quot;green&quot;&gt;&lt;br /&gt; &lt;/font&gt;">
<text text-anchor="start" x="112.45" y="-170.6" font-family="Work Sans" font-size="8.00"> </text>
<text text-anchor="start" x="114.67" y="-170.6" font-family="Work Sans" font-size="8.00">PURCHASE</text>
<text text-anchor="start" x="159.12" y="-170.6" font-family="Work Sans" font-size="8.00"> </text>
<text text-anchor="start" x="122.89" y="-162.6" font-family="Work Sans" font-size="8.00"> </text>
<text text-anchor="start" x="125.12" y="-162.6" font-family="Work Sans" font-size="8.00" fill="red">F</text>
<text text-anchor="start" x="130" y="-162.6" font-family="Work Sans" font-size="8.00"> </text>
<text text-anchor="start" x="132.23" y="-162.6" font-family="Work Sans" font-size="8.00" fill="blue">BUY</text>
<text text-anchor="start" x="148.67" y="-162.6" font-family="Work Sans" font-size="8.00"> </text>
<text text-anchor="start" x="135.78" y="-154.6" font-family="Work Sans" font-size="8.00" fill="green"> </text>
</a>
</g>
</g>
<!-- V107512&#45;&gt;V107321 -->
<g id="edge4" class="edge">
<title>V107512&#45;&gt;V107321</title>
<path fill="none" stroke="grey" stroke-width="0.5" d="M190.01,-227.67C179.52,-216.08 165.07,-200.12 153.89,-187.77"/>
<polygon fill="grey" stroke="grey" stroke-width="0.5" points="155.18,-186.59 150.53,-184.06 152.59,-188.94 155.18,-186.59"/>
<text text-anchor="middle" x="195.6" y="-203.6" font-family="Work Sans" font-size="8.00"> CONTENT &#160;&#160;</text>
</g>
<!-- V107366 -->
<g id="node4" class="node">
<title>V107366</title>
<g id="a_node4"><a xlink:href="http://trips.ihmc.us/lexicon/data/ONT::LOCATION.xml" xlink:title="&lt;font color=&quot;green&quot;&gt;&lt;br /&gt;&lt;/font&gt; &lt;font color=&quot;black&quot;&gt;LOCATION&lt;/font&gt; &lt;font color=&quot;green&quot;&gt;&lt;br /&gt;&lt;/font&gt; &lt;font color=&quot;red&quot;&gt;WH&#45;TERM&lt;/font&gt; &lt;font color=&quot;blue&quot;&gt;* &lt;/font&gt; &lt;font color=&quot;green&quot;&gt;&lt;br /&gt; &lt;/font&gt;">
<text text-anchor="start" x="119.52" y="-18.6" font-family="Work Sans" font-size="8.00"> </text>
<text text-anchor="start" x="121.74" y="-18.6" font-family="Work Sans" font-size="8.00">LOCATION</text>
<text text-anchor="start" x="162.05" y="-18.6" font-family="Work Sans" font-size="8.00"> </text>
<text text-anchor="start" x="116.57" y="-10.6" font-family="Work Sans" font-size="8.00"> </text>
<text text-anchor="start" x="118.79" y="-10.6" font-family="Work Sans" font-size="8.00" fill="red">WH&#45;TERM</text>
<text text-anchor="start" x="157.44" y="-10.6" font-family="Work Sans" font-size="8.00"> </text>
<text text-anchor="start" x="159.67" y="-10.6" font-family="Work Sans" font-size="8.00" fill="blue">* </text>
<text text-anchor="start" x="165" y="-10.6" font-family="Work Sans" font-size="8.00"> </text>
<text text-anchor="start" x="140.78" y="-2.6" font-family="Work Sans" font-size="8.00" fill="green"> </text>
</a>
</g>
</g>
<!-- V107512&#45;&gt;V107366 -->
<g id="edge2" class="edge">
<title>V107512&#45;&gt;V107366</title>
<path fill="none" stroke="grey" stroke-width="0.5" d="M214.91,-227.65C235.51,-196.9 275.23,-126.38 245.9,-76 230.13,-48.92 196.8,-33.27 172.1,-24.97"/>
<polygon fill="grey" stroke="grey" stroke-width="0.5" points="172.58,-23.29 167.28,-23.41 171.5,-26.62 172.58,-23.29"/>
<text text-anchor="middle" x="273.34" y="-127.6" font-family="Work Sans" font-size="8.00"> FOCUS &#160;&#160;</text>
</g>
<!-- V107277 -->
<g id="node3" class="node">
<title>V107277</title>
<g id="a_node3"><a xlink:href="http://trips.ihmc.us/lexicon/data/ONT::AT-LOC.xml" xlink:title="&lt;font color=&quot;green&quot;&gt;&lt;br /&gt;&lt;/font&gt; &lt;font color=&quot;black&quot;&gt;AT&#45;LOC&lt;/font&gt; &lt;font color=&quot;green&quot;&gt;&lt;br /&gt;&lt;/font&gt; &lt;font color=&quot;red&quot;&gt;F&lt;/font&gt; &lt;font color=&quot;blue&quot;&gt;WHERE&lt;/font&gt; &lt;font color=&quot;green&quot;&gt;&lt;br /&gt; &lt;/font&gt;">
<polygon fill="lightblue" stroke="transparent" points="95.73,-108 54.06,-108 54.06,-76 95.73,-76 95.73,-108"/>
<text text-anchor="start" x="58.52" y="-94.6" font-family="Work Sans" font-size="8.00"> </text>
<text text-anchor="start" x="60.74" y="-94.6" font-family="Work Sans" font-size="8.00">AT&#45;LOC</text>
<text text-anchor="start" x="89.05" y="-94.6" font-family="Work Sans" font-size="8.00"> </text>
<text text-anchor="start" x="54.23" y="-86.6" font-family="Work Sans" font-size="8.00"> </text>
<text text-anchor="start" x="56.45" y="-86.6" font-family="Work Sans" font-size="8.00" fill="red">F</text>
<text text-anchor="start" x="61.34" y="-86.6" font-family="Work Sans" font-size="8.00"> </text>
<text text-anchor="start" x="63.56" y="-86.6" font-family="Work Sans" font-size="8.00" fill="blue">WHERE</text>
<text text-anchor="start" x="93.34" y="-86.6" font-family="Work Sans" font-size="8.00"> </text>
<text text-anchor="start" x="73.78" y="-78.6" font-family="Work Sans" font-size="8.00" fill="green"> </text>
</a>
</g>
</g>
<!-- V107321&#45;&gt;V107277 -->
<g id="edge5" class="edge">
<title>V107321&#45;&gt;V107277</title>
<path fill="none" stroke="red" stroke-width="0.5" d="M112.31,-165.49C77.58,-161.38 16.8,-151.92 2.91,-134.62 -11.13,-114.52 22.64,-102.85 48.58,-96.86"/>
<path fill="none" stroke="blue" stroke-width="0.5" d="M112.55,-163.51C77.88,-159.41 17.1,-149.94 4.49,-133.38 -10.48,-116.41 23.29,-104.74 49.03,-98.81"/>
<polygon fill="red" stroke="red" stroke-width="0.5" points="49.35,-99.51 53.85,-96.72 48.59,-96.09 49.35,-99.51"/>
<text text-anchor="middle" x="28.49" y="-127.6" font-family="Work Sans" font-size="8.00"> LOCATION &#160;&#160;</text>
</g>
<!-- V107312 -->
<g id="node5" class="node">
<title>V107312</title>
<g id="a_node5"><a xlink:href="http://trips.ihmc.us/lexicon/data/ONT::PERSON.xml" xlink:title="&lt;font color=&quot;green&quot;&gt;&lt;br /&gt;&lt;/font&gt; &lt;font color=&quot;black&quot;&gt;PERSON&lt;/font&gt; &lt;font color=&quot;green&quot;&gt;&lt;br /&gt;&lt;/font&gt; &lt;font color=&quot;red&quot;&gt;PRO&lt;/font&gt; &lt;font color=&quot;blue&quot;&gt;YOU&lt;/font&gt; &lt;font color=&quot;green&quot;&gt;&lt;br /&gt; &lt;/font&gt;">
<text text-anchor="start" x="116.78" y="-94.6" font-family="Work Sans" font-size="8.00"> </text>
<text text-anchor="start" x="119" y="-94.6" font-family="Work Sans" font-size="8.00">PERSON</text>
<text text-anchor="start" x="152.79" y="-94.6" font-family="Work Sans" font-size="8.00"> </text>
<text text-anchor="start" x="115.23" y="-86.6" font-family="Work Sans" font-size="8.00"> </text>
<text text-anchor="start" x="117.45" y="-86.6" font-family="Work Sans" font-size="8.00" fill="red">PRO</text>
<text text-anchor="start" x="134.78" y="-86.6" font-family="Work Sans" font-size="8.00"> </text>
<text text-anchor="start" x="137.01" y="-86.6" font-family="Work Sans" font-size="8.00" fill="blue">YOU</text>
<text text-anchor="start" x="154.34" y="-86.6" font-family="Work Sans" font-size="8.00"> </text>
<text text-anchor="start" x="134.78" y="-78.6" font-family="Work Sans" font-size="8.00" fill="green"> </text>
</a>
</g>
</g>
<!-- V107321&#45;&gt;V107312 -->
<g id="edge8" class="edge">
<title>V107321&#45;&gt;V107312</title>
<path fill="none" stroke="grey" stroke-width="0.5" d="M136.69,-151.67C136.54,-140.58 136.33,-125.49 136.17,-113.38"/>
<polygon fill="grey" stroke="grey" stroke-width="0.5" points="137.92,-113.04 136.1,-108.06 134.42,-113.08 137.92,-113.04"/>
<text text-anchor="middle" x="153.83" y="-127.6" font-family="Work Sans" font-size="8.00"> AGENT &#160;&#160;</text>
</g>
<!-- V107330 -->
<g id="node6" class="node">
<title>V107330</title>
<g id="a_node6"><a xlink:href="http://trips.ihmc.us/lexicon/data/ONT::LAND-VEHICLE.xml" xlink:title="&lt;font color=&quot;green&quot;&gt;&lt;br /&gt;&lt;/font&gt; &lt;font color=&quot;black&quot;&gt;LAND&#45;VEHICLE&lt;/font&gt; &lt;font color=&quot;green&quot;&gt;&lt;br /&gt;&lt;/font&gt; &lt;font color=&quot;red&quot;&gt;THE&lt;/font&gt; &lt;font color=&quot;blue&quot;&gt;CAR&lt;/font&gt; &lt;font color=&quot;green&quot;&gt;&lt;br /&gt; &lt;/font&gt;">
<polygon fill="pink" stroke="transparent" stroke-width="0.5" points="174.71,-76 205.9,-76 205.9,-108 174.71,-108 174.71,-76"/>
<polygon fill="lightblue" stroke="transparent" stroke-width="0.5" points="205.9,-76 237.08,-76 237.08,-108 205.9,-108 205.9,-76"/>
<polygon fill="none" stroke="transparent" points="237.08,-108 174.71,-108 174.71,-76 237.08,-76 237.08,-108"/>
<text text-anchor="start" x="174.55" y="-94.6" font-family="Work Sans" font-size="8.00"> </text>
<text text-anchor="start" x="176.78" y="-94.6" font-family="Work Sans" font-size="8.00">LAND&#45;VEHICLE</text>
<text text-anchor="start" x="235.01" y="-94.6" font-family="Work Sans" font-size="8.00"> </text>
<text text-anchor="start" x="186.12" y="-86.6" font-family="Work Sans" font-size="8.00"> </text>
<text text-anchor="start" x="188.34" y="-86.6" font-family="Work Sans" font-size="8.00" fill="red">THE</text>
<text text-anchor="start" x="204.34" y="-86.6" font-family="Work Sans" font-size="8.00"> </text>
<text text-anchor="start" x="206.56" y="-86.6" font-family="Work Sans" font-size="8.00" fill="blue">CAR</text>
<text text-anchor="start" x="223.45" y="-86.6" font-family="Work Sans" font-size="8.00"> </text>
<text text-anchor="start" x="204.78" y="-78.6" font-family="Work Sans" font-size="8.00" fill="green"> </text>
</a>
</g>
</g>
<!-- V107321&#45;&gt;V107330 -->
<g id="edge1" class="edge">
<title>V107321&#45;&gt;V107330</title>
<path fill="none" stroke="grey" stroke-width="0.5" d="M155.19,-151.84C161.36,-146.44 168.13,-140.16 173.9,-134 180.13,-127.34 186.43,-119.55 191.77,-112.56"/>
<polygon fill="grey" stroke="grey" stroke-width="0.5" points="193.35,-113.38 194.96,-108.33 190.55,-111.27 193.35,-113.38"/>
<text text-anchor="middle" x="205.23" y="-127.6" font-family="Work Sans" font-size="8.00"> AFFECTED &#160;&#160;</text>
</g>
<!-- V107277&#45;&gt;V107321 -->
<g id="edge6" class="edge">
<title>V107277&#45;&gt;V107321</title>
<path fill="none" stroke="grey" stroke-width="0.5" d="M79.35,-108.05C82.28,-116.28 86.71,-126.33 92.78,-134 97.04,-139.38 102.38,-144.33 107.85,-148.68"/>
<polygon fill="grey" stroke="grey" stroke-width="0.5" points="107.01,-150.24 112.05,-151.88 109.13,-147.46 107.01,-150.24"/>
<text text-anchor="middle" x="112.45" y="-127.6" font-family="Work Sans" font-size="8.00"> FIGURE &#160;&#160;</text>
</g>
<!-- V107277&#45;&gt;V107366 -->
<g id="edge3" class="edge">
<title>V107277&#45;&gt;V107366</title>
<path fill="none" stroke="grey" stroke-width="0.5" d="M71.48,-75.89C70.46,-67.64 70.67,-57.59 75.45,-50 83.51,-37.18 98.18,-29.18 111.69,-24.27"/>
<polygon fill="grey" stroke="grey" stroke-width="0.5" points="112.43,-25.87 116.6,-22.6 111.31,-22.55 112.43,-25.87"/>
<text text-anchor="middle" x="98.12" y="-51.6" font-family="Work Sans" font-size="8.00"> GROUND &#160;&#160;</text>
</g>
<!-- V107366&#45;&gt;V107277 -->
<g id="edge7" class="edge">
<title>V107366&#45;&gt;V107277</title>
<path fill="none" stroke="blue" stroke-width="0.5" d="M135.8,-32.04C132,-40.26 126.57,-50.32 119.9,-58 114.21,-64.54 107.01,-70.54 100.04,-75.58"/>
<polygon fill="blue" stroke="blue" stroke-width="0.5" points="98.84,-74.28 95.75,-78.58 100.84,-77.15 98.84,-74.28"/>
<text text-anchor="middle" x="150.75" y="-51.6" font-family="Work Sans" font-size="8.00"> SUCHTHAT &#160;&#160;</text>
</g>
</g>
</svg>
